<?xml version="1.0" encoding="UTF-8" standalone="no"?>
<!DOCTYPE svg PUBLIC "-//W3C//DTD SVG 1.1//EN"
 "http://www.w3.org/Graphics/SVG/1.1/DTD/svg11.dtd">
<!-- Generated by graphviz version 2.43.0 (0)
 -->
<!-- Title: json_rpc::ClientTransport Pages: 1 -->
<svg width="499pt" height="202pt"
 viewBox="0.00 0.00 499.00 202.00" xmlns="http://www.w3.org/2000/svg" xmlns:xlink="http://www.w3.org/1999/xlink">
<g id="graph0" class="graph" transform="scale(1 1) rotate(0) translate(4 198)">
<title>json_rpc::ClientTransport</title>
<!-- Node1 -->
<g id="Node000001" class="node">
<title>Node1</title>
<g id="a_Node000001"><a xlink:title="An abstract class representing the transport mechanism for JSON&#45;RPC client.">
<polygon fill="#999999" stroke="transparent" points="307,-194 176,-194 176,-115 307,-115 307,-194"/>
<text text-anchor="start" x="181.5" y="-181.5" font-family="Helvetica,sans-Serif" font-size="10.00">json_rpc::ClientTransport</text>
<text text-anchor="start" x="240" y="-166.5" font-family="Helvetica,sans-Serif" font-size="10.00"> </text>
<text text-anchor="start" x="185.5" y="-151.5" font-family="Helvetica,sans-Serif" font-size="10.00">+</text>
<text text-anchor="start" x="203.5" y="-151.5" font-family="Helvetica,sans-Serif" font-size="10.00">~ClientTransport()</text>
<text text-anchor="start" x="185.5" y="-136.5" font-family="Helvetica,sans-Serif" font-size="10.00">+</text>
<text text-anchor="start" x="203.5" y="-136.5" font-family="Helvetica,sans-Serif" font-size="10.00">SendMethodCall()</text>
<text text-anchor="start" x="185.5" y="-121.5" font-family="Helvetica,sans-Serif" font-size="10.00">+</text>
<text text-anchor="start" x="203.5" y="-121.5" font-family="Helvetica,sans-Serif" font-size="10.00">SendNotification()</text>
<polygon fill="#666666" stroke="#666666" points="176.5,-176.5 176.5,-176.5 307.5,-176.5 307.5,-176.5 176.5,-176.5"/>
<polygon fill="#666666" stroke="#666666" points="176.5,-161.5 176.5,-161.5 307.5,-161.5 307.5,-161.5 176.5,-161.5"/>
<polygon fill="none" stroke="#666666" points="176,-115 176,-194 307,-194 307,-115 176,-115"/>
</a>
</g>
</g>
<!-- Node2 -->
<g id="Node000002" class="node">
<title>Node2</title>
<g id="a_Node000002"><a xlink:href="classjson__rpc_1_1FramedStdioClientTransport.html" target="_top" xlink:title="Client transport using framed stdio for communication.">
<polygon fill="white" stroke="transparent" points="147,-77 0,-77 0,-2 147,-2 147,-77"/>
<text text-anchor="start" x="5.5" y="-64.5" font-family="Helvetica,sans-Serif" font-size="10.00">json_rpc::FramedStdioClient</text>
<text text-anchor="start" x="51" y="-53.5" font-family="Helvetica,sans-Serif" font-size="10.00">Transport</text>
<text text-anchor="start" x="72" y="-38.5" font-family="Helvetica,sans-Serif" font-size="10.00"> </text>
<text text-anchor="start" x="14" y="-23.5" font-family="Helvetica,sans-Serif" font-size="10.00">+</text>
<text text-anchor="start" x="36.5" y="-23.5" font-family="Helvetica,sans-Serif" font-size="10.00">SendMethodCall()</text>
<text text-anchor="start" x="14" y="-8.5" font-family="Helvetica,sans-Serif" font-size="10.00">+</text>
<text text-anchor="start" x="36.5" y="-8.5" font-family="Helvetica,sans-Serif" font-size="10.00">SendNotification()</text>
<polygon fill="#666666" stroke="#666666" points="0.5,-48.5 0.5,-48.5 147.5,-48.5 147.5,-48.5 0.5,-48.5"/>
<polygon fill="#666666" stroke="#666666" points="0.5,-33.5 0.5,-33.5 147.5,-33.5 147.5,-33.5 0.5,-33.5"/>
<polygon fill="none" stroke="#666666" points="0,-2 0,-77 147,-77 147,-2 0,-2"/>
</a>
</g>
</g>
<!-- Node1&#45;&gt;Node2 -->
<g id="edge1_Node000001_Node000002" class="edge">
<title>Node1&#45;&gt;Node2</title>
<g id="a_edge1_Node000001_Node000002"><a xlink:title=" ">
<path fill="none" stroke="#63b8ff" d="M175.52,-109.12C159.8,-98.54 143.18,-87.37 128.04,-77.18"/>
<polygon fill="none" stroke="#63b8ff" points="173.9,-112.25 184.15,-114.93 177.81,-106.44 173.9,-112.25"/>
</a>
</g>
</g>
<!-- Node3 -->
<g id="Node000003" class="node">
<title>Node3</title>
<g id="a_Node000003"><a xlink:href="classjson__rpc_1_1HttpClientTransport.html" target="_top" xlink:title="Client transport using HTTP for communication.">
<polygon fill="white" stroke="transparent" points="317.5,-79 165.5,-79 165.5,0 317.5,0 317.5,-79"/>
<text text-anchor="start" x="170.5" y="-66.5" font-family="Helvetica,sans-Serif" font-size="10.00">json_rpc::HttpClientTransport</text>
<text text-anchor="start" x="239.5" y="-51.5" font-family="Helvetica,sans-Serif" font-size="10.00"> </text>
<text text-anchor="start" x="176.5" y="-36.5" font-family="Helvetica,sans-Serif" font-size="10.00">+</text>
<text text-anchor="start" x="196.5" y="-36.5" font-family="Helvetica,sans-Serif" font-size="10.00">HttpClientTransport()</text>
<text text-anchor="start" x="176.5" y="-21.5" font-family="Helvetica,sans-Serif" font-size="10.00">+</text>
<text text-anchor="start" x="196.5" y="-21.5" font-family="Helvetica,sans-Serif" font-size="10.00">SendMethodCall()</text>
<text text-anchor="start" x="176.5" y="-6.5" font-family="Helvetica,sans-Serif" font-size="10.00">+</text>
<text text-anchor="start" x="196.5" y="-6.5" font-family="Helvetica,sans-Serif" font-size="10.00">SendNotification()</text>
<polygon fill="#666666" stroke="#666666" points="165.5,-61.5 165.5,-61.5 317.5,-61.5 317.5,-61.5 165.5,-61.5"/>
<polygon fill="#666666" stroke="#666666" points="165.5,-46.5 165.5,-46.5 317.5,-46.5 317.5,-46.5 165.5,-46.5"/>
<polygon fill="none" stroke="#666666" points="165.5,0 165.5,-79 317.5,-79 317.5,0 165.5,0"/>
</a>
</g>
</g>
<!-- Node1&#45;&gt;Node3 -->
<g id="edge2_Node000001_Node000003" class="edge">
<title>Node1&#45;&gt;Node3</title>
<g id="a_edge2_Node000001_Node000003"><a xlink:title=" ">
<path fill="none" stroke="#63b8ff" d="M241.5,-104.72C241.5,-96.22 241.5,-87.47 241.5,-79.28"/>
<polygon fill="none" stroke="#63b8ff" points="238,-104.93 241.5,-114.93 245,-104.93 238,-104.93"/>
</a>
</g>
</g>
<!-- Node4 -->
<g id="Node000004" class="node">
<title>Node4</title>
<g id="a_Node000004"><a xlink:href="classjson__rpc_1_1StdioClientTransport.html" target="_top" xlink:title="Client transport using stdio for communication.">
<polygon fill="white" stroke="transparent" points="491,-71.5 336,-71.5 336,-7.5 491,-7.5 491,-71.5"/>
<text text-anchor="start" x="341.5" y="-59.5" font-family="Helvetica,sans-Serif" font-size="10.00">json_rpc::StdioClientTransport</text>
<text text-anchor="start" x="412" y="-44.5" font-family="Helvetica,sans-Serif" font-size="10.00"> </text>
<text text-anchor="start" x="352" y="-29.5" font-family="Helvetica,sans-Serif" font-size="10.00">+</text>
<text text-anchor="start" x="376.5" y="-29.5" font-family="Helvetica,sans-Serif" font-size="10.00">SendMethodCall()</text>
<text text-anchor="start" x="352" y="-14.5" font-family="Helvetica,sans-Serif" font-size="10.00">+</text>
<text text-anchor="start" x="376.5" y="-14.5" font-family="Helvetica,sans-Serif" font-size="10.00">SendNotification()</text>
<polygon fill="#666666" stroke="#666666" points="336.5,-54.5 336.5,-54.5 491.5,-54.5 491.5,-54.5 336.5,-54.5"/>
<polygon fill="#666666" stroke="#666666" points="336.5,-39.5 336.5,-39.5 491.5,-39.5 491.5,-39.5 336.5,-39.5"/>
<polygon fill="none" stroke="#666666" points="336,-7.5 336,-71.5 491,-71.5 491,-7.5 336,-7.5"/>
</a>
</g>
</g>
<!-- Node1&#45;&gt;Node4 -->
<g id="edge3_Node000001_Node000004" class="edge">
<title>Node1&#45;&gt;Node4</title>
<g id="a_edge3_Node000001_Node000004"><a xlink:title=" ">
<path fill="none" stroke="#63b8ff" d="M308.64,-109.39C327.86,-96.76 348.39,-83.27 366.15,-71.6"/>
<polygon fill="none" stroke="#63b8ff" points="306.65,-106.51 300.21,-114.93 310.49,-112.36 306.65,-106.51"/>
</a>
</g>
</g>
</g>
</svg>
