<?xml version="1.0" encoding="UTF-8" standalone="no"?>
<!DOCTYPE svg PUBLIC "-//W3C//DTD SVG 1.1//EN"
 "http://www.w3.org/Graphics/SVG/1.1/DTD/svg11.dtd">
<!-- Generated by graphviz version 2.43.0 (0)
 -->
<!-- Title: json_rpc::StdioServerTransport::Listen Pages: 1 -->
<svg width="494pt" height="110pt"
 viewBox="0.00 0.00 494.00 110.00" xmlns="http://www.w3.org/2000/svg" xmlns:xlink="http://www.w3.org/1999/xlink">
<g id="graph0" class="graph" transform="scale(1 1) rotate(0) translate(4 106)">
<title>json_rpc::StdioServerTransport::Listen</title>
<!-- Node1 -->
<g id="Node000001" class="node">
<title>Node1</title>
<g id="a_Node000001"><a xlink:title="Listens for incoming messages and dispatches them to the appropriate handlers.">
<polygon fill="#999999" stroke="#666666" points="164,-54 0,-54 0,-24 164,-24 164,-54"/>
<text text-anchor="start" x="8" y="-42" font-family="Helvetica,sans-Serif" font-size="10.00">json_rpc::StdioServerTransport</text>
<text text-anchor="middle" x="82" y="-31" font-family="Helvetica,sans-Serif" font-size="10.00">::Listen</text>
</a>
</g>
</g>
<!-- Node2 -->
<g id="Node000002" class="node">
<title>Node2</title>
<g id="a_Node000002"><a xlink:href="classjson__rpc_1_1Dispatcher.html#a7ae947579557272d7d3c310325ca7c13" target="_top" xlink:title="Dispatches an RPC request to the appropriate handler.">
<polygon fill="white" stroke="#666666" points="328,-78 212,-78 212,-48 328,-48 328,-78"/>
<text text-anchor="start" x="220" y="-66" font-family="Helvetica,sans-Serif" font-size="10.00">json_rpc::Dispatcher</text>
<text text-anchor="middle" x="270" y="-55" font-family="Helvetica,sans-Serif" font-size="10.00">::DispatchRequest</text>
</a>
</g>
</g>
<!-- Node1&#45;&gt;Node2 -->
<g id="edge1_Node000001_Node000002" class="edge">
<title>Node1&#45;&gt;Node2</title>
<g id="a_edge1_Node000001_Node000002"><a xlink:title=" ">
<path fill="none" stroke="#63b8ff" d="M164.04,-49.46C176.66,-51.09 189.58,-52.75 201.85,-54.33"/>
<polygon fill="#63b8ff" stroke="#63b8ff" points="201.61,-57.83 211.98,-55.64 202.51,-50.89 201.61,-57.83"/>
</a>
</g>
</g>
<!-- Node5 -->
<g id="Node000005" class="node">
<title>Node5</title>
<g id="a_Node000005"><a xlink:href="classjson__rpc_1_1ServerTransport.html#a906c506a024fa0a2c3c556338a1117c2" target="_top" xlink:title="Checks if the transport is running.">
<polygon fill="white" stroke="#666666" points="340,-30 200,-30 200,0 340,0 340,-30"/>
<text text-anchor="start" x="208" y="-18" font-family="Helvetica,sans-Serif" font-size="10.00">json_rpc::ServerTransport</text>
<text text-anchor="middle" x="270" y="-7" font-family="Helvetica,sans-Serif" font-size="10.00">::IsRunning</text>
</a>
</g>
</g>
<!-- Node1&#45;&gt;Node5 -->
<g id="edge4_Node000001_Node000005" class="edge">
<title>Node1&#45;&gt;Node5</title>
<g id="a_edge4_Node000001_Node000005"><a xlink:title=" ">
<path fill="none" stroke="#63b8ff" d="M164.04,-28.54C172.63,-27.44 181.35,-26.31 189.91,-25.21"/>
<polygon fill="#63b8ff" stroke="#63b8ff" points="190.4,-28.67 199.87,-23.92 189.5,-21.73 190.4,-28.67"/>
</a>
</g>
</g>
<!-- Node3 -->
<g id="Node000003" class="node">
<title>Node3</title>
<g id="a_Node000003"><a xlink:href="classjson__rpc_1_1Response.html#a103427d492c8a81ad1d169e2516695a2" target="_top" xlink:title="Creates a Response object for a library error.">
<polygon fill="white" stroke="#666666" points="486,-102 376,-102 376,-72 486,-72 486,-102"/>
<text text-anchor="start" x="384" y="-90" font-family="Helvetica,sans-Serif" font-size="10.00">json_rpc::Response</text>
<text text-anchor="middle" x="431" y="-79" font-family="Helvetica,sans-Serif" font-size="10.00">::CreateLibError</text>
</a>
</g>
</g>
<!-- Node2&#45;&gt;Node3 -->
<g id="edge2_Node000002_Node000003" class="edge">
<title>Node2&#45;&gt;Node3</title>
<g id="a_edge2_Node000002_Node000003"><a xlink:title=" ">
<path fill="none" stroke="#63b8ff" d="M328.4,-71.66C340.49,-73.49 353.33,-75.43 365.66,-77.29"/>
<polygon fill="#63b8ff" stroke="#63b8ff" points="365.45,-80.8 375.86,-78.83 366.5,-73.88 365.45,-80.8"/>
</a>
</g>
</g>
<!-- Node4 -->
<g id="Node000004" class="node">
<title>Node4</title>
<g id="a_Node000004"><a xlink:href="classjson__rpc_1_1Response.html#abe6908720f1e791dc06af7a7efba49c5" target="_top" xlink:title="Serializes the Response object to a string.">
<polygon fill="white" stroke="#666666" points="486,-54 376,-54 376,-24 486,-24 486,-54"/>
<text text-anchor="start" x="384" y="-42" font-family="Helvetica,sans-Serif" font-size="10.00">json_rpc::Response</text>
<text text-anchor="middle" x="431" y="-31" font-family="Helvetica,sans-Serif" font-size="10.00">::ToStr</text>
</a>
</g>
</g>
<!-- Node2&#45;&gt;Node4 -->
<g id="edge3_Node000002_Node000004" class="edge">
<title>Node2&#45;&gt;Node4</title>
<g id="a_edge3_Node000002_Node000004"><a xlink:title=" ">
<path fill="none" stroke="#63b8ff" d="M328.4,-54.34C340.49,-52.51 353.33,-50.57 365.66,-48.71"/>
<polygon fill="#63b8ff" stroke="#63b8ff" points="366.5,-52.12 375.86,-47.17 365.45,-45.2 366.5,-52.12"/>
</a>
</g>
</g>
</g>
</svg>
