<?xml version="1.0" encoding="UTF-8" standalone="no"?>
<!DOCTYPE svg PUBLIC "-//W3C//DTD SVG 1.1//EN"
 "http://www.w3.org/Graphics/SVG/1.1/DTD/svg11.dtd">
<!-- Generated by graphviz version 2.43.0 (0)
 -->
<!-- Title: jsonrpc::transport::FramedTransport Pages: 1 -->
<svg width="443pt" height="254pt"
 viewBox="0.00 0.00 442.50 254.00" xmlns="http://www.w3.org/2000/svg" xmlns:xlink="http://www.w3.org/1999/xlink">
<g id="graph0" class="graph" transform="scale(1 1) rotate(0) translate(4 250)">
<title>jsonrpc::transport::FramedTransport</title>
<!-- Node1 -->
<g id="Node000001" class="node">
<title>Node1</title>
<g id="a_Node000001"><a xlink:title="Base class for framed transport mechanisms.">
<polygon fill="#999999" stroke="transparent" points="314.5,-246 129.5,-246 129.5,-126 314.5,-126 314.5,-246"/>
<text text-anchor="start" x="178.5" y="-234" font-family="Helvetica,sans-Serif" font-size="10.00">jsonrpc::transport</text>
<text text-anchor="start" x="178.5" y="-223" font-family="Helvetica,sans-Serif" font-size="10.00">::FramedTransport</text>
<text text-anchor="start" x="134" y="-208" font-family="Helvetica,sans-Serif" font-size="10.00">#</text>
<text text-anchor="start" x="147" y="-208" font-family="Helvetica,sans-Serif" font-size="10.00">kHeaderDelimiter</text>
<text text-anchor="start" x="134" y="-193" font-family="Helvetica,sans-Serif" font-size="10.00">#</text>
<text text-anchor="start" x="147" y="-193" font-family="Helvetica,sans-Serif" font-size="10.00">FrameMessage()</text>
<text text-anchor="start" x="134" y="-178" font-family="Helvetica,sans-Serif" font-size="10.00">#</text>
<text text-anchor="start" x="147" y="-178" font-family="Helvetica,sans-Serif" font-size="10.00">ReadHeadersFromStream()</text>
<text text-anchor="start" x="134" y="-163" font-family="Helvetica,sans-Serif" font-size="10.00">#</text>
<text text-anchor="start" x="147" y="-163" font-family="Helvetica,sans-Serif" font-size="10.00">ReadContentLengthFromStream()</text>
<text text-anchor="start" x="134" y="-148" font-family="Helvetica,sans-Serif" font-size="10.00">#</text>
<text text-anchor="start" x="147" y="-148" font-family="Helvetica,sans-Serif" font-size="10.00">ReadContent()</text>
<text text-anchor="start" x="134" y="-133" font-family="Helvetica,sans-Serif" font-size="10.00">#</text>
<text text-anchor="start" x="147" y="-133" font-family="Helvetica,sans-Serif" font-size="10.00">ReceiveFramedMessage()</text>
<polygon fill="#666666" stroke="#666666" points="130,-218 130,-218 315,-218 315,-218 130,-218"/>
<polygon fill="#666666" stroke="#666666" points="130,-203 130,-203 145,-203 145,-203 130,-203"/>
<polygon fill="#666666" stroke="#666666" points="145,-203 145,-203 315,-203 315,-203 145,-203"/>
<polygon fill="none" stroke="#666666" points="129.5,-126 129.5,-246 314.5,-246 314.5,-126 129.5,-126"/>
</a>
</g>
</g>
<!-- Node2 -->
<g id="Node000002" class="node">
<title>Node2</title>
<g id="a_Node000002"><a xlink:href="classjsonrpc_1_1transport_1_1FramedPipeTransport.html" target="_top" xlink:title="Transport layer using Asio Unix domain sockets for JSON&#45;RPC communication with framing.">
<polygon fill="white" stroke="transparent" points="132,-90 0,-90 0,0 132,0 132,-90"/>
<text text-anchor="start" x="11.5" y="-78" font-family="Helvetica,sans-Serif" font-size="10.00">jsonrpc::transport</text>
<text text-anchor="start" x="11.5" y="-67" font-family="Helvetica,sans-Serif" font-size="10.00">::FramedPipeTransport</text>
<text text-anchor="start" x="64" y="-52" font-family="Helvetica,sans-Serif" font-size="10.00"> </text>
<text text-anchor="start" x="4" y="-37" font-family="Helvetica,sans-Serif" font-size="10.00">+</text>
<text text-anchor="start" x="17" y="-37" font-family="Helvetica,sans-Serif" font-size="10.00">FramedPipeTransport()</text>
<text text-anchor="start" x="4" y="-22" font-family="Helvetica,sans-Serif" font-size="10.00">+</text>
<text text-anchor="start" x="17" y="-22" font-family="Helvetica,sans-Serif" font-size="10.00">SendMessage()</text>
<text text-anchor="start" x="4" y="-7" font-family="Helvetica,sans-Serif" font-size="10.00">+</text>
<text text-anchor="start" x="17" y="-7" font-family="Helvetica,sans-Serif" font-size="10.00">ReceiveMessage()</text>
<polygon fill="#666666" stroke="#666666" points="0,-62 0,-62 132,-62 132,-62 0,-62"/>
<polygon fill="#666666" stroke="#666666" points="0,-47 0,-47 132,-47 132,-47 0,-47"/>
<polygon fill="none" stroke="#666666" points="0,0 0,-90 132,-90 132,0 0,0"/>
</a>
</g>
</g>
<!-- Node1&#45;&gt;Node2 -->
<g id="edge1_Node000001_Node000002" class="edge">
<title>Node1&#45;&gt;Node2</title>
<g id="a_edge1_Node000001_Node000002"><a xlink:title=" ">
<path fill="none" stroke="darkgreen" d="M147.81,-118.89C136.81,-109.1 125.72,-99.21 115.4,-90.01"/>
<polygon fill="none" stroke="darkgreen" points="145.59,-121.61 155.39,-125.65 150.25,-116.38 145.59,-121.61"/>
</a>
</g>
</g>
<!-- Node3 -->
<g id="Node000003" class="node">
<title>Node3</title>
<g id="a_Node000003"><a xlink:href="classjsonrpc_1_1transport_1_1FramedSocketTransport.html" target="_top" xlink:title="Transport layer using Asio sockets for JSON&#45;RPC communication with framing.">
<polygon fill="white" stroke="transparent" points="293.5,-90 150.5,-90 150.5,0 293.5,0 293.5,-90"/>
<text text-anchor="start" x="162" y="-78" font-family="Helvetica,sans-Serif" font-size="10.00">jsonrpc::transport</text>
<text text-anchor="start" x="162" y="-67" font-family="Helvetica,sans-Serif" font-size="10.00">::FramedSocketTransport</text>
<text text-anchor="start" x="220.5" y="-52" font-family="Helvetica,sans-Serif" font-size="10.00"> </text>
<text text-anchor="start" x="155" y="-37" font-family="Helvetica,sans-Serif" font-size="10.00">+</text>
<text text-anchor="start" x="168" y="-37" font-family="Helvetica,sans-Serif" font-size="10.00">FramedSocketTransport()</text>
<text text-anchor="start" x="155" y="-22" font-family="Helvetica,sans-Serif" font-size="10.00">+</text>
<text text-anchor="start" x="168" y="-22" font-family="Helvetica,sans-Serif" font-size="10.00">SendMessage()</text>
<text text-anchor="start" x="155" y="-7" font-family="Helvetica,sans-Serif" font-size="10.00">+</text>
<text text-anchor="start" x="168" y="-7" font-family="Helvetica,sans-Serif" font-size="10.00">ReceiveMessage()</text>
<polygon fill="#666666" stroke="#666666" points="151,-62 151,-62 294,-62 294,-62 151,-62"/>
<polygon fill="#666666" stroke="#666666" points="151,-47 151,-47 294,-47 294,-47 151,-47"/>
<polygon fill="none" stroke="#666666" points="150.5,0 150.5,-90 293.5,-90 293.5,0 150.5,0"/>
</a>
</g>
</g>
<!-- Node1&#45;&gt;Node3 -->
<g id="edge2_Node000001_Node000003" class="edge">
<title>Node1&#45;&gt;Node3</title>
<g id="a_edge2_Node000001_Node000003"><a xlink:title=" ">
<path fill="none" stroke="darkgreen" d="M222,-115.5C222,-106.82 222,-98.15 222,-90.01"/>
<polygon fill="none" stroke="darkgreen" points="218.5,-115.65 222,-125.65 225.5,-115.65 218.5,-115.65"/>
</a>
</g>
</g>
<!-- Node4 -->
<g id="Node000004" class="node">
<title>Node4</title>
<g id="a_Node000004"><a xlink:href="classjsonrpc_1_1transport_1_1FramedStdioTransport.html" target="_top" xlink:title="Transport layer using framed messaging over standard I/O for JSON&#45;RPC communication.">
<polygon fill="white" stroke="transparent" points="434.5,-82.5 311.5,-82.5 311.5,-7.5 434.5,-7.5 434.5,-82.5"/>
<text text-anchor="start" x="317" y="-70" font-family="Helvetica,sans-Serif" font-size="10.00">jsonrpc::transport</text>
<text text-anchor="start" x="317" y="-59" font-family="Helvetica,sans-Serif" font-size="10.00">::FramedStdioTransport</text>
<text text-anchor="start" x="371.5" y="-44" font-family="Helvetica,sans-Serif" font-size="10.00"> </text>
<text text-anchor="start" x="318.5" y="-29" font-family="Helvetica,sans-Serif" font-size="10.00">+</text>
<text text-anchor="start" x="334" y="-29" font-family="Helvetica,sans-Serif" font-size="10.00">SendMessage()</text>
<text text-anchor="start" x="318.5" y="-14" font-family="Helvetica,sans-Serif" font-size="10.00">+</text>
<text text-anchor="start" x="334" y="-14" font-family="Helvetica,sans-Serif" font-size="10.00">ReceiveMessage()</text>
<polygon fill="#666666" stroke="#666666" points="312,-54 312,-54 435,-54 435,-54 312,-54"/>
<polygon fill="#666666" stroke="#666666" points="312,-39 312,-39 435,-39 435,-39 312,-39"/>
<polygon fill="none" stroke="#666666" points="311.5,-7.5 311.5,-82.5 434.5,-82.5 434.5,-7.5 311.5,-7.5"/>
</a>
</g>
</g>
<!-- Node1&#45;&gt;Node4 -->
<g id="edge3_Node000001_Node000004" class="edge">
<title>Node1&#45;&gt;Node4</title>
<g id="a_edge3_Node000001_Node000004"><a xlink:title=" ">
<path fill="none" stroke="darkgreen" d="M293.95,-118.77C307.46,-106.33 321.12,-93.76 333.2,-82.64"/>
<polygon fill="none" stroke="darkgreen" points="291.46,-116.3 286.48,-125.65 296.2,-121.45 291.46,-116.3"/>
</a>
</g>
</g>
</g>
</svg>
