<?xml version="1.0" encoding="UTF-8" standalone="no"?>
<!DOCTYPE svg PUBLIC "-//W3C//DTD SVG 1.1//EN"
 "http://www.w3.org/Graphics/SVG/1.1/DTD/svg11.dtd">
<!-- Generated by graphviz version 2.43.0 (0)
 -->
<!-- Title: jsonrpc::client::Request Pages: 1 -->
<svg width="133pt" height="102pt"
 viewBox="0.00 0.00 133.00 102.00" xmlns="http://www.w3.org/2000/svg" xmlns:xlink="http://www.w3.org/1999/xlink">
<g id="graph0" class="graph" transform="scale(1 1) rotate(0) translate(4 98)">
<title>jsonrpc::client::Request</title>
<!-- Node1 -->
<g id="Node000001" class="node">
<title>Node1</title>
<g id="a_Node000001"><a xlink:title="Represents a JSON&#45;RPC request.">
<polygon fill="#999999" stroke="transparent" points="125,-94 0,-94 0,0 125,0 125,-94"/>
<text text-anchor="start" x="5.5" y="-82" font-family="Helvetica,sans-Serif" font-size="10.00">jsonrpc::client::Request</text>
<text text-anchor="start" x="61" y="-67" font-family="Helvetica,sans-Serif" font-size="10.00"> </text>
<text text-anchor="start" x="6" y="-52" font-family="Helvetica,sans-Serif" font-size="10.00">+</text>
<text text-anchor="start" x="20.5" y="-52" font-family="Helvetica,sans-Serif" font-size="10.00">Request()</text>
<text text-anchor="start" x="6" y="-37" font-family="Helvetica,sans-Serif" font-size="10.00">+</text>
<text text-anchor="start" x="20.5" y="-37" font-family="Helvetica,sans-Serif" font-size="10.00">RequiresResponse()</text>
<text text-anchor="start" x="6" y="-22" font-family="Helvetica,sans-Serif" font-size="10.00">+</text>
<text text-anchor="start" x="20.5" y="-22" font-family="Helvetica,sans-Serif" font-size="10.00">GetKey()</text>
<text text-anchor="start" x="6" y="-7" font-family="Helvetica,sans-Serif" font-size="10.00">+</text>
<text text-anchor="start" x="20.5" y="-7" font-family="Helvetica,sans-Serif" font-size="10.00">Dump()</text>
<polygon fill="#666666" stroke="#666666" points="0.5,-77 0.5,-77 125.5,-77 125.5,-77 0.5,-77"/>
<polygon fill="#666666" stroke="#666666" points="0.5,-62 0.5,-62 125.5,-62 125.5,-62 0.5,-62"/>
<polygon fill="none" stroke="#666666" points="0,0 0,-94 125,-94 125,0 0,0"/>
</a>
</g>
</g>
</g>
</svg>
