<?xml version="1.0" encoding="UTF-8" standalone="no"?>
<!DOCTYPE svg PUBLIC "-//W3C//DTD SVG 1.1//EN"
 "http://www.w3.org/Graphics/SVG/1.1/DTD/svg11.dtd">
<!-- Generated by graphviz version 2.43.0 (0)
 -->
<!-- Title: jsonrpc::transport::FramedSocketTransport::ReceiveMessage Pages: 1 -->
<svg width="707pt" height="98pt"
 viewBox="0.00 0.00 707.00 97.50" xmlns="http://www.w3.org/2000/svg" xmlns:xlink="http://www.w3.org/1999/xlink">
<g id="graph0" class="graph" transform="scale(1 1) rotate(0) translate(4 93.5)">
<title>jsonrpc::transport::FramedSocketTransport::ReceiveMessage</title>
<!-- Node1 -->
<g id="Node000001" class="node">
<title>Node1</title>
<g id="a_Node000001"><a xlink:title="Receives a message from the transport layer.">
<polygon fill="#999999" stroke="#666666" points="137,-68 0,-68 0,-27 137,-27 137,-68"/>
<text text-anchor="start" x="8" y="-56" font-family="Helvetica,sans-Serif" font-size="10.00">jsonrpc::transport</text>
<text text-anchor="start" x="8" y="-45" font-family="Helvetica,sans-Serif" font-size="10.00">::FramedSocketTransport</text>
<text text-anchor="middle" x="68.5" y="-34" font-family="Helvetica,sans-Serif" font-size="10.00">::ReceiveMessage</text>
</a>
</g>
</g>
<!-- Node2 -->
<g id="Node000002" class="node">
<title>Node2</title>
<g id="a_Node000002"><a xlink:href="classjsonrpc_1_1transport_1_1SocketTransport.html#a564440aa09015b546fe10305cbe9846f" target="_top" xlink:title=" ">
<polygon fill="white" stroke="#666666" points="337,-89.5 182,-89.5 182,-59.5 337,-59.5 337,-89.5"/>
<text text-anchor="start" x="190" y="-77.5" font-family="Helvetica,sans-Serif" font-size="10.00">jsonrpc::transport</text>
<text text-anchor="middle" x="259.5" y="-66.5" font-family="Helvetica,sans-Serif" font-size="10.00">::SocketTransport::GetSocket</text>
</a>
</g>
</g>
<!-- Node1&#45;&gt;Node2 -->
<g id="edge1_Node000001_Node000002" class="edge">
<title>Node1&#45;&gt;Node2</title>
<g id="a_edge1_Node000001_Node000002"><a xlink:title=" ">
<path fill="none" stroke="#63b8ff" d="M137.2,-57.17C148.42,-58.77 160.2,-60.46 171.81,-62.12"/>
<polygon fill="#63b8ff" stroke="#63b8ff" points="171.57,-65.62 181.96,-63.57 172.56,-58.69 171.57,-65.62"/>
</a>
</g>
</g>
<!-- Node3 -->
<g id="Node000003" class="node">
<title>Node3</title>
<g id="a_Node000003"><a xlink:href="classjsonrpc_1_1transport_1_1FramedTransport.html#abc9bb6673778ecab6c5b9f8d50d44574" target="_top" xlink:title=" ">
<polygon fill="white" stroke="#666666" points="346,-41 173,-41 173,0 346,0 346,-41"/>
<text text-anchor="start" x="181" y="-29" font-family="Helvetica,sans-Serif" font-size="10.00">jsonrpc::transport</text>
<text text-anchor="start" x="181" y="-18" font-family="Helvetica,sans-Serif" font-size="10.00">::FramedTransport::ReadContent</text>
<text text-anchor="middle" x="259.5" y="-7" font-family="Helvetica,sans-Serif" font-size="10.00">LengthFromStream</text>
</a>
</g>
</g>
<!-- Node1&#45;&gt;Node3 -->
<g id="edge2_Node000001_Node000003" class="edge">
<title>Node1&#45;&gt;Node3</title>
<g id="a_edge2_Node000001_Node000003"><a xlink:title=" ">
<path fill="none" stroke="#63b8ff" d="M137.2,-37.83C145.5,-36.64 154.1,-35.41 162.71,-34.18"/>
<polygon fill="#63b8ff" stroke="#63b8ff" points="163.41,-37.62 172.81,-32.74 162.42,-30.69 163.41,-37.62"/>
</a>
</g>
</g>
<!-- Node4 -->
<g id="Node000004" class="node">
<title>Node4</title>
<g id="a_Node000004"><a xlink:href="classjsonrpc_1_1transport_1_1FramedTransport.html#adcfc8964bb8112eea2daaff3ac23d9cc" target="_top" xlink:title=" ">
<polygon fill="white" stroke="#666666" points="558,-41 382,-41 382,0 558,0 558,-41"/>
<text text-anchor="start" x="390" y="-29" font-family="Helvetica,sans-Serif" font-size="10.00">jsonrpc::transport</text>
<text text-anchor="start" x="390" y="-18" font-family="Helvetica,sans-Serif" font-size="10.00">::FramedTransport::ReadHeaders</text>
<text text-anchor="middle" x="470" y="-7" font-family="Helvetica,sans-Serif" font-size="10.00">FromStream</text>
</a>
</g>
</g>
<!-- Node3&#45;&gt;Node4 -->
<g id="edge3_Node000003_Node000004" class="edge">
<title>Node3&#45;&gt;Node4</title>
<g id="a_edge3_Node000003_Node000004"><a xlink:title=" ">
<path fill="none" stroke="#63b8ff" d="M346.21,-20.5C354.68,-20.5 363.33,-20.5 371.91,-20.5"/>
<polygon fill="#63b8ff" stroke="#63b8ff" points="371.94,-24 381.94,-20.5 371.94,-17 371.94,-24"/>
</a>
</g>
</g>
<!-- Node5 -->
<g id="Node000005" class="node">
<title>Node5</title>
<g id="a_Node000005"><a xlink:href="namespacejsonrpc_1_1utils.html#a0f4ab48ccb12fe3cb75a70867a56214a" target="_top" xlink:title=" ">
<polygon fill="white" stroke="#666666" points="699,-30 594,-30 594,-11 699,-11 699,-30"/>
<text text-anchor="middle" x="646.5" y="-18" font-family="Helvetica,sans-Serif" font-size="10.00">jsonrpc::utils::trim</text>
</a>
</g>
</g>
<!-- Node4&#45;&gt;Node5 -->
<g id="edge4_Node000004_Node000005" class="edge">
<title>Node4&#45;&gt;Node5</title>
<g id="a_edge4_Node000004_Node000005"><a xlink:title=" ">
<path fill="none" stroke="#63b8ff" d="M558.25,-20.5C566.76,-20.5 575.26,-20.5 583.45,-20.5"/>
<polygon fill="#63b8ff" stroke="#63b8ff" points="583.62,-24 593.62,-20.5 583.62,-17 583.62,-24"/>
</a>
</g>
</g>
</g>
</svg>
