<?xml version="1.0" encoding="UTF-8" standalone="no"?>
<!DOCTYPE svg PUBLIC "-//W3C//DTD SVG 1.1//EN"
 "http://www.w3.org/Graphics/SVG/1.1/DTD/svg11.dtd">
<!-- Generated by graphviz version 2.43.0 (0)
 -->
<!-- Title: jsonrpc::server::Dispatcher::DispatchRequest Pages: 1 -->
<svg width="333pt" height="86pt"
 viewBox="0.00 0.00 333.00 86.00" xmlns="http://www.w3.org/2000/svg" xmlns:xlink="http://www.w3.org/1999/xlink">
<g id="graph0" class="graph" transform="scale(1 1) rotate(0) translate(4 82)">
<title>jsonrpc::server::Dispatcher::DispatchRequest</title>
<!-- Node1 -->
<g id="Node000001" class="node">
<title>Node1</title>
<g id="a_Node000001"><a xlink:title="Processes a JSON&#45;RPC request.">
<polygon fill="#999999" stroke="#666666" points="147,-54 0,-54 0,-24 147,-24 147,-54"/>
<text text-anchor="start" x="8" y="-42" font-family="Helvetica,sans-Serif" font-size="10.00">jsonrpc::server::Dispatcher</text>
<text text-anchor="middle" x="73.5" y="-31" font-family="Helvetica,sans-Serif" font-size="10.00">::DispatchRequest</text>
</a>
</g>
</g>
<!-- Node2 -->
<g id="Node000002" class="node">
<title>Node2</title>
<g id="a_Node000002"><a xlink:href="classjsonrpc_1_1server_1_1Response.html#ae8a060de7d64e465d17ca6acd6b7f4d5" target="_top" xlink:title="Creates a Response object for a library error.">
<polygon fill="white" stroke="#666666" points="325,-78 183,-78 183,-48 325,-48 325,-78"/>
<text text-anchor="start" x="191" y="-66" font-family="Helvetica,sans-Serif" font-size="10.00">jsonrpc::server::Response</text>
<text text-anchor="middle" x="254" y="-55" font-family="Helvetica,sans-Serif" font-size="10.00">::CreateLibError</text>
</a>
</g>
</g>
<!-- Node1&#45;&gt;Node2 -->
<g id="edge1_Node000001_Node000002" class="edge">
<title>Node1&#45;&gt;Node2</title>
<g id="a_edge1_Node000001_Node000002"><a xlink:title=" ">
<path fill="none" stroke="#63b8ff" d="M147.1,-48.76C155.57,-49.9 164.24,-51.07 172.8,-52.22"/>
<polygon fill="#63b8ff" stroke="#63b8ff" points="172.4,-55.69 182.77,-53.56 173.33,-48.76 172.4,-55.69"/>
</a>
</g>
</g>
<!-- Node3 -->
<g id="Node000003" class="node">
<title>Node3</title>
<g id="a_Node000003"><a xlink:href="classjsonrpc_1_1server_1_1Response.html#af84d7e3f52456765a1cb4327a8c10c23" target="_top" xlink:title="Serializes the Response object to a string.">
<polygon fill="white" stroke="#666666" points="325,-30 183,-30 183,0 325,0 325,-30"/>
<text text-anchor="start" x="191" y="-18" font-family="Helvetica,sans-Serif" font-size="10.00">jsonrpc::server::Response</text>
<text text-anchor="middle" x="254" y="-7" font-family="Helvetica,sans-Serif" font-size="10.00">::ToStr</text>
</a>
</g>
</g>
<!-- Node1&#45;&gt;Node3 -->
<g id="edge2_Node000001_Node000003" class="edge">
<title>Node1&#45;&gt;Node3</title>
<g id="a_edge2_Node000001_Node000003"><a xlink:title=" ">
<path fill="none" stroke="#63b8ff" d="M147.1,-29.24C155.57,-28.1 164.24,-26.93 172.8,-25.78"/>
<polygon fill="#63b8ff" stroke="#63b8ff" points="173.33,-29.24 182.77,-24.44 172.4,-22.31 173.33,-29.24"/>
</a>
</g>
</g>
</g>
</svg>
