<?xml version="1.0" encoding="UTF-8" standalone="no"?>
<!DOCTYPE svg PUBLIC "-//W3C//DTD SVG 1.1//EN"
 "http://www.w3.org/Graphics/SVG/1.1/DTD/svg11.dtd">
<!-- Generated by graphviz version 2.43.0 (0)
 -->
<!-- Title: jsonrpc::transport::FramedSocketTransport::SendMessage Pages: 1 -->
<svg width="366pt" height="86pt"
 viewBox="0.00 0.00 366.00 86.00" xmlns="http://www.w3.org/2000/svg" xmlns:xlink="http://www.w3.org/1999/xlink">
<g id="graph0" class="graph" transform="scale(1 1) rotate(0) translate(4 82)">
<title>jsonrpc::transport::FramedSocketTransport::SendMessage</title>
<!-- Node1 -->
<g id="Node000001" class="node">
<title>Node1</title>
<g id="a_Node000001"><a xlink:title="Sends a message in string to the transport layer.">
<polygon fill="#999999" stroke="#666666" points="137,-59.5 0,-59.5 0,-18.5 137,-18.5 137,-59.5"/>
<text text-anchor="start" x="8" y="-47.5" font-family="Helvetica,sans-Serif" font-size="10.00">jsonrpc::transport</text>
<text text-anchor="start" x="8" y="-36.5" font-family="Helvetica,sans-Serif" font-size="10.00">::FramedSocketTransport</text>
<text text-anchor="middle" x="68.5" y="-25.5" font-family="Helvetica,sans-Serif" font-size="10.00">::SendMessage</text>
</a>
</g>
</g>
<!-- Node2 -->
<g id="Node000002" class="node">
<title>Node2</title>
<g id="a_Node000002"><a xlink:href="classjsonrpc_1_1transport_1_1FramedTransport.html#ae5317dd37dd2638b8e7c013854719dec" target="_top" xlink:title="Constructs a framed message.">
<polygon fill="white" stroke="#666666" points="358,-78 173,-78 173,-48 358,-48 358,-78"/>
<text text-anchor="start" x="181" y="-66" font-family="Helvetica,sans-Serif" font-size="10.00">jsonrpc::transport</text>
<text text-anchor="middle" x="265.5" y="-55" font-family="Helvetica,sans-Serif" font-size="10.00">::FramedTransport::FrameMessage</text>
</a>
</g>
</g>
<!-- Node1&#45;&gt;Node2 -->
<g id="edge1_Node000001_Node000002" class="edge">
<title>Node1&#45;&gt;Node2</title>
<g id="a_edge1_Node000001_Node000002"><a xlink:title=" ">
<path fill="none" stroke="#63b8ff" d="M137.15,-47.33C145.46,-48.35 154.08,-49.41 162.74,-50.48"/>
<polygon fill="#63b8ff" stroke="#63b8ff" points="162.57,-53.98 172.92,-51.73 163.42,-47.03 162.57,-53.98"/>
</a>
</g>
</g>
<!-- Node3 -->
<g id="Node000003" class="node">
<title>Node3</title>
<g id="a_Node000003"><a xlink:href="classjsonrpc_1_1transport_1_1SocketTransport.html#a564440aa09015b546fe10305cbe9846f" target="_top" xlink:title=" ">
<polygon fill="white" stroke="#666666" points="343,-30 188,-30 188,0 343,0 343,-30"/>
<text text-anchor="start" x="196" y="-18" font-family="Helvetica,sans-Serif" font-size="10.00">jsonrpc::transport</text>
<text text-anchor="middle" x="265.5" y="-7" font-family="Helvetica,sans-Serif" font-size="10.00">::SocketTransport::GetSocket</text>
</a>
</g>
</g>
<!-- Node1&#45;&gt;Node3 -->
<g id="edge2_Node000001_Node000003" class="edge">
<title>Node1&#45;&gt;Node3</title>
<g id="a_edge2_Node000001_Node000003"><a xlink:title=" ">
<path fill="none" stroke="#63b8ff" d="M137.15,-30.67C150.22,-29.07 164.07,-27.36 177.64,-25.69"/>
<polygon fill="#63b8ff" stroke="#63b8ff" points="178.45,-29.12 187.95,-24.42 177.6,-22.17 178.45,-29.12"/>
</a>
</g>
</g>
</g>
</svg>
