<?xml version="1.0" encoding="UTF-8" standalone="no"?>
<!DOCTYPE svg PUBLIC "-//W3C//DTD SVG 1.1//EN"
 "http://www.w3.org/Graphics/SVG/1.1/DTD/svg11.dtd">
<!-- Generated by graphviz version 2.43.0 (0)
 -->
<!-- Title: jsonrpc::StdioServerTransport Pages: 1 -->
<svg width="161pt" height="247pt"
 viewBox="0.00 0.00 161.00 247.00" xmlns="http://www.w3.org/2000/svg" xmlns:xlink="http://www.w3.org/1999/xlink">
<g id="graph0" class="graph" transform="scale(1 1) rotate(0) translate(4 243)">
<title>jsonrpc::StdioServerTransport</title>
<!-- Node1 -->
<g id="Node000001" class="node">
<title>Node1</title>
<g id="a_Node000001"><a xlink:title="Server transport using stdio for communication.">
<polygon fill="#999999" stroke="transparent" points="153,-49 0,-49 0,0 153,0 153,-49"/>
<text text-anchor="start" x="5.5" y="-36.5" font-family="Helvetica,sans-Serif" font-size="10.00">jsonrpc::StdioServerTransport</text>
<text text-anchor="start" x="75" y="-21.5" font-family="Helvetica,sans-Serif" font-size="10.00"> </text>
<text text-anchor="start" x="28" y="-6.5" font-family="Helvetica,sans-Serif" font-size="10.00">#</text>
<text text-anchor="start" x="64.5" y="-6.5" font-family="Helvetica,sans-Serif" font-size="10.00">Listen()</text>
<polygon fill="#666666" stroke="#666666" points="0.5,-31.5 0.5,-31.5 153.5,-31.5 153.5,-31.5 0.5,-31.5"/>
<polygon fill="#666666" stroke="#666666" points="0.5,-16.5 0.5,-16.5 153.5,-16.5 153.5,-16.5 0.5,-16.5"/>
<polygon fill="none" stroke="#666666" points="0,0 0,-49 153,-49 153,0 0,0"/>
</a>
</g>
</g>
<!-- Node2 -->
<g id="Node000002" class="node">
<title>Node2</title>
<g id="a_Node000002"><a xlink:href="classjsonrpc_1_1ServerTransport.html" target="_top" xlink:title="Abstract base class for server transport mechanisms.">
<polygon fill="white" stroke="transparent" points="140.5,-239 12.5,-239 12.5,-85 140.5,-85 140.5,-239"/>
<text text-anchor="start" x="17.5" y="-227" font-family="Helvetica,sans-Serif" font-size="10.00">jsonrpc::ServerTransport</text>
<text text-anchor="start" x="20" y="-212" font-family="Helvetica,sans-Serif" font-size="10.00">#</text>
<text text-anchor="start" x="36.5" y="-212" font-family="Helvetica,sans-Serif" font-size="10.00">running_</text>
<text text-anchor="start" x="20" y="-197" font-family="Helvetica,sans-Serif" font-size="10.00">#</text>
<text text-anchor="start" x="36.5" y="-197" font-family="Helvetica,sans-Serif" font-size="10.00">dispatcher_</text>
<text text-anchor="start" x="20" y="-182" font-family="Helvetica,sans-Serif" font-size="10.00">+</text>
<text text-anchor="start" x="36.5" y="-182" font-family="Helvetica,sans-Serif" font-size="10.00">ServerTransport()</text>
<text text-anchor="start" x="20" y="-167" font-family="Helvetica,sans-Serif" font-size="10.00">+</text>
<text text-anchor="start" x="36.5" y="-167" font-family="Helvetica,sans-Serif" font-size="10.00">~ServerTransport()</text>
<text text-anchor="start" x="20" y="-152" font-family="Helvetica,sans-Serif" font-size="10.00">+</text>
<text text-anchor="start" x="36.5" y="-152" font-family="Helvetica,sans-Serif" font-size="10.00">Start()</text>
<text text-anchor="start" x="20" y="-137" font-family="Helvetica,sans-Serif" font-size="10.00">+</text>
<text text-anchor="start" x="36.5" y="-137" font-family="Helvetica,sans-Serif" font-size="10.00">Stop()</text>
<text text-anchor="start" x="20" y="-122" font-family="Helvetica,sans-Serif" font-size="10.00">+</text>
<text text-anchor="start" x="36.5" y="-122" font-family="Helvetica,sans-Serif" font-size="10.00">SetDispatcher()</text>
<text text-anchor="start" x="20" y="-107" font-family="Helvetica,sans-Serif" font-size="10.00">+</text>
<text text-anchor="start" x="36.5" y="-107" font-family="Helvetica,sans-Serif" font-size="10.00">IsRunning()</text>
<text text-anchor="start" x="20" y="-92" font-family="Helvetica,sans-Serif" font-size="10.00">#</text>
<text text-anchor="start" x="36.5" y="-92" font-family="Helvetica,sans-Serif" font-size="10.00">Listen()</text>
<polygon fill="#666666" stroke="#666666" points="12.5,-222 12.5,-222 140.5,-222 140.5,-222 12.5,-222"/>
<polygon fill="#666666" stroke="#666666" points="12.5,-192 12.5,-192 34.5,-192 34.5,-192 12.5,-192"/>
<polygon fill="#666666" stroke="#666666" points="34.5,-192 34.5,-192 140.5,-192 140.5,-192 34.5,-192"/>
<polygon fill="none" stroke="#666666" points="12.5,-85 12.5,-239 140.5,-239 140.5,-85 12.5,-85"/>
</a>
</g>
</g>
<!-- Node2&#45;&gt;Node1 -->
<g id="edge1_Node000001_Node000002" class="edge">
<title>Node2&#45;&gt;Node1</title>
<g id="a_edge1_Node000001_Node000002"><a xlink:title=" ">
<path fill="none" stroke="#63b8ff" d="M76.5,-74.67C76.5,-65.37 76.5,-56.57 76.5,-49.06"/>
<polygon fill="none" stroke="#63b8ff" points="73,-74.93 76.5,-84.93 80,-74.93 73,-74.93"/>
</a>
</g>
</g>
</g>
</svg>
