<?xml version="1.0" encoding="UTF-8" standalone="no"?>
<!DOCTYPE svg PUBLIC "-//W3C//DTD SVG 1.1//EN"
 "http://www.w3.org/Graphics/SVG/1.1/DTD/svg11.dtd">
<!-- Generated by graphviz version 2.43.0 (0)
 -->
<!-- Title: jsonrpc::StdioServerTransport::Listen Pages: 1 -->
<svg width="484pt" height="110pt"
 viewBox="0.00 0.00 484.00 110.00" xmlns="http://www.w3.org/2000/svg" xmlns:xlink="http://www.w3.org/1999/xlink">
<g id="graph0" class="graph" transform="scale(1 1) rotate(0) translate(4 106)">
<title>jsonrpc::StdioServerTransport::Listen</title>
<!-- Node1 -->
<g id="Node000001" class="node">
<title>Node1</title>
<g id="a_Node000001"><a xlink:title="Listens for incoming messages and dispatches them to the appropriate handlers.">
<polygon fill="#999999" stroke="#666666" points="159,-54 0,-54 0,-24 159,-24 159,-54"/>
<text text-anchor="start" x="8" y="-42" font-family="Helvetica,sans-Serif" font-size="10.00">jsonrpc::StdioServerTransport</text>
<text text-anchor="middle" x="79.5" y="-31" font-family="Helvetica,sans-Serif" font-size="10.00">::Listen</text>
</a>
</g>
</g>
<!-- Node2 -->
<g id="Node000002" class="node">
<title>Node2</title>
<g id="a_Node000002"><a xlink:href="classjsonrpc_1_1Dispatcher.html#ad60b6c352fa4ff44d7676772dac6374e" target="_top" xlink:title="Dispatches an RPC request to the appropriate handler.">
<polygon fill="white" stroke="#666666" points="317,-78 207,-78 207,-48 317,-48 317,-78"/>
<text text-anchor="start" x="215" y="-66" font-family="Helvetica,sans-Serif" font-size="10.00">jsonrpc::Dispatcher</text>
<text text-anchor="middle" x="262" y="-55" font-family="Helvetica,sans-Serif" font-size="10.00">::DispatchRequest</text>
</a>
</g>
</g>
<!-- Node1&#45;&gt;Node2 -->
<g id="edge1_Node000001_Node000002" class="edge">
<title>Node1&#45;&gt;Node2</title>
<g id="a_edge1_Node000001_Node000002"><a xlink:title=" ">
<path fill="none" stroke="#63b8ff" d="M159.14,-49.46C171.76,-51.13 184.69,-52.85 196.91,-54.48"/>
<polygon fill="#63b8ff" stroke="#63b8ff" points="196.62,-57.97 206.99,-55.82 197.54,-51.03 196.62,-57.97"/>
</a>
</g>
</g>
<!-- Node5 -->
<g id="Node000005" class="node">
<title>Node5</title>
<g id="a_Node000005"><a xlink:href="classjsonrpc_1_1ServerTransport.html#a2e544f968400464c8b1c3f5dbf154bd8" target="_top" xlink:title="Checks if the transport is running.">
<polygon fill="white" stroke="#666666" points="329,-30 195,-30 195,0 329,0 329,-30"/>
<text text-anchor="start" x="203" y="-18" font-family="Helvetica,sans-Serif" font-size="10.00">jsonrpc::ServerTransport</text>
<text text-anchor="middle" x="262" y="-7" font-family="Helvetica,sans-Serif" font-size="10.00">::IsRunning</text>
</a>
</g>
</g>
<!-- Node1&#45;&gt;Node5 -->
<g id="edge4_Node000001_Node000005" class="edge">
<title>Node1&#45;&gt;Node5</title>
<g id="a_edge4_Node000001_Node000005"><a xlink:title=" ">
<path fill="none" stroke="#63b8ff" d="M159.14,-28.54C167.59,-27.42 176.17,-26.28 184.58,-25.16"/>
<polygon fill="#63b8ff" stroke="#63b8ff" points="185.3,-28.6 194.75,-23.81 184.37,-21.66 185.3,-28.6"/>
</a>
</g>
</g>
<!-- Node3 -->
<g id="Node000003" class="node">
<title>Node3</title>
<g id="a_Node000003"><a xlink:href="classjsonrpc_1_1Response.html#a0dce112a462bfbedf722cd9dc96b837a" target="_top" xlink:title="Creates a Response object for a library error.">
<polygon fill="white" stroke="#666666" points="476,-102 365,-102 365,-72 476,-72 476,-102"/>
<text text-anchor="start" x="373" y="-90" font-family="Helvetica,sans-Serif" font-size="10.00">jsonrpc::Response::</text>
<text text-anchor="middle" x="420.5" y="-79" font-family="Helvetica,sans-Serif" font-size="10.00">CreateLibError</text>
</a>
</g>
</g>
<!-- Node2&#45;&gt;Node3 -->
<g id="edge2_Node000002_Node000003" class="edge">
<title>Node2&#45;&gt;Node3</title>
<g id="a_edge2_Node000002_Node000003"><a xlink:title=" ">
<path fill="none" stroke="#63b8ff" d="M317.3,-71.33C329.42,-73.19 342.39,-75.17 354.88,-77.09"/>
<polygon fill="#63b8ff" stroke="#63b8ff" points="354.35,-80.55 364.77,-78.61 355.42,-73.63 354.35,-80.55"/>
</a>
</g>
</g>
<!-- Node4 -->
<g id="Node000004" class="node">
<title>Node4</title>
<g id="a_Node000004"><a xlink:href="classjsonrpc_1_1Response.html#a0ca1e37b725b5f4c81e32a13f928c1d9" target="_top" xlink:title="Serializes the Response object to a string.">
<polygon fill="white" stroke="#666666" points="476,-54 365,-54 365,-24 476,-24 476,-54"/>
<text text-anchor="start" x="373" y="-42" font-family="Helvetica,sans-Serif" font-size="10.00">jsonrpc::Response::</text>
<text text-anchor="middle" x="420.5" y="-31" font-family="Helvetica,sans-Serif" font-size="10.00">ToStr</text>
</a>
</g>
</g>
<!-- Node2&#45;&gt;Node4 -->
<g id="edge3_Node000002_Node000004" class="edge">
<title>Node2&#45;&gt;Node4</title>
<g id="a_edge3_Node000002_Node000004"><a xlink:title=" ">
<path fill="none" stroke="#63b8ff" d="M317.3,-54.67C329.42,-52.81 342.39,-50.83 354.88,-48.91"/>
<polygon fill="#63b8ff" stroke="#63b8ff" points="355.42,-52.37 364.77,-47.39 354.35,-45.45 355.42,-52.37"/>
</a>
</g>
</g>
</g>
</svg>
