<?xml version="1.0" encoding="UTF-8" standalone="no"?>
<!DOCTYPE svg PUBLIC "-//W3C//DTD SVG 1.1//EN"
 "http://www.w3.org/Graphics/SVG/1.1/DTD/svg11.dtd">
<!-- Generated by graphviz version 2.43.0 (0)
 -->
<!-- Title: jsonrpc::transport::FramedTransport::FrameMessage Pages: 1 -->
<svg width="366pt" height="167pt"
 viewBox="0.00 0.00 366.00 167.00" xmlns="http://www.w3.org/2000/svg" xmlns:xlink="http://www.w3.org/1999/xlink">
<g id="graph0" class="graph" transform="scale(1 1) rotate(0) translate(4 163)">
<title>jsonrpc::transport::FramedTransport::FrameMessage</title>
<!-- Node1 -->
<g id="Node000001" class="node">
<title>Node1</title>
<g id="a_Node000001"><a xlink:title="Constructs a framed message.">
<polygon fill="#999999" stroke="#666666" points="358,-94.5 173,-94.5 173,-64.5 358,-64.5 358,-94.5"/>
<text text-anchor="start" x="181" y="-82.5" font-family="Helvetica,sans-Serif" font-size="10.00">jsonrpc::transport</text>
<text text-anchor="middle" x="265.5" y="-71.5" font-family="Helvetica,sans-Serif" font-size="10.00">::FramedTransport::FrameMessage</text>
</a>
</g>
</g>
<!-- Node2 -->
<g id="Node000002" class="node">
<title>Node2</title>
<g id="a_Node000002"><a xlink:href="classjsonrpc_1_1transport_1_1FramedPipeTransport.html#a1f50d7b4d0284cafbf21f948f0e0c978" target="_top" xlink:title="Sends a message in string to the transport layer.">
<polygon fill="white" stroke="#666666" points="131,-159 6,-159 6,-118 131,-118 131,-159"/>
<text text-anchor="start" x="14" y="-147" font-family="Helvetica,sans-Serif" font-size="10.00">jsonrpc::transport</text>
<text text-anchor="start" x="14" y="-136" font-family="Helvetica,sans-Serif" font-size="10.00">::FramedPipeTransport</text>
<text text-anchor="middle" x="68.5" y="-125" font-family="Helvetica,sans-Serif" font-size="10.00">::SendMessage</text>
</a>
</g>
</g>
<!-- Node1&#45;&gt;Node2 -->
<g id="edge1_Node000001_Node000002" class="edge">
<title>Node1&#45;&gt;Node2</title>
<g id="a_edge1_Node000001_Node000002"><a xlink:title=" ">
<path fill="none" stroke="#63b8ff" d="M205.02,-97.5C181.68,-104.56 154.9,-112.66 131.34,-119.79"/>
<polygon fill="#63b8ff" stroke="#63b8ff" points="206.23,-100.79 214.79,-94.54 204.2,-94.09 206.23,-100.79"/>
</a>
</g>
</g>
<!-- Node3 -->
<g id="Node000003" class="node">
<title>Node3</title>
<g id="a_Node000003"><a xlink:href="classjsonrpc_1_1transport_1_1FramedSocketTransport.html#ac7ba899a7161670a536c7aae727723e6" target="_top" xlink:title="Sends a message in string to the transport layer.">
<polygon fill="white" stroke="#666666" points="137,-100 0,-100 0,-59 137,-59 137,-100"/>
<text text-anchor="start" x="8" y="-88" font-family="Helvetica,sans-Serif" font-size="10.00">jsonrpc::transport</text>
<text text-anchor="start" x="8" y="-77" font-family="Helvetica,sans-Serif" font-size="10.00">::FramedSocketTransport</text>
<text text-anchor="middle" x="68.5" y="-66" font-family="Helvetica,sans-Serif" font-size="10.00">::SendMessage</text>
</a>
</g>
</g>
<!-- Node1&#45;&gt;Node3 -->
<g id="edge2_Node000001_Node000003" class="edge">
<title>Node1&#45;&gt;Node3</title>
<g id="a_edge2_Node000001_Node000003"><a xlink:title=" ">
<path fill="none" stroke="#63b8ff" d="M162.8,-79.5C154.11,-79.5 145.47,-79.5 137.15,-79.5"/>
<polygon fill="#63b8ff" stroke="#63b8ff" points="163,-83 173,-79.5 163,-76 163,-83"/>
</a>
</g>
</g>
<!-- Node4 -->
<g id="Node000004" class="node">
<title>Node4</title>
<g id="a_Node000004"><a xlink:href="classjsonrpc_1_1transport_1_1FramedStdioTransport.html#a94fdcddf0528b5613e03a4c5890aa0fa" target="_top" xlink:title="Sends a message in string to the transport layer.">
<polygon fill="white" stroke="#666666" points="133,-41 4,-41 4,0 133,0 133,-41"/>
<text text-anchor="start" x="12" y="-29" font-family="Helvetica,sans-Serif" font-size="10.00">jsonrpc::transport</text>
<text text-anchor="start" x="12" y="-18" font-family="Helvetica,sans-Serif" font-size="10.00">::FramedStdioTransport</text>
<text text-anchor="middle" x="68.5" y="-7" font-family="Helvetica,sans-Serif" font-size="10.00">::SendMessage</text>
</a>
</g>
</g>
<!-- Node1&#45;&gt;Node4 -->
<g id="edge3_Node000001_Node000004" class="edge">
<title>Node1&#45;&gt;Node4</title>
<g id="a_edge3_Node000001_Node000004"><a xlink:title=" ">
<path fill="none" stroke="#63b8ff" d="M204.93,-61.48C182.21,-54.6 156.23,-46.74 133.14,-39.76"/>
<polygon fill="#63b8ff" stroke="#63b8ff" points="204.2,-64.91 214.79,-64.46 206.23,-58.21 204.2,-64.91"/>
</a>
</g>
</g>
</g>
</svg>
