<?xml version="1.0" encoding="UTF-8" standalone="no"?>
<!DOCTYPE svg PUBLIC "-//W3C//DTD SVG 1.1//EN"
 "http://www.w3.org/Graphics/SVG/1.1/DTD/svg11.dtd">
<!-- Generated by graphviz version 2.43.0 (0)
 -->
<!-- Title: jsonrpc::transport::FramedStdioTransport::ReceiveMessage Pages: 1 -->
<svg width="884pt" height="98pt"
 viewBox="0.00 0.00 884.00 97.50" xmlns="http://www.w3.org/2000/svg" xmlns:xlink="http://www.w3.org/1999/xlink">
<g id="graph0" class="graph" transform="scale(1 1) rotate(0) translate(4 93.5)">
<title>jsonrpc::transport::FramedStdioTransport::ReceiveMessage</title>
<!-- Node1 -->
<g id="Node000001" class="node">
<title>Node1</title>
<g id="a_Node000001"><a xlink:title="Receives a message from the transport layer.">
<polygon fill="#999999" stroke="#666666" points="129,-68 0,-68 0,-27 129,-27 129,-68"/>
<text text-anchor="start" x="8" y="-56" font-family="Helvetica,sans-Serif" font-size="10.00">jsonrpc::transport</text>
<text text-anchor="start" x="8" y="-45" font-family="Helvetica,sans-Serif" font-size="10.00">::FramedStdioTransport</text>
<text text-anchor="middle" x="64.5" y="-34" font-family="Helvetica,sans-Serif" font-size="10.00">::ReceiveMessage</text>
</a>
</g>
</g>
<!-- Node2 -->
<g id="Node000002" class="node">
<title>Node2</title>
<g id="a_Node000002"><a xlink:href="classjsonrpc_1_1transport_1_1FramedTransport.html#a0b49a8a146fa2d225751c4e97cdf3617" target="_top" xlink:title="Receives a framed message.">
<polygon fill="white" stroke="#666666" points="314,-68 165,-68 165,-27 314,-27 314,-68"/>
<text text-anchor="start" x="173" y="-56" font-family="Helvetica,sans-Serif" font-size="10.00">jsonrpc::transport</text>
<text text-anchor="start" x="173" y="-45" font-family="Helvetica,sans-Serif" font-size="10.00">::FramedTransport::Receive</text>
<text text-anchor="middle" x="239.5" y="-34" font-family="Helvetica,sans-Serif" font-size="10.00">FramedMessage</text>
</a>
</g>
</g>
<!-- Node1&#45;&gt;Node2 -->
<g id="edge1_Node000001_Node000002" class="edge">
<title>Node1&#45;&gt;Node2</title>
<g id="a_edge1_Node000001_Node000002"><a xlink:title=" ">
<path fill="none" stroke="#63b8ff" d="M129.43,-47.5C137.73,-47.5 146.33,-47.5 154.89,-47.5"/>
<polygon fill="#63b8ff" stroke="#63b8ff" points="154.91,-51 164.91,-47.5 154.91,-44 154.91,-51"/>
</a>
</g>
</g>
<!-- Node3 -->
<g id="Node000003" class="node">
<title>Node3</title>
<g id="a_Node000003"><a xlink:href="classjsonrpc_1_1transport_1_1FramedTransport.html#ab3aa716415afe7fe695502cc47a30c82" target="_top" xlink:title="Reads content from the input stream based on the content length.">
<polygon fill="white" stroke="#666666" points="523,-89.5 350,-89.5 350,-59.5 523,-59.5 523,-89.5"/>
<text text-anchor="start" x="358" y="-77.5" font-family="Helvetica,sans-Serif" font-size="10.00">jsonrpc::transport</text>
<text text-anchor="middle" x="436.5" y="-66.5" font-family="Helvetica,sans-Serif" font-size="10.00">::FramedTransport::ReadContent</text>
</a>
</g>
</g>
<!-- Node2&#45;&gt;Node3 -->
<g id="edge2_Node000002_Node000003" class="edge">
<title>Node2&#45;&gt;Node3</title>
<g id="a_edge2_Node000002_Node000003"><a xlink:title=" ">
<path fill="none" stroke="#63b8ff" d="M314.22,-57.71C322.59,-58.87 331.21,-60.06 339.82,-61.25"/>
<polygon fill="#63b8ff" stroke="#63b8ff" points="339.5,-64.74 349.89,-62.65 340.46,-57.81 339.5,-64.74"/>
</a>
</g>
</g>
<!-- Node4 -->
<g id="Node000004" class="node">
<title>Node4</title>
<g id="a_Node000004"><a xlink:href="classjsonrpc_1_1transport_1_1FramedTransport.html#abc9bb6673778ecab6c5b9f8d50d44574" target="_top" xlink:title=" ">
<polygon fill="white" stroke="#666666" points="523,-41 350,-41 350,0 523,0 523,-41"/>
<text text-anchor="start" x="358" y="-29" font-family="Helvetica,sans-Serif" font-size="10.00">jsonrpc::transport</text>
<text text-anchor="start" x="358" y="-18" font-family="Helvetica,sans-Serif" font-size="10.00">::FramedTransport::ReadContent</text>
<text text-anchor="middle" x="436.5" y="-7" font-family="Helvetica,sans-Serif" font-size="10.00">LengthFromStream</text>
</a>
</g>
</g>
<!-- Node2&#45;&gt;Node4 -->
<g id="edge3_Node000002_Node000004" class="edge">
<title>Node2&#45;&gt;Node4</title>
<g id="a_edge3_Node000002_Node000004"><a xlink:title=" ">
<path fill="none" stroke="#63b8ff" d="M314.22,-37.29C322.59,-36.13 331.21,-34.94 339.82,-33.75"/>
<polygon fill="#63b8ff" stroke="#63b8ff" points="340.46,-37.19 349.89,-32.35 339.5,-30.26 340.46,-37.19"/>
</a>
</g>
</g>
<!-- Node5 -->
<g id="Node000005" class="node">
<title>Node5</title>
<g id="a_Node000005"><a xlink:href="classjsonrpc_1_1transport_1_1FramedTransport.html#adcfc8964bb8112eea2daaff3ac23d9cc" target="_top" xlink:title=" ">
<polygon fill="white" stroke="#666666" points="735,-41 559,-41 559,0 735,0 735,-41"/>
<text text-anchor="start" x="567" y="-29" font-family="Helvetica,sans-Serif" font-size="10.00">jsonrpc::transport</text>
<text text-anchor="start" x="567" y="-18" font-family="Helvetica,sans-Serif" font-size="10.00">::FramedTransport::ReadHeaders</text>
<text text-anchor="middle" x="647" y="-7" font-family="Helvetica,sans-Serif" font-size="10.00">FromStream</text>
</a>
</g>
</g>
<!-- Node4&#45;&gt;Node5 -->
<g id="edge4_Node000004_Node000005" class="edge">
<title>Node4&#45;&gt;Node5</title>
<g id="a_edge4_Node000004_Node000005"><a xlink:title=" ">
<path fill="none" stroke="#63b8ff" d="M523.21,-20.5C531.68,-20.5 540.33,-20.5 548.91,-20.5"/>
<polygon fill="#63b8ff" stroke="#63b8ff" points="548.94,-24 558.94,-20.5 548.94,-17 548.94,-24"/>
</a>
</g>
</g>
<!-- Node6 -->
<g id="Node000006" class="node">
<title>Node6</title>
<g id="a_Node000006"><a xlink:href="namespacejsonrpc_1_1utils.html#a0f4ab48ccb12fe3cb75a70867a56214a" target="_top" xlink:title=" ">
<polygon fill="white" stroke="#666666" points="876,-30 771,-30 771,-11 876,-11 876,-30"/>
<text text-anchor="middle" x="823.5" y="-18" font-family="Helvetica,sans-Serif" font-size="10.00">jsonrpc::utils::trim</text>
</a>
</g>
</g>
<!-- Node5&#45;&gt;Node6 -->
<g id="edge5_Node000005_Node000006" class="edge">
<title>Node5&#45;&gt;Node6</title>
<g id="a_edge5_Node000005_Node000006"><a xlink:title=" ">
<path fill="none" stroke="#63b8ff" d="M735.25,-20.5C743.76,-20.5 752.26,-20.5 760.45,-20.5"/>
<polygon fill="#63b8ff" stroke="#63b8ff" points="760.62,-24 770.62,-20.5 760.62,-17 760.62,-24"/>
</a>
</g>
</g>
</g>
</svg>
