<?xml version="1.0" encoding="UTF-8" standalone="no"?>
<!DOCTYPE svg PUBLIC "-//W3C//DTD SVG 1.1//EN"
 "http://www.w3.org/Graphics/SVG/1.1/DTD/svg11.dtd">
<!-- Generated by graphviz version 2.43.0 (0)
 -->
<!-- Title: jsonrpc::transport::FramedPipeTransport Pages: 1 -->
<svg width="324pt" height="380pt"
 viewBox="0.00 0.00 323.50 380.00" xmlns="http://www.w3.org/2000/svg" xmlns:xlink="http://www.w3.org/1999/xlink">
<g id="graph0" class="graph" transform="scale(1 1) rotate(0) translate(4 376)">
<title>jsonrpc::transport::FramedPipeTransport</title>
<!-- Node1 -->
<g id="Node000001" class="node">
<title>Node1</title>
<g id="a_Node000001"><a xlink:title="Transport layer using Asio Unix domain sockets for JSON&#45;RPC communication with framing.">
<polygon fill="#999999" stroke="transparent" points="205,-90 73,-90 73,0 205,0 205,-90"/>
<text text-anchor="start" x="84.5" y="-78" font-family="Helvetica,sans-Serif" font-size="10.00">jsonrpc::transport</text>
<text text-anchor="start" x="84.5" y="-67" font-family="Helvetica,sans-Serif" font-size="10.00">::FramedPipeTransport</text>
<text text-anchor="start" x="137" y="-52" font-family="Helvetica,sans-Serif" font-size="10.00"> </text>
<text text-anchor="start" x="77" y="-37" font-family="Helvetica,sans-Serif" font-size="10.00">+</text>
<text text-anchor="start" x="90" y="-37" font-family="Helvetica,sans-Serif" font-size="10.00">FramedPipeTransport()</text>
<text text-anchor="start" x="77" y="-22" font-family="Helvetica,sans-Serif" font-size="10.00">+</text>
<text text-anchor="start" x="90" y="-22" font-family="Helvetica,sans-Serif" font-size="10.00">SendMessage()</text>
<text text-anchor="start" x="77" y="-7" font-family="Helvetica,sans-Serif" font-size="10.00">+</text>
<text text-anchor="start" x="90" y="-7" font-family="Helvetica,sans-Serif" font-size="10.00">ReceiveMessage()</text>
<polygon fill="#666666" stroke="#666666" points="73,-62 73,-62 205,-62 205,-62 73,-62"/>
<polygon fill="#666666" stroke="#666666" points="73,-47 73,-47 205,-47 205,-47 73,-47"/>
<polygon fill="none" stroke="#666666" points="73,0 73,-90 205,-90 205,0 73,0"/>
</a>
</g>
</g>
<!-- Node2 -->
<g id="Node000002" class="node">
<title>Node2</title>
<g id="a_Node000002"><a xlink:href="classjsonrpc_1_1transport_1_1PipeTransport.html" target="_top" xlink:title="Transport implementation using Unix domain sockets.">
<polygon fill="white" stroke="transparent" points="112,-246 0,-246 0,-126 112,-126 112,-246"/>
<text text-anchor="start" x="13" y="-234" font-family="Helvetica,sans-Serif" font-size="10.00">jsonrpc::transport</text>
<text text-anchor="start" x="19.5" y="-223" font-family="Helvetica,sans-Serif" font-size="10.00">::PipeTransport</text>
<text text-anchor="start" x="54" y="-208" font-family="Helvetica,sans-Serif" font-size="10.00"> </text>
<text text-anchor="start" x="4" y="-193" font-family="Helvetica,sans-Serif" font-size="10.00">+</text>
<text text-anchor="start" x="17" y="-193" font-family="Helvetica,sans-Serif" font-size="10.00">PipeTransport()</text>
<text text-anchor="start" x="4" y="-178" font-family="Helvetica,sans-Serif" font-size="10.00">+</text>
<text text-anchor="start" x="17" y="-178" font-family="Helvetica,sans-Serif" font-size="10.00">~PipeTransport()</text>
<text text-anchor="start" x="4" y="-163" font-family="Helvetica,sans-Serif" font-size="10.00">+</text>
<text text-anchor="start" x="17" y="-163" font-family="Helvetica,sans-Serif" font-size="10.00">SendMessage()</text>
<text text-anchor="start" x="4" y="-148" font-family="Helvetica,sans-Serif" font-size="10.00">+</text>
<text text-anchor="start" x="17" y="-148" font-family="Helvetica,sans-Serif" font-size="10.00">ReceiveMessage()</text>
<text text-anchor="start" x="4" y="-133" font-family="Helvetica,sans-Serif" font-size="10.00">#</text>
<text text-anchor="start" x="17" y="-133" font-family="Helvetica,sans-Serif" font-size="10.00">GetSocket()</text>
<polygon fill="#666666" stroke="#666666" points="0,-218 0,-218 112,-218 112,-218 0,-218"/>
<polygon fill="#666666" stroke="#666666" points="0,-203 0,-203 112,-203 112,-203 0,-203"/>
<polygon fill="none" stroke="#666666" points="0,-126 0,-246 112,-246 112,-126 0,-126"/>
</a>
</g>
</g>
<!-- Node2&#45;&gt;Node1 -->
<g id="edge1_Node000001_Node000002" class="edge">
<title>Node2&#45;&gt;Node1</title>
<g id="a_edge1_Node000001_Node000002"><a xlink:title=" ">
<path fill="none" stroke="#63b8ff" d="M96.66,-116.91C102.12,-107.77 107.6,-98.59 112.72,-90.01"/>
<polygon fill="none" stroke="#63b8ff" points="93.56,-115.27 91.44,-125.65 99.57,-118.86 93.56,-115.27"/>
</a>
</g>
</g>
<!-- Node3 -->
<g id="Node000003" class="node">
<title>Node3</title>
<g id="a_Node000003"><a xlink:href="classjsonrpc_1_1transport_1_1Transport.html" target="_top" xlink:title="Base class for JSON&#45;RPC transport.">
<polygon fill="white" stroke="transparent" points="112,-372 0,-372 0,-282 112,-282 112,-372"/>
<text text-anchor="start" x="13" y="-360" font-family="Helvetica,sans-Serif" font-size="10.00">jsonrpc::transport</text>
<text text-anchor="start" x="30" y="-349" font-family="Helvetica,sans-Serif" font-size="10.00">::Transport</text>
<text text-anchor="start" x="54" y="-334" font-family="Helvetica,sans-Serif" font-size="10.00"> </text>
<text text-anchor="start" x="4" y="-319" font-family="Helvetica,sans-Serif" font-size="10.00">+</text>
<text text-anchor="start" x="17" y="-319" font-family="Helvetica,sans-Serif" font-size="10.00">~Transport()</text>
<text text-anchor="start" x="4" y="-304" font-family="Helvetica,sans-Serif" font-size="10.00">+</text>
<text text-anchor="start" x="17" y="-304" font-family="Helvetica,sans-Serif" font-size="10.00">SendMessage()</text>
<text text-anchor="start" x="4" y="-289" font-family="Helvetica,sans-Serif" font-size="10.00">+</text>
<text text-anchor="start" x="17" y="-289" font-family="Helvetica,sans-Serif" font-size="10.00">ReceiveMessage()</text>
<polygon fill="#666666" stroke="#666666" points="0,-344 0,-344 112,-344 112,-344 0,-344"/>
<polygon fill="#666666" stroke="#666666" points="0,-329 0,-329 112,-329 112,-329 0,-329"/>
<polygon fill="none" stroke="#666666" points="0,-282 0,-372 112,-372 112,-282 0,-282"/>
</a>
</g>
</g>
<!-- Node3&#45;&gt;Node2 -->
<g id="edge2_Node000002_Node000003" class="edge">
<title>Node3&#45;&gt;Node2</title>
<g id="a_edge2_Node000002_Node000003"><a xlink:title=" ">
<path fill="none" stroke="#63b8ff" d="M56,-271.63C56,-263.28 56,-254.61 56,-246.16"/>
<polygon fill="none" stroke="#63b8ff" points="52.5,-271.64 56,-281.64 59.5,-271.64 52.5,-271.64"/>
</a>
</g>
</g>
<!-- Node4 -->
<g id="Node000004" class="node">
<title>Node4</title>
<g id="a_Node000004"><a xlink:href="classjsonrpc_1_1transport_1_1FramedTransport.html" target="_top" xlink:title="Base class for framed transport mechanisms.">
<polygon fill="white" stroke="transparent" points="315.5,-246 130.5,-246 130.5,-126 315.5,-126 315.5,-246"/>
<text text-anchor="start" x="179.5" y="-234" font-family="Helvetica,sans-Serif" font-size="10.00">jsonrpc::transport</text>
<text text-anchor="start" x="179.5" y="-223" font-family="Helvetica,sans-Serif" font-size="10.00">::FramedTransport</text>
<text text-anchor="start" x="135" y="-208" font-family="Helvetica,sans-Serif" font-size="10.00">#</text>
<text text-anchor="start" x="148" y="-208" font-family="Helvetica,sans-Serif" font-size="10.00">HEADER_DELIMITER</text>
<text text-anchor="start" x="135" y="-193" font-family="Helvetica,sans-Serif" font-size="10.00">#</text>
<text text-anchor="start" x="148" y="-193" font-family="Helvetica,sans-Serif" font-size="10.00">FrameMessage()</text>
<text text-anchor="start" x="135" y="-178" font-family="Helvetica,sans-Serif" font-size="10.00">#</text>
<text text-anchor="start" x="148" y="-178" font-family="Helvetica,sans-Serif" font-size="10.00">ReadHeadersFromStream()</text>
<text text-anchor="start" x="135" y="-163" font-family="Helvetica,sans-Serif" font-size="10.00">#</text>
<text text-anchor="start" x="148" y="-163" font-family="Helvetica,sans-Serif" font-size="10.00">ReadContentLengthFromStream()</text>
<text text-anchor="start" x="135" y="-148" font-family="Helvetica,sans-Serif" font-size="10.00">#</text>
<text text-anchor="start" x="148" y="-148" font-family="Helvetica,sans-Serif" font-size="10.00">ReadContent()</text>
<text text-anchor="start" x="135" y="-133" font-family="Helvetica,sans-Serif" font-size="10.00">#</text>
<text text-anchor="start" x="148" y="-133" font-family="Helvetica,sans-Serif" font-size="10.00">ReceiveFramedMessage()</text>
<polygon fill="#666666" stroke="#666666" points="131,-218 131,-218 316,-218 316,-218 131,-218"/>
<polygon fill="#666666" stroke="#666666" points="131,-203 131,-203 146,-203 146,-203 131,-203"/>
<polygon fill="#666666" stroke="#666666" points="146,-203 146,-203 316,-203 316,-203 146,-203"/>
<polygon fill="none" stroke="#666666" points="130.5,-126 130.5,-246 315.5,-246 315.5,-126 130.5,-126"/>
</a>
</g>
</g>
<!-- Node4&#45;&gt;Node1 -->
<g id="edge3_Node000001_Node000004" class="edge">
<title>Node4&#45;&gt;Node1</title>
<g id="a_edge3_Node000001_Node000004"><a xlink:title=" ">
<path fill="none" stroke="darkgreen" d="M181.85,-116.91C176.33,-107.77 170.78,-98.59 165.6,-90.01"/>
<polygon fill="none" stroke="darkgreen" points="178.97,-118.9 187.13,-125.65 184.96,-115.28 178.97,-118.9"/>
</a>
</g>
</g>
</g>
</svg>
