<?xml version="1.0" encoding="UTF-8" standalone="no"?>
<!DOCTYPE svg PUBLIC "-//W3C//DTD SVG 1.1//EN"
 "http://www.w3.org/Graphics/SVG/1.1/DTD/svg11.dtd">
<!-- Generated by graphviz version 2.43.0 (0)
 -->
<!-- Title: json_rpc::FramedTransport::SendMessage Pages: 1 -->
<svg width="345pt" height="134pt"
 viewBox="0.00 0.00 345.00 134.00" xmlns="http://www.w3.org/2000/svg" xmlns:xlink="http://www.w3.org/1999/xlink">
<g id="graph0" class="graph" transform="scale(1 1) rotate(0) translate(4 130)">
<title>json_rpc::FramedTransport::SendMessage</title>
<!-- Node1 -->
<g id="Node000001" class="node">
<title>Node1</title>
<g id="a_Node000001"><a xlink:title="Sends a framed message.">
<polygon fill="#999999" stroke="#666666" points="337,-78 192,-78 192,-48 337,-48 337,-78"/>
<text text-anchor="start" x="200" y="-66" font-family="Helvetica,sans-Serif" font-size="10.00">json_rpc::FramedTransport</text>
<text text-anchor="middle" x="264.5" y="-55" font-family="Helvetica,sans-Serif" font-size="10.00">::SendMessage</text>
</a>
</g>
</g>
<!-- Node2 -->
<g id="Node000002" class="node">
<title>Node2</title>
<g id="a_Node000002"><a xlink:href="classjson__rpc_1_1FramedStdioServerTransport.html#a9defce0b2696eb94d03cf5f0e2d057f9" target="_top" xlink:title="Listens for incoming messages and dispatches them to the appropriate handlers.">
<polygon fill="white" stroke="#666666" points="156,-126 0,-126 0,-96 156,-96 156,-126"/>
<text text-anchor="start" x="8" y="-114" font-family="Helvetica,sans-Serif" font-size="10.00">json_rpc::FramedStdioServer</text>
<text text-anchor="middle" x="78" y="-103" font-family="Helvetica,sans-Serif" font-size="10.00">Transport::Listen</text>
</a>
</g>
</g>
<!-- Node1&#45;&gt;Node2 -->
<g id="edge1_Node000001_Node000002" class="edge">
<title>Node1&#45;&gt;Node2</title>
<g id="a_edge1_Node000001_Node000002"><a xlink:title=" ">
<path fill="none" stroke="#63b8ff" d="M195.93,-80.58C176.48,-85.64 155.45,-91.11 136.67,-96"/>
<polygon fill="#63b8ff" stroke="#63b8ff" points="196.83,-83.96 205.63,-78.06 195.07,-77.19 196.83,-83.96"/>
</a>
</g>
</g>
<!-- Node3 -->
<g id="Node000003" class="node">
<title>Node3</title>
<g id="a_Node000003"><a xlink:href="classjson__rpc_1_1FramedStdioClientTransport.html#a2a877b1bf92d96ff9c20dca13c4eed51" target="_top" xlink:title="Sends an RPC method call to the server.">
<polygon fill="white" stroke="#666666" points="154.5,-78 1.5,-78 1.5,-48 154.5,-48 154.5,-78"/>
<text text-anchor="start" x="9.5" y="-66" font-family="Helvetica,sans-Serif" font-size="10.00">json_rpc::FramedStdioClient</text>
<text text-anchor="middle" x="78" y="-55" font-family="Helvetica,sans-Serif" font-size="10.00">Transport::SendMethodCall</text>
</a>
</g>
</g>
<!-- Node1&#45;&gt;Node3 -->
<g id="edge2_Node000001_Node000003" class="edge">
<title>Node1&#45;&gt;Node3</title>
<g id="a_edge2_Node000001_Node000003"><a xlink:title=" ">
<path fill="none" stroke="#63b8ff" d="M181.75,-63C172.69,-63 163.5,-63 154.52,-63"/>
<polygon fill="#63b8ff" stroke="#63b8ff" points="181.9,-66.5 191.9,-63 181.9,-59.5 181.9,-66.5"/>
</a>
</g>
</g>
<!-- Node4 -->
<g id="Node000004" class="node">
<title>Node4</title>
<g id="a_Node000004"><a xlink:href="classjson__rpc_1_1FramedStdioClientTransport.html#a899a697c084de4bf4db275db9bfa1da1" target="_top" xlink:title="Sends an RPC notification to the server.">
<polygon fill="white" stroke="#666666" points="154.5,-30 1.5,-30 1.5,0 154.5,0 154.5,-30"/>
<text text-anchor="start" x="9.5" y="-18" font-family="Helvetica,sans-Serif" font-size="10.00">json_rpc::FramedStdioClient</text>
<text text-anchor="middle" x="78" y="-7" font-family="Helvetica,sans-Serif" font-size="10.00">Transport::SendNotification</text>
</a>
</g>
</g>
<!-- Node1&#45;&gt;Node4 -->
<g id="edge3_Node000001_Node000004" class="edge">
<title>Node1&#45;&gt;Node4</title>
<g id="a_edge3_Node000001_Node000004"><a xlink:title=" ">
<path fill="none" stroke="#63b8ff" d="M195.93,-45.42C176.48,-40.36 155.45,-34.89 136.67,-30"/>
<polygon fill="#63b8ff" stroke="#63b8ff" points="195.07,-48.81 205.63,-47.94 196.83,-42.04 195.07,-48.81"/>
</a>
</g>
</g>
</g>
</svg>
