<?xml version="1.0" encoding="UTF-8" standalone="no"?>
<!DOCTYPE svg PUBLIC "-//W3C//DTD SVG 1.1//EN"
 "http://www.w3.org/Graphics/SVG/1.1/DTD/svg11.dtd">
<!-- Generated by graphviz version 2.43.0 (0)
 -->
<!-- Title: jsonrpc::transport::FramedStdioTransport Pages: 1 -->
<svg width="324pt" height="239pt"
 viewBox="0.00 0.00 323.50 239.00" xmlns="http://www.w3.org/2000/svg" xmlns:xlink="http://www.w3.org/1999/xlink">
<g id="graph0" class="graph" transform="scale(1 1) rotate(0) translate(4 235)">
<title>jsonrpc::transport::FramedStdioTransport</title>
<!-- Node1 -->
<g id="Node000001" class="node">
<title>Node1</title>
<g id="a_Node000001"><a xlink:title="Transport layer using framed messaging over standard I/O for JSON&#45;RPC communication.">
<polygon fill="#999999" stroke="transparent" points="200.5,-75 77.5,-75 77.5,0 200.5,0 200.5,-75"/>
<text text-anchor="start" x="83" y="-62.5" font-family="Helvetica,sans-Serif" font-size="10.00">jsonrpc::transport</text>
<text text-anchor="start" x="83" y="-51.5" font-family="Helvetica,sans-Serif" font-size="10.00">::FramedStdioTransport</text>
<text text-anchor="start" x="137.5" y="-36.5" font-family="Helvetica,sans-Serif" font-size="10.00"> </text>
<text text-anchor="start" x="84.5" y="-21.5" font-family="Helvetica,sans-Serif" font-size="10.00">+</text>
<text text-anchor="start" x="100" y="-21.5" font-family="Helvetica,sans-Serif" font-size="10.00">SendMessage()</text>
<text text-anchor="start" x="84.5" y="-6.5" font-family="Helvetica,sans-Serif" font-size="10.00">+</text>
<text text-anchor="start" x="100" y="-6.5" font-family="Helvetica,sans-Serif" font-size="10.00">ReceiveMessage()</text>
<polygon fill="#666666" stroke="#666666" points="78,-46.5 78,-46.5 201,-46.5 201,-46.5 78,-46.5"/>
<polygon fill="#666666" stroke="#666666" points="78,-31.5 78,-31.5 201,-31.5 201,-31.5 78,-31.5"/>
<polygon fill="none" stroke="#666666" points="77.5,0 77.5,-75 200.5,-75 200.5,0 77.5,0"/>
</a>
</g>
</g>
<!-- Node2 -->
<g id="Node000002" class="node">
<title>Node2</title>
<g id="a_Node000002"><a xlink:href="classjsonrpc_1_1transport_1_1Transport.html" target="_top" xlink:title="Base class for JSON&#45;RPC transport.">
<polygon fill="white" stroke="transparent" points="112,-216 0,-216 0,-126 112,-126 112,-216"/>
<text text-anchor="start" x="13" y="-204" font-family="Helvetica,sans-Serif" font-size="10.00">jsonrpc::transport</text>
<text text-anchor="start" x="30" y="-193" font-family="Helvetica,sans-Serif" font-size="10.00">::Transport</text>
<text text-anchor="start" x="54" y="-178" font-family="Helvetica,sans-Serif" font-size="10.00"> </text>
<text text-anchor="start" x="4" y="-163" font-family="Helvetica,sans-Serif" font-size="10.00">+</text>
<text text-anchor="start" x="17" y="-163" font-family="Helvetica,sans-Serif" font-size="10.00">~Transport()</text>
<text text-anchor="start" x="4" y="-148" font-family="Helvetica,sans-Serif" font-size="10.00">+</text>
<text text-anchor="start" x="17" y="-148" font-family="Helvetica,sans-Serif" font-size="10.00">SendMessage()</text>
<text text-anchor="start" x="4" y="-133" font-family="Helvetica,sans-Serif" font-size="10.00">+</text>
<text text-anchor="start" x="17" y="-133" font-family="Helvetica,sans-Serif" font-size="10.00">ReceiveMessage()</text>
<polygon fill="#666666" stroke="#666666" points="0,-188 0,-188 112,-188 112,-188 0,-188"/>
<polygon fill="#666666" stroke="#666666" points="0,-173 0,-173 112,-173 112,-173 0,-173"/>
<polygon fill="none" stroke="#666666" points="0,-126 0,-216 112,-216 112,-126 0,-126"/>
</a>
</g>
</g>
<!-- Node2&#45;&gt;Node1 -->
<g id="edge1_Node000001_Node000002" class="edge">
<title>Node2&#45;&gt;Node1</title>
<g id="a_edge1_Node000001_Node000002"><a xlink:title=" ">
<path fill="none" stroke="#63b8ff" d="M89.31,-117.23C98.18,-103.18 107.57,-88.3 115.77,-75.31"/>
<polygon fill="none" stroke="#63b8ff" points="86.25,-115.52 83.87,-125.85 92.17,-119.26 86.25,-115.52"/>
</a>
</g>
</g>
<!-- Node3 -->
<g id="Node000003" class="node">
<title>Node3</title>
<g id="a_Node000003"><a xlink:href="classjsonrpc_1_1transport_1_1FramedTransport.html" target="_top" xlink:title="Base class for framed transport mechanisms.">
<polygon fill="white" stroke="transparent" points="315.5,-231 130.5,-231 130.5,-111 315.5,-111 315.5,-231"/>
<text text-anchor="start" x="179.5" y="-219" font-family="Helvetica,sans-Serif" font-size="10.00">jsonrpc::transport</text>
<text text-anchor="start" x="179.5" y="-208" font-family="Helvetica,sans-Serif" font-size="10.00">::FramedTransport</text>
<text text-anchor="start" x="135" y="-193" font-family="Helvetica,sans-Serif" font-size="10.00">#</text>
<text text-anchor="start" x="148" y="-193" font-family="Helvetica,sans-Serif" font-size="10.00">HEADER_DELIMITER</text>
<text text-anchor="start" x="135" y="-178" font-family="Helvetica,sans-Serif" font-size="10.00">#</text>
<text text-anchor="start" x="148" y="-178" font-family="Helvetica,sans-Serif" font-size="10.00">FrameMessage()</text>
<text text-anchor="start" x="135" y="-163" font-family="Helvetica,sans-Serif" font-size="10.00">#</text>
<text text-anchor="start" x="148" y="-163" font-family="Helvetica,sans-Serif" font-size="10.00">ReadHeadersFromStream()</text>
<text text-anchor="start" x="135" y="-148" font-family="Helvetica,sans-Serif" font-size="10.00">#</text>
<text text-anchor="start" x="148" y="-148" font-family="Helvetica,sans-Serif" font-size="10.00">ReadContentLengthFromStream()</text>
<text text-anchor="start" x="135" y="-133" font-family="Helvetica,sans-Serif" font-size="10.00">#</text>
<text text-anchor="start" x="148" y="-133" font-family="Helvetica,sans-Serif" font-size="10.00">ReadContent()</text>
<text text-anchor="start" x="135" y="-118" font-family="Helvetica,sans-Serif" font-size="10.00">#</text>
<text text-anchor="start" x="148" y="-118" font-family="Helvetica,sans-Serif" font-size="10.00">ReceiveFramedMessage()</text>
<polygon fill="#666666" stroke="#666666" points="131,-203 131,-203 316,-203 316,-203 131,-203"/>
<polygon fill="#666666" stroke="#666666" points="131,-188 131,-188 146,-188 146,-188 131,-188"/>
<polygon fill="#666666" stroke="#666666" points="146,-188 146,-188 316,-188 316,-188 146,-188"/>
<polygon fill="none" stroke="#666666" points="130.5,-111 130.5,-231 315.5,-231 315.5,-111 130.5,-111"/>
</a>
</g>
</g>
<!-- Node3&#45;&gt;Node1 -->
<g id="edge2_Node000001_Node000003" class="edge">
<title>Node3&#45;&gt;Node1</title>
<g id="a_edge2_Node000001_Node000003"><a xlink:title=" ">
<path fill="none" stroke="darkgreen" d="M179.71,-102.23C173.75,-92.9 167.83,-83.63 162.42,-75.16"/>
<polygon fill="none" stroke="darkgreen" points="176.84,-104.25 185.18,-110.79 182.74,-100.48 176.84,-104.25"/>
</a>
</g>
</g>
</g>
</svg>
