<?xml version="1.0" encoding="UTF-8" standalone="no"?>
<!DOCTYPE svg PUBLIC "-//W3C//DTD SVG 1.1//EN"
 "http://www.w3.org/Graphics/SVG/1.1/DTD/svg11.dtd">
<!-- Generated by graphviz version 2.43.0 (0)
 -->
<!-- Title: jsonrpc::server::transports::FramedStdioServerTransport Pages: 1 -->
<svg width="314pt" height="269pt"
 viewBox="0.00 0.00 314.00 269.00" xmlns="http://www.w3.org/2000/svg" xmlns:xlink="http://www.w3.org/1999/xlink">
<g id="graph0" class="graph" transform="scale(1 1) rotate(0) translate(4 265)">
<title>jsonrpc::server::transports::FramedStdioServerTransport</title>
<!-- Node1 -->
<g id="Node000001" class="node">
<title>Node1</title>
<g id="a_Node000001"><a xlink:title="Server transport using framed stdio for communication.">
<polygon fill="#999999" stroke="transparent" points="227.5,-60 72.5,-60 72.5,0 227.5,0 227.5,-60"/>
<text text-anchor="start" x="78" y="-48" font-family="Helvetica,sans-Serif" font-size="10.00">jsonrpc::server::transports</text>
<text text-anchor="start" x="78" y="-37" font-family="Helvetica,sans-Serif" font-size="10.00">::FramedStdioServerTransport</text>
<text text-anchor="start" x="148.5" y="-22" font-family="Helvetica,sans-Serif" font-size="10.00"> </text>
<text text-anchor="start" x="101" y="-7" font-family="Helvetica,sans-Serif" font-size="10.00">#</text>
<text text-anchor="start" x="138" y="-7" font-family="Helvetica,sans-Serif" font-size="10.00">Listen()</text>
<polygon fill="#666666" stroke="#666666" points="73,-32 73,-32 228,-32 228,-32 73,-32"/>
<polygon fill="#666666" stroke="#666666" points="73,-17 73,-17 228,-17 228,-17 73,-17"/>
<polygon fill="none" stroke="#666666" points="72.5,0 72.5,-60 227.5,-60 227.5,0 72.5,0"/>
</a>
</g>
</g>
<!-- Node2 -->
<g id="Node000002" class="node">
<title>Node2</title>
<g id="a_Node000002"><a xlink:href="classjsonrpc_1_1server_1_1transports_1_1ServerTransport.html" target="_top" xlink:title="Abstract base class for server transport mechanisms.">
<polygon fill="white" stroke="transparent" points="138,-261 0,-261 0,-96 138,-96 138,-261"/>
<text text-anchor="start" x="5" y="-248.5" font-family="Helvetica,sans-Serif" font-size="10.00">jsonrpc::server::transports</text>
<text text-anchor="start" x="27.5" y="-237.5" font-family="Helvetica,sans-Serif" font-size="10.00">::ServerTransport</text>
<text text-anchor="start" x="10" y="-222.5" font-family="Helvetica,sans-Serif" font-size="10.00">#</text>
<text text-anchor="start" x="29" y="-222.5" font-family="Helvetica,sans-Serif" font-size="10.00">running_</text>
<text text-anchor="start" x="10" y="-207.5" font-family="Helvetica,sans-Serif" font-size="10.00">#</text>
<text text-anchor="start" x="29" y="-207.5" font-family="Helvetica,sans-Serif" font-size="10.00">dispatcher_</text>
<text text-anchor="start" x="10" y="-192.5" font-family="Helvetica,sans-Serif" font-size="10.00">+</text>
<text text-anchor="start" x="29" y="-192.5" font-family="Helvetica,sans-Serif" font-size="10.00">ServerTransport()</text>
<text text-anchor="start" x="10" y="-177.5" font-family="Helvetica,sans-Serif" font-size="10.00">+</text>
<text text-anchor="start" x="29" y="-177.5" font-family="Helvetica,sans-Serif" font-size="10.00">~ServerTransport()</text>
<text text-anchor="start" x="10" y="-162.5" font-family="Helvetica,sans-Serif" font-size="10.00">+</text>
<text text-anchor="start" x="29" y="-162.5" font-family="Helvetica,sans-Serif" font-size="10.00">Start()</text>
<text text-anchor="start" x="10" y="-147.5" font-family="Helvetica,sans-Serif" font-size="10.00">+</text>
<text text-anchor="start" x="29" y="-147.5" font-family="Helvetica,sans-Serif" font-size="10.00">Stop()</text>
<text text-anchor="start" x="10" y="-132.5" font-family="Helvetica,sans-Serif" font-size="10.00">+</text>
<text text-anchor="start" x="29" y="-132.5" font-family="Helvetica,sans-Serif" font-size="10.00">SetDispatcher()</text>
<text text-anchor="start" x="10" y="-117.5" font-family="Helvetica,sans-Serif" font-size="10.00">+</text>
<text text-anchor="start" x="29" y="-117.5" font-family="Helvetica,sans-Serif" font-size="10.00">IsRunning()</text>
<text text-anchor="start" x="10" y="-102.5" font-family="Helvetica,sans-Serif" font-size="10.00">#</text>
<text text-anchor="start" x="29" y="-102.5" font-family="Helvetica,sans-Serif" font-size="10.00">Listen()</text>
<polygon fill="#666666" stroke="#666666" points="0,-232.5 0,-232.5 138,-232.5 138,-232.5 0,-232.5"/>
<polygon fill="#666666" stroke="#666666" points="0,-202.5 0,-202.5 27,-202.5 27,-202.5 0,-202.5"/>
<polygon fill="#666666" stroke="#666666" points="27,-202.5 27,-202.5 138,-202.5 138,-202.5 27,-202.5"/>
<polygon fill="none" stroke="#666666" points="0,-96 0,-261 138,-261 138,-96 0,-96"/>
</a>
</g>
</g>
<!-- Node2&#45;&gt;Node1 -->
<g id="edge1_Node000001_Node000002" class="edge">
<title>Node2&#45;&gt;Node1</title>
<g id="a_edge1_Node000001_Node000002"><a xlink:title=" ">
<path fill="none" stroke="#63b8ff" d="M119.14,-86.82C124.41,-77.28 129.46,-68.15 133.89,-60.15"/>
<polygon fill="none" stroke="#63b8ff" points="116.01,-85.24 114.24,-95.68 122.14,-88.63 116.01,-85.24"/>
</a>
</g>
</g>
<!-- Node3 -->
<g id="Node000003" class="node">
<title>Node3</title>
<g id="a_Node000003"><a xlink:href="classjsonrpc_1_1common_1_1transports_1_1FramedTransport.html" target="_top" xlink:title="Base class for framed transport mechanisms.">
<polygon fill="white" stroke="transparent" points="306,-216 156,-216 156,-141 306,-141 306,-216"/>
<text text-anchor="start" x="161" y="-203.5" font-family="Helvetica,sans-Serif" font-size="10.00">jsonrpc::common::transports</text>
<text text-anchor="start" x="187" y="-192.5" font-family="Helvetica,sans-Serif" font-size="10.00">::FramedTransport</text>
<text text-anchor="start" x="229" y="-177.5" font-family="Helvetica,sans-Serif" font-size="10.00"> </text>
<text text-anchor="start" x="168.5" y="-162.5" font-family="Helvetica,sans-Serif" font-size="10.00">#</text>
<text text-anchor="start" x="190" y="-162.5" font-family="Helvetica,sans-Serif" font-size="10.00">FrameMessage()</text>
<text text-anchor="start" x="168.5" y="-147.5" font-family="Helvetica,sans-Serif" font-size="10.00">#</text>
<text text-anchor="start" x="190" y="-147.5" font-family="Helvetica,sans-Serif" font-size="10.00">DeframeMessage()</text>
<polygon fill="#666666" stroke="#666666" points="156,-187.5 156,-187.5 306,-187.5 306,-187.5 156,-187.5"/>
<polygon fill="#666666" stroke="#666666" points="156,-172.5 156,-172.5 306,-172.5 306,-172.5 156,-172.5"/>
<polygon fill="none" stroke="#666666" points="156,-141 156,-216 306,-216 306,-141 156,-141"/>
</a>
</g>
</g>
<!-- Node3&#45;&gt;Node1 -->
<g id="edge2_Node000001_Node000003" class="edge">
<title>Node3&#45;&gt;Node1</title>
<g id="a_edge2_Node000001_Node000003"><a xlink:title=" ">
<path fill="none" stroke="darkgreen" d="M205.77,-131.86C192.85,-108.49 177.5,-80.73 166.18,-60.26"/>
<polygon fill="none" stroke="darkgreen" points="202.87,-133.85 210.77,-140.91 208.99,-130.46 202.87,-133.85"/>
</a>
</g>
</g>
</g>
</svg>
