<?xml version="1.0" encoding="UTF-8" standalone="no"?>
<!DOCTYPE svg PUBLIC "-//W3C//DTD SVG 1.1//EN"
 "http://www.w3.org/Graphics/SVG/1.1/DTD/svg11.dtd">
<!-- Generated by graphviz version 2.43.0 (0)
 -->
<!-- Title: json_rpc::FramedStdioClientTransport Pages: 1 -->
<svg width="296pt" height="198pt"
 viewBox="0.00 0.00 296.00 198.00" xmlns="http://www.w3.org/2000/svg" xmlns:xlink="http://www.w3.org/1999/xlink">
<g id="graph0" class="graph" transform="scale(1 1) rotate(0) translate(4 194)">
<title>json_rpc::FramedStdioClientTransport</title>
<!-- Node1 -->
<g id="Node000001" class="node">
<title>Node1</title>
<g id="a_Node000001"><a xlink:title="Client transport using framed stdio for communication.">
<polygon fill="#999999" stroke="transparent" points="215,-75 68,-75 68,0 215,0 215,-75"/>
<text text-anchor="start" x="73.5" y="-62.5" font-family="Helvetica,sans-Serif" font-size="10.00">json_rpc::FramedStdioClient</text>
<text text-anchor="start" x="119" y="-51.5" font-family="Helvetica,sans-Serif" font-size="10.00">Transport</text>
<text text-anchor="start" x="140" y="-36.5" font-family="Helvetica,sans-Serif" font-size="10.00"> </text>
<text text-anchor="start" x="82" y="-21.5" font-family="Helvetica,sans-Serif" font-size="10.00">+</text>
<text text-anchor="start" x="104.5" y="-21.5" font-family="Helvetica,sans-Serif" font-size="10.00">SendMethodCall()</text>
<text text-anchor="start" x="82" y="-6.5" font-family="Helvetica,sans-Serif" font-size="10.00">+</text>
<text text-anchor="start" x="104.5" y="-6.5" font-family="Helvetica,sans-Serif" font-size="10.00">SendNotification()</text>
<polygon fill="#666666" stroke="#666666" points="68.5,-46.5 68.5,-46.5 215.5,-46.5 215.5,-46.5 68.5,-46.5"/>
<polygon fill="#666666" stroke="#666666" points="68.5,-31.5 68.5,-31.5 215.5,-31.5 215.5,-31.5 68.5,-31.5"/>
<polygon fill="none" stroke="#666666" points="68,0 68,-75 215,-75 215,0 68,0"/>
</a>
</g>
</g>
<!-- Node2 -->
<g id="Node000002" class="node">
<title>Node2</title>
<g id="a_Node000002"><a xlink:href="classjson__rpc_1_1ClientTransport.html" target="_top" xlink:title="An abstract class representing the transport mechanism for JSON&#45;RPC client.">
<polygon fill="white" stroke="transparent" points="131,-190 0,-190 0,-111 131,-111 131,-190"/>
<text text-anchor="start" x="5.5" y="-177.5" font-family="Helvetica,sans-Serif" font-size="10.00">json_rpc::ClientTransport</text>
<text text-anchor="start" x="64" y="-162.5" font-family="Helvetica,sans-Serif" font-size="10.00"> </text>
<text text-anchor="start" x="9.5" y="-147.5" font-family="Helvetica,sans-Serif" font-size="10.00">+</text>
<text text-anchor="start" x="27.5" y="-147.5" font-family="Helvetica,sans-Serif" font-size="10.00">~ClientTransport()</text>
<text text-anchor="start" x="9.5" y="-132.5" font-family="Helvetica,sans-Serif" font-size="10.00">+</text>
<text text-anchor="start" x="27.5" y="-132.5" font-family="Helvetica,sans-Serif" font-size="10.00">SendMethodCall()</text>
<text text-anchor="start" x="9.5" y="-117.5" font-family="Helvetica,sans-Serif" font-size="10.00">+</text>
<text text-anchor="start" x="27.5" y="-117.5" font-family="Helvetica,sans-Serif" font-size="10.00">SendNotification()</text>
<polygon fill="#666666" stroke="#666666" points="0.5,-172.5 0.5,-172.5 131.5,-172.5 131.5,-172.5 0.5,-172.5"/>
<polygon fill="#666666" stroke="#666666" points="0.5,-157.5 0.5,-157.5 131.5,-157.5 131.5,-157.5 0.5,-157.5"/>
<polygon fill="none" stroke="#666666" points="0,-111 0,-190 131,-190 131,-111 0,-111"/>
</a>
</g>
</g>
<!-- Node2&#45;&gt;Node1 -->
<g id="edge1_Node000001_Node000002" class="edge">
<title>Node2&#45;&gt;Node1</title>
<g id="a_edge1_Node000001_Node000002"><a xlink:title=" ">
<path fill="none" stroke="#63b8ff" d="M97.58,-102.65C103.89,-93.43 110.42,-83.89 116.46,-75.08"/>
<polygon fill="none" stroke="#63b8ff" points="94.63,-100.76 91.87,-110.99 100.41,-104.72 94.63,-100.76"/>
</a>
</g>
</g>
<!-- Node3 -->
<g id="Node000003" class="node">
<title>Node3</title>
<g id="a_Node000003"><a xlink:href="classjson__rpc_1_1FramedTransport.html" target="_top" xlink:title="Base class for framed transport mechanisms.">
<polygon fill="white" stroke="transparent" points="288,-182.5 149,-182.5 149,-118.5 288,-118.5 288,-182.5"/>
<text text-anchor="start" x="154.5" y="-170.5" font-family="Helvetica,sans-Serif" font-size="10.00">json_rpc::FramedTransport</text>
<text text-anchor="start" x="217" y="-155.5" font-family="Helvetica,sans-Serif" font-size="10.00"> </text>
<text text-anchor="start" x="160" y="-140.5" font-family="Helvetica,sans-Serif" font-size="10.00">#</text>
<text text-anchor="start" x="179.5" y="-140.5" font-family="Helvetica,sans-Serif" font-size="10.00">SendMessage()</text>
<text text-anchor="start" x="160" y="-125.5" font-family="Helvetica,sans-Serif" font-size="10.00">#</text>
<text text-anchor="start" x="179.5" y="-125.5" font-family="Helvetica,sans-Serif" font-size="10.00">ReceiveMessage()</text>
<polygon fill="#666666" stroke="#666666" points="149.5,-165.5 149.5,-165.5 288.5,-165.5 288.5,-165.5 149.5,-165.5"/>
<polygon fill="#666666" stroke="#666666" points="149.5,-150.5 149.5,-150.5 288.5,-150.5 288.5,-150.5 149.5,-150.5"/>
<polygon fill="none" stroke="#666666" points="149,-118.5 149,-182.5 288,-182.5 288,-118.5 149,-118.5"/>
</a>
</g>
</g>
<!-- Node3&#45;&gt;Node1 -->
<g id="edge2_Node000001_Node000003" class="edge">
<title>Node3&#45;&gt;Node1</title>
<g id="a_edge2_Node000001_Node000003"><a xlink:title=" ">
<path fill="none" stroke="darkgreen" d="M191.03,-109.9C183.23,-98.65 174.77,-86.45 167.08,-75.37"/>
<polygon fill="none" stroke="darkgreen" points="188.27,-112.06 196.85,-118.28 194.02,-108.07 188.27,-112.06"/>
</a>
</g>
</g>
</g>
</svg>
