<?xml version="1.0" encoding="UTF-8" standalone="no"?>
<!DOCTYPE svg PUBLIC "-//W3C//DTD SVG 1.1//EN"
 "http://www.w3.org/Graphics/SVG/1.1/DTD/svg11.dtd">
<!-- Generated by graphviz version 2.43.0 (0)
 -->
<!-- Title: jsonrpc::transport::FramedStdioTransport Pages: 1 -->
<svg width="254pt" height="209pt"
 viewBox="0.00 0.00 253.50 209.00" xmlns="http://www.w3.org/2000/svg" xmlns:xlink="http://www.w3.org/1999/xlink">
<g id="graph0" class="graph" transform="scale(1 1) rotate(0) translate(4 205)">
<title>jsonrpc::transport::FramedStdioTransport</title>
<!-- Node1 -->
<g id="Node000001" class="node">
<title>Node1</title>
<g id="a_Node000001"><a xlink:title="Transport layer using framed messaging over standard I/O for JSON&#45;RPC communication.">
<polygon fill="#999999" stroke="transparent" points="183.5,-75 60.5,-75 60.5,0 183.5,0 183.5,-75"/>
<text text-anchor="start" x="66" y="-62.5" font-family="Helvetica,sans-Serif" font-size="10.00">jsonrpc::transport</text>
<text text-anchor="start" x="66" y="-51.5" font-family="Helvetica,sans-Serif" font-size="10.00">::FramedStdioTransport</text>
<text text-anchor="start" x="120.5" y="-36.5" font-family="Helvetica,sans-Serif" font-size="10.00"> </text>
<text text-anchor="start" x="67.5" y="-21.5" font-family="Helvetica,sans-Serif" font-size="10.00">+</text>
<text text-anchor="start" x="83" y="-21.5" font-family="Helvetica,sans-Serif" font-size="10.00">SendMessage()</text>
<text text-anchor="start" x="67.5" y="-6.5" font-family="Helvetica,sans-Serif" font-size="10.00">+</text>
<text text-anchor="start" x="83" y="-6.5" font-family="Helvetica,sans-Serif" font-size="10.00">ReceiveMessage()</text>
<polygon fill="#666666" stroke="#666666" points="61,-46.5 61,-46.5 184,-46.5 184,-46.5 61,-46.5"/>
<polygon fill="#666666" stroke="#666666" points="61,-31.5 61,-31.5 184,-31.5 184,-31.5 61,-31.5"/>
<polygon fill="none" stroke="#666666" points="60.5,0 60.5,-75 183.5,-75 183.5,0 60.5,0"/>
</a>
</g>
</g>
<!-- Node2 -->
<g id="Node000002" class="node">
<title>Node2</title>
<g id="a_Node000002"><a xlink:href="classjsonrpc_1_1transport_1_1Transport.html" target="_top" xlink:title="Base class for JSON&#45;RPC transport.">
<polygon fill="white" stroke="transparent" points="112,-201 0,-201 0,-111 112,-111 112,-201"/>
<text text-anchor="start" x="13" y="-189" font-family="Helvetica,sans-Serif" font-size="10.00">jsonrpc::transport</text>
<text text-anchor="start" x="30" y="-178" font-family="Helvetica,sans-Serif" font-size="10.00">::Transport</text>
<text text-anchor="start" x="54" y="-163" font-family="Helvetica,sans-Serif" font-size="10.00"> </text>
<text text-anchor="start" x="4" y="-148" font-family="Helvetica,sans-Serif" font-size="10.00">+</text>
<text text-anchor="start" x="17" y="-148" font-family="Helvetica,sans-Serif" font-size="10.00">~Transport()</text>
<text text-anchor="start" x="4" y="-133" font-family="Helvetica,sans-Serif" font-size="10.00">+</text>
<text text-anchor="start" x="17" y="-133" font-family="Helvetica,sans-Serif" font-size="10.00">SendMessage()</text>
<text text-anchor="start" x="4" y="-118" font-family="Helvetica,sans-Serif" font-size="10.00">+</text>
<text text-anchor="start" x="17" y="-118" font-family="Helvetica,sans-Serif" font-size="10.00">ReceiveMessage()</text>
<polygon fill="#666666" stroke="#666666" points="0,-173 0,-173 112,-173 112,-173 0,-173"/>
<polygon fill="#666666" stroke="#666666" points="0,-158 0,-158 112,-158 112,-158 0,-158"/>
<polygon fill="none" stroke="#666666" points="0,-111 0,-201 112,-201 112,-111 0,-111"/>
</a>
</g>
</g>
<!-- Node2&#45;&gt;Node1 -->
<g id="edge1_Node000001_Node000002" class="edge">
<title>Node2&#45;&gt;Node1</title>
<g id="a_edge1_Node000001_Node000002"><a xlink:title=" ">
<path fill="none" stroke="#63b8ff" d="M85.9,-102.23C91.11,-93.03 96.42,-83.65 101.32,-75.01"/>
<polygon fill="none" stroke="#63b8ff" points="82.84,-100.53 80.95,-110.96 88.93,-103.98 82.84,-100.53"/>
</a>
</g>
</g>
<!-- Node3 -->
<g id="Node000003" class="node">
<title>Node3</title>
<g id="a_Node000003"><a xlink:href="classjsonrpc_1_1transport_1_1FramedTransport.html" target="_top" xlink:title="Base class for framed transport mechanisms.">
<polygon fill="white" stroke="transparent" points="245.5,-193.5 130.5,-193.5 130.5,-118.5 245.5,-118.5 245.5,-193.5"/>
<text text-anchor="start" x="144.5" y="-181" font-family="Helvetica,sans-Serif" font-size="10.00">jsonrpc::transport</text>
<text text-anchor="start" x="144.5" y="-170" font-family="Helvetica,sans-Serif" font-size="10.00">::FramedTransport</text>
<text text-anchor="start" x="186.5" y="-155" font-family="Helvetica,sans-Serif" font-size="10.00"> </text>
<text text-anchor="start" x="135" y="-140" font-family="Helvetica,sans-Serif" font-size="10.00">#</text>
<text text-anchor="start" x="148" y="-140" font-family="Helvetica,sans-Serif" font-size="10.00">FrameMessage()</text>
<text text-anchor="start" x="135" y="-125" font-family="Helvetica,sans-Serif" font-size="10.00">#</text>
<text text-anchor="start" x="148" y="-125" font-family="Helvetica,sans-Serif" font-size="10.00">DeframeMessage()</text>
<polygon fill="#666666" stroke="#666666" points="131,-165 131,-165 246,-165 246,-165 131,-165"/>
<polygon fill="#666666" stroke="#666666" points="131,-150 131,-150 246,-150 246,-150 131,-150"/>
<polygon fill="none" stroke="#666666" points="130.5,-118.5 130.5,-193.5 245.5,-193.5 245.5,-118.5 130.5,-118.5"/>
</a>
</g>
</g>
<!-- Node3&#45;&gt;Node1 -->
<g id="edge2_Node000001_Node000003" class="edge">
<title>Node3&#45;&gt;Node1</title>
<g id="a_edge2_Node000001_Node000003"><a xlink:title=" ">
<path fill="none" stroke="darkgreen" d="M162.25,-109.54C155.82,-98.2 149.01,-86.18 142.86,-75.31"/>
<polygon fill="none" stroke="darkgreen" points="159.32,-111.48 167.3,-118.46 165.41,-108.03 159.32,-111.48"/>
</a>
</g>
</g>
</g>
</svg>
