<?xml version="1.0" encoding="UTF-8" standalone="no"?>
<!DOCTYPE svg PUBLIC "-//W3C//DTD SVG 1.1//EN"
 "http://www.w3.org/Graphics/SVG/1.1/DTD/svg11.dtd">
<!-- Generated by graphviz version 2.43.0 (0)
 -->
<!-- Title: jsonrpc::client::transports::FramedStdioClientTransport Pages: 1 -->
<svg width="310pt" height="209pt"
 viewBox="0.00 0.00 310.00 209.00" xmlns="http://www.w3.org/2000/svg" xmlns:xlink="http://www.w3.org/1999/xlink">
<g id="graph0" class="graph" transform="scale(1 1) rotate(0) translate(4 205)">
<title>jsonrpc::client::transports::FramedStdioClientTransport</title>
<!-- Node1 -->
<g id="Node000001" class="node">
<title>Node1</title>
<g id="a_Node000001"><a xlink:title="Transport layer using framed messaging over standard I/O for JSON&#45;RPC communication.">
<polygon fill="#999999" stroke="transparent" points="223,-75 71,-75 71,0 223,0 223,-75"/>
<text text-anchor="start" x="76" y="-62.5" font-family="Helvetica,sans-Serif" font-size="10.00">jsonrpc::client::transports</text>
<text text-anchor="start" x="76" y="-51.5" font-family="Helvetica,sans-Serif" font-size="10.00">::FramedStdioClientTransport</text>
<text text-anchor="start" x="145" y="-36.5" font-family="Helvetica,sans-Serif" font-size="10.00"> </text>
<text text-anchor="start" x="87.5" y="-21.5" font-family="Helvetica,sans-Serif" font-size="10.00">+</text>
<text text-anchor="start" x="113" y="-21.5" font-family="Helvetica,sans-Serif" font-size="10.00">SendRequest()</text>
<text text-anchor="start" x="87.5" y="-6.5" font-family="Helvetica,sans-Serif" font-size="10.00">+</text>
<text text-anchor="start" x="113" y="-6.5" font-family="Helvetica,sans-Serif" font-size="10.00">ReadResponse()</text>
<polygon fill="#666666" stroke="#666666" points="71,-46.5 71,-46.5 223,-46.5 223,-46.5 71,-46.5"/>
<polygon fill="#666666" stroke="#666666" points="71,-31.5 71,-31.5 223,-31.5 223,-31.5 71,-31.5"/>
<polygon fill="none" stroke="#666666" points="71,0 71,-75 223,-75 223,0 71,0"/>
</a>
</g>
</g>
<!-- Node2 -->
<g id="Node000002" class="node">
<title>Node2</title>
<g id="a_Node000002"><a xlink:href="classjsonrpc_1_1client_1_1transports_1_1ClientTransport.html" target="_top" xlink:title="Base class for JSON&#45;RPC client transport.">
<polygon fill="white" stroke="transparent" points="134,-201 0,-201 0,-111 134,-111 134,-201"/>
<text text-anchor="start" x="5" y="-189" font-family="Helvetica,sans-Serif" font-size="10.00">jsonrpc::client::transports</text>
<text text-anchor="start" x="27" y="-178" font-family="Helvetica,sans-Serif" font-size="10.00">::ClientTransport</text>
<text text-anchor="start" x="65" y="-163" font-family="Helvetica,sans-Serif" font-size="10.00"> </text>
<text text-anchor="start" x="9.5" y="-148" font-family="Helvetica,sans-Serif" font-size="10.00">+</text>
<text text-anchor="start" x="28" y="-148" font-family="Helvetica,sans-Serif" font-size="10.00">~ClientTransport()</text>
<text text-anchor="start" x="9.5" y="-133" font-family="Helvetica,sans-Serif" font-size="10.00">+</text>
<text text-anchor="start" x="28" y="-133" font-family="Helvetica,sans-Serif" font-size="10.00">SendRequest()</text>
<text text-anchor="start" x="9.5" y="-118" font-family="Helvetica,sans-Serif" font-size="10.00">+</text>
<text text-anchor="start" x="28" y="-118" font-family="Helvetica,sans-Serif" font-size="10.00">ReadResponse()</text>
<polygon fill="#666666" stroke="#666666" points="0,-173 0,-173 134,-173 134,-173 0,-173"/>
<polygon fill="#666666" stroke="#666666" points="0,-158 0,-158 134,-158 134,-158 0,-158"/>
<polygon fill="none" stroke="#666666" points="0,-111 0,-201 134,-201 134,-111 0,-111"/>
</a>
</g>
</g>
<!-- Node2&#45;&gt;Node1 -->
<g id="edge1_Node000001_Node000002" class="edge">
<title>Node2&#45;&gt;Node1</title>
<g id="a_edge1_Node000001_Node000002"><a xlink:title=" ">
<path fill="none" stroke="#63b8ff" d="M103.04,-102.51C109.42,-93.22 115.94,-83.74 121.93,-75.01"/>
<polygon fill="none" stroke="#63b8ff" points="100.02,-100.73 97.24,-110.96 105.79,-104.69 100.02,-100.73"/>
</a>
</g>
</g>
<!-- Node3 -->
<g id="Node000003" class="node">
<title>Node3</title>
<g id="a_Node000003"><a xlink:href="classjsonrpc_1_1common_1_1transports_1_1FramedTransport.html" target="_top" xlink:title="Base class for framed transport mechanisms.">
<polygon fill="white" stroke="transparent" points="302,-193.5 152,-193.5 152,-118.5 302,-118.5 302,-193.5"/>
<text text-anchor="start" x="157" y="-181" font-family="Helvetica,sans-Serif" font-size="10.00">jsonrpc::common::transports</text>
<text text-anchor="start" x="183" y="-170" font-family="Helvetica,sans-Serif" font-size="10.00">::FramedTransport</text>
<text text-anchor="start" x="225" y="-155" font-family="Helvetica,sans-Serif" font-size="10.00"> </text>
<text text-anchor="start" x="164.5" y="-140" font-family="Helvetica,sans-Serif" font-size="10.00">#</text>
<text text-anchor="start" x="186" y="-140" font-family="Helvetica,sans-Serif" font-size="10.00">FrameMessage()</text>
<text text-anchor="start" x="164.5" y="-125" font-family="Helvetica,sans-Serif" font-size="10.00">#</text>
<text text-anchor="start" x="186" y="-125" font-family="Helvetica,sans-Serif" font-size="10.00">DeframeMessage()</text>
<polygon fill="#666666" stroke="#666666" points="152,-165 152,-165 302,-165 302,-165 152,-165"/>
<polygon fill="#666666" stroke="#666666" points="152,-150 152,-150 302,-150 302,-150 152,-150"/>
<polygon fill="none" stroke="#666666" points="152,-118.5 152,-193.5 302,-193.5 302,-118.5 152,-118.5"/>
</a>
</g>
</g>
<!-- Node3&#45;&gt;Node1 -->
<g id="edge2_Node000001_Node000003" class="edge">
<title>Node3&#45;&gt;Node1</title>
<g id="a_edge2_Node000001_Node000003"><a xlink:title=" ">
<path fill="none" stroke="darkgreen" d="M196.02,-109.88C188.16,-98.44 179.81,-86.29 172.28,-75.31"/>
<polygon fill="none" stroke="darkgreen" points="193.36,-112.2 201.91,-118.46 199.13,-108.23 193.36,-112.2"/>
</a>
</g>
</g>
</g>
</svg>
