<?xml version="1.0" encoding="UTF-8" standalone="no"?>
<!DOCTYPE svg PUBLIC "-//W3C//DTD SVG 1.1//EN"
 "http://www.w3.org/Graphics/SVG/1.1/DTD/svg11.dtd">
<!-- Generated by graphviz version 2.43.0 (0)
 -->
<!-- Title: json_rpc::FramedStdioServerTransport Pages: 1 -->
<svg width="300pt" height="258pt"
 viewBox="0.00 0.00 299.50 258.00" xmlns="http://www.w3.org/2000/svg" xmlns:xlink="http://www.w3.org/1999/xlink">
<g id="graph0" class="graph" transform="scale(1 1) rotate(0) translate(4 254)">
<title>json_rpc::FramedStdioServerTransport</title>
<!-- Node1 -->
<g id="Node000001" class="node">
<title>Node1</title>
<g id="a_Node000001"><a xlink:title="Server transport using framed stdio for communication.">
<polygon fill="#999999" stroke="transparent" points="219,-60 69,-60 69,0 219,0 219,-60"/>
<text text-anchor="start" x="74" y="-48" font-family="Helvetica,sans-Serif" font-size="10.00">json_rpc::FramedStdioServer</text>
<text text-anchor="start" x="121" y="-37" font-family="Helvetica,sans-Serif" font-size="10.00">Transport</text>
<text text-anchor="start" x="142" y="-22" font-family="Helvetica,sans-Serif" font-size="10.00"> </text>
<text text-anchor="start" x="96" y="-7" font-family="Helvetica,sans-Serif" font-size="10.00">#</text>
<text text-anchor="start" x="132" y="-7" font-family="Helvetica,sans-Serif" font-size="10.00">Listen()</text>
<polygon fill="#666666" stroke="#666666" points="69,-32 69,-32 219,-32 219,-32 69,-32"/>
<polygon fill="#666666" stroke="#666666" points="69,-17 69,-17 219,-17 219,-17 69,-17"/>
<polygon fill="none" stroke="#666666" points="69,0 69,-60 219,-60 219,0 69,0"/>
</a>
</g>
</g>
<!-- Node2 -->
<g id="Node000002" class="node">
<title>Node2</title>
<g id="a_Node000002"><a xlink:href="classjson__rpc_1_1ServerTransport.html" target="_top" xlink:title="Abstract base class for server transport mechanisms.">
<polygon fill="white" stroke="transparent" points="134,-250 0,-250 0,-96 134,-96 134,-250"/>
<text text-anchor="start" x="5" y="-238" font-family="Helvetica,sans-Serif" font-size="10.00">json_rpc::ServerTransport</text>
<text text-anchor="start" x="9" y="-223" font-family="Helvetica,sans-Serif" font-size="10.00">#</text>
<text text-anchor="start" x="27" y="-223" font-family="Helvetica,sans-Serif" font-size="10.00">running_</text>
<text text-anchor="start" x="9" y="-208" font-family="Helvetica,sans-Serif" font-size="10.00">#</text>
<text text-anchor="start" x="27" y="-208" font-family="Helvetica,sans-Serif" font-size="10.00">dispatcher_</text>
<text text-anchor="start" x="9" y="-193" font-family="Helvetica,sans-Serif" font-size="10.00">+</text>
<text text-anchor="start" x="27" y="-193" font-family="Helvetica,sans-Serif" font-size="10.00">ServerTransport()</text>
<text text-anchor="start" x="9" y="-178" font-family="Helvetica,sans-Serif" font-size="10.00">+</text>
<text text-anchor="start" x="27" y="-178" font-family="Helvetica,sans-Serif" font-size="10.00">~ServerTransport()</text>
<text text-anchor="start" x="9" y="-163" font-family="Helvetica,sans-Serif" font-size="10.00">+</text>
<text text-anchor="start" x="27" y="-163" font-family="Helvetica,sans-Serif" font-size="10.00">Start()</text>
<text text-anchor="start" x="9" y="-148" font-family="Helvetica,sans-Serif" font-size="10.00">+</text>
<text text-anchor="start" x="27" y="-148" font-family="Helvetica,sans-Serif" font-size="10.00">Stop()</text>
<text text-anchor="start" x="9" y="-133" font-family="Helvetica,sans-Serif" font-size="10.00">+</text>
<text text-anchor="start" x="27" y="-133" font-family="Helvetica,sans-Serif" font-size="10.00">SetDispatcher()</text>
<text text-anchor="start" x="9" y="-118" font-family="Helvetica,sans-Serif" font-size="10.00">+</text>
<text text-anchor="start" x="27" y="-118" font-family="Helvetica,sans-Serif" font-size="10.00">IsRunning()</text>
<text text-anchor="start" x="9" y="-103" font-family="Helvetica,sans-Serif" font-size="10.00">#</text>
<text text-anchor="start" x="27" y="-103" font-family="Helvetica,sans-Serif" font-size="10.00">Listen()</text>
<polygon fill="#666666" stroke="#666666" points="0,-233 0,-233 134,-233 134,-233 0,-233"/>
<polygon fill="#666666" stroke="#666666" points="0,-203 0,-203 25,-203 25,-203 0,-203"/>
<polygon fill="#666666" stroke="#666666" points="25,-203 25,-203 134,-203 134,-203 25,-203"/>
<polygon fill="none" stroke="#666666" points="0,-96 0,-250 134,-250 134,-96 0,-96"/>
</a>
</g>
</g>
<!-- Node2&#45;&gt;Node1 -->
<g id="edge1_Node000001_Node000002" class="edge">
<title>Node2&#45;&gt;Node1</title>
<g id="a_edge1_Node000001_Node000002"><a xlink:title=" ">
<path fill="none" stroke="#63b8ff" d="M113.45,-86.93C118.63,-77.45 123.61,-68.34 127.99,-60.32"/>
<polygon fill="none" stroke="#63b8ff" points="110.38,-85.27 108.66,-95.72 116.52,-88.62 110.38,-85.27"/>
</a>
</g>
</g>
<!-- Node3 -->
<g id="Node000003" class="node">
<title>Node3</title>
<g id="a_Node000003"><a xlink:href="classjson__rpc_1_1FramedTransport.html" target="_top" xlink:title="Base class for framed transport mechanisms.">
<polygon fill="white" stroke="transparent" points="291.5,-205 152.5,-205 152.5,-141 291.5,-141 291.5,-205"/>
<text text-anchor="start" x="158" y="-193" font-family="Helvetica,sans-Serif" font-size="10.00">json_rpc::FramedTransport</text>
<text text-anchor="start" x="220.5" y="-178" font-family="Helvetica,sans-Serif" font-size="10.00"> </text>
<text text-anchor="start" x="163.5" y="-163" font-family="Helvetica,sans-Serif" font-size="10.00">#</text>
<text text-anchor="start" x="183" y="-163" font-family="Helvetica,sans-Serif" font-size="10.00">SendMessage()</text>
<text text-anchor="start" x="163.5" y="-148" font-family="Helvetica,sans-Serif" font-size="10.00">#</text>
<text text-anchor="start" x="183" y="-148" font-family="Helvetica,sans-Serif" font-size="10.00">ReceiveMessage()</text>
<polygon fill="#666666" stroke="#666666" points="153,-188 153,-188 292,-188 292,-188 153,-188"/>
<polygon fill="#666666" stroke="#666666" points="153,-173 153,-173 292,-173 292,-173 153,-173"/>
<polygon fill="none" stroke="#666666" points="152.5,-141 152.5,-205 291.5,-205 291.5,-141 152.5,-141"/>
</a>
</g>
</g>
<!-- Node3&#45;&gt;Node1 -->
<g id="edge2_Node000001_Node000003" class="edge">
<title>Node3&#45;&gt;Node1</title>
<g id="a_edge2_Node000001_Node000003"><a xlink:title=" ">
<path fill="none" stroke="darkgreen" d="M199.83,-131.93C187.21,-109.11 171.67,-81.02 160.2,-60.28"/>
<polygon fill="none" stroke="darkgreen" points="196.79,-133.65 204.69,-140.71 202.91,-130.26 196.79,-133.65"/>
</a>
</g>
</g>
</g>
</svg>
