<?xml version="1.0" encoding="UTF-8" standalone="no"?>
<!DOCTYPE svg PUBLIC "-//W3C//DTD SVG 1.1//EN"
 "http://www.w3.org/Graphics/SVG/1.1/DTD/svg11.dtd">
<!-- Generated by graphviz version 2.43.0 (0)
 -->
<!-- Title: jsonrpc::FramedStdioServerTransport::Listen Pages: 1 -->
<svg width="335pt" height="134pt"
 viewBox="0.00 0.00 335.00 134.00" xmlns="http://www.w3.org/2000/svg" xmlns:xlink="http://www.w3.org/1999/xlink">
<g id="graph0" class="graph" transform="scale(1 1) rotate(0) translate(4 130)">
<title>jsonrpc::FramedStdioServerTransport::Listen</title>
<!-- Node1 -->
<g id="Node000001" class="node">
<title>Node1</title>
<g id="a_Node000001"><a xlink:title="Listens for incoming messages and dispatches them to the appropriate handlers.">
<polygon fill="#999999" stroke="#666666" points="151,-78 0,-78 0,-48 151,-48 151,-78"/>
<text text-anchor="start" x="8" y="-66" font-family="Helvetica,sans-Serif" font-size="10.00">jsonrpc::FramedStdioServer</text>
<text text-anchor="middle" x="75.5" y="-55" font-family="Helvetica,sans-Serif" font-size="10.00">Transport::Listen</text>
</a>
</g>
</g>
<!-- Node2 -->
<g id="Node000002" class="node">
<title>Node2</title>
<g id="a_Node000002"><a xlink:href="classjsonrpc_1_1FramedTransport.html#ae35e5417397b9ee229232ae437879d66" target="_top" xlink:title="Receives a framed message.">
<polygon fill="white" stroke="#666666" points="327,-126 187,-126 187,-96 327,-96 327,-126"/>
<text text-anchor="start" x="195" y="-114" font-family="Helvetica,sans-Serif" font-size="10.00">jsonrpc::FramedTransport</text>
<text text-anchor="middle" x="257" y="-103" font-family="Helvetica,sans-Serif" font-size="10.00">::DeframeMessage</text>
</a>
</g>
</g>
<!-- Node1&#45;&gt;Node2 -->
<g id="edge1_Node000001_Node000002" class="edge">
<title>Node1&#45;&gt;Node2</title>
<g id="a_edge1_Node000001_Node000002"><a xlink:title=" ">
<path fill="none" stroke="#63b8ff" d="M132.8,-78.06C151.01,-82.93 171.37,-88.37 190.21,-93.41"/>
<polygon fill="#63b8ff" stroke="#63b8ff" points="189.33,-96.8 199.9,-96 191.14,-90.03 189.33,-96.8"/>
</a>
</g>
</g>
<!-- Node3 -->
<g id="Node000003" class="node">
<title>Node3</title>
<g id="a_Node000003"><a xlink:href="classjsonrpc_1_1FramedTransport.html#aa129b76aec1aa02f70dc3e0f52958771" target="_top" xlink:title="Constructs a framed message.">
<polygon fill="white" stroke="#666666" points="327,-78 187,-78 187,-48 327,-48 327,-78"/>
<text text-anchor="start" x="195" y="-66" font-family="Helvetica,sans-Serif" font-size="10.00">jsonrpc::FramedTransport</text>
<text text-anchor="middle" x="257" y="-55" font-family="Helvetica,sans-Serif" font-size="10.00">::FrameMessage</text>
</a>
</g>
</g>
<!-- Node1&#45;&gt;Node3 -->
<g id="edge2_Node000001_Node000003" class="edge">
<title>Node1&#45;&gt;Node3</title>
<g id="a_edge2_Node000001_Node000003"><a xlink:title=" ">
<path fill="none" stroke="#63b8ff" d="M151.06,-63C159.49,-63 168.09,-63 176.58,-63"/>
<polygon fill="#63b8ff" stroke="#63b8ff" points="176.84,-66.5 186.84,-63 176.84,-59.5 176.84,-66.5"/>
</a>
</g>
</g>
<!-- Node4 -->
<g id="Node000004" class="node">
<title>Node4</title>
<g id="a_Node000004"><a xlink:href="classjsonrpc_1_1ServerTransport.html#a2e544f968400464c8b1c3f5dbf154bd8" target="_top" xlink:title="Checks if the transport is running.">
<polygon fill="white" stroke="#666666" points="324,-30 190,-30 190,0 324,0 324,-30"/>
<text text-anchor="start" x="198" y="-18" font-family="Helvetica,sans-Serif" font-size="10.00">jsonrpc::ServerTransport</text>
<text text-anchor="middle" x="257" y="-7" font-family="Helvetica,sans-Serif" font-size="10.00">::IsRunning</text>
</a>
</g>
</g>
<!-- Node1&#45;&gt;Node4 -->
<g id="edge3_Node000001_Node000004" class="edge">
<title>Node1&#45;&gt;Node4</title>
<g id="a_edge3_Node000001_Node000004"><a xlink:title=" ">
<path fill="none" stroke="#63b8ff" d="M132.8,-47.94C151.01,-43.07 171.37,-37.63 190.21,-32.59"/>
<polygon fill="#63b8ff" stroke="#63b8ff" points="191.14,-35.97 199.9,-30 189.33,-29.2 191.14,-35.97"/>
</a>
</g>
</g>
</g>
</svg>
