<?xml version="1.0" encoding="UTF-8" standalone="no"?>
<!DOCTYPE svg PUBLIC "-//W3C//DTD SVG 1.1//EN"
 "http://www.w3.org/Graphics/SVG/1.1/DTD/svg11.dtd">
<!-- Generated by graphviz version 2.43.0 (0)
 -->
<!-- Title: jsonrpc::transport::Transport Pages: 1 -->
<svg width="526pt" height="515pt"
 viewBox="0.00 0.00 525.50 515.00" xmlns="http://www.w3.org/2000/svg" xmlns:xlink="http://www.w3.org/1999/xlink">
<g id="graph0" class="graph" transform="scale(1 1) rotate(0) translate(4 511)">
<title>jsonrpc::transport::Transport</title>
<!-- Node1 -->
<g id="Node000001" class="node">
<title>Node1</title>
<g id="a_Node000001"><a xlink:title="Base class for JSON&#45;RPC transport.">
<polygon fill="#999999" stroke="transparent" points="319.5,-507 207.5,-507 207.5,-342 319.5,-342 319.5,-507"/>
<text text-anchor="start" x="220.5" y="-494.5" font-family="Helvetica,sans-Serif" font-size="10.00">jsonrpc::transport</text>
<text text-anchor="start" x="237.5" y="-483.5" font-family="Helvetica,sans-Serif" font-size="10.00">::Transport</text>
<text text-anchor="start" x="261.5" y="-468.5" font-family="Helvetica,sans-Serif" font-size="10.00"> </text>
<text text-anchor="start" x="211.5" y="-453.5" font-family="Helvetica,sans-Serif" font-size="10.00">+</text>
<text text-anchor="start" x="224.5" y="-453.5" font-family="Helvetica,sans-Serif" font-size="10.00">Transport()</text>
<text text-anchor="start" x="211.5" y="-438.5" font-family="Helvetica,sans-Serif" font-size="10.00">+</text>
<text text-anchor="start" x="224.5" y="-438.5" font-family="Helvetica,sans-Serif" font-size="10.00">~Transport()</text>
<text text-anchor="start" x="211.5" y="-423.5" font-family="Helvetica,sans-Serif" font-size="10.00">+</text>
<text text-anchor="start" x="224.5" y="-423.5" font-family="Helvetica,sans-Serif" font-size="10.00">Transport()</text>
<text text-anchor="start" x="211.5" y="-408.5" font-family="Helvetica,sans-Serif" font-size="10.00">+</text>
<text text-anchor="start" x="224.5" y="-408.5" font-family="Helvetica,sans-Serif" font-size="10.00">operator=()</text>
<text text-anchor="start" x="211.5" y="-393.5" font-family="Helvetica,sans-Serif" font-size="10.00">+</text>
<text text-anchor="start" x="224.5" y="-393.5" font-family="Helvetica,sans-Serif" font-size="10.00">Transport()</text>
<text text-anchor="start" x="211.5" y="-378.5" font-family="Helvetica,sans-Serif" font-size="10.00">+</text>
<text text-anchor="start" x="224.5" y="-378.5" font-family="Helvetica,sans-Serif" font-size="10.00">operator=()</text>
<text text-anchor="start" x="211.5" y="-363.5" font-family="Helvetica,sans-Serif" font-size="10.00">+</text>
<text text-anchor="start" x="224.5" y="-363.5" font-family="Helvetica,sans-Serif" font-size="10.00">SendMessage()</text>
<text text-anchor="start" x="211.5" y="-348.5" font-family="Helvetica,sans-Serif" font-size="10.00">+</text>
<text text-anchor="start" x="224.5" y="-348.5" font-family="Helvetica,sans-Serif" font-size="10.00">ReceiveMessage()</text>
<polygon fill="#666666" stroke="#666666" points="207.5,-478.5 207.5,-478.5 319.5,-478.5 319.5,-478.5 207.5,-478.5"/>
<polygon fill="#666666" stroke="#666666" points="207.5,-463.5 207.5,-463.5 319.5,-463.5 319.5,-463.5 207.5,-463.5"/>
<polygon fill="none" stroke="#666666" points="207.5,-342 207.5,-507 319.5,-507 319.5,-342 207.5,-342"/>
</a>
</g>
</g>
<!-- Node2 -->
<g id="Node000002" class="node">
<title>Node2</title>
<g id="a_Node000002"><a xlink:href="classjsonrpc_1_1transport_1_1FramedStdioTransport.html" target="_top" xlink:title="Transport layer using framed messaging over standard I/O for JSON&#45;RPC communication.">
<polygon fill="white" stroke="transparent" points="123,-253.5 0,-253.5 0,-178.5 123,-178.5 123,-253.5"/>
<text text-anchor="start" x="5.5" y="-241" font-family="Helvetica,sans-Serif" font-size="10.00">jsonrpc::transport</text>
<text text-anchor="start" x="5.5" y="-230" font-family="Helvetica,sans-Serif" font-size="10.00">::FramedStdioTransport</text>
<text text-anchor="start" x="60" y="-215" font-family="Helvetica,sans-Serif" font-size="10.00"> </text>
<text text-anchor="start" x="7" y="-200" font-family="Helvetica,sans-Serif" font-size="10.00">+</text>
<text text-anchor="start" x="22.5" y="-200" font-family="Helvetica,sans-Serif" font-size="10.00">SendMessage()</text>
<text text-anchor="start" x="7" y="-185" font-family="Helvetica,sans-Serif" font-size="10.00">+</text>
<text text-anchor="start" x="22.5" y="-185" font-family="Helvetica,sans-Serif" font-size="10.00">ReceiveMessage()</text>
<polygon fill="#666666" stroke="#666666" points="0.5,-225 0.5,-225 123.5,-225 123.5,-225 0.5,-225"/>
<polygon fill="#666666" stroke="#666666" points="0.5,-210 0.5,-210 123.5,-210 123.5,-210 0.5,-210"/>
<polygon fill="none" stroke="#666666" points="0,-178.5 0,-253.5 123,-253.5 123,-178.5 0,-178.5"/>
</a>
</g>
</g>
<!-- Node1&#45;&gt;Node2 -->
<g id="edge1_Node000001_Node000002" class="edge">
<title>Node1&#45;&gt;Node2</title>
<g id="a_edge1_Node000001_Node000002"><a xlink:title=" ">
<path fill="none" stroke="#63b8ff" d="M199.74,-370.12C177.7,-350.68 153.32,-328.06 132.5,-306 117.03,-289.61 101.26,-270.17 88.52,-253.65"/>
<polygon fill="none" stroke="#63b8ff" points="197.6,-372.9 207.43,-376.85 202.21,-367.63 197.6,-372.9"/>
</a>
</g>
</g>
<!-- Node3 -->
<g id="Node000003" class="node">
<title>Node3</title>
<g id="a_Node000003"><a xlink:href="classjsonrpc_1_1transport_1_1PipeTransport.html" target="_top" xlink:title="Transport implementation using Unix domain sockets.">
<polygon fill="white" stroke="transparent" points="253.5,-306 141.5,-306 141.5,-126 253.5,-126 253.5,-306"/>
<text text-anchor="start" x="154.5" y="-294" font-family="Helvetica,sans-Serif" font-size="10.00">jsonrpc::transport</text>
<text text-anchor="start" x="161" y="-283" font-family="Helvetica,sans-Serif" font-size="10.00">::PipeTransport</text>
<text text-anchor="start" x="195.5" y="-268" font-family="Helvetica,sans-Serif" font-size="10.00"> </text>
<text text-anchor="start" x="145.5" y="-253" font-family="Helvetica,sans-Serif" font-size="10.00">+</text>
<text text-anchor="start" x="158.5" y="-253" font-family="Helvetica,sans-Serif" font-size="10.00">PipeTransport()</text>
<text text-anchor="start" x="145.5" y="-238" font-family="Helvetica,sans-Serif" font-size="10.00">+</text>
<text text-anchor="start" x="158.5" y="-238" font-family="Helvetica,sans-Serif" font-size="10.00">~PipeTransport()</text>
<text text-anchor="start" x="145.5" y="-223" font-family="Helvetica,sans-Serif" font-size="10.00">+</text>
<text text-anchor="start" x="158.5" y="-223" font-family="Helvetica,sans-Serif" font-size="10.00">PipeTransport()</text>
<text text-anchor="start" x="145.5" y="-208" font-family="Helvetica,sans-Serif" font-size="10.00">+</text>
<text text-anchor="start" x="158.5" y="-208" font-family="Helvetica,sans-Serif" font-size="10.00">operator=()</text>
<text text-anchor="start" x="145.5" y="-193" font-family="Helvetica,sans-Serif" font-size="10.00">+</text>
<text text-anchor="start" x="158.5" y="-193" font-family="Helvetica,sans-Serif" font-size="10.00">PipeTransport()</text>
<text text-anchor="start" x="145.5" y="-178" font-family="Helvetica,sans-Serif" font-size="10.00">+</text>
<text text-anchor="start" x="158.5" y="-178" font-family="Helvetica,sans-Serif" font-size="10.00">operator=()</text>
<text text-anchor="start" x="145.5" y="-163" font-family="Helvetica,sans-Serif" font-size="10.00">+</text>
<text text-anchor="start" x="158.5" y="-163" font-family="Helvetica,sans-Serif" font-size="10.00">SendMessage()</text>
<text text-anchor="start" x="145.5" y="-148" font-family="Helvetica,sans-Serif" font-size="10.00">+</text>
<text text-anchor="start" x="158.5" y="-148" font-family="Helvetica,sans-Serif" font-size="10.00">ReceiveMessage()</text>
<text text-anchor="start" x="145.5" y="-133" font-family="Helvetica,sans-Serif" font-size="10.00">#</text>
<text text-anchor="start" x="158.5" y="-133" font-family="Helvetica,sans-Serif" font-size="10.00">GetSocket()</text>
<polygon fill="#666666" stroke="#666666" points="141.5,-278 141.5,-278 253.5,-278 253.5,-278 141.5,-278"/>
<polygon fill="#666666" stroke="#666666" points="141.5,-263 141.5,-263 253.5,-263 253.5,-263 141.5,-263"/>
<polygon fill="none" stroke="#666666" points="141.5,-126 141.5,-306 253.5,-306 253.5,-126 141.5,-126"/>
</a>
</g>
</g>
<!-- Node1&#45;&gt;Node3 -->
<g id="edge2_Node000001_Node000003" class="edge">
<title>Node1&#45;&gt;Node3</title>
<g id="a_edge2_Node000001_Node000003"><a xlink:title=" ">
<path fill="none" stroke="#63b8ff" d="M234.32,-332.19C231.56,-323.56 228.76,-314.8 226,-306.19"/>
<polygon fill="none" stroke="#63b8ff" points="231.04,-333.43 237.42,-341.89 237.7,-331.29 231.04,-333.43"/>
</a>
</g>
</g>
<!-- Node5 -->
<g id="Node000005" class="node">
<title>Node5</title>
<g id="a_Node000005"><a xlink:href="classjsonrpc_1_1transport_1_1SocketTransport.html" target="_top" xlink:title="Transport implementation using TCP/IP sockets.">
<polygon fill="white" stroke="transparent" points="387,-306 272,-306 272,-126 387,-126 387,-306"/>
<text text-anchor="start" x="287" y="-294" font-family="Helvetica,sans-Serif" font-size="10.00">jsonrpc::transport</text>
<text text-anchor="start" x="288" y="-283" font-family="Helvetica,sans-Serif" font-size="10.00">::SocketTransport</text>
<text text-anchor="start" x="328" y="-268" font-family="Helvetica,sans-Serif" font-size="10.00"> </text>
<text text-anchor="start" x="276.5" y="-253" font-family="Helvetica,sans-Serif" font-size="10.00">+</text>
<text text-anchor="start" x="289.5" y="-253" font-family="Helvetica,sans-Serif" font-size="10.00">SocketTransport()</text>
<text text-anchor="start" x="276.5" y="-238" font-family="Helvetica,sans-Serif" font-size="10.00">+</text>
<text text-anchor="start" x="289.5" y="-238" font-family="Helvetica,sans-Serif" font-size="10.00">~SocketTransport()</text>
<text text-anchor="start" x="276.5" y="-223" font-family="Helvetica,sans-Serif" font-size="10.00">+</text>
<text text-anchor="start" x="289.5" y="-223" font-family="Helvetica,sans-Serif" font-size="10.00">SocketTransport()</text>
<text text-anchor="start" x="276.5" y="-208" font-family="Helvetica,sans-Serif" font-size="10.00">+</text>
<text text-anchor="start" x="289.5" y="-208" font-family="Helvetica,sans-Serif" font-size="10.00">operator=()</text>
<text text-anchor="start" x="276.5" y="-193" font-family="Helvetica,sans-Serif" font-size="10.00">+</text>
<text text-anchor="start" x="289.5" y="-193" font-family="Helvetica,sans-Serif" font-size="10.00">SocketTransport()</text>
<text text-anchor="start" x="276.5" y="-178" font-family="Helvetica,sans-Serif" font-size="10.00">+</text>
<text text-anchor="start" x="289.5" y="-178" font-family="Helvetica,sans-Serif" font-size="10.00">operator=()</text>
<text text-anchor="start" x="276.5" y="-163" font-family="Helvetica,sans-Serif" font-size="10.00">+</text>
<text text-anchor="start" x="289.5" y="-163" font-family="Helvetica,sans-Serif" font-size="10.00">SendMessage()</text>
<text text-anchor="start" x="276.5" y="-148" font-family="Helvetica,sans-Serif" font-size="10.00">+</text>
<text text-anchor="start" x="289.5" y="-148" font-family="Helvetica,sans-Serif" font-size="10.00">ReceiveMessage()</text>
<text text-anchor="start" x="276.5" y="-133" font-family="Helvetica,sans-Serif" font-size="10.00">#</text>
<text text-anchor="start" x="289.5" y="-133" font-family="Helvetica,sans-Serif" font-size="10.00">GetSocket()</text>
<polygon fill="#666666" stroke="#666666" points="272.5,-278 272.5,-278 387.5,-278 387.5,-278 272.5,-278"/>
<polygon fill="#666666" stroke="#666666" points="272.5,-263 272.5,-263 387.5,-263 387.5,-263 272.5,-263"/>
<polygon fill="none" stroke="#666666" points="272,-126 272,-306 387,-306 387,-126 272,-126"/>
</a>
</g>
</g>
<!-- Node1&#45;&gt;Node5 -->
<g id="edge4_Node000001_Node000005" class="edge">
<title>Node1&#45;&gt;Node5</title>
<g id="a_edge4_Node000001_Node000005"><a xlink:title=" ">
<path fill="none" stroke="#63b8ff" d="M292.68,-332.19C295.44,-323.56 298.24,-314.8 301,-306.19"/>
<polygon fill="none" stroke="#63b8ff" points="289.3,-331.29 289.58,-341.89 295.96,-333.43 289.3,-331.29"/>
</a>
</g>
</g>
<!-- Node7 -->
<g id="Node000007" class="node">
<title>Node7</title>
<g id="a_Node000007"><a xlink:href="classjsonrpc_1_1transport_1_1StdioTransport.html" target="_top" xlink:title="Transport layer using standard I/O for JSON&#45;RPC communication.">
<polygon fill="white" stroke="transparent" points="517.5,-253.5 405.5,-253.5 405.5,-178.5 517.5,-178.5 517.5,-253.5"/>
<text text-anchor="start" x="418.5" y="-241" font-family="Helvetica,sans-Serif" font-size="10.00">jsonrpc::transport</text>
<text text-anchor="start" x="423.5" y="-230" font-family="Helvetica,sans-Serif" font-size="10.00">::StdioTransport</text>
<text text-anchor="start" x="459.5" y="-215" font-family="Helvetica,sans-Serif" font-size="10.00"> </text>
<text text-anchor="start" x="409.5" y="-200" font-family="Helvetica,sans-Serif" font-size="10.00">+</text>
<text text-anchor="start" x="422.5" y="-200" font-family="Helvetica,sans-Serif" font-size="10.00">SendMessage()</text>
<text text-anchor="start" x="409.5" y="-185" font-family="Helvetica,sans-Serif" font-size="10.00">+</text>
<text text-anchor="start" x="422.5" y="-185" font-family="Helvetica,sans-Serif" font-size="10.00">ReceiveMessage()</text>
<polygon fill="#666666" stroke="#666666" points="405.5,-225 405.5,-225 517.5,-225 517.5,-225 405.5,-225"/>
<polygon fill="#666666" stroke="#666666" points="405.5,-210 405.5,-210 517.5,-210 517.5,-210 405.5,-210"/>
<polygon fill="none" stroke="#666666" points="405.5,-178.5 405.5,-253.5 517.5,-253.5 517.5,-178.5 405.5,-178.5"/>
</a>
</g>
</g>
<!-- Node1&#45;&gt;Node7 -->
<g id="edge6_Node000001_Node000007" class="edge">
<title>Node1&#45;&gt;Node7</title>
<g id="a_edge6_Node000001_Node000007"><a xlink:title=" ">
<path fill="none" stroke="#63b8ff" d="M327.32,-372.04C350.16,-352.38 375.43,-329.12 396.5,-306 411.19,-289.88 425.69,-270.47 437.25,-253.89"/>
<polygon fill="none" stroke="#63b8ff" points="325.02,-369.4 319.68,-378.56 329.56,-374.73 325.02,-369.4"/>
</a>
</g>
</g>
<!-- Node4 -->
<g id="Node000004" class="node">
<title>Node4</title>
<g id="a_Node000004"><a xlink:href="classjsonrpc_1_1transport_1_1FramedPipeTransport.html" target="_top" xlink:title="Transport layer using Asio Unix domain sockets for JSON&#45;RPC communication with framing.">
<polygon fill="white" stroke="transparent" points="251.5,-90 119.5,-90 119.5,0 251.5,0 251.5,-90"/>
<text text-anchor="start" x="131" y="-78" font-family="Helvetica,sans-Serif" font-size="10.00">jsonrpc::transport</text>
<text text-anchor="start" x="131" y="-67" font-family="Helvetica,sans-Serif" font-size="10.00">::FramedPipeTransport</text>
<text text-anchor="start" x="183.5" y="-52" font-family="Helvetica,sans-Serif" font-size="10.00"> </text>
<text text-anchor="start" x="123.5" y="-37" font-family="Helvetica,sans-Serif" font-size="10.00">+</text>
<text text-anchor="start" x="136.5" y="-37" font-family="Helvetica,sans-Serif" font-size="10.00">FramedPipeTransport()</text>
<text text-anchor="start" x="123.5" y="-22" font-family="Helvetica,sans-Serif" font-size="10.00">+</text>
<text text-anchor="start" x="136.5" y="-22" font-family="Helvetica,sans-Serif" font-size="10.00">SendMessage()</text>
<text text-anchor="start" x="123.5" y="-7" font-family="Helvetica,sans-Serif" font-size="10.00">+</text>
<text text-anchor="start" x="136.5" y="-7" font-family="Helvetica,sans-Serif" font-size="10.00">ReceiveMessage()</text>
<polygon fill="#666666" stroke="#666666" points="119.5,-62 119.5,-62 251.5,-62 251.5,-62 119.5,-62"/>
<polygon fill="#666666" stroke="#666666" points="119.5,-47 119.5,-47 251.5,-47 251.5,-47 119.5,-47"/>
<polygon fill="none" stroke="#666666" points="119.5,0 119.5,-90 251.5,-90 251.5,0 119.5,0"/>
</a>
</g>
</g>
<!-- Node3&#45;&gt;Node4 -->
<g id="edge3_Node000003_Node000004" class="edge">
<title>Node3&#45;&gt;Node4</title>
<g id="a_edge3_Node000003_Node000004"><a xlink:title=" ">
<path fill="none" stroke="#63b8ff" d="M190.42,-115.32C189.81,-106.67 189.21,-98.24 188.65,-90.41"/>
<polygon fill="none" stroke="#63b8ff" points="186.95,-115.82 191.15,-125.55 193.93,-115.33 186.95,-115.82"/>
</a>
</g>
</g>
<!-- Node6 -->
<g id="Node000006" class="node">
<title>Node6</title>
<g id="a_Node000006"><a xlink:href="classjsonrpc_1_1transport_1_1FramedSocketTransport.html" target="_top" xlink:title="Transport layer using Asio sockets for JSON&#45;RPC communication with framing.">
<polygon fill="white" stroke="transparent" points="413,-90 270,-90 270,0 413,0 413,-90"/>
<text text-anchor="start" x="281.5" y="-78" font-family="Helvetica,sans-Serif" font-size="10.00">jsonrpc::transport</text>
<text text-anchor="start" x="281.5" y="-67" font-family="Helvetica,sans-Serif" font-size="10.00">::FramedSocketTransport</text>
<text text-anchor="start" x="340" y="-52" font-family="Helvetica,sans-Serif" font-size="10.00"> </text>
<text text-anchor="start" x="274.5" y="-37" font-family="Helvetica,sans-Serif" font-size="10.00">+</text>
<text text-anchor="start" x="287.5" y="-37" font-family="Helvetica,sans-Serif" font-size="10.00">FramedSocketTransport()</text>
<text text-anchor="start" x="274.5" y="-22" font-family="Helvetica,sans-Serif" font-size="10.00">+</text>
<text text-anchor="start" x="287.5" y="-22" font-family="Helvetica,sans-Serif" font-size="10.00">SendMessage()</text>
<text text-anchor="start" x="274.5" y="-7" font-family="Helvetica,sans-Serif" font-size="10.00">+</text>
<text text-anchor="start" x="287.5" y="-7" font-family="Helvetica,sans-Serif" font-size="10.00">ReceiveMessage()</text>
<polygon fill="#666666" stroke="#666666" points="270.5,-62 270.5,-62 413.5,-62 413.5,-62 270.5,-62"/>
<polygon fill="#666666" stroke="#666666" points="270.5,-47 270.5,-47 413.5,-47 413.5,-47 270.5,-47"/>
<polygon fill="none" stroke="#666666" points="270,0 270,-90 413,-90 413,0 270,0"/>
</a>
</g>
</g>
<!-- Node5&#45;&gt;Node6 -->
<g id="edge5_Node000005_Node000006" class="edge">
<title>Node5&#45;&gt;Node6</title>
<g id="a_edge5_Node000005_Node000006"><a xlink:title=" ">
<path fill="none" stroke="#63b8ff" d="M336.58,-115.32C337.19,-106.67 337.79,-98.24 338.35,-90.41"/>
<polygon fill="none" stroke="#63b8ff" points="333.07,-115.33 335.85,-125.55 340.05,-115.82 333.07,-115.33"/>
</a>
</g>
</g>
</g>
</svg>
