<?xml version="1.0" encoding="UTF-8" standalone="no"?>
<!DOCTYPE svg PUBLIC "-//W3C//DTD SVG 1.1//EN"
 "http://www.w3.org/Graphics/SVG/1.1/DTD/svg11.dtd">
<!-- Generated by graphviz version 2.43.0 (0)
 -->
<!-- Title: jsonrpc::transport::FramedTransport::ReadContentLengthFromStream Pages: 1 -->
<svg width="534pt" height="49pt"
 viewBox="0.00 0.00 534.00 49.00" xmlns="http://www.w3.org/2000/svg" xmlns:xlink="http://www.w3.org/1999/xlink">
<g id="graph0" class="graph" transform="scale(1 1) rotate(0) translate(4 45)">
<title>jsonrpc::transport::FramedTransport::ReadContentLengthFromStream</title>
<!-- Node1 -->
<g id="Node000001" class="node">
<title>Node1</title>
<g id="a_Node000001"><a xlink:title=" ">
<polygon fill="#999999" stroke="#666666" points="173,-41 0,-41 0,0 173,0 173,-41"/>
<text text-anchor="start" x="8" y="-29" font-family="Helvetica,sans-Serif" font-size="10.00">jsonrpc::transport</text>
<text text-anchor="start" x="8" y="-18" font-family="Helvetica,sans-Serif" font-size="10.00">::FramedTransport::ReadContent</text>
<text text-anchor="middle" x="86.5" y="-7" font-family="Helvetica,sans-Serif" font-size="10.00">LengthFromStream</text>
</a>
</g>
</g>
<!-- Node2 -->
<g id="Node000002" class="node">
<title>Node2</title>
<g id="a_Node000002"><a xlink:href="classjsonrpc_1_1transport_1_1FramedTransport.html#adcfc8964bb8112eea2daaff3ac23d9cc" target="_top" xlink:title=" ">
<polygon fill="white" stroke="#666666" points="385,-41 209,-41 209,0 385,0 385,-41"/>
<text text-anchor="start" x="217" y="-29" font-family="Helvetica,sans-Serif" font-size="10.00">jsonrpc::transport</text>
<text text-anchor="start" x="217" y="-18" font-family="Helvetica,sans-Serif" font-size="10.00">::FramedTransport::ReadHeaders</text>
<text text-anchor="middle" x="297" y="-7" font-family="Helvetica,sans-Serif" font-size="10.00">FromStream</text>
</a>
</g>
</g>
<!-- Node1&#45;&gt;Node2 -->
<g id="edge1_Node000001_Node000002" class="edge">
<title>Node1&#45;&gt;Node2</title>
<g id="a_edge1_Node000001_Node000002"><a xlink:title=" ">
<path fill="none" stroke="#63b8ff" d="M173.21,-20.5C181.68,-20.5 190.33,-20.5 198.91,-20.5"/>
<polygon fill="#63b8ff" stroke="#63b8ff" points="198.94,-24 208.94,-20.5 198.94,-17 198.94,-24"/>
</a>
</g>
</g>
<!-- Node3 -->
<g id="Node000003" class="node">
<title>Node3</title>
<g id="a_Node000003"><a xlink:href="namespacejsonrpc_1_1utils.html#a0f4ab48ccb12fe3cb75a70867a56214a" target="_top" xlink:title=" ">
<polygon fill="white" stroke="#666666" points="526,-30 421,-30 421,-11 526,-11 526,-30"/>
<text text-anchor="middle" x="473.5" y="-18" font-family="Helvetica,sans-Serif" font-size="10.00">jsonrpc::utils::trim</text>
</a>
</g>
</g>
<!-- Node2&#45;&gt;Node3 -->
<g id="edge2_Node000002_Node000003" class="edge">
<title>Node2&#45;&gt;Node3</title>
<g id="a_edge2_Node000002_Node000003"><a xlink:title=" ">
<path fill="none" stroke="#63b8ff" d="M385.25,-20.5C393.76,-20.5 402.26,-20.5 410.45,-20.5"/>
<polygon fill="#63b8ff" stroke="#63b8ff" points="410.62,-24 420.62,-20.5 410.62,-17 410.62,-24"/>
</a>
</g>
</g>
</g>
</svg>
