<?xml version="1.0" encoding="UTF-8" standalone="no"?>
<!DOCTYPE svg PUBLIC "-//W3C//DTD SVG 1.1//EN"
 "http://www.w3.org/Graphics/SVG/1.1/DTD/svg11.dtd">
<!-- Generated by graphviz version 2.43.0 (0)
 -->
<!-- Title: json_rpc::StdioClientTransport Pages: 1 -->
<svg width="163pt" height="187pt"
 viewBox="0.00 0.00 163.00 187.00" xmlns="http://www.w3.org/2000/svg" xmlns:xlink="http://www.w3.org/1999/xlink">
<g id="graph0" class="graph" transform="scale(1 1) rotate(0) translate(4 183)">
<title>json_rpc::StdioClientTransport</title>
<!-- Node1 -->
<g id="Node000001" class="node">
<title>Node1</title>
<g id="a_Node000001"><a xlink:title="Client transport using stdio for communication.">
<polygon fill="#999999" stroke="transparent" points="155,-64 0,-64 0,0 155,0 155,-64"/>
<text text-anchor="start" x="5.5" y="-52" font-family="Helvetica,sans-Serif" font-size="10.00">json_rpc::StdioClientTransport</text>
<text text-anchor="start" x="76" y="-37" font-family="Helvetica,sans-Serif" font-size="10.00"> </text>
<text text-anchor="start" x="16" y="-22" font-family="Helvetica,sans-Serif" font-size="10.00">+</text>
<text text-anchor="start" x="40.5" y="-22" font-family="Helvetica,sans-Serif" font-size="10.00">SendMethodCall()</text>
<text text-anchor="start" x="16" y="-7" font-family="Helvetica,sans-Serif" font-size="10.00">+</text>
<text text-anchor="start" x="40.5" y="-7" font-family="Helvetica,sans-Serif" font-size="10.00">SendNotification()</text>
<polygon fill="#666666" stroke="#666666" points="0.5,-47 0.5,-47 155.5,-47 155.5,-47 0.5,-47"/>
<polygon fill="#666666" stroke="#666666" points="0.5,-32 0.5,-32 155.5,-32 155.5,-32 0.5,-32"/>
<polygon fill="none" stroke="#666666" points="0,0 0,-64 155,-64 155,0 0,0"/>
</a>
</g>
</g>
<!-- Node2 -->
<g id="Node000002" class="node">
<title>Node2</title>
<g id="a_Node000002"><a xlink:href="classjson__rpc_1_1ClientTransport.html" target="_top" xlink:title="An abstract class representing the transport mechanism for JSON&#45;RPC client.">
<polygon fill="white" stroke="transparent" points="143,-179 12,-179 12,-100 143,-100 143,-179"/>
<text text-anchor="start" x="17.5" y="-166.5" font-family="Helvetica,sans-Serif" font-size="10.00">json_rpc::ClientTransport</text>
<text text-anchor="start" x="76" y="-151.5" font-family="Helvetica,sans-Serif" font-size="10.00"> </text>
<text text-anchor="start" x="21.5" y="-136.5" font-family="Helvetica,sans-Serif" font-size="10.00">+</text>
<text text-anchor="start" x="39.5" y="-136.5" font-family="Helvetica,sans-Serif" font-size="10.00">~ClientTransport()</text>
<text text-anchor="start" x="21.5" y="-121.5" font-family="Helvetica,sans-Serif" font-size="10.00">+</text>
<text text-anchor="start" x="39.5" y="-121.5" font-family="Helvetica,sans-Serif" font-size="10.00">SendMethodCall()</text>
<text text-anchor="start" x="21.5" y="-106.5" font-family="Helvetica,sans-Serif" font-size="10.00">+</text>
<text text-anchor="start" x="39.5" y="-106.5" font-family="Helvetica,sans-Serif" font-size="10.00">SendNotification()</text>
<polygon fill="#666666" stroke="#666666" points="12.5,-161.5 12.5,-161.5 143.5,-161.5 143.5,-161.5 12.5,-161.5"/>
<polygon fill="#666666" stroke="#666666" points="12.5,-146.5 12.5,-146.5 143.5,-146.5 143.5,-146.5 12.5,-146.5"/>
<polygon fill="none" stroke="#666666" points="12,-100 12,-179 143,-179 143,-100 12,-100"/>
</a>
</g>
</g>
<!-- Node2&#45;&gt;Node1 -->
<g id="edge1_Node000001_Node000002" class="edge">
<title>Node2&#45;&gt;Node1</title>
<g id="a_edge1_Node000001_Node000002"><a xlink:title=" ">
<path fill="none" stroke="#63b8ff" d="M77.5,-89.71C77.5,-81 77.5,-72.14 77.5,-64.09"/>
<polygon fill="none" stroke="#63b8ff" points="74,-89.81 77.5,-99.81 81,-89.81 74,-89.81"/>
</a>
</g>
</g>
</g>
</svg>
