<?xml version="1.0" encoding="UTF-8" standalone="no"?>
<!DOCTYPE svg PUBLIC "-//W3C//DTD SVG 1.1//EN"
 "http://www.w3.org/Graphics/SVG/1.1/DTD/svg11.dtd">
<!-- Generated by graphviz version 2.43.0 (0)
 -->
<!-- Title: jsonrpc::transport::PipeTransport::GetSocket Pages: 1 -->
<svg width="313pt" height="108pt"
 viewBox="0.00 0.00 313.00 108.00" xmlns="http://www.w3.org/2000/svg" xmlns:xlink="http://www.w3.org/1999/xlink">
<g id="graph0" class="graph" transform="scale(1 1) rotate(0) translate(4 104)">
<title>jsonrpc::transport::PipeTransport::GetSocket</title>
<!-- Node1 -->
<g id="Node000001" class="node">
<title>Node1</title>
<g id="a_Node000001"><a xlink:title=" ">
<polygon fill="#999999" stroke="#666666" points="305,-64.5 161,-64.5 161,-34.5 305,-34.5 305,-64.5"/>
<text text-anchor="start" x="169" y="-52.5" font-family="Helvetica,sans-Serif" font-size="10.00">jsonrpc::transport</text>
<text text-anchor="middle" x="233" y="-41.5" font-family="Helvetica,sans-Serif" font-size="10.00">::PipeTransport::GetSocket</text>
</a>
</g>
</g>
<!-- Node2 -->
<g id="Node000002" class="node">
<title>Node2</title>
<g id="a_Node000002"><a xlink:href="classjsonrpc_1_1transport_1_1FramedPipeTransport.html#aa90a2b497357b34bfdac1f0f66302161" target="_top" xlink:title="Receives a message from the transport layer.">
<polygon fill="white" stroke="#666666" points="125,-100 0,-100 0,-59 125,-59 125,-100"/>
<text text-anchor="start" x="8" y="-88" font-family="Helvetica,sans-Serif" font-size="10.00">jsonrpc::transport</text>
<text text-anchor="start" x="8" y="-77" font-family="Helvetica,sans-Serif" font-size="10.00">::FramedPipeTransport</text>
<text text-anchor="middle" x="62.5" y="-66" font-family="Helvetica,sans-Serif" font-size="10.00">::ReceiveMessage</text>
</a>
</g>
</g>
<!-- Node1&#45;&gt;Node2 -->
<g id="edge1_Node000001_Node000002" class="edge">
<title>Node1&#45;&gt;Node2</title>
<g id="a_edge1_Node000001_Node000002"><a xlink:title=" ">
<path fill="none" stroke="#63b8ff" d="M150.57,-64C142.04,-65.52 133.47,-67.04 125.21,-68.51"/>
<polygon fill="#63b8ff" stroke="#63b8ff" points="151.31,-67.42 160.54,-62.22 150.08,-60.53 151.31,-67.42"/>
</a>
</g>
</g>
<!-- Node3 -->
<g id="Node000003" class="node">
<title>Node3</title>
<g id="a_Node000003"><a xlink:href="classjsonrpc_1_1transport_1_1FramedPipeTransport.html#a1f50d7b4d0284cafbf21f948f0e0c978" target="_top" xlink:title="Sends a message in string to the transport layer.">
<polygon fill="white" stroke="#666666" points="125,-41 0,-41 0,0 125,0 125,-41"/>
<text text-anchor="start" x="8" y="-29" font-family="Helvetica,sans-Serif" font-size="10.00">jsonrpc::transport</text>
<text text-anchor="start" x="8" y="-18" font-family="Helvetica,sans-Serif" font-size="10.00">::FramedPipeTransport</text>
<text text-anchor="middle" x="62.5" y="-7" font-family="Helvetica,sans-Serif" font-size="10.00">::SendMessage</text>
</a>
</g>
</g>
<!-- Node1&#45;&gt;Node3 -->
<g id="edge2_Node000001_Node000003" class="edge">
<title>Node1&#45;&gt;Node3</title>
<g id="a_edge2_Node000001_Node000003"><a xlink:title=" ">
<path fill="none" stroke="#63b8ff" d="M150.57,-35.48C142.04,-34.02 133.47,-32.54 125.21,-31.12"/>
<polygon fill="#63b8ff" stroke="#63b8ff" points="150.09,-38.95 160.54,-37.2 151.28,-32.06 150.09,-38.95"/>
</a>
</g>
</g>
</g>
</svg>
