<?xml version="1.0" encoding="UTF-8" standalone="no"?>
<!DOCTYPE svg PUBLIC "-//W3C//DTD SVG 1.1//EN"
 "http://www.w3.org/Graphics/SVG/1.1/DTD/svg11.dtd">
<!-- Generated by graphviz version 2.43.0 (0)
 -->
<!-- Title: jsonrpc::FramedStdioClientTransport Pages: 1 -->
<svg width="286pt" height="198pt"
 viewBox="0.00 0.00 285.50 198.00" xmlns="http://www.w3.org/2000/svg" xmlns:xlink="http://www.w3.org/1999/xlink">
<g id="graph0" class="graph" transform="scale(1 1) rotate(0) translate(4 194)">
<title>jsonrpc::FramedStdioClientTransport</title>
<!-- Node1 -->
<g id="Node000001" class="node">
<title>Node1</title>
<g id="a_Node000001"><a xlink:title="Transport layer using framed messaging over standard I/O for JSON&#45;RPC communication.">
<polygon fill="#999999" stroke="transparent" points="207.5,-75 65.5,-75 65.5,0 207.5,0 207.5,-75"/>
<text text-anchor="start" x="70.5" y="-62.5" font-family="Helvetica,sans-Serif" font-size="10.00">jsonrpc::FramedStdioClient</text>
<text text-anchor="start" x="113.5" y="-51.5" font-family="Helvetica,sans-Serif" font-size="10.00">Transport</text>
<text text-anchor="start" x="134.5" y="-36.5" font-family="Helvetica,sans-Serif" font-size="10.00"> </text>
<text text-anchor="start" x="79.5" y="-21.5" font-family="Helvetica,sans-Serif" font-size="10.00">+</text>
<text text-anchor="start" x="102.5" y="-21.5" font-family="Helvetica,sans-Serif" font-size="10.00">SendRequest()</text>
<text text-anchor="start" x="79.5" y="-6.5" font-family="Helvetica,sans-Serif" font-size="10.00">+</text>
<text text-anchor="start" x="102.5" y="-6.5" font-family="Helvetica,sans-Serif" font-size="10.00">ReadResponse()</text>
<polygon fill="#666666" stroke="#666666" points="65.5,-46.5 65.5,-46.5 207.5,-46.5 207.5,-46.5 65.5,-46.5"/>
<polygon fill="#666666" stroke="#666666" points="65.5,-31.5 65.5,-31.5 207.5,-31.5 207.5,-31.5 65.5,-31.5"/>
<polygon fill="none" stroke="#666666" points="65.5,0 65.5,-75 207.5,-75 207.5,0 65.5,0"/>
</a>
</g>
</g>
<!-- Node2 -->
<g id="Node000002" class="node">
<title>Node2</title>
<g id="a_Node000002"><a xlink:href="classjsonrpc_1_1ClientTransport.html" target="_top" xlink:title="Base class for JSON&#45;RPC client transport.">
<polygon fill="white" stroke="transparent" points="125,-190 0,-190 0,-111 125,-111 125,-190"/>
<text text-anchor="start" x="5.5" y="-177.5" font-family="Helvetica,sans-Serif" font-size="10.00">jsonrpc::ClientTransport</text>
<text text-anchor="start" x="61" y="-162.5" font-family="Helvetica,sans-Serif" font-size="10.00"> </text>
<text text-anchor="start" x="8" y="-147.5" font-family="Helvetica,sans-Serif" font-size="10.00">+</text>
<text text-anchor="start" x="24.5" y="-147.5" font-family="Helvetica,sans-Serif" font-size="10.00">~ClientTransport()</text>
<text text-anchor="start" x="8" y="-132.5" font-family="Helvetica,sans-Serif" font-size="10.00">+</text>
<text text-anchor="start" x="24.5" y="-132.5" font-family="Helvetica,sans-Serif" font-size="10.00">SendRequest()</text>
<text text-anchor="start" x="8" y="-117.5" font-family="Helvetica,sans-Serif" font-size="10.00">+</text>
<text text-anchor="start" x="24.5" y="-117.5" font-family="Helvetica,sans-Serif" font-size="10.00">ReadResponse()</text>
<polygon fill="#666666" stroke="#666666" points="0.5,-172.5 0.5,-172.5 125.5,-172.5 125.5,-172.5 0.5,-172.5"/>
<polygon fill="#666666" stroke="#666666" points="0.5,-157.5 0.5,-157.5 125.5,-157.5 125.5,-157.5 0.5,-157.5"/>
<polygon fill="none" stroke="#666666" points="0,-111 0,-190 125,-190 125,-111 0,-111"/>
</a>
</g>
</g>
<!-- Node2&#45;&gt;Node1 -->
<g id="edge1_Node000001_Node000002" class="edge">
<title>Node2&#45;&gt;Node1</title>
<g id="a_edge1_Node000001_Node000002"><a xlink:title=" ">
<path fill="none" stroke="#63b8ff" d="M93.73,-102.65C99.88,-93.43 106.24,-83.89 112.12,-75.08"/>
<polygon fill="none" stroke="#63b8ff" points="90.81,-100.73 88.17,-110.99 96.63,-104.61 90.81,-100.73"/>
</a>
</g>
</g>
<!-- Node3 -->
<g id="Node000003" class="node">
<title>Node3</title>
<g id="a_Node000003"><a xlink:href="classjsonrpc_1_1FramedTransport.html" target="_top" xlink:title="Base class for framed transport mechanisms.">
<polygon fill="white" stroke="transparent" points="277.5,-182.5 143.5,-182.5 143.5,-118.5 277.5,-118.5 277.5,-182.5"/>
<text text-anchor="start" x="148.5" y="-170.5" font-family="Helvetica,sans-Serif" font-size="10.00">jsonrpc::FramedTransport</text>
<text text-anchor="start" x="208.5" y="-155.5" font-family="Helvetica,sans-Serif" font-size="10.00"> </text>
<text text-anchor="start" x="152" y="-140.5" font-family="Helvetica,sans-Serif" font-size="10.00">#</text>
<text text-anchor="start" x="169.5" y="-140.5" font-family="Helvetica,sans-Serif" font-size="10.00">FrameMessage()</text>
<text text-anchor="start" x="152" y="-125.5" font-family="Helvetica,sans-Serif" font-size="10.00">#</text>
<text text-anchor="start" x="169.5" y="-125.5" font-family="Helvetica,sans-Serif" font-size="10.00">DeframeMessage()</text>
<polygon fill="#666666" stroke="#666666" points="143.5,-165.5 143.5,-165.5 277.5,-165.5 277.5,-165.5 143.5,-165.5"/>
<polygon fill="#666666" stroke="#666666" points="143.5,-150.5 143.5,-150.5 277.5,-150.5 277.5,-150.5 143.5,-150.5"/>
<polygon fill="none" stroke="#666666" points="143.5,-118.5 143.5,-182.5 277.5,-182.5 277.5,-118.5 143.5,-118.5"/>
</a>
</g>
</g>
<!-- Node3&#45;&gt;Node1 -->
<g id="edge2_Node000001_Node000003" class="edge">
<title>Node3&#45;&gt;Node1</title>
<g id="a_edge2_Node000001_Node000003"><a xlink:title=" ">
<path fill="none" stroke="darkgreen" d="M184.1,-109.9C176.6,-98.65 168.47,-86.45 161.08,-75.37"/>
<polygon fill="none" stroke="darkgreen" points="181.23,-111.91 189.69,-118.28 187.06,-108.02 181.23,-111.91"/>
</a>
</g>
</g>
</g>
</svg>
