<?xml version="1.0" encoding="UTF-8" standalone="no"?>
<!DOCTYPE svg PUBLIC "-//W3C//DTD SVG 1.1//EN"
 "http://www.w3.org/Graphics/SVG/1.1/DTD/svg11.dtd">
<!-- Generated by graphviz version 2.43.0 (0)
 -->
<!-- Title: json_rpc::Dispatcher::DispatchRequest Pages: 1 -->
<svg width="270pt" height="86pt"
 viewBox="0.00 0.00 270.00 86.00" xmlns="http://www.w3.org/2000/svg" xmlns:xlink="http://www.w3.org/1999/xlink">
<g id="graph0" class="graph" transform="scale(1 1) rotate(0) translate(4 82)">
<title>json_rpc::Dispatcher::DispatchRequest</title>
<!-- Node1 -->
<g id="Node000001" class="node">
<title>Node1</title>
<g id="a_Node000001"><a xlink:title="Dispatches an RPC request to the appropriate handler.">
<polygon fill="#999999" stroke="#666666" points="116,-54 0,-54 0,-24 116,-24 116,-54"/>
<text text-anchor="start" x="8" y="-42" font-family="Helvetica,sans-Serif" font-size="10.00">json_rpc::Dispatcher</text>
<text text-anchor="middle" x="58" y="-31" font-family="Helvetica,sans-Serif" font-size="10.00">::DispatchRequest</text>
</a>
</g>
</g>
<!-- Node2 -->
<g id="Node000002" class="node">
<title>Node2</title>
<g id="a_Node000002"><a xlink:href="classjson__rpc_1_1Response.html#a103427d492c8a81ad1d169e2516695a2" target="_top" xlink:title="Creates a Response object for a library error.">
<polygon fill="white" stroke="#666666" points="262,-78 152,-78 152,-48 262,-48 262,-78"/>
<text text-anchor="start" x="160" y="-66" font-family="Helvetica,sans-Serif" font-size="10.00">json_rpc::Response</text>
<text text-anchor="middle" x="207" y="-55" font-family="Helvetica,sans-Serif" font-size="10.00">::CreateLibError</text>
</a>
</g>
</g>
<!-- Node1&#45;&gt;Node2 -->
<g id="edge1_Node000001_Node000002" class="edge">
<title>Node1&#45;&gt;Node2</title>
<g id="a_edge1_Node000001_Node000002"><a xlink:title=" ">
<path fill="none" stroke="#63b8ff" d="M116.25,-48.35C124.51,-49.7 133.05,-51.09 141.43,-52.46"/>
<polygon fill="#63b8ff" stroke="#63b8ff" points="141.12,-55.95 151.55,-54.11 142.24,-49.04 141.12,-55.95"/>
</a>
</g>
</g>
<!-- Node3 -->
<g id="Node000003" class="node">
<title>Node3</title>
<g id="a_Node000003"><a xlink:href="classjson__rpc_1_1Response.html#abe6908720f1e791dc06af7a7efba49c5" target="_top" xlink:title="Serializes the Response object to a string.">
<polygon fill="white" stroke="#666666" points="262,-30 152,-30 152,0 262,0 262,-30"/>
<text text-anchor="start" x="160" y="-18" font-family="Helvetica,sans-Serif" font-size="10.00">json_rpc::Response</text>
<text text-anchor="middle" x="207" y="-7" font-family="Helvetica,sans-Serif" font-size="10.00">::ToStr</text>
</a>
</g>
</g>
<!-- Node1&#45;&gt;Node3 -->
<g id="edge2_Node000001_Node000003" class="edge">
<title>Node1&#45;&gt;Node3</title>
<g id="a_edge2_Node000001_Node000003"><a xlink:title=" ">
<path fill="none" stroke="#63b8ff" d="M116.25,-29.65C124.51,-28.3 133.05,-26.91 141.43,-25.54"/>
<polygon fill="#63b8ff" stroke="#63b8ff" points="142.24,-28.96 151.55,-23.89 141.12,-22.05 142.24,-28.96"/>
</a>
</g>
</g>
</g>
</svg>
