<?xml version="1.0" encoding="UTF-8" standalone="no"?>
<!DOCTYPE svg PUBLIC "-//W3C//DTD SVG 1.1//EN"
 "http://www.w3.org/Graphics/SVG/1.1/DTD/svg11.dtd">
<!-- Generated by graphviz version 2.43.0 (0)
 -->
<!-- Title: jsonrpc::transport::PipeTransport Pages: 1 -->
<svg width="140pt" height="515pt"
 viewBox="0.00 0.00 140.00 515.00" xmlns="http://www.w3.org/2000/svg" xmlns:xlink="http://www.w3.org/1999/xlink">
<g id="graph0" class="graph" transform="scale(1 1) rotate(0) translate(4 511)">
<title>jsonrpc::transport::PipeTransport</title>
<!-- Node1 -->
<g id="Node000001" class="node">
<title>Node1</title>
<g id="a_Node000001"><a xlink:title="Transport implementation using Unix domain sockets.">
<polygon fill="#999999" stroke="transparent" points="122,-306 10,-306 10,-126 122,-126 122,-306"/>
<text text-anchor="start" x="23" y="-294" font-family="Helvetica,sans-Serif" font-size="10.00">jsonrpc::transport</text>
<text text-anchor="start" x="29.5" y="-283" font-family="Helvetica,sans-Serif" font-size="10.00">::PipeTransport</text>
<text text-anchor="start" x="64" y="-268" font-family="Helvetica,sans-Serif" font-size="10.00"> </text>
<text text-anchor="start" x="14" y="-253" font-family="Helvetica,sans-Serif" font-size="10.00">+</text>
<text text-anchor="start" x="27" y="-253" font-family="Helvetica,sans-Serif" font-size="10.00">PipeTransport()</text>
<text text-anchor="start" x="14" y="-238" font-family="Helvetica,sans-Serif" font-size="10.00">+</text>
<text text-anchor="start" x="27" y="-238" font-family="Helvetica,sans-Serif" font-size="10.00">~PipeTransport()</text>
<text text-anchor="start" x="14" y="-223" font-family="Helvetica,sans-Serif" font-size="10.00">+</text>
<text text-anchor="start" x="27" y="-223" font-family="Helvetica,sans-Serif" font-size="10.00">PipeTransport()</text>
<text text-anchor="start" x="14" y="-208" font-family="Helvetica,sans-Serif" font-size="10.00">+</text>
<text text-anchor="start" x="27" y="-208" font-family="Helvetica,sans-Serif" font-size="10.00">operator=()</text>
<text text-anchor="start" x="14" y="-193" font-family="Helvetica,sans-Serif" font-size="10.00">+</text>
<text text-anchor="start" x="27" y="-193" font-family="Helvetica,sans-Serif" font-size="10.00">PipeTransport()</text>
<text text-anchor="start" x="14" y="-178" font-family="Helvetica,sans-Serif" font-size="10.00">+</text>
<text text-anchor="start" x="27" y="-178" font-family="Helvetica,sans-Serif" font-size="10.00">operator=()</text>
<text text-anchor="start" x="14" y="-163" font-family="Helvetica,sans-Serif" font-size="10.00">+</text>
<text text-anchor="start" x="27" y="-163" font-family="Helvetica,sans-Serif" font-size="10.00">SendMessage()</text>
<text text-anchor="start" x="14" y="-148" font-family="Helvetica,sans-Serif" font-size="10.00">+</text>
<text text-anchor="start" x="27" y="-148" font-family="Helvetica,sans-Serif" font-size="10.00">ReceiveMessage()</text>
<text text-anchor="start" x="14" y="-133" font-family="Helvetica,sans-Serif" font-size="10.00">#</text>
<text text-anchor="start" x="27" y="-133" font-family="Helvetica,sans-Serif" font-size="10.00">GetSocket()</text>
<polygon fill="#666666" stroke="#666666" points="10,-278 10,-278 122,-278 122,-278 10,-278"/>
<polygon fill="#666666" stroke="#666666" points="10,-263 10,-263 122,-263 122,-263 10,-263"/>
<polygon fill="none" stroke="#666666" points="10,-126 10,-306 122,-306 122,-126 10,-126"/>
</a>
</g>
</g>
<!-- Node3 -->
<g id="Node000003" class="node">
<title>Node3</title>
<g id="a_Node000003"><a xlink:href="classjsonrpc_1_1transport_1_1FramedPipeTransport.html" target="_top" xlink:title="Transport layer using Asio Unix domain sockets for JSON&#45;RPC communication with framing.">
<polygon fill="white" stroke="transparent" points="132,-90 0,-90 0,0 132,0 132,-90"/>
<text text-anchor="start" x="11.5" y="-78" font-family="Helvetica,sans-Serif" font-size="10.00">jsonrpc::transport</text>
<text text-anchor="start" x="11.5" y="-67" font-family="Helvetica,sans-Serif" font-size="10.00">::FramedPipeTransport</text>
<text text-anchor="start" x="64" y="-52" font-family="Helvetica,sans-Serif" font-size="10.00"> </text>
<text text-anchor="start" x="4" y="-37" font-family="Helvetica,sans-Serif" font-size="10.00">+</text>
<text text-anchor="start" x="17" y="-37" font-family="Helvetica,sans-Serif" font-size="10.00">FramedPipeTransport()</text>
<text text-anchor="start" x="4" y="-22" font-family="Helvetica,sans-Serif" font-size="10.00">+</text>
<text text-anchor="start" x="17" y="-22" font-family="Helvetica,sans-Serif" font-size="10.00">SendMessage()</text>
<text text-anchor="start" x="4" y="-7" font-family="Helvetica,sans-Serif" font-size="10.00">+</text>
<text text-anchor="start" x="17" y="-7" font-family="Helvetica,sans-Serif" font-size="10.00">ReceiveMessage()</text>
<polygon fill="#666666" stroke="#666666" points="0,-62 0,-62 132,-62 132,-62 0,-62"/>
<polygon fill="#666666" stroke="#666666" points="0,-47 0,-47 132,-47 132,-47 0,-47"/>
<polygon fill="none" stroke="#666666" points="0,0 0,-90 132,-90 132,0 0,0"/>
</a>
</g>
</g>
<!-- Node1&#45;&gt;Node3 -->
<g id="edge2_Node000001_Node000003" class="edge">
<title>Node1&#45;&gt;Node3</title>
<g id="a_edge2_Node000001_Node000003"><a xlink:title=" ">
<path fill="none" stroke="#63b8ff" d="M66,-115.32C66,-106.67 66,-98.24 66,-90.41"/>
<polygon fill="none" stroke="#63b8ff" points="62.5,-115.55 66,-125.55 69.5,-115.55 62.5,-115.55"/>
</a>
</g>
</g>
<!-- Node2 -->
<g id="Node000002" class="node">
<title>Node2</title>
<g id="a_Node000002"><a xlink:href="classjsonrpc_1_1transport_1_1Transport.html" target="_top" xlink:title="Base class for JSON&#45;RPC transport.">
<polygon fill="white" stroke="transparent" points="122,-507 10,-507 10,-342 122,-342 122,-507"/>
<text text-anchor="start" x="23" y="-494.5" font-family="Helvetica,sans-Serif" font-size="10.00">jsonrpc::transport</text>
<text text-anchor="start" x="40" y="-483.5" font-family="Helvetica,sans-Serif" font-size="10.00">::Transport</text>
<text text-anchor="start" x="64" y="-468.5" font-family="Helvetica,sans-Serif" font-size="10.00"> </text>
<text text-anchor="start" x="14" y="-453.5" font-family="Helvetica,sans-Serif" font-size="10.00">+</text>
<text text-anchor="start" x="27" y="-453.5" font-family="Helvetica,sans-Serif" font-size="10.00">Transport()</text>
<text text-anchor="start" x="14" y="-438.5" font-family="Helvetica,sans-Serif" font-size="10.00">+</text>
<text text-anchor="start" x="27" y="-438.5" font-family="Helvetica,sans-Serif" font-size="10.00">~Transport()</text>
<text text-anchor="start" x="14" y="-423.5" font-family="Helvetica,sans-Serif" font-size="10.00">+</text>
<text text-anchor="start" x="27" y="-423.5" font-family="Helvetica,sans-Serif" font-size="10.00">Transport()</text>
<text text-anchor="start" x="14" y="-408.5" font-family="Helvetica,sans-Serif" font-size="10.00">+</text>
<text text-anchor="start" x="27" y="-408.5" font-family="Helvetica,sans-Serif" font-size="10.00">operator=()</text>
<text text-anchor="start" x="14" y="-393.5" font-family="Helvetica,sans-Serif" font-size="10.00">+</text>
<text text-anchor="start" x="27" y="-393.5" font-family="Helvetica,sans-Serif" font-size="10.00">Transport()</text>
<text text-anchor="start" x="14" y="-378.5" font-family="Helvetica,sans-Serif" font-size="10.00">+</text>
<text text-anchor="start" x="27" y="-378.5" font-family="Helvetica,sans-Serif" font-size="10.00">operator=()</text>
<text text-anchor="start" x="14" y="-363.5" font-family="Helvetica,sans-Serif" font-size="10.00">+</text>
<text text-anchor="start" x="27" y="-363.5" font-family="Helvetica,sans-Serif" font-size="10.00">SendMessage()</text>
<text text-anchor="start" x="14" y="-348.5" font-family="Helvetica,sans-Serif" font-size="10.00">+</text>
<text text-anchor="start" x="27" y="-348.5" font-family="Helvetica,sans-Serif" font-size="10.00">ReceiveMessage()</text>
<polygon fill="#666666" stroke="#666666" points="10,-478.5 10,-478.5 122,-478.5 122,-478.5 10,-478.5"/>
<polygon fill="#666666" stroke="#666666" points="10,-463.5 10,-463.5 122,-463.5 122,-463.5 10,-463.5"/>
<polygon fill="none" stroke="#666666" points="10,-342 10,-507 122,-507 122,-342 10,-342"/>
</a>
</g>
</g>
<!-- Node2&#45;&gt;Node1 -->
<g id="edge1_Node000001_Node000002" class="edge">
<title>Node2&#45;&gt;Node1</title>
<g id="a_edge1_Node000001_Node000002"><a xlink:title=" ">
<path fill="none" stroke="#63b8ff" d="M66,-331.64C66,-323.18 66,-314.62 66,-306.19"/>
<polygon fill="none" stroke="#63b8ff" points="62.5,-331.89 66,-341.89 69.5,-331.89 62.5,-331.89"/>
</a>
</g>
</g>
</g>
</svg>
