<?xml version="1.0" encoding="UTF-8" standalone="no"?>
<!DOCTYPE svg PUBLIC "-//W3C//DTD SVG 1.1//EN"
 "http://www.w3.org/Graphics/SVG/1.1/DTD/svg11.dtd">
<!-- Generated by graphviz version 2.43.0 (0)
 -->
<!-- Title: jsonrpc::transport::FramedStdioTransport Pages: 1 -->
<svg width="324pt" height="284pt"
 viewBox="0.00 0.00 323.50 284.00" xmlns="http://www.w3.org/2000/svg" xmlns:xlink="http://www.w3.org/1999/xlink">
<g id="graph0" class="graph" transform="scale(1 1) rotate(0) translate(4 280)">
<title>jsonrpc::transport::FramedStdioTransport</title>
<!-- Node1 -->
<g id="Node000001" class="node">
<title>Node1</title>
<g id="a_Node000001"><a xlink:title="Transport layer using framed messaging over standard I/O for JSON&#45;RPC communication.">
<polygon fill="#999999" stroke="transparent" points="200.5,-75 77.5,-75 77.5,0 200.5,0 200.5,-75"/>
<text text-anchor="start" x="83" y="-62.5" font-family="Helvetica,sans-Serif" font-size="10.00">jsonrpc::transport</text>
<text text-anchor="start" x="83" y="-51.5" font-family="Helvetica,sans-Serif" font-size="10.00">::FramedStdioTransport</text>
<text text-anchor="start" x="137.5" y="-36.5" font-family="Helvetica,sans-Serif" font-size="10.00"> </text>
<text text-anchor="start" x="84.5" y="-21.5" font-family="Helvetica,sans-Serif" font-size="10.00">+</text>
<text text-anchor="start" x="100" y="-21.5" font-family="Helvetica,sans-Serif" font-size="10.00">SendMessage()</text>
<text text-anchor="start" x="84.5" y="-6.5" font-family="Helvetica,sans-Serif" font-size="10.00">+</text>
<text text-anchor="start" x="100" y="-6.5" font-family="Helvetica,sans-Serif" font-size="10.00">ReceiveMessage()</text>
<polygon fill="#666666" stroke="#666666" points="78,-46.5 78,-46.5 201,-46.5 201,-46.5 78,-46.5"/>
<polygon fill="#666666" stroke="#666666" points="78,-31.5 78,-31.5 201,-31.5 201,-31.5 78,-31.5"/>
<polygon fill="none" stroke="#666666" points="77.5,0 77.5,-75 200.5,-75 200.5,0 77.5,0"/>
</a>
</g>
</g>
<!-- Node2 -->
<g id="Node000002" class="node">
<title>Node2</title>
<g id="a_Node000002"><a xlink:href="classjsonrpc_1_1transport_1_1Transport.html" target="_top" xlink:title="Base class for JSON&#45;RPC transport.">
<polygon fill="white" stroke="transparent" points="112,-276 0,-276 0,-111 112,-111 112,-276"/>
<text text-anchor="start" x="13" y="-263.5" font-family="Helvetica,sans-Serif" font-size="10.00">jsonrpc::transport</text>
<text text-anchor="start" x="30" y="-252.5" font-family="Helvetica,sans-Serif" font-size="10.00">::Transport</text>
<text text-anchor="start" x="54" y="-237.5" font-family="Helvetica,sans-Serif" font-size="10.00"> </text>
<text text-anchor="start" x="4" y="-222.5" font-family="Helvetica,sans-Serif" font-size="10.00">+</text>
<text text-anchor="start" x="17" y="-222.5" font-family="Helvetica,sans-Serif" font-size="10.00">Transport()</text>
<text text-anchor="start" x="4" y="-207.5" font-family="Helvetica,sans-Serif" font-size="10.00">+</text>
<text text-anchor="start" x="17" y="-207.5" font-family="Helvetica,sans-Serif" font-size="10.00">~Transport()</text>
<text text-anchor="start" x="4" y="-192.5" font-family="Helvetica,sans-Serif" font-size="10.00">+</text>
<text text-anchor="start" x="17" y="-192.5" font-family="Helvetica,sans-Serif" font-size="10.00">Transport()</text>
<text text-anchor="start" x="4" y="-177.5" font-family="Helvetica,sans-Serif" font-size="10.00">+</text>
<text text-anchor="start" x="17" y="-177.5" font-family="Helvetica,sans-Serif" font-size="10.00">operator=()</text>
<text text-anchor="start" x="4" y="-162.5" font-family="Helvetica,sans-Serif" font-size="10.00">+</text>
<text text-anchor="start" x="17" y="-162.5" font-family="Helvetica,sans-Serif" font-size="10.00">Transport()</text>
<text text-anchor="start" x="4" y="-147.5" font-family="Helvetica,sans-Serif" font-size="10.00">+</text>
<text text-anchor="start" x="17" y="-147.5" font-family="Helvetica,sans-Serif" font-size="10.00">operator=()</text>
<text text-anchor="start" x="4" y="-132.5" font-family="Helvetica,sans-Serif" font-size="10.00">+</text>
<text text-anchor="start" x="17" y="-132.5" font-family="Helvetica,sans-Serif" font-size="10.00">SendMessage()</text>
<text text-anchor="start" x="4" y="-117.5" font-family="Helvetica,sans-Serif" font-size="10.00">+</text>
<text text-anchor="start" x="17" y="-117.5" font-family="Helvetica,sans-Serif" font-size="10.00">ReceiveMessage()</text>
<polygon fill="#666666" stroke="#666666" points="0,-247.5 0,-247.5 112,-247.5 112,-247.5 0,-247.5"/>
<polygon fill="#666666" stroke="#666666" points="0,-232.5 0,-232.5 112,-232.5 112,-232.5 0,-232.5"/>
<polygon fill="none" stroke="#666666" points="0,-111 0,-276 112,-276 112,-111 0,-111"/>
</a>
</g>
</g>
<!-- Node2&#45;&gt;Node1 -->
<g id="edge1_Node000001_Node000002" class="edge">
<title>Node2&#45;&gt;Node1</title>
<g id="a_edge1_Node000001_Node000002"><a xlink:title=" ">
<path fill="none" stroke="#63b8ff" d="M104.82,-101.92C109.88,-92.52 114.8,-83.41 119.25,-75.15"/>
<polygon fill="none" stroke="#63b8ff" points="101.59,-100.53 99.93,-110.99 107.76,-103.85 101.59,-100.53"/>
</a>
</g>
</g>
<!-- Node3 -->
<g id="Node000003" class="node">
<title>Node3</title>
<g id="a_Node000003"><a xlink:href="classjsonrpc_1_1transport_1_1FramedTransport.html" target="_top" xlink:title="Base class for framed transport mechanisms.">
<polygon fill="white" stroke="transparent" points="315.5,-253.5 130.5,-253.5 130.5,-133.5 315.5,-133.5 315.5,-253.5"/>
<text text-anchor="start" x="179.5" y="-241.5" font-family="Helvetica,sans-Serif" font-size="10.00">jsonrpc::transport</text>
<text text-anchor="start" x="179.5" y="-230.5" font-family="Helvetica,sans-Serif" font-size="10.00">::FramedTransport</text>
<text text-anchor="start" x="135" y="-215.5" font-family="Helvetica,sans-Serif" font-size="10.00">#</text>
<text text-anchor="start" x="148" y="-215.5" font-family="Helvetica,sans-Serif" font-size="10.00">kHeaderDelimiter</text>
<text text-anchor="start" x="135" y="-200.5" font-family="Helvetica,sans-Serif" font-size="10.00">#</text>
<text text-anchor="start" x="148" y="-200.5" font-family="Helvetica,sans-Serif" font-size="10.00">FrameMessage()</text>
<text text-anchor="start" x="135" y="-185.5" font-family="Helvetica,sans-Serif" font-size="10.00">#</text>
<text text-anchor="start" x="148" y="-185.5" font-family="Helvetica,sans-Serif" font-size="10.00">ReadHeadersFromStream()</text>
<text text-anchor="start" x="135" y="-170.5" font-family="Helvetica,sans-Serif" font-size="10.00">#</text>
<text text-anchor="start" x="148" y="-170.5" font-family="Helvetica,sans-Serif" font-size="10.00">ReadContentLengthFromStream()</text>
<text text-anchor="start" x="135" y="-155.5" font-family="Helvetica,sans-Serif" font-size="10.00">#</text>
<text text-anchor="start" x="148" y="-155.5" font-family="Helvetica,sans-Serif" font-size="10.00">ReadContent()</text>
<text text-anchor="start" x="135" y="-140.5" font-family="Helvetica,sans-Serif" font-size="10.00">#</text>
<text text-anchor="start" x="148" y="-140.5" font-family="Helvetica,sans-Serif" font-size="10.00">ReceiveFramedMessage()</text>
<polygon fill="#666666" stroke="#666666" points="131,-225.5 131,-225.5 316,-225.5 316,-225.5 131,-225.5"/>
<polygon fill="#666666" stroke="#666666" points="131,-210.5 131,-210.5 146,-210.5 146,-210.5 131,-210.5"/>
<polygon fill="#666666" stroke="#666666" points="146,-210.5 146,-210.5 316,-210.5 316,-210.5 146,-210.5"/>
<polygon fill="none" stroke="#666666" points="130.5,-133.5 130.5,-253.5 315.5,-253.5 315.5,-133.5 130.5,-133.5"/>
</a>
</g>
</g>
<!-- Node3&#45;&gt;Node1 -->
<g id="edge2_Node000001_Node000003" class="edge">
<title>Node3&#45;&gt;Node1</title>
<g id="a_edge2_Node000001_Node000003"><a xlink:title=" ">
<path fill="none" stroke="darkgreen" d="M185.72,-124.16C176.57,-107.38 167.12,-90.05 159.13,-75.4"/>
<polygon fill="none" stroke="darkgreen" points="182.9,-126.3 190.76,-133.4 189.05,-122.95 182.9,-126.3"/>
</a>
</g>
</g>
</g>
</svg>
