<?xml version="1.0" encoding="UTF-8" standalone="no"?>
<!DOCTYPE svg PUBLIC "-//W3C//DTD SVG 1.1//EN"
 "http://www.w3.org/Graphics/SVG/1.1/DTD/svg11.dtd">
<!-- Generated by graphviz version 2.43.0 (0)
 -->
<!-- Title: json_rpc::ServerTransport Pages: 1 -->
<svg width="143pt" height="303pt"
 viewBox="0.00 0.00 143.00 303.00" xmlns="http://www.w3.org/2000/svg" xmlns:xlink="http://www.w3.org/1999/xlink">
<g id="graph0" class="graph" transform="scale(1 1) rotate(0) translate(4 299)">
<title>json_rpc::ServerTransport</title>
<!-- Node1 -->
<g id="Node000001" class="node">
<title>Node1</title>
<g id="a_Node000001"><a xlink:title="Abstract base class for server transport mechanisms.">
<polygon fill="#999999" stroke="transparent" points="134,-139 0,-139 0,0 134,0 134,-139"/>
<text text-anchor="start" x="5" y="-126.5" font-family="Helvetica,sans-Serif" font-size="10.00">json_rpc::ServerTransport</text>
<text text-anchor="start" x="9" y="-111.5" font-family="Helvetica,sans-Serif" font-size="10.00">#</text>
<text text-anchor="start" x="27" y="-111.5" font-family="Helvetica,sans-Serif" font-size="10.00">running_</text>
<text text-anchor="start" x="9" y="-96.5" font-family="Helvetica,sans-Serif" font-size="10.00">+</text>
<text text-anchor="start" x="27" y="-96.5" font-family="Helvetica,sans-Serif" font-size="10.00">ServerTransport()</text>
<text text-anchor="start" x="9" y="-81.5" font-family="Helvetica,sans-Serif" font-size="10.00">+</text>
<text text-anchor="start" x="27" y="-81.5" font-family="Helvetica,sans-Serif" font-size="10.00">~ServerTransport()</text>
<text text-anchor="start" x="9" y="-66.5" font-family="Helvetica,sans-Serif" font-size="10.00">+</text>
<text text-anchor="start" x="27" y="-66.5" font-family="Helvetica,sans-Serif" font-size="10.00">Start()</text>
<text text-anchor="start" x="9" y="-51.5" font-family="Helvetica,sans-Serif" font-size="10.00">+</text>
<text text-anchor="start" x="27" y="-51.5" font-family="Helvetica,sans-Serif" font-size="10.00">Stop()</text>
<text text-anchor="start" x="9" y="-36.5" font-family="Helvetica,sans-Serif" font-size="10.00">+</text>
<text text-anchor="start" x="27" y="-36.5" font-family="Helvetica,sans-Serif" font-size="10.00">SetDispatcher()</text>
<text text-anchor="start" x="9" y="-21.5" font-family="Helvetica,sans-Serif" font-size="10.00">+</text>
<text text-anchor="start" x="27" y="-21.5" font-family="Helvetica,sans-Serif" font-size="10.00">IsRunning()</text>
<text text-anchor="start" x="9" y="-6.5" font-family="Helvetica,sans-Serif" font-size="10.00">#</text>
<text text-anchor="start" x="27" y="-6.5" font-family="Helvetica,sans-Serif" font-size="10.00">Listen()</text>
<polygon fill="#666666" stroke="#666666" points="0,-121.5 0,-121.5 134,-121.5 134,-121.5 0,-121.5"/>
<polygon fill="#666666" stroke="#666666" points="0,-106.5 0,-106.5 25,-106.5 25,-106.5 0,-106.5"/>
<polygon fill="#666666" stroke="#666666" points="25,-106.5 25,-106.5 134,-106.5 134,-106.5 25,-106.5"/>
<polygon fill="none" stroke="#666666" points="0,0 0,-139 134,-139 134,0 0,0"/>
</a>
</g>
</g>
<!-- Node2 -->
<g id="Node000002" class="node">
<title>Node2</title>
<g id="a_Node000002"><a xlink:href="classjson__rpc_1_1Dispatcher.html" target="_top" xlink:title="A class responsible for dispatching JSON&#45;RPC requests to the appropriate handlers.">
<polygon fill="white" stroke="transparent" points="130,-295 4,-295 4,-186 130,-186 130,-295"/>
<text text-anchor="start" x="17" y="-282.5" font-family="Helvetica,sans-Serif" font-size="10.00">json_rpc::Dispatcher</text>
<text text-anchor="start" x="65" y="-267.5" font-family="Helvetica,sans-Serif" font-size="10.00"> </text>
<text text-anchor="start" x="8" y="-252.5" font-family="Helvetica,sans-Serif" font-size="10.00">+</text>
<text text-anchor="start" x="21" y="-252.5" font-family="Helvetica,sans-Serif" font-size="10.00">Dispatcher()</text>
<text text-anchor="start" x="8" y="-237.5" font-family="Helvetica,sans-Serif" font-size="10.00">+</text>
<text text-anchor="start" x="21" y="-237.5" font-family="Helvetica,sans-Serif" font-size="10.00">~Dispatcher()</text>
<text text-anchor="start" x="8" y="-222.5" font-family="Helvetica,sans-Serif" font-size="10.00">+</text>
<text text-anchor="start" x="21" y="-222.5" font-family="Helvetica,sans-Serif" font-size="10.00">DispatchRequest()</text>
<text text-anchor="start" x="8" y="-207.5" font-family="Helvetica,sans-Serif" font-size="10.00">+</text>
<text text-anchor="start" x="21" y="-207.5" font-family="Helvetica,sans-Serif" font-size="10.00">RegisterMethodCall()</text>
<text text-anchor="start" x="8" y="-192.5" font-family="Helvetica,sans-Serif" font-size="10.00">+</text>
<text text-anchor="start" x="21" y="-192.5" font-family="Helvetica,sans-Serif" font-size="10.00">RegisterNotification()</text>
<polygon fill="#666666" stroke="#666666" points="4,-277.5 4,-277.5 130,-277.5 130,-277.5 4,-277.5"/>
<polygon fill="#666666" stroke="#666666" points="4,-262.5 4,-262.5 130,-262.5 130,-262.5 4,-262.5"/>
<polygon fill="none" stroke="#666666" points="4,-186 4,-295 130,-295 130,-186 4,-186"/>
</a>
</g>
</g>
<!-- Node2&#45;&gt;Node1 -->
<g id="edge1_Node000001_Node000002" class="edge">
<title>Node2&#45;&gt;Node1</title>
<g id="a_edge1_Node000001_Node000002"><a xlink:title=" ">
<path fill="none" stroke="#63b8ff" d="M67,-185.56C67,-174.59 67,-162.83 67,-151.16"/>
<polygon fill="none" stroke="#63b8ff" points="67,-151.08 63,-145.08 67,-139.08 71,-145.08 67,-151.08"/>
</a>
</g>
<text text-anchor="middle" x="101" y="-160" font-family="Helvetica,sans-Serif" font-size="10.00" fill="grey"> #dispatcher_</text>
</g>
</g>
</svg>
