<?xml version="1.0" encoding="UTF-8" standalone="no"?>
<!DOCTYPE svg PUBLIC "-//W3C//DTD SVG 1.1//EN"
 "http://www.w3.org/Graphics/SVG/1.1/DTD/svg11.dtd">
<!-- Generated by graphviz version 2.43.0 (0)
 -->
<!-- Title: json_rpc::Request::ToJson Pages: 1 -->
<svg width="331pt" height="64pt"
 viewBox="0.00 0.00 331.00 64.00" xmlns="http://www.w3.org/2000/svg" xmlns:xlink="http://www.w3.org/1999/xlink">
<g id="graph0" class="graph" transform="scale(1 1) rotate(0) translate(4 60)">
<title>json_rpc::Request::ToJson</title>
<!-- Node1 -->
<g id="Node000001" class="node">
<title>Node1</title>
<g id="a_Node000001"><a xlink:title="Serializes the Request object to a JSON object.">
<polygon fill="#999999" stroke="#666666" points="323,-42.5 214,-42.5 214,-12.5 323,-12.5 323,-42.5"/>
<text text-anchor="start" x="222" y="-30.5" font-family="Helvetica,sans-Serif" font-size="10.00">json_rpc::Request::</text>
<text text-anchor="middle" x="268.5" y="-19.5" font-family="Helvetica,sans-Serif" font-size="10.00">ToJson</text>
</a>
</g>
</g>
<!-- Node2 -->
<g id="Node000002" class="node">
<title>Node2</title>
<g id="a_Node000002"><a xlink:href="classjson__rpc_1_1Client.html#a13184e0d3d03b0c2c1d3578bb1467e4d" target="_top" xlink:title="Sends an RPC method call to the server.">
<polygon fill="white" stroke="#666666" points="177.5,-56 0.5,-56 0.5,-37 177.5,-37 177.5,-56"/>
<text text-anchor="middle" x="89" y="-44" font-family="Helvetica,sans-Serif" font-size="10.00">json_rpc::Client::SendMethodCall</text>
</a>
</g>
</g>
<!-- Node1&#45;&gt;Node2 -->
<g id="edge1_Node000001_Node000002" class="edge">
<title>Node1&#45;&gt;Node2</title>
<g id="a_edge1_Node000001_Node000002"><a xlink:title=" ">
<path fill="none" stroke="#63b8ff" d="M203.64,-34.34C195.2,-35.24 186.42,-36.18 177.66,-37.12"/>
<polygon fill="#63b8ff" stroke="#63b8ff" points="204.19,-37.8 213.76,-33.25 203.45,-30.84 204.19,-37.8"/>
</a>
</g>
</g>
<!-- Node3 -->
<g id="Node000003" class="node">
<title>Node3</title>
<g id="a_Node000003"><a xlink:href="classjson__rpc_1_1Client.html#aabf3cba313e0c2d180d9cd67b2133519" target="_top" xlink:title="Sends an RPC notification to the server.">
<polygon fill="white" stroke="#666666" points="178,-19 0,-19 0,0 178,0 178,-19"/>
<text text-anchor="middle" x="89" y="-7" font-family="Helvetica,sans-Serif" font-size="10.00">json_rpc::Client::SendNotification</text>
</a>
</g>
</g>
<!-- Node1&#45;&gt;Node3 -->
<g id="edge2_Node000001_Node000003" class="edge">
<title>Node1&#45;&gt;Node3</title>
<g id="a_edge2_Node000001_Node000003"><a xlink:title=" ">
<path fill="none" stroke="#63b8ff" d="M203.55,-21.02C195.35,-20.18 186.83,-19.32 178.32,-18.46"/>
<polygon fill="#63b8ff" stroke="#63b8ff" points="203.46,-24.52 213.76,-22.05 204.17,-17.56 203.46,-24.52"/>
</a>
</g>
</g>
</g>
</svg>
