<?xml version="1.0" encoding="UTF-8" standalone="no"?>
<!DOCTYPE svg PUBLIC "-//W3C//DTD SVG 1.1//EN"
 "http://www.w3.org/Graphics/SVG/1.1/DTD/svg11.dtd">
<!-- Generated by graphviz version 2.43.0 (0)
 -->
<!-- Title: jsonrpc::transport::FramedTransport Pages: 1 -->
<svg width="282pt" height="254pt"
 viewBox="0.00 0.00 281.50 254.00" xmlns="http://www.w3.org/2000/svg" xmlns:xlink="http://www.w3.org/1999/xlink">
<g id="graph0" class="graph" transform="scale(1 1) rotate(0) translate(4 250)">
<title>jsonrpc::transport::FramedTransport</title>
<!-- Node1 -->
<g id="Node000001" class="node">
<title>Node1</title>
<g id="a_Node000001"><a xlink:title="Base class for framed transport mechanisms.">
<polygon fill="#999999" stroke="transparent" points="231.5,-246 46.5,-246 46.5,-126 231.5,-126 231.5,-246"/>
<text text-anchor="start" x="95.5" y="-234" font-family="Helvetica,sans-Serif" font-size="10.00">jsonrpc::transport</text>
<text text-anchor="start" x="95.5" y="-223" font-family="Helvetica,sans-Serif" font-size="10.00">::FramedTransport</text>
<text text-anchor="start" x="51" y="-208" font-family="Helvetica,sans-Serif" font-size="10.00">#</text>
<text text-anchor="start" x="64" y="-208" font-family="Helvetica,sans-Serif" font-size="10.00">HEADER_DELIMITER</text>
<text text-anchor="start" x="51" y="-193" font-family="Helvetica,sans-Serif" font-size="10.00">#</text>
<text text-anchor="start" x="64" y="-193" font-family="Helvetica,sans-Serif" font-size="10.00">FrameMessage()</text>
<text text-anchor="start" x="51" y="-178" font-family="Helvetica,sans-Serif" font-size="10.00">#</text>
<text text-anchor="start" x="64" y="-178" font-family="Helvetica,sans-Serif" font-size="10.00">ReadHeadersFromStream()</text>
<text text-anchor="start" x="51" y="-163" font-family="Helvetica,sans-Serif" font-size="10.00">#</text>
<text text-anchor="start" x="64" y="-163" font-family="Helvetica,sans-Serif" font-size="10.00">ReadContentLengthFromStream()</text>
<text text-anchor="start" x="51" y="-148" font-family="Helvetica,sans-Serif" font-size="10.00">#</text>
<text text-anchor="start" x="64" y="-148" font-family="Helvetica,sans-Serif" font-size="10.00">ReadContent()</text>
<text text-anchor="start" x="51" y="-133" font-family="Helvetica,sans-Serif" font-size="10.00">#</text>
<text text-anchor="start" x="64" y="-133" font-family="Helvetica,sans-Serif" font-size="10.00">ReceiveFramedMessage()</text>
<polygon fill="#666666" stroke="#666666" points="47,-218 47,-218 232,-218 232,-218 47,-218"/>
<polygon fill="#666666" stroke="#666666" points="47,-203 47,-203 62,-203 62,-203 47,-203"/>
<polygon fill="#666666" stroke="#666666" points="62,-203 62,-203 232,-203 232,-203 62,-203"/>
<polygon fill="none" stroke="#666666" points="46.5,-126 46.5,-246 231.5,-246 231.5,-126 46.5,-126"/>
</a>
</g>
</g>
<!-- Node2 -->
<g id="Node000002" class="node">
<title>Node2</title>
<g id="a_Node000002"><a xlink:href="classjsonrpc_1_1transport_1_1FramedPipeTransport.html" target="_top" xlink:title="Transport layer using Asio Unix domain sockets for JSON&#45;RPC communication with framing.">
<polygon fill="white" stroke="transparent" points="132,-90 0,-90 0,0 132,0 132,-90"/>
<text text-anchor="start" x="11.5" y="-78" font-family="Helvetica,sans-Serif" font-size="10.00">jsonrpc::transport</text>
<text text-anchor="start" x="11.5" y="-67" font-family="Helvetica,sans-Serif" font-size="10.00">::FramedPipeTransport</text>
<text text-anchor="start" x="64" y="-52" font-family="Helvetica,sans-Serif" font-size="10.00"> </text>
<text text-anchor="start" x="4" y="-37" font-family="Helvetica,sans-Serif" font-size="10.00">+</text>
<text text-anchor="start" x="17" y="-37" font-family="Helvetica,sans-Serif" font-size="10.00">FramedPipeTransport()</text>
<text text-anchor="start" x="4" y="-22" font-family="Helvetica,sans-Serif" font-size="10.00">+</text>
<text text-anchor="start" x="17" y="-22" font-family="Helvetica,sans-Serif" font-size="10.00">SendMessage()</text>
<text text-anchor="start" x="4" y="-7" font-family="Helvetica,sans-Serif" font-size="10.00">+</text>
<text text-anchor="start" x="17" y="-7" font-family="Helvetica,sans-Serif" font-size="10.00">ReceiveMessage()</text>
<polygon fill="#666666" stroke="#666666" points="0,-62 0,-62 132,-62 132,-62 0,-62"/>
<polygon fill="#666666" stroke="#666666" points="0,-47 0,-47 132,-47 132,-47 0,-47"/>
<polygon fill="none" stroke="#666666" points="0,0 0,-90 132,-90 132,0 0,0"/>
</a>
</g>
</g>
<!-- Node1&#45;&gt;Node2 -->
<g id="edge1_Node000001_Node000002" class="edge">
<title>Node1&#45;&gt;Node2</title>
<g id="a_edge1_Node000001_Node000002"><a xlink:title=" ">
<path fill="none" stroke="darkgreen" d="M103.09,-116.63C98.34,-107.58 93.57,-98.5 89.12,-90.01"/>
<polygon fill="none" stroke="darkgreen" points="100.08,-118.42 107.83,-125.65 106.28,-115.17 100.08,-118.42"/>
</a>
</g>
</g>
<!-- Node3 -->
<g id="Node000003" class="node">
<title>Node3</title>
<g id="a_Node000003"><a xlink:href="classjsonrpc_1_1transport_1_1FramedStdioTransport.html" target="_top" xlink:title="Transport layer using framed messaging over standard I/O for JSON&#45;RPC communication.">
<polygon fill="white" stroke="transparent" points="273.5,-82.5 150.5,-82.5 150.5,-7.5 273.5,-7.5 273.5,-82.5"/>
<text text-anchor="start" x="156" y="-70" font-family="Helvetica,sans-Serif" font-size="10.00">jsonrpc::transport</text>
<text text-anchor="start" x="156" y="-59" font-family="Helvetica,sans-Serif" font-size="10.00">::FramedStdioTransport</text>
<text text-anchor="start" x="210.5" y="-44" font-family="Helvetica,sans-Serif" font-size="10.00"> </text>
<text text-anchor="start" x="157.5" y="-29" font-family="Helvetica,sans-Serif" font-size="10.00">+</text>
<text text-anchor="start" x="173" y="-29" font-family="Helvetica,sans-Serif" font-size="10.00">SendMessage()</text>
<text text-anchor="start" x="157.5" y="-14" font-family="Helvetica,sans-Serif" font-size="10.00">+</text>
<text text-anchor="start" x="173" y="-14" font-family="Helvetica,sans-Serif" font-size="10.00">ReceiveMessage()</text>
<polygon fill="#666666" stroke="#666666" points="151,-54 151,-54 274,-54 274,-54 151,-54"/>
<polygon fill="#666666" stroke="#666666" points="151,-39 151,-39 274,-39 274,-39 151,-39"/>
<polygon fill="none" stroke="#666666" points="150.5,-7.5 150.5,-82.5 273.5,-82.5 273.5,-7.5 150.5,-7.5"/>
</a>
</g>
</g>
<!-- Node1&#45;&gt;Node3 -->
<g id="edge2_Node000001_Node000003" class="edge">
<title>Node1&#45;&gt;Node3</title>
<g id="a_edge2_Node000001_Node000003"><a xlink:title=" ">
<path fill="none" stroke="darkgreen" d="M174.87,-116.69C181.05,-104.94 187.24,-93.14 192.76,-82.64"/>
<polygon fill="none" stroke="darkgreen" points="171.72,-115.17 170.17,-125.65 177.92,-118.42 171.72,-115.17"/>
</a>
</g>
</g>
</g>
</svg>
