<?xml version="1.0" encoding="UTF-8" standalone="no"?>
<!DOCTYPE svg PUBLIC "-//W3C//DTD SVG 1.1//EN"
 "http://www.w3.org/Graphics/SVG/1.1/DTD/svg11.dtd">
<!-- Generated by graphviz version 2.43.0 (0)
 -->
<!-- Title: jsonrpc::server::Response Pages: 1 -->
<svg width="144pt" height="192pt"
 viewBox="0.00 0.00 144.00 192.00" xmlns="http://www.w3.org/2000/svg" xmlns:xlink="http://www.w3.org/1999/xlink">
<g id="graph0" class="graph" transform="scale(1 1) rotate(0) translate(4 188)">
<title>jsonrpc::server::Response</title>
<!-- Node1 -->
<g id="Node000001" class="node">
<title>Node1</title>
<g id="a_Node000001"><a xlink:title="Represents a JSON&#45;RPC response.">
<polygon fill="#999999" stroke="transparent" points="136,-184 0,-184 0,0 136,0 136,-184"/>
<text text-anchor="start" x="5" y="-172" font-family="Helvetica,sans-Serif" font-size="10.00">jsonrpc::server::Response</text>
<text text-anchor="start" x="66" y="-157" font-family="Helvetica,sans-Serif" font-size="10.00"> </text>
<text text-anchor="start" x="7" y="-142" font-family="Helvetica,sans-Serif" font-size="10.00">+</text>
<text text-anchor="start" x="23" y="-142" font-family="Helvetica,sans-Serif" font-size="10.00">Response()</text>
<text text-anchor="start" x="7" y="-127" font-family="Helvetica,sans-Serif" font-size="10.00">+</text>
<text text-anchor="start" x="23" y="-127" font-family="Helvetica,sans-Serif" font-size="10.00">Response()</text>
<text text-anchor="start" x="7" y="-112" font-family="Helvetica,sans-Serif" font-size="10.00">+</text>
<text text-anchor="start" x="23" y="-112" font-family="Helvetica,sans-Serif" font-size="10.00">operator=()</text>
<text text-anchor="start" x="7" y="-97" font-family="Helvetica,sans-Serif" font-size="10.00">+</text>
<text text-anchor="start" x="23" y="-97" font-family="Helvetica,sans-Serif" font-size="10.00">Response()</text>
<text text-anchor="start" x="7" y="-82" font-family="Helvetica,sans-Serif" font-size="10.00">+</text>
<text text-anchor="start" x="23" y="-82" font-family="Helvetica,sans-Serif" font-size="10.00">ToJson()</text>
<text text-anchor="start" x="7" y="-67" font-family="Helvetica,sans-Serif" font-size="10.00">+</text>
<text text-anchor="start" x="23" y="-67" font-family="Helvetica,sans-Serif" font-size="10.00">ToStr()</text>
<text text-anchor="start" x="7" y="-52" font-family="Helvetica,sans-Serif" font-size="10.00">+</text>
<text text-anchor="start" x="23" y="-52" font-family="Helvetica,sans-Serif" font-size="10.00">FromUserResponse()</text>
<text text-anchor="start" x="7" y="-37" font-family="Helvetica,sans-Serif" font-size="10.00">+</text>
<text text-anchor="start" x="23" y="-37" font-family="Helvetica,sans-Serif" font-size="10.00">CreateResult()</text>
<text text-anchor="start" x="7" y="-22" font-family="Helvetica,sans-Serif" font-size="10.00">+</text>
<text text-anchor="start" x="23" y="-22" font-family="Helvetica,sans-Serif" font-size="10.00">CreateLibError()</text>
<text text-anchor="start" x="7" y="-7" font-family="Helvetica,sans-Serif" font-size="10.00">+</text>
<text text-anchor="start" x="23" y="-7" font-family="Helvetica,sans-Serif" font-size="10.00">CreateUserError()</text>
<polygon fill="#666666" stroke="#666666" points="0,-167 0,-167 136,-167 136,-167 0,-167"/>
<polygon fill="#666666" stroke="#666666" points="0,-152 0,-152 136,-152 136,-152 0,-152"/>
<polygon fill="none" stroke="#666666" points="0,0 0,-184 136,-184 136,0 0,0"/>
</a>
</g>
</g>
</g>
</svg>
