<?xml version="1.0" encoding="UTF-8" standalone="no"?>
<!DOCTYPE svg PUBLIC "-//W3C//DTD SVG 1.1//EN"
 "http://www.w3.org/Graphics/SVG/1.1/DTD/svg11.dtd">
<!-- Generated by graphviz version 2.43.0 (0)
 -->
<!-- Title: jsonrpc::FramedStdioServerTransport Pages: 1 -->
<svg width="288pt" height="400pt"
 viewBox="0.00 0.00 288.00 400.00" xmlns="http://www.w3.org/2000/svg" xmlns:xlink="http://www.w3.org/1999/xlink">
<g id="graph0" class="graph" transform="scale(1 1) rotate(0) translate(4 396)">
<title>jsonrpc::FramedStdioServerTransport</title>
<!-- Node1 -->
<g id="Node000001" class="node">
<title>Node1</title>
<g id="a_Node000001"><a xlink:title="Server transport using framed stdio for communication.">
<polygon fill="#999999" stroke="transparent" points="247.5,-60 102.5,-60 102.5,0 247.5,0 247.5,-60"/>
<text text-anchor="start" x="108" y="-48" font-family="Helvetica,sans-Serif" font-size="10.00">jsonrpc::FramedStdioServer</text>
<text text-anchor="start" x="152.5" y="-37" font-family="Helvetica,sans-Serif" font-size="10.00">Transport</text>
<text text-anchor="start" x="173.5" y="-22" font-family="Helvetica,sans-Serif" font-size="10.00"> </text>
<text text-anchor="start" x="128.5" y="-7" font-family="Helvetica,sans-Serif" font-size="10.00">#</text>
<text text-anchor="start" x="163" y="-7" font-family="Helvetica,sans-Serif" font-size="10.00">Listen()</text>
<polygon fill="#666666" stroke="#666666" points="103,-32 103,-32 248,-32 248,-32 103,-32"/>
<polygon fill="#666666" stroke="#666666" points="103,-17 103,-17 248,-17 248,-17 103,-17"/>
<polygon fill="none" stroke="#666666" points="102.5,0 102.5,-60 247.5,-60 247.5,0 102.5,0"/>
</a>
</g>
</g>
<!-- Node2 -->
<g id="Node000002" class="node">
<title>Node2</title>
<g id="a_Node000002"><a xlink:href="classjsonrpc_1_1ServerTransport.html" target="_top" xlink:title="Abstract base class for server transport mechanisms.">
<polygon fill="white" stroke="transparent" points="128,-236 0,-236 0,-97 128,-97 128,-236"/>
<text text-anchor="start" x="5" y="-223.5" font-family="Helvetica,sans-Serif" font-size="10.00">jsonrpc::ServerTransport</text>
<text text-anchor="start" x="7.5" y="-208.5" font-family="Helvetica,sans-Serif" font-size="10.00">#</text>
<text text-anchor="start" x="24" y="-208.5" font-family="Helvetica,sans-Serif" font-size="10.00">running_</text>
<text text-anchor="start" x="7.5" y="-193.5" font-family="Helvetica,sans-Serif" font-size="10.00">+</text>
<text text-anchor="start" x="24" y="-193.5" font-family="Helvetica,sans-Serif" font-size="10.00">ServerTransport()</text>
<text text-anchor="start" x="7.5" y="-178.5" font-family="Helvetica,sans-Serif" font-size="10.00">+</text>
<text text-anchor="start" x="24" y="-178.5" font-family="Helvetica,sans-Serif" font-size="10.00">~ServerTransport()</text>
<text text-anchor="start" x="7.5" y="-163.5" font-family="Helvetica,sans-Serif" font-size="10.00">+</text>
<text text-anchor="start" x="24" y="-163.5" font-family="Helvetica,sans-Serif" font-size="10.00">Start()</text>
<text text-anchor="start" x="7.5" y="-148.5" font-family="Helvetica,sans-Serif" font-size="10.00">+</text>
<text text-anchor="start" x="24" y="-148.5" font-family="Helvetica,sans-Serif" font-size="10.00">Stop()</text>
<text text-anchor="start" x="7.5" y="-133.5" font-family="Helvetica,sans-Serif" font-size="10.00">+</text>
<text text-anchor="start" x="24" y="-133.5" font-family="Helvetica,sans-Serif" font-size="10.00">SetDispatcher()</text>
<text text-anchor="start" x="7.5" y="-118.5" font-family="Helvetica,sans-Serif" font-size="10.00">+</text>
<text text-anchor="start" x="24" y="-118.5" font-family="Helvetica,sans-Serif" font-size="10.00">IsRunning()</text>
<text text-anchor="start" x="7.5" y="-103.5" font-family="Helvetica,sans-Serif" font-size="10.00">#</text>
<text text-anchor="start" x="24" y="-103.5" font-family="Helvetica,sans-Serif" font-size="10.00">Listen()</text>
<polygon fill="#666666" stroke="#666666" points="0,-218.5 0,-218.5 128,-218.5 128,-218.5 0,-218.5"/>
<polygon fill="#666666" stroke="#666666" points="0,-203.5 0,-203.5 22,-203.5 22,-203.5 0,-203.5"/>
<polygon fill="#666666" stroke="#666666" points="22,-203.5 22,-203.5 128,-203.5 128,-203.5 22,-203.5"/>
<polygon fill="none" stroke="#666666" points="0,-97 0,-236 128,-236 128,-97 0,-97"/>
</a>
</g>
</g>
<!-- Node2&#45;&gt;Node1 -->
<g id="edge1_Node000001_Node000002" class="edge">
<title>Node2&#45;&gt;Node1</title>
<g id="a_edge1_Node000001_Node000002"><a xlink:title=" ">
<path fill="none" stroke="#63b8ff" d="M127.28,-88.82C135.71,-78.61 143.89,-68.69 151.03,-60.04"/>
<polygon fill="none" stroke="#63b8ff" points="124.47,-86.73 120.8,-96.67 129.87,-91.19 124.47,-86.73"/>
</a>
</g>
</g>
<!-- Node3 -->
<g id="Node000003" class="node">
<title>Node3</title>
<g id="a_Node000003"><a xlink:href="classjsonrpc_1_1Dispatcher.html" target="_top" xlink:title="A class responsible for dispatching JSON&#45;RPC requests to the appropriate handlers.">
<polygon fill="white" stroke="transparent" points="127,-392 1,-392 1,-283 127,-283 127,-392"/>
<text text-anchor="start" x="17" y="-379.5" font-family="Helvetica,sans-Serif" font-size="10.00">jsonrpc::Dispatcher</text>
<text text-anchor="start" x="62" y="-364.5" font-family="Helvetica,sans-Serif" font-size="10.00"> </text>
<text text-anchor="start" x="5" y="-349.5" font-family="Helvetica,sans-Serif" font-size="10.00">+</text>
<text text-anchor="start" x="18" y="-349.5" font-family="Helvetica,sans-Serif" font-size="10.00">Dispatcher()</text>
<text text-anchor="start" x="5" y="-334.5" font-family="Helvetica,sans-Serif" font-size="10.00">+</text>
<text text-anchor="start" x="18" y="-334.5" font-family="Helvetica,sans-Serif" font-size="10.00">~Dispatcher()</text>
<text text-anchor="start" x="5" y="-319.5" font-family="Helvetica,sans-Serif" font-size="10.00">+</text>
<text text-anchor="start" x="18" y="-319.5" font-family="Helvetica,sans-Serif" font-size="10.00">DispatchRequest()</text>
<text text-anchor="start" x="5" y="-304.5" font-family="Helvetica,sans-Serif" font-size="10.00">+</text>
<text text-anchor="start" x="18" y="-304.5" font-family="Helvetica,sans-Serif" font-size="10.00">RegisterMethodCall()</text>
<text text-anchor="start" x="5" y="-289.5" font-family="Helvetica,sans-Serif" font-size="10.00">+</text>
<text text-anchor="start" x="18" y="-289.5" font-family="Helvetica,sans-Serif" font-size="10.00">RegisterNotification()</text>
<polygon fill="#666666" stroke="#666666" points="1,-374.5 1,-374.5 127,-374.5 127,-374.5 1,-374.5"/>
<polygon fill="#666666" stroke="#666666" points="1,-359.5 1,-359.5 127,-359.5 127,-359.5 1,-359.5"/>
<polygon fill="none" stroke="#666666" points="1,-283 1,-392 127,-392 127,-283 1,-283"/>
</a>
</g>
</g>
<!-- Node3&#45;&gt;Node2 -->
<g id="edge2_Node000002_Node000003" class="edge">
<title>Node3&#45;&gt;Node2</title>
<g id="a_edge2_Node000002_Node000003"><a xlink:title=" ">
<path fill="none" stroke="#63b8ff" d="M64,-282.56C64,-271.59 64,-259.83 64,-248.16"/>
<polygon fill="none" stroke="#63b8ff" points="64,-248.08 60,-242.08 64,-236.08 68,-242.08 64,-248.08"/>
</a>
</g>
<text text-anchor="middle" x="98" y="-257" font-family="Helvetica,sans-Serif" font-size="10.00" fill="grey"> #dispatcher_</text>
</g>
<!-- Node4 -->
<g id="Node000004" class="node">
<title>Node4</title>
<g id="a_Node000004"><a xlink:href="classjsonrpc_1_1FramedTransport.html" target="_top" xlink:title="Base class for framed transport mechanisms.">
<polygon fill="white" stroke="transparent" points="280,-198.5 146,-198.5 146,-134.5 280,-134.5 280,-198.5"/>
<text text-anchor="start" x="151" y="-186.5" font-family="Helvetica,sans-Serif" font-size="10.00">jsonrpc::FramedTransport</text>
<text text-anchor="start" x="211" y="-171.5" font-family="Helvetica,sans-Serif" font-size="10.00"> </text>
<text text-anchor="start" x="155.5" y="-156.5" font-family="Helvetica,sans-Serif" font-size="10.00">#</text>
<text text-anchor="start" x="174" y="-156.5" font-family="Helvetica,sans-Serif" font-size="10.00">SendMessage()</text>
<text text-anchor="start" x="155.5" y="-141.5" font-family="Helvetica,sans-Serif" font-size="10.00">#</text>
<text text-anchor="start" x="174" y="-141.5" font-family="Helvetica,sans-Serif" font-size="10.00">ReceiveMessage()</text>
<polygon fill="#666666" stroke="#666666" points="146,-181.5 146,-181.5 280,-181.5 280,-181.5 146,-181.5"/>
<polygon fill="#666666" stroke="#666666" points="146,-166.5 146,-166.5 280,-166.5 280,-166.5 146,-166.5"/>
<polygon fill="none" stroke="#666666" points="146,-134.5 146,-198.5 280,-198.5 280,-134.5 146,-134.5"/>
</a>
</g>
</g>
<!-- Node4&#45;&gt;Node1 -->
<g id="edge3_Node000001_Node000004" class="edge">
<title>Node4&#45;&gt;Node1</title>
<g id="a_edge3_Node000001_Node000004"><a xlink:title=" ">
<path fill="none" stroke="darkgreen" d="M201.41,-124.47C195.54,-103.71 188.56,-78.99 183.25,-60.18"/>
<polygon fill="none" stroke="darkgreen" points="198.1,-125.63 204.19,-134.3 204.84,-123.73 198.1,-125.63"/>
</a>
</g>
</g>
</g>
</svg>
