<?xml version="1.0" encoding="UTF-8" standalone="no"?>
<!DOCTYPE svg PUBLIC "-//W3C//DTD SVG 1.1//EN"
 "http://www.w3.org/Graphics/SVG/1.1/DTD/svg11.dtd">
<!-- Generated by graphviz version 2.43.0 (0)
 -->
<!-- Title: jsonrpc::transport::FramedTransport::FrameMessage Pages: 1 -->
<svg width="358pt" height="108pt"
 viewBox="0.00 0.00 358.00 108.00" xmlns="http://www.w3.org/2000/svg" xmlns:xlink="http://www.w3.org/1999/xlink">
<g id="graph0" class="graph" transform="scale(1 1) rotate(0) translate(4 104)">
<title>jsonrpc::transport::FramedTransport::FrameMessage</title>
<!-- Node1 -->
<g id="Node000001" class="node">
<title>Node1</title>
<g id="a_Node000001"><a xlink:title="Constructs a framed message.">
<polygon fill="#999999" stroke="#666666" points="350,-64.5 165,-64.5 165,-34.5 350,-34.5 350,-64.5"/>
<text text-anchor="start" x="173" y="-52.5" font-family="Helvetica,sans-Serif" font-size="10.00">jsonrpc::transport</text>
<text text-anchor="middle" x="257.5" y="-41.5" font-family="Helvetica,sans-Serif" font-size="10.00">::FramedTransport::FrameMessage</text>
</a>
</g>
</g>
<!-- Node2 -->
<g id="Node000002" class="node">
<title>Node2</title>
<g id="a_Node000002"><a xlink:href="classjsonrpc_1_1transport_1_1FramedPipeTransport.html#a1f50d7b4d0284cafbf21f948f0e0c978" target="_top" xlink:title="Sends a message in string to the transport layer.">
<polygon fill="white" stroke="#666666" points="127,-100 2,-100 2,-59 127,-59 127,-100"/>
<text text-anchor="start" x="10" y="-88" font-family="Helvetica,sans-Serif" font-size="10.00">jsonrpc::transport</text>
<text text-anchor="start" x="10" y="-77" font-family="Helvetica,sans-Serif" font-size="10.00">::FramedPipeTransport</text>
<text text-anchor="middle" x="64.5" y="-66" font-family="Helvetica,sans-Serif" font-size="10.00">::SendMessage</text>
</a>
</g>
</g>
<!-- Node1&#45;&gt;Node2 -->
<g id="edge1_Node000001_Node000002" class="edge">
<title>Node1&#45;&gt;Node2</title>
<g id="a_edge1_Node000001_Node000002"><a xlink:title=" ">
<path fill="none" stroke="#63b8ff" d="M154.99,-65.44C145.48,-66.94 136.05,-68.42 127.07,-69.83"/>
<polygon fill="#63b8ff" stroke="#63b8ff" points="155.58,-68.89 164.92,-63.88 154.49,-61.98 155.58,-68.89"/>
</a>
</g>
</g>
<!-- Node3 -->
<g id="Node000003" class="node">
<title>Node3</title>
<g id="a_Node000003"><a xlink:href="classjsonrpc_1_1transport_1_1FramedStdioTransport.html#a94fdcddf0528b5613e03a4c5890aa0fa" target="_top" xlink:title="Sends a message in string to the transport layer.">
<polygon fill="white" stroke="#666666" points="129,-41 0,-41 0,0 129,0 129,-41"/>
<text text-anchor="start" x="8" y="-29" font-family="Helvetica,sans-Serif" font-size="10.00">jsonrpc::transport</text>
<text text-anchor="start" x="8" y="-18" font-family="Helvetica,sans-Serif" font-size="10.00">::FramedStdioTransport</text>
<text text-anchor="middle" x="64.5" y="-7" font-family="Helvetica,sans-Serif" font-size="10.00">::SendMessage</text>
</a>
</g>
</g>
<!-- Node1&#45;&gt;Node3 -->
<g id="edge2_Node000001_Node000003" class="edge">
<title>Node1&#45;&gt;Node3</title>
<g id="a_edge2_Node000001_Node000003"><a xlink:title=" ">
<path fill="none" stroke="#63b8ff" d="M155.02,-34.09C146.26,-32.76 137.57,-31.44 129.25,-30.18"/>
<polygon fill="#63b8ff" stroke="#63b8ff" points="154.5,-37.55 164.92,-35.59 155.55,-30.63 154.5,-37.55"/>
</a>
</g>
</g>
</g>
</svg>
