<?xml version="1.0" encoding="UTF-8" standalone="no"?>
<!DOCTYPE svg PUBLIC "-//W3C//DTD SVG 1.1//EN"
 "http://www.w3.org/Graphics/SVG/1.1/DTD/svg11.dtd">
<!-- Generated by graphviz version 2.43.0 (0)
 -->
<!-- Title: json_rpc::FramedTransport Pages: 1 -->
<svg width="324pt" height="183pt"
 viewBox="0.00 0.00 323.50 183.00" xmlns="http://www.w3.org/2000/svg" xmlns:xlink="http://www.w3.org/1999/xlink">
<g id="graph0" class="graph" transform="scale(1 1) rotate(0) translate(4 179)">
<title>json_rpc::FramedTransport</title>
<!-- Node1 -->
<g id="Node000001" class="node">
<title>Node1</title>
<g id="a_Node000001"><a xlink:title="Base class for framed transport mechanisms.">
<polygon fill="#999999" stroke="transparent" points="226,-175 87,-175 87,-111 226,-111 226,-175"/>
<text text-anchor="start" x="92.5" y="-163" font-family="Helvetica,sans-Serif" font-size="10.00">json_rpc::FramedTransport</text>
<text text-anchor="start" x="155" y="-148" font-family="Helvetica,sans-Serif" font-size="10.00"> </text>
<text text-anchor="start" x="98" y="-133" font-family="Helvetica,sans-Serif" font-size="10.00">#</text>
<text text-anchor="start" x="117.5" y="-133" font-family="Helvetica,sans-Serif" font-size="10.00">SendMessage()</text>
<text text-anchor="start" x="98" y="-118" font-family="Helvetica,sans-Serif" font-size="10.00">#</text>
<text text-anchor="start" x="117.5" y="-118" font-family="Helvetica,sans-Serif" font-size="10.00">ReceiveMessage()</text>
<polygon fill="#666666" stroke="#666666" points="87.5,-158 87.5,-158 226.5,-158 226.5,-158 87.5,-158"/>
<polygon fill="#666666" stroke="#666666" points="87.5,-143 87.5,-143 226.5,-143 226.5,-143 87.5,-143"/>
<polygon fill="none" stroke="#666666" points="87,-111 87,-175 226,-175 226,-111 87,-111"/>
</a>
</g>
</g>
<!-- Node2 -->
<g id="Node000002" class="node">
<title>Node2</title>
<g id="a_Node000002"><a xlink:href="classjson__rpc_1_1FramedStdioClientTransport.html" target="_top" xlink:title="Client transport using framed stdio for communication.">
<polygon fill="white" stroke="transparent" points="147,-75 0,-75 0,0 147,0 147,-75"/>
<text text-anchor="start" x="5.5" y="-62.5" font-family="Helvetica,sans-Serif" font-size="10.00">json_rpc::FramedStdioClient</text>
<text text-anchor="start" x="51" y="-51.5" font-family="Helvetica,sans-Serif" font-size="10.00">Transport</text>
<text text-anchor="start" x="72" y="-36.5" font-family="Helvetica,sans-Serif" font-size="10.00"> </text>
<text text-anchor="start" x="14" y="-21.5" font-family="Helvetica,sans-Serif" font-size="10.00">+</text>
<text text-anchor="start" x="36.5" y="-21.5" font-family="Helvetica,sans-Serif" font-size="10.00">SendMethodCall()</text>
<text text-anchor="start" x="14" y="-6.5" font-family="Helvetica,sans-Serif" font-size="10.00">+</text>
<text text-anchor="start" x="36.5" y="-6.5" font-family="Helvetica,sans-Serif" font-size="10.00">SendNotification()</text>
<polygon fill="#666666" stroke="#666666" points="0.5,-46.5 0.5,-46.5 147.5,-46.5 147.5,-46.5 0.5,-46.5"/>
<polygon fill="#666666" stroke="#666666" points="0.5,-31.5 0.5,-31.5 147.5,-31.5 147.5,-31.5 0.5,-31.5"/>
<polygon fill="none" stroke="#666666" points="0,0 0,-75 147,-75 147,0 0,0"/>
</a>
</g>
</g>
<!-- Node1&#45;&gt;Node2 -->
<g id="edge1_Node000001_Node000002" class="edge">
<title>Node1&#45;&gt;Node2</title>
<g id="a_edge1_Node000001_Node000002"><a xlink:title=" ">
<path fill="none" stroke="darkgreen" d="M125.33,-103.13C118.04,-94.04 110.29,-84.37 103.07,-75.37"/>
<polygon fill="none" stroke="darkgreen" points="122.61,-105.33 131.6,-110.95 128.07,-100.96 122.61,-105.33"/>
</a>
</g>
</g>
<!-- Node3 -->
<g id="Node000003" class="node">
<title>Node3</title>
<g id="a_Node000003"><a xlink:href="classjson__rpc_1_1FramedStdioServerTransport.html" target="_top" xlink:title="Server transport using framed stdio for communication.">
<polygon fill="white" stroke="transparent" points="315.5,-67.5 165.5,-67.5 165.5,-7.5 315.5,-7.5 315.5,-67.5"/>
<text text-anchor="start" x="170.5" y="-55.5" font-family="Helvetica,sans-Serif" font-size="10.00">json_rpc::FramedStdioServer</text>
<text text-anchor="start" x="217.5" y="-44.5" font-family="Helvetica,sans-Serif" font-size="10.00">Transport</text>
<text text-anchor="start" x="238.5" y="-29.5" font-family="Helvetica,sans-Serif" font-size="10.00"> </text>
<text text-anchor="start" x="192.5" y="-14.5" font-family="Helvetica,sans-Serif" font-size="10.00">#</text>
<text text-anchor="start" x="228.5" y="-14.5" font-family="Helvetica,sans-Serif" font-size="10.00">Listen()</text>
<polygon fill="#666666" stroke="#666666" points="165.5,-39.5 165.5,-39.5 315.5,-39.5 315.5,-39.5 165.5,-39.5"/>
<polygon fill="#666666" stroke="#666666" points="165.5,-24.5 165.5,-24.5 315.5,-24.5 315.5,-24.5 165.5,-24.5"/>
<polygon fill="none" stroke="#666666" points="165.5,-7.5 165.5,-67.5 315.5,-67.5 315.5,-7.5 165.5,-7.5"/>
</a>
</g>
</g>
<!-- Node1&#45;&gt;Node3 -->
<g id="edge2_Node000001_Node000003" class="edge">
<title>Node1&#45;&gt;Node3</title>
<g id="a_edge2_Node000001_Node000003"><a xlink:title=" ">
<path fill="none" stroke="darkgreen" d="M188.13,-103.03C197.62,-91.34 207.86,-78.71 216.75,-67.76"/>
<polygon fill="none" stroke="darkgreen" points="185.29,-100.98 181.7,-110.95 190.72,-105.39 185.29,-100.98"/>
</a>
</g>
</g>
</g>
</svg>
