<?xml version="1.0" encoding="UTF-8" standalone="no"?>
<!DOCTYPE svg PUBLIC "-//W3C//DTD SVG 1.1//EN"
 "http://www.w3.org/Graphics/SVG/1.1/DTD/svg11.dtd">
<!-- Generated by graphviz version 2.43.0 (0)
 -->
<!-- Title: json_rpc::FramedStdioServerTransport Pages: 1 -->
<svg width="300pt" height="400pt"
 viewBox="0.00 0.00 299.50 400.00" xmlns="http://www.w3.org/2000/svg" xmlns:xlink="http://www.w3.org/1999/xlink">
<g id="graph0" class="graph" transform="scale(1 1) rotate(0) translate(4 396)">
<title>json_rpc::FramedStdioServerTransport</title>
<!-- Node1 -->
<g id="Node000001" class="node">
<title>Node1</title>
<g id="a_Node000001"><a xlink:title="Server transport using framed stdio for communication.">
<polygon fill="#999999" stroke="transparent" points="219,-60 69,-60 69,0 219,0 219,-60"/>
<text text-anchor="start" x="74" y="-48" font-family="Helvetica,sans-Serif" font-size="10.00">json_rpc::FramedStdioServer</text>
<text text-anchor="start" x="121" y="-37" font-family="Helvetica,sans-Serif" font-size="10.00">Transport</text>
<text text-anchor="start" x="142" y="-22" font-family="Helvetica,sans-Serif" font-size="10.00"> </text>
<text text-anchor="start" x="96" y="-7" font-family="Helvetica,sans-Serif" font-size="10.00">#</text>
<text text-anchor="start" x="132" y="-7" font-family="Helvetica,sans-Serif" font-size="10.00">Listen()</text>
<polygon fill="#666666" stroke="#666666" points="69,-32 69,-32 219,-32 219,-32 69,-32"/>
<polygon fill="#666666" stroke="#666666" points="69,-17 69,-17 219,-17 219,-17 69,-17"/>
<polygon fill="none" stroke="#666666" points="69,0 69,-60 219,-60 219,0 69,0"/>
</a>
</g>
</g>
<!-- Node2 -->
<g id="Node000002" class="node">
<title>Node2</title>
<g id="a_Node000002"><a xlink:href="classjson__rpc_1_1ServerTransport.html" target="_top" xlink:title="Abstract base class for server transport mechanisms.">
<polygon fill="white" stroke="transparent" points="134,-236 0,-236 0,-97 134,-97 134,-236"/>
<text text-anchor="start" x="5" y="-223.5" font-family="Helvetica,sans-Serif" font-size="10.00">json_rpc::ServerTransport</text>
<text text-anchor="start" x="9" y="-208.5" font-family="Helvetica,sans-Serif" font-size="10.00">#</text>
<text text-anchor="start" x="27" y="-208.5" font-family="Helvetica,sans-Serif" font-size="10.00">running_</text>
<text text-anchor="start" x="9" y="-193.5" font-family="Helvetica,sans-Serif" font-size="10.00">+</text>
<text text-anchor="start" x="27" y="-193.5" font-family="Helvetica,sans-Serif" font-size="10.00">ServerTransport()</text>
<text text-anchor="start" x="9" y="-178.5" font-family="Helvetica,sans-Serif" font-size="10.00">+</text>
<text text-anchor="start" x="27" y="-178.5" font-family="Helvetica,sans-Serif" font-size="10.00">~ServerTransport()</text>
<text text-anchor="start" x="9" y="-163.5" font-family="Helvetica,sans-Serif" font-size="10.00">+</text>
<text text-anchor="start" x="27" y="-163.5" font-family="Helvetica,sans-Serif" font-size="10.00">Start()</text>
<text text-anchor="start" x="9" y="-148.5" font-family="Helvetica,sans-Serif" font-size="10.00">+</text>
<text text-anchor="start" x="27" y="-148.5" font-family="Helvetica,sans-Serif" font-size="10.00">Stop()</text>
<text text-anchor="start" x="9" y="-133.5" font-family="Helvetica,sans-Serif" font-size="10.00">+</text>
<text text-anchor="start" x="27" y="-133.5" font-family="Helvetica,sans-Serif" font-size="10.00">SetDispatcher()</text>
<text text-anchor="start" x="9" y="-118.5" font-family="Helvetica,sans-Serif" font-size="10.00">+</text>
<text text-anchor="start" x="27" y="-118.5" font-family="Helvetica,sans-Serif" font-size="10.00">IsRunning()</text>
<text text-anchor="start" x="9" y="-103.5" font-family="Helvetica,sans-Serif" font-size="10.00">#</text>
<text text-anchor="start" x="27" y="-103.5" font-family="Helvetica,sans-Serif" font-size="10.00">Listen()</text>
<polygon fill="#666666" stroke="#666666" points="0,-218.5 0,-218.5 134,-218.5 134,-218.5 0,-218.5"/>
<polygon fill="#666666" stroke="#666666" points="0,-203.5 0,-203.5 25,-203.5 25,-203.5 0,-203.5"/>
<polygon fill="#666666" stroke="#666666" points="25,-203.5 25,-203.5 134,-203.5 134,-203.5 25,-203.5"/>
<polygon fill="none" stroke="#666666" points="0,-97 0,-236 134,-236 134,-97 0,-97"/>
</a>
</g>
</g>
<!-- Node2&#45;&gt;Node1 -->
<g id="edge1_Node000001_Node000002" class="edge">
<title>Node2&#45;&gt;Node1</title>
<g id="a_edge1_Node000001_Node000002"><a xlink:title=" ">
<path fill="none" stroke="#63b8ff" d="M111.41,-87.92C117.08,-78.03 122.57,-68.44 127.38,-60.04"/>
<polygon fill="none" stroke="#63b8ff" points="108.33,-86.26 106.4,-96.67 114.41,-89.73 108.33,-86.26"/>
</a>
</g>
</g>
<!-- Node3 -->
<g id="Node000003" class="node">
<title>Node3</title>
<g id="a_Node000003"><a xlink:href="classjson__rpc_1_1Dispatcher.html" target="_top" xlink:title="A class responsible for dispatching JSON&#45;RPC requests to the appropriate handlers.">
<polygon fill="white" stroke="transparent" points="130,-392 4,-392 4,-283 130,-283 130,-392"/>
<text text-anchor="start" x="17" y="-379.5" font-family="Helvetica,sans-Serif" font-size="10.00">json_rpc::Dispatcher</text>
<text text-anchor="start" x="65" y="-364.5" font-family="Helvetica,sans-Serif" font-size="10.00"> </text>
<text text-anchor="start" x="8" y="-349.5" font-family="Helvetica,sans-Serif" font-size="10.00">+</text>
<text text-anchor="start" x="21" y="-349.5" font-family="Helvetica,sans-Serif" font-size="10.00">Dispatcher()</text>
<text text-anchor="start" x="8" y="-334.5" font-family="Helvetica,sans-Serif" font-size="10.00">+</text>
<text text-anchor="start" x="21" y="-334.5" font-family="Helvetica,sans-Serif" font-size="10.00">~Dispatcher()</text>
<text text-anchor="start" x="8" y="-319.5" font-family="Helvetica,sans-Serif" font-size="10.00">+</text>
<text text-anchor="start" x="21" y="-319.5" font-family="Helvetica,sans-Serif" font-size="10.00">DispatchRequest()</text>
<text text-anchor="start" x="8" y="-304.5" font-family="Helvetica,sans-Serif" font-size="10.00">+</text>
<text text-anchor="start" x="21" y="-304.5" font-family="Helvetica,sans-Serif" font-size="10.00">RegisterMethodCall()</text>
<text text-anchor="start" x="8" y="-289.5" font-family="Helvetica,sans-Serif" font-size="10.00">+</text>
<text text-anchor="start" x="21" y="-289.5" font-family="Helvetica,sans-Serif" font-size="10.00">RegisterNotification()</text>
<polygon fill="#666666" stroke="#666666" points="4,-374.5 4,-374.5 130,-374.5 130,-374.5 4,-374.5"/>
<polygon fill="#666666" stroke="#666666" points="4,-359.5 4,-359.5 130,-359.5 130,-359.5 4,-359.5"/>
<polygon fill="none" stroke="#666666" points="4,-283 4,-392 130,-392 130,-283 4,-283"/>
</a>
</g>
</g>
<!-- Node3&#45;&gt;Node2 -->
<g id="edge2_Node000002_Node000003" class="edge">
<title>Node3&#45;&gt;Node2</title>
<g id="a_edge2_Node000002_Node000003"><a xlink:title=" ">
<path fill="none" stroke="#63b8ff" d="M67,-282.56C67,-271.59 67,-259.83 67,-248.16"/>
<polygon fill="none" stroke="#63b8ff" points="67,-248.08 63,-242.08 67,-236.08 71,-242.08 67,-248.08"/>
</a>
</g>
<text text-anchor="middle" x="101" y="-257" font-family="Helvetica,sans-Serif" font-size="10.00" fill="grey"> #dispatcher_</text>
</g>
<!-- Node4 -->
<g id="Node000004" class="node">
<title>Node4</title>
<g id="a_Node000004"><a xlink:href="classjson__rpc_1_1FramedTransport.html" target="_top" xlink:title="Base class for framed transport mechanisms.">
<polygon fill="white" stroke="transparent" points="291.5,-198.5 152.5,-198.5 152.5,-134.5 291.5,-134.5 291.5,-198.5"/>
<text text-anchor="start" x="158" y="-186.5" font-family="Helvetica,sans-Serif" font-size="10.00">json_rpc::FramedTransport</text>
<text text-anchor="start" x="220.5" y="-171.5" font-family="Helvetica,sans-Serif" font-size="10.00"> </text>
<text text-anchor="start" x="163.5" y="-156.5" font-family="Helvetica,sans-Serif" font-size="10.00">#</text>
<text text-anchor="start" x="183" y="-156.5" font-family="Helvetica,sans-Serif" font-size="10.00">SendMessage()</text>
<text text-anchor="start" x="163.5" y="-141.5" font-family="Helvetica,sans-Serif" font-size="10.00">#</text>
<text text-anchor="start" x="183" y="-141.5" font-family="Helvetica,sans-Serif" font-size="10.00">ReceiveMessage()</text>
<polygon fill="#666666" stroke="#666666" points="153,-181.5 153,-181.5 292,-181.5 292,-181.5 153,-181.5"/>
<polygon fill="#666666" stroke="#666666" points="153,-166.5 153,-166.5 292,-166.5 292,-166.5 153,-166.5"/>
<polygon fill="none" stroke="#666666" points="152.5,-134.5 152.5,-198.5 291.5,-198.5 291.5,-134.5 152.5,-134.5"/>
</a>
</g>
</g>
<!-- Node4&#45;&gt;Node1 -->
<g id="edge3_Node000001_Node000004" class="edge">
<title>Node4&#45;&gt;Node1</title>
<g id="a_edge3_Node000001_Node000004"><a xlink:title=" ">
<path fill="none" stroke="darkgreen" d="M198.86,-125.6C186.69,-104.61 172.03,-79.33 160.92,-60.18"/>
<polygon fill="none" stroke="darkgreen" points="195.86,-127.41 203.91,-134.3 201.92,-123.9 195.86,-127.41"/>
</a>
</g>
</g>
</g>
</svg>
