<?xml version="1.0" encoding="UTF-8" standalone="no"?>
<!DOCTYPE svg PUBLIC "-//W3C//DTD SVG 1.1//EN"
 "http://www.w3.org/Graphics/SVG/1.1/DTD/svg11.dtd">
<!-- Generated by graphviz version 2.43.0 (0)
 -->
<!-- Title: jsonrpc::FramedTransport::DeframeMessage Pages: 1 -->
<svg width="335pt" height="86pt"
 viewBox="0.00 0.00 335.00 86.00" xmlns="http://www.w3.org/2000/svg" xmlns:xlink="http://www.w3.org/1999/xlink">
<g id="graph0" class="graph" transform="scale(1 1) rotate(0) translate(4 82)">
<title>jsonrpc::FramedTransport::DeframeMessage</title>
<!-- Node1 -->
<g id="Node000001" class="node">
<title>Node1</title>
<g id="a_Node000001"><a xlink:title="Receives a framed message.">
<polygon fill="#999999" stroke="#666666" points="327,-54 187,-54 187,-24 327,-24 327,-54"/>
<text text-anchor="start" x="195" y="-42" font-family="Helvetica,sans-Serif" font-size="10.00">jsonrpc::FramedTransport</text>
<text text-anchor="middle" x="257" y="-31" font-family="Helvetica,sans-Serif" font-size="10.00">::DeframeMessage</text>
</a>
</g>
</g>
<!-- Node2 -->
<g id="Node000002" class="node">
<title>Node2</title>
<g id="a_Node000002"><a xlink:href="classjsonrpc_1_1FramedStdioServerTransport.html#a5cd63df458df0cfd7d0d2c645e08b5fb" target="_top" xlink:title="Listens for incoming messages and dispatches them to the appropriate handlers.">
<polygon fill="white" stroke="#666666" points="151,-78 0,-78 0,-48 151,-48 151,-78"/>
<text text-anchor="start" x="8" y="-66" font-family="Helvetica,sans-Serif" font-size="10.00">jsonrpc::FramedStdioServer</text>
<text text-anchor="middle" x="75.5" y="-55" font-family="Helvetica,sans-Serif" font-size="10.00">Transport::Listen</text>
</a>
</g>
</g>
<!-- Node1&#45;&gt;Node2 -->
<g id="edge1_Node000001_Node000002" class="edge">
<title>Node1&#45;&gt;Node2</title>
<g id="a_edge1_Node000001_Node000002"><a xlink:title=" ">
<path fill="none" stroke="#63b8ff" d="M176.93,-49.57C168.4,-50.71 159.74,-51.87 151.27,-53"/>
<polygon fill="#63b8ff" stroke="#63b8ff" points="177.41,-53.04 186.86,-48.24 176.48,-46.1 177.41,-53.04"/>
</a>
</g>
</g>
<!-- Node3 -->
<g id="Node000003" class="node">
<title>Node3</title>
<g id="a_Node000003"><a xlink:href="classjsonrpc_1_1FramedStdioClientTransport.html#a06a47c1a679a32aee73f536f9c7d1153" target="_top" xlink:title="Reads a JSON&#45;RPC response.">
<polygon fill="white" stroke="#666666" points="149.5,-30 1.5,-30 1.5,0 149.5,0 149.5,-30"/>
<text text-anchor="start" x="9.5" y="-18" font-family="Helvetica,sans-Serif" font-size="10.00">jsonrpc::FramedStdioClient</text>
<text text-anchor="middle" x="75.5" y="-7" font-family="Helvetica,sans-Serif" font-size="10.00">Transport::ReadResponse</text>
</a>
</g>
</g>
<!-- Node1&#45;&gt;Node3 -->
<g id="edge2_Node000001_Node000003" class="edge">
<title>Node1&#45;&gt;Node3</title>
<g id="a_edge2_Node000001_Node000003"><a xlink:title=" ">
<path fill="none" stroke="#63b8ff" d="M176.79,-28.41C167.81,-27.21 158.68,-25.99 149.77,-24.8"/>
<polygon fill="#63b8ff" stroke="#63b8ff" points="176.48,-31.9 186.86,-29.76 177.41,-24.96 176.48,-31.9"/>
</a>
</g>
</g>
</g>
</svg>
