<?xml version="1.0" encoding="UTF-8" standalone="no"?>
<!DOCTYPE svg PUBLIC "-//W3C//DTD SVG 1.1//EN"
 "http://www.w3.org/Graphics/SVG/1.1/DTD/svg11.dtd">
<!-- Generated by graphviz version 2.43.0 (0)
 -->
<!-- Title: json_rpc::FramedStdioServerTransport::Listen Pages: 1 -->
<svg width="491pt" height="206pt"
 viewBox="0.00 0.00 491.00 206.00" xmlns="http://www.w3.org/2000/svg" xmlns:xlink="http://www.w3.org/1999/xlink">
<g id="graph0" class="graph" transform="scale(1 1) rotate(0) translate(4 202)">
<title>json_rpc::FramedStdioServerTransport::Listen</title>
<!-- Node1 -->
<g id="Node000001" class="node">
<title>Node1</title>
<g id="a_Node000001"><a xlink:title="Listens for incoming messages and dispatches them to the appropriate handlers.">
<polygon fill="#999999" stroke="#666666" points="156,-102 0,-102 0,-72 156,-72 156,-102"/>
<text text-anchor="start" x="8" y="-90" font-family="Helvetica,sans-Serif" font-size="10.00">json_rpc::FramedStdioServer</text>
<text text-anchor="middle" x="78" y="-79" font-family="Helvetica,sans-Serif" font-size="10.00">Transport::Listen</text>
</a>
</g>
</g>
<!-- Node2 -->
<g id="Node000002" class="node">
<title>Node2</title>
<g id="a_Node000002"><a xlink:href="classjson__rpc_1_1Dispatcher.html#a7ae947579557272d7d3c310325ca7c13" target="_top" xlink:title="Dispatches an RPC request to the appropriate handler.">
<polygon fill="white" stroke="#666666" points="322.5,-174 206.5,-174 206.5,-144 322.5,-144 322.5,-174"/>
<text text-anchor="start" x="214.5" y="-162" font-family="Helvetica,sans-Serif" font-size="10.00">json_rpc::Dispatcher</text>
<text text-anchor="middle" x="264.5" y="-151" font-family="Helvetica,sans-Serif" font-size="10.00">::DispatchRequest</text>
</a>
</g>
</g>
<!-- Node1&#45;&gt;Node2 -->
<g id="edge1_Node000001_Node000002" class="edge">
<title>Node1&#45;&gt;Node2</title>
<g id="a_edge1_Node000001_Node000002"><a xlink:title=" ">
<path fill="none" stroke="#63b8ff" d="M112.84,-102.19C135.14,-112 165.1,-124.79 192,-135 196.85,-136.84 201.91,-138.69 207,-140.49"/>
<polygon fill="#63b8ff" stroke="#63b8ff" points="206.18,-143.91 216.78,-143.9 208.49,-137.3 206.18,-143.91"/>
</a>
</g>
</g>
<!-- Node5 -->
<g id="Node000005" class="node">
<title>Node5</title>
<g id="a_Node000005"><a xlink:href="classjson__rpc_1_1ServerTransport.html#a906c506a024fa0a2c3c556338a1117c2" target="_top" xlink:title="Checks if the transport is running.">
<polygon fill="white" stroke="#666666" points="334.5,-126 194.5,-126 194.5,-96 334.5,-96 334.5,-126"/>
<text text-anchor="start" x="202.5" y="-114" font-family="Helvetica,sans-Serif" font-size="10.00">json_rpc::ServerTransport</text>
<text text-anchor="middle" x="264.5" y="-103" font-family="Helvetica,sans-Serif" font-size="10.00">::IsRunning</text>
</a>
</g>
</g>
<!-- Node1&#45;&gt;Node5 -->
<g id="edge4_Node000001_Node000005" class="edge">
<title>Node1&#45;&gt;Node5</title>
<g id="a_edge4_Node000001_Node000005"><a xlink:title=" ">
<path fill="none" stroke="#63b8ff" d="M156.18,-97.04C165.46,-98.25 174.95,-99.48 184.26,-100.69"/>
<polygon fill="#63b8ff" stroke="#63b8ff" points="183.91,-104.18 194.27,-102 184.81,-97.23 183.91,-104.18"/>
</a>
</g>
</g>
<!-- Node6 -->
<g id="Node000006" class="node">
<title>Node6</title>
<g id="a_Node000006"><a xlink:href="classjson__rpc_1_1FramedTransport.html#a856a511e9ddc74f451645d3801007c17" target="_top" xlink:title="Receives a framed message.">
<polygon fill="white" stroke="#666666" points="337,-78 192,-78 192,-48 337,-48 337,-78"/>
<text text-anchor="start" x="200" y="-66" font-family="Helvetica,sans-Serif" font-size="10.00">json_rpc::FramedTransport</text>
<text text-anchor="middle" x="264.5" y="-55" font-family="Helvetica,sans-Serif" font-size="10.00">::ReceiveMessage</text>
</a>
</g>
</g>
<!-- Node1&#45;&gt;Node6 -->
<g id="edge5_Node000001_Node000006" class="edge">
<title>Node1&#45;&gt;Node6</title>
<g id="a_edge5_Node000001_Node000006"><a xlink:title=" ">
<path fill="none" stroke="#63b8ff" d="M156.18,-76.96C164.69,-75.85 173.39,-74.72 181.95,-73.61"/>
<polygon fill="#63b8ff" stroke="#63b8ff" points="182.47,-77.07 191.94,-72.31 181.57,-70.13 182.47,-77.07"/>
</a>
</g>
</g>
<!-- Node7 -->
<g id="Node000007" class="node">
<title>Node7</title>
<g id="a_Node000007"><a xlink:href="classjson__rpc_1_1FramedTransport.html#a067346319d9f5af26a34b63ae91175be" target="_top" xlink:title="Sends a framed message.">
<polygon fill="white" stroke="#666666" points="337,-30 192,-30 192,0 337,0 337,-30"/>
<text text-anchor="start" x="200" y="-18" font-family="Helvetica,sans-Serif" font-size="10.00">json_rpc::FramedTransport</text>
<text text-anchor="middle" x="264.5" y="-7" font-family="Helvetica,sans-Serif" font-size="10.00">::SendMessage</text>
</a>
</g>
</g>
<!-- Node1&#45;&gt;Node7 -->
<g id="edge6_Node000001_Node000007" class="edge">
<title>Node1&#45;&gt;Node7</title>
<g id="a_edge6_Node000001_Node000007"><a xlink:title=" ">
<path fill="none" stroke="#63b8ff" d="M112.84,-71.81C135.14,-62 165.1,-49.21 192,-39 196.85,-37.16 201.91,-35.31 207,-33.51"/>
<polygon fill="#63b8ff" stroke="#63b8ff" points="208.49,-36.7 216.78,-30.1 206.18,-30.09 208.49,-36.7"/>
</a>
</g>
</g>
<!-- Node3 -->
<g id="Node000003" class="node">
<title>Node3</title>
<g id="a_Node000003"><a xlink:href="classjson__rpc_1_1Response.html#a103427d492c8a81ad1d169e2516695a2" target="_top" xlink:title="Creates a Response object for a library error.">
<polygon fill="white" stroke="#666666" points="483,-198 373,-198 373,-168 483,-168 483,-198"/>
<text text-anchor="start" x="381" y="-186" font-family="Helvetica,sans-Serif" font-size="10.00">json_rpc::Response</text>
<text text-anchor="middle" x="428" y="-175" font-family="Helvetica,sans-Serif" font-size="10.00">::CreateLibError</text>
</a>
</g>
</g>
<!-- Node2&#45;&gt;Node3 -->
<g id="edge2_Node000002_Node000003" class="edge">
<title>Node2&#45;&gt;Node3</title>
<g id="a_edge2_Node000002_Node000003"><a xlink:title=" ">
<path fill="none" stroke="#63b8ff" d="M322.89,-167.53C335.83,-169.45 349.63,-171.5 362.82,-173.46"/>
<polygon fill="#63b8ff" stroke="#63b8ff" points="362.36,-176.93 372.76,-174.94 363.39,-170.01 362.36,-176.93"/>
</a>
</g>
</g>
<!-- Node4 -->
<g id="Node000004" class="node">
<title>Node4</title>
<g id="a_Node000004"><a xlink:href="classjson__rpc_1_1Response.html#abe6908720f1e791dc06af7a7efba49c5" target="_top" xlink:title="Serializes the Response object to a string.">
<polygon fill="white" stroke="#666666" points="483,-150 373,-150 373,-120 483,-120 483,-150"/>
<text text-anchor="start" x="381" y="-138" font-family="Helvetica,sans-Serif" font-size="10.00">json_rpc::Response</text>
<text text-anchor="middle" x="428" y="-127" font-family="Helvetica,sans-Serif" font-size="10.00">::ToStr</text>
</a>
</g>
</g>
<!-- Node2&#45;&gt;Node4 -->
<g id="edge3_Node000002_Node000004" class="edge">
<title>Node2&#45;&gt;Node4</title>
<g id="a_edge3_Node000002_Node000004"><a xlink:title=" ">
<path fill="none" stroke="#63b8ff" d="M322.89,-150.47C335.83,-148.55 349.63,-146.5 362.82,-144.54"/>
<polygon fill="#63b8ff" stroke="#63b8ff" points="363.39,-147.99 372.76,-143.06 362.36,-141.07 363.39,-147.99"/>
</a>
</g>
</g>
</g>
</svg>
