<?xml version="1.0" encoding="UTF-8" standalone="no"?>
<!DOCTYPE svg PUBLIC "-//W3C//DTD SVG 1.1//EN"
 "http://www.w3.org/Graphics/SVG/1.1/DTD/svg11.dtd">
<!-- Generated by graphviz version 2.43.0 (0)
 -->
<!-- Title: jsonrpc::transport::FramedPipeTransport::SendMessage Pages: 1 -->
<svg width="354pt" height="86pt"
 viewBox="0.00 0.00 354.00 86.00" xmlns="http://www.w3.org/2000/svg" xmlns:xlink="http://www.w3.org/1999/xlink">
<g id="graph0" class="graph" transform="scale(1 1) rotate(0) translate(4 82)">
<title>jsonrpc::transport::FramedPipeTransport::SendMessage</title>
<!-- Node1 -->
<g id="Node000001" class="node">
<title>Node1</title>
<g id="a_Node000001"><a xlink:title="Sends a message in string to the transport layer.">
<polygon fill="#999999" stroke="#666666" points="125,-59.5 0,-59.5 0,-18.5 125,-18.5 125,-59.5"/>
<text text-anchor="start" x="8" y="-47.5" font-family="Helvetica,sans-Serif" font-size="10.00">jsonrpc::transport</text>
<text text-anchor="start" x="8" y="-36.5" font-family="Helvetica,sans-Serif" font-size="10.00">::FramedPipeTransport</text>
<text text-anchor="middle" x="62.5" y="-25.5" font-family="Helvetica,sans-Serif" font-size="10.00">::SendMessage</text>
</a>
</g>
</g>
<!-- Node2 -->
<g id="Node000002" class="node">
<title>Node2</title>
<g id="a_Node000002"><a xlink:href="classjsonrpc_1_1transport_1_1FramedTransport.html#ae5317dd37dd2638b8e7c013854719dec" target="_top" xlink:title="Constructs a framed message.">
<polygon fill="white" stroke="#666666" points="346,-78 161,-78 161,-48 346,-48 346,-78"/>
<text text-anchor="start" x="169" y="-66" font-family="Helvetica,sans-Serif" font-size="10.00">jsonrpc::transport</text>
<text text-anchor="middle" x="253.5" y="-55" font-family="Helvetica,sans-Serif" font-size="10.00">::FramedTransport::FrameMessage</text>
</a>
</g>
</g>
<!-- Node1&#45;&gt;Node2 -->
<g id="edge1_Node000001_Node000002" class="edge">
<title>Node1&#45;&gt;Node2</title>
<g id="a_edge1_Node000001_Node000002"><a xlink:title=" ">
<path fill="none" stroke="#63b8ff" d="M125.12,-46.83C133.33,-47.87 141.92,-48.96 150.59,-50.06"/>
<polygon fill="#63b8ff" stroke="#63b8ff" points="150.42,-53.57 160.78,-51.35 151.3,-46.62 150.42,-53.57"/>
</a>
</g>
</g>
<!-- Node3 -->
<g id="Node000003" class="node">
<title>Node3</title>
<g id="a_Node000003"><a xlink:href="classjsonrpc_1_1transport_1_1PipeTransport.html#a4bede5a046b267abd6c86e7afe22b765" target="_top" xlink:title=" ">
<polygon fill="white" stroke="#666666" points="325.5,-30 181.5,-30 181.5,0 325.5,0 325.5,-30"/>
<text text-anchor="start" x="189.5" y="-18" font-family="Helvetica,sans-Serif" font-size="10.00">jsonrpc::transport</text>
<text text-anchor="middle" x="253.5" y="-7" font-family="Helvetica,sans-Serif" font-size="10.00">::PipeTransport::GetSocket</text>
</a>
</g>
</g>
<!-- Node1&#45;&gt;Node3 -->
<g id="edge2_Node000001_Node000003" class="edge">
<title>Node1&#45;&gt;Node3</title>
<g id="a_edge2_Node000001_Node000003"><a xlink:title=" ">
<path fill="none" stroke="#63b8ff" d="M125.12,-31.17C139.88,-29.3 155.86,-27.27 171.35,-25.3"/>
<polygon fill="#63b8ff" stroke="#63b8ff" points="171.96,-28.76 181.44,-24.02 171.08,-21.81 171.96,-28.76"/>
</a>
</g>
</g>
</g>
</svg>
