<?xml version="1.0" encoding="UTF-8" standalone="no"?>
<!DOCTYPE svg PUBLIC "-//W3C//DTD SVG 1.1//EN"
 "http://www.w3.org/Graphics/SVG/1.1/DTD/svg11.dtd">
<!-- Generated by graphviz version 2.43.0 (0)
 -->
<!-- Title: jsonrpc::transport::FramedTransport::ReceiveFramedMessage Pages: 1 -->
<svg width="719pt" height="98pt"
 viewBox="0.00 0.00 719.00 97.50" xmlns="http://www.w3.org/2000/svg" xmlns:xlink="http://www.w3.org/1999/xlink">
<g id="graph0" class="graph" transform="scale(1 1) rotate(0) translate(4 93.5)">
<title>jsonrpc::transport::FramedTransport::ReceiveFramedMessage</title>
<!-- Node1 -->
<g id="Node000001" class="node">
<title>Node1</title>
<g id="a_Node000001"><a xlink:title="Receives a framed message.">
<polygon fill="#999999" stroke="#666666" points="149,-68 0,-68 0,-27 149,-27 149,-68"/>
<text text-anchor="start" x="8" y="-56" font-family="Helvetica,sans-Serif" font-size="10.00">jsonrpc::transport</text>
<text text-anchor="start" x="8" y="-45" font-family="Helvetica,sans-Serif" font-size="10.00">::FramedTransport::Receive</text>
<text text-anchor="middle" x="74.5" y="-34" font-family="Helvetica,sans-Serif" font-size="10.00">FramedMessage</text>
</a>
</g>
</g>
<!-- Node2 -->
<g id="Node000002" class="node">
<title>Node2</title>
<g id="a_Node000002"><a xlink:href="classjsonrpc_1_1transport_1_1FramedTransport.html#ab3aa716415afe7fe695502cc47a30c82" target="_top" xlink:title="Reads content from the input stream based on the content length.">
<polygon fill="white" stroke="#666666" points="358,-89.5 185,-89.5 185,-59.5 358,-59.5 358,-89.5"/>
<text text-anchor="start" x="193" y="-77.5" font-family="Helvetica,sans-Serif" font-size="10.00">jsonrpc::transport</text>
<text text-anchor="middle" x="271.5" y="-66.5" font-family="Helvetica,sans-Serif" font-size="10.00">::FramedTransport::ReadContent</text>
</a>
</g>
</g>
<!-- Node1&#45;&gt;Node2 -->
<g id="edge1_Node000001_Node000002" class="edge">
<title>Node1&#45;&gt;Node2</title>
<g id="a_edge1_Node000001_Node000002"><a xlink:title=" ">
<path fill="none" stroke="#63b8ff" d="M149.22,-57.71C157.59,-58.87 166.21,-60.06 174.82,-61.25"/>
<polygon fill="#63b8ff" stroke="#63b8ff" points="174.5,-64.74 184.89,-62.65 175.46,-57.81 174.5,-64.74"/>
</a>
</g>
</g>
<!-- Node3 -->
<g id="Node000003" class="node">
<title>Node3</title>
<g id="a_Node000003"><a xlink:href="classjsonrpc_1_1transport_1_1FramedTransport.html#abc9bb6673778ecab6c5b9f8d50d44574" target="_top" xlink:title=" ">
<polygon fill="white" stroke="#666666" points="358,-41 185,-41 185,0 358,0 358,-41"/>
<text text-anchor="start" x="193" y="-29" font-family="Helvetica,sans-Serif" font-size="10.00">jsonrpc::transport</text>
<text text-anchor="start" x="193" y="-18" font-family="Helvetica,sans-Serif" font-size="10.00">::FramedTransport::ReadContent</text>
<text text-anchor="middle" x="271.5" y="-7" font-family="Helvetica,sans-Serif" font-size="10.00">LengthFromStream</text>
</a>
</g>
</g>
<!-- Node1&#45;&gt;Node3 -->
<g id="edge2_Node000001_Node000003" class="edge">
<title>Node1&#45;&gt;Node3</title>
<g id="a_edge2_Node000001_Node000003"><a xlink:title=" ">
<path fill="none" stroke="#63b8ff" d="M149.22,-37.29C157.59,-36.13 166.21,-34.94 174.82,-33.75"/>
<polygon fill="#63b8ff" stroke="#63b8ff" points="175.46,-37.19 184.89,-32.35 174.5,-30.26 175.46,-37.19"/>
</a>
</g>
</g>
<!-- Node4 -->
<g id="Node000004" class="node">
<title>Node4</title>
<g id="a_Node000004"><a xlink:href="classjsonrpc_1_1transport_1_1FramedTransport.html#adcfc8964bb8112eea2daaff3ac23d9cc" target="_top" xlink:title=" ">
<polygon fill="white" stroke="#666666" points="570,-41 394,-41 394,0 570,0 570,-41"/>
<text text-anchor="start" x="402" y="-29" font-family="Helvetica,sans-Serif" font-size="10.00">jsonrpc::transport</text>
<text text-anchor="start" x="402" y="-18" font-family="Helvetica,sans-Serif" font-size="10.00">::FramedTransport::ReadHeaders</text>
<text text-anchor="middle" x="482" y="-7" font-family="Helvetica,sans-Serif" font-size="10.00">FromStream</text>
</a>
</g>
</g>
<!-- Node3&#45;&gt;Node4 -->
<g id="edge3_Node000003_Node000004" class="edge">
<title>Node3&#45;&gt;Node4</title>
<g id="a_edge3_Node000003_Node000004"><a xlink:title=" ">
<path fill="none" stroke="#63b8ff" d="M358.21,-20.5C366.68,-20.5 375.33,-20.5 383.91,-20.5"/>
<polygon fill="#63b8ff" stroke="#63b8ff" points="383.94,-24 393.94,-20.5 383.94,-17 383.94,-24"/>
</a>
</g>
</g>
<!-- Node5 -->
<g id="Node000005" class="node">
<title>Node5</title>
<g id="a_Node000005"><a xlink:href="namespacejsonrpc_1_1utils.html#a0f4ab48ccb12fe3cb75a70867a56214a" target="_top" xlink:title=" ">
<polygon fill="white" stroke="#666666" points="711,-30 606,-30 606,-11 711,-11 711,-30"/>
<text text-anchor="middle" x="658.5" y="-18" font-family="Helvetica,sans-Serif" font-size="10.00">jsonrpc::utils::trim</text>
</a>
</g>
</g>
<!-- Node4&#45;&gt;Node5 -->
<g id="edge4_Node000004_Node000005" class="edge">
<title>Node4&#45;&gt;Node5</title>
<g id="a_edge4_Node000004_Node000005"><a xlink:title=" ">
<path fill="none" stroke="#63b8ff" d="M570.25,-20.5C578.76,-20.5 587.26,-20.5 595.45,-20.5"/>
<polygon fill="#63b8ff" stroke="#63b8ff" points="595.62,-24 605.62,-20.5 595.62,-17 595.62,-24"/>
</a>
</g>
</g>
</g>
</svg>
