<?xml version="1.0" encoding="UTF-8" standalone="no"?>
<!DOCTYPE svg PUBLIC "-//W3C//DTD SVG 1.1//EN"
 "http://www.w3.org/Graphics/SVG/1.1/DTD/svg11.dtd">
<!-- Generated by graphviz version 2.43.0 (0)
 -->
<!-- Title: jsonrpc::transport::Transport Pages: 1 -->
<svg width="526pt" height="380pt"
 viewBox="0.00 0.00 525.50 380.00" xmlns="http://www.w3.org/2000/svg" xmlns:xlink="http://www.w3.org/1999/xlink">
<g id="graph0" class="graph" transform="scale(1 1) rotate(0) translate(4 376)">
<title>jsonrpc::transport::Transport</title>
<!-- Node1 -->
<g id="Node000001" class="node">
<title>Node1</title>
<g id="a_Node000001"><a xlink:title="Base class for JSON&#45;RPC transport.">
<polygon fill="#999999" stroke="transparent" points="319.5,-372 207.5,-372 207.5,-282 319.5,-282 319.5,-372"/>
<text text-anchor="start" x="220.5" y="-360" font-family="Helvetica,sans-Serif" font-size="10.00">jsonrpc::transport</text>
<text text-anchor="start" x="237.5" y="-349" font-family="Helvetica,sans-Serif" font-size="10.00">::Transport</text>
<text text-anchor="start" x="261.5" y="-334" font-family="Helvetica,sans-Serif" font-size="10.00"> </text>
<text text-anchor="start" x="211.5" y="-319" font-family="Helvetica,sans-Serif" font-size="10.00">+</text>
<text text-anchor="start" x="224.5" y="-319" font-family="Helvetica,sans-Serif" font-size="10.00">~Transport()</text>
<text text-anchor="start" x="211.5" y="-304" font-family="Helvetica,sans-Serif" font-size="10.00">+</text>
<text text-anchor="start" x="224.5" y="-304" font-family="Helvetica,sans-Serif" font-size="10.00">SendMessage()</text>
<text text-anchor="start" x="211.5" y="-289" font-family="Helvetica,sans-Serif" font-size="10.00">+</text>
<text text-anchor="start" x="224.5" y="-289" font-family="Helvetica,sans-Serif" font-size="10.00">ReceiveMessage()</text>
<polygon fill="#666666" stroke="#666666" points="207.5,-344 207.5,-344 319.5,-344 319.5,-344 207.5,-344"/>
<polygon fill="#666666" stroke="#666666" points="207.5,-329 207.5,-329 319.5,-329 319.5,-329 207.5,-329"/>
<polygon fill="none" stroke="#666666" points="207.5,-282 207.5,-372 319.5,-372 319.5,-282 207.5,-282"/>
</a>
</g>
</g>
<!-- Node2 -->
<g id="Node000002" class="node">
<title>Node2</title>
<g id="a_Node000002"><a xlink:href="classjsonrpc_1_1transport_1_1FramedStdioTransport.html" target="_top" xlink:title="Transport layer using framed messaging over standard I/O for JSON&#45;RPC communication.">
<polygon fill="white" stroke="transparent" points="123,-223.5 0,-223.5 0,-148.5 123,-148.5 123,-223.5"/>
<text text-anchor="start" x="5.5" y="-211" font-family="Helvetica,sans-Serif" font-size="10.00">jsonrpc::transport</text>
<text text-anchor="start" x="5.5" y="-200" font-family="Helvetica,sans-Serif" font-size="10.00">::FramedStdioTransport</text>
<text text-anchor="start" x="60" y="-185" font-family="Helvetica,sans-Serif" font-size="10.00"> </text>
<text text-anchor="start" x="7" y="-170" font-family="Helvetica,sans-Serif" font-size="10.00">+</text>
<text text-anchor="start" x="22.5" y="-170" font-family="Helvetica,sans-Serif" font-size="10.00">SendMessage()</text>
<text text-anchor="start" x="7" y="-155" font-family="Helvetica,sans-Serif" font-size="10.00">+</text>
<text text-anchor="start" x="22.5" y="-155" font-family="Helvetica,sans-Serif" font-size="10.00">ReceiveMessage()</text>
<polygon fill="#666666" stroke="#666666" points="0.5,-195 0.5,-195 123.5,-195 123.5,-195 0.5,-195"/>
<polygon fill="#666666" stroke="#666666" points="0.5,-180 0.5,-180 123.5,-180 123.5,-180 0.5,-180"/>
<polygon fill="none" stroke="#666666" points="0,-148.5 0,-223.5 123,-223.5 123,-148.5 0,-148.5"/>
</a>
</g>
</g>
<!-- Node1&#45;&gt;Node2 -->
<g id="edge1_Node000001_Node000002" class="edge">
<title>Node1&#45;&gt;Node2</title>
<g id="a_edge1_Node000001_Node000002"><a xlink:title=" ">
<path fill="none" stroke="#63b8ff" d="M198.5,-288.85C177.05,-275.93 153.36,-260.92 132.5,-246 122.85,-239.1 112.85,-231.26 103.5,-223.6"/>
<polygon fill="none" stroke="#63b8ff" points="196.84,-291.94 207.22,-294.06 200.43,-285.93 196.84,-291.94"/>
</a>
</g>
</g>
<!-- Node3 -->
<g id="Node000003" class="node">
<title>Node3</title>
<g id="a_Node000003"><a xlink:href="classjsonrpc_1_1transport_1_1PipeTransport.html" target="_top" xlink:title="Transport implementation using Unix domain sockets.">
<polygon fill="white" stroke="transparent" points="253.5,-246 141.5,-246 141.5,-126 253.5,-126 253.5,-246"/>
<text text-anchor="start" x="154.5" y="-234" font-family="Helvetica,sans-Serif" font-size="10.00">jsonrpc::transport</text>
<text text-anchor="start" x="161" y="-223" font-family="Helvetica,sans-Serif" font-size="10.00">::PipeTransport</text>
<text text-anchor="start" x="195.5" y="-208" font-family="Helvetica,sans-Serif" font-size="10.00"> </text>
<text text-anchor="start" x="145.5" y="-193" font-family="Helvetica,sans-Serif" font-size="10.00">+</text>
<text text-anchor="start" x="158.5" y="-193" font-family="Helvetica,sans-Serif" font-size="10.00">PipeTransport()</text>
<text text-anchor="start" x="145.5" y="-178" font-family="Helvetica,sans-Serif" font-size="10.00">+</text>
<text text-anchor="start" x="158.5" y="-178" font-family="Helvetica,sans-Serif" font-size="10.00">~PipeTransport()</text>
<text text-anchor="start" x="145.5" y="-163" font-family="Helvetica,sans-Serif" font-size="10.00">+</text>
<text text-anchor="start" x="158.5" y="-163" font-family="Helvetica,sans-Serif" font-size="10.00">SendMessage()</text>
<text text-anchor="start" x="145.5" y="-148" font-family="Helvetica,sans-Serif" font-size="10.00">+</text>
<text text-anchor="start" x="158.5" y="-148" font-family="Helvetica,sans-Serif" font-size="10.00">ReceiveMessage()</text>
<text text-anchor="start" x="145.5" y="-133" font-family="Helvetica,sans-Serif" font-size="10.00">#</text>
<text text-anchor="start" x="158.5" y="-133" font-family="Helvetica,sans-Serif" font-size="10.00">GetSocket()</text>
<polygon fill="#666666" stroke="#666666" points="141.5,-218 141.5,-218 253.5,-218 253.5,-218 141.5,-218"/>
<polygon fill="#666666" stroke="#666666" points="141.5,-203 141.5,-203 253.5,-203 253.5,-203 141.5,-203"/>
<polygon fill="none" stroke="#666666" points="141.5,-126 141.5,-246 253.5,-246 253.5,-126 141.5,-126"/>
</a>
</g>
</g>
<!-- Node1&#45;&gt;Node3 -->
<g id="edge2_Node000001_Node000003" class="edge">
<title>Node1&#45;&gt;Node3</title>
<g id="a_edge2_Node000001_Node000003"><a xlink:title=" ">
<path fill="none" stroke="#63b8ff" d="M238.08,-272.46C233.99,-263.85 229.74,-254.89 225.59,-246.16"/>
<polygon fill="none" stroke="#63b8ff" points="234.98,-274.11 242.44,-281.64 241.31,-271.1 234.98,-274.11"/>
</a>
</g>
</g>
<!-- Node5 -->
<g id="Node000005" class="node">
<title>Node5</title>
<g id="a_Node000005"><a xlink:href="classjsonrpc_1_1transport_1_1SocketTransport.html" target="_top" xlink:title="Transport implementation using TCP/IP sockets.">
<polygon fill="white" stroke="transparent" points="387,-246 272,-246 272,-126 387,-126 387,-246"/>
<text text-anchor="start" x="287" y="-234" font-family="Helvetica,sans-Serif" font-size="10.00">jsonrpc::transport</text>
<text text-anchor="start" x="288" y="-223" font-family="Helvetica,sans-Serif" font-size="10.00">::SocketTransport</text>
<text text-anchor="start" x="328" y="-208" font-family="Helvetica,sans-Serif" font-size="10.00"> </text>
<text text-anchor="start" x="276.5" y="-193" font-family="Helvetica,sans-Serif" font-size="10.00">+</text>
<text text-anchor="start" x="289.5" y="-193" font-family="Helvetica,sans-Serif" font-size="10.00">SocketTransport()</text>
<text text-anchor="start" x="276.5" y="-178" font-family="Helvetica,sans-Serif" font-size="10.00">+</text>
<text text-anchor="start" x="289.5" y="-178" font-family="Helvetica,sans-Serif" font-size="10.00">~SocketTransport()</text>
<text text-anchor="start" x="276.5" y="-163" font-family="Helvetica,sans-Serif" font-size="10.00">+</text>
<text text-anchor="start" x="289.5" y="-163" font-family="Helvetica,sans-Serif" font-size="10.00">SendMessage()</text>
<text text-anchor="start" x="276.5" y="-148" font-family="Helvetica,sans-Serif" font-size="10.00">+</text>
<text text-anchor="start" x="289.5" y="-148" font-family="Helvetica,sans-Serif" font-size="10.00">ReceiveMessage()</text>
<text text-anchor="start" x="276.5" y="-133" font-family="Helvetica,sans-Serif" font-size="10.00">#</text>
<text text-anchor="start" x="289.5" y="-133" font-family="Helvetica,sans-Serif" font-size="10.00">GetSocket()</text>
<polygon fill="#666666" stroke="#666666" points="272.5,-218 272.5,-218 387.5,-218 387.5,-218 272.5,-218"/>
<polygon fill="#666666" stroke="#666666" points="272.5,-203 272.5,-203 387.5,-203 387.5,-203 272.5,-203"/>
<polygon fill="none" stroke="#666666" points="272,-126 272,-246 387,-246 387,-126 272,-126"/>
</a>
</g>
</g>
<!-- Node1&#45;&gt;Node5 -->
<g id="edge4_Node000001_Node000005" class="edge">
<title>Node1&#45;&gt;Node5</title>
<g id="a_edge4_Node000001_Node000005"><a xlink:title=" ">
<path fill="none" stroke="#63b8ff" d="M288.92,-272.46C293.01,-263.85 297.26,-254.89 301.41,-246.16"/>
<polygon fill="none" stroke="#63b8ff" points="285.69,-271.1 284.56,-281.64 292.02,-274.11 285.69,-271.1"/>
</a>
</g>
</g>
<!-- Node7 -->
<g id="Node000007" class="node">
<title>Node7</title>
<g id="a_Node000007"><a xlink:href="classjsonrpc_1_1transport_1_1StdioTransport.html" target="_top" xlink:title="Transport layer using standard I/O for JSON&#45;RPC communication.">
<polygon fill="white" stroke="transparent" points="517.5,-223.5 405.5,-223.5 405.5,-148.5 517.5,-148.5 517.5,-223.5"/>
<text text-anchor="start" x="418.5" y="-211" font-family="Helvetica,sans-Serif" font-size="10.00">jsonrpc::transport</text>
<text text-anchor="start" x="423.5" y="-200" font-family="Helvetica,sans-Serif" font-size="10.00">::StdioTransport</text>
<text text-anchor="start" x="459.5" y="-185" font-family="Helvetica,sans-Serif" font-size="10.00"> </text>
<text text-anchor="start" x="409.5" y="-170" font-family="Helvetica,sans-Serif" font-size="10.00">+</text>
<text text-anchor="start" x="422.5" y="-170" font-family="Helvetica,sans-Serif" font-size="10.00">SendMessage()</text>
<text text-anchor="start" x="409.5" y="-155" font-family="Helvetica,sans-Serif" font-size="10.00">+</text>
<text text-anchor="start" x="422.5" y="-155" font-family="Helvetica,sans-Serif" font-size="10.00">ReceiveMessage()</text>
<polygon fill="#666666" stroke="#666666" points="405.5,-195 405.5,-195 517.5,-195 517.5,-195 405.5,-195"/>
<polygon fill="#666666" stroke="#666666" points="405.5,-180 405.5,-180 517.5,-180 517.5,-180 405.5,-180"/>
<polygon fill="none" stroke="#666666" points="405.5,-148.5 405.5,-223.5 517.5,-223.5 517.5,-148.5 405.5,-148.5"/>
</a>
</g>
</g>
<!-- Node1&#45;&gt;Node7 -->
<g id="edge6_Node000001_Node000007" class="edge">
<title>Node1&#45;&gt;Node7</title>
<g id="a_edge6_Node000001_Node000007"><a xlink:title=" ">
<path fill="none" stroke="#63b8ff" d="M328.44,-290.37C350.63,-277.31 375.21,-261.82 396.5,-246 405.67,-239.18 415.05,-231.29 423.72,-223.55"/>
<polygon fill="none" stroke="#63b8ff" points="326.62,-287.38 319.74,-295.44 330.14,-293.43 326.62,-287.38"/>
</a>
</g>
</g>
<!-- Node4 -->
<g id="Node000004" class="node">
<title>Node4</title>
<g id="a_Node000004"><a xlink:href="classjsonrpc_1_1transport_1_1FramedPipeTransport.html" target="_top" xlink:title="Transport layer using Asio Unix domain sockets for JSON&#45;RPC communication with framing.">
<polygon fill="white" stroke="transparent" points="251.5,-90 119.5,-90 119.5,0 251.5,0 251.5,-90"/>
<text text-anchor="start" x="131" y="-78" font-family="Helvetica,sans-Serif" font-size="10.00">jsonrpc::transport</text>
<text text-anchor="start" x="131" y="-67" font-family="Helvetica,sans-Serif" font-size="10.00">::FramedPipeTransport</text>
<text text-anchor="start" x="183.5" y="-52" font-family="Helvetica,sans-Serif" font-size="10.00"> </text>
<text text-anchor="start" x="123.5" y="-37" font-family="Helvetica,sans-Serif" font-size="10.00">+</text>
<text text-anchor="start" x="136.5" y="-37" font-family="Helvetica,sans-Serif" font-size="10.00">FramedPipeTransport()</text>
<text text-anchor="start" x="123.5" y="-22" font-family="Helvetica,sans-Serif" font-size="10.00">+</text>
<text text-anchor="start" x="136.5" y="-22" font-family="Helvetica,sans-Serif" font-size="10.00">SendMessage()</text>
<text text-anchor="start" x="123.5" y="-7" font-family="Helvetica,sans-Serif" font-size="10.00">+</text>
<text text-anchor="start" x="136.5" y="-7" font-family="Helvetica,sans-Serif" font-size="10.00">ReceiveMessage()</text>
<polygon fill="#666666" stroke="#666666" points="119.5,-62 119.5,-62 251.5,-62 251.5,-62 119.5,-62"/>
<polygon fill="#666666" stroke="#666666" points="119.5,-47 119.5,-47 251.5,-47 251.5,-47 119.5,-47"/>
<polygon fill="none" stroke="#666666" points="119.5,0 119.5,-90 251.5,-90 251.5,0 119.5,0"/>
</a>
</g>
</g>
<!-- Node3&#45;&gt;Node4 -->
<g id="edge3_Node000003_Node000004" class="edge">
<title>Node3&#45;&gt;Node4</title>
<g id="a_edge3_Node000003_Node000004"><a xlink:title=" ">
<path fill="none" stroke="#63b8ff" d="M191.5,-115.5C190.75,-106.82 190,-98.15 189.3,-90.01"/>
<polygon fill="none" stroke="#63b8ff" points="188.03,-115.99 192.38,-125.65 195,-115.38 188.03,-115.99"/>
</a>
</g>
</g>
<!-- Node6 -->
<g id="Node000006" class="node">
<title>Node6</title>
<g id="a_Node000006"><a xlink:href="classjsonrpc_1_1transport_1_1FramedSocketTransport.html" target="_top" xlink:title="Transport layer using Asio sockets for JSON&#45;RPC communication with framing.">
<polygon fill="white" stroke="transparent" points="413,-90 270,-90 270,0 413,0 413,-90"/>
<text text-anchor="start" x="281.5" y="-78" font-family="Helvetica,sans-Serif" font-size="10.00">jsonrpc::transport</text>
<text text-anchor="start" x="281.5" y="-67" font-family="Helvetica,sans-Serif" font-size="10.00">::FramedSocketTransport</text>
<text text-anchor="start" x="340" y="-52" font-family="Helvetica,sans-Serif" font-size="10.00"> </text>
<text text-anchor="start" x="274.5" y="-37" font-family="Helvetica,sans-Serif" font-size="10.00">+</text>
<text text-anchor="start" x="287.5" y="-37" font-family="Helvetica,sans-Serif" font-size="10.00">FramedSocketTransport()</text>
<text text-anchor="start" x="274.5" y="-22" font-family="Helvetica,sans-Serif" font-size="10.00">+</text>
<text text-anchor="start" x="287.5" y="-22" font-family="Helvetica,sans-Serif" font-size="10.00">SendMessage()</text>
<text text-anchor="start" x="274.5" y="-7" font-family="Helvetica,sans-Serif" font-size="10.00">+</text>
<text text-anchor="start" x="287.5" y="-7" font-family="Helvetica,sans-Serif" font-size="10.00">ReceiveMessage()</text>
<polygon fill="#666666" stroke="#666666" points="270.5,-62 270.5,-62 413.5,-62 413.5,-62 270.5,-62"/>
<polygon fill="#666666" stroke="#666666" points="270.5,-47 270.5,-47 413.5,-47 413.5,-47 270.5,-47"/>
<polygon fill="none" stroke="#666666" points="270,0 270,-90 413,-90 413,0 270,0"/>
</a>
</g>
</g>
<!-- Node5&#45;&gt;Node6 -->
<g id="edge5_Node000005_Node000006" class="edge">
<title>Node5&#45;&gt;Node6</title>
<g id="a_edge5_Node000005_Node000006"><a xlink:title=" ">
<path fill="none" stroke="#63b8ff" d="M335.5,-115.5C336.25,-106.82 337,-98.15 337.7,-90.01"/>
<polygon fill="none" stroke="#63b8ff" points="332,-115.38 334.62,-125.65 338.97,-115.99 332,-115.38"/>
</a>
</g>
</g>
</g>
</svg>
