<?xml version="1.0" encoding="UTF-8" standalone="no"?>
<!DOCTYPE svg PUBLIC "-//W3C//DTD SVG 1.1//EN"
 "http://www.w3.org/Graphics/SVG/1.1/DTD/svg11.dtd">
<!-- Generated by graphviz version 2.43.0 (0)
 -->
<!-- Title: json_rpc::HttpServerTransport::HttpServerTransport Pages: 1 -->
<svg width="467pt" height="86pt"
 viewBox="0.00 0.00 467.00 86.00" xmlns="http://www.w3.org/2000/svg" xmlns:xlink="http://www.w3.org/1999/xlink">
<g id="graph0" class="graph" transform="scale(1 1) rotate(0) translate(4 82)">
<title>json_rpc::HttpServerTransport::HttpServerTransport</title>
<!-- Node1 -->
<g id="Node000001" class="node">
<title>Node1</title>
<g id="a_Node000001"><a xlink:title="Constructs an HttpServerTransport object.">
<polygon fill="#999999" stroke="#666666" points="161,-54 0,-54 0,-24 161,-24 161,-54"/>
<text text-anchor="start" x="8" y="-42" font-family="Helvetica,sans-Serif" font-size="10.00">json_rpc::HttpServerTransport</text>
<text text-anchor="middle" x="80.5" y="-31" font-family="Helvetica,sans-Serif" font-size="10.00">::HttpServerTransport</text>
</a>
</g>
</g>
<!-- Node2 -->
<g id="Node000002" class="node">
<title>Node2</title>
<g id="a_Node000002"><a xlink:href="classjson__rpc_1_1Dispatcher.html#a7ae947579557272d7d3c310325ca7c13" target="_top" xlink:title="Dispatches an RPC request to the appropriate handler.">
<polygon fill="white" stroke="#666666" points="313,-54 197,-54 197,-24 313,-24 313,-54"/>
<text text-anchor="start" x="205" y="-42" font-family="Helvetica,sans-Serif" font-size="10.00">json_rpc::Dispatcher</text>
<text text-anchor="middle" x="255" y="-31" font-family="Helvetica,sans-Serif" font-size="10.00">::DispatchRequest</text>
</a>
</g>
</g>
<!-- Node1&#45;&gt;Node2 -->
<g id="edge1_Node000001_Node000002" class="edge">
<title>Node1&#45;&gt;Node2</title>
<g id="a_edge1_Node000001_Node000002"><a xlink:title=" ">
<path fill="none" stroke="#63b8ff" d="M161.19,-39C169.72,-39 178.34,-39 186.71,-39"/>
<polygon fill="#63b8ff" stroke="#63b8ff" points="186.78,-42.5 196.78,-39 186.78,-35.5 186.78,-42.5"/>
</a>
</g>
</g>
<!-- Node3 -->
<g id="Node000003" class="node">
<title>Node3</title>
<g id="a_Node000003"><a xlink:href="classjson__rpc_1_1Response.html#a103427d492c8a81ad1d169e2516695a2" target="_top" xlink:title="Creates a Response object for a library error.">
<polygon fill="white" stroke="#666666" points="459,-78 349,-78 349,-48 459,-48 459,-78"/>
<text text-anchor="start" x="357" y="-66" font-family="Helvetica,sans-Serif" font-size="10.00">json_rpc::Response</text>
<text text-anchor="middle" x="404" y="-55" font-family="Helvetica,sans-Serif" font-size="10.00">::CreateLibError</text>
</a>
</g>
</g>
<!-- Node2&#45;&gt;Node3 -->
<g id="edge2_Node000002_Node000003" class="edge">
<title>Node2&#45;&gt;Node3</title>
<g id="a_edge2_Node000002_Node000003"><a xlink:title=" ">
<path fill="none" stroke="#63b8ff" d="M313.25,-48.35C321.51,-49.7 330.05,-51.09 338.43,-52.46"/>
<polygon fill="#63b8ff" stroke="#63b8ff" points="338.12,-55.95 348.55,-54.11 339.24,-49.04 338.12,-55.95"/>
</a>
</g>
</g>
<!-- Node4 -->
<g id="Node000004" class="node">
<title>Node4</title>
<g id="a_Node000004"><a xlink:href="classjson__rpc_1_1Response.html#abe6908720f1e791dc06af7a7efba49c5" target="_top" xlink:title="Serializes the Response object to a string.">
<polygon fill="white" stroke="#666666" points="459,-30 349,-30 349,0 459,0 459,-30"/>
<text text-anchor="start" x="357" y="-18" font-family="Helvetica,sans-Serif" font-size="10.00">json_rpc::Response</text>
<text text-anchor="middle" x="404" y="-7" font-family="Helvetica,sans-Serif" font-size="10.00">::ToStr</text>
</a>
</g>
</g>
<!-- Node2&#45;&gt;Node4 -->
<g id="edge3_Node000002_Node000004" class="edge">
<title>Node2&#45;&gt;Node4</title>
<g id="a_edge3_Node000002_Node000004"><a xlink:title=" ">
<path fill="none" stroke="#63b8ff" d="M313.25,-29.65C321.51,-28.3 330.05,-26.91 338.43,-25.54"/>
<polygon fill="#63b8ff" stroke="#63b8ff" points="339.24,-28.96 348.55,-23.89 338.12,-22.05 339.24,-28.96"/>
</a>
</g>
</g>
</g>
</svg>
