<?xml version="1.0" encoding="UTF-8" standalone="no"?>
<!DOCTYPE svg PUBLIC "-//W3C//DTD SVG 1.1//EN"
 "http://www.w3.org/Graphics/SVG/1.1/DTD/svg11.dtd">
<!-- Generated by graphviz version 2.43.0 (0)
 -->
<!-- Title: jsonrpc::ClientTransport Pages: 1 -->
<svg width="482pt" height="202pt"
 viewBox="0.00 0.00 482.00 202.00" xmlns="http://www.w3.org/2000/svg" xmlns:xlink="http://www.w3.org/1999/xlink">
<g id="graph0" class="graph" transform="scale(1 1) rotate(0) translate(4 198)">
<title>jsonrpc::ClientTransport</title>
<!-- Node1 -->
<g id="Node000001" class="node">
<title>Node1</title>
<g id="a_Node000001"><a xlink:title="An abstract class representing the transport mechanism for JSON&#45;RPC client.">
<polygon fill="#999999" stroke="transparent" points="295.5,-194 170.5,-194 170.5,-115 295.5,-115 295.5,-194"/>
<text text-anchor="start" x="176" y="-181.5" font-family="Helvetica,sans-Serif" font-size="10.00">jsonrpc::ClientTransport</text>
<text text-anchor="start" x="231.5" y="-166.5" font-family="Helvetica,sans-Serif" font-size="10.00"> </text>
<text text-anchor="start" x="178.5" y="-151.5" font-family="Helvetica,sans-Serif" font-size="10.00">+</text>
<text text-anchor="start" x="195" y="-151.5" font-family="Helvetica,sans-Serif" font-size="10.00">~ClientTransport()</text>
<text text-anchor="start" x="178.5" y="-136.5" font-family="Helvetica,sans-Serif" font-size="10.00">+</text>
<text text-anchor="start" x="195" y="-136.5" font-family="Helvetica,sans-Serif" font-size="10.00">SendMethodCall()</text>
<text text-anchor="start" x="178.5" y="-121.5" font-family="Helvetica,sans-Serif" font-size="10.00">+</text>
<text text-anchor="start" x="195" y="-121.5" font-family="Helvetica,sans-Serif" font-size="10.00">SendNotification()</text>
<polygon fill="#666666" stroke="#666666" points="171,-176.5 171,-176.5 296,-176.5 296,-176.5 171,-176.5"/>
<polygon fill="#666666" stroke="#666666" points="171,-161.5 171,-161.5 296,-161.5 296,-161.5 171,-161.5"/>
<polygon fill="none" stroke="#666666" points="170.5,-115 170.5,-194 295.5,-194 295.5,-115 170.5,-115"/>
</a>
</g>
</g>
<!-- Node2 -->
<g id="Node000002" class="node">
<title>Node2</title>
<g id="a_Node000002"><a xlink:href="classjsonrpc_1_1FramedStdioClientTransport.html" target="_top" xlink:title="Client transport using framed stdio for communication.">
<polygon fill="white" stroke="transparent" points="142,-77 0,-77 0,-2 142,-2 142,-77"/>
<text text-anchor="start" x="5" y="-64.5" font-family="Helvetica,sans-Serif" font-size="10.00">jsonrpc::FramedStdioClient</text>
<text text-anchor="start" x="48" y="-53.5" font-family="Helvetica,sans-Serif" font-size="10.00">Transport</text>
<text text-anchor="start" x="69" y="-38.5" font-family="Helvetica,sans-Serif" font-size="10.00"> </text>
<text text-anchor="start" x="12" y="-23.5" font-family="Helvetica,sans-Serif" font-size="10.00">+</text>
<text text-anchor="start" x="33" y="-23.5" font-family="Helvetica,sans-Serif" font-size="10.00">SendMethodCall()</text>
<text text-anchor="start" x="12" y="-8.5" font-family="Helvetica,sans-Serif" font-size="10.00">+</text>
<text text-anchor="start" x="33" y="-8.5" font-family="Helvetica,sans-Serif" font-size="10.00">SendNotification()</text>
<polygon fill="#666666" stroke="#666666" points="0,-48.5 0,-48.5 142,-48.5 142,-48.5 0,-48.5"/>
<polygon fill="#666666" stroke="#666666" points="0,-33.5 0,-33.5 142,-33.5 142,-33.5 0,-33.5"/>
<polygon fill="none" stroke="#666666" points="0,-2 0,-77 142,-77 142,-2 0,-2"/>
</a>
</g>
</g>
<!-- Node1&#45;&gt;Node2 -->
<g id="edge1_Node000001_Node000002" class="edge">
<title>Node1&#45;&gt;Node2</title>
<g id="a_edge1_Node000001_Node000002"><a xlink:title=" ">
<path fill="none" stroke="#63b8ff" d="M169.38,-109.12C154.21,-98.54 138.2,-87.37 123.59,-77.18"/>
<polygon fill="none" stroke="#63b8ff" points="167.5,-112.08 177.7,-114.93 171.5,-106.34 167.5,-112.08"/>
</a>
</g>
</g>
<!-- Node3 -->
<g id="Node000003" class="node">
<title>Node3</title>
<g id="a_Node000003"><a xlink:href="classjsonrpc_1_1HttpClientTransport.html" target="_top" xlink:title="Client transport using HTTP for communication.">
<polygon fill="white" stroke="transparent" points="306,-79 160,-79 160,0 306,0 306,-79"/>
<text text-anchor="start" x="165" y="-66.5" font-family="Helvetica,sans-Serif" font-size="10.00">jsonrpc::HttpClientTransport</text>
<text text-anchor="start" x="231" y="-51.5" font-family="Helvetica,sans-Serif" font-size="10.00"> </text>
<text text-anchor="start" x="169.5" y="-36.5" font-family="Helvetica,sans-Serif" font-size="10.00">+</text>
<text text-anchor="start" x="188" y="-36.5" font-family="Helvetica,sans-Serif" font-size="10.00">HttpClientTransport()</text>
<text text-anchor="start" x="169.5" y="-21.5" font-family="Helvetica,sans-Serif" font-size="10.00">+</text>
<text text-anchor="start" x="188" y="-21.5" font-family="Helvetica,sans-Serif" font-size="10.00">SendMethodCall()</text>
<text text-anchor="start" x="169.5" y="-6.5" font-family="Helvetica,sans-Serif" font-size="10.00">+</text>
<text text-anchor="start" x="188" y="-6.5" font-family="Helvetica,sans-Serif" font-size="10.00">SendNotification()</text>
<polygon fill="#666666" stroke="#666666" points="160,-61.5 160,-61.5 306,-61.5 306,-61.5 160,-61.5"/>
<polygon fill="#666666" stroke="#666666" points="160,-46.5 160,-46.5 306,-46.5 306,-46.5 160,-46.5"/>
<polygon fill="none" stroke="#666666" points="160,0 160,-79 306,-79 306,0 160,0"/>
</a>
</g>
</g>
<!-- Node1&#45;&gt;Node3 -->
<g id="edge2_Node000001_Node000003" class="edge">
<title>Node1&#45;&gt;Node3</title>
<g id="a_edge2_Node000001_Node000003"><a xlink:title=" ">
<path fill="none" stroke="#63b8ff" d="M233,-104.72C233,-96.22 233,-87.47 233,-79.28"/>
<polygon fill="none" stroke="#63b8ff" points="229.5,-104.93 233,-114.93 236.5,-104.93 229.5,-104.93"/>
</a>
</g>
</g>
<!-- Node4 -->
<g id="Node000004" class="node">
<title>Node4</title>
<g id="a_Node000004"><a xlink:href="classjsonrpc_1_1StdioClientTransport.html" target="_top" xlink:title="Client transport using stdio for communication.">
<polygon fill="white" stroke="transparent" points="474,-71.5 324,-71.5 324,-7.5 474,-7.5 474,-71.5"/>
<text text-anchor="start" x="329" y="-59.5" font-family="Helvetica,sans-Serif" font-size="10.00">jsonrpc::StdioClientTransport</text>
<text text-anchor="start" x="397" y="-44.5" font-family="Helvetica,sans-Serif" font-size="10.00"> </text>
<text text-anchor="start" x="338" y="-29.5" font-family="Helvetica,sans-Serif" font-size="10.00">+</text>
<text text-anchor="start" x="361" y="-29.5" font-family="Helvetica,sans-Serif" font-size="10.00">SendMethodCall()</text>
<text text-anchor="start" x="338" y="-14.5" font-family="Helvetica,sans-Serif" font-size="10.00">+</text>
<text text-anchor="start" x="361" y="-14.5" font-family="Helvetica,sans-Serif" font-size="10.00">SendNotification()</text>
<polygon fill="#666666" stroke="#666666" points="324,-54.5 324,-54.5 474,-54.5 474,-54.5 324,-54.5"/>
<polygon fill="#666666" stroke="#666666" points="324,-39.5 324,-39.5 474,-39.5 474,-39.5 324,-39.5"/>
<polygon fill="none" stroke="#666666" points="324,-7.5 324,-71.5 474,-71.5 474,-7.5 324,-7.5"/>
</a>
</g>
</g>
<!-- Node1&#45;&gt;Node4 -->
<g id="edge3_Node000001_Node000004" class="edge">
<title>Node1&#45;&gt;Node4</title>
<g id="a_edge3_Node000001_Node000004"><a xlink:title=" ">
<path fill="none" stroke="#63b8ff" d="M298.05,-109.22C316.52,-96.64 336.24,-83.22 353.31,-71.6"/>
<polygon fill="none" stroke="#63b8ff" points="295.96,-106.41 289.66,-114.93 299.9,-112.19 295.96,-106.41"/>
</a>
</g>
</g>
</g>
</svg>
