<?xml version="1.0" encoding="UTF-8" standalone="no"?>
<!DOCTYPE svg PUBLIC "-//W3C//DTD SVG 1.1//EN"
 "http://www.w3.org/Graphics/SVG/1.1/DTD/svg11.dtd">
<!-- Generated by graphviz version 2.43.0 (0)
 -->
<!-- Title: json_rpc::ServerTransport Pages: 1 -->
<svg width="508pt" height="277pt"
 viewBox="0.00 0.00 508.00 277.00" xmlns="http://www.w3.org/2000/svg" xmlns:xlink="http://www.w3.org/1999/xlink">
<g id="graph0" class="graph" transform="scale(1 1) rotate(0) translate(4 273)">
<title>json_rpc::ServerTransport</title>
<!-- Node1 -->
<g id="Node000001" class="node">
<title>Node1</title>
<g id="a_Node000001"><a xlink:title="Abstract base class for server transport mechanisms.">
<polygon fill="#999999" stroke="transparent" points="313,-269 179,-269 179,-115 313,-115 313,-269"/>
<text text-anchor="start" x="184" y="-257" font-family="Helvetica,sans-Serif" font-size="10.00">json_rpc::ServerTransport</text>
<text text-anchor="start" x="188" y="-242" font-family="Helvetica,sans-Serif" font-size="10.00">#</text>
<text text-anchor="start" x="206" y="-242" font-family="Helvetica,sans-Serif" font-size="10.00">running_</text>
<text text-anchor="start" x="188" y="-227" font-family="Helvetica,sans-Serif" font-size="10.00">#</text>
<text text-anchor="start" x="206" y="-227" font-family="Helvetica,sans-Serif" font-size="10.00">dispatcher_</text>
<text text-anchor="start" x="188" y="-212" font-family="Helvetica,sans-Serif" font-size="10.00">+</text>
<text text-anchor="start" x="206" y="-212" font-family="Helvetica,sans-Serif" font-size="10.00">ServerTransport()</text>
<text text-anchor="start" x="188" y="-197" font-family="Helvetica,sans-Serif" font-size="10.00">+</text>
<text text-anchor="start" x="206" y="-197" font-family="Helvetica,sans-Serif" font-size="10.00">~ServerTransport()</text>
<text text-anchor="start" x="188" y="-182" font-family="Helvetica,sans-Serif" font-size="10.00">+</text>
<text text-anchor="start" x="206" y="-182" font-family="Helvetica,sans-Serif" font-size="10.00">Start()</text>
<text text-anchor="start" x="188" y="-167" font-family="Helvetica,sans-Serif" font-size="10.00">+</text>
<text text-anchor="start" x="206" y="-167" font-family="Helvetica,sans-Serif" font-size="10.00">Stop()</text>
<text text-anchor="start" x="188" y="-152" font-family="Helvetica,sans-Serif" font-size="10.00">+</text>
<text text-anchor="start" x="206" y="-152" font-family="Helvetica,sans-Serif" font-size="10.00">SetDispatcher()</text>
<text text-anchor="start" x="188" y="-137" font-family="Helvetica,sans-Serif" font-size="10.00">+</text>
<text text-anchor="start" x="206" y="-137" font-family="Helvetica,sans-Serif" font-size="10.00">IsRunning()</text>
<text text-anchor="start" x="188" y="-122" font-family="Helvetica,sans-Serif" font-size="10.00">#</text>
<text text-anchor="start" x="206" y="-122" font-family="Helvetica,sans-Serif" font-size="10.00">Listen()</text>
<polygon fill="#666666" stroke="#666666" points="179,-252 179,-252 313,-252 313,-252 179,-252"/>
<polygon fill="#666666" stroke="#666666" points="179,-222 179,-222 204,-222 204,-222 179,-222"/>
<polygon fill="#666666" stroke="#666666" points="204,-222 204,-222 313,-222 313,-222 204,-222"/>
<polygon fill="none" stroke="#666666" points="179,-115 179,-269 313,-269 313,-115 179,-115"/>
</a>
</g>
</g>
<!-- Node2 -->
<g id="Node000002" class="node">
<title>Node2</title>
<g id="a_Node000002"><a xlink:href="classjson__rpc_1_1FramedStdioServerTransport.html" target="_top" xlink:title="Server transport using framed stdio for communication.">
<polygon fill="white" stroke="transparent" points="150,-69.5 0,-69.5 0,-9.5 150,-9.5 150,-69.5"/>
<text text-anchor="start" x="5" y="-57.5" font-family="Helvetica,sans-Serif" font-size="10.00">json_rpc::FramedStdioServer</text>
<text text-anchor="start" x="52" y="-46.5" font-family="Helvetica,sans-Serif" font-size="10.00">Transport</text>
<text text-anchor="start" x="73" y="-31.5" font-family="Helvetica,sans-Serif" font-size="10.00"> </text>
<text text-anchor="start" x="27" y="-16.5" font-family="Helvetica,sans-Serif" font-size="10.00">#</text>
<text text-anchor="start" x="63" y="-16.5" font-family="Helvetica,sans-Serif" font-size="10.00">Listen()</text>
<polygon fill="#666666" stroke="#666666" points="0,-41.5 0,-41.5 150,-41.5 150,-41.5 0,-41.5"/>
<polygon fill="#666666" stroke="#666666" points="0,-26.5 0,-26.5 150,-26.5 150,-26.5 0,-26.5"/>
<polygon fill="none" stroke="#666666" points="0,-9.5 0,-69.5 150,-69.5 150,-9.5 0,-9.5"/>
</a>
</g>
</g>
<!-- Node1&#45;&gt;Node2 -->
<g id="edge1_Node000001_Node000002" class="edge">
<title>Node1&#45;&gt;Node2</title>
<g id="a_edge1_Node000001_Node000002"><a xlink:title=" ">
<path fill="none" stroke="#63b8ff" d="M171.15,-125.12C149.08,-105.7 126.04,-85.42 108.06,-69.59"/>
<polygon fill="none" stroke="#63b8ff" points="169.09,-127.97 178.91,-131.95 173.71,-122.72 169.09,-127.97"/>
</a>
</g>
</g>
<!-- Node3 -->
<g id="Node000003" class="node">
<title>Node3</title>
<g id="a_Node000003"><a xlink:href="classjson__rpc_1_1HttpServerTransport.html" target="_top" xlink:title="Server transport using HTTP for communication.">
<polygon fill="white" stroke="transparent" points="323.5,-79 168.5,-79 168.5,0 323.5,0 323.5,-79"/>
<text text-anchor="start" x="174" y="-66.5" font-family="Helvetica,sans-Serif" font-size="10.00">json_rpc::HttpServerTransport</text>
<text text-anchor="start" x="244.5" y="-51.5" font-family="Helvetica,sans-Serif" font-size="10.00"> </text>
<text text-anchor="start" x="180" y="-36.5" font-family="Helvetica,sans-Serif" font-size="10.00">+</text>
<text text-anchor="start" x="200" y="-36.5" font-family="Helvetica,sans-Serif" font-size="10.00">HttpServerTransport()</text>
<text text-anchor="start" x="180" y="-21.5" font-family="Helvetica,sans-Serif" font-size="10.00">+</text>
<text text-anchor="start" x="200" y="-21.5" font-family="Helvetica,sans-Serif" font-size="10.00">Listen()</text>
<text text-anchor="start" x="180" y="-6.5" font-family="Helvetica,sans-Serif" font-size="10.00">+</text>
<text text-anchor="start" x="200" y="-6.5" font-family="Helvetica,sans-Serif" font-size="10.00">Stop()</text>
<polygon fill="#666666" stroke="#666666" points="169,-61.5 169,-61.5 324,-61.5 324,-61.5 169,-61.5"/>
<polygon fill="#666666" stroke="#666666" points="169,-46.5 169,-46.5 324,-46.5 324,-46.5 169,-46.5"/>
<polygon fill="none" stroke="#666666" points="168.5,0 168.5,-79 323.5,-79 323.5,0 168.5,0"/>
</a>
</g>
</g>
<!-- Node1&#45;&gt;Node3 -->
<g id="edge2_Node000001_Node000003" class="edge">
<title>Node1&#45;&gt;Node3</title>
<g id="a_edge2_Node000001_Node000003"><a xlink:title=" ">
<path fill="none" stroke="#63b8ff" d="M246,-104.74C246,-95.82 246,-87.11 246,-79.13"/>
<polygon fill="none" stroke="#63b8ff" points="242.5,-104.87 246,-114.87 249.5,-104.87 242.5,-104.87"/>
</a>
</g>
</g>
<!-- Node4 -->
<g id="Node000004" class="node">
<title>Node4</title>
<g id="a_Node000004"><a xlink:href="classjson__rpc_1_1StdioServerTransport.html" target="_top" xlink:title="Server transport using stdio for communication.">
<polygon fill="white" stroke="transparent" points="500,-64 342,-64 342,-15 500,-15 500,-64"/>
<text text-anchor="start" x="347" y="-51.5" font-family="Helvetica,sans-Serif" font-size="10.00">json_rpc::StdioServerTransport</text>
<text text-anchor="start" x="419" y="-36.5" font-family="Helvetica,sans-Serif" font-size="10.00"> </text>
<text text-anchor="start" x="371" y="-21.5" font-family="Helvetica,sans-Serif" font-size="10.00">#</text>
<text text-anchor="start" x="409" y="-21.5" font-family="Helvetica,sans-Serif" font-size="10.00">Listen()</text>
<polygon fill="#666666" stroke="#666666" points="342,-46.5 342,-46.5 500,-46.5 500,-46.5 342,-46.5"/>
<polygon fill="#666666" stroke="#666666" points="342,-31.5 342,-31.5 500,-31.5 500,-31.5 342,-31.5"/>
<polygon fill="none" stroke="#666666" points="342,-15 342,-64 500,-64 500,-15 342,-15"/>
</a>
</g>
</g>
<!-- Node1&#45;&gt;Node4 -->
<g id="edge3_Node000001_Node000004" class="edge">
<title>Node1&#45;&gt;Node4</title>
<g id="a_edge3_Node000001_Node000004"><a xlink:title=" ">
<path fill="none" stroke="#63b8ff" d="M320.76,-126.71C346.59,-104.5 373.93,-80.98 393.52,-64.13"/>
<polygon fill="none" stroke="#63b8ff" points="318.46,-124.07 313.16,-133.24 323.02,-129.38 318.46,-124.07"/>
</a>
</g>
</g>
</g>
</svg>
