<?xml version="1.0" encoding="UTF-8" standalone="no"?>
<!DOCTYPE svg PUBLIC "-//W3C//DTD SVG 1.1//EN"
 "http://www.w3.org/Graphics/SVG/1.1/DTD/svg11.dtd">
<!-- Generated by graphviz version 2.43.0 (0)
 -->
<!-- Title: jsonrpc::transport::FramedPipeTransport::ReceiveMessage Pages: 1 -->
<svg width="695pt" height="98pt"
 viewBox="0.00 0.00 695.00 97.50" xmlns="http://www.w3.org/2000/svg" xmlns:xlink="http://www.w3.org/1999/xlink">
<g id="graph0" class="graph" transform="scale(1 1) rotate(0) translate(4 93.5)">
<title>jsonrpc::transport::FramedPipeTransport::ReceiveMessage</title>
<!-- Node1 -->
<g id="Node000001" class="node">
<title>Node1</title>
<g id="a_Node000001"><a xlink:title="Receives a message from the transport layer.">
<polygon fill="#999999" stroke="#666666" points="125,-68 0,-68 0,-27 125,-27 125,-68"/>
<text text-anchor="start" x="8" y="-56" font-family="Helvetica,sans-Serif" font-size="10.00">jsonrpc::transport</text>
<text text-anchor="start" x="8" y="-45" font-family="Helvetica,sans-Serif" font-size="10.00">::FramedPipeTransport</text>
<text text-anchor="middle" x="62.5" y="-34" font-family="Helvetica,sans-Serif" font-size="10.00">::ReceiveMessage</text>
</a>
</g>
</g>
<!-- Node2 -->
<g id="Node000002" class="node">
<title>Node2</title>
<g id="a_Node000002"><a xlink:href="classjsonrpc_1_1transport_1_1PipeTransport.html#a02acd2d560577ae52fd9bce326a76493" target="_top" xlink:title=" ">
<polygon fill="white" stroke="#666666" points="319.5,-89.5 175.5,-89.5 175.5,-59.5 319.5,-59.5 319.5,-89.5"/>
<text text-anchor="start" x="183.5" y="-77.5" font-family="Helvetica,sans-Serif" font-size="10.00">jsonrpc::transport</text>
<text text-anchor="middle" x="247.5" y="-66.5" font-family="Helvetica,sans-Serif" font-size="10.00">::PipeTransport::GetSocket</text>
</a>
</g>
</g>
<!-- Node1&#45;&gt;Node2 -->
<g id="edge1_Node000001_Node000002" class="edge">
<title>Node1&#45;&gt;Node2</title>
<g id="a_edge1_Node000001_Node000002"><a xlink:title=" ">
<path fill="none" stroke="#63b8ff" d="M125.2,-56.6C138.02,-58.49 151.71,-60.51 165.11,-62.49"/>
<polygon fill="#63b8ff" stroke="#63b8ff" points="164.87,-65.99 175.28,-63.99 165.9,-59.07 164.87,-65.99"/>
</a>
</g>
</g>
<!-- Node3 -->
<g id="Node000003" class="node">
<title>Node3</title>
<g id="a_Node000003"><a xlink:href="classjsonrpc_1_1transport_1_1FramedTransport.html#abc9bb6673778ecab6c5b9f8d50d44574" target="_top" xlink:title=" ">
<polygon fill="white" stroke="#666666" points="334,-41 161,-41 161,0 334,0 334,-41"/>
<text text-anchor="start" x="169" y="-29" font-family="Helvetica,sans-Serif" font-size="10.00">jsonrpc::transport</text>
<text text-anchor="start" x="169" y="-18" font-family="Helvetica,sans-Serif" font-size="10.00">::FramedTransport::ReadContent</text>
<text text-anchor="middle" x="247.5" y="-7" font-family="Helvetica,sans-Serif" font-size="10.00">LengthFromStream</text>
</a>
</g>
</g>
<!-- Node1&#45;&gt;Node3 -->
<g id="edge2_Node000001_Node000003" class="edge">
<title>Node1&#45;&gt;Node3</title>
<g id="a_edge2_Node000001_Node000003"><a xlink:title=" ">
<path fill="none" stroke="#63b8ff" d="M125.2,-38.4C133.4,-37.19 141.97,-35.92 150.58,-34.65"/>
<polygon fill="#63b8ff" stroke="#63b8ff" points="151.32,-38.08 160.7,-33.16 150.3,-31.16 151.32,-38.08"/>
</a>
</g>
</g>
<!-- Node4 -->
<g id="Node000004" class="node">
<title>Node4</title>
<g id="a_Node000004"><a xlink:href="classjsonrpc_1_1transport_1_1FramedTransport.html#adcfc8964bb8112eea2daaff3ac23d9cc" target="_top" xlink:title=" ">
<polygon fill="white" stroke="#666666" points="546,-41 370,-41 370,0 546,0 546,-41"/>
<text text-anchor="start" x="378" y="-29" font-family="Helvetica,sans-Serif" font-size="10.00">jsonrpc::transport</text>
<text text-anchor="start" x="378" y="-18" font-family="Helvetica,sans-Serif" font-size="10.00">::FramedTransport::ReadHeaders</text>
<text text-anchor="middle" x="458" y="-7" font-family="Helvetica,sans-Serif" font-size="10.00">FromStream</text>
</a>
</g>
</g>
<!-- Node3&#45;&gt;Node4 -->
<g id="edge3_Node000003_Node000004" class="edge">
<title>Node3&#45;&gt;Node4</title>
<g id="a_edge3_Node000003_Node000004"><a xlink:title=" ">
<path fill="none" stroke="#63b8ff" d="M334.21,-20.5C342.68,-20.5 351.33,-20.5 359.91,-20.5"/>
<polygon fill="#63b8ff" stroke="#63b8ff" points="359.94,-24 369.94,-20.5 359.94,-17 359.94,-24"/>
</a>
</g>
</g>
<!-- Node5 -->
<g id="Node000005" class="node">
<title>Node5</title>
<g id="a_Node000005"><a xlink:href="namespacejsonrpc_1_1utils.html#a0f4ab48ccb12fe3cb75a70867a56214a" target="_top" xlink:title=" ">
<polygon fill="white" stroke="#666666" points="687,-30 582,-30 582,-11 687,-11 687,-30"/>
<text text-anchor="middle" x="634.5" y="-18" font-family="Helvetica,sans-Serif" font-size="10.00">jsonrpc::utils::trim</text>
</a>
</g>
</g>
<!-- Node4&#45;&gt;Node5 -->
<g id="edge4_Node000004_Node000005" class="edge">
<title>Node4&#45;&gt;Node5</title>
<g id="a_edge4_Node000004_Node000005"><a xlink:title=" ">
<path fill="none" stroke="#63b8ff" d="M546.25,-20.5C554.76,-20.5 563.26,-20.5 571.45,-20.5"/>
<polygon fill="#63b8ff" stroke="#63b8ff" points="571.62,-24 581.62,-20.5 571.62,-17 571.62,-24"/>
</a>
</g>
</g>
</g>
</svg>
