<?xml version="1.0" encoding="UTF-8" standalone="no"?>
<!DOCTYPE svg PUBLIC "-//W3C//DTD SVG 1.1//EN"
 "http://www.w3.org/Graphics/SVG/1.1/DTD/svg11.dtd">
<!-- Generated by graphviz version 2.43.0 (0)
 -->
<!-- Title: jsonrpc::FramedStdioServerTransport::Listen Pages: 1 -->
<svg width="482pt" height="206pt"
 viewBox="0.00 0.00 482.00 206.00" xmlns="http://www.w3.org/2000/svg" xmlns:xlink="http://www.w3.org/1999/xlink">
<g id="graph0" class="graph" transform="scale(1 1) rotate(0) translate(4 202)">
<title>jsonrpc::FramedStdioServerTransport::Listen</title>
<!-- Node1 -->
<g id="Node000001" class="node">
<title>Node1</title>
<g id="a_Node000001"><a xlink:title="Listens for incoming messages and dispatches them to the appropriate handlers.">
<polygon fill="#999999" stroke="#666666" points="151,-102 0,-102 0,-72 151,-72 151,-102"/>
<text text-anchor="start" x="8" y="-90" font-family="Helvetica,sans-Serif" font-size="10.00">jsonrpc::FramedStdioServer</text>
<text text-anchor="middle" x="75.5" y="-79" font-family="Helvetica,sans-Serif" font-size="10.00">Transport::Listen</text>
</a>
</g>
</g>
<!-- Node2 -->
<g id="Node000002" class="node">
<title>Node2</title>
<g id="a_Node000002"><a xlink:href="classjsonrpc_1_1Dispatcher.html#ad60b6c352fa4ff44d7676772dac6374e" target="_top" xlink:title="Dispatches an RPC request to the appropriate handler.">
<polygon fill="white" stroke="#666666" points="312,-174 202,-174 202,-144 312,-144 312,-174"/>
<text text-anchor="start" x="210" y="-162" font-family="Helvetica,sans-Serif" font-size="10.00">jsonrpc::Dispatcher</text>
<text text-anchor="middle" x="257" y="-151" font-family="Helvetica,sans-Serif" font-size="10.00">::DispatchRequest</text>
</a>
</g>
</g>
<!-- Node1&#45;&gt;Node2 -->
<g id="edge1_Node000001_Node000002" class="edge">
<title>Node1&#45;&gt;Node2</title>
<g id="a_edge1_Node000001_Node000002"><a xlink:title=" ">
<path fill="none" stroke="#63b8ff" d="M109.59,-102.15C131.41,-111.94 160.7,-124.73 187,-135 191.75,-136.86 196.71,-138.72 201.7,-140.55"/>
<polygon fill="#63b8ff" stroke="#63b8ff" points="200.69,-143.9 211.28,-143.99 203.06,-137.31 200.69,-143.9"/>
</a>
</g>
</g>
<!-- Node5 -->
<g id="Node000005" class="node">
<title>Node5</title>
<g id="a_Node000005"><a xlink:href="classjsonrpc_1_1ServerTransport.html#a2e544f968400464c8b1c3f5dbf154bd8" target="_top" xlink:title="Checks if the transport is running.">
<polygon fill="white" stroke="#666666" points="324,-126 190,-126 190,-96 324,-96 324,-126"/>
<text text-anchor="start" x="198" y="-114" font-family="Helvetica,sans-Serif" font-size="10.00">jsonrpc::ServerTransport</text>
<text text-anchor="middle" x="257" y="-103" font-family="Helvetica,sans-Serif" font-size="10.00">::IsRunning</text>
</a>
</g>
</g>
<!-- Node1&#45;&gt;Node5 -->
<g id="edge4_Node000001_Node000005" class="edge">
<title>Node1&#45;&gt;Node5</title>
<g id="a_edge4_Node000001_Node000005"><a xlink:title=" ">
<path fill="none" stroke="#63b8ff" d="M151.06,-96.97C160.54,-98.24 170.26,-99.54 179.76,-100.81"/>
<polygon fill="#63b8ff" stroke="#63b8ff" points="179.6,-104.32 189.97,-102.17 180.52,-97.38 179.6,-104.32"/>
</a>
</g>
</g>
<!-- Node6 -->
<g id="Node000006" class="node">
<title>Node6</title>
<g id="a_Node000006"><a xlink:href="classjsonrpc_1_1FramedTransport.html#a53c16990457a80e2e9a7113cdb3034a5" target="_top" xlink:title="Receives a framed message.">
<polygon fill="white" stroke="#666666" points="327,-78 187,-78 187,-48 327,-48 327,-78"/>
<text text-anchor="start" x="195" y="-66" font-family="Helvetica,sans-Serif" font-size="10.00">jsonrpc::FramedTransport</text>
<text text-anchor="middle" x="257" y="-55" font-family="Helvetica,sans-Serif" font-size="10.00">::ReceiveMessage</text>
</a>
</g>
</g>
<!-- Node1&#45;&gt;Node6 -->
<g id="edge5_Node000001_Node000006" class="edge">
<title>Node1&#45;&gt;Node6</title>
<g id="a_edge5_Node000001_Node000006"><a xlink:title=" ">
<path fill="none" stroke="#63b8ff" d="M151.06,-77.03C159.58,-75.89 168.28,-74.73 176.86,-73.58"/>
<polygon fill="#63b8ff" stroke="#63b8ff" points="177.39,-77.04 186.84,-72.25 176.46,-70.1 177.39,-77.04"/>
</a>
</g>
</g>
<!-- Node7 -->
<g id="Node000007" class="node">
<title>Node7</title>
<g id="a_Node000007"><a xlink:href="classjsonrpc_1_1FramedTransport.html#a2dca4a68bd149386116403f61cc2e62f" target="_top" xlink:title="Sends a framed message.">
<polygon fill="white" stroke="#666666" points="327,-30 187,-30 187,0 327,0 327,-30"/>
<text text-anchor="start" x="195" y="-18" font-family="Helvetica,sans-Serif" font-size="10.00">jsonrpc::FramedTransport</text>
<text text-anchor="middle" x="257" y="-7" font-family="Helvetica,sans-Serif" font-size="10.00">::SendMessage</text>
</a>
</g>
</g>
<!-- Node1&#45;&gt;Node7 -->
<g id="edge6_Node000001_Node000007" class="edge">
<title>Node1&#45;&gt;Node7</title>
<g id="a_edge6_Node000001_Node000007"><a xlink:title=" ">
<path fill="none" stroke="#63b8ff" d="M109.59,-71.85C131.41,-62.06 160.7,-49.27 187,-39 191.75,-37.14 196.71,-35.28 201.7,-33.45"/>
<polygon fill="#63b8ff" stroke="#63b8ff" points="203.06,-36.69 211.28,-30.01 200.69,-30.1 203.06,-36.69"/>
</a>
</g>
</g>
<!-- Node3 -->
<g id="Node000003" class="node">
<title>Node3</title>
<g id="a_Node000003"><a xlink:href="classjsonrpc_1_1Response.html#a0dce112a462bfbedf722cd9dc96b837a" target="_top" xlink:title="Creates a Response object for a library error.">
<polygon fill="white" stroke="#666666" points="474,-198 363,-198 363,-168 474,-168 474,-198"/>
<text text-anchor="start" x="371" y="-186" font-family="Helvetica,sans-Serif" font-size="10.00">jsonrpc::Response::</text>
<text text-anchor="middle" x="418.5" y="-175" font-family="Helvetica,sans-Serif" font-size="10.00">CreateLibError</text>
</a>
</g>
</g>
<!-- Node2&#45;&gt;Node3 -->
<g id="edge2_Node000002_Node000003" class="edge">
<title>Node2&#45;&gt;Node3</title>
<g id="a_edge2_Node000002_Node000003"><a xlink:title=" ">
<path fill="none" stroke="#63b8ff" d="M312.44,-167.19C325.39,-169.14 339.33,-171.24 352.68,-173.25"/>
<polygon fill="#63b8ff" stroke="#63b8ff" points="352.35,-176.74 362.76,-174.76 353.39,-169.81 352.35,-176.74"/>
</a>
</g>
</g>
<!-- Node4 -->
<g id="Node000004" class="node">
<title>Node4</title>
<g id="a_Node000004"><a xlink:href="classjsonrpc_1_1Response.html#a0ca1e37b725b5f4c81e32a13f928c1d9" target="_top" xlink:title="Serializes the Response object to a string.">
<polygon fill="white" stroke="#666666" points="474,-150 363,-150 363,-120 474,-120 474,-150"/>
<text text-anchor="start" x="371" y="-138" font-family="Helvetica,sans-Serif" font-size="10.00">jsonrpc::Response::</text>
<text text-anchor="middle" x="418.5" y="-127" font-family="Helvetica,sans-Serif" font-size="10.00">ToStr</text>
</a>
</g>
</g>
<!-- Node2&#45;&gt;Node4 -->
<g id="edge3_Node000002_Node000004" class="edge">
<title>Node2&#45;&gt;Node4</title>
<g id="a_edge3_Node000002_Node000004"><a xlink:title=" ">
<path fill="none" stroke="#63b8ff" d="M312.44,-150.81C325.39,-148.86 339.33,-146.76 352.68,-144.75"/>
<polygon fill="#63b8ff" stroke="#63b8ff" points="353.39,-148.19 362.76,-143.24 352.35,-141.26 353.39,-148.19"/>
</a>
</g>
</g>
</g>
</svg>
