<?xml version="1.0" encoding="UTF-8" standalone="no"?>
<!DOCTYPE svg PUBLIC "-//W3C//DTD SVG 1.1//EN"
 "http://www.w3.org/Graphics/SVG/1.1/DTD/svg11.dtd">
<!-- Generated by graphviz version 2.43.0 (0)
 -->
<!-- Title: jsonrpc::FramedTransport Pages: 1 -->
<svg width="314pt" height="183pt"
 viewBox="0.00 0.00 313.50 183.00" xmlns="http://www.w3.org/2000/svg" xmlns:xlink="http://www.w3.org/1999/xlink">
<g id="graph0" class="graph" transform="scale(1 1) rotate(0) translate(4 179)">
<title>jsonrpc::FramedTransport</title>
<!-- Node1 -->
<g id="Node000001" class="node">
<title>Node1</title>
<g id="a_Node000001"><a xlink:title="Base class for framed transport mechanisms.">
<polygon fill="#999999" stroke="transparent" points="219,-175 85,-175 85,-111 219,-111 219,-175"/>
<text text-anchor="start" x="90" y="-163" font-family="Helvetica,sans-Serif" font-size="10.00">jsonrpc::FramedTransport</text>
<text text-anchor="start" x="150" y="-148" font-family="Helvetica,sans-Serif" font-size="10.00"> </text>
<text text-anchor="start" x="93.5" y="-133" font-family="Helvetica,sans-Serif" font-size="10.00">#</text>
<text text-anchor="start" x="111" y="-133" font-family="Helvetica,sans-Serif" font-size="10.00">FrameMessage()</text>
<text text-anchor="start" x="93.5" y="-118" font-family="Helvetica,sans-Serif" font-size="10.00">#</text>
<text text-anchor="start" x="111" y="-118" font-family="Helvetica,sans-Serif" font-size="10.00">DeframeMessage()</text>
<polygon fill="#666666" stroke="#666666" points="85,-158 85,-158 219,-158 219,-158 85,-158"/>
<polygon fill="#666666" stroke="#666666" points="85,-143 85,-143 219,-143 219,-143 85,-143"/>
<polygon fill="none" stroke="#666666" points="85,-111 85,-175 219,-175 219,-111 85,-111"/>
</a>
</g>
</g>
<!-- Node2 -->
<g id="Node000002" class="node">
<title>Node2</title>
<g id="a_Node000002"><a xlink:href="classjsonrpc_1_1FramedStdioClientTransport.html" target="_top" xlink:title="Transport layer using framed messaging over standard I/O for JSON&#45;RPC communication.">
<polygon fill="white" stroke="transparent" points="142,-75 0,-75 0,0 142,0 142,-75"/>
<text text-anchor="start" x="5" y="-62.5" font-family="Helvetica,sans-Serif" font-size="10.00">jsonrpc::FramedStdioClient</text>
<text text-anchor="start" x="48" y="-51.5" font-family="Helvetica,sans-Serif" font-size="10.00">Transport</text>
<text text-anchor="start" x="69" y="-36.5" font-family="Helvetica,sans-Serif" font-size="10.00"> </text>
<text text-anchor="start" x="14" y="-21.5" font-family="Helvetica,sans-Serif" font-size="10.00">+</text>
<text text-anchor="start" x="37" y="-21.5" font-family="Helvetica,sans-Serif" font-size="10.00">SendRequest()</text>
<text text-anchor="start" x="14" y="-6.5" font-family="Helvetica,sans-Serif" font-size="10.00">+</text>
<text text-anchor="start" x="37" y="-6.5" font-family="Helvetica,sans-Serif" font-size="10.00">ReadResponse()</text>
<polygon fill="#666666" stroke="#666666" points="0,-46.5 0,-46.5 142,-46.5 142,-46.5 0,-46.5"/>
<polygon fill="#666666" stroke="#666666" points="0,-31.5 0,-31.5 142,-31.5 142,-31.5 0,-31.5"/>
<polygon fill="none" stroke="#666666" points="0,0 0,-75 142,-75 142,0 0,0"/>
</a>
</g>
</g>
<!-- Node1&#45;&gt;Node2 -->
<g id="edge1_Node000001_Node000002" class="edge">
<title>Node1&#45;&gt;Node2</title>
<g id="a_edge1_Node000001_Node000002"><a xlink:title=" ">
<path fill="none" stroke="darkgreen" d="M121.36,-102.85C114.31,-93.84 106.83,-84.28 99.85,-75.37"/>
<polygon fill="none" stroke="darkgreen" points="118.78,-105.23 127.7,-110.95 124.29,-100.91 118.78,-105.23"/>
</a>
</g>
</g>
<!-- Node3 -->
<g id="Node000003" class="node">
<title>Node3</title>
<g id="a_Node000003"><a xlink:href="classjsonrpc_1_1FramedStdioServerTransport.html" target="_top" xlink:title="Server transport using framed stdio for communication.">
<polygon fill="white" stroke="transparent" points="305.5,-67.5 160.5,-67.5 160.5,-7.5 305.5,-7.5 305.5,-67.5"/>
<text text-anchor="start" x="166" y="-55.5" font-family="Helvetica,sans-Serif" font-size="10.00">jsonrpc::FramedStdioServer</text>
<text text-anchor="start" x="210.5" y="-44.5" font-family="Helvetica,sans-Serif" font-size="10.00">Transport</text>
<text text-anchor="start" x="231.5" y="-29.5" font-family="Helvetica,sans-Serif" font-size="10.00"> </text>
<text text-anchor="start" x="186.5" y="-14.5" font-family="Helvetica,sans-Serif" font-size="10.00">#</text>
<text text-anchor="start" x="221" y="-14.5" font-family="Helvetica,sans-Serif" font-size="10.00">Listen()</text>
<polygon fill="#666666" stroke="#666666" points="161,-39.5 161,-39.5 306,-39.5 306,-39.5 161,-39.5"/>
<polygon fill="#666666" stroke="#666666" points="161,-24.5 161,-24.5 306,-24.5 306,-24.5 161,-24.5"/>
<polygon fill="none" stroke="#666666" points="160.5,-7.5 160.5,-67.5 305.5,-67.5 305.5,-7.5 160.5,-7.5"/>
</a>
</g>
</g>
<!-- Node1&#45;&gt;Node3 -->
<g id="edge2_Node000001_Node000003" class="edge">
<title>Node1&#45;&gt;Node3</title>
<g id="a_edge2_Node000001_Node000003"><a xlink:title=" ">
<path fill="none" stroke="darkgreen" d="M182.5,-103.03C191.65,-91.34 201.53,-78.71 210.1,-67.76"/>
<polygon fill="none" stroke="darkgreen" points="179.71,-100.91 176.3,-110.95 185.22,-105.23 179.71,-100.91"/>
</a>
</g>
</g>
</g>
</svg>
