<?xml version="1.0" encoding="UTF-8" standalone="no"?>
<!DOCTYPE svg PUBLIC "-//W3C//DTD SVG 1.1//EN"
 "http://www.w3.org/Graphics/SVG/1.1/DTD/svg11.dtd">
<!-- Generated by graphviz version 2.43.0 (0)
 -->
<!-- Title: jsonrpc::StdioClientTransport Pages: 1 -->
<svg width="158pt" height="187pt"
 viewBox="0.00 0.00 158.00 187.00" xmlns="http://www.w3.org/2000/svg" xmlns:xlink="http://www.w3.org/1999/xlink">
<g id="graph0" class="graph" transform="scale(1 1) rotate(0) translate(4 183)">
<title>jsonrpc::StdioClientTransport</title>
<!-- Node1 -->
<g id="Node000001" class="node">
<title>Node1</title>
<g id="a_Node000001"><a xlink:title="Client transport using stdio for communication.">
<polygon fill="#999999" stroke="transparent" points="150,-64 0,-64 0,0 150,0 150,-64"/>
<text text-anchor="start" x="5" y="-52" font-family="Helvetica,sans-Serif" font-size="10.00">jsonrpc::StdioClientTransport</text>
<text text-anchor="start" x="73" y="-37" font-family="Helvetica,sans-Serif" font-size="10.00"> </text>
<text text-anchor="start" x="14" y="-22" font-family="Helvetica,sans-Serif" font-size="10.00">+</text>
<text text-anchor="start" x="37" y="-22" font-family="Helvetica,sans-Serif" font-size="10.00">SendMethodCall()</text>
<text text-anchor="start" x="14" y="-7" font-family="Helvetica,sans-Serif" font-size="10.00">+</text>
<text text-anchor="start" x="37" y="-7" font-family="Helvetica,sans-Serif" font-size="10.00">SendNotification()</text>
<polygon fill="#666666" stroke="#666666" points="0,-47 0,-47 150,-47 150,-47 0,-47"/>
<polygon fill="#666666" stroke="#666666" points="0,-32 0,-32 150,-32 150,-32 0,-32"/>
<polygon fill="none" stroke="#666666" points="0,0 0,-64 150,-64 150,0 0,0"/>
</a>
</g>
</g>
<!-- Node2 -->
<g id="Node000002" class="node">
<title>Node2</title>
<g id="a_Node000002"><a xlink:href="classjsonrpc_1_1ClientTransport.html" target="_top" xlink:title="An abstract class representing the transport mechanism for JSON&#45;RPC client.">
<polygon fill="white" stroke="transparent" points="137.5,-179 12.5,-179 12.5,-100 137.5,-100 137.5,-179"/>
<text text-anchor="start" x="18" y="-166.5" font-family="Helvetica,sans-Serif" font-size="10.00">jsonrpc::ClientTransport</text>
<text text-anchor="start" x="73.5" y="-151.5" font-family="Helvetica,sans-Serif" font-size="10.00"> </text>
<text text-anchor="start" x="20.5" y="-136.5" font-family="Helvetica,sans-Serif" font-size="10.00">+</text>
<text text-anchor="start" x="37" y="-136.5" font-family="Helvetica,sans-Serif" font-size="10.00">~ClientTransport()</text>
<text text-anchor="start" x="20.5" y="-121.5" font-family="Helvetica,sans-Serif" font-size="10.00">+</text>
<text text-anchor="start" x="37" y="-121.5" font-family="Helvetica,sans-Serif" font-size="10.00">SendMethodCall()</text>
<text text-anchor="start" x="20.5" y="-106.5" font-family="Helvetica,sans-Serif" font-size="10.00">+</text>
<text text-anchor="start" x="37" y="-106.5" font-family="Helvetica,sans-Serif" font-size="10.00">SendNotification()</text>
<polygon fill="#666666" stroke="#666666" points="13,-161.5 13,-161.5 138,-161.5 138,-161.5 13,-161.5"/>
<polygon fill="#666666" stroke="#666666" points="13,-146.5 13,-146.5 138,-146.5 138,-146.5 13,-146.5"/>
<polygon fill="none" stroke="#666666" points="12.5,-100 12.5,-179 137.5,-179 137.5,-100 12.5,-100"/>
</a>
</g>
</g>
<!-- Node2&#45;&gt;Node1 -->
<g id="edge1_Node000001_Node000002" class="edge">
<title>Node2&#45;&gt;Node1</title>
<g id="a_edge1_Node000001_Node000002"><a xlink:title=" ">
<path fill="none" stroke="#63b8ff" d="M75,-89.71C75,-81 75,-72.14 75,-64.09"/>
<polygon fill="none" stroke="#63b8ff" points="71.5,-89.81 75,-99.81 78.5,-89.81 71.5,-89.81"/>
</a>
</g>
</g>
</g>
</svg>
