<?xml version="1.0" encoding="UTF-8" standalone="no"?>
<!DOCTYPE svg PUBLIC "-//W3C//DTD SVG 1.1//EN"
 "http://www.w3.org/Graphics/SVG/1.1/DTD/svg11.dtd">
<!-- Generated by graphviz version 2.43.0 (0)
 -->
<!-- Title: json_rpc::ServerTransport::IsRunning Pages: 1 -->
<svg width="348pt" height="86pt"
 viewBox="0.00 0.00 348.00 86.00" xmlns="http://www.w3.org/2000/svg" xmlns:xlink="http://www.w3.org/1999/xlink">
<g id="graph0" class="graph" transform="scale(1 1) rotate(0) translate(4 82)">
<title>json_rpc::ServerTransport::IsRunning</title>
<!-- Node1 -->
<g id="Node000001" class="node">
<title>Node1</title>
<g id="a_Node000001"><a xlink:title="Checks if the transport is running.">
<polygon fill="#999999" stroke="#666666" points="340,-54 200,-54 200,-24 340,-24 340,-54"/>
<text text-anchor="start" x="208" y="-42" font-family="Helvetica,sans-Serif" font-size="10.00">json_rpc::ServerTransport</text>
<text text-anchor="middle" x="270" y="-31" font-family="Helvetica,sans-Serif" font-size="10.00">::IsRunning</text>
</a>
</g>
</g>
<!-- Node2 -->
<g id="Node000002" class="node">
<title>Node2</title>
<g id="a_Node000002"><a xlink:href="classjson__rpc_1_1FramedStdioServerTransport.html#a9defce0b2696eb94d03cf5f0e2d057f9" target="_top" xlink:title="Listens for incoming messages and dispatches them to the appropriate handlers.">
<polygon fill="white" stroke="#666666" points="160,-78 4,-78 4,-48 160,-48 160,-78"/>
<text text-anchor="start" x="12" y="-66" font-family="Helvetica,sans-Serif" font-size="10.00">json_rpc::FramedStdioServer</text>
<text text-anchor="middle" x="82" y="-55" font-family="Helvetica,sans-Serif" font-size="10.00">Transport::Listen</text>
</a>
</g>
</g>
<!-- Node1&#45;&gt;Node2 -->
<g id="edge1_Node000001_Node000002" class="edge">
<title>Node1&#45;&gt;Node2</title>
<g id="a_edge1_Node000001_Node000002"><a xlink:title=" ">
<path fill="none" stroke="#63b8ff" d="M189.64,-49.24C179.86,-50.5 169.88,-51.79 160.13,-53.05"/>
<polygon fill="#63b8ff" stroke="#63b8ff" points="190.27,-52.69 199.74,-47.94 189.37,-45.75 190.27,-52.69"/>
</a>
</g>
</g>
<!-- Node3 -->
<g id="Node000003" class="node">
<title>Node3</title>
<g id="a_Node000003"><a xlink:href="classjson__rpc_1_1StdioServerTransport.html#af0140236cf0e829636f50beab3306852" target="_top" xlink:title="Listens for incoming messages and dispatches them to the appropriate handlers.">
<polygon fill="white" stroke="#666666" points="164,-30 0,-30 0,0 164,0 164,-30"/>
<text text-anchor="start" x="8" y="-18" font-family="Helvetica,sans-Serif" font-size="10.00">json_rpc::StdioServerTransport</text>
<text text-anchor="middle" x="82" y="-7" font-family="Helvetica,sans-Serif" font-size="10.00">::Listen</text>
</a>
</g>
</g>
<!-- Node1&#45;&gt;Node3 -->
<g id="edge2_Node000001_Node000003" class="edge">
<title>Node1&#45;&gt;Node3</title>
<g id="a_edge2_Node000001_Node000003"><a xlink:title=" ">
<path fill="none" stroke="#63b8ff" d="M189.6,-28.75C181.2,-27.67 172.66,-26.57 164.24,-25.48"/>
<polygon fill="#63b8ff" stroke="#63b8ff" points="189.37,-32.25 199.74,-30.06 190.27,-25.31 189.37,-32.25"/>
</a>
</g>
</g>
</g>
</svg>
