<?xml version="1.0" encoding="UTF-8" standalone="no"?>
<!DOCTYPE svg PUBLIC "-//W3C//DTD SVG 1.1//EN"
 "http://www.w3.org/Graphics/SVG/1.1/DTD/svg11.dtd">
<!-- Generated by graphviz version 2.43.0 (0)
 -->
<!-- Title: json_rpc::FramedTransport::ReceiveMessage Pages: 1 -->
<svg width="345pt" height="86pt"
 viewBox="0.00 0.00 345.00 86.00" xmlns="http://www.w3.org/2000/svg" xmlns:xlink="http://www.w3.org/1999/xlink">
<g id="graph0" class="graph" transform="scale(1 1) rotate(0) translate(4 82)">
<title>json_rpc::FramedTransport::ReceiveMessage</title>
<!-- Node1 -->
<g id="Node000001" class="node">
<title>Node1</title>
<g id="a_Node000001"><a xlink:title="Receives a framed message.">
<polygon fill="#999999" stroke="#666666" points="337,-54 192,-54 192,-24 337,-24 337,-54"/>
<text text-anchor="start" x="200" y="-42" font-family="Helvetica,sans-Serif" font-size="10.00">json_rpc::FramedTransport</text>
<text text-anchor="middle" x="264.5" y="-31" font-family="Helvetica,sans-Serif" font-size="10.00">::ReceiveMessage</text>
</a>
</g>
</g>
<!-- Node2 -->
<g id="Node000002" class="node">
<title>Node2</title>
<g id="a_Node000002"><a xlink:href="classjson__rpc_1_1FramedStdioServerTransport.html#a9defce0b2696eb94d03cf5f0e2d057f9" target="_top" xlink:title="Listens for incoming messages and dispatches them to the appropriate handlers.">
<polygon fill="white" stroke="#666666" points="156,-78 0,-78 0,-48 156,-48 156,-78"/>
<text text-anchor="start" x="8" y="-66" font-family="Helvetica,sans-Serif" font-size="10.00">json_rpc::FramedStdioServer</text>
<text text-anchor="middle" x="78" y="-55" font-family="Helvetica,sans-Serif" font-size="10.00">Transport::Listen</text>
</a>
</g>
</g>
<!-- Node1&#45;&gt;Node2 -->
<g id="edge1_Node000001_Node000002" class="edge">
<title>Node1&#45;&gt;Node2</title>
<g id="a_edge1_Node000001_Node000002"><a xlink:title=" ">
<path fill="none" stroke="#63b8ff" d="M181.9,-49.62C173.31,-50.73 164.59,-51.87 156.06,-52.98"/>
<polygon fill="#63b8ff" stroke="#63b8ff" points="182.44,-53.07 191.9,-48.31 181.54,-46.13 182.44,-53.07"/>
</a>
</g>
</g>
<!-- Node3 -->
<g id="Node000003" class="node">
<title>Node3</title>
<g id="a_Node000003"><a xlink:href="classjson__rpc_1_1FramedStdioClientTransport.html#a2a877b1bf92d96ff9c20dca13c4eed51" target="_top" xlink:title="Sends an RPC method call to the server.">
<polygon fill="white" stroke="#666666" points="154.5,-30 1.5,-30 1.5,0 154.5,0 154.5,-30"/>
<text text-anchor="start" x="9.5" y="-18" font-family="Helvetica,sans-Serif" font-size="10.00">json_rpc::FramedStdioClient</text>
<text text-anchor="middle" x="78" y="-7" font-family="Helvetica,sans-Serif" font-size="10.00">Transport::SendMethodCall</text>
</a>
</g>
</g>
<!-- Node1&#45;&gt;Node3 -->
<g id="edge2_Node000001_Node000003" class="edge">
<title>Node1&#45;&gt;Node3</title>
<g id="a_edge2_Node000001_Node000003"><a xlink:title=" ">
<path fill="none" stroke="#63b8ff" d="M181.75,-28.37C172.69,-27.19 163.5,-25.99 154.52,-24.82"/>
<polygon fill="#63b8ff" stroke="#63b8ff" points="181.54,-31.87 191.9,-29.69 182.44,-24.93 181.54,-31.87"/>
</a>
</g>
</g>
</g>
</svg>
