<?xml version="1.0" encoding="UTF-8" standalone="no"?>
<!DOCTYPE svg PUBLIC "-//W3C//DTD SVG 1.1//EN"
 "http://www.w3.org/Graphics/SVG/1.1/DTD/svg11.dtd">
<!-- Generated by graphviz version 2.43.0 (0)
 -->
<!-- Title: jsonrpc::IDispatcher Pages: 1 -->
<svg width="134pt" height="217pt"
 viewBox="0.00 0.00 134.00 217.00" xmlns="http://www.w3.org/2000/svg" xmlns:xlink="http://www.w3.org/1999/xlink">
<g id="graph0" class="graph" transform="scale(1 1) rotate(0) translate(4 213)">
<title>jsonrpc::IDispatcher</title>
<!-- Node1 -->
<g id="Node000001" class="node">
<title>Node1</title>
<g id="a_Node000001"><a xlink:title="Interface for JSON&#45;RPC request dispatchers.">
<polygon fill="#999999" stroke="transparent" points="119,-209 7,-209 7,-145 119,-145 119,-209"/>
<text text-anchor="start" x="14.5" y="-197" font-family="Helvetica,sans-Serif" font-size="10.00">jsonrpc::IDispatcher</text>
<text text-anchor="start" x="61" y="-182" font-family="Helvetica,sans-Serif" font-size="10.00"> </text>
<text text-anchor="start" x="11" y="-167" font-family="Helvetica,sans-Serif" font-size="10.00">+</text>
<text text-anchor="start" x="24" y="-167" font-family="Helvetica,sans-Serif" font-size="10.00">~IDispatcher()</text>
<text text-anchor="start" x="11" y="-152" font-family="Helvetica,sans-Serif" font-size="10.00">+</text>
<text text-anchor="start" x="24" y="-152" font-family="Helvetica,sans-Serif" font-size="10.00">DispatchRequest()</text>
<polygon fill="#666666" stroke="#666666" points="7,-192 7,-192 119,-192 119,-192 7,-192"/>
<polygon fill="#666666" stroke="#666666" points="7,-177 7,-177 119,-177 119,-177 7,-177"/>
<polygon fill="none" stroke="#666666" points="7,-145 7,-209 119,-209 119,-145 7,-145"/>
</a>
</g>
</g>
<!-- Node2 -->
<g id="Node000002" class="node">
<title>Node2</title>
<g id="a_Node000002"><a xlink:href="classjsonrpc_1_1Dispatcher.html" target="_top" xlink:title="Dispatcher for JSON&#45;RPC requests.">
<polygon fill="white" stroke="transparent" points="126,-109 0,-109 0,0 126,0 126,-109"/>
<text text-anchor="start" x="16" y="-96.5" font-family="Helvetica,sans-Serif" font-size="10.00">jsonrpc::Dispatcher</text>
<text text-anchor="start" x="61" y="-81.5" font-family="Helvetica,sans-Serif" font-size="10.00"> </text>
<text text-anchor="start" x="4" y="-66.5" font-family="Helvetica,sans-Serif" font-size="10.00">+</text>
<text text-anchor="start" x="17" y="-66.5" font-family="Helvetica,sans-Serif" font-size="10.00">Dispatcher()</text>
<text text-anchor="start" x="4" y="-51.5" font-family="Helvetica,sans-Serif" font-size="10.00">+</text>
<text text-anchor="start" x="17" y="-51.5" font-family="Helvetica,sans-Serif" font-size="10.00">~Dispatcher()</text>
<text text-anchor="start" x="4" y="-36.5" font-family="Helvetica,sans-Serif" font-size="10.00">+</text>
<text text-anchor="start" x="17" y="-36.5" font-family="Helvetica,sans-Serif" font-size="10.00">DispatchRequest()</text>
<text text-anchor="start" x="4" y="-21.5" font-family="Helvetica,sans-Serif" font-size="10.00">+</text>
<text text-anchor="start" x="17" y="-21.5" font-family="Helvetica,sans-Serif" font-size="10.00">RegisterMethodCall()</text>
<text text-anchor="start" x="4" y="-6.5" font-family="Helvetica,sans-Serif" font-size="10.00">+</text>
<text text-anchor="start" x="17" y="-6.5" font-family="Helvetica,sans-Serif" font-size="10.00">RegisterNotification()</text>
<polygon fill="#666666" stroke="#666666" points="0,-91.5 0,-91.5 126,-91.5 126,-91.5 0,-91.5"/>
<polygon fill="#666666" stroke="#666666" points="0,-76.5 0,-76.5 126,-76.5 126,-76.5 0,-76.5"/>
<polygon fill="none" stroke="#666666" points="0,0 0,-109 126,-109 126,0 0,0"/>
</a>
</g>
</g>
<!-- Node1&#45;&gt;Node2 -->
<g id="edge1_Node000001_Node000002" class="edge">
<title>Node1&#45;&gt;Node2</title>
<g id="a_edge1_Node000001_Node000002"><a xlink:title=" ">
<path fill="none" stroke="#63b8ff" d="M63,-134.89C63,-126.67 63,-117.91 63,-109.33"/>
<polygon fill="none" stroke="#63b8ff" points="59.5,-134.97 63,-144.97 66.5,-134.97 59.5,-134.97"/>
</a>
</g>
</g>
</g>
</svg>
