<?xml version="1.0" encoding="UTF-8" standalone="no"?>
<!DOCTYPE svg PUBLIC "-//W3C//DTD SVG 1.1//EN"
 "http://www.w3.org/Graphics/SVG/1.1/DTD/svg11.dtd">
<!-- Generated by graphviz version 2.43.0 (0)
 -->
<!-- Title: jsonrpc::HttpClientTransport Pages: 1 -->
<svg width="154pt" height="202pt"
 viewBox="0.00 0.00 154.00 202.00" xmlns="http://www.w3.org/2000/svg" xmlns:xlink="http://www.w3.org/1999/xlink">
<g id="graph0" class="graph" transform="scale(1 1) rotate(0) translate(4 198)">
<title>jsonrpc::HttpClientTransport</title>
<!-- Node1 -->
<g id="Node000001" class="node">
<title>Node1</title>
<g id="a_Node000001"><a xlink:title="Client transport using HTTP for communication.">
<polygon fill="#999999" stroke="transparent" points="146,-79 0,-79 0,0 146,0 146,-79"/>
<text text-anchor="start" x="5" y="-66.5" font-family="Helvetica,sans-Serif" font-size="10.00">jsonrpc::HttpClientTransport</text>
<text text-anchor="start" x="71" y="-51.5" font-family="Helvetica,sans-Serif" font-size="10.00"> </text>
<text text-anchor="start" x="9.5" y="-36.5" font-family="Helvetica,sans-Serif" font-size="10.00">+</text>
<text text-anchor="start" x="28" y="-36.5" font-family="Helvetica,sans-Serif" font-size="10.00">HttpClientTransport()</text>
<text text-anchor="start" x="9.5" y="-21.5" font-family="Helvetica,sans-Serif" font-size="10.00">+</text>
<text text-anchor="start" x="28" y="-21.5" font-family="Helvetica,sans-Serif" font-size="10.00">SendMethodCall()</text>
<text text-anchor="start" x="9.5" y="-6.5" font-family="Helvetica,sans-Serif" font-size="10.00">+</text>
<text text-anchor="start" x="28" y="-6.5" font-family="Helvetica,sans-Serif" font-size="10.00">SendNotification()</text>
<polygon fill="#666666" stroke="#666666" points="0,-61.5 0,-61.5 146,-61.5 146,-61.5 0,-61.5"/>
<polygon fill="#666666" stroke="#666666" points="0,-46.5 0,-46.5 146,-46.5 146,-46.5 0,-46.5"/>
<polygon fill="none" stroke="#666666" points="0,0 0,-79 146,-79 146,0 0,0"/>
</a>
</g>
</g>
<!-- Node2 -->
<g id="Node000002" class="node">
<title>Node2</title>
<g id="a_Node000002"><a xlink:href="classjsonrpc_1_1ClientTransport.html" target="_top" xlink:title="An abstract class representing the transport mechanism for JSON&#45;RPC client.">
<polygon fill="white" stroke="transparent" points="135.5,-194 10.5,-194 10.5,-115 135.5,-115 135.5,-194"/>
<text text-anchor="start" x="16" y="-181.5" font-family="Helvetica,sans-Serif" font-size="10.00">jsonrpc::ClientTransport</text>
<text text-anchor="start" x="71.5" y="-166.5" font-family="Helvetica,sans-Serif" font-size="10.00"> </text>
<text text-anchor="start" x="18.5" y="-151.5" font-family="Helvetica,sans-Serif" font-size="10.00">+</text>
<text text-anchor="start" x="35" y="-151.5" font-family="Helvetica,sans-Serif" font-size="10.00">~ClientTransport()</text>
<text text-anchor="start" x="18.5" y="-136.5" font-family="Helvetica,sans-Serif" font-size="10.00">+</text>
<text text-anchor="start" x="35" y="-136.5" font-family="Helvetica,sans-Serif" font-size="10.00">SendMethodCall()</text>
<text text-anchor="start" x="18.5" y="-121.5" font-family="Helvetica,sans-Serif" font-size="10.00">+</text>
<text text-anchor="start" x="35" y="-121.5" font-family="Helvetica,sans-Serif" font-size="10.00">SendNotification()</text>
<polygon fill="#666666" stroke="#666666" points="11,-176.5 11,-176.5 136,-176.5 136,-176.5 11,-176.5"/>
<polygon fill="#666666" stroke="#666666" points="11,-161.5 11,-161.5 136,-161.5 136,-161.5 11,-161.5"/>
<polygon fill="none" stroke="#666666" points="10.5,-115 10.5,-194 135.5,-194 135.5,-115 10.5,-115"/>
</a>
</g>
</g>
<!-- Node2&#45;&gt;Node1 -->
<g id="edge1_Node000001_Node000002" class="edge">
<title>Node2&#45;&gt;Node1</title>
<g id="a_edge1_Node000001_Node000002"><a xlink:title=" ">
<path fill="none" stroke="#63b8ff" d="M73,-104.72C73,-96.22 73,-87.47 73,-79.28"/>
<polygon fill="none" stroke="#63b8ff" points="69.5,-104.93 73,-114.93 76.5,-104.93 69.5,-104.93"/>
</a>
</g>
</g>
</g>
</svg>
