<?xml version="1.0" encoding="UTF-8" standalone="no"?>
<!DOCTYPE svg PUBLIC "-//W3C//DTD SVG 1.1//EN"
 "http://www.w3.org/Graphics/SVG/1.1/DTD/svg11.dtd">
<!-- Generated by graphviz version 2.43.0 (0)
 -->
<!-- Title: jsonrpc::common::transports::FramedTransport Pages: 1 -->
<svg width="334pt" height="194pt"
 viewBox="0.00 0.00 333.50 194.00" xmlns="http://www.w3.org/2000/svg" xmlns:xlink="http://www.w3.org/1999/xlink">
<g id="graph0" class="graph" transform="scale(1 1) rotate(0) translate(4 190)">
<title>jsonrpc::common::transports::FramedTransport</title>
<!-- Node1 -->
<g id="Node000001" class="node">
<title>Node1</title>
<g id="a_Node000001"><a xlink:title="Base class for framed transport mechanisms.">
<polygon fill="#999999" stroke="transparent" points="237,-186 87,-186 87,-111 237,-111 237,-186"/>
<text text-anchor="start" x="92" y="-173.5" font-family="Helvetica,sans-Serif" font-size="10.00">jsonrpc::common::transports</text>
<text text-anchor="start" x="118" y="-162.5" font-family="Helvetica,sans-Serif" font-size="10.00">::FramedTransport</text>
<text text-anchor="start" x="160" y="-147.5" font-family="Helvetica,sans-Serif" font-size="10.00"> </text>
<text text-anchor="start" x="99.5" y="-132.5" font-family="Helvetica,sans-Serif" font-size="10.00">#</text>
<text text-anchor="start" x="121" y="-132.5" font-family="Helvetica,sans-Serif" font-size="10.00">FrameMessage()</text>
<text text-anchor="start" x="99.5" y="-117.5" font-family="Helvetica,sans-Serif" font-size="10.00">#</text>
<text text-anchor="start" x="121" y="-117.5" font-family="Helvetica,sans-Serif" font-size="10.00">DeframeMessage()</text>
<polygon fill="#666666" stroke="#666666" points="87,-157.5 87,-157.5 237,-157.5 237,-157.5 87,-157.5"/>
<polygon fill="#666666" stroke="#666666" points="87,-142.5 87,-142.5 237,-142.5 237,-142.5 87,-142.5"/>
<polygon fill="none" stroke="#666666" points="87,-111 87,-186 237,-186 237,-111 87,-111"/>
</a>
</g>
</g>
<!-- Node2 -->
<g id="Node000002" class="node">
<title>Node2</title>
<g id="a_Node000002"><a xlink:href="classjsonrpc_1_1client_1_1transports_1_1FramedStdioClientTransport.html" target="_top" xlink:title="Transport layer using framed messaging over standard I/O for JSON&#45;RPC communication.">
<polygon fill="white" stroke="transparent" points="152,-75 0,-75 0,0 152,0 152,-75"/>
<text text-anchor="start" x="5" y="-62.5" font-family="Helvetica,sans-Serif" font-size="10.00">jsonrpc::client::transports</text>
<text text-anchor="start" x="5" y="-51.5" font-family="Helvetica,sans-Serif" font-size="10.00">::FramedStdioClientTransport</text>
<text text-anchor="start" x="74" y="-36.5" font-family="Helvetica,sans-Serif" font-size="10.00"> </text>
<text text-anchor="start" x="16.5" y="-21.5" font-family="Helvetica,sans-Serif" font-size="10.00">+</text>
<text text-anchor="start" x="42" y="-21.5" font-family="Helvetica,sans-Serif" font-size="10.00">SendRequest()</text>
<text text-anchor="start" x="16.5" y="-6.5" font-family="Helvetica,sans-Serif" font-size="10.00">+</text>
<text text-anchor="start" x="42" y="-6.5" font-family="Helvetica,sans-Serif" font-size="10.00">ReadResponse()</text>
<polygon fill="#666666" stroke="#666666" points="0,-46.5 0,-46.5 152,-46.5 152,-46.5 0,-46.5"/>
<polygon fill="#666666" stroke="#666666" points="0,-31.5 0,-31.5 152,-31.5 152,-31.5 0,-31.5"/>
<polygon fill="none" stroke="#666666" points="0,0 0,-75 152,-75 152,0 0,0"/>
</a>
</g>
</g>
<!-- Node1&#45;&gt;Node2 -->
<g id="edge1_Node000001_Node000002" class="edge">
<title>Node1&#45;&gt;Node2</title>
<g id="a_edge1_Node000001_Node000002"><a xlink:title=" ">
<path fill="none" stroke="darkgreen" d="M126.83,-102.93C119.56,-93.7 111.97,-84.09 104.95,-75.19"/>
<polygon fill="none" stroke="darkgreen" points="124.18,-105.22 133.12,-110.9 129.68,-100.88 124.18,-105.22"/>
</a>
</g>
</g>
<!-- Node3 -->
<g id="Node000003" class="node">
<title>Node3</title>
<g id="a_Node000003"><a xlink:href="classjsonrpc_1_1server_1_1transports_1_1FramedStdioServerTransport.html" target="_top" xlink:title="Server transport using framed stdio for communication.">
<polygon fill="white" stroke="transparent" points="325.5,-67.5 170.5,-67.5 170.5,-7.5 325.5,-7.5 325.5,-67.5"/>
<text text-anchor="start" x="176" y="-55.5" font-family="Helvetica,sans-Serif" font-size="10.00">jsonrpc::server::transports</text>
<text text-anchor="start" x="176" y="-44.5" font-family="Helvetica,sans-Serif" font-size="10.00">::FramedStdioServerTransport</text>
<text text-anchor="start" x="246.5" y="-29.5" font-family="Helvetica,sans-Serif" font-size="10.00"> </text>
<text text-anchor="start" x="199" y="-14.5" font-family="Helvetica,sans-Serif" font-size="10.00">#</text>
<text text-anchor="start" x="236" y="-14.5" font-family="Helvetica,sans-Serif" font-size="10.00">Listen()</text>
<polygon fill="#666666" stroke="#666666" points="171,-39.5 171,-39.5 326,-39.5 326,-39.5 171,-39.5"/>
<polygon fill="#666666" stroke="#666666" points="171,-24.5 171,-24.5 326,-24.5 326,-24.5 171,-24.5"/>
<polygon fill="none" stroke="#666666" points="170.5,-7.5 170.5,-67.5 325.5,-67.5 325.5,-7.5 170.5,-7.5"/>
</a>
</g>
</g>
<!-- Node1&#45;&gt;Node3 -->
<g id="edge2_Node000001_Node000003" class="edge">
<title>Node1&#45;&gt;Node3</title>
<g id="a_edge2_Node000001_Node000003"><a xlink:title=" ">
<path fill="none" stroke="darkgreen" d="M197.26,-102.81C206.63,-90.93 216.51,-78.41 225.04,-67.6"/>
<polygon fill="none" stroke="darkgreen" points="194.32,-100.88 190.88,-110.9 199.82,-105.22 194.32,-100.88"/>
</a>
</g>
</g>
</g>
</svg>
