<?xml version="1.0" encoding="UTF-8" standalone="no"?>
<!DOCTYPE svg PUBLIC "-//W3C//DTD SVG 1.1//EN"
 "http://www.w3.org/Graphics/SVG/1.1/DTD/svg11.dtd">
<!-- Generated by graphviz version 2.43.0 (0)
 -->
<!-- Title: jsonrpc::transport::SocketTransport Pages: 1 -->
<svg width="151pt" height="380pt"
 viewBox="0.00 0.00 151.00 380.00" xmlns="http://www.w3.org/2000/svg" xmlns:xlink="http://www.w3.org/1999/xlink">
<g id="graph0" class="graph" transform="scale(1 1) rotate(0) translate(4 376)">
<title>jsonrpc::transport::SocketTransport</title>
<!-- Node1 -->
<g id="Node000001" class="node">
<title>Node1</title>
<g id="a_Node000001"><a xlink:title="Transport implementation using TCP/IP sockets.">
<polygon fill="#999999" stroke="transparent" points="129,-246 14,-246 14,-126 129,-126 129,-246"/>
<text text-anchor="start" x="29" y="-234" font-family="Helvetica,sans-Serif" font-size="10.00">jsonrpc::transport</text>
<text text-anchor="start" x="30" y="-223" font-family="Helvetica,sans-Serif" font-size="10.00">::SocketTransport</text>
<text text-anchor="start" x="70" y="-208" font-family="Helvetica,sans-Serif" font-size="10.00"> </text>
<text text-anchor="start" x="18.5" y="-193" font-family="Helvetica,sans-Serif" font-size="10.00">+</text>
<text text-anchor="start" x="31.5" y="-193" font-family="Helvetica,sans-Serif" font-size="10.00">SocketTransport()</text>
<text text-anchor="start" x="18.5" y="-178" font-family="Helvetica,sans-Serif" font-size="10.00">+</text>
<text text-anchor="start" x="31.5" y="-178" font-family="Helvetica,sans-Serif" font-size="10.00">~SocketTransport()</text>
<text text-anchor="start" x="18.5" y="-163" font-family="Helvetica,sans-Serif" font-size="10.00">+</text>
<text text-anchor="start" x="31.5" y="-163" font-family="Helvetica,sans-Serif" font-size="10.00">SendMessage()</text>
<text text-anchor="start" x="18.5" y="-148" font-family="Helvetica,sans-Serif" font-size="10.00">+</text>
<text text-anchor="start" x="31.5" y="-148" font-family="Helvetica,sans-Serif" font-size="10.00">ReceiveMessage()</text>
<text text-anchor="start" x="18.5" y="-133" font-family="Helvetica,sans-Serif" font-size="10.00">#</text>
<text text-anchor="start" x="31.5" y="-133" font-family="Helvetica,sans-Serif" font-size="10.00">GetSocket()</text>
<polygon fill="#666666" stroke="#666666" points="14.5,-218 14.5,-218 129.5,-218 129.5,-218 14.5,-218"/>
<polygon fill="#666666" stroke="#666666" points="14.5,-203 14.5,-203 129.5,-203 129.5,-203 14.5,-203"/>
<polygon fill="none" stroke="#666666" points="14,-126 14,-246 129,-246 129,-126 14,-126"/>
</a>
</g>
</g>
<!-- Node3 -->
<g id="Node000003" class="node">
<title>Node3</title>
<g id="a_Node000003"><a xlink:href="classjsonrpc_1_1transport_1_1FramedSocketTransport.html" target="_top" xlink:title="Transport layer using Asio sockets for JSON&#45;RPC communication with framing.">
<polygon fill="white" stroke="transparent" points="143,-90 0,-90 0,0 143,0 143,-90"/>
<text text-anchor="start" x="11.5" y="-78" font-family="Helvetica,sans-Serif" font-size="10.00">jsonrpc::transport</text>
<text text-anchor="start" x="11.5" y="-67" font-family="Helvetica,sans-Serif" font-size="10.00">::FramedSocketTransport</text>
<text text-anchor="start" x="70" y="-52" font-family="Helvetica,sans-Serif" font-size="10.00"> </text>
<text text-anchor="start" x="4.5" y="-37" font-family="Helvetica,sans-Serif" font-size="10.00">+</text>
<text text-anchor="start" x="17.5" y="-37" font-family="Helvetica,sans-Serif" font-size="10.00">FramedSocketTransport()</text>
<text text-anchor="start" x="4.5" y="-22" font-family="Helvetica,sans-Serif" font-size="10.00">+</text>
<text text-anchor="start" x="17.5" y="-22" font-family="Helvetica,sans-Serif" font-size="10.00">SendMessage()</text>
<text text-anchor="start" x="4.5" y="-7" font-family="Helvetica,sans-Serif" font-size="10.00">+</text>
<text text-anchor="start" x="17.5" y="-7" font-family="Helvetica,sans-Serif" font-size="10.00">ReceiveMessage()</text>
<polygon fill="#666666" stroke="#666666" points="0.5,-62 0.5,-62 143.5,-62 143.5,-62 0.5,-62"/>
<polygon fill="#666666" stroke="#666666" points="0.5,-47 0.5,-47 143.5,-47 143.5,-47 0.5,-47"/>
<polygon fill="none" stroke="#666666" points="0,0 0,-90 143,-90 143,0 0,0"/>
</a>
</g>
</g>
<!-- Node1&#45;&gt;Node3 -->
<g id="edge2_Node000001_Node000003" class="edge">
<title>Node1&#45;&gt;Node3</title>
<g id="a_edge2_Node000001_Node000003"><a xlink:title=" ">
<path fill="none" stroke="#63b8ff" d="M71.5,-115.5C71.5,-106.82 71.5,-98.15 71.5,-90.01"/>
<polygon fill="none" stroke="#63b8ff" points="68,-115.65 71.5,-125.65 75,-115.65 68,-115.65"/>
</a>
</g>
</g>
<!-- Node2 -->
<g id="Node000002" class="node">
<title>Node2</title>
<g id="a_Node000002"><a xlink:href="classjsonrpc_1_1transport_1_1Transport.html" target="_top" xlink:title="Base class for JSON&#45;RPC transport.">
<polygon fill="white" stroke="transparent" points="127.5,-372 15.5,-372 15.5,-282 127.5,-282 127.5,-372"/>
<text text-anchor="start" x="28.5" y="-360" font-family="Helvetica,sans-Serif" font-size="10.00">jsonrpc::transport</text>
<text text-anchor="start" x="45.5" y="-349" font-family="Helvetica,sans-Serif" font-size="10.00">::Transport</text>
<text text-anchor="start" x="69.5" y="-334" font-family="Helvetica,sans-Serif" font-size="10.00"> </text>
<text text-anchor="start" x="19.5" y="-319" font-family="Helvetica,sans-Serif" font-size="10.00">+</text>
<text text-anchor="start" x="32.5" y="-319" font-family="Helvetica,sans-Serif" font-size="10.00">~Transport()</text>
<text text-anchor="start" x="19.5" y="-304" font-family="Helvetica,sans-Serif" font-size="10.00">+</text>
<text text-anchor="start" x="32.5" y="-304" font-family="Helvetica,sans-Serif" font-size="10.00">SendMessage()</text>
<text text-anchor="start" x="19.5" y="-289" font-family="Helvetica,sans-Serif" font-size="10.00">+</text>
<text text-anchor="start" x="32.5" y="-289" font-family="Helvetica,sans-Serif" font-size="10.00">ReceiveMessage()</text>
<polygon fill="#666666" stroke="#666666" points="15.5,-344 15.5,-344 127.5,-344 127.5,-344 15.5,-344"/>
<polygon fill="#666666" stroke="#666666" points="15.5,-329 15.5,-329 127.5,-329 127.5,-329 15.5,-329"/>
<polygon fill="none" stroke="#666666" points="15.5,-282 15.5,-372 127.5,-372 127.5,-282 15.5,-282"/>
</a>
</g>
</g>
<!-- Node2&#45;&gt;Node1 -->
<g id="edge1_Node000001_Node000002" class="edge">
<title>Node2&#45;&gt;Node1</title>
<g id="a_edge1_Node000001_Node000002"><a xlink:title=" ">
<path fill="none" stroke="#63b8ff" d="M71.5,-271.63C71.5,-263.28 71.5,-254.61 71.5,-246.16"/>
<polygon fill="none" stroke="#63b8ff" points="68,-271.64 71.5,-281.64 75,-271.64 68,-271.64"/>
</a>
</g>
</g>
</g>
</svg>
