<?xml version="1.0" encoding="UTF-8" standalone="no"?>
<!DOCTYPE svg PUBLIC "-//W3C//DTD SVG 1.1//EN"
 "http://www.w3.org/Graphics/SVG/1.1/DTD/svg11.dtd">
<!-- Generated by graphviz version 2.43.0 (0)
 -->
<!-- Title: json_rpc::FramedStdioClientTransport::SendMethodCall Pages: 1 -->
<svg width="342pt" height="86pt"
 viewBox="0.00 0.00 342.00 86.00" xmlns="http://www.w3.org/2000/svg" xmlns:xlink="http://www.w3.org/1999/xlink">
<g id="graph0" class="graph" transform="scale(1 1) rotate(0) translate(4 82)">
<title>json_rpc::FramedStdioClientTransport::SendMethodCall</title>
<!-- Node1 -->
<g id="Node000001" class="node">
<title>Node1</title>
<g id="a_Node000001"><a xlink:title="Sends an RPC method call to the server.">
<polygon fill="#999999" stroke="#666666" points="153,-54 0,-54 0,-24 153,-24 153,-54"/>
<text text-anchor="start" x="8" y="-42" font-family="Helvetica,sans-Serif" font-size="10.00">json_rpc::FramedStdioClient</text>
<text text-anchor="middle" x="76.5" y="-31" font-family="Helvetica,sans-Serif" font-size="10.00">Transport::SendMethodCall</text>
</a>
</g>
</g>
<!-- Node2 -->
<g id="Node000002" class="node">
<title>Node2</title>
<g id="a_Node000002"><a xlink:href="classjson__rpc_1_1FramedTransport.html#a856a511e9ddc74f451645d3801007c17" target="_top" xlink:title="Receives a framed message.">
<polygon fill="white" stroke="#666666" points="334,-78 189,-78 189,-48 334,-48 334,-78"/>
<text text-anchor="start" x="197" y="-66" font-family="Helvetica,sans-Serif" font-size="10.00">json_rpc::FramedTransport</text>
<text text-anchor="middle" x="261.5" y="-55" font-family="Helvetica,sans-Serif" font-size="10.00">::ReceiveMessage</text>
</a>
</g>
</g>
<!-- Node1&#45;&gt;Node2 -->
<g id="edge1_Node000001_Node000002" class="edge">
<title>Node1&#45;&gt;Node2</title>
<g id="a_edge1_Node000001_Node000002"><a xlink:title=" ">
<path fill="none" stroke="#63b8ff" d="M153.25,-48.93C161.73,-50.05 170.4,-51.18 178.95,-52.31"/>
<polygon fill="#63b8ff" stroke="#63b8ff" points="178.55,-55.78 188.92,-53.61 179.46,-48.84 178.55,-55.78"/>
</a>
</g>
</g>
<!-- Node3 -->
<g id="Node000003" class="node">
<title>Node3</title>
<g id="a_Node000003"><a xlink:href="classjson__rpc_1_1FramedTransport.html#a067346319d9f5af26a34b63ae91175be" target="_top" xlink:title="Sends a framed message.">
<polygon fill="white" stroke="#666666" points="334,-30 189,-30 189,0 334,0 334,-30"/>
<text text-anchor="start" x="197" y="-18" font-family="Helvetica,sans-Serif" font-size="10.00">json_rpc::FramedTransport</text>
<text text-anchor="middle" x="261.5" y="-7" font-family="Helvetica,sans-Serif" font-size="10.00">::SendMessage</text>
</a>
</g>
</g>
<!-- Node1&#45;&gt;Node3 -->
<g id="edge2_Node000001_Node000003" class="edge">
<title>Node1&#45;&gt;Node3</title>
<g id="a_edge2_Node000001_Node000003"><a xlink:title=" ">
<path fill="none" stroke="#63b8ff" d="M153.25,-29.07C161.73,-27.95 170.4,-26.82 178.95,-25.69"/>
<polygon fill="#63b8ff" stroke="#63b8ff" points="179.46,-29.16 188.92,-24.39 178.55,-22.22 179.46,-29.16"/>
</a>
</g>
</g>
</g>
</svg>
