<?xml version="1.0" encoding="UTF-8" standalone="no"?>
<!DOCTYPE svg PUBLIC "-//W3C//DTD SVG 1.1//EN"
 "http://www.w3.org/Graphics/SVG/1.1/DTD/svg11.dtd">
<!-- Generated by graphviz version 2.43.0 (0)
 -->
<!-- Title: jsonrpc::server::transports::ServerTransport Pages: 1 -->
<svg width="320pt" height="269pt"
 viewBox="0.00 0.00 319.50 269.00" xmlns="http://www.w3.org/2000/svg" xmlns:xlink="http://www.w3.org/1999/xlink">
<g id="graph0" class="graph" transform="scale(1 1) rotate(0) translate(4 265)">
<title>jsonrpc::server::transports::ServerTransport</title>
<!-- Node1 -->
<g id="Node000001" class="node">
<title>Node1</title>
<g id="a_Node000001"><a xlink:title="Abstract base class for server transport mechanisms.">
<polygon fill="#999999" stroke="transparent" points="228.5,-261 90.5,-261 90.5,-96 228.5,-96 228.5,-261"/>
<text text-anchor="start" x="95.5" y="-248.5" font-family="Helvetica,sans-Serif" font-size="10.00">jsonrpc::server::transports</text>
<text text-anchor="start" x="118" y="-237.5" font-family="Helvetica,sans-Serif" font-size="10.00">::ServerTransport</text>
<text text-anchor="start" x="100.5" y="-222.5" font-family="Helvetica,sans-Serif" font-size="10.00">#</text>
<text text-anchor="start" x="119.5" y="-222.5" font-family="Helvetica,sans-Serif" font-size="10.00">running_</text>
<text text-anchor="start" x="100.5" y="-207.5" font-family="Helvetica,sans-Serif" font-size="10.00">#</text>
<text text-anchor="start" x="119.5" y="-207.5" font-family="Helvetica,sans-Serif" font-size="10.00">dispatcher_</text>
<text text-anchor="start" x="100.5" y="-192.5" font-family="Helvetica,sans-Serif" font-size="10.00">+</text>
<text text-anchor="start" x="119.5" y="-192.5" font-family="Helvetica,sans-Serif" font-size="10.00">ServerTransport()</text>
<text text-anchor="start" x="100.5" y="-177.5" font-family="Helvetica,sans-Serif" font-size="10.00">+</text>
<text text-anchor="start" x="119.5" y="-177.5" font-family="Helvetica,sans-Serif" font-size="10.00">~ServerTransport()</text>
<text text-anchor="start" x="100.5" y="-162.5" font-family="Helvetica,sans-Serif" font-size="10.00">+</text>
<text text-anchor="start" x="119.5" y="-162.5" font-family="Helvetica,sans-Serif" font-size="10.00">Start()</text>
<text text-anchor="start" x="100.5" y="-147.5" font-family="Helvetica,sans-Serif" font-size="10.00">+</text>
<text text-anchor="start" x="119.5" y="-147.5" font-family="Helvetica,sans-Serif" font-size="10.00">Stop()</text>
<text text-anchor="start" x="100.5" y="-132.5" font-family="Helvetica,sans-Serif" font-size="10.00">+</text>
<text text-anchor="start" x="119.5" y="-132.5" font-family="Helvetica,sans-Serif" font-size="10.00">SetDispatcher()</text>
<text text-anchor="start" x="100.5" y="-117.5" font-family="Helvetica,sans-Serif" font-size="10.00">+</text>
<text text-anchor="start" x="119.5" y="-117.5" font-family="Helvetica,sans-Serif" font-size="10.00">IsRunning()</text>
<text text-anchor="start" x="100.5" y="-102.5" font-family="Helvetica,sans-Serif" font-size="10.00">#</text>
<text text-anchor="start" x="119.5" y="-102.5" font-family="Helvetica,sans-Serif" font-size="10.00">Listen()</text>
<polygon fill="#666666" stroke="#666666" points="90.5,-232.5 90.5,-232.5 228.5,-232.5 228.5,-232.5 90.5,-232.5"/>
<polygon fill="#666666" stroke="#666666" points="90.5,-202.5 90.5,-202.5 117.5,-202.5 117.5,-202.5 90.5,-202.5"/>
<polygon fill="#666666" stroke="#666666" points="117.5,-202.5 117.5,-202.5 228.5,-202.5 228.5,-202.5 117.5,-202.5"/>
<polygon fill="none" stroke="#666666" points="90.5,-96 90.5,-261 228.5,-261 228.5,-96 90.5,-96"/>
</a>
</g>
</g>
<!-- Node2 -->
<g id="Node000002" class="node">
<title>Node2</title>
<g id="a_Node000002"><a xlink:href="classjsonrpc_1_1server_1_1transports_1_1FramedStdioServerTransport.html" target="_top" xlink:title="Server transport using framed stdio for communication.">
<polygon fill="white" stroke="transparent" points="155,-60 0,-60 0,0 155,0 155,-60"/>
<text text-anchor="start" x="5.5" y="-48" font-family="Helvetica,sans-Serif" font-size="10.00">jsonrpc::server::transports</text>
<text text-anchor="start" x="5.5" y="-37" font-family="Helvetica,sans-Serif" font-size="10.00">::FramedStdioServerTransport</text>
<text text-anchor="start" x="76" y="-22" font-family="Helvetica,sans-Serif" font-size="10.00"> </text>
<text text-anchor="start" x="28.5" y="-7" font-family="Helvetica,sans-Serif" font-size="10.00">#</text>
<text text-anchor="start" x="65.5" y="-7" font-family="Helvetica,sans-Serif" font-size="10.00">Listen()</text>
<polygon fill="#666666" stroke="#666666" points="0.5,-32 0.5,-32 155.5,-32 155.5,-32 0.5,-32"/>
<polygon fill="#666666" stroke="#666666" points="0.5,-17 0.5,-17 155.5,-17 155.5,-17 0.5,-17"/>
<polygon fill="none" stroke="#666666" points="0,0 0,-60 155,-60 155,0 0,0"/>
</a>
</g>
</g>
<!-- Node1&#45;&gt;Node2 -->
<g id="edge1_Node000001_Node000002" class="edge">
<title>Node1&#45;&gt;Node2</title>
<g id="a_edge1_Node000001_Node000002"><a xlink:title=" ">
<path fill="none" stroke="#63b8ff" d="M108.74,-86.82C103.4,-77.28 98.29,-68.15 93.81,-60.15"/>
<polygon fill="none" stroke="#63b8ff" points="105.77,-88.67 113.71,-95.68 111.87,-85.25 105.77,-88.67"/>
</a>
</g>
</g>
<!-- Node3 -->
<g id="Node000003" class="node">
<title>Node3</title>
<g id="a_Node000003"><a xlink:href="classjsonrpc_1_1server_1_1transports_1_1StdioServerTransport.html" target="_top" xlink:title="Server transport using stdio for communication.">
<polygon fill="white" stroke="transparent" points="311.5,-60 173.5,-60 173.5,0 311.5,0 311.5,-60"/>
<text text-anchor="start" x="178.5" y="-48" font-family="Helvetica,sans-Serif" font-size="10.00">jsonrpc::server::transports</text>
<text text-anchor="start" x="188.5" y="-37" font-family="Helvetica,sans-Serif" font-size="10.00">::StdioServerTransport</text>
<text text-anchor="start" x="240.5" y="-22" font-family="Helvetica,sans-Serif" font-size="10.00"> </text>
<text text-anchor="start" x="197.5" y="-7" font-family="Helvetica,sans-Serif" font-size="10.00">#</text>
<text text-anchor="start" x="230.5" y="-7" font-family="Helvetica,sans-Serif" font-size="10.00">Listen()</text>
<polygon fill="#666666" stroke="#666666" points="173.5,-32 173.5,-32 311.5,-32 311.5,-32 173.5,-32"/>
<polygon fill="#666666" stroke="#666666" points="173.5,-17 173.5,-17 311.5,-17 311.5,-17 173.5,-17"/>
<polygon fill="none" stroke="#666666" points="173.5,0 173.5,-60 311.5,-60 311.5,0 173.5,0"/>
</a>
</g>
</g>
<!-- Node1&#45;&gt;Node3 -->
<g id="edge2_Node000001_Node000003" class="edge">
<title>Node1&#45;&gt;Node3</title>
<g id="a_edge2_Node000001_Node000003"><a xlink:title=" ">
<path fill="none" stroke="#63b8ff" d="M210.87,-86.82C216.28,-77.28 221.45,-68.15 225.99,-60.15"/>
<polygon fill="none" stroke="#63b8ff" points="207.74,-85.26 205.85,-95.68 213.83,-88.71 207.74,-85.26"/>
</a>
</g>
</g>
</g>
</svg>
