<?xml version="1.0" encoding="UTF-8" standalone="no"?>
<!DOCTYPE svg PUBLIC "-//W3C//DTD SVG 1.1//EN"
 "http://www.w3.org/Graphics/SVG/1.1/DTD/svg11.dtd">
<!-- Generated by graphviz version 2.43.0 (0)
 -->
<!-- Title: jsonrpc::server::Request Pages: 1 -->
<svg width="136pt" height="132pt"
 viewBox="0.00 0.00 136.00 132.00" xmlns="http://www.w3.org/2000/svg" xmlns:xlink="http://www.w3.org/1999/xlink">
<g id="graph0" class="graph" transform="scale(1 1) rotate(0) translate(4 128)">
<title>jsonrpc::server::Request</title>
<!-- Node1 -->
<g id="Node000001" class="node">
<title>Node1</title>
<g id="a_Node000001"><a xlink:title="Represents a JSON&#45;RPC request.">
<polygon fill="#999999" stroke="transparent" points="128,-124 0,-124 0,0 128,0 128,-124"/>
<text text-anchor="start" x="5" y="-112" font-family="Helvetica,sans-Serif" font-size="10.00">jsonrpc::server::Request</text>
<text text-anchor="start" x="62" y="-97" font-family="Helvetica,sans-Serif" font-size="10.00"> </text>
<text text-anchor="start" x="15" y="-82" font-family="Helvetica,sans-Serif" font-size="10.00">+</text>
<text text-anchor="start" x="39" y="-82" font-family="Helvetica,sans-Serif" font-size="10.00">Request()</text>
<text text-anchor="start" x="15" y="-67" font-family="Helvetica,sans-Serif" font-size="10.00">+</text>
<text text-anchor="start" x="39" y="-67" font-family="Helvetica,sans-Serif" font-size="10.00">ToJson()</text>
<text text-anchor="start" x="15" y="-52" font-family="Helvetica,sans-Serif" font-size="10.00">+</text>
<text text-anchor="start" x="39" y="-52" font-family="Helvetica,sans-Serif" font-size="10.00">GetMethod()</text>
<text text-anchor="start" x="15" y="-37" font-family="Helvetica,sans-Serif" font-size="10.00">+</text>
<text text-anchor="start" x="39" y="-37" font-family="Helvetica,sans-Serif" font-size="10.00">GetParams()</text>
<text text-anchor="start" x="15" y="-22" font-family="Helvetica,sans-Serif" font-size="10.00">+</text>
<text text-anchor="start" x="39" y="-22" font-family="Helvetica,sans-Serif" font-size="10.00">GetId()</text>
<text text-anchor="start" x="15" y="-7" font-family="Helvetica,sans-Serif" font-size="10.00">+</text>
<text text-anchor="start" x="39" y="-7" font-family="Helvetica,sans-Serif" font-size="10.00">FromJson()</text>
<polygon fill="#666666" stroke="#666666" points="0,-107 0,-107 128,-107 128,-107 0,-107"/>
<polygon fill="#666666" stroke="#666666" points="0,-92 0,-92 128,-92 128,-92 0,-92"/>
<polygon fill="none" stroke="#666666" points="0,0 0,-124 128,-124 128,0 0,0"/>
</a>
</g>
</g>
</g>
</svg>
