<?xml version="1.0" encoding="UTF-8" standalone="no"?>
<!DOCTYPE svg PUBLIC "-//W3C//DTD SVG 1.1//EN"
 "http://www.w3.org/Graphics/SVG/1.1/DTD/svg11.dtd">
<!-- Generated by graphviz version 2.43.0 (0)
 -->
<!-- Title: jsonrpc::server::IDispatcher Pages: 1 -->
<svg width="152pt" height="217pt"
 viewBox="0.00 0.00 152.00 217.00" xmlns="http://www.w3.org/2000/svg" xmlns:xlink="http://www.w3.org/1999/xlink">
<g id="graph0" class="graph" transform="scale(1 1) rotate(0) translate(4 213)">
<title>jsonrpc::server::IDispatcher</title>
<!-- Node1 -->
<g id="Node000001" class="node">
<title>Node1</title>
<g id="a_Node000001"><a xlink:title="Interface for JSON&#45;RPC request dispatchers.">
<polygon fill="#999999" stroke="transparent" points="144,-209 0,-209 0,-145 144,-145 144,-209"/>
<text text-anchor="start" x="5" y="-197" font-family="Helvetica,sans-Serif" font-size="10.00">jsonrpc::server::IDispatcher</text>
<text text-anchor="start" x="70" y="-182" font-family="Helvetica,sans-Serif" font-size="10.00"> </text>
<text text-anchor="start" x="12" y="-167" font-family="Helvetica,sans-Serif" font-size="10.00">+</text>
<text text-anchor="start" x="33" y="-167" font-family="Helvetica,sans-Serif" font-size="10.00">~IDispatcher()</text>
<text text-anchor="start" x="12" y="-152" font-family="Helvetica,sans-Serif" font-size="10.00">+</text>
<text text-anchor="start" x="33" y="-152" font-family="Helvetica,sans-Serif" font-size="10.00">DispatchRequest()</text>
<polygon fill="#666666" stroke="#666666" points="0,-192 0,-192 144,-192 144,-192 0,-192"/>
<polygon fill="#666666" stroke="#666666" points="0,-177 0,-177 144,-177 144,-177 0,-177"/>
<polygon fill="none" stroke="#666666" points="0,-145 0,-209 144,-209 144,-145 0,-145"/>
</a>
</g>
</g>
<!-- Node2 -->
<g id="Node000002" class="node">
<title>Node2</title>
<g id="a_Node000002"><a xlink:href="classjsonrpc_1_1server_1_1Dispatcher.html" target="_top" xlink:title="Dispatcher for JSON&#45;RPC requests.">
<polygon fill="white" stroke="transparent" points="142.5,-109 1.5,-109 1.5,0 142.5,0 142.5,-109"/>
<text text-anchor="start" x="7" y="-96.5" font-family="Helvetica,sans-Serif" font-size="10.00">jsonrpc::server::Dispatcher</text>
<text text-anchor="start" x="70.5" y="-81.5" font-family="Helvetica,sans-Serif" font-size="10.00"> </text>
<text text-anchor="start" x="9.5" y="-66.5" font-family="Helvetica,sans-Serif" font-size="10.00">+</text>
<text text-anchor="start" x="26" y="-66.5" font-family="Helvetica,sans-Serif" font-size="10.00">Dispatcher()</text>
<text text-anchor="start" x="9.5" y="-51.5" font-family="Helvetica,sans-Serif" font-size="10.00">+</text>
<text text-anchor="start" x="26" y="-51.5" font-family="Helvetica,sans-Serif" font-size="10.00">~Dispatcher()</text>
<text text-anchor="start" x="9.5" y="-36.5" font-family="Helvetica,sans-Serif" font-size="10.00">+</text>
<text text-anchor="start" x="26" y="-36.5" font-family="Helvetica,sans-Serif" font-size="10.00">DispatchRequest()</text>
<text text-anchor="start" x="9.5" y="-21.5" font-family="Helvetica,sans-Serif" font-size="10.00">+</text>
<text text-anchor="start" x="26" y="-21.5" font-family="Helvetica,sans-Serif" font-size="10.00">RegisterMethodCall()</text>
<text text-anchor="start" x="9.5" y="-6.5" font-family="Helvetica,sans-Serif" font-size="10.00">+</text>
<text text-anchor="start" x="26" y="-6.5" font-family="Helvetica,sans-Serif" font-size="10.00">RegisterNotification()</text>
<polygon fill="#666666" stroke="#666666" points="2,-91.5 2,-91.5 143,-91.5 143,-91.5 2,-91.5"/>
<polygon fill="#666666" stroke="#666666" points="2,-76.5 2,-76.5 143,-76.5 143,-76.5 2,-76.5"/>
<polygon fill="none" stroke="#666666" points="1.5,0 1.5,-109 142.5,-109 142.5,0 1.5,0"/>
</a>
</g>
</g>
<!-- Node1&#45;&gt;Node2 -->
<g id="edge1_Node000001_Node000002" class="edge">
<title>Node1&#45;&gt;Node2</title>
<g id="a_edge1_Node000001_Node000002"><a xlink:title=" ">
<path fill="none" stroke="#63b8ff" d="M72,-134.89C72,-126.67 72,-117.91 72,-109.33"/>
<polygon fill="none" stroke="#63b8ff" points="68.5,-134.97 72,-144.97 75.5,-134.97 68.5,-134.97"/>
</a>
</g>
</g>
</g>
</svg>
