<?xml version="1.0" encoding="UTF-8" standalone="no"?>
<!DOCTYPE svg PUBLIC "-//W3C//DTD SVG 1.1//EN"
 "http://www.w3.org/Graphics/SVG/1.1/DTD/svg11.dtd">
<!-- Generated by graphviz version 2.43.0 (0)
 -->
<!-- Title: jsonrpc::server::transports::FramedStdioServerTransport::Listen Pages: 1 -->
<svg width="402pt" height="134pt"
 viewBox="0.00 0.00 402.00 134.00" xmlns="http://www.w3.org/2000/svg" xmlns:xlink="http://www.w3.org/1999/xlink">
<g id="graph0" class="graph" transform="scale(1 1) rotate(0) translate(4 130)">
<title>jsonrpc::server::transports::FramedStdioServerTransport::Listen</title>
<!-- Node1 -->
<g id="Node000001" class="node">
<title>Node1</title>
<g id="a_Node000001"><a xlink:title="Listens for incoming messages and dispatches them to the appropriate handlers.">
<polygon fill="#999999" stroke="#666666" points="161,-83.5 0,-83.5 0,-42.5 161,-42.5 161,-83.5"/>
<text text-anchor="start" x="8" y="-71.5" font-family="Helvetica,sans-Serif" font-size="10.00">jsonrpc::server::transports</text>
<text text-anchor="start" x="8" y="-60.5" font-family="Helvetica,sans-Serif" font-size="10.00">::FramedStdioServerTransport</text>
<text text-anchor="middle" x="80.5" y="-49.5" font-family="Helvetica,sans-Serif" font-size="10.00">::Listen</text>
</a>
</g>
</g>
<!-- Node2 -->
<g id="Node000002" class="node">
<title>Node2</title>
<g id="a_Node000002"><a xlink:href="classjsonrpc_1_1common_1_1transports_1_1FramedTransport.html#a053c8f7bbec2c7b8574e6bd00ab19ad3" target="_top" xlink:title="Receives a framed message.">
<polygon fill="white" stroke="#666666" points="394,-126 197,-126 197,-96 394,-96 394,-126"/>
<text text-anchor="start" x="205" y="-114" font-family="Helvetica,sans-Serif" font-size="10.00">jsonrpc::common::transports</text>
<text text-anchor="middle" x="295.5" y="-103" font-family="Helvetica,sans-Serif" font-size="10.00">::FramedTransport::DeframeMessage</text>
</a>
</g>
</g>
<!-- Node1&#45;&gt;Node2 -->
<g id="edge1_Node000001_Node000002" class="edge">
<title>Node1&#45;&gt;Node2</title>
<g id="a_edge1_Node000001_Node000002"><a xlink:title=" ">
<path fill="none" stroke="#63b8ff" d="M161.12,-80.94C179.75,-85.14 199.55,-89.6 218.04,-93.77"/>
<polygon fill="#63b8ff" stroke="#63b8ff" points="217.34,-97.2 227.87,-95.98 218.88,-90.37 217.34,-97.2"/>
</a>
</g>
</g>
<!-- Node3 -->
<g id="Node000003" class="node">
<title>Node3</title>
<g id="a_Node000003"><a xlink:href="classjsonrpc_1_1common_1_1transports_1_1FramedTransport.html#a0ea2cd369dbb1e908469977008f8ecef" target="_top" xlink:title="Constructs a framed message.">
<polygon fill="white" stroke="#666666" points="388,-78 203,-78 203,-48 388,-48 388,-78"/>
<text text-anchor="start" x="211" y="-66" font-family="Helvetica,sans-Serif" font-size="10.00">jsonrpc::common::transports</text>
<text text-anchor="middle" x="295.5" y="-55" font-family="Helvetica,sans-Serif" font-size="10.00">::FramedTransport::FrameMessage</text>
</a>
</g>
</g>
<!-- Node1&#45;&gt;Node3 -->
<g id="edge2_Node000001_Node000003" class="edge">
<title>Node1&#45;&gt;Node3</title>
<g id="a_edge2_Node000001_Node000003"><a xlink:title=" ">
<path fill="none" stroke="#63b8ff" d="M161.12,-63C171.41,-63 182.07,-63 192.67,-63"/>
<polygon fill="#63b8ff" stroke="#63b8ff" points="192.79,-66.5 202.79,-63 192.79,-59.5 192.79,-66.5"/>
</a>
</g>
</g>
<!-- Node4 -->
<g id="Node000004" class="node">
<title>Node4</title>
<g id="a_Node000004"><a xlink:href="classjsonrpc_1_1server_1_1transports_1_1ServerTransport.html#a777d6dffaca6415218d9954e3ba54cdd" target="_top" xlink:title="Checks if the transport is running.">
<polygon fill="white" stroke="#666666" points="372,-30 219,-30 219,0 372,0 372,-30"/>
<text text-anchor="start" x="227" y="-18" font-family="Helvetica,sans-Serif" font-size="10.00">jsonrpc::server::transports</text>
<text text-anchor="middle" x="295.5" y="-7" font-family="Helvetica,sans-Serif" font-size="10.00">::ServerTransport::IsRunning</text>
</a>
</g>
</g>
<!-- Node1&#45;&gt;Node4 -->
<g id="edge3_Node000001_Node000004" class="edge">
<title>Node1&#45;&gt;Node4</title>
<g id="a_edge3_Node000001_Node000004"><a xlink:title=" ">
<path fill="none" stroke="#63b8ff" d="M161.12,-45.06C179.75,-40.86 199.55,-36.4 218.04,-32.23"/>
<polygon fill="#63b8ff" stroke="#63b8ff" points="218.88,-35.63 227.87,-30.02 217.34,-28.8 218.88,-35.63"/>
</a>
</g>
</g>
</g>
</svg>
