<?xml version="1.0" encoding="UTF-8" standalone="no"?>
<!DOCTYPE svg PUBLIC "-//W3C//DTD SVG 1.1//EN"
 "http://www.w3.org/Graphics/SVG/1.1/DTD/svg11.dtd">
<!-- Generated by graphviz version 2.43.0 (0)
 -->
<!-- Title: jsonrpc::ServerTransport Pages: 1 -->
<svg width="491pt" height="277pt"
 viewBox="0.00 0.00 491.00 277.00" xmlns="http://www.w3.org/2000/svg" xmlns:xlink="http://www.w3.org/1999/xlink">
<g id="graph0" class="graph" transform="scale(1 1) rotate(0) translate(4 273)">
<title>jsonrpc::ServerTransport</title>
<!-- Node1 -->
<g id="Node000001" class="node">
<title>Node1</title>
<g id="a_Node000001"><a xlink:title="Abstract base class for server transport mechanisms.">
<polygon fill="#999999" stroke="transparent" points="301.5,-269 173.5,-269 173.5,-115 301.5,-115 301.5,-269"/>
<text text-anchor="start" x="178.5" y="-257" font-family="Helvetica,sans-Serif" font-size="10.00">jsonrpc::ServerTransport</text>
<text text-anchor="start" x="181" y="-242" font-family="Helvetica,sans-Serif" font-size="10.00">#</text>
<text text-anchor="start" x="197.5" y="-242" font-family="Helvetica,sans-Serif" font-size="10.00">running_</text>
<text text-anchor="start" x="181" y="-227" font-family="Helvetica,sans-Serif" font-size="10.00">#</text>
<text text-anchor="start" x="197.5" y="-227" font-family="Helvetica,sans-Serif" font-size="10.00">dispatcher_</text>
<text text-anchor="start" x="181" y="-212" font-family="Helvetica,sans-Serif" font-size="10.00">+</text>
<text text-anchor="start" x="197.5" y="-212" font-family="Helvetica,sans-Serif" font-size="10.00">ServerTransport()</text>
<text text-anchor="start" x="181" y="-197" font-family="Helvetica,sans-Serif" font-size="10.00">+</text>
<text text-anchor="start" x="197.5" y="-197" font-family="Helvetica,sans-Serif" font-size="10.00">~ServerTransport()</text>
<text text-anchor="start" x="181" y="-182" font-family="Helvetica,sans-Serif" font-size="10.00">+</text>
<text text-anchor="start" x="197.5" y="-182" font-family="Helvetica,sans-Serif" font-size="10.00">Start()</text>
<text text-anchor="start" x="181" y="-167" font-family="Helvetica,sans-Serif" font-size="10.00">+</text>
<text text-anchor="start" x="197.5" y="-167" font-family="Helvetica,sans-Serif" font-size="10.00">Stop()</text>
<text text-anchor="start" x="181" y="-152" font-family="Helvetica,sans-Serif" font-size="10.00">+</text>
<text text-anchor="start" x="197.5" y="-152" font-family="Helvetica,sans-Serif" font-size="10.00">SetDispatcher()</text>
<text text-anchor="start" x="181" y="-137" font-family="Helvetica,sans-Serif" font-size="10.00">+</text>
<text text-anchor="start" x="197.5" y="-137" font-family="Helvetica,sans-Serif" font-size="10.00">IsRunning()</text>
<text text-anchor="start" x="181" y="-122" font-family="Helvetica,sans-Serif" font-size="10.00">#</text>
<text text-anchor="start" x="197.5" y="-122" font-family="Helvetica,sans-Serif" font-size="10.00">Listen()</text>
<polygon fill="#666666" stroke="#666666" points="173.5,-252 173.5,-252 301.5,-252 301.5,-252 173.5,-252"/>
<polygon fill="#666666" stroke="#666666" points="173.5,-222 173.5,-222 195.5,-222 195.5,-222 173.5,-222"/>
<polygon fill="#666666" stroke="#666666" points="195.5,-222 195.5,-222 301.5,-222 301.5,-222 195.5,-222"/>
<polygon fill="none" stroke="#666666" points="173.5,-115 173.5,-269 301.5,-269 301.5,-115 173.5,-115"/>
</a>
</g>
</g>
<!-- Node2 -->
<g id="Node000002" class="node">
<title>Node2</title>
<g id="a_Node000002"><a xlink:href="classjsonrpc_1_1FramedStdioServerTransport.html" target="_top" xlink:title="Server transport using framed stdio for communication.">
<polygon fill="white" stroke="transparent" points="145,-69.5 0,-69.5 0,-9.5 145,-9.5 145,-69.5"/>
<text text-anchor="start" x="5.5" y="-57.5" font-family="Helvetica,sans-Serif" font-size="10.00">jsonrpc::FramedStdioServer</text>
<text text-anchor="start" x="50" y="-46.5" font-family="Helvetica,sans-Serif" font-size="10.00">Transport</text>
<text text-anchor="start" x="71" y="-31.5" font-family="Helvetica,sans-Serif" font-size="10.00"> </text>
<text text-anchor="start" x="26" y="-16.5" font-family="Helvetica,sans-Serif" font-size="10.00">#</text>
<text text-anchor="start" x="60.5" y="-16.5" font-family="Helvetica,sans-Serif" font-size="10.00">Listen()</text>
<polygon fill="#666666" stroke="#666666" points="0.5,-41.5 0.5,-41.5 145.5,-41.5 145.5,-41.5 0.5,-41.5"/>
<polygon fill="#666666" stroke="#666666" points="0.5,-26.5 0.5,-26.5 145.5,-26.5 145.5,-26.5 0.5,-26.5"/>
<polygon fill="none" stroke="#666666" points="0,-9.5 0,-69.5 145,-69.5 145,-9.5 0,-9.5"/>
</a>
</g>
</g>
<!-- Node1&#45;&gt;Node2 -->
<g id="edge1_Node000001_Node000002" class="edge">
<title>Node1&#45;&gt;Node2</title>
<g id="a_edge1_Node000001_Node000002"><a xlink:title=" ">
<path fill="none" stroke="#63b8ff" d="M165.73,-125.54C144.37,-106.06 122.04,-85.69 104.59,-69.77"/>
<polygon fill="none" stroke="#63b8ff" points="163.49,-128.23 173.23,-132.38 168.2,-123.06 163.49,-128.23"/>
</a>
</g>
</g>
<!-- Node3 -->
<g id="Node000003" class="node">
<title>Node3</title>
<g id="a_Node000003"><a xlink:href="classjsonrpc_1_1HttpServerTransport.html" target="_top" xlink:title="Server transport using HTTP for communication.">
<polygon fill="white" stroke="transparent" points="312,-79 163,-79 163,0 312,0 312,-79"/>
<text text-anchor="start" x="168.5" y="-66.5" font-family="Helvetica,sans-Serif" font-size="10.00">jsonrpc::HttpServerTransport</text>
<text text-anchor="start" x="236" y="-51.5" font-family="Helvetica,sans-Serif" font-size="10.00"> </text>
<text text-anchor="start" x="173" y="-36.5" font-family="Helvetica,sans-Serif" font-size="10.00">+</text>
<text text-anchor="start" x="191.5" y="-36.5" font-family="Helvetica,sans-Serif" font-size="10.00">HttpServerTransport()</text>
<text text-anchor="start" x="173" y="-21.5" font-family="Helvetica,sans-Serif" font-size="10.00">+</text>
<text text-anchor="start" x="191.5" y="-21.5" font-family="Helvetica,sans-Serif" font-size="10.00">Listen()</text>
<text text-anchor="start" x="173" y="-6.5" font-family="Helvetica,sans-Serif" font-size="10.00">+</text>
<text text-anchor="start" x="191.5" y="-6.5" font-family="Helvetica,sans-Serif" font-size="10.00">Stop()</text>
<polygon fill="#666666" stroke="#666666" points="163.5,-61.5 163.5,-61.5 312.5,-61.5 312.5,-61.5 163.5,-61.5"/>
<polygon fill="#666666" stroke="#666666" points="163.5,-46.5 163.5,-46.5 312.5,-46.5 312.5,-46.5 163.5,-46.5"/>
<polygon fill="none" stroke="#666666" points="163,0 163,-79 312,-79 312,0 163,0"/>
</a>
</g>
</g>
<!-- Node1&#45;&gt;Node3 -->
<g id="edge2_Node000001_Node000003" class="edge">
<title>Node1&#45;&gt;Node3</title>
<g id="a_edge2_Node000001_Node000003"><a xlink:title=" ">
<path fill="none" stroke="#63b8ff" d="M237.5,-104.74C237.5,-95.82 237.5,-87.11 237.5,-79.13"/>
<polygon fill="none" stroke="#63b8ff" points="234,-104.87 237.5,-114.87 241,-104.87 234,-104.87"/>
</a>
</g>
</g>
<!-- Node4 -->
<g id="Node000004" class="node">
<title>Node4</title>
<g id="a_Node000004"><a xlink:href="classjsonrpc_1_1StdioServerTransport.html" target="_top" xlink:title="Server transport using stdio for communication.">
<polygon fill="white" stroke="transparent" points="483,-64 330,-64 330,-15 483,-15 483,-64"/>
<text text-anchor="start" x="335.5" y="-51.5" font-family="Helvetica,sans-Serif" font-size="10.00">jsonrpc::StdioServerTransport</text>
<text text-anchor="start" x="405" y="-36.5" font-family="Helvetica,sans-Serif" font-size="10.00"> </text>
<text text-anchor="start" x="358" y="-21.5" font-family="Helvetica,sans-Serif" font-size="10.00">#</text>
<text text-anchor="start" x="394.5" y="-21.5" font-family="Helvetica,sans-Serif" font-size="10.00">Listen()</text>
<polygon fill="#666666" stroke="#666666" points="330.5,-46.5 330.5,-46.5 483.5,-46.5 483.5,-46.5 330.5,-46.5"/>
<polygon fill="#666666" stroke="#666666" points="330.5,-31.5 330.5,-31.5 483.5,-31.5 483.5,-31.5 330.5,-31.5"/>
<polygon fill="none" stroke="#666666" points="330,-15 330,-64 483,-64 483,-15 330,-15"/>
</a>
</g>
</g>
<!-- Node1&#45;&gt;Node4 -->
<g id="edge3_Node000001_Node000004" class="edge">
<title>Node1&#45;&gt;Node4</title>
<g id="a_edge3_Node000001_Node000004"><a xlink:title=" ">
<path fill="none" stroke="#63b8ff" d="M309.55,-126.84C334.47,-104.65 360.86,-81.15 379.8,-64.27"/>
<polygon fill="none" stroke="#63b8ff" points="307.01,-124.41 301.87,-133.67 311.67,-129.64 307.01,-124.41"/>
</a>
</g>
</g>
</g>
</svg>
