<?xml version="1.0" encoding="UTF-8" standalone="no"?>
<!DOCTYPE svg PUBLIC "-//W3C//DTD SVG 1.1//EN"
 "http://www.w3.org/Graphics/SVG/1.1/DTD/svg11.dtd">
<!-- Generated by graphviz version 2.43.0 (0)
 -->
<!-- Title: jsonrpc::Request::ToJson Pages: 1 -->
<svg width="351pt" height="64pt"
 viewBox="0.00 0.00 351.00 64.00" xmlns="http://www.w3.org/2000/svg" xmlns:xlink="http://www.w3.org/1999/xlink">
<g id="graph0" class="graph" transform="scale(1 1) rotate(0) translate(4 60)">
<title>jsonrpc::Request::ToJson</title>
<!-- Node1 -->
<g id="Node000001" class="node">
<title>Node1</title>
<g id="a_Node000001"><a xlink:title="Serializes the Request object to a JSON object.">
<polygon fill="#999999" stroke="#666666" points="343,-37 209,-37 209,-18 343,-18 343,-37"/>
<text text-anchor="middle" x="276" y="-25" font-family="Helvetica,sans-Serif" font-size="10.00">jsonrpc::Request::ToJson</text>
</a>
</g>
</g>
<!-- Node2 -->
<g id="Node000002" class="node">
<title>Node2</title>
<g id="a_Node000002"><a xlink:href="classjsonrpc_1_1Client.html#a1d2fbf10d2ab1419ae772439d3fc988c" target="_top" xlink:title="Sends an RPC method call to the server.">
<polygon fill="white" stroke="#666666" points="172.5,-56 0.5,-56 0.5,-37 172.5,-37 172.5,-56"/>
<text text-anchor="middle" x="86.5" y="-44" font-family="Helvetica,sans-Serif" font-size="10.00">jsonrpc::Client::SendMethodCall</text>
</a>
</g>
</g>
<!-- Node1&#45;&gt;Node2 -->
<g id="edge1_Node000001_Node000002" class="edge">
<title>Node1&#45;&gt;Node2</title>
<g id="a_edge1_Node000001_Node000002"><a xlink:title=" ">
<path fill="none" stroke="#63b8ff" d="M198.89,-35.21C190.27,-36.09 181.44,-36.98 172.72,-37.86"/>
<polygon fill="#63b8ff" stroke="#63b8ff" points="199.3,-38.69 208.89,-34.2 198.59,-31.72 199.3,-38.69"/>
</a>
</g>
</g>
<!-- Node3 -->
<g id="Node000003" class="node">
<title>Node3</title>
<g id="a_Node000003"><a xlink:href="classjsonrpc_1_1Client.html#a21464683d733a7e6064443f262767fa6" target="_top" xlink:title="Sends an RPC notification to the server.">
<polygon fill="white" stroke="#666666" points="173,-19 0,-19 0,0 173,0 173,-19"/>
<text text-anchor="middle" x="86.5" y="-7" font-family="Helvetica,sans-Serif" font-size="10.00">jsonrpc::Client::SendNotification</text>
</a>
</g>
</g>
<!-- Node1&#45;&gt;Node3 -->
<g id="edge2_Node000001_Node000003" class="edge">
<title>Node1&#45;&gt;Node3</title>
<g id="a_edge2_Node000001_Node000003"><a xlink:title=" ">
<path fill="none" stroke="#63b8ff" d="M198.7,-20.18C190.25,-19.36 181.6,-18.53 173.04,-17.71"/>
<polygon fill="#63b8ff" stroke="#63b8ff" points="198.61,-23.68 208.89,-21.15 199.27,-16.71 198.61,-23.68"/>
</a>
</g>
</g>
</g>
</svg>
