<?xml version="1.0" encoding="UTF-8" standalone="no"?>
<!DOCTYPE svg PUBLIC "-//W3C//DTD SVG 1.1//EN"
 "http://www.w3.org/Graphics/SVG/1.1/DTD/svg11.dtd">
<!-- Generated by graphviz version 2.43.0 (0)
 -->
<!-- Title: jsonrpc::client::transports::StdioClientTransport Pages: 1 -->
<svg width="142pt" height="209pt"
 viewBox="0.00 0.00 142.00 209.00" xmlns="http://www.w3.org/2000/svg" xmlns:xlink="http://www.w3.org/1999/xlink">
<g id="graph0" class="graph" transform="scale(1 1) rotate(0) translate(4 205)">
<title>jsonrpc::client::transports::StdioClientTransport</title>
<!-- Node1 -->
<g id="Node000001" class="node">
<title>Node1</title>
<g id="a_Node000001"><a xlink:title="Transport layer using standard I/O for JSON&#45;RPC communication.">
<polygon fill="#999999" stroke="transparent" points="134,-75 0,-75 0,0 134,0 134,-75"/>
<text text-anchor="start" x="5" y="-62.5" font-family="Helvetica,sans-Serif" font-size="10.00">jsonrpc::client::transports</text>
<text text-anchor="start" x="14.5" y="-51.5" font-family="Helvetica,sans-Serif" font-size="10.00">::StdioClientTransport</text>
<text text-anchor="start" x="65" y="-36.5" font-family="Helvetica,sans-Serif" font-size="10.00"> </text>
<text text-anchor="start" x="12" y="-21.5" font-family="Helvetica,sans-Serif" font-size="10.00">+</text>
<text text-anchor="start" x="33" y="-21.5" font-family="Helvetica,sans-Serif" font-size="10.00">SendRequest()</text>
<text text-anchor="start" x="12" y="-6.5" font-family="Helvetica,sans-Serif" font-size="10.00">+</text>
<text text-anchor="start" x="33" y="-6.5" font-family="Helvetica,sans-Serif" font-size="10.00">ReadResponse()</text>
<polygon fill="#666666" stroke="#666666" points="0,-46.5 0,-46.5 134,-46.5 134,-46.5 0,-46.5"/>
<polygon fill="#666666" stroke="#666666" points="0,-31.5 0,-31.5 134,-31.5 134,-31.5 0,-31.5"/>
<polygon fill="none" stroke="#666666" points="0,0 0,-75 134,-75 134,0 0,0"/>
</a>
</g>
</g>
<!-- Node2 -->
<g id="Node000002" class="node">
<title>Node2</title>
<g id="a_Node000002"><a xlink:href="classjsonrpc_1_1client_1_1transports_1_1ClientTransport.html" target="_top" xlink:title="Base class for JSON&#45;RPC client transport.">
<polygon fill="white" stroke="transparent" points="134,-201 0,-201 0,-111 134,-111 134,-201"/>
<text text-anchor="start" x="5" y="-189" font-family="Helvetica,sans-Serif" font-size="10.00">jsonrpc::client::transports</text>
<text text-anchor="start" x="27" y="-178" font-family="Helvetica,sans-Serif" font-size="10.00">::ClientTransport</text>
<text text-anchor="start" x="65" y="-163" font-family="Helvetica,sans-Serif" font-size="10.00"> </text>
<text text-anchor="start" x="9.5" y="-148" font-family="Helvetica,sans-Serif" font-size="10.00">+</text>
<text text-anchor="start" x="28" y="-148" font-family="Helvetica,sans-Serif" font-size="10.00">~ClientTransport()</text>
<text text-anchor="start" x="9.5" y="-133" font-family="Helvetica,sans-Serif" font-size="10.00">+</text>
<text text-anchor="start" x="28" y="-133" font-family="Helvetica,sans-Serif" font-size="10.00">SendRequest()</text>
<text text-anchor="start" x="9.5" y="-118" font-family="Helvetica,sans-Serif" font-size="10.00">+</text>
<text text-anchor="start" x="28" y="-118" font-family="Helvetica,sans-Serif" font-size="10.00">ReadResponse()</text>
<polygon fill="#666666" stroke="#666666" points="0,-173 0,-173 134,-173 134,-173 0,-173"/>
<polygon fill="#666666" stroke="#666666" points="0,-158 0,-158 134,-158 134,-158 0,-158"/>
<polygon fill="none" stroke="#666666" points="0,-111 0,-201 134,-201 134,-111 0,-111"/>
</a>
</g>
</g>
<!-- Node2&#45;&gt;Node1 -->
<g id="edge1_Node000001_Node000002" class="edge">
<title>Node2&#45;&gt;Node1</title>
<g id="a_edge1_Node000001_Node000002"><a xlink:title=" ">
<path fill="none" stroke="#63b8ff" d="M67,-100.8C67,-92.06 67,-83.2 67,-75.01"/>
<polygon fill="none" stroke="#63b8ff" points="63.5,-100.96 67,-110.96 70.5,-100.96 63.5,-100.96"/>
</a>
</g>
</g>
</g>
</svg>
