<?xml version="1.0" encoding="UTF-8" standalone="no"?>
<!DOCTYPE svg PUBLIC "-//W3C//DTD SVG 1.1//EN"
 "http://www.w3.org/Graphics/SVG/1.1/DTD/svg11.dtd">
<!-- Generated by graphviz version 2.43.0 (0)
 -->
<!-- Title: jsonrpc::FramedTransport::SendMessage Pages: 1 -->
<svg width="335pt" height="134pt"
 viewBox="0.00 0.00 335.00 134.00" xmlns="http://www.w3.org/2000/svg" xmlns:xlink="http://www.w3.org/1999/xlink">
<g id="graph0" class="graph" transform="scale(1 1) rotate(0) translate(4 130)">
<title>jsonrpc::FramedTransport::SendMessage</title>
<!-- Node1 -->
<g id="Node000001" class="node">
<title>Node1</title>
<g id="a_Node000001"><a xlink:title="Sends a framed message.">
<polygon fill="#999999" stroke="#666666" points="327,-78 187,-78 187,-48 327,-48 327,-78"/>
<text text-anchor="start" x="195" y="-66" font-family="Helvetica,sans-Serif" font-size="10.00">jsonrpc::FramedTransport</text>
<text text-anchor="middle" x="257" y="-55" font-family="Helvetica,sans-Serif" font-size="10.00">::SendMessage</text>
</a>
</g>
</g>
<!-- Node2 -->
<g id="Node000002" class="node">
<title>Node2</title>
<g id="a_Node000002"><a xlink:href="classjsonrpc_1_1FramedStdioServerTransport.html#a5cd63df458df0cfd7d0d2c645e08b5fb" target="_top" xlink:title="Listens for incoming messages and dispatches them to the appropriate handlers.">
<polygon fill="white" stroke="#666666" points="151,-126 0,-126 0,-96 151,-96 151,-126"/>
<text text-anchor="start" x="8" y="-114" font-family="Helvetica,sans-Serif" font-size="10.00">jsonrpc::FramedStdioServer</text>
<text text-anchor="middle" x="75.5" y="-103" font-family="Helvetica,sans-Serif" font-size="10.00">Transport::Listen</text>
</a>
</g>
</g>
<!-- Node1&#45;&gt;Node2 -->
<g id="edge1_Node000001_Node000002" class="edge">
<title>Node1&#45;&gt;Node2</title>
<g id="a_edge1_Node000001_Node000002"><a xlink:title=" ">
<path fill="none" stroke="#63b8ff" d="M190,-80.65C171.15,-85.69 150.8,-91.13 132.6,-96"/>
<polygon fill="#63b8ff" stroke="#63b8ff" points="190.94,-84.02 199.7,-78.06 189.13,-77.26 190.94,-84.02"/>
</a>
</g>
</g>
<!-- Node3 -->
<g id="Node000003" class="node">
<title>Node3</title>
<g id="a_Node000003"><a xlink:href="classjsonrpc_1_1FramedStdioClientTransport.html#abced881f15bc20b541b491d05f9eec02" target="_top" xlink:title="Sends an RPC method call to the server.">
<polygon fill="white" stroke="#666666" points="149.5,-78 1.5,-78 1.5,-48 149.5,-48 149.5,-78"/>
<text text-anchor="start" x="9.5" y="-66" font-family="Helvetica,sans-Serif" font-size="10.00">jsonrpc::FramedStdioClient</text>
<text text-anchor="middle" x="75.5" y="-55" font-family="Helvetica,sans-Serif" font-size="10.00">Transport::SendMethodCall</text>
</a>
</g>
</g>
<!-- Node1&#45;&gt;Node3 -->
<g id="edge2_Node000001_Node000003" class="edge">
<title>Node1&#45;&gt;Node3</title>
<g id="a_edge2_Node000001_Node000003"><a xlink:title=" ">
<path fill="none" stroke="#63b8ff" d="M176.79,-63C167.81,-63 158.68,-63 149.77,-63"/>
<polygon fill="#63b8ff" stroke="#63b8ff" points="176.86,-66.5 186.86,-63 176.86,-59.5 176.86,-66.5"/>
</a>
</g>
</g>
<!-- Node4 -->
<g id="Node000004" class="node">
<title>Node4</title>
<g id="a_Node000004"><a xlink:href="classjsonrpc_1_1FramedStdioClientTransport.html#ac9c9bc61c4d7dc1510224667570d8a0a" target="_top" xlink:title="Sends an RPC notification to the server.">
<polygon fill="white" stroke="#666666" points="149.5,-30 1.5,-30 1.5,0 149.5,0 149.5,-30"/>
<text text-anchor="start" x="9.5" y="-18" font-family="Helvetica,sans-Serif" font-size="10.00">jsonrpc::FramedStdioClient</text>
<text text-anchor="middle" x="75.5" y="-7" font-family="Helvetica,sans-Serif" font-size="10.00">Transport::SendNotification</text>
</a>
</g>
</g>
<!-- Node1&#45;&gt;Node4 -->
<g id="edge3_Node000001_Node000004" class="edge">
<title>Node1&#45;&gt;Node4</title>
<g id="a_edge3_Node000001_Node000004"><a xlink:title=" ">
<path fill="none" stroke="#63b8ff" d="M190,-45.35C171.15,-40.31 150.8,-34.87 132.6,-30"/>
<polygon fill="#63b8ff" stroke="#63b8ff" points="189.13,-48.74 199.7,-47.94 190.94,-41.98 189.13,-48.74"/>
</a>
</g>
</g>
</g>
</svg>
