<?xml version="1.0" encoding="UTF-8" standalone="no"?>
<!DOCTYPE svg PUBLIC "-//W3C//DTD SVG 1.1//EN"
 "http://www.w3.org/Graphics/SVG/1.1/DTD/svg11.dtd">
<!-- Generated by graphviz version 2.43.0 (0)
 -->
<!-- Title: jsonrpc::ServerTransport::IsRunning Pages: 1 -->
<svg width="337pt" height="86pt"
 viewBox="0.00 0.00 337.00 86.00" xmlns="http://www.w3.org/2000/svg" xmlns:xlink="http://www.w3.org/1999/xlink">
<g id="graph0" class="graph" transform="scale(1 1) rotate(0) translate(4 82)">
<title>jsonrpc::ServerTransport::IsRunning</title>
<!-- Node1 -->
<g id="Node000001" class="node">
<title>Node1</title>
<g id="a_Node000001"><a xlink:title="Checks if the transport is running.">
<polygon fill="#999999" stroke="#666666" points="329,-54 195,-54 195,-24 329,-24 329,-54"/>
<text text-anchor="start" x="203" y="-42" font-family="Helvetica,sans-Serif" font-size="10.00">jsonrpc::ServerTransport</text>
<text text-anchor="middle" x="262" y="-31" font-family="Helvetica,sans-Serif" font-size="10.00">::IsRunning</text>
</a>
</g>
</g>
<!-- Node2 -->
<g id="Node000002" class="node">
<title>Node2</title>
<g id="a_Node000002"><a xlink:href="classjsonrpc_1_1FramedStdioServerTransport.html#a5cd63df458df0cfd7d0d2c645e08b5fb" target="_top" xlink:title="Listens for incoming messages and dispatches them to the appropriate handlers.">
<polygon fill="white" stroke="#666666" points="155,-78 4,-78 4,-48 155,-48 155,-78"/>
<text text-anchor="start" x="12" y="-66" font-family="Helvetica,sans-Serif" font-size="10.00">jsonrpc::FramedStdioServer</text>
<text text-anchor="middle" x="79.5" y="-55" font-family="Helvetica,sans-Serif" font-size="10.00">Transport::Listen</text>
</a>
</g>
</g>
<!-- Node1&#45;&gt;Node2 -->
<g id="edge1_Node000001_Node000002" class="edge">
<title>Node1&#45;&gt;Node2</title>
<g id="a_edge1_Node000001_Node000002"><a xlink:title=" ">
<path fill="none" stroke="#63b8ff" d="M184.73,-49.14C174.96,-50.44 164.97,-51.77 155.22,-53.07"/>
<polygon fill="#63b8ff" stroke="#63b8ff" points="185.36,-52.59 194.81,-47.8 184.44,-45.65 185.36,-52.59"/>
</a>
</g>
</g>
<!-- Node3 -->
<g id="Node000003" class="node">
<title>Node3</title>
<g id="a_Node000003"><a xlink:href="classjsonrpc_1_1StdioServerTransport.html#a0a4dd8a152ff40cd9d00bf1461f483c7" target="_top" xlink:title="Listens for incoming messages and dispatches them to the appropriate handlers.">
<polygon fill="white" stroke="#666666" points="159,-30 0,-30 0,0 159,0 159,-30"/>
<text text-anchor="start" x="8" y="-18" font-family="Helvetica,sans-Serif" font-size="10.00">jsonrpc::StdioServerTransport</text>
<text text-anchor="middle" x="79.5" y="-7" font-family="Helvetica,sans-Serif" font-size="10.00">::Listen</text>
</a>
</g>
</g>
<!-- Node1&#45;&gt;Node3 -->
<g id="edge2_Node000001_Node000003" class="edge">
<title>Node1&#45;&gt;Node3</title>
<g id="a_edge2_Node000001_Node000003"><a xlink:title=" ">
<path fill="none" stroke="#63b8ff" d="M184.66,-28.85C176.25,-27.73 167.67,-26.59 159.23,-25.47"/>
<polygon fill="#63b8ff" stroke="#63b8ff" points="184.44,-32.35 194.81,-30.2 185.36,-25.41 184.44,-32.35"/>
</a>
</g>
</g>
</g>
</svg>
