<?xml version="1.0" encoding="UTF-8" standalone="no"?>
<!DOCTYPE svg PUBLIC "-//W3C//DTD SVG 1.1//EN"
 "http://www.w3.org/Graphics/SVG/1.1/DTD/svg11.dtd">
<!-- Generated by graphviz version 2.43.0 (0)
 -->
<!-- Title: jsonrpc::transport::FramedTransport::ReadContentLengthFromStream Pages: 1 -->
<svg width="531pt" height="167pt"
 viewBox="0.00 0.00 531.00 167.00" xmlns="http://www.w3.org/2000/svg" xmlns:xlink="http://www.w3.org/1999/xlink">
<g id="graph0" class="graph" transform="scale(1 1) rotate(0) translate(4 163)">
<title>jsonrpc::transport::FramedTransport::ReadContentLengthFromStream</title>
<!-- Node1 -->
<g id="Node000001" class="node">
<title>Node1</title>
<g id="a_Node000001"><a xlink:title=" ">
<polygon fill="#999999" stroke="#666666" points="523,-100 350,-100 350,-59 523,-59 523,-100"/>
<text text-anchor="start" x="358" y="-88" font-family="Helvetica,sans-Serif" font-size="10.00">jsonrpc::transport</text>
<text text-anchor="start" x="358" y="-77" font-family="Helvetica,sans-Serif" font-size="10.00">::FramedTransport::ReadContent</text>
<text text-anchor="middle" x="436.5" y="-66" font-family="Helvetica,sans-Serif" font-size="10.00">LengthFromStream</text>
</a>
</g>
</g>
<!-- Node2 -->
<g id="Node000002" class="node">
<title>Node2</title>
<g id="a_Node000002"><a xlink:href="classjsonrpc_1_1transport_1_1FramedTransport.html#a0b49a8a146fa2d225751c4e97cdf3617" target="_top" xlink:title="Receives a framed message.">
<polygon fill="white" stroke="#666666" points="314,-159 165,-159 165,-118 314,-118 314,-159"/>
<text text-anchor="start" x="173" y="-147" font-family="Helvetica,sans-Serif" font-size="10.00">jsonrpc::transport</text>
<text text-anchor="start" x="173" y="-136" font-family="Helvetica,sans-Serif" font-size="10.00">::FramedTransport::Receive</text>
<text text-anchor="middle" x="239.5" y="-125" font-family="Helvetica,sans-Serif" font-size="10.00">FramedMessage</text>
</a>
</g>
</g>
<!-- Node1&#45;&gt;Node2 -->
<g id="edge1_Node000001_Node000002" class="edge">
<title>Node1&#45;&gt;Node2</title>
<g id="a_edge1_Node000001_Node000002"><a xlink:title=" ">
<path fill="none" stroke="#63b8ff" d="M357.58,-103.08C341.35,-107.99 324.36,-113.13 308.51,-117.92"/>
<polygon fill="#63b8ff" stroke="#63b8ff" points="359.01,-106.3 367.57,-100.05 356.99,-99.6 359.01,-106.3"/>
</a>
</g>
</g>
<!-- Node4 -->
<g id="Node000004" class="node">
<title>Node4</title>
<g id="a_Node000004"><a xlink:href="classjsonrpc_1_1transport_1_1FramedPipeTransport.html#aa90a2b497357b34bfdac1f0f66302161" target="_top" xlink:title="Receives a message from the transport layer.">
<polygon fill="white" stroke="#666666" points="302,-100 177,-100 177,-59 302,-59 302,-100"/>
<text text-anchor="start" x="185" y="-88" font-family="Helvetica,sans-Serif" font-size="10.00">jsonrpc::transport</text>
<text text-anchor="start" x="185" y="-77" font-family="Helvetica,sans-Serif" font-size="10.00">::FramedPipeTransport</text>
<text text-anchor="middle" x="239.5" y="-66" font-family="Helvetica,sans-Serif" font-size="10.00">::ReceiveMessage</text>
</a>
</g>
</g>
<!-- Node1&#45;&gt;Node4 -->
<g id="edge3_Node000001_Node000004" class="edge">
<title>Node1&#45;&gt;Node4</title>
<g id="a_edge3_Node000001_Node000004"><a xlink:title=" ">
<path fill="none" stroke="#63b8ff" d="M339.76,-79.5C327,-79.5 314.2,-79.5 302.23,-79.5"/>
<polygon fill="#63b8ff" stroke="#63b8ff" points="339.97,-83 349.97,-79.5 339.97,-76 339.97,-83"/>
</a>
</g>
</g>
<!-- Node5 -->
<g id="Node000005" class="node">
<title>Node5</title>
<g id="a_Node000005"><a xlink:href="classjsonrpc_1_1transport_1_1FramedSocketTransport.html#a40b79d5b4d456086fa3ed6df347f4420" target="_top" xlink:title="Receives a message from the transport layer.">
<polygon fill="white" stroke="#666666" points="308,-41 171,-41 171,0 308,0 308,-41"/>
<text text-anchor="start" x="179" y="-29" font-family="Helvetica,sans-Serif" font-size="10.00">jsonrpc::transport</text>
<text text-anchor="start" x="179" y="-18" font-family="Helvetica,sans-Serif" font-size="10.00">::FramedSocketTransport</text>
<text text-anchor="middle" x="239.5" y="-7" font-family="Helvetica,sans-Serif" font-size="10.00">::ReceiveMessage</text>
</a>
</g>
</g>
<!-- Node1&#45;&gt;Node5 -->
<g id="edge4_Node000001_Node000005" class="edge">
<title>Node1&#45;&gt;Node5</title>
<g id="a_edge4_Node000001_Node000005"><a xlink:title=" ">
<path fill="none" stroke="#63b8ff" d="M357.98,-56.05C341.51,-51.06 324.25,-45.84 308.18,-40.98"/>
<polygon fill="#63b8ff" stroke="#63b8ff" points="356.99,-59.4 367.57,-58.95 359.01,-52.7 356.99,-59.4"/>
</a>
</g>
</g>
<!-- Node3 -->
<g id="Node000003" class="node">
<title>Node3</title>
<g id="a_Node000003"><a xlink:href="classjsonrpc_1_1transport_1_1FramedStdioTransport.html#ab895abe72713d7016b4cc59ba96c9ecc" target="_top" xlink:title="Receives a message from the transport layer.">
<polygon fill="white" stroke="#666666" points="129,-159 0,-159 0,-118 129,-118 129,-159"/>
<text text-anchor="start" x="8" y="-147" font-family="Helvetica,sans-Serif" font-size="10.00">jsonrpc::transport</text>
<text text-anchor="start" x="8" y="-136" font-family="Helvetica,sans-Serif" font-size="10.00">::FramedStdioTransport</text>
<text text-anchor="middle" x="64.5" y="-125" font-family="Helvetica,sans-Serif" font-size="10.00">::ReceiveMessage</text>
</a>
</g>
</g>
<!-- Node2&#45;&gt;Node3 -->
<g id="edge2_Node000002_Node000003" class="edge">
<title>Node2&#45;&gt;Node3</title>
<g id="a_edge2_Node000002_Node000003"><a xlink:title=" ">
<path fill="none" stroke="#63b8ff" d="M154.81,-138.5C146.21,-138.5 137.56,-138.5 129.22,-138.5"/>
<polygon fill="#63b8ff" stroke="#63b8ff" points="154.88,-142 164.88,-138.5 154.88,-135 154.88,-142"/>
</a>
</g>
</g>
</g>
</svg>
