<?xml version="1.0" encoding="UTF-8" standalone="no"?>
<!DOCTYPE svg PUBLIC "-//W3C//DTD SVG 1.1//EN"
 "http://www.w3.org/Graphics/SVG/1.1/DTD/svg11.dtd">
<!-- Generated by graphviz version 2.43.0 (0)
 -->
<!-- Title: jsonrpc::HttpServerTransport Pages: 1 -->
<svg width="157pt" height="277pt"
 viewBox="0.00 0.00 157.00 277.00" xmlns="http://www.w3.org/2000/svg" xmlns:xlink="http://www.w3.org/1999/xlink">
<g id="graph0" class="graph" transform="scale(1 1) rotate(0) translate(4 273)">
<title>jsonrpc::HttpServerTransport</title>
<!-- Node1 -->
<g id="Node000001" class="node">
<title>Node1</title>
<g id="a_Node000001"><a xlink:title="Server transport using HTTP for communication.">
<polygon fill="#999999" stroke="transparent" points="149,-79 0,-79 0,0 149,0 149,-79"/>
<text text-anchor="start" x="5.5" y="-66.5" font-family="Helvetica,sans-Serif" font-size="10.00">jsonrpc::HttpServerTransport</text>
<text text-anchor="start" x="73" y="-51.5" font-family="Helvetica,sans-Serif" font-size="10.00"> </text>
<text text-anchor="start" x="10" y="-36.5" font-family="Helvetica,sans-Serif" font-size="10.00">+</text>
<text text-anchor="start" x="28.5" y="-36.5" font-family="Helvetica,sans-Serif" font-size="10.00">HttpServerTransport()</text>
<text text-anchor="start" x="10" y="-21.5" font-family="Helvetica,sans-Serif" font-size="10.00">+</text>
<text text-anchor="start" x="28.5" y="-21.5" font-family="Helvetica,sans-Serif" font-size="10.00">Listen()</text>
<text text-anchor="start" x="10" y="-6.5" font-family="Helvetica,sans-Serif" font-size="10.00">+</text>
<text text-anchor="start" x="28.5" y="-6.5" font-family="Helvetica,sans-Serif" font-size="10.00">Stop()</text>
<polygon fill="#666666" stroke="#666666" points="0.5,-61.5 0.5,-61.5 149.5,-61.5 149.5,-61.5 0.5,-61.5"/>
<polygon fill="#666666" stroke="#666666" points="0.5,-46.5 0.5,-46.5 149.5,-46.5 149.5,-46.5 0.5,-46.5"/>
<polygon fill="none" stroke="#666666" points="0,0 0,-79 149,-79 149,0 0,0"/>
</a>
</g>
</g>
<!-- Node2 -->
<g id="Node000002" class="node">
<title>Node2</title>
<g id="a_Node000002"><a xlink:href="classjsonrpc_1_1ServerTransport.html" target="_top" xlink:title="Abstract base class for server transport mechanisms.">
<polygon fill="white" stroke="transparent" points="138.5,-269 10.5,-269 10.5,-115 138.5,-115 138.5,-269"/>
<text text-anchor="start" x="15.5" y="-257" font-family="Helvetica,sans-Serif" font-size="10.00">jsonrpc::ServerTransport</text>
<text text-anchor="start" x="18" y="-242" font-family="Helvetica,sans-Serif" font-size="10.00">#</text>
<text text-anchor="start" x="34.5" y="-242" font-family="Helvetica,sans-Serif" font-size="10.00">running_</text>
<text text-anchor="start" x="18" y="-227" font-family="Helvetica,sans-Serif" font-size="10.00">#</text>
<text text-anchor="start" x="34.5" y="-227" font-family="Helvetica,sans-Serif" font-size="10.00">dispatcher_</text>
<text text-anchor="start" x="18" y="-212" font-family="Helvetica,sans-Serif" font-size="10.00">+</text>
<text text-anchor="start" x="34.5" y="-212" font-family="Helvetica,sans-Serif" font-size="10.00">ServerTransport()</text>
<text text-anchor="start" x="18" y="-197" font-family="Helvetica,sans-Serif" font-size="10.00">+</text>
<text text-anchor="start" x="34.5" y="-197" font-family="Helvetica,sans-Serif" font-size="10.00">~ServerTransport()</text>
<text text-anchor="start" x="18" y="-182" font-family="Helvetica,sans-Serif" font-size="10.00">+</text>
<text text-anchor="start" x="34.5" y="-182" font-family="Helvetica,sans-Serif" font-size="10.00">Start()</text>
<text text-anchor="start" x="18" y="-167" font-family="Helvetica,sans-Serif" font-size="10.00">+</text>
<text text-anchor="start" x="34.5" y="-167" font-family="Helvetica,sans-Serif" font-size="10.00">Stop()</text>
<text text-anchor="start" x="18" y="-152" font-family="Helvetica,sans-Serif" font-size="10.00">+</text>
<text text-anchor="start" x="34.5" y="-152" font-family="Helvetica,sans-Serif" font-size="10.00">SetDispatcher()</text>
<text text-anchor="start" x="18" y="-137" font-family="Helvetica,sans-Serif" font-size="10.00">+</text>
<text text-anchor="start" x="34.5" y="-137" font-family="Helvetica,sans-Serif" font-size="10.00">IsRunning()</text>
<text text-anchor="start" x="18" y="-122" font-family="Helvetica,sans-Serif" font-size="10.00">#</text>
<text text-anchor="start" x="34.5" y="-122" font-family="Helvetica,sans-Serif" font-size="10.00">Listen()</text>
<polygon fill="#666666" stroke="#666666" points="10.5,-252 10.5,-252 138.5,-252 138.5,-252 10.5,-252"/>
<polygon fill="#666666" stroke="#666666" points="10.5,-222 10.5,-222 32.5,-222 32.5,-222 10.5,-222"/>
<polygon fill="#666666" stroke="#666666" points="32.5,-222 32.5,-222 138.5,-222 138.5,-222 32.5,-222"/>
<polygon fill="none" stroke="#666666" points="10.5,-115 10.5,-269 138.5,-269 138.5,-115 10.5,-115"/>
</a>
</g>
</g>
<!-- Node2&#45;&gt;Node1 -->
<g id="edge1_Node000001_Node000002" class="edge">
<title>Node2&#45;&gt;Node1</title>
<g id="a_edge1_Node000001_Node000002"><a xlink:title=" ">
<path fill="none" stroke="#63b8ff" d="M74.5,-104.74C74.5,-95.82 74.5,-87.11 74.5,-79.13"/>
<polygon fill="none" stroke="#63b8ff" points="71,-104.87 74.5,-114.87 78,-104.87 71,-104.87"/>
</a>
</g>
</g>
</g>
</svg>
