<?xml version="1.0" encoding="UTF-8" standalone="no"?>
<!DOCTYPE svg PUBLIC "-//W3C//DTD SVG 1.1//EN"
 "http://www.w3.org/Graphics/SVG/1.1/DTD/svg11.dtd">
<!-- Generated by graphviz version 2.43.0 (0)
 -->
<!-- Title: json_rpc::Dispatcher::DispatchRequest Pages: 1 -->
<svg width="324pt" height="134pt"
 viewBox="0.00 0.00 324.00 134.00" xmlns="http://www.w3.org/2000/svg" xmlns:xlink="http://www.w3.org/1999/xlink">
<g id="graph0" class="graph" transform="scale(1 1) rotate(0) translate(4 130)">
<title>json_rpc::Dispatcher::DispatchRequest</title>
<!-- Node1 -->
<g id="Node000001" class="node">
<title>Node1</title>
<g id="a_Node000001"><a xlink:title="Dispatches an RPC request to the appropriate handler.">
<polygon fill="#999999" stroke="#666666" points="316,-78 200,-78 200,-48 316,-48 316,-78"/>
<text text-anchor="start" x="208" y="-66" font-family="Helvetica,sans-Serif" font-size="10.00">json_rpc::Dispatcher</text>
<text text-anchor="middle" x="258" y="-55" font-family="Helvetica,sans-Serif" font-size="10.00">::DispatchRequest</text>
</a>
</g>
</g>
<!-- Node2 -->
<g id="Node000002" class="node">
<title>Node2</title>
<g id="a_Node000002"><a xlink:href="classjson__rpc_1_1HttpServerTransport.html#a3f03ca0523ab093e8e3c15e52bd9834c" target="_top" xlink:title="Constructs an HttpServerTransport object.">
<polygon fill="white" stroke="#666666" points="162.5,-126 1.5,-126 1.5,-96 162.5,-96 162.5,-126"/>
<text text-anchor="start" x="9.5" y="-114" font-family="Helvetica,sans-Serif" font-size="10.00">json_rpc::HttpServerTransport</text>
<text text-anchor="middle" x="82" y="-103" font-family="Helvetica,sans-Serif" font-size="10.00">::HttpServerTransport</text>
</a>
</g>
</g>
<!-- Node1&#45;&gt;Node2 -->
<g id="edge1_Node000001_Node000002" class="edge">
<title>Node1&#45;&gt;Node2</title>
<g id="a_edge1_Node000001_Node000002"><a xlink:title=" ">
<path fill="none" stroke="#63b8ff" d="M192.77,-80.72C174.57,-85.74 154.94,-91.15 137.38,-96"/>
<polygon fill="#63b8ff" stroke="#63b8ff" points="193.71,-84.09 202.42,-78.06 191.85,-77.34 193.71,-84.09"/>
</a>
</g>
</g>
<!-- Node3 -->
<g id="Node000003" class="node">
<title>Node3</title>
<g id="a_Node000003"><a xlink:href="classjson__rpc_1_1FramedStdioServerTransport.html#a9defce0b2696eb94d03cf5f0e2d057f9" target="_top" xlink:title="Listens for incoming messages and dispatches them to the appropriate handlers.">
<polygon fill="white" stroke="#666666" points="160,-78 4,-78 4,-48 160,-48 160,-78"/>
<text text-anchor="start" x="12" y="-66" font-family="Helvetica,sans-Serif" font-size="10.00">json_rpc::FramedStdioServer</text>
<text text-anchor="middle" x="82" y="-55" font-family="Helvetica,sans-Serif" font-size="10.00">Transport::Listen</text>
</a>
</g>
</g>
<!-- Node1&#45;&gt;Node3 -->
<g id="edge2_Node000001_Node000003" class="edge">
<title>Node1&#45;&gt;Node3</title>
<g id="a_edge2_Node000001_Node000003"><a xlink:title=" ">
<path fill="none" stroke="#63b8ff" d="M189.35,-63C179.82,-63 169.96,-63 160.26,-63"/>
<polygon fill="#63b8ff" stroke="#63b8ff" points="189.54,-66.5 199.54,-63 189.54,-59.5 189.54,-66.5"/>
</a>
</g>
</g>
<!-- Node4 -->
<g id="Node000004" class="node">
<title>Node4</title>
<g id="a_Node000004"><a xlink:href="classjson__rpc_1_1StdioServerTransport.html#af0140236cf0e829636f50beab3306852" target="_top" xlink:title="Listens for incoming messages and dispatches them to the appropriate handlers.">
<polygon fill="white" stroke="#666666" points="164,-30 0,-30 0,0 164,0 164,-30"/>
<text text-anchor="start" x="8" y="-18" font-family="Helvetica,sans-Serif" font-size="10.00">json_rpc::StdioServerTransport</text>
<text text-anchor="middle" x="82" y="-7" font-family="Helvetica,sans-Serif" font-size="10.00">::Listen</text>
</a>
</g>
</g>
<!-- Node1&#45;&gt;Node4 -->
<g id="edge3_Node000001_Node000004" class="edge">
<title>Node1&#45;&gt;Node4</title>
<g id="a_edge3_Node000001_Node000004"><a xlink:title=" ">
<path fill="none" stroke="#63b8ff" d="M192.77,-45.28C174.57,-40.26 154.94,-34.85 137.38,-30"/>
<polygon fill="#63b8ff" stroke="#63b8ff" points="191.85,-48.66 202.42,-47.94 193.71,-41.91 191.85,-48.66"/>
</a>
</g>
</g>
</g>
</svg>
