<?xml version="1.0" encoding="UTF-8" standalone="no"?>
<!DOCTYPE svg PUBLIC "-//W3C//DTD SVG 1.1//EN"
 "http://www.w3.org/Graphics/SVG/1.1/DTD/svg11.dtd">
<!-- Generated by graphviz version 2.43.0 (0)
 -->
<!-- Title: jsonrpc::Dispatcher::DispatchRequest Pages: 1 -->
<svg width="265pt" height="86pt"
 viewBox="0.00 0.00 265.00 86.00" xmlns="http://www.w3.org/2000/svg" xmlns:xlink="http://www.w3.org/1999/xlink">
<g id="graph0" class="graph" transform="scale(1 1) rotate(0) translate(4 82)">
<title>jsonrpc::Dispatcher::DispatchRequest</title>
<!-- Node1 -->
<g id="Node000001" class="node">
<title>Node1</title>
<g id="a_Node000001"><a xlink:title="Processes a JSON&#45;RPC request.">
<polygon fill="#999999" stroke="#666666" points="110,-54 0,-54 0,-24 110,-24 110,-54"/>
<text text-anchor="start" x="8" y="-42" font-family="Helvetica,sans-Serif" font-size="10.00">jsonrpc::Dispatcher</text>
<text text-anchor="middle" x="55" y="-31" font-family="Helvetica,sans-Serif" font-size="10.00">::DispatchRequest</text>
</a>
</g>
</g>
<!-- Node2 -->
<g id="Node000002" class="node">
<title>Node2</title>
<g id="a_Node000002"><a xlink:href="classjsonrpc_1_1Response.html#a0dce112a462bfbedf722cd9dc96b837a" target="_top" xlink:title="Creates a Response object for a library error.">
<polygon fill="white" stroke="#666666" points="257,-78 146,-78 146,-48 257,-48 257,-78"/>
<text text-anchor="start" x="154" y="-66" font-family="Helvetica,sans-Serif" font-size="10.00">jsonrpc::Response::</text>
<text text-anchor="middle" x="201.5" y="-55" font-family="Helvetica,sans-Serif" font-size="10.00">CreateLibError</text>
</a>
</g>
</g>
<!-- Node1&#45;&gt;Node2 -->
<g id="edge1_Node000001_Node000002" class="edge">
<title>Node1&#45;&gt;Node2</title>
<g id="a_edge1_Node000001_Node000002"><a xlink:title=" ">
<path fill="none" stroke="#63b8ff" d="M110.22,-48C118.62,-49.4 127.37,-50.85 135.98,-52.28"/>
<polygon fill="#63b8ff" stroke="#63b8ff" points="135.54,-55.76 145.98,-53.94 136.69,-48.85 135.54,-55.76"/>
</a>
</g>
</g>
<!-- Node3 -->
<g id="Node000003" class="node">
<title>Node3</title>
<g id="a_Node000003"><a xlink:href="classjsonrpc_1_1Response.html#a0ca1e37b725b5f4c81e32a13f928c1d9" target="_top" xlink:title="Serializes the Response object to a string.">
<polygon fill="white" stroke="#666666" points="257,-30 146,-30 146,0 257,0 257,-30"/>
<text text-anchor="start" x="154" y="-18" font-family="Helvetica,sans-Serif" font-size="10.00">jsonrpc::Response::</text>
<text text-anchor="middle" x="201.5" y="-7" font-family="Helvetica,sans-Serif" font-size="10.00">ToStr</text>
</a>
</g>
</g>
<!-- Node1&#45;&gt;Node3 -->
<g id="edge2_Node000001_Node000003" class="edge">
<title>Node1&#45;&gt;Node3</title>
<g id="a_edge2_Node000001_Node000003"><a xlink:title=" ">
<path fill="none" stroke="#63b8ff" d="M110.22,-30C118.62,-28.6 127.37,-27.15 135.98,-25.72"/>
<polygon fill="#63b8ff" stroke="#63b8ff" points="136.69,-29.15 145.98,-24.06 135.54,-22.24 136.69,-29.15"/>
</a>
</g>
</g>
</g>
</svg>
