<?xml version="1.0" encoding="UTF-8" standalone="no"?>
<!DOCTYPE svg PUBLIC "-//W3C//DTD SVG 1.1//EN"
 "http://www.w3.org/Graphics/SVG/1.1/DTD/svg11.dtd">
<!-- Generated by graphviz version 2.43.0 (0)
 -->
<!-- Title: src/client/client.cpp Pages: 1 -->
<svg width="826pt" height="258pt"
 viewBox="0.00 0.00 826.00 258.00" xmlns="http://www.w3.org/2000/svg" xmlns:xlink="http://www.w3.org/1999/xlink">
<g id="graph0" class="graph" transform="scale(1 1) rotate(0) translate(4 254)">
<title>src/client/client.cpp</title>
<!-- Node1 -->
<g id="Node000001" class="node">
<title>Node1</title>
<g id="a_Node000001"><a xlink:title=" ">
<polygon fill="#999999" stroke="#666666" points="442.5,-250 331.5,-250 331.5,-231 442.5,-231 442.5,-250"/>
<text text-anchor="middle" x="387" y="-238" font-family="Helvetica,sans-Serif" font-size="10.00">src/client/client.cpp</text>
</a>
</g>
</g>
<!-- Node2 -->
<g id="Node000002" class="node">
<title>Node2</title>
<g id="a_Node000002"><a xlink:href="client_8hpp.html" target="_top" xlink:title=" ">
<polygon fill="white" stroke="#666666" points="388.5,-195 255.5,-195 255.5,-176 388.5,-176 388.5,-195"/>
<text text-anchor="middle" x="322" y="-183" font-family="Helvetica,sans-Serif" font-size="10.00">jsonrpc/client/client.hpp</text>
</a>
</g>
</g>
<!-- Node1&#45;&gt;Node2 -->
<g id="edge1_Node000001_Node000002" class="edge">
<title>Node1&#45;&gt;Node2</title>
<g id="a_edge1_Node000001_Node000002"><a xlink:title=" ">
<path fill="none" stroke="#63b8ff" d="M376.56,-230.98C366.85,-223.07 352.18,-211.11 340.5,-201.58"/>
<polygon fill="#63b8ff" stroke="#63b8ff" points="342.6,-198.78 332.63,-195.17 338.17,-204.2 342.6,-198.78"/>
</a>
</g>
</g>
<!-- Node18 -->
<g id="Node000018" class="node">
<title>Node18</title>
<g id="a_Node000018"><a xlink:title=" ">
<polygon fill="#e0e0e0" stroke="#999999" points="499.5,-195 406.5,-195 406.5,-176 499.5,-176 499.5,-195"/>
<text text-anchor="middle" x="453" y="-183" font-family="Helvetica,sans-Serif" font-size="10.00">spdlog/spdlog.h</text>
</a>
</g>
</g>
<!-- Node1&#45;&gt;Node18 -->
<g id="edge24_Node000001_Node000018" class="edge">
<title>Node1&#45;&gt;Node18</title>
<g id="a_edge24_Node000001_Node000018"><a xlink:title=" ">
<path fill="none" stroke="#63b8ff" d="M397.6,-230.98C407.46,-223.07 422.35,-211.11 434.22,-201.58"/>
<polygon fill="#63b8ff" stroke="#63b8ff" points="436.6,-204.16 442.2,-195.17 432.21,-198.7 436.6,-204.16"/>
</a>
</g>
</g>
<!-- Node3 -->
<g id="Node000003" class="node">
<title>Node3</title>
<g id="a_Node000003"><a xlink:title=" ">
<polygon fill="#e0e0e0" stroke="#999999" points="50,-134.5 0,-134.5 0,-115.5 50,-115.5 50,-134.5"/>
<text text-anchor="middle" x="25" y="-122.5" font-family="Helvetica,sans-Serif" font-size="10.00">atomic</text>
</a>
</g>
</g>
<!-- Node2&#45;&gt;Node3 -->
<g id="edge2_Node000002_Node000003" class="edge">
<title>Node2&#45;&gt;Node3</title>
<g id="a_edge2_Node000002_Node000003"><a xlink:title=" ">
<path fill="none" stroke="#63b8ff" d="M255.43,-177.4C201.71,-170.68 124.55,-158.79 59,-140 57.11,-139.46 55.19,-138.85 53.26,-138.19"/>
<polygon fill="#63b8ff" stroke="#63b8ff" points="54.39,-134.87 43.8,-134.61 51.92,-141.42 54.39,-134.87"/>
</a>
</g>
</g>
<!-- Node4 -->
<g id="Node000004" class="node">
<title>Node4</title>
<g id="a_Node000004"><a xlink:title=" ">
<polygon fill="#e0e0e0" stroke="#999999" points="114,-134.5 68,-134.5 68,-115.5 114,-115.5 114,-134.5"/>
<text text-anchor="middle" x="91" y="-122.5" font-family="Helvetica,sans-Serif" font-size="10.00">future</text>
</a>
</g>
</g>
<!-- Node2&#45;&gt;Node4 -->
<g id="edge3_Node000002_Node000004" class="edge">
<title>Node2&#45;&gt;Node4</title>
<g id="a_edge3_Node000002_Node000004"><a xlink:title=" ">
<path fill="none" stroke="#63b8ff" d="M271.39,-175.97C230.73,-168.45 172.46,-156.18 123,-140 121.56,-139.53 120.09,-139.02 118.62,-138.47"/>
<polygon fill="#63b8ff" stroke="#63b8ff" points="119.62,-135.1 109.04,-134.61 117.01,-141.6 119.62,-135.1"/>
</a>
</g>
</g>
<!-- Node5 -->
<g id="Node000005" class="node">
<title>Node5</title>
<g id="a_Node000005"><a xlink:title=" ">
<polygon fill="#e0e0e0" stroke="#999999" points="190,-134.5 132,-134.5 132,-115.5 190,-115.5 190,-134.5"/>
<text text-anchor="middle" x="161" y="-122.5" font-family="Helvetica,sans-Serif" font-size="10.00">memory</text>
</a>
</g>
</g>
<!-- Node2&#45;&gt;Node5 -->
<g id="edge4_Node000002_Node000005" class="edge">
<title>Node2&#45;&gt;Node5</title>
<g id="a_edge4_Node000002_Node000005"><a xlink:title=" ">
<path fill="none" stroke="#63b8ff" d="M297.94,-175.84C273.14,-166.91 233.34,-152.54 199,-140 197.37,-139.4 195.69,-138.79 194,-138.17"/>
<polygon fill="#63b8ff" stroke="#63b8ff" points="194.9,-134.77 184.3,-134.61 192.48,-141.34 194.9,-134.77"/>
</a>
</g>
</g>
<!-- Node6 -->
<g id="Node000006" class="node">
<title>Node6</title>
<g id="a_Node000006"><a xlink:title=" ">
<polygon fill="#e0e0e0" stroke="#999999" points="256,-134.5 208,-134.5 208,-115.5 256,-115.5 256,-134.5"/>
<text text-anchor="middle" x="232" y="-122.5" font-family="Helvetica,sans-Serif" font-size="10.00">mutex</text>
</a>
</g>
</g>
<!-- Node2&#45;&gt;Node6 -->
<g id="edge5_Node000002_Node000006" class="edge">
<title>Node2&#45;&gt;Node6</title>
<g id="a_edge5_Node000002_Node000006"><a xlink:title=" ">
<path fill="none" stroke="#63b8ff" d="M308.72,-175.87C294.36,-166.54 271.24,-151.51 254.13,-140.38"/>
<polygon fill="#63b8ff" stroke="#63b8ff" points="255.63,-137.18 245.33,-134.67 251.81,-143.05 255.63,-137.18"/>
</a>
</g>
</g>
<!-- Node7 -->
<g id="Node000007" class="node">
<title>Node7</title>
<g id="a_Node000007"><a xlink:title=" ">
<polygon fill="#e0e0e0" stroke="#999999" points="537,-19 481,-19 481,0 537,0 537,-19"/>
<text text-anchor="middle" x="509" y="-7" font-family="Helvetica,sans-Serif" font-size="10.00">optional</text>
</a>
</g>
</g>
<!-- Node2&#45;&gt;Node7 -->
<g id="edge6_Node000002_Node000007" class="edge">
<title>Node2&#45;&gt;Node7</title>
<g id="a_edge6_Node000002_Node000007"><a xlink:title=" ">
<path fill="none" stroke="#63b8ff" d="M320.43,-175.8C318.25,-161.44 315.55,-132.14 325,-110 338.33,-78.78 349.34,-73.2 378,-55 406.68,-36.79 443.65,-25.12 471,-18.32"/>
<polygon fill="#63b8ff" stroke="#63b8ff" points="472.06,-21.67 480.98,-15.95 470.44,-14.86 472.06,-21.67"/>
</a>
</g>
</g>
<!-- Node8 -->
<g id="Node000008" class="node">
<title>Node8</title>
<g id="a_Node000008"><a xlink:title=" ">
<polygon fill="#e0e0e0" stroke="#999999" points="790,-74 746,-74 746,-55 790,-55 790,-74"/>
<text text-anchor="middle" x="768" y="-62" font-family="Helvetica,sans-Serif" font-size="10.00">string</text>
</a>
</g>
</g>
<!-- Node2&#45;&gt;Node8 -->
<g id="edge7_Node000002_Node000008" class="edge">
<title>Node2&#45;&gt;Node8</title>
<g id="a_edge7_Node000002_Node000008"><a xlink:title=" ">
<path fill="none" stroke="#63b8ff" d="M388.72,-176.95C391.86,-176.62 394.96,-176.3 398,-176 443.06,-171.48 773.42,-173.41 804,-140 819.75,-122.79 801.02,-97.43 785.23,-81.19"/>
<polygon fill="#63b8ff" stroke="#63b8ff" points="787.48,-78.49 777.87,-74.02 782.59,-83.51 787.48,-78.49"/>
</a>
</g>
</g>
<!-- Node9 -->
<g id="Node000009" class="node">
<title>Node9</title>
<g id="a_Node000009"><a xlink:title=" ">
<polygon fill="#e0e0e0" stroke="#999999" points="398,-134.5 350,-134.5 350,-115.5 398,-115.5 398,-134.5"/>
<text text-anchor="middle" x="374" y="-122.5" font-family="Helvetica,sans-Serif" font-size="10.00">thread</text>
</a>
</g>
</g>
<!-- Node2&#45;&gt;Node9 -->
<g id="edge8_Node000002_Node000009" class="edge">
<title>Node2&#45;&gt;Node9</title>
<g id="a_edge8_Node000002_Node000009"><a xlink:title=" ">
<path fill="none" stroke="#63b8ff" d="M329.67,-175.87C337.51,-167.05 349.86,-153.16 359.54,-142.27"/>
<polygon fill="#63b8ff" stroke="#63b8ff" points="362.27,-144.47 366.3,-134.67 357.04,-139.82 362.27,-144.47"/>
</a>
</g>
</g>
<!-- Node10 -->
<g id="Node000010" class="node">
<title>Node10</title>
<g id="a_Node000010"><a xlink:title=" ">
<polygon fill="#e0e0e0" stroke="#999999" points="509.5,-134.5 416.5,-134.5 416.5,-115.5 509.5,-115.5 509.5,-134.5"/>
<text text-anchor="middle" x="463" y="-122.5" font-family="Helvetica,sans-Serif" font-size="10.00">unordered_map</text>
</a>
</g>
</g>
<!-- Node2&#45;&gt;Node10 -->
<g id="edge9_Node000002_Node000010" class="edge">
<title>Node2&#45;&gt;Node10</title>
<g id="a_edge9_Node000002_Node000010"><a xlink:title=" ">
<path fill="none" stroke="#63b8ff" d="M342.5,-175.99C366.31,-166.12 405.79,-149.73 433.04,-138.43"/>
<polygon fill="#63b8ff" stroke="#63b8ff" points="434.58,-141.58 442.47,-134.52 431.89,-135.12 434.58,-141.58"/>
</a>
</g>
</g>
<!-- Node11 -->
<g id="Node000011" class="node">
<title>Node11</title>
<g id="a_Node000011"><a xlink:title=" ">
<polygon fill="#e0e0e0" stroke="#999999" points="433.5,-74 386.5,-74 386.5,-55 433.5,-55 433.5,-74"/>
<text text-anchor="middle" x="410" y="-62" font-family="Helvetica,sans-Serif" font-size="10.00">vector</text>
</a>
</g>
</g>
<!-- Node2&#45;&gt;Node11 -->
<g id="edge10_Node000002_Node000011" class="edge">
<title>Node2&#45;&gt;Node11</title>
<g id="a_edge10_Node000002_Node000011"><a xlink:title=" ">
<path fill="none" stroke="#63b8ff" d="M322.21,-175.83C322.97,-161 326.34,-130.37 341,-110 350.74,-96.46 365.99,-86.01 379.68,-78.64"/>
<polygon fill="#63b8ff" stroke="#63b8ff" points="381.47,-81.66 388.82,-74.03 378.32,-75.41 381.47,-81.66"/>
</a>
</g>
</g>
<!-- Node12 -->
<g id="Node000012" class="node">
<title>Node12</title>
<g id="a_Node000012"><a xlink:href="client_2request_8hpp.html" target="_top" xlink:title=" ">
<polygon fill="white" stroke="#666666" points="670.5,-134.5 527.5,-134.5 527.5,-115.5 670.5,-115.5 670.5,-134.5"/>
<text text-anchor="middle" x="599" y="-122.5" font-family="Helvetica,sans-Serif" font-size="10.00">jsonrpc/client/request.hpp</text>
</a>
</g>
</g>
<!-- Node2&#45;&gt;Node12 -->
<g id="edge11_Node000002_Node000012" class="edge">
<title>Node2&#45;&gt;Node12</title>
<g id="a_edge11_Node000002_Node000012"><a xlink:title=" ">
<path fill="none" stroke="#63b8ff" d="M362.28,-175.99C411.62,-165.57 495.21,-147.92 548.72,-136.62"/>
<polygon fill="#63b8ff" stroke="#63b8ff" points="549.61,-140.01 558.67,-134.52 548.17,-133.16 549.61,-140.01"/>
</a>
</g>
</g>
<!-- Node17 -->
<g id="Node000017" class="node">
<title>Node17</title>
<g id="a_Node000017"><a xlink:href="client__transport_8hpp.html" target="_top" xlink:title=" ">
<polygon fill="white" stroke="#666666" points="795,-140 689,-140 689,-110 795,-110 795,-140"/>
<text text-anchor="start" x="697" y="-128" font-family="Helvetica,sans-Serif" font-size="10.00">jsonrpc/core/client</text>
<text text-anchor="middle" x="742" y="-117" font-family="Helvetica,sans-Serif" font-size="10.00">_transport.hpp</text>
</a>
</g>
</g>
<!-- Node2&#45;&gt;Node17 -->
<g id="edge21_Node000002_Node000017" class="edge">
<title>Node2&#45;&gt;Node17</title>
<g id="a_edge21_Node000002_Node000017"><a xlink:title=" ">
<path fill="none" stroke="#63b8ff" d="M388.75,-177C472.15,-167.5 611.21,-151.19 679.09,-140.01"/>
<polygon fill="#63b8ff" stroke="#63b8ff" points="679.7,-143.46 688.97,-138.34 678.52,-136.56 679.7,-143.46"/>
</a>
</g>
</g>
<!-- Node12&#45;&gt;Node7 -->
<g id="edge13_Node000012_Node000007" class="edge">
<title>Node12&#45;&gt;Node7</title>
<g id="a_edge13_Node000012_Node000007"><a xlink:title=" ">
<path fill="none" stroke="#63b8ff" d="M592.24,-115.47C577.38,-96.74 541.69,-51.72 522.21,-27.16"/>
<polygon fill="#63b8ff" stroke="#63b8ff" points="524.8,-24.79 515.84,-19.13 519.31,-29.14 524.8,-24.79"/>
</a>
</g>
</g>
<!-- Node12&#45;&gt;Node8 -->
<g id="edge14_Node000012_Node000008" class="edge">
<title>Node12&#45;&gt;Node8</title>
<g id="a_edge14_Node000012_Node000008"><a xlink:title=" ">
<path fill="none" stroke="#63b8ff" d="M623.57,-115.49C653.36,-105.18 703.61,-87.79 736.29,-76.48"/>
<polygon fill="#63b8ff" stroke="#63b8ff" points="737.52,-79.76 745.82,-73.18 735.23,-73.14 737.52,-79.76"/>
</a>
</g>
</g>
<!-- Node12&#45;&gt;Node11 -->
<g id="edge15_Node000012_Node000011" class="edge">
<title>Node12&#45;&gt;Node11</title>
<g id="a_edge15_Node000012_Node000011"><a xlink:title=" ">
<path fill="none" stroke="#63b8ff" d="M571.52,-115.49C537.55,-104.98 479.77,-87.1 443.31,-75.81"/>
<polygon fill="#63b8ff" stroke="#63b8ff" points="444.22,-72.43 433.63,-72.81 442.15,-79.12 444.22,-72.43"/>
</a>
</g>
</g>
<!-- Node13 -->
<g id="Node000013" class="node">
<title>Node13</title>
<g id="a_Node000013"><a xlink:title=" ">
<polygon fill="#e0e0e0" stroke="#999999" points="620.5,-19 555.5,-19 555.5,0 620.5,0 620.5,-19"/>
<text text-anchor="middle" x="588" y="-7" font-family="Helvetica,sans-Serif" font-size="10.00">functional</text>
</a>
</g>
</g>
<!-- Node12&#45;&gt;Node13 -->
<g id="edge12_Node000012_Node000013" class="edge">
<title>Node12&#45;&gt;Node13</title>
<g id="a_edge12_Node000012_Node000013"><a xlink:title=" ">
<path fill="none" stroke="#63b8ff" d="M597.56,-115.17C595.97,-105.2 593.47,-88.48 592,-74 590.48,-59.02 589.45,-42 588.81,-29.35"/>
<polygon fill="#63b8ff" stroke="#63b8ff" points="592.3,-28.97 588.34,-19.14 585.3,-29.3 592.3,-28.97"/>
</a>
</g>
</g>
<!-- Node14 -->
<g id="Node000014" class="node">
<title>Node14</title>
<g id="a_Node000014"><a xlink:href="types_8hpp.html" target="_top" xlink:title=" ">
<polygon fill="white" stroke="#666666" points="727.5,-74 600.5,-74 600.5,-55 727.5,-55 727.5,-74"/>
<text text-anchor="middle" x="664" y="-62" font-family="Helvetica,sans-Serif" font-size="10.00">jsonrpc/core/types.hpp</text>
</a>
</g>
</g>
<!-- Node12&#45;&gt;Node14 -->
<g id="edge16_Node000012_Node000014" class="edge">
<title>Node12&#45;&gt;Node14</title>
<g id="a_edge16_Node000012_Node000014"><a xlink:title=" ">
<path fill="none" stroke="#63b8ff" d="M608.59,-115.37C618.58,-106.38 634.43,-92.11 646.63,-81.14"/>
<polygon fill="#63b8ff" stroke="#63b8ff" points="649.28,-83.46 654.37,-74.17 644.6,-78.26 649.28,-83.46"/>
</a>
</g>
</g>
<!-- Node14&#45;&gt;Node7 -->
<g id="edge18_Node000014_Node000007" class="edge">
<title>Node14&#45;&gt;Node7</title>
<g id="a_edge18_Node000014_Node000007"><a xlink:title=" ">
<path fill="none" stroke="#63b8ff" d="M639.1,-54.98C613.3,-46.16 572.78,-32.31 543.82,-22.41"/>
<polygon fill="#63b8ff" stroke="#63b8ff" points="544.69,-19.01 534.1,-19.08 542.43,-25.63 544.69,-19.01"/>
</a>
</g>
</g>
<!-- Node14&#45;&gt;Node13 -->
<g id="edge17_Node000014_Node000013" class="edge">
<title>Node14&#45;&gt;Node13</title>
<g id="a_edge17_Node000014_Node000013"><a xlink:title=" ">
<path fill="none" stroke="#63b8ff" d="M651.79,-54.98C640.22,-46.92 622.62,-34.65 608.84,-25.03"/>
<polygon fill="#63b8ff" stroke="#63b8ff" points="610.64,-22.02 600.43,-19.17 606.63,-27.76 610.64,-22.02"/>
</a>
</g>
</g>
<!-- Node15 -->
<g id="Node000015" class="node">
<title>Node15</title>
<g id="a_Node000015"><a xlink:title=" ">
<polygon fill="#e0e0e0" stroke="#999999" points="689.5,-19 638.5,-19 638.5,0 689.5,0 689.5,-19"/>
<text text-anchor="middle" x="664" y="-7" font-family="Helvetica,sans-Serif" font-size="10.00">variant</text>
</a>
</g>
</g>
<!-- Node14&#45;&gt;Node15 -->
<g id="edge19_Node000014_Node000015" class="edge">
<title>Node14&#45;&gt;Node15</title>
<g id="a_edge19_Node000014_Node000015"><a xlink:title=" ">
<path fill="none" stroke="#63b8ff" d="M664,-54.75C664,-47.8 664,-37.85 664,-29.13"/>
<polygon fill="#63b8ff" stroke="#63b8ff" points="667.5,-29.09 664,-19.09 660.5,-29.09 667.5,-29.09"/>
</a>
</g>
</g>
<!-- Node16 -->
<g id="Node000016" class="node">
<title>Node16</title>
<g id="a_Node000016"><a xlink:title=" ">
<polygon fill="#e0e0e0" stroke="#999999" points="818,-19 708,-19 708,0 818,0 818,-19"/>
<text text-anchor="middle" x="763" y="-7" font-family="Helvetica,sans-Serif" font-size="10.00">nlohmann/json.hpp</text>
</a>
</g>
</g>
<!-- Node14&#45;&gt;Node16 -->
<g id="edge20_Node000014_Node000016" class="edge">
<title>Node14&#45;&gt;Node16</title>
<g id="a_edge20_Node000014_Node000016"><a xlink:title=" ">
<path fill="none" stroke="#63b8ff" d="M679.91,-54.98C695.55,-46.61 719.66,-33.7 737.88,-23.95"/>
<polygon fill="#63b8ff" stroke="#63b8ff" points="739.64,-26.98 746.8,-19.17 736.34,-20.8 739.64,-26.98"/>
</a>
</g>
</g>
<!-- Node17&#45;&gt;Node8 -->
<g id="edge22_Node000017_Node000008" class="edge">
<title>Node17&#45;&gt;Node8</title>
<g id="a_edge22_Node000017_Node000008"><a xlink:title=" ">
<path fill="none" stroke="#63b8ff" d="M748.29,-109.84C751.8,-101.95 756.2,-92.05 759.95,-83.61"/>
<polygon fill="#63b8ff" stroke="#63b8ff" points="763.24,-84.83 764.1,-74.27 756.84,-81.98 763.24,-84.83"/>
</a>
</g>
</g>
<!-- Node17&#45;&gt;Node14 -->
<g id="edge23_Node000017_Node000014" class="edge">
<title>Node17&#45;&gt;Node14</title>
<g id="a_edge23_Node000017_Node000014"><a xlink:title=" ">
<path fill="none" stroke="#63b8ff" d="M723.12,-109.84C711.22,-100.91 695.88,-89.41 683.8,-80.35"/>
<polygon fill="#63b8ff" stroke="#63b8ff" points="685.79,-77.47 675.69,-74.27 681.59,-83.07 685.79,-77.47"/>
</a>
</g>
</g>
</g>
</svg>
