<?xml version="1.0" encoding="UTF-8" standalone="no"?>
<!DOCTYPE svg PUBLIC "-//W3C//DTD SVG 1.1//EN"
 "http://www.w3.org/Graphics/SVG/1.1/DTD/svg11.dtd">
<!-- Generated by graphviz version 2.43.0 (0)
 -->
<!-- Title: include/jsonrpc/core/client_transport.hpp Pages: 1 -->
<svg width="346pt" height="148pt"
 viewBox="0.00 0.00 345.50 148.00" xmlns="http://www.w3.org/2000/svg" xmlns:xlink="http://www.w3.org/1999/xlink">
<g id="graph0" class="graph" transform="scale(1 1) rotate(0) translate(4 144)">
<title>include/jsonrpc/core/client_transport.hpp</title>
<!-- Node1 -->
<g id="Node000001" class="node">
<title>Node1</title>
<g id="a_Node000001"><a xlink:title=" ">
<polygon fill="#999999" stroke="#666666" points="154,-140 37,-140 37,-110 154,-110 154,-140"/>
<text text-anchor="start" x="45" y="-128" font-family="Helvetica,sans-Serif" font-size="10.00">include/jsonrpc/core</text>
<text text-anchor="middle" x="95.5" y="-117" font-family="Helvetica,sans-Serif" font-size="10.00">/client_transport.hpp</text>
</a>
</g>
</g>
<!-- Node2 -->
<g id="Node000002" class="node">
<title>Node2</title>
<g id="a_Node000002"><a xlink:title=" ">
<polygon fill="#e0e0e0" stroke="#999999" points="65.5,-74 21.5,-74 21.5,-55 65.5,-55 65.5,-74"/>
<text text-anchor="middle" x="43.5" y="-62" font-family="Helvetica,sans-Serif" font-size="10.00">string</text>
</a>
</g>
</g>
<!-- Node1&#45;&gt;Node2 -->
<g id="edge1_Node000001_Node000002" class="edge">
<title>Node1&#45;&gt;Node2</title>
<g id="a_edge1_Node000001_Node000002"><a xlink:title=" ">
<path fill="none" stroke="#63b8ff" d="M82.91,-109.84C75.44,-101.43 65.94,-90.74 58.13,-81.96"/>
<polygon fill="#63b8ff" stroke="#63b8ff" points="60.55,-79.41 51.29,-74.27 55.32,-84.07 60.55,-79.41"/>
</a>
</g>
</g>
<!-- Node3 -->
<g id="Node000003" class="node">
<title>Node3</title>
<g id="a_Node000003"><a xlink:href="types_8hpp.html" target="_top" xlink:title=" ">
<polygon fill="white" stroke="#666666" points="211,-74 84,-74 84,-55 211,-55 211,-74"/>
<text text-anchor="middle" x="147.5" y="-62" font-family="Helvetica,sans-Serif" font-size="10.00">jsonrpc/core/types.hpp</text>
</a>
</g>
</g>
<!-- Node1&#45;&gt;Node3 -->
<g id="edge2_Node000001_Node000003" class="edge">
<title>Node1&#45;&gt;Node3</title>
<g id="a_edge2_Node000001_Node000003"><a xlink:title=" ">
<path fill="none" stroke="#63b8ff" d="M108.09,-109.84C115.56,-101.43 125.06,-90.74 132.87,-81.96"/>
<polygon fill="#63b8ff" stroke="#63b8ff" points="135.68,-84.07 139.71,-74.27 130.45,-79.41 135.68,-84.07"/>
</a>
</g>
</g>
<!-- Node4 -->
<g id="Node000004" class="node">
<title>Node4</title>
<g id="a_Node000004"><a xlink:title=" ">
<polygon fill="#e0e0e0" stroke="#999999" points="65,-19 0,-19 0,0 65,0 65,-19"/>
<text text-anchor="middle" x="32.5" y="-7" font-family="Helvetica,sans-Serif" font-size="10.00">functional</text>
</a>
</g>
</g>
<!-- Node3&#45;&gt;Node4 -->
<g id="edge3_Node000003_Node000004" class="edge">
<title>Node3&#45;&gt;Node4</title>
<g id="a_edge3_Node000003_Node000004"><a xlink:title=" ">
<path fill="none" stroke="#63b8ff" d="M129.02,-54.98C110.52,-46.46 81.82,-33.23 60.52,-23.41"/>
<polygon fill="#63b8ff" stroke="#63b8ff" points="61.86,-20.18 51.31,-19.17 58.93,-26.53 61.86,-20.18"/>
</a>
</g>
</g>
<!-- Node5 -->
<g id="Node000005" class="node">
<title>Node5</title>
<g id="a_Node000005"><a xlink:title=" ">
<polygon fill="#e0e0e0" stroke="#999999" points="139.5,-19 83.5,-19 83.5,0 139.5,0 139.5,-19"/>
<text text-anchor="middle" x="111.5" y="-7" font-family="Helvetica,sans-Serif" font-size="10.00">optional</text>
</a>
</g>
</g>
<!-- Node3&#45;&gt;Node5 -->
<g id="edge4_Node000003_Node000005" class="edge">
<title>Node3&#45;&gt;Node5</title>
<g id="a_edge4_Node000003_Node000005"><a xlink:title=" ">
<path fill="none" stroke="#63b8ff" d="M141.56,-54.75C136.52,-47.34 129.16,-36.5 122.99,-27.41"/>
<polygon fill="#63b8ff" stroke="#63b8ff" points="125.85,-25.39 117.33,-19.09 120.06,-29.33 125.85,-25.39"/>
</a>
</g>
</g>
<!-- Node6 -->
<g id="Node000006" class="node">
<title>Node6</title>
<g id="a_Node000006"><a xlink:title=" ">
<polygon fill="#e0e0e0" stroke="#999999" points="209,-19 158,-19 158,0 209,0 209,-19"/>
<text text-anchor="middle" x="183.5" y="-7" font-family="Helvetica,sans-Serif" font-size="10.00">variant</text>
</a>
</g>
</g>
<!-- Node3&#45;&gt;Node6 -->
<g id="edge5_Node000003_Node000006" class="edge">
<title>Node3&#45;&gt;Node6</title>
<g id="a_edge5_Node000003_Node000006"><a xlink:title=" ">
<path fill="none" stroke="#63b8ff" d="M153.44,-54.75C158.48,-47.34 165.84,-36.5 172.01,-27.41"/>
<polygon fill="#63b8ff" stroke="#63b8ff" points="174.94,-29.33 177.67,-19.09 169.15,-25.39 174.94,-29.33"/>
</a>
</g>
</g>
<!-- Node7 -->
<g id="Node000007" class="node">
<title>Node7</title>
<g id="a_Node000007"><a xlink:title=" ">
<polygon fill="#e0e0e0" stroke="#999999" points="337.5,-19 227.5,-19 227.5,0 337.5,0 337.5,-19"/>
<text text-anchor="middle" x="282.5" y="-7" font-family="Helvetica,sans-Serif" font-size="10.00">nlohmann/json.hpp</text>
</a>
</g>
</g>
<!-- Node3&#45;&gt;Node7 -->
<g id="edge6_Node000003_Node000007" class="edge">
<title>Node3&#45;&gt;Node7</title>
<g id="a_edge6_Node000003_Node000007"><a xlink:title=" ">
<path fill="none" stroke="#63b8ff" d="M169.19,-54.98C191.3,-46.3 225.82,-32.75 250.95,-22.88"/>
<polygon fill="#63b8ff" stroke="#63b8ff" points="252.39,-26.08 260.42,-19.17 249.83,-19.57 252.39,-26.08"/>
</a>
</g>
</g>
</g>
</svg>
