<?xml version="1.0" encoding="UTF-8" standalone="no"?>
<!DOCTYPE svg PUBLIC "-//W3C//DTD SVG 1.1//EN"
 "http://www.w3.org/Graphics/SVG/1.1/DTD/svg11.dtd">
<!-- Generated by graphviz version 2.43.0 (0)
 -->
<!-- Title: include/jsonrpc/core/client_transport.hpp Pages: 1 -->
<svg width="727pt" height="170pt"
 viewBox="0.00 0.00 726.50 170.00" xmlns="http://www.w3.org/2000/svg" xmlns:xlink="http://www.w3.org/1999/xlink">
<g id="graph0" class="graph" transform="scale(1 1) rotate(0) translate(4 166)">
<title>include/jsonrpc/core/client_transport.hpp</title>
<!-- Node1 -->
<g id="Node000001" class="node">
<title>Node1</title>
<g id="a_Node000001"><a xlink:title=" ">
<polygon fill="#999999" stroke="#666666" points="436.5,-162 319.5,-162 319.5,-132 436.5,-132 436.5,-162"/>
<text text-anchor="start" x="327.5" y="-150" font-family="Helvetica,sans-Serif" font-size="10.00">include/jsonrpc/core</text>
<text text-anchor="middle" x="378" y="-139" font-family="Helvetica,sans-Serif" font-size="10.00">/client_transport.hpp</text>
</a>
</g>
</g>
<!-- Node2 -->
<g id="Node000002" class="node">
<title>Node2</title>
<g id="a_Node000002"><a xlink:href="client_8hpp.html" target="_top" xlink:title=" ">
<polygon fill="white" stroke="#666666" points="690,-96 570,-96 570,-66 690,-66 690,-96"/>
<text text-anchor="start" x="578" y="-84" font-family="Helvetica,sans-Serif" font-size="10.00">include/jsonrpc/client</text>
<text text-anchor="middle" x="630" y="-73" font-family="Helvetica,sans-Serif" font-size="10.00">/client.hpp</text>
</a>
</g>
</g>
<!-- Node1&#45;&gt;Node2 -->
<g id="edge1_Node000001_Node000002" class="edge">
<title>Node1&#45;&gt;Node2</title>
<g id="a_edge1_Node000001_Node000002"><a xlink:title=" ">
<path fill="none" stroke="#63b8ff" d="M443.16,-129.45C483.99,-119.08 536.04,-105.86 574.83,-96.01"/>
<polygon fill="#63b8ff" stroke="#63b8ff" points="442.13,-126.1 433.3,-131.95 443.86,-132.89 442.13,-126.1"/>
</a>
</g>
</g>
<!-- Node3 -->
<g id="Node000003" class="node">
<title>Node3</title>
<g id="a_Node000003"><a xlink:href="jsonrpc_8hpp.html" target="_top" xlink:title=" ">
<polygon fill="white" stroke="#666666" points="452.5,-24.5 303.5,-24.5 303.5,-5.5 452.5,-5.5 452.5,-24.5"/>
<text text-anchor="middle" x="378" y="-12.5" font-family="Helvetica,sans-Serif" font-size="10.00">include/jsonrpc/jsonrpc.hpp</text>
</a>
</g>
</g>
<!-- Node1&#45;&gt;Node3 -->
<g id="edge4_Node000001_Node000003" class="edge">
<title>Node1&#45;&gt;Node3</title>
<g id="a_edge4_Node000001_Node000003"><a xlink:title=" ">
<path fill="none" stroke="#63b8ff" d="M378,-121.57C378,-92.17 378,-44.31 378,-24.75"/>
<polygon fill="#63b8ff" stroke="#63b8ff" points="374.5,-121.84 378,-131.84 381.5,-121.84 374.5,-121.84"/>
</a>
</g>
</g>
<!-- Node5 -->
<g id="Node000005" class="node">
<title>Node5</title>
<g id="a_Node000005"><a xlink:href="framed__stdio__client__transport_8hpp.html" target="_top" xlink:title=" ">
<polygon fill="white" stroke="#666666" points="188.5,-96 1.5,-96 1.5,-66 188.5,-66 188.5,-96"/>
<text text-anchor="start" x="9.5" y="-84" font-family="Helvetica,sans-Serif" font-size="10.00">include/jsonrpc/transports</text>
<text text-anchor="middle" x="95" y="-73" font-family="Helvetica,sans-Serif" font-size="10.00">/framed_stdio_client_transport.hpp</text>
</a>
</g>
</g>
<!-- Node1&#45;&gt;Node5 -->
<g id="edge5_Node000001_Node000005" class="edge">
<title>Node1&#45;&gt;Node5</title>
<g id="a_edge5_Node000001_Node000005"><a xlink:title=" ">
<path fill="none" stroke="#63b8ff" d="M309.38,-130.48C262.9,-119.97 202,-106.2 156.99,-96.02"/>
<polygon fill="#63b8ff" stroke="#63b8ff" points="308.84,-133.95 319.36,-132.74 310.38,-127.12 308.84,-133.95"/>
</a>
</g>
</g>
<!-- Node7 -->
<g id="Node000007" class="node">
<title>Node7</title>
<g id="a_Node000007"><a xlink:href="http__client__transport_8hpp.html" target="_top" xlink:title=" ">
<polygon fill="white" stroke="#666666" points="349.5,-96 206.5,-96 206.5,-66 349.5,-66 349.5,-96"/>
<text text-anchor="start" x="214.5" y="-84" font-family="Helvetica,sans-Serif" font-size="10.00">include/jsonrpc/transports</text>
<text text-anchor="middle" x="278" y="-73" font-family="Helvetica,sans-Serif" font-size="10.00">/http_client_transport.hpp</text>
</a>
</g>
</g>
<!-- Node1&#45;&gt;Node7 -->
<g id="edge8_Node000001_Node000007" class="edge">
<title>Node1&#45;&gt;Node7</title>
<g id="a_edge8_Node000001_Node000007"><a xlink:title=" ">
<path fill="none" stroke="#63b8ff" d="M347.22,-126.3C332,-116.56 313.97,-105.02 300.13,-96.16"/>
<polygon fill="#63b8ff" stroke="#63b8ff" points="345.5,-129.35 355.81,-131.8 349.27,-123.46 345.5,-129.35"/>
</a>
</g>
</g>
<!-- Node9 -->
<g id="Node000009" class="node">
<title>Node9</title>
<g id="a_Node000009"><a xlink:href="stdio__client__transport_8hpp.html" target="_top" xlink:title=" ">
<polygon fill="white" stroke="#666666" points="552,-96 406,-96 406,-66 552,-66 552,-96"/>
<text text-anchor="start" x="414" y="-84" font-family="Helvetica,sans-Serif" font-size="10.00">include/jsonrpc/transports</text>
<text text-anchor="middle" x="479" y="-73" font-family="Helvetica,sans-Serif" font-size="10.00">/stdio_client_transport.hpp</text>
</a>
</g>
</g>
<!-- Node1&#45;&gt;Node9 -->
<g id="edge11_Node000001_Node000009" class="edge">
<title>Node1&#45;&gt;Node9</title>
<g id="a_edge11_Node000001_Node000009"><a xlink:title=" ">
<path fill="none" stroke="#63b8ff" d="M409.09,-126.3C424.46,-116.56 442.67,-105.02 456.65,-96.16"/>
<polygon fill="#63b8ff" stroke="#63b8ff" points="406.99,-123.49 400.42,-131.8 410.74,-129.4 406.99,-123.49"/>
</a>
</g>
</g>
<!-- Node2&#45;&gt;Node3 -->
<g id="edge2_Node000002_Node000003" class="edge">
<title>Node2&#45;&gt;Node3</title>
<g id="a_edge2_Node000002_Node000003"><a xlink:title=" ">
<path fill="none" stroke="#63b8ff" d="M564.8,-63.44C515.74,-50.98 450.51,-34.42 411.54,-24.52"/>
<polygon fill="#63b8ff" stroke="#63b8ff" points="564.14,-66.89 574.7,-65.95 565.87,-60.1 564.14,-66.89"/>
</a>
</g>
</g>
<!-- Node4 -->
<g id="Node000004" class="node">
<title>Node4</title>
<g id="a_Node000004"><a xlink:href="client_8cpp.html" target="_top" xlink:title=" ">
<polygon fill="white" stroke="#666666" points="718.5,-24.5 607.5,-24.5 607.5,-5.5 718.5,-5.5 718.5,-24.5"/>
<text text-anchor="middle" x="663" y="-12.5" font-family="Helvetica,sans-Serif" font-size="10.00">src/client/client.cpp</text>
</a>
</g>
</g>
<!-- Node2&#45;&gt;Node4 -->
<g id="edge3_Node000002_Node000004" class="edge">
<title>Node2&#45;&gt;Node4</title>
<g id="a_edge3_Node000002_Node000004"><a xlink:title=" ">
<path fill="none" stroke="#63b8ff" d="M642.06,-56.61C647.76,-45.56 654.22,-33.03 658.44,-24.84"/>
<polygon fill="#63b8ff" stroke="#63b8ff" points="638.8,-55.3 637.32,-65.8 645.02,-58.51 638.8,-55.3"/>
</a>
</g>
</g>
<!-- Node5&#45;&gt;Node3 -->
<g id="edge6_Node000005_Node000003" class="edge">
<title>Node5&#45;&gt;Node3</title>
<g id="a_edge6_Node000005_Node000003"><a xlink:title=" ">
<path fill="none" stroke="#63b8ff" d="M167.18,-63.68C222.39,-51.19 296.29,-34.48 340.34,-24.52"/>
<polygon fill="#63b8ff" stroke="#63b8ff" points="166.09,-60.34 157.11,-65.95 167.63,-67.16 166.09,-60.34"/>
</a>
</g>
</g>
<!-- Node6 -->
<g id="Node000006" class="node">
<title>Node6</title>
<g id="a_Node000006"><a xlink:href="framed__stdio__client__transport_8cpp.html" target="_top" xlink:title=" ">
<polygon fill="white" stroke="#666666" points="148,-30 0,-30 0,0 148,0 148,-30"/>
<text text-anchor="start" x="8" y="-18" font-family="Helvetica,sans-Serif" font-size="10.00">src/transports/framed</text>
<text text-anchor="middle" x="74" y="-7" font-family="Helvetica,sans-Serif" font-size="10.00">_stdio_client_transport.cpp</text>
</a>
</g>
</g>
<!-- Node5&#45;&gt;Node6 -->
<g id="edge7_Node000005_Node000006" class="edge">
<title>Node5&#45;&gt;Node6</title>
<g id="a_edge7_Node000005_Node000006"><a xlink:title=" ">
<path fill="none" stroke="#63b8ff" d="M87.16,-56.11C84.3,-47.38 81.15,-37.78 78.65,-30.16"/>
<polygon fill="#63b8ff" stroke="#63b8ff" points="83.9,-57.39 90.34,-65.8 90.55,-55.2 83.9,-57.39"/>
</a>
</g>
</g>
<!-- Node7&#45;&gt;Node3 -->
<g id="edge9_Node000007_Node000003" class="edge">
<title>Node7&#45;&gt;Node3</title>
<g id="a_edge9_Node000007_Node000003"><a xlink:title=" ">
<path fill="none" stroke="#63b8ff" d="M308.69,-60.36C327.34,-48.42 350.23,-33.77 364.47,-24.66"/>
<polygon fill="#63b8ff" stroke="#63b8ff" points="306.73,-57.46 300.19,-65.8 310.5,-63.35 306.73,-57.46"/>
</a>
</g>
</g>
<!-- Node8 -->
<g id="Node000008" class="node">
<title>Node8</title>
<g id="a_Node000008"><a xlink:href="http__client__transport_8cpp.html" target="_top" xlink:title=" ">
<polygon fill="white" stroke="#666666" points="285.5,-30 166.5,-30 166.5,0 285.5,0 285.5,-30"/>
<text text-anchor="start" x="174.5" y="-18" font-family="Helvetica,sans-Serif" font-size="10.00">src/transports/http</text>
<text text-anchor="middle" x="226" y="-7" font-family="Helvetica,sans-Serif" font-size="10.00">_client_transport.cpp</text>
</a>
</g>
</g>
<!-- Node7&#45;&gt;Node8 -->
<g id="edge10_Node000007_Node000008" class="edge">
<title>Node7&#45;&gt;Node8</title>
<g id="a_edge10_Node000007_Node000008"><a xlink:title=" ">
<path fill="none" stroke="#63b8ff" d="M259.97,-57.81C252.52,-48.64 244.1,-38.28 237.51,-30.16"/>
<polygon fill="#63b8ff" stroke="#63b8ff" points="257.44,-60.24 266.46,-65.8 262.87,-55.83 257.44,-60.24"/>
</a>
</g>
</g>
<!-- Node9&#45;&gt;Node3 -->
<g id="edge12_Node000009_Node000003" class="edge">
<title>Node9&#45;&gt;Node3</title>
<g id="a_edge12_Node000009_Node000003"><a xlink:title=" ">
<path fill="none" stroke="#63b8ff" d="M448.01,-60.36C429.17,-48.42 406.05,-33.77 391.66,-24.66"/>
<polygon fill="#63b8ff" stroke="#63b8ff" points="446.26,-63.4 456.58,-65.8 450.01,-57.49 446.26,-63.4"/>
</a>
</g>
</g>
<!-- Node10 -->
<g id="Node000010" class="node">
<title>Node10</title>
<g id="a_Node000010"><a xlink:href="stdio__client__transport_8cpp.html" target="_top" xlink:title=" ">
<polygon fill="white" stroke="#666666" points="589.5,-30 470.5,-30 470.5,0 589.5,0 589.5,-30"/>
<text text-anchor="start" x="478.5" y="-18" font-family="Helvetica,sans-Serif" font-size="10.00">src/transports/stdio</text>
<text text-anchor="middle" x="530" y="-7" font-family="Helvetica,sans-Serif" font-size="10.00">_client_transport.cpp</text>
</a>
</g>
</g>
<!-- Node9&#45;&gt;Node10 -->
<g id="edge13_Node000009_Node000010" class="edge">
<title>Node9&#45;&gt;Node10</title>
<g id="a_edge13_Node000009_Node000010"><a xlink:title=" ">
<path fill="none" stroke="#63b8ff" d="M496.68,-57.81C503.99,-48.64 512.25,-38.28 518.71,-30.16"/>
<polygon fill="#63b8ff" stroke="#63b8ff" points="493.81,-55.79 490.32,-65.8 499.29,-60.16 493.81,-55.79"/>
</a>
</g>
</g>
</g>
</svg>
