<?xml version="1.0" encoding="UTF-8" standalone="no"?>
<!DOCTYPE svg PUBLIC "-//W3C//DTD SVG 1.1//EN"
 "http://www.w3.org/Graphics/SVG/1.1/DTD/svg11.dtd">
<!-- Generated by graphviz version 2.43.0 (0)
 -->
<!-- Title: src/client/client.cpp Pages: 1 -->
<svg width="1014pt" height="192pt"
 viewBox="0.00 0.00 1014.00 192.00" xmlns="http://www.w3.org/2000/svg" xmlns:xlink="http://www.w3.org/1999/xlink">
<g id="graph0" class="graph" transform="scale(1 1) rotate(0) translate(4 188)">
<title>src/client/client.cpp</title>
<!-- Node1 -->
<g id="Node000001" class="node">
<title>Node1</title>
<g id="a_Node000001"><a xlink:title=" ">
<polygon fill="#999999" stroke="#666666" points="515.5,-184 404.5,-184 404.5,-165 515.5,-165 515.5,-184"/>
<text text-anchor="middle" x="460" y="-172" font-family="Helvetica,sans-Serif" font-size="10.00">src/client/client.cpp</text>
</a>
</g>
</g>
<!-- Node2 -->
<g id="Node000002" class="node">
<title>Node2</title>
<g id="a_Node000002"><a xlink:href="client_8hpp.html" target="_top" xlink:title=" ">
<polygon fill="white" stroke="#666666" points="461.5,-129 328.5,-129 328.5,-110 461.5,-110 461.5,-129"/>
<text text-anchor="middle" x="395" y="-117" font-family="Helvetica,sans-Serif" font-size="10.00">jsonrpc/client/client.hpp</text>
</a>
</g>
</g>
<!-- Node1&#45;&gt;Node2 -->
<g id="edge1_Node000001_Node000002" class="edge">
<title>Node1&#45;&gt;Node2</title>
<g id="a_edge1_Node000001_Node000002"><a xlink:title=" ">
<path fill="none" stroke="#63b8ff" d="M449.56,-164.98C439.85,-157.07 425.18,-145.11 413.5,-135.58"/>
<polygon fill="#63b8ff" stroke="#63b8ff" points="415.6,-132.78 405.63,-129.17 411.17,-138.2 415.6,-132.78"/>
</a>
</g>
</g>
<!-- Node16 -->
<g id="Node000016" class="node">
<title>Node16</title>
<g id="a_Node000016"><a xlink:title=" ">
<polygon fill="#e0e0e0" stroke="#999999" points="572.5,-129 479.5,-129 479.5,-110 572.5,-110 572.5,-129"/>
<text text-anchor="middle" x="526" y="-117" font-family="Helvetica,sans-Serif" font-size="10.00">spdlog/spdlog.h</text>
</a>
</g>
</g>
<!-- Node1&#45;&gt;Node16 -->
<g id="edge18_Node000001_Node000016" class="edge">
<title>Node1&#45;&gt;Node16</title>
<g id="a_edge18_Node000001_Node000016"><a xlink:title=" ">
<path fill="none" stroke="#63b8ff" d="M470.6,-164.98C480.46,-157.07 495.35,-145.11 507.22,-135.58"/>
<polygon fill="#63b8ff" stroke="#63b8ff" points="509.6,-138.16 515.2,-129.17 505.21,-132.7 509.6,-138.16"/>
</a>
</g>
</g>
<!-- Node3 -->
<g id="Node000003" class="node">
<title>Node3</title>
<g id="a_Node000003"><a xlink:title=" ">
<polygon fill="#e0e0e0" stroke="#999999" points="50,-74 0,-74 0,-55 50,-55 50,-74"/>
<text text-anchor="middle" x="25" y="-62" font-family="Helvetica,sans-Serif" font-size="10.00">atomic</text>
</a>
</g>
</g>
<!-- Node2&#45;&gt;Node3 -->
<g id="edge2_Node000002_Node000003" class="edge">
<title>Node2&#45;&gt;Node3</title>
<g id="a_edge2_Node000002_Node000003"><a xlink:title=" ">
<path fill="none" stroke="#63b8ff" d="M328.34,-111.92C262.48,-104.92 158.72,-92.51 60.02,-74"/>
<polygon fill="#63b8ff" stroke="#63b8ff" points="60.66,-70.56 50.18,-72.13 59.35,-77.44 60.66,-70.56"/>
</a>
</g>
</g>
<!-- Node4 -->
<g id="Node000004" class="node">
<title>Node4</title>
<g id="a_Node000004"><a xlink:title=" ">
<polygon fill="#e0e0e0" stroke="#999999" points="114,-74 68,-74 68,-55 114,-55 114,-74"/>
<text text-anchor="middle" x="91" y="-62" font-family="Helvetica,sans-Serif" font-size="10.00">future</text>
</a>
</g>
</g>
<!-- Node2&#45;&gt;Node4 -->
<g id="edge3_Node000002_Node000004" class="edge">
<title>Node2&#45;&gt;Node4</title>
<g id="a_edge3_Node000002_Node000004"><a xlink:title=" ">
<path fill="none" stroke="#63b8ff" d="M332.01,-109.97C278.95,-102.38 200.85,-90.27 123.88,-74.01"/>
<polygon fill="#63b8ff" stroke="#63b8ff" points="124.52,-70.57 114.01,-71.9 123.05,-77.41 124.52,-70.57"/>
</a>
</g>
</g>
<!-- Node5 -->
<g id="Node000005" class="node">
<title>Node5</title>
<g id="a_Node000005"><a xlink:title=" ">
<polygon fill="#e0e0e0" stroke="#999999" points="190,-74 132,-74 132,-55 190,-55 190,-74"/>
<text text-anchor="middle" x="161" y="-62" font-family="Helvetica,sans-Serif" font-size="10.00">memory</text>
</a>
</g>
</g>
<!-- Node2&#45;&gt;Node5 -->
<g id="edge4_Node000002_Node000005" class="edge">
<title>Node2&#45;&gt;Node5</title>
<g id="a_edge4_Node000002_Node000005"><a xlink:title=" ">
<path fill="none" stroke="#63b8ff" d="M357.4,-109.98C314.23,-100.21 243.73,-84.24 199.98,-74.33"/>
<polygon fill="#63b8ff" stroke="#63b8ff" points="200.53,-70.86 190,-72.07 198.98,-77.69 200.53,-70.86"/>
</a>
</g>
</g>
<!-- Node6 -->
<g id="Node000006" class="node">
<title>Node6</title>
<g id="a_Node000006"><a xlink:title=" ">
<polygon fill="#e0e0e0" stroke="#999999" points="256,-74 208,-74 208,-55 256,-55 256,-74"/>
<text text-anchor="middle" x="232" y="-62" font-family="Helvetica,sans-Serif" font-size="10.00">mutex</text>
</a>
</g>
</g>
<!-- Node2&#45;&gt;Node6 -->
<g id="edge5_Node000002_Node000006" class="edge">
<title>Node2&#45;&gt;Node6</title>
<g id="a_edge5_Node000002_Node000006"><a xlink:title=" ">
<path fill="none" stroke="#63b8ff" d="M368.81,-109.98C340.92,-100.91 296.66,-86.52 266.07,-76.58"/>
<polygon fill="#63b8ff" stroke="#63b8ff" points="266.85,-73.15 256.26,-73.39 264.69,-79.81 266.85,-73.15"/>
</a>
</g>
</g>
<!-- Node7 -->
<g id="Node000007" class="node">
<title>Node7</title>
<g id="a_Node000007"><a xlink:title=" ">
<polygon fill="#e0e0e0" stroke="#999999" points="389,-19 333,-19 333,0 389,0 389,-19"/>
<text text-anchor="middle" x="361" y="-7" font-family="Helvetica,sans-Serif" font-size="10.00">optional</text>
</a>
</g>
</g>
<!-- Node2&#45;&gt;Node7 -->
<g id="edge6_Node000002_Node000007" class="edge">
<title>Node2&#45;&gt;Node7</title>
<g id="a_edge6_Node000002_Node000007"><a xlink:title=" ">
<path fill="none" stroke="#63b8ff" d="M355.69,-109.92C336.29,-103.48 314.59,-92.49 303,-74 290.98,-54.83 313.52,-36.1 333.92,-24.01"/>
<polygon fill="#63b8ff" stroke="#63b8ff" points="335.69,-27.03 342.71,-19.1 332.27,-20.92 335.69,-27.03"/>
</a>
</g>
</g>
<!-- Node8 -->
<g id="Node000008" class="node">
<title>Node8</title>
<g id="a_Node000008"><a xlink:title=" ">
<polygon fill="#e0e0e0" stroke="#999999" points="528,-19 484,-19 484,0 528,0 528,-19"/>
<text text-anchor="middle" x="506" y="-7" font-family="Helvetica,sans-Serif" font-size="10.00">string</text>
</a>
</g>
</g>
<!-- Node2&#45;&gt;Node8 -->
<g id="edge7_Node000002_Node000008" class="edge">
<title>Node2&#45;&gt;Node8</title>
<g id="a_edge7_Node000002_Node000008"><a xlink:title=" ">
<path fill="none" stroke="#63b8ff" d="M427.71,-109.99C447.46,-103.27 471.7,-91.96 487,-74 497.61,-61.54 502.29,-43.34 504.36,-29.61"/>
<polygon fill="#63b8ff" stroke="#63b8ff" points="507.88,-29.69 505.56,-19.35 500.92,-28.88 507.88,-29.69"/>
</a>
</g>
</g>
<!-- Node9 -->
<g id="Node000009" class="node">
<title>Node9</title>
<g id="a_Node000009"><a xlink:title=" ">
<polygon fill="#e0e0e0" stroke="#999999" points="744,-74 696,-74 696,-55 744,-55 744,-74"/>
<text text-anchor="middle" x="720" y="-62" font-family="Helvetica,sans-Serif" font-size="10.00">thread</text>
</a>
</g>
</g>
<!-- Node2&#45;&gt;Node9 -->
<g id="edge8_Node000002_Node000009" class="edge">
<title>Node2&#45;&gt;Node9</title>
<g id="a_edge8_Node000002_Node000009"><a xlink:title=" ">
<path fill="none" stroke="#63b8ff" d="M461.73,-110.28C518.87,-102.8 603.51,-90.66 686.11,-74"/>
<polygon fill="#63b8ff" stroke="#63b8ff" points="686.82,-77.43 695.91,-72 685.42,-70.57 686.82,-77.43"/>
</a>
</g>
</g>
<!-- Node10 -->
<g id="Node000010" class="node">
<title>Node10</title>
<g id="a_Node000010"><a xlink:title=" ">
<polygon fill="#e0e0e0" stroke="#999999" points="855.5,-74 762.5,-74 762.5,-55 855.5,-55 855.5,-74"/>
<text text-anchor="middle" x="809" y="-62" font-family="Helvetica,sans-Serif" font-size="10.00">unordered_map</text>
</a>
</g>
</g>
<!-- Node2&#45;&gt;Node10 -->
<g id="edge9_Node000002_Node000010" class="edge">
<title>Node2&#45;&gt;Node10</title>
<g id="a_edge9_Node000002_Node000010"><a xlink:title=" ">
<path fill="none" stroke="#63b8ff" d="M461.71,-110.75C531.49,-102.53 644.46,-88.86 752.19,-74.08"/>
<polygon fill="#63b8ff" stroke="#63b8ff" points="752.83,-77.52 762.26,-72.69 751.88,-70.59 752.83,-77.52"/>
</a>
</g>
</g>
<!-- Node11 -->
<g id="Node000011" class="node">
<title>Node11</title>
<g id="a_Node000011"><a xlink:title=" ">
<polygon fill="#e0e0e0" stroke="#999999" points="1006,-74 874,-74 874,-55 1006,-55 1006,-74"/>
<text text-anchor="middle" x="940" y="-62" font-family="Helvetica,sans-Serif" font-size="10.00">nlohmann/json_fwd.hpp</text>
</a>
</g>
</g>
<!-- Node2&#45;&gt;Node11 -->
<g id="edge10_Node000002_Node000011" class="edge">
<title>Node2&#45;&gt;Node11</title>
<g id="a_edge10_Node000002_Node000011"><a xlink:title=" ">
<path fill="none" stroke="#63b8ff" d="M461.72,-110.96C464.86,-110.63 467.96,-110.31 471,-110 642.69,-92.56 688.39,-91.92 863.67,-74.12"/>
<polygon fill="#63b8ff" stroke="#63b8ff" points="864.16,-77.58 873.76,-73.09 863.45,-70.62 864.16,-77.58"/>
</a>
</g>
</g>
<!-- Node12 -->
<g id="Node000012" class="node">
<title>Node12</title>
<g id="a_Node000012"><a xlink:href="client_2request_8hpp.html" target="_top" xlink:title=" ">
<polygon fill="white" stroke="#666666" points="677.5,-74 534.5,-74 534.5,-55 677.5,-55 677.5,-74"/>
<text text-anchor="middle" x="606" y="-62" font-family="Helvetica,sans-Serif" font-size="10.00">jsonrpc/client/request.hpp</text>
</a>
</g>
</g>
<!-- Node2&#45;&gt;Node12 -->
<g id="edge11_Node000002_Node000012" class="edge">
<title>Node2&#45;&gt;Node12</title>
<g id="a_edge11_Node000002_Node000012"><a xlink:title=" ">
<path fill="none" stroke="#63b8ff" d="M428.9,-109.98C465.02,-100.91 522.32,-86.52 561.92,-76.57"/>
<polygon fill="#63b8ff" stroke="#63b8ff" points="562.99,-79.91 571.83,-74.08 561.28,-73.12 562.99,-79.91"/>
</a>
</g>
</g>
<!-- Node15 -->
<g id="Node000015" class="node">
<title>Node15</title>
<g id="a_Node000015"><a xlink:href="transport_8hpp.html" target="_top" xlink:title=" ">
<polygon fill="white" stroke="#666666" points="478.5,-74 311.5,-74 311.5,-55 478.5,-55 478.5,-74"/>
<text text-anchor="middle" x="395" y="-62" font-family="Helvetica,sans-Serif" font-size="10.00">jsonrpc/transport/transport.hpp</text>
</a>
</g>
</g>
<!-- Node2&#45;&gt;Node15 -->
<g id="edge16_Node000002_Node000015" class="edge">
<title>Node2&#45;&gt;Node15</title>
<g id="a_edge16_Node000002_Node000015"><a xlink:title=" ">
<path fill="none" stroke="#63b8ff" d="M395,-109.75C395,-102.8 395,-92.85 395,-84.13"/>
<polygon fill="#63b8ff" stroke="#63b8ff" points="398.5,-84.09 395,-74.09 391.5,-84.09 398.5,-84.09"/>
</a>
</g>
</g>
<!-- Node12&#45;&gt;Node7 -->
<g id="edge13_Node000012_Node000007" class="edge">
<title>Node12&#45;&gt;Node7</title>
<g id="a_edge13_Node000012_Node000007"><a xlink:title=" ">
<path fill="none" stroke="#63b8ff" d="M566.64,-54.98C520.48,-45 444.52,-28.57 398.98,-18.72"/>
<polygon fill="#63b8ff" stroke="#63b8ff" points="399.71,-15.29 389.19,-16.6 398.23,-22.13 399.71,-15.29"/>
</a>
</g>
</g>
<!-- Node12&#45;&gt;Node8 -->
<g id="edge14_Node000012_Node000008" class="edge">
<title>Node12&#45;&gt;Node8</title>
<g id="a_edge14_Node000012_Node000008"><a xlink:title=" ">
<path fill="none" stroke="#63b8ff" d="M589.93,-54.98C574.14,-46.61 549.78,-33.7 531.37,-23.95"/>
<polygon fill="#63b8ff" stroke="#63b8ff" points="532.83,-20.76 522.36,-19.17 529.56,-26.95 532.83,-20.76"/>
</a>
</g>
</g>
<!-- Node13 -->
<g id="Node000013" class="node">
<title>Node13</title>
<g id="a_Node000013"><a xlink:title=" ">
<polygon fill="#e0e0e0" stroke="#999999" points="624.5,-19 559.5,-19 559.5,0 624.5,0 624.5,-19"/>
<text text-anchor="middle" x="592" y="-7" font-family="Helvetica,sans-Serif" font-size="10.00">functional</text>
</a>
</g>
</g>
<!-- Node12&#45;&gt;Node13 -->
<g id="edge12_Node000012_Node000013" class="edge">
<title>Node12&#45;&gt;Node13</title>
<g id="a_edge12_Node000012_Node000013"><a xlink:title=" ">
<path fill="none" stroke="#63b8ff" d="M603.69,-54.75C601.83,-47.72 599.16,-37.62 596.85,-28.84"/>
<polygon fill="#63b8ff" stroke="#63b8ff" points="600.21,-27.86 594.27,-19.09 593.44,-29.65 600.21,-27.86"/>
</a>
</g>
</g>
<!-- Node14 -->
<g id="Node000014" class="node">
<title>Node14</title>
<g id="a_Node000014"><a xlink:title=" ">
<polygon fill="#e0e0e0" stroke="#999999" points="753,-19 643,-19 643,0 753,0 753,-19"/>
<text text-anchor="middle" x="698" y="-7" font-family="Helvetica,sans-Serif" font-size="10.00">nlohmann/json.hpp</text>
</a>
</g>
</g>
<!-- Node12&#45;&gt;Node14 -->
<g id="edge15_Node000012_Node000014" class="edge">
<title>Node12&#45;&gt;Node14</title>
<g id="a_edge15_Node000012_Node000014"><a xlink:title=" ">
<path fill="none" stroke="#63b8ff" d="M620.78,-54.98C635.18,-46.69 657.31,-33.94 674.19,-24.22"/>
<polygon fill="#63b8ff" stroke="#63b8ff" points="676.03,-27.19 682.95,-19.17 672.54,-21.13 676.03,-27.19"/>
</a>
</g>
</g>
<!-- Node15&#45;&gt;Node8 -->
<g id="edge17_Node000015_Node000008" class="edge">
<title>Node15&#45;&gt;Node8</title>
<g id="a_edge17_Node000015_Node000008"><a xlink:title=" ">
<path fill="none" stroke="#63b8ff" d="M412.83,-54.98C430.61,-46.5 458.15,-33.35 478.68,-23.54"/>
<polygon fill="#63b8ff" stroke="#63b8ff" points="480.33,-26.64 487.84,-19.17 477.31,-20.32 480.33,-26.64"/>
</a>
</g>
</g>
</g>
</svg>
