<?xml version="1.0" encoding="UTF-8" standalone="no"?>
<!DOCTYPE svg PUBLIC "-//W3C//DTD SVG 1.1//EN"
 "http://www.w3.org/Graphics/SVG/1.1/DTD/svg11.dtd">
<!-- Generated by graphviz version 2.43.0 (0)
 -->
<!-- Title: include/jsonrpc/client/client.hpp Pages: 1 -->
<svg width="908pt" height="159pt"
 viewBox="0.00 0.00 907.50 159.00" xmlns="http://www.w3.org/2000/svg" xmlns:xlink="http://www.w3.org/1999/xlink">
<g id="graph0" class="graph" transform="scale(1 1) rotate(0) translate(4 155)">
<title>include/jsonrpc/client/client.hpp</title>
<!-- Node1 -->
<g id="Node000001" class="node">
<title>Node1</title>
<g id="a_Node000001"><a xlink:title=" ">
<polygon fill="#999999" stroke="#666666" points="429,-151 309,-151 309,-121 429,-121 429,-151"/>
<text text-anchor="start" x="317" y="-139" font-family="Helvetica,sans-Serif" font-size="10.00">include/jsonrpc/client</text>
<text text-anchor="middle" x="369" y="-128" font-family="Helvetica,sans-Serif" font-size="10.00">/client.hpp</text>
</a>
</g>
</g>
<!-- Node2 -->
<g id="Node000002" class="node">
<title>Node2</title>
<g id="a_Node000002"><a xlink:title=" ">
<polygon fill="#e0e0e0" stroke="#999999" points="50,-79.5 0,-79.5 0,-60.5 50,-60.5 50,-79.5"/>
<text text-anchor="middle" x="25" y="-67.5" font-family="Helvetica,sans-Serif" font-size="10.00">atomic</text>
</a>
</g>
</g>
<!-- Node1&#45;&gt;Node2 -->
<g id="edge1_Node000001_Node000002" class="edge">
<title>Node1&#45;&gt;Node2</title>
<g id="a_edge1_Node000001_Node000002"><a xlink:title=" ">
<path fill="none" stroke="#63b8ff" d="M308.97,-129.47C245.87,-122.69 144.12,-109.04 59,-85 57.11,-84.47 55.19,-83.86 53.26,-83.2"/>
<polygon fill="#63b8ff" stroke="#63b8ff" points="54.38,-79.89 43.79,-79.64 51.91,-86.44 54.38,-79.89"/>
</a>
</g>
</g>
<!-- Node3 -->
<g id="Node000003" class="node">
<title>Node3</title>
<g id="a_Node000003"><a xlink:title=" ">
<polygon fill="#e0e0e0" stroke="#999999" points="114,-79.5 68,-79.5 68,-60.5 114,-60.5 114,-79.5"/>
<text text-anchor="middle" x="91" y="-67.5" font-family="Helvetica,sans-Serif" font-size="10.00">future</text>
</a>
</g>
</g>
<!-- Node1&#45;&gt;Node3 -->
<g id="edge2_Node000001_Node000003" class="edge">
<title>Node1&#45;&gt;Node3</title>
<g id="a_edge2_Node000001_Node000003"><a xlink:title=" ">
<path fill="none" stroke="#63b8ff" d="M308.95,-126.45C258.58,-118.41 185.12,-104.66 123,-85 121.37,-84.48 119.71,-83.91 118.05,-83.3"/>
<polygon fill="#63b8ff" stroke="#63b8ff" points="119.27,-80.02 108.68,-79.53 116.65,-86.51 119.27,-80.02"/>
</a>
</g>
</g>
<!-- Node4 -->
<g id="Node000004" class="node">
<title>Node4</title>
<g id="a_Node000004"><a xlink:title=" ">
<polygon fill="#e0e0e0" stroke="#999999" points="190,-79.5 132,-79.5 132,-60.5 190,-60.5 190,-79.5"/>
<text text-anchor="middle" x="161" y="-67.5" font-family="Helvetica,sans-Serif" font-size="10.00">memory</text>
</a>
</g>
</g>
<!-- Node1&#45;&gt;Node4 -->
<g id="edge3_Node000001_Node000004" class="edge">
<title>Node1&#45;&gt;Node4</title>
<g id="a_edge3_Node000001_Node000004"><a xlink:title=" ">
<path fill="none" stroke="#63b8ff" d="M317.77,-120.9C283.88,-111.33 238.58,-98.09 199,-85 197.1,-84.37 195.15,-83.71 193.18,-83.03"/>
<polygon fill="#63b8ff" stroke="#63b8ff" points="194.01,-79.61 183.42,-79.54 191.66,-86.2 194.01,-79.61"/>
</a>
</g>
</g>
<!-- Node5 -->
<g id="Node000005" class="node">
<title>Node5</title>
<g id="a_Node000005"><a xlink:title=" ">
<polygon fill="#e0e0e0" stroke="#999999" points="256,-79.5 208,-79.5 208,-60.5 256,-60.5 256,-79.5"/>
<text text-anchor="middle" x="232" y="-67.5" font-family="Helvetica,sans-Serif" font-size="10.00">mutex</text>
</a>
</g>
</g>
<!-- Node1&#45;&gt;Node5 -->
<g id="edge4_Node000001_Node000005" class="edge">
<title>Node1&#45;&gt;Node5</title>
<g id="a_edge4_Node000001_Node000005"><a xlink:title=" ">
<path fill="none" stroke="#63b8ff" d="M338.93,-120.95C315.23,-109.88 282.44,-94.56 259.44,-83.82"/>
<polygon fill="#63b8ff" stroke="#63b8ff" points="260.77,-80.58 250.23,-79.52 257.81,-86.92 260.77,-80.58"/>
</a>
</g>
</g>
<!-- Node6 -->
<g id="Node000006" class="node">
<title>Node6</title>
<g id="a_Node000006"><a xlink:title=" ">
<polygon fill="#e0e0e0" stroke="#999999" points="345,-19 289,-19 289,0 345,0 345,-19"/>
<text text-anchor="middle" x="317" y="-7" font-family="Helvetica,sans-Serif" font-size="10.00">optional</text>
</a>
</g>
</g>
<!-- Node1&#45;&gt;Node6 -->
<g id="edge5_Node000001_Node000006" class="edge">
<title>Node1&#45;&gt;Node6</title>
<g id="a_edge5_Node000001_Node000006"><a xlink:title=" ">
<path fill="none" stroke="#63b8ff" d="M356.23,-120.68C348.41,-111.19 338.82,-98.1 333,-85 325.04,-67.08 320.94,-44.94 318.89,-29.47"/>
<polygon fill="#63b8ff" stroke="#63b8ff" points="322.32,-28.65 317.7,-19.12 315.37,-29.46 322.32,-28.65"/>
</a>
</g>
</g>
<!-- Node7 -->
<g id="Node000007" class="node">
<title>Node7</title>
<g id="a_Node000007"><a xlink:title=" ">
<polygon fill="#e0e0e0" stroke="#999999" points="439,-19 395,-19 395,0 439,0 439,-19"/>
<text text-anchor="middle" x="417" y="-7" font-family="Helvetica,sans-Serif" font-size="10.00">string</text>
</a>
</g>
</g>
<!-- Node1&#45;&gt;Node7 -->
<g id="edge6_Node000001_Node000007" class="edge">
<title>Node1&#45;&gt;Node7</title>
<g id="a_edge6_Node000001_Node000007"><a xlink:title=" ">
<path fill="none" stroke="#63b8ff" d="M356.99,-120.74C344.61,-104.2 328.7,-76.45 341,-55 350.51,-38.41 368.86,-27.41 385.15,-20.5"/>
<polygon fill="#63b8ff" stroke="#63b8ff" points="386.87,-23.59 394.93,-16.71 384.34,-17.06 386.87,-23.59"/>
</a>
</g>
</g>
<!-- Node8 -->
<g id="Node000008" class="node">
<title>Node8</title>
<g id="a_Node000008"><a xlink:title=" ">
<polygon fill="#e0e0e0" stroke="#999999" points="788,-79.5 740,-79.5 740,-60.5 788,-60.5 788,-79.5"/>
<text text-anchor="middle" x="764" y="-67.5" font-family="Helvetica,sans-Serif" font-size="10.00">thread</text>
</a>
</g>
</g>
<!-- Node1&#45;&gt;Node8 -->
<g id="edge7_Node000001_Node000008" class="edge">
<title>Node1&#45;&gt;Node8</title>
<g id="a_edge7_Node000001_Node000008"><a xlink:title=" ">
<path fill="none" stroke="#63b8ff" d="M429.13,-130.53C500.69,-124.3 623.42,-110.76 726,-85 728.51,-84.37 731.08,-83.63 733.64,-82.83"/>
<polygon fill="#63b8ff" stroke="#63b8ff" points="735.01,-86.06 743.35,-79.52 732.75,-79.44 735.01,-86.06"/>
</a>
</g>
</g>
<!-- Node9 -->
<g id="Node000009" class="node">
<title>Node9</title>
<g id="a_Node000009"><a xlink:title=" ">
<polygon fill="#e0e0e0" stroke="#999999" points="899.5,-79.5 806.5,-79.5 806.5,-60.5 899.5,-60.5 899.5,-79.5"/>
<text text-anchor="middle" x="853" y="-67.5" font-family="Helvetica,sans-Serif" font-size="10.00">unordered_map</text>
</a>
</g>
</g>
<!-- Node1&#45;&gt;Node9 -->
<g id="edge8_Node000001_Node000009" class="edge">
<title>Node1&#45;&gt;Node9</title>
<g id="a_edge8_Node000001_Node000009"><a xlink:title=" ">
<path fill="none" stroke="#63b8ff" d="M429.26,-130.42C512.44,-123.54 666.92,-108.76 797,-85 801.8,-84.12 806.8,-83.07 811.75,-81.95"/>
<polygon fill="#63b8ff" stroke="#63b8ff" points="812.84,-85.29 821.76,-79.56 811.22,-78.48 812.84,-85.29"/>
</a>
</g>
</g>
<!-- Node10 -->
<g id="Node000010" class="node">
<title>Node10</title>
<g id="a_Node000010"><a xlink:title=" ">
<polygon fill="#e0e0e0" stroke="#999999" points="638.5,-19 591.5,-19 591.5,0 638.5,0 638.5,-19"/>
<text text-anchor="middle" x="615" y="-7" font-family="Helvetica,sans-Serif" font-size="10.00">vector</text>
</a>
</g>
</g>
<!-- Node1&#45;&gt;Node10 -->
<g id="edge9_Node000001_Node000010" class="edge">
<title>Node1&#45;&gt;Node10</title>
<g id="a_edge9_Node000001_Node000010"><a xlink:title=" ">
<path fill="none" stroke="#63b8ff" d="M429.22,-133.25C504.45,-129.64 626.75,-118.62 655,-85 670.26,-66.84 650.33,-41.93 633.54,-26.02"/>
<polygon fill="#63b8ff" stroke="#63b8ff" points="635.51,-23.08 625.73,-19 630.83,-28.29 635.51,-23.08"/>
</a>
</g>
</g>
<!-- Node11 -->
<g id="Node000011" class="node">
<title>Node11</title>
<g id="a_Node000011"><a xlink:title=" ">
<polygon fill="#e0e0e0" stroke="#999999" points="767,-19 657,-19 657,0 767,0 767,-19"/>
<text text-anchor="middle" x="712" y="-7" font-family="Helvetica,sans-Serif" font-size="10.00">nlohmann/json.hpp</text>
</a>
</g>
</g>
<!-- Node1&#45;&gt;Node11 -->
<g id="edge10_Node000001_Node000011" class="edge">
<title>Node1&#45;&gt;Node11</title>
<g id="a_edge10_Node000001_Node000011"><a xlink:title=" ">
<path fill="none" stroke="#63b8ff" d="M429.17,-131.22C505.86,-125.36 633.04,-111.86 671,-85 689.98,-71.57 701.12,-46.46 706.89,-29.13"/>
<polygon fill="#63b8ff" stroke="#63b8ff" points="710.39,-29.66 709.93,-19.07 703.69,-27.63 710.39,-29.66"/>
</a>
</g>
</g>
<!-- Node12 -->
<g id="Node000012" class="node">
<title>Node12</title>
<g id="a_Node000012"><a xlink:href="client_2request_8hpp.html" target="_top" xlink:title=" ">
<polygon fill="white" stroke="#666666" points="645.5,-79.5 502.5,-79.5 502.5,-60.5 645.5,-60.5 645.5,-79.5"/>
<text text-anchor="middle" x="574" y="-67.5" font-family="Helvetica,sans-Serif" font-size="10.00">jsonrpc/client/request.hpp</text>
</a>
</g>
</g>
<!-- Node1&#45;&gt;Node12 -->
<g id="edge11_Node000001_Node000012" class="edge">
<title>Node1&#45;&gt;Node12</title>
<g id="a_edge11_Node000001_Node000012"><a xlink:title=" ">
<path fill="none" stroke="#63b8ff" d="M413.99,-120.95C450.89,-109.43 502.5,-93.32 537.02,-82.54"/>
<polygon fill="#63b8ff" stroke="#63b8ff" points="538.22,-85.84 546.72,-79.52 536.13,-79.16 538.22,-85.84"/>
</a>
</g>
</g>
<!-- Node14 -->
<g id="Node000014" class="node">
<title>Node14</title>
<g id="a_Node000014"><a xlink:href="client__transport_8hpp.html" target="_top" xlink:title=" ">
<polygon fill="white" stroke="#666666" points="484,-85 350,-85 350,-55 484,-55 484,-85"/>
<text text-anchor="start" x="358" y="-73" font-family="Helvetica,sans-Serif" font-size="10.00">jsonrpc/client/transports</text>
<text text-anchor="middle" x="417" y="-62" font-family="Helvetica,sans-Serif" font-size="10.00">/client_transport.hpp</text>
</a>
</g>
</g>
<!-- Node1&#45;&gt;Node14 -->
<g id="edge17_Node000001_Node000014" class="edge">
<title>Node1&#45;&gt;Node14</title>
<g id="a_edge17_Node000001_Node000014"><a xlink:title=" ">
<path fill="none" stroke="#63b8ff" d="M379.65,-120.8C385.68,-112.76 393.36,-102.53 400.18,-93.43"/>
<polygon fill="#63b8ff" stroke="#63b8ff" points="403.18,-95.26 406.38,-85.16 397.58,-91.06 403.18,-95.26"/>
</a>
</g>
</g>
<!-- Node12&#45;&gt;Node6 -->
<g id="edge13_Node000012_Node000006" class="edge">
<title>Node12&#45;&gt;Node6</title>
<g id="a_edge13_Node000012_Node000006"><a xlink:title=" ">
<path fill="none" stroke="#63b8ff" d="M536.63,-60.49C488.15,-49.46 404.02,-30.31 355.16,-19.19"/>
<polygon fill="#63b8ff" stroke="#63b8ff" points="355.82,-15.75 345.29,-16.94 354.27,-22.57 355.82,-15.75"/>
</a>
</g>
</g>
<!-- Node12&#45;&gt;Node7 -->
<g id="edge14_Node000012_Node000007" class="edge">
<title>Node12&#45;&gt;Node7</title>
<g id="a_edge14_Node000012_Node000007"><a xlink:title=" ">
<path fill="none" stroke="#63b8ff" d="M551.17,-60.49C524.28,-50.47 479.42,-33.76 449.05,-22.44"/>
<polygon fill="#63b8ff" stroke="#63b8ff" points="449.94,-19.04 439.35,-18.83 447.5,-25.6 449.94,-19.04"/>
</a>
</g>
</g>
<!-- Node12&#45;&gt;Node10 -->
<g id="edge15_Node000012_Node000010" class="edge">
<title>Node12&#45;&gt;Node10</title>
<g id="a_edge15_Node000012_Node000010"><a xlink:title=" ">
<path fill="none" stroke="#63b8ff" d="M580.05,-60.37C586.11,-51.73 595.59,-38.2 603.14,-27.42"/>
<polygon fill="#63b8ff" stroke="#63b8ff" points="606.05,-29.37 608.93,-19.17 600.32,-25.35 606.05,-29.37"/>
</a>
</g>
</g>
<!-- Node12&#45;&gt;Node11 -->
<g id="edge16_Node000012_Node000011" class="edge">
<title>Node12&#45;&gt;Node11</title>
<g id="a_edge16_Node000012_Node000011"><a xlink:title=" ">
<path fill="none" stroke="#63b8ff" d="M594.07,-60.49C617.37,-50.62 656.01,-34.23 682.68,-22.93"/>
<polygon fill="#63b8ff" stroke="#63b8ff" points="684.07,-26.14 691.91,-19.02 681.34,-19.7 684.07,-26.14"/>
</a>
</g>
</g>
<!-- Node13 -->
<g id="Node000013" class="node">
<title>Node13</title>
<g id="a_Node000013"><a xlink:title=" ">
<polygon fill="#e0e0e0" stroke="#999999" points="573.5,-19 508.5,-19 508.5,0 573.5,0 573.5,-19"/>
<text text-anchor="middle" x="541" y="-7" font-family="Helvetica,sans-Serif" font-size="10.00">functional</text>
</a>
</g>
</g>
<!-- Node12&#45;&gt;Node13 -->
<g id="edge12_Node000012_Node000013" class="edge">
<title>Node12&#45;&gt;Node13</title>
<g id="a_edge12_Node000012_Node000013"><a xlink:title=" ">
<path fill="none" stroke="#63b8ff" d="M569.13,-60.37C564.35,-51.9 556.93,-38.74 550.91,-28.07"/>
<polygon fill="#63b8ff" stroke="#63b8ff" points="553.85,-26.16 545.89,-19.17 547.75,-29.6 553.85,-26.16"/>
</a>
</g>
</g>
<!-- Node14&#45;&gt;Node7 -->
<g id="edge18_Node000014_Node000007" class="edge">
<title>Node14&#45;&gt;Node7</title>
<g id="a_edge18_Node000014_Node000007"><a xlink:title=" ">
<path fill="none" stroke="#63b8ff" d="M417,-54.84C417,-47.21 417,-37.7 417,-29.45"/>
<polygon fill="#63b8ff" stroke="#63b8ff" points="420.5,-29.27 417,-19.27 413.5,-29.27 420.5,-29.27"/>
</a>
</g>
</g>
</g>
</svg>
