<?xml version="1.0" encoding="UTF-8" standalone="no"?>
<!DOCTYPE svg PUBLIC "-//W3C//DTD SVG 1.1//EN"
 "http://www.w3.org/Graphics/SVG/1.1/DTD/svg11.dtd">
<!-- Generated by graphviz version 2.43.0 (0)
 -->
<!-- Title: include/jsonrpc/client/client.hpp Pages: 1 -->
<svg width="584pt" height="214pt"
 viewBox="0.00 0.00 584.00 214.00" xmlns="http://www.w3.org/2000/svg" xmlns:xlink="http://www.w3.org/1999/xlink">
<g id="graph0" class="graph" transform="scale(1 1) rotate(0) translate(4 210)">
<title>include/jsonrpc/client/client.hpp</title>
<!-- Node1 -->
<g id="Node000001" class="node">
<title>Node1</title>
<g id="a_Node000001"><a xlink:title=" ">
<polygon fill="#999999" stroke="#666666" points="318,-206 198,-206 198,-176 318,-176 318,-206"/>
<text text-anchor="start" x="206" y="-194" font-family="Helvetica,sans-Serif" font-size="10.00">include/jsonrpc/client</text>
<text text-anchor="middle" x="258" y="-183" font-family="Helvetica,sans-Serif" font-size="10.00">/client.hpp</text>
</a>
</g>
</g>
<!-- Node2 -->
<g id="Node000002" class="node">
<title>Node2</title>
<g id="a_Node000002"><a xlink:title=" ">
<polygon fill="#e0e0e0" stroke="#999999" points="58,-134.5 0,-134.5 0,-115.5 58,-115.5 58,-134.5"/>
<text text-anchor="middle" x="29" y="-122.5" font-family="Helvetica,sans-Serif" font-size="10.00">memory</text>
</a>
</g>
</g>
<!-- Node1&#45;&gt;Node2 -->
<g id="edge1_Node000001_Node000002" class="edge">
<title>Node1&#45;&gt;Node2</title>
<g id="a_edge1_Node000001_Node000002"><a xlink:title=" ">
<path fill="none" stroke="#63b8ff" d="M198.21,-175.93C160.35,-166.63 110.49,-153.67 67,-140 64.87,-139.33 62.69,-138.61 60.5,-137.87"/>
<polygon fill="#63b8ff" stroke="#63b8ff" points="61.57,-134.54 50.98,-134.51 59.24,-141.14 61.57,-134.54"/>
</a>
</g>
</g>
<!-- Node3 -->
<g id="Node000003" class="node">
<title>Node3</title>
<g id="a_Node000003"><a xlink:title=" ">
<polygon fill="#e0e0e0" stroke="#999999" points="414,-74 370,-74 370,-55 414,-55 414,-74"/>
<text text-anchor="middle" x="392" y="-62" font-family="Helvetica,sans-Serif" font-size="10.00">string</text>
</a>
</g>
</g>
<!-- Node1&#45;&gt;Node3 -->
<g id="edge2_Node000001_Node000003" class="edge">
<title>Node1&#45;&gt;Node3</title>
<g id="a_edge2_Node000001_Node000003"><a xlink:title=" ">
<path fill="none" stroke="#63b8ff" d="M318.2,-180.47C342.75,-173.43 369.05,-161.21 385,-140 396.93,-124.14 397.11,-100.68 395.32,-84.34"/>
<polygon fill="#63b8ff" stroke="#63b8ff" points="398.77,-83.75 393.89,-74.34 391.84,-84.74 398.77,-83.75"/>
</a>
</g>
</g>
<!-- Node4 -->
<g id="Node000004" class="node">
<title>Node4</title>
<g id="a_Node000004"><a xlink:href="client__transport_8hpp.html" target="_top" xlink:title=" ">
<polygon fill="white" stroke="#666666" points="182,-140 76,-140 76,-110 182,-110 182,-140"/>
<text text-anchor="start" x="84" y="-128" font-family="Helvetica,sans-Serif" font-size="10.00">jsonrpc/core/client</text>
<text text-anchor="middle" x="129" y="-117" font-family="Helvetica,sans-Serif" font-size="10.00">_transport.hpp</text>
</a>
</g>
</g>
<!-- Node1&#45;&gt;Node4 -->
<g id="edge3_Node000001_Node000004" class="edge">
<title>Node1&#45;&gt;Node4</title>
<g id="a_edge3_Node000001_Node000004"><a xlink:title=" ">
<path fill="none" stroke="#63b8ff" d="M229.69,-175.95C211.12,-166.74 186.64,-154.6 166.46,-144.59"/>
<polygon fill="#63b8ff" stroke="#63b8ff" points="167.76,-141.32 157.24,-140.01 164.65,-147.59 167.76,-141.32"/>
</a>
</g>
</g>
<!-- Node5 -->
<g id="Node000005" class="node">
<title>Node5</title>
<g id="a_Node000005"><a xlink:href="types_8hpp.html" target="_top" xlink:title=" ">
<polygon fill="white" stroke="#666666" points="288.5,-74 161.5,-74 161.5,-55 288.5,-55 288.5,-74"/>
<text text-anchor="middle" x="225" y="-62" font-family="Helvetica,sans-Serif" font-size="10.00">jsonrpc/core/types.hpp</text>
</a>
</g>
</g>
<!-- Node1&#45;&gt;Node5 -->
<g id="edge18_Node000001_Node000005" class="edge">
<title>Node1&#45;&gt;Node5</title>
<g id="a_edge18_Node000001_Node000005"><a xlink:title=" ">
<path fill="none" stroke="#63b8ff" d="M247.43,-175.96C240.84,-166.37 232.9,-153.08 229,-140 223.58,-121.8 223.05,-100.01 223.6,-84.71"/>
<polygon fill="#63b8ff" stroke="#63b8ff" points="227.11,-84.62 224.16,-74.44 220.12,-84.24 227.11,-84.62"/>
</a>
</g>
</g>
<!-- Node10 -->
<g id="Node000010" class="node">
<title>Node10</title>
<g id="a_Node000010"><a xlink:href="request_8hpp.html" target="_top" xlink:title=" ">
<polygon fill="white" stroke="#666666" points="375.5,-134.5 238.5,-134.5 238.5,-115.5 375.5,-115.5 375.5,-134.5"/>
<text text-anchor="middle" x="307" y="-122.5" font-family="Helvetica,sans-Serif" font-size="10.00">jsonrpc/core/request.hpp</text>
</a>
</g>
</g>
<!-- Node1&#45;&gt;Node10 -->
<g id="edge9_Node000001_Node000010" class="edge">
<title>Node1&#45;&gt;Node10</title>
<g id="a_edge9_Node000001_Node000010"><a xlink:title=" ">
<path fill="none" stroke="#63b8ff" d="M268.87,-175.8C276.29,-166.11 286.14,-153.24 293.98,-143.01"/>
<polygon fill="#63b8ff" stroke="#63b8ff" points="296.93,-144.91 300.23,-134.84 291.37,-140.66 296.93,-144.91"/>
</a>
</g>
</g>
<!-- Node11 -->
<g id="Node000011" class="node">
<title>Node11</title>
<g id="a_Node000011"><a xlink:href="response_8hpp.html" target="_top" xlink:title=" ">
<polygon fill="white" stroke="#666666" points="576,-134.5 432,-134.5 432,-115.5 576,-115.5 576,-134.5"/>
<text text-anchor="middle" x="504" y="-122.5" font-family="Helvetica,sans-Serif" font-size="10.00">jsonrpc/core/response.hpp</text>
</a>
</g>
</g>
<!-- Node1&#45;&gt;Node11 -->
<g id="edge13_Node000001_Node000011" class="edge">
<title>Node1&#45;&gt;Node11</title>
<g id="a_edge13_Node000001_Node000011"><a xlink:title=" ">
<path fill="none" stroke="#63b8ff" d="M311.99,-175.95C356.93,-164.26 420.06,-147.84 461.48,-137.06"/>
<polygon fill="#63b8ff" stroke="#63b8ff" points="462.47,-140.42 471.26,-134.52 460.7,-133.65 462.47,-140.42"/>
</a>
</g>
</g>
<!-- Node4&#45;&gt;Node5 -->
<g id="edge4_Node000004_Node000005" class="edge">
<title>Node4&#45;&gt;Node5</title>
<g id="a_edge4_Node000004_Node000005"><a xlink:title=" ">
<path fill="none" stroke="#63b8ff" d="M152.24,-109.84C167.4,-100.6 187.11,-88.59 202.19,-79.4"/>
<polygon fill="#63b8ff" stroke="#63b8ff" points="204.18,-82.29 210.9,-74.09 200.54,-76.31 204.18,-82.29"/>
</a>
</g>
</g>
<!-- Node6 -->
<g id="Node000006" class="node">
<title>Node6</title>
<g id="a_Node000006"><a xlink:title=" ">
<polygon fill="#e0e0e0" stroke="#999999" points="132.5,-19 67.5,-19 67.5,0 132.5,0 132.5,-19"/>
<text text-anchor="middle" x="100" y="-7" font-family="Helvetica,sans-Serif" font-size="10.00">functional</text>
</a>
</g>
</g>
<!-- Node5&#45;&gt;Node6 -->
<g id="edge5_Node000005_Node000006" class="edge">
<title>Node5&#45;&gt;Node6</title>
<g id="a_edge5_Node000005_Node000006"><a xlink:title=" ">
<path fill="none" stroke="#63b8ff" d="M204.92,-54.98C184.63,-46.38 153.04,-32.99 129.83,-23.15"/>
<polygon fill="#63b8ff" stroke="#63b8ff" points="131.02,-19.85 120.45,-19.17 128.29,-26.3 131.02,-19.85"/>
</a>
</g>
</g>
<!-- Node7 -->
<g id="Node000007" class="node">
<title>Node7</title>
<g id="a_Node000007"><a xlink:title=" ">
<polygon fill="#e0e0e0" stroke="#999999" points="404,-19 348,-19 348,0 404,0 404,-19"/>
<text text-anchor="middle" x="376" y="-7" font-family="Helvetica,sans-Serif" font-size="10.00">optional</text>
</a>
</g>
</g>
<!-- Node5&#45;&gt;Node7 -->
<g id="edge6_Node000005_Node000007" class="edge">
<title>Node5&#45;&gt;Node7</title>
<g id="a_edge6_Node000005_Node000007"><a xlink:title=" ">
<path fill="none" stroke="#63b8ff" d="M249.26,-54.98C274.32,-46.19 313.63,-32.39 341.83,-22.49"/>
<polygon fill="#63b8ff" stroke="#63b8ff" points="343.02,-25.78 351.3,-19.17 340.7,-19.18 343.02,-25.78"/>
</a>
</g>
</g>
<!-- Node8 -->
<g id="Node000008" class="node">
<title>Node8</title>
<g id="a_Node000008"><a xlink:title=" ">
<polygon fill="#e0e0e0" stroke="#999999" points="201.5,-19 150.5,-19 150.5,0 201.5,0 201.5,-19"/>
<text text-anchor="middle" x="176" y="-7" font-family="Helvetica,sans-Serif" font-size="10.00">variant</text>
</a>
</g>
</g>
<!-- Node5&#45;&gt;Node8 -->
<g id="edge7_Node000005_Node000008" class="edge">
<title>Node5&#45;&gt;Node8</title>
<g id="a_edge7_Node000005_Node000008"><a xlink:title=" ">
<path fill="none" stroke="#63b8ff" d="M216.91,-54.75C209.84,-47.11 199.41,-35.82 190.85,-26.56"/>
<polygon fill="#63b8ff" stroke="#63b8ff" points="193.3,-24.06 183.94,-19.09 188.16,-28.81 193.3,-24.06"/>
</a>
</g>
</g>
<!-- Node9 -->
<g id="Node000009" class="node">
<title>Node9</title>
<g id="a_Node000009"><a xlink:title=" ">
<polygon fill="#e0e0e0" stroke="#999999" points="330,-19 220,-19 220,0 330,0 330,-19"/>
<text text-anchor="middle" x="275" y="-7" font-family="Helvetica,sans-Serif" font-size="10.00">nlohmann/json.hpp</text>
</a>
</g>
</g>
<!-- Node5&#45;&gt;Node9 -->
<g id="edge8_Node000005_Node000009" class="edge">
<title>Node5&#45;&gt;Node9</title>
<g id="a_edge8_Node000005_Node000009"><a xlink:title=" ">
<path fill="none" stroke="#63b8ff" d="M233.26,-54.75C240.46,-47.11 251.11,-35.82 259.85,-26.56"/>
<polygon fill="#63b8ff" stroke="#63b8ff" points="262.58,-28.76 266.9,-19.09 257.49,-23.96 262.58,-28.76"/>
</a>
</g>
</g>
<!-- Node10&#45;&gt;Node3 -->
<g id="edge11_Node000010_Node000003" class="edge">
<title>Node10&#45;&gt;Node3</title>
<g id="a_edge11_Node000010_Node000003"><a xlink:title=" ">
<path fill="none" stroke="#63b8ff" d="M319.54,-115.37C333.1,-106.04 354.94,-91.01 371.1,-79.88"/>
<polygon fill="#63b8ff" stroke="#63b8ff" points="373.15,-82.72 379.41,-74.17 369.18,-76.95 373.15,-82.72"/>
</a>
</g>
</g>
<!-- Node10&#45;&gt;Node5 -->
<g id="edge12_Node000010_Node000005" class="edge">
<title>Node10&#45;&gt;Node5</title>
<g id="a_edge12_Node000010_Node000005"><a xlink:title=" ">
<path fill="none" stroke="#63b8ff" d="M294.9,-115.37C281.94,-106.12 261.14,-91.28 245.6,-80.19"/>
<polygon fill="#63b8ff" stroke="#63b8ff" points="247.32,-77.13 237.15,-74.17 243.26,-82.82 247.32,-77.13"/>
</a>
</g>
</g>
<!-- Node10&#45;&gt;Node7 -->
<g id="edge10_Node000010_Node000007" class="edge">
<title>Node10&#45;&gt;Node7</title>
<g id="a_edge10_Node000010_Node000007"><a xlink:title=" ">
<path fill="none" stroke="#63b8ff" d="M312.19,-115.47C323.47,-96.9 350.46,-52.51 365.47,-27.82"/>
<polygon fill="#63b8ff" stroke="#63b8ff" points="368.55,-29.49 370.75,-19.13 362.57,-25.86 368.55,-29.49"/>
</a>
</g>
</g>
<!-- Node11&#45;&gt;Node3 -->
<g id="edge15_Node000011_Node000003" class="edge">
<title>Node11&#45;&gt;Node3</title>
<g id="a_edge15_Node000011_Node000003"><a xlink:title=" ">
<path fill="none" stroke="#63b8ff" d="M487.47,-115.37C469.03,-105.73 438.96,-90.03 417.49,-78.81"/>
<polygon fill="#63b8ff" stroke="#63b8ff" points="419.08,-75.69 408.59,-74.17 415.84,-81.9 419.08,-75.69"/>
</a>
</g>
</g>
<!-- Node11&#45;&gt;Node5 -->
<g id="edge17_Node000011_Node000005" class="edge">
<title>Node11&#45;&gt;Node5</title>
<g id="a_edge17_Node000011_Node000005"><a xlink:title=" ">
<path fill="none" stroke="#63b8ff" d="M463.43,-115.49C413.74,-105.07 329.54,-87.42 275.64,-76.12"/>
<polygon fill="#63b8ff" stroke="#63b8ff" points="276.12,-72.64 265.62,-74.02 274.69,-79.49 276.12,-72.64"/>
</a>
</g>
</g>
<!-- Node11&#45;&gt;Node7 -->
<g id="edge14_Node000011_Node000007" class="edge">
<title>Node11&#45;&gt;Node7</title>
<g id="a_edge14_Node000011_Node000007"><a xlink:title=" ">
<path fill="none" stroke="#63b8ff" d="M513.44,-115.26C527.2,-101.47 549.6,-74.25 535,-55 520.44,-35.8 456.42,-22.63 414.19,-15.84"/>
<polygon fill="#63b8ff" stroke="#63b8ff" points="414.64,-12.37 404.22,-14.3 413.57,-19.29 414.64,-12.37"/>
</a>
</g>
</g>
<!-- Node12 -->
<g id="Node000012" class="node">
<title>Node12</title>
<g id="a_Node000012"><a xlink:title=" ">
<polygon fill="#e0e0e0" stroke="#999999" points="525.5,-74 432.5,-74 432.5,-55 525.5,-55 525.5,-74"/>
<text text-anchor="middle" x="479" y="-62" font-family="Helvetica,sans-Serif" font-size="10.00">unordered_map</text>
</a>
</g>
</g>
<!-- Node11&#45;&gt;Node12 -->
<g id="edge16_Node000011_Node000012" class="edge">
<title>Node11&#45;&gt;Node12</title>
<g id="a_edge16_Node000011_Node000012"><a xlink:title=" ">
<path fill="none" stroke="#63b8ff" d="M500.31,-115.37C496.73,-106.99 491.18,-94.01 486.65,-83.39"/>
<polygon fill="#63b8ff" stroke="#63b8ff" points="489.85,-81.99 482.7,-74.17 483.42,-84.74 489.85,-81.99"/>
</a>
</g>
</g>
</g>
</svg>
