<?xml version="1.0" encoding="UTF-8" standalone="no"?>
<!DOCTYPE svg PUBLIC "-//W3C//DTD SVG 1.1//EN"
 "http://www.w3.org/Graphics/SVG/1.1/DTD/svg11.dtd">
<!-- Generated by graphviz version 2.43.0 (0)
 -->
<!-- Title: src/client/client.cpp Pages: 1 -->
<svg width="599pt" height="258pt"
 viewBox="0.00 0.00 598.50 258.00" xmlns="http://www.w3.org/2000/svg" xmlns:xlink="http://www.w3.org/1999/xlink">
<g id="graph0" class="graph" transform="scale(1 1) rotate(0) translate(4 254)">
<title>src/client/client.cpp</title>
<!-- Node1 -->
<g id="Node000001" class="node">
<title>Node1</title>
<g id="a_Node000001"><a xlink:title=" ">
<polygon fill="#999999" stroke="#666666" points="253.5,-250 142.5,-250 142.5,-231 253.5,-231 253.5,-250"/>
<text text-anchor="middle" x="198" y="-238" font-family="Helvetica,sans-Serif" font-size="10.00">src/client/client.cpp</text>
</a>
</g>
</g>
<!-- Node2 -->
<g id="Node000002" class="node">
<title>Node2</title>
<g id="a_Node000002"><a xlink:title=" ">
<polygon fill="#e0e0e0" stroke="#999999" points="177.5,-195 84.5,-195 84.5,-176 177.5,-176 177.5,-195"/>
<text text-anchor="middle" x="131" y="-183" font-family="Helvetica,sans-Serif" font-size="10.00">spdlog/spdlog.h</text>
</a>
</g>
</g>
<!-- Node1&#45;&gt;Node2 -->
<g id="edge1_Node000001_Node000002" class="edge">
<title>Node1&#45;&gt;Node2</title>
<g id="a_edge1_Node000001_Node000002"><a xlink:title=" ">
<path fill="none" stroke="#63b8ff" d="M187.24,-230.98C177.23,-223.07 162.11,-211.11 150.07,-201.58"/>
<polygon fill="#63b8ff" stroke="#63b8ff" points="151.97,-198.63 141.96,-195.17 147.63,-204.12 151.97,-198.63"/>
</a>
</g>
</g>
<!-- Node3 -->
<g id="Node000003" class="node">
<title>Node3</title>
<g id="a_Node000003"><a xlink:href="client_8hpp.html" target="_top" xlink:title=" ">
<polygon fill="white" stroke="#666666" points="334,-195 196,-195 196,-176 334,-176 334,-195"/>
<text text-anchor="middle" x="265" y="-183" font-family="Helvetica,sans-Serif" font-size="10.00">json_rpc/client/client.hpp</text>
</a>
</g>
</g>
<!-- Node1&#45;&gt;Node3 -->
<g id="edge2_Node000001_Node000003" class="edge">
<title>Node1&#45;&gt;Node3</title>
<g id="a_edge2_Node000001_Node000003"><a xlink:title=" ">
<path fill="none" stroke="#63b8ff" d="M208.76,-230.98C218.77,-223.07 233.89,-211.11 245.93,-201.58"/>
<polygon fill="#63b8ff" stroke="#63b8ff" points="248.37,-204.12 254.04,-195.17 244.03,-198.63 248.37,-204.12"/>
</a>
</g>
</g>
<!-- Node4 -->
<g id="Node000004" class="node">
<title>Node4</title>
<g id="a_Node000004"><a xlink:title=" ">
<polygon fill="#e0e0e0" stroke="#999999" points="58,-134.5 0,-134.5 0,-115.5 58,-115.5 58,-134.5"/>
<text text-anchor="middle" x="29" y="-122.5" font-family="Helvetica,sans-Serif" font-size="10.00">memory</text>
</a>
</g>
</g>
<!-- Node3&#45;&gt;Node4 -->
<g id="edge3_Node000003_Node000004" class="edge">
<title>Node3&#45;&gt;Node4</title>
<g id="a_edge3_Node000003_Node000004"><a xlink:title=" ">
<path fill="none" stroke="#63b8ff" d="M218.95,-175.94C178.53,-168.01 118.36,-155.16 67,-140 64.86,-139.37 62.67,-138.68 60.48,-137.96"/>
<polygon fill="#63b8ff" stroke="#63b8ff" points="61.53,-134.62 50.94,-134.64 59.23,-141.23 61.53,-134.62"/>
</a>
</g>
</g>
<!-- Node5 -->
<g id="Node000005" class="node">
<title>Node5</title>
<g id="a_Node000005"><a xlink:title=" ">
<polygon fill="#e0e0e0" stroke="#999999" points="423,-74 379,-74 379,-55 423,-55 423,-74"/>
<text text-anchor="middle" x="401" y="-62" font-family="Helvetica,sans-Serif" font-size="10.00">string</text>
</a>
</g>
</g>
<!-- Node3&#45;&gt;Node5 -->
<g id="edge4_Node000003_Node000005" class="edge">
<title>Node3&#45;&gt;Node5</title>
<g id="a_edge4_Node000003_Node000005"><a xlink:title=" ">
<path fill="none" stroke="#63b8ff" d="M334,-176.24C356.86,-169.96 380.21,-159.02 395,-140 407.16,-124.35 406.95,-100.85 404.79,-84.44"/>
<polygon fill="#63b8ff" stroke="#63b8ff" points="408.22,-83.69 403.12,-74.4 401.31,-84.84 408.22,-83.69"/>
</a>
</g>
</g>
<!-- Node6 -->
<g id="Node000006" class="node">
<title>Node6</title>
<g id="a_Node000006"><a xlink:href="client__transport_8hpp.html" target="_top" xlink:title=" ">
<polygon fill="white" stroke="#666666" points="187.5,-140 76.5,-140 76.5,-110 187.5,-110 187.5,-140"/>
<text text-anchor="start" x="84.5" y="-128" font-family="Helvetica,sans-Serif" font-size="10.00">json_rpc/core/client</text>
<text text-anchor="middle" x="132" y="-117" font-family="Helvetica,sans-Serif" font-size="10.00">_transport.hpp</text>
</a>
</g>
</g>
<!-- Node3&#45;&gt;Node6 -->
<g id="edge5_Node000003_Node000006" class="edge">
<title>Node3&#45;&gt;Node6</title>
<g id="a_edge5_Node000003_Node000006"><a xlink:title=" ">
<path fill="none" stroke="#63b8ff" d="M245.66,-175.99C226.77,-167.68 197.42,-154.78 173.28,-144.16"/>
<polygon fill="#63b8ff" stroke="#63b8ff" points="174.54,-140.89 163.98,-140.06 171.72,-147.29 174.54,-140.89"/>
</a>
</g>
</g>
<!-- Node7 -->
<g id="Node000007" class="node">
<title>Node7</title>
<g id="a_Node000007"><a xlink:href="types_8hpp.html" target="_top" xlink:title=" ">
<polygon fill="white" stroke="#666666" points="297,-74 165,-74 165,-55 297,-55 297,-74"/>
<text text-anchor="middle" x="231" y="-62" font-family="Helvetica,sans-Serif" font-size="10.00">json_rpc/core/types.hpp</text>
</a>
</g>
</g>
<!-- Node3&#45;&gt;Node7 -->
<g id="edge20_Node000003_Node000007" class="edge">
<title>Node3&#45;&gt;Node7</title>
<g id="a_edge20_Node000003_Node000007"><a xlink:title=" ">
<path fill="none" stroke="#63b8ff" d="M256.96,-175.74C249.75,-167.29 239.62,-153.78 235,-140 228.9,-121.8 228.52,-99.7 229.29,-84.32"/>
<polygon fill="#63b8ff" stroke="#63b8ff" points="232.8,-84.26 230.02,-74.04 225.82,-83.77 232.8,-84.26"/>
</a>
</g>
</g>
<!-- Node12 -->
<g id="Node000012" class="node">
<title>Node12</title>
<g id="a_Node000012"><a xlink:href="request_8hpp.html" target="_top" xlink:title=" ">
<polygon fill="white" stroke="#666666" points="386,-134.5 244,-134.5 244,-115.5 386,-115.5 386,-134.5"/>
<text text-anchor="middle" x="315" y="-122.5" font-family="Helvetica,sans-Serif" font-size="10.00">json_rpc/core/request.hpp</text>
</a>
</g>
</g>
<!-- Node3&#45;&gt;Node12 -->
<g id="edge11_Node000003_Node000012" class="edge">
<title>Node3&#45;&gt;Node12</title>
<g id="a_edge11_Node000003_Node000012"><a xlink:title=" ">
<path fill="none" stroke="#63b8ff" d="M272.38,-175.87C279.91,-167.05 291.79,-153.16 301.09,-142.27"/>
<polygon fill="#63b8ff" stroke="#63b8ff" points="303.76,-144.54 307.59,-134.67 298.43,-140 303.76,-144.54"/>
</a>
</g>
</g>
<!-- Node13 -->
<g id="Node000013" class="node">
<title>Node13</title>
<g id="a_Node000013"><a xlink:href="response_8hpp.html" target="_top" xlink:title=" ">
<polygon fill="white" stroke="#666666" points="590.5,-134.5 441.5,-134.5 441.5,-115.5 590.5,-115.5 590.5,-134.5"/>
<text text-anchor="middle" x="516" y="-122.5" font-family="Helvetica,sans-Serif" font-size="10.00">json_rpc/core/response.hpp</text>
</a>
</g>
</g>
<!-- Node3&#45;&gt;Node13 -->
<g id="edge15_Node000003_Node000013" class="edge">
<title>Node3&#45;&gt;Node13</title>
<g id="a_edge15_Node000003_Node000013"><a xlink:title=" ">
<path fill="none" stroke="#63b8ff" d="M301.5,-175.99C345.93,-165.64 421.01,-148.14 469.53,-136.83"/>
<polygon fill="#63b8ff" stroke="#63b8ff" points="470.51,-140.2 479.46,-134.52 468.92,-133.38 470.51,-140.2"/>
</a>
</g>
</g>
<!-- Node6&#45;&gt;Node7 -->
<g id="edge6_Node000006_Node000007" class="edge">
<title>Node6&#45;&gt;Node7</title>
<g id="a_edge6_Node000006_Node000007"><a xlink:title=" ">
<path fill="none" stroke="#63b8ff" d="M155.71,-109.99C171.35,-100.75 191.74,-88.7 207.36,-79.47"/>
<polygon fill="#63b8ff" stroke="#63b8ff" points="209.55,-82.24 216.38,-74.14 205.99,-76.21 209.55,-82.24"/>
</a>
</g>
</g>
<!-- Node8 -->
<g id="Node000008" class="node">
<title>Node8</title>
<g id="a_Node000008"><a xlink:title=" ">
<polygon fill="#e0e0e0" stroke="#999999" points="138.5,-19 73.5,-19 73.5,0 138.5,0 138.5,-19"/>
<text text-anchor="middle" x="106" y="-7" font-family="Helvetica,sans-Serif" font-size="10.00">functional</text>
</a>
</g>
</g>
<!-- Node7&#45;&gt;Node8 -->
<g id="edge7_Node000007_Node000008" class="edge">
<title>Node7&#45;&gt;Node8</title>
<g id="a_edge7_Node000007_Node000008"><a xlink:title=" ">
<path fill="none" stroke="#63b8ff" d="M210.92,-54.98C190.63,-46.38 159.04,-32.99 135.83,-23.15"/>
<polygon fill="#63b8ff" stroke="#63b8ff" points="137.02,-19.85 126.45,-19.17 134.29,-26.3 137.02,-19.85"/>
</a>
</g>
</g>
<!-- Node9 -->
<g id="Node000009" class="node">
<title>Node9</title>
<g id="a_Node000009"><a xlink:title=" ">
<polygon fill="#e0e0e0" stroke="#999999" points="410,-19 354,-19 354,0 410,0 410,-19"/>
<text text-anchor="middle" x="382" y="-7" font-family="Helvetica,sans-Serif" font-size="10.00">optional</text>
</a>
</g>
</g>
<!-- Node7&#45;&gt;Node9 -->
<g id="edge8_Node000007_Node000009" class="edge">
<title>Node7&#45;&gt;Node9</title>
<g id="a_edge8_Node000007_Node000009"><a xlink:title=" ">
<path fill="none" stroke="#63b8ff" d="M255.26,-54.98C280.32,-46.19 319.63,-32.39 347.83,-22.49"/>
<polygon fill="#63b8ff" stroke="#63b8ff" points="349.02,-25.78 357.3,-19.17 346.7,-19.18 349.02,-25.78"/>
</a>
</g>
</g>
<!-- Node10 -->
<g id="Node000010" class="node">
<title>Node10</title>
<g id="a_Node000010"><a xlink:title=" ">
<polygon fill="#e0e0e0" stroke="#999999" points="207.5,-19 156.5,-19 156.5,0 207.5,0 207.5,-19"/>
<text text-anchor="middle" x="182" y="-7" font-family="Helvetica,sans-Serif" font-size="10.00">variant</text>
</a>
</g>
</g>
<!-- Node7&#45;&gt;Node10 -->
<g id="edge9_Node000007_Node000010" class="edge">
<title>Node7&#45;&gt;Node10</title>
<g id="a_edge9_Node000007_Node000010"><a xlink:title=" ">
<path fill="none" stroke="#63b8ff" d="M222.91,-54.75C215.84,-47.11 205.41,-35.82 196.85,-26.56"/>
<polygon fill="#63b8ff" stroke="#63b8ff" points="199.3,-24.06 189.94,-19.09 194.16,-28.81 199.3,-24.06"/>
</a>
</g>
</g>
<!-- Node11 -->
<g id="Node000011" class="node">
<title>Node11</title>
<g id="a_Node000011"><a xlink:title=" ">
<polygon fill="#e0e0e0" stroke="#999999" points="336,-19 226,-19 226,0 336,0 336,-19"/>
<text text-anchor="middle" x="281" y="-7" font-family="Helvetica,sans-Serif" font-size="10.00">nlohmann/json.hpp</text>
</a>
</g>
</g>
<!-- Node7&#45;&gt;Node11 -->
<g id="edge10_Node000007_Node000011" class="edge">
<title>Node7&#45;&gt;Node11</title>
<g id="a_edge10_Node000007_Node000011"><a xlink:title=" ">
<path fill="none" stroke="#63b8ff" d="M239.26,-54.75C246.46,-47.11 257.11,-35.82 265.85,-26.56"/>
<polygon fill="#63b8ff" stroke="#63b8ff" points="268.58,-28.76 272.9,-19.09 263.49,-23.96 268.58,-28.76"/>
</a>
</g>
</g>
<!-- Node12&#45;&gt;Node5 -->
<g id="edge13_Node000012_Node000005" class="edge">
<title>Node12&#45;&gt;Node5</title>
<g id="a_edge13_Node000012_Node000005"><a xlink:title=" ">
<path fill="none" stroke="#63b8ff" d="M327.69,-115.37C341.41,-106.04 363.5,-91.01 379.85,-79.88"/>
<polygon fill="#63b8ff" stroke="#63b8ff" points="381.96,-82.69 388.26,-74.17 378.02,-76.9 381.96,-82.69"/>
</a>
</g>
</g>
<!-- Node12&#45;&gt;Node7 -->
<g id="edge14_Node000012_Node000007" class="edge">
<title>Node12&#45;&gt;Node7</title>
<g id="a_edge14_Node000012_Node000007"><a xlink:title=" ">
<path fill="none" stroke="#63b8ff" d="M302.61,-115.37C289.21,-106.04 267.62,-91.01 251.65,-79.88"/>
<polygon fill="#63b8ff" stroke="#63b8ff" points="253.65,-77.01 243.45,-74.17 249.65,-82.75 253.65,-77.01"/>
</a>
</g>
</g>
<!-- Node12&#45;&gt;Node9 -->
<g id="edge12_Node000012_Node000009" class="edge">
<title>Node12&#45;&gt;Node9</title>
<g id="a_edge12_Node000012_Node000009"><a xlink:title=" ">
<path fill="none" stroke="#63b8ff" d="M320.04,-115.47C331,-96.9 357.2,-52.51 371.78,-27.82"/>
<polygon fill="#63b8ff" stroke="#63b8ff" points="374.84,-29.52 376.91,-19.13 368.81,-25.96 374.84,-29.52"/>
</a>
</g>
</g>
<!-- Node13&#45;&gt;Node5 -->
<g id="edge17_Node000013_Node000005" class="edge">
<title>Node13&#45;&gt;Node5</title>
<g id="a_edge17_Node000013_Node000005"><a xlink:title=" ">
<path fill="none" stroke="#63b8ff" d="M499.03,-115.37C480.09,-105.73 449.21,-90.03 427.17,-78.81"/>
<polygon fill="#63b8ff" stroke="#63b8ff" points="428.54,-75.58 418.04,-74.17 425.36,-81.82 428.54,-75.58"/>
</a>
</g>
</g>
<!-- Node13&#45;&gt;Node7 -->
<g id="edge19_Node000013_Node000007" class="edge">
<title>Node13&#45;&gt;Node7</title>
<g id="a_edge19_Node000013_Node000007"><a xlink:title=" ">
<path fill="none" stroke="#63b8ff" d="M474.56,-115.49C423.69,-105.05 337.43,-87.35 282.39,-76.05"/>
<polygon fill="#63b8ff" stroke="#63b8ff" points="282.99,-72.6 272.49,-74.02 281.58,-79.46 282.99,-72.6"/>
</a>
</g>
</g>
<!-- Node13&#45;&gt;Node9 -->
<g id="edge16_Node000013_Node000009" class="edge">
<title>Node13&#45;&gt;Node9</title>
<g id="a_edge16_Node000013_Node000009"><a xlink:title=" ">
<path fill="none" stroke="#63b8ff" d="M524.82,-115.19C537.65,-101.29 558.42,-73.92 544,-55 529.05,-35.39 463.2,-22.28 420.19,-15.63"/>
<polygon fill="#63b8ff" stroke="#63b8ff" points="420.47,-12.13 410.06,-14.11 419.43,-19.05 420.47,-12.13"/>
</a>
</g>
</g>
<!-- Node14 -->
<g id="Node000014" class="node">
<title>Node14</title>
<g id="a_Node000014"><a xlink:title=" ">
<polygon fill="#e0e0e0" stroke="#999999" points="534.5,-74 441.5,-74 441.5,-55 534.5,-55 534.5,-74"/>
<text text-anchor="middle" x="488" y="-62" font-family="Helvetica,sans-Serif" font-size="10.00">unordered_map</text>
</a>
</g>
</g>
<!-- Node13&#45;&gt;Node14 -->
<g id="edge18_Node000013_Node000014" class="edge">
<title>Node13&#45;&gt;Node14</title>
<g id="a_edge18_Node000013_Node000014"><a xlink:title=" ">
<path fill="none" stroke="#63b8ff" d="M511.87,-115.37C507.86,-106.99 501.65,-94.01 496.56,-83.39"/>
<polygon fill="#63b8ff" stroke="#63b8ff" points="499.62,-81.68 492.15,-74.17 493.31,-84.7 499.62,-81.68"/>
</a>
</g>
</g>
</g>
</svg>
