<?xml version="1.0" encoding="UTF-8" standalone="no"?>
<!DOCTYPE svg PUBLIC "-//W3C//DTD SVG 1.1//EN"
 "http://www.w3.org/Graphics/SVG/1.1/DTD/svg11.dtd">
<!-- Generated by graphviz version 2.43.0 (0)
 -->
<!-- Title: include/jsonrpc/client/client.hpp Pages: 1 -->
<svg width="972pt" height="148pt"
 viewBox="0.00 0.00 971.50 148.00" xmlns="http://www.w3.org/2000/svg" xmlns:xlink="http://www.w3.org/1999/xlink">
<g id="graph0" class="graph" transform="scale(1 1) rotate(0) translate(4 144)">
<title>include/jsonrpc/client/client.hpp</title>
<!-- Node1 -->
<g id="Node000001" class="node">
<title>Node1</title>
<g id="a_Node000001"><a xlink:title=" ">
<polygon fill="#999999" stroke="#666666" points="433,-140 313,-140 313,-110 433,-110 433,-140"/>
<text text-anchor="start" x="321" y="-128" font-family="Helvetica,sans-Serif" font-size="10.00">include/jsonrpc/client</text>
<text text-anchor="middle" x="373" y="-117" font-family="Helvetica,sans-Serif" font-size="10.00">/client.hpp</text>
</a>
</g>
</g>
<!-- Node2 -->
<g id="Node000002" class="node">
<title>Node2</title>
<g id="a_Node000002"><a xlink:title=" ">
<polygon fill="#e0e0e0" stroke="#999999" points="50,-74 0,-74 0,-55 50,-55 50,-74"/>
<text text-anchor="middle" x="25" y="-62" font-family="Helvetica,sans-Serif" font-size="10.00">atomic</text>
</a>
</g>
</g>
<!-- Node1&#45;&gt;Node2 -->
<g id="edge1_Node000001_Node000002" class="edge">
<title>Node1&#45;&gt;Node2</title>
<g id="a_edge1_Node000001_Node000002"><a xlink:title=" ">
<path fill="none" stroke="#63b8ff" d="M312.82,-116C251.57,-107.51 153.72,-92.96 60.12,-74.08"/>
<polygon fill="#63b8ff" stroke="#63b8ff" points="60.69,-70.62 50.2,-72.06 59.3,-77.48 60.69,-70.62"/>
</a>
</g>
</g>
<!-- Node3 -->
<g id="Node000003" class="node">
<title>Node3</title>
<g id="a_Node000003"><a xlink:title=" ">
<polygon fill="#e0e0e0" stroke="#999999" points="120,-74 68,-74 68,-55 120,-55 120,-74"/>
<text text-anchor="middle" x="94" y="-62" font-family="Helvetica,sans-Serif" font-size="10.00">cassert</text>
</a>
</g>
</g>
<!-- Node1&#45;&gt;Node3 -->
<g id="edge2_Node000001_Node000003" class="edge">
<title>Node1&#45;&gt;Node3</title>
<g id="a_edge2_Node000001_Node000003"><a xlink:title=" ">
<path fill="none" stroke="#63b8ff" d="M312.71,-112.27C265.56,-102.96 198.13,-89.33 130.35,-74.24"/>
<polygon fill="#63b8ff" stroke="#63b8ff" points="130.87,-70.77 120.35,-72.01 129.34,-77.6 130.87,-70.77"/>
</a>
</g>
</g>
<!-- Node4 -->
<g id="Node000004" class="node">
<title>Node4</title>
<g id="a_Node000004"><a xlink:title=" ">
<polygon fill="#e0e0e0" stroke="#999999" points="184,-74 138,-74 138,-55 184,-55 184,-74"/>
<text text-anchor="middle" x="161" y="-62" font-family="Helvetica,sans-Serif" font-size="10.00">future</text>
</a>
</g>
</g>
<!-- Node1&#45;&gt;Node4 -->
<g id="edge3_Node000001_Node000004" class="edge">
<title>Node1&#45;&gt;Node4</title>
<g id="a_edge3_Node000001_Node000004"><a xlink:title=" ">
<path fill="none" stroke="#63b8ff" d="M322.22,-109.99C282.48,-99.02 228.37,-84.09 194.06,-74.62"/>
<polygon fill="#63b8ff" stroke="#63b8ff" points="194.65,-71.16 184.08,-71.87 192.79,-77.9 194.65,-71.16"/>
</a>
</g>
</g>
<!-- Node5 -->
<g id="Node000005" class="node">
<title>Node5</title>
<g id="a_Node000005"><a xlink:title=" ">
<polygon fill="#e0e0e0" stroke="#999999" points="260,-74 202,-74 202,-55 260,-55 260,-74"/>
<text text-anchor="middle" x="231" y="-62" font-family="Helvetica,sans-Serif" font-size="10.00">memory</text>
</a>
</g>
</g>
<!-- Node1&#45;&gt;Node5 -->
<g id="edge4_Node000001_Node000005" class="edge">
<title>Node1&#45;&gt;Node5</title>
<g id="a_edge4_Node000001_Node000005"><a xlink:title=" ">
<path fill="none" stroke="#63b8ff" d="M338.99,-109.99C315.4,-100.27 284.26,-87.44 261.48,-78.06"/>
<polygon fill="#63b8ff" stroke="#63b8ff" points="262.55,-74.71 251.97,-74.14 259.88,-81.18 262.55,-74.71"/>
</a>
</g>
</g>
<!-- Node6 -->
<g id="Node000006" class="node">
<title>Node6</title>
<g id="a_Node000006"><a xlink:title=" ">
<polygon fill="#e0e0e0" stroke="#999999" points="326,-74 278,-74 278,-55 326,-55 326,-74"/>
<text text-anchor="middle" x="302" y="-62" font-family="Helvetica,sans-Serif" font-size="10.00">mutex</text>
</a>
</g>
</g>
<!-- Node1&#45;&gt;Node6 -->
<g id="edge5_Node000001_Node000006" class="edge">
<title>Node1&#45;&gt;Node6</title>
<g id="a_edge5_Node000001_Node000006"><a xlink:title=" ">
<path fill="none" stroke="#63b8ff" d="M355.81,-109.84C345.19,-101.09 331.56,-89.85 320.67,-80.88"/>
<polygon fill="#63b8ff" stroke="#63b8ff" points="322.58,-77.92 312.64,-74.27 318.13,-83.33 322.58,-77.92"/>
</a>
</g>
</g>
<!-- Node7 -->
<g id="Node000007" class="node">
<title>Node7</title>
<g id="a_Node000007"><a xlink:title=" ">
<polygon fill="#e0e0e0" stroke="#999999" points="423,-19 367,-19 367,0 423,0 423,-19"/>
<text text-anchor="middle" x="395" y="-7" font-family="Helvetica,sans-Serif" font-size="10.00">optional</text>
</a>
</g>
</g>
<!-- Node1&#45;&gt;Node7 -->
<g id="edge6_Node000001_Node000007" class="edge">
<title>Node1&#45;&gt;Node7</title>
<g id="a_edge6_Node000001_Node000007"><a xlink:title=" ">
<path fill="none" stroke="#63b8ff" d="M372.83,-109.82C372.93,-95.74 373.86,-73.64 378,-55 380,-46.02 383.47,-36.44 386.76,-28.48"/>
<polygon fill="#63b8ff" stroke="#63b8ff" points="390.04,-29.7 390.83,-19.13 383.63,-26.9 390.04,-29.7"/>
</a>
</g>
</g>
<!-- Node8 -->
<g id="Node000008" class="node">
<title>Node8</title>
<g id="a_Node000008"><a xlink:title=" ">
<polygon fill="#e0e0e0" stroke="#999999" points="525,-19 481,-19 481,0 525,0 525,-19"/>
<text text-anchor="middle" x="503" y="-7" font-family="Helvetica,sans-Serif" font-size="10.00">string</text>
</a>
</g>
</g>
<!-- Node1&#45;&gt;Node8 -->
<g id="edge7_Node000001_Node000008" class="edge">
<title>Node1&#45;&gt;Node8</title>
<g id="a_edge7_Node000001_Node000008"><a xlink:title=" ">
<path fill="none" stroke="#63b8ff" d="M377.55,-109.91C383.1,-94.68 393.78,-70.49 410,-55 427.19,-38.58 451.59,-27.22 471.08,-20.08"/>
<polygon fill="#63b8ff" stroke="#63b8ff" points="472.45,-23.31 480.76,-16.74 470.16,-16.7 472.45,-23.31"/>
</a>
</g>
</g>
<!-- Node9 -->
<g id="Node000009" class="node">
<title>Node9</title>
<g id="a_Node000009"><a xlink:title=" ">
<polygon fill="#e0e0e0" stroke="#999999" points="852,-74 804,-74 804,-55 852,-55 852,-74"/>
<text text-anchor="middle" x="828" y="-62" font-family="Helvetica,sans-Serif" font-size="10.00">thread</text>
</a>
</g>
</g>
<!-- Node1&#45;&gt;Node9 -->
<g id="edge8_Node000001_Node000009" class="edge">
<title>Node1&#45;&gt;Node9</title>
<g id="a_edge8_Node000001_Node000009"><a xlink:title=" ">
<path fill="none" stroke="#63b8ff" d="M433.01,-118.72C514.27,-111.13 663.69,-95.64 790,-74 791.27,-73.78 792.57,-73.55 793.88,-73.3"/>
<polygon fill="#63b8ff" stroke="#63b8ff" points="794.84,-76.68 803.95,-71.26 793.45,-69.82 794.84,-76.68"/>
</a>
</g>
</g>
<!-- Node10 -->
<g id="Node000010" class="node">
<title>Node10</title>
<g id="a_Node000010"><a xlink:title=" ">
<polygon fill="#e0e0e0" stroke="#999999" points="963.5,-74 870.5,-74 870.5,-55 963.5,-55 963.5,-74"/>
<text text-anchor="middle" x="917" y="-62" font-family="Helvetica,sans-Serif" font-size="10.00">unordered_map</text>
</a>
</g>
</g>
<!-- Node1&#45;&gt;Node10 -->
<g id="edge9_Node000001_Node000010" class="edge">
<title>Node1&#45;&gt;Node10</title>
<g id="a_edge9_Node000001_Node000010"><a xlink:title=" ">
<path fill="none" stroke="#63b8ff" d="M433.21,-118.78C523.56,-110.73 699.82,-94.23 860.22,-74.04"/>
<polygon fill="#63b8ff" stroke="#63b8ff" points="860.79,-77.49 870.27,-72.77 859.91,-70.55 860.79,-77.49"/>
</a>
</g>
</g>
<!-- Node11 -->
<g id="Node000011" class="node">
<title>Node11</title>
<g id="a_Node000011"><a xlink:title=" ">
<polygon fill="#e0e0e0" stroke="#999999" points="831,-19 721,-19 721,0 831,0 831,-19"/>
<text text-anchor="middle" x="776" y="-7" font-family="Helvetica,sans-Serif" font-size="10.00">nlohmann/json.hpp</text>
</a>
</g>
</g>
<!-- Node1&#45;&gt;Node11 -->
<g id="edge10_Node000001_Node000011" class="edge">
<title>Node1&#45;&gt;Node11</title>
<g id="a_edge10_Node000001_Node000011"><a xlink:title=" ">
<path fill="none" stroke="#63b8ff" d="M433.13,-123.91C528.73,-122.52 709.44,-114.45 757,-74 769.87,-63.06 774.22,-43.79 775.6,-29.34"/>
<polygon fill="#63b8ff" stroke="#63b8ff" points="779.11,-29.21 776.17,-19.04 772.12,-28.83 779.11,-29.21"/>
</a>
</g>
</g>
<!-- Node12 -->
<g id="Node000012" class="node">
<title>Node12</title>
<g id="a_Node000012"><a xlink:href="client_2request_8hpp.html" target="_top" xlink:title=" ">
<polygon fill="white" stroke="#666666" points="747.5,-74 604.5,-74 604.5,-55 747.5,-55 747.5,-74"/>
<text text-anchor="middle" x="676" y="-62" font-family="Helvetica,sans-Serif" font-size="10.00">jsonrpc/client/request.hpp</text>
</a>
</g>
</g>
<!-- Node1&#45;&gt;Node12 -->
<g id="edge11_Node000001_Node000012" class="edge">
<title>Node1&#45;&gt;Node12</title>
<g id="a_edge11_Node000001_Node000012"><a xlink:title=" ">
<path fill="none" stroke="#63b8ff" d="M433.23,-112.37C488.19,-101.76 568.71,-86.21 621.72,-75.98"/>
<polygon fill="#63b8ff" stroke="#63b8ff" points="622.46,-79.4 631.62,-74.07 621.14,-72.53 622.46,-79.4"/>
</a>
</g>
</g>
<!-- Node14 -->
<g id="Node000014" class="node">
<title>Node14</title>
<g id="a_Node000014"><a xlink:href="transport_8hpp.html" target="_top" xlink:title=" ">
<polygon fill="white" stroke="#666666" points="586.5,-74 419.5,-74 419.5,-55 586.5,-55 586.5,-74"/>
<text text-anchor="middle" x="503" y="-62" font-family="Helvetica,sans-Serif" font-size="10.00">jsonrpc/transport/transport.hpp</text>
</a>
</g>
</g>
<!-- Node1&#45;&gt;Node14 -->
<g id="edge16_Node000001_Node000014" class="edge">
<title>Node1&#45;&gt;Node14</title>
<g id="a_edge16_Node000001_Node000014"><a xlink:title=" ">
<path fill="none" stroke="#63b8ff" d="M404.14,-109.99C425.54,-100.36 453.73,-87.67 474.53,-78.31"/>
<polygon fill="#63b8ff" stroke="#63b8ff" points="476.12,-81.43 483.8,-74.14 473.25,-75.05 476.12,-81.43"/>
</a>
</g>
</g>
<!-- Node12&#45;&gt;Node7 -->
<g id="edge13_Node000012_Node000007" class="edge">
<title>Node12&#45;&gt;Node7</title>
<g id="a_edge13_Node000012_Node000007"><a xlink:title=" ">
<path fill="none" stroke="#63b8ff" d="M630.85,-54.98C576.13,-44.66 484.88,-27.45 433.4,-17.74"/>
<polygon fill="#63b8ff" stroke="#63b8ff" points="433.82,-14.26 423.35,-15.85 432.52,-21.14 433.82,-14.26"/>
</a>
</g>
</g>
<!-- Node12&#45;&gt;Node8 -->
<g id="edge14_Node000012_Node000008" class="edge">
<title>Node12&#45;&gt;Node8</title>
<g id="a_edge14_Node000012_Node000008"><a xlink:title=" ">
<path fill="none" stroke="#63b8ff" d="M648.2,-54.98C617.35,-45.53 567.63,-30.3 535.13,-20.34"/>
<polygon fill="#63b8ff" stroke="#63b8ff" points="535.81,-16.89 525.23,-17.31 533.76,-23.59 535.81,-16.89"/>
</a>
</g>
</g>
<!-- Node12&#45;&gt;Node11 -->
<g id="edge15_Node000012_Node000011" class="edge">
<title>Node12&#45;&gt;Node11</title>
<g id="a_edge15_Node000012_Node000011"><a xlink:title=" ">
<path fill="none" stroke="#63b8ff" d="M692.07,-54.98C707.86,-46.61 732.22,-33.7 750.63,-23.95"/>
<polygon fill="#63b8ff" stroke="#63b8ff" points="752.44,-26.95 759.64,-19.17 749.17,-20.76 752.44,-26.95"/>
</a>
</g>
</g>
<!-- Node13 -->
<g id="Node000013" class="node">
<title>Node13</title>
<g id="a_Node000013"><a xlink:title=" ">
<polygon fill="#e0e0e0" stroke="#999999" points="702.5,-19 637.5,-19 637.5,0 702.5,0 702.5,-19"/>
<text text-anchor="middle" x="670" y="-7" font-family="Helvetica,sans-Serif" font-size="10.00">functional</text>
</a>
</g>
</g>
<!-- Node12&#45;&gt;Node13 -->
<g id="edge12_Node000012_Node000013" class="edge">
<title>Node12&#45;&gt;Node13</title>
<g id="a_edge12_Node000012_Node000013"><a xlink:title=" ">
<path fill="none" stroke="#63b8ff" d="M675.01,-54.75C674.22,-47.8 673.1,-37.85 672.11,-29.13"/>
<polygon fill="#63b8ff" stroke="#63b8ff" points="675.58,-28.63 670.97,-19.09 668.62,-29.42 675.58,-28.63"/>
</a>
</g>
</g>
<!-- Node14&#45;&gt;Node8 -->
<g id="edge17_Node000014_Node000008" class="edge">
<title>Node14&#45;&gt;Node8</title>
<g id="a_edge17_Node000014_Node000008"><a xlink:title=" ">
<path fill="none" stroke="#63b8ff" d="M503,-54.75C503,-47.8 503,-37.85 503,-29.13"/>
<polygon fill="#63b8ff" stroke="#63b8ff" points="506.5,-29.09 503,-19.09 499.5,-29.09 506.5,-29.09"/>
</a>
</g>
</g>
</g>
</svg>
