<?xml version="1.0" encoding="UTF-8" standalone="no"?>
<!DOCTYPE svg PUBLIC "-//W3C//DTD SVG 1.1//EN"
 "http://www.w3.org/Graphics/SVG/1.1/DTD/svg11.dtd">
<!-- Generated by graphviz version 2.43.0 (0)
 -->
<!-- Title: include/jsonrpc/client/client.hpp Pages: 1 -->
<svg width="826pt" height="214pt"
 viewBox="0.00 0.00 826.00 214.00" xmlns="http://www.w3.org/2000/svg" xmlns:xlink="http://www.w3.org/1999/xlink">
<g id="graph0" class="graph" transform="scale(1 1) rotate(0) translate(4 210)">
<title>include/jsonrpc/client/client.hpp</title>
<!-- Node1 -->
<g id="Node000001" class="node">
<title>Node1</title>
<g id="a_Node000001"><a xlink:title=" ">
<polygon fill="#999999" stroke="#666666" points="382,-206 262,-206 262,-176 382,-176 382,-206"/>
<text text-anchor="start" x="270" y="-194" font-family="Helvetica,sans-Serif" font-size="10.00">include/jsonrpc/client</text>
<text text-anchor="middle" x="322" y="-183" font-family="Helvetica,sans-Serif" font-size="10.00">/client.hpp</text>
</a>
</g>
</g>
<!-- Node2 -->
<g id="Node000002" class="node">
<title>Node2</title>
<g id="a_Node000002"><a xlink:title=" ">
<polygon fill="#e0e0e0" stroke="#999999" points="50,-134.5 0,-134.5 0,-115.5 50,-115.5 50,-134.5"/>
<text text-anchor="middle" x="25" y="-122.5" font-family="Helvetica,sans-Serif" font-size="10.00">atomic</text>
</a>
</g>
</g>
<!-- Node1&#45;&gt;Node2 -->
<g id="edge1_Node000001_Node000002" class="edge">
<title>Node1&#45;&gt;Node2</title>
<g id="a_edge1_Node000001_Node000002"><a xlink:title=" ">
<path fill="none" stroke="#63b8ff" d="M261.9,-182.12C208.05,-174.23 127.27,-160.32 59,-140 57.12,-139.44 55.2,-138.81 53.28,-138.14"/>
<polygon fill="#63b8ff" stroke="#63b8ff" points="54.41,-134.83 43.82,-134.54 51.92,-141.37 54.41,-134.83"/>
</a>
</g>
</g>
<!-- Node3 -->
<g id="Node000003" class="node">
<title>Node3</title>
<g id="a_Node000003"><a xlink:title=" ">
<polygon fill="#e0e0e0" stroke="#999999" points="114,-134.5 68,-134.5 68,-115.5 114,-115.5 114,-134.5"/>
<text text-anchor="middle" x="91" y="-122.5" font-family="Helvetica,sans-Serif" font-size="10.00">future</text>
</a>
</g>
</g>
<!-- Node1&#45;&gt;Node3 -->
<g id="edge2_Node000001_Node000003" class="edge">
<title>Node1&#45;&gt;Node3</title>
<g id="a_edge2_Node000001_Node000003"><a xlink:title=" ">
<path fill="none" stroke="#63b8ff" d="M261.59,-177.57C221.75,-168.7 168.68,-155.61 123,-140 121.57,-139.51 120.11,-138.98 118.64,-138.43"/>
<polygon fill="#63b8ff" stroke="#63b8ff" points="119.65,-135.06 109.07,-134.53 117.01,-141.54 119.65,-135.06"/>
</a>
</g>
</g>
<!-- Node4 -->
<g id="Node000004" class="node">
<title>Node4</title>
<g id="a_Node000004"><a xlink:title=" ">
<polygon fill="#e0e0e0" stroke="#999999" points="190,-134.5 132,-134.5 132,-115.5 190,-115.5 190,-134.5"/>
<text text-anchor="middle" x="161" y="-122.5" font-family="Helvetica,sans-Serif" font-size="10.00">memory</text>
</a>
</g>
</g>
<!-- Node1&#45;&gt;Node4 -->
<g id="edge3_Node000001_Node000004" class="edge">
<title>Node1&#45;&gt;Node4</title>
<g id="a_edge3_Node000001_Node000004"><a xlink:title=" ">
<path fill="none" stroke="#63b8ff" d="M286.67,-175.95C258.31,-164.68 218.89,-149.01 191.8,-138.25"/>
<polygon fill="#63b8ff" stroke="#63b8ff" points="193.01,-134.96 182.43,-134.52 190.43,-141.46 193.01,-134.96"/>
</a>
</g>
</g>
<!-- Node5 -->
<g id="Node000005" class="node">
<title>Node5</title>
<g id="a_Node000005"><a xlink:title=" ">
<polygon fill="#e0e0e0" stroke="#999999" points="256,-134.5 208,-134.5 208,-115.5 256,-115.5 256,-134.5"/>
<text text-anchor="middle" x="232" y="-122.5" font-family="Helvetica,sans-Serif" font-size="10.00">mutex</text>
</a>
</g>
</g>
<!-- Node1&#45;&gt;Node5 -->
<g id="edge4_Node000001_Node000005" class="edge">
<title>Node1&#45;&gt;Node5</title>
<g id="a_edge4_Node000001_Node000005"><a xlink:title=" ">
<path fill="none" stroke="#63b8ff" d="M302.03,-175.8C287.36,-165.37 267.49,-151.24 252.66,-140.69"/>
<polygon fill="#63b8ff" stroke="#63b8ff" points="254.35,-137.6 244.18,-134.66 250.3,-143.31 254.35,-137.6"/>
</a>
</g>
</g>
<!-- Node6 -->
<g id="Node000006" class="node">
<title>Node6</title>
<g id="a_Node000006"><a xlink:title=" ">
<polygon fill="#e0e0e0" stroke="#999999" points="537,-19 481,-19 481,0 537,0 537,-19"/>
<text text-anchor="middle" x="509" y="-7" font-family="Helvetica,sans-Serif" font-size="10.00">optional</text>
</a>
</g>
</g>
<!-- Node1&#45;&gt;Node6 -->
<g id="edge5_Node000001_Node000006" class="edge">
<title>Node1&#45;&gt;Node6</title>
<g id="a_edge5_Node000001_Node000006"><a xlink:title=" ">
<path fill="none" stroke="#63b8ff" d="M319.58,-175.76C317.42,-159.23 315.86,-131.49 325,-110 338.29,-78.76 349.34,-73.2 378,-55 406.68,-36.79 443.65,-25.12 471,-18.32"/>
<polygon fill="#63b8ff" stroke="#63b8ff" points="472.06,-21.67 480.98,-15.95 470.44,-14.86 472.06,-21.67"/>
</a>
</g>
</g>
<!-- Node7 -->
<g id="Node000007" class="node">
<title>Node7</title>
<g id="a_Node000007"><a xlink:title=" ">
<polygon fill="#e0e0e0" stroke="#999999" points="790,-74 746,-74 746,-55 790,-55 790,-74"/>
<text text-anchor="middle" x="768" y="-62" font-family="Helvetica,sans-Serif" font-size="10.00">string</text>
</a>
</g>
</g>
<!-- Node1&#45;&gt;Node7 -->
<g id="edge6_Node000001_Node000007" class="edge">
<title>Node1&#45;&gt;Node7</title>
<g id="a_edge6_Node000001_Node000007"><a xlink:title=" ">
<path fill="none" stroke="#63b8ff" d="M382.12,-188.18C505.09,-183.83 776.22,-170.81 804,-140 819.54,-122.76 801.13,-97.61 785.43,-81.4"/>
<polygon fill="#63b8ff" stroke="#63b8ff" points="787.7,-78.72 778.1,-74.23 782.8,-83.73 787.7,-78.72"/>
</a>
</g>
</g>
<!-- Node8 -->
<g id="Node000008" class="node">
<title>Node8</title>
<g id="a_Node000008"><a xlink:title=" ">
<polygon fill="#e0e0e0" stroke="#999999" points="398,-134.5 350,-134.5 350,-115.5 398,-115.5 398,-134.5"/>
<text text-anchor="middle" x="374" y="-122.5" font-family="Helvetica,sans-Serif" font-size="10.00">thread</text>
</a>
</g>
</g>
<!-- Node1&#45;&gt;Node8 -->
<g id="edge7_Node000001_Node000008" class="edge">
<title>Node1&#45;&gt;Node8</title>
<g id="a_edge7_Node000001_Node000008"><a xlink:title=" ">
<path fill="none" stroke="#63b8ff" d="M333.54,-175.8C341.49,-166.01 352.08,-152.98 360.43,-142.7"/>
<polygon fill="#63b8ff" stroke="#63b8ff" points="363.22,-144.81 366.81,-134.84 357.79,-140.4 363.22,-144.81"/>
</a>
</g>
</g>
<!-- Node9 -->
<g id="Node000009" class="node">
<title>Node9</title>
<g id="a_Node000009"><a xlink:title=" ">
<polygon fill="#e0e0e0" stroke="#999999" points="509.5,-134.5 416.5,-134.5 416.5,-115.5 509.5,-115.5 509.5,-134.5"/>
<text text-anchor="middle" x="463" y="-122.5" font-family="Helvetica,sans-Serif" font-size="10.00">unordered_map</text>
</a>
</g>
</g>
<!-- Node1&#45;&gt;Node9 -->
<g id="edge8_Node000001_Node000009" class="edge">
<title>Node1&#45;&gt;Node9</title>
<g id="a_edge8_Node000001_Node000009"><a xlink:title=" ">
<path fill="none" stroke="#63b8ff" d="M352.94,-175.95C377.45,-164.83 411.39,-149.42 435.08,-138.67"/>
<polygon fill="#63b8ff" stroke="#63b8ff" points="436.58,-141.84 444.24,-134.52 433.68,-135.46 436.58,-141.84"/>
</a>
</g>
</g>
<!-- Node10 -->
<g id="Node000010" class="node">
<title>Node10</title>
<g id="a_Node000010"><a xlink:title=" ">
<polygon fill="#e0e0e0" stroke="#999999" points="433.5,-74 386.5,-74 386.5,-55 433.5,-55 433.5,-74"/>
<text text-anchor="middle" x="410" y="-62" font-family="Helvetica,sans-Serif" font-size="10.00">vector</text>
</a>
</g>
</g>
<!-- Node1&#45;&gt;Node10 -->
<g id="edge9_Node000001_Node000010" class="edge">
<title>Node1&#45;&gt;Node10</title>
<g id="a_edge9_Node000001_Node000010"><a xlink:title=" ">
<path fill="none" stroke="#63b8ff" d="M322.23,-175.99C323.16,-158.93 326.9,-129.93 341,-110 350.56,-96.48 365.66,-86.06 379.3,-78.72"/>
<polygon fill="#63b8ff" stroke="#63b8ff" points="381.06,-81.75 388.42,-74.13 377.91,-75.5 381.06,-81.75"/>
</a>
</g>
</g>
<!-- Node11 -->
<g id="Node000011" class="node">
<title>Node11</title>
<g id="a_Node000011"><a xlink:href="client_2request_8hpp.html" target="_top" xlink:title=" ">
<polygon fill="white" stroke="#666666" points="670.5,-134.5 527.5,-134.5 527.5,-115.5 670.5,-115.5 670.5,-134.5"/>
<text text-anchor="middle" x="599" y="-122.5" font-family="Helvetica,sans-Serif" font-size="10.00">jsonrpc/client/request.hpp</text>
</a>
</g>
</g>
<!-- Node1&#45;&gt;Node11 -->
<g id="edge10_Node000001_Node000011" class="edge">
<title>Node1&#45;&gt;Node11</title>
<g id="a_edge10_Node000001_Node000011"><a xlink:title=" ">
<path fill="none" stroke="#63b8ff" d="M382.1,-176.11C433.1,-164.33 505.24,-147.66 552.07,-136.84"/>
<polygon fill="#63b8ff" stroke="#63b8ff" points="552.99,-140.22 561.95,-134.56 551.42,-133.4 552.99,-140.22"/>
</a>
</g>
</g>
<!-- Node16 -->
<g id="Node000016" class="node">
<title>Node16</title>
<g id="a_Node000016"><a xlink:href="client__transport_8hpp.html" target="_top" xlink:title=" ">
<polygon fill="white" stroke="#666666" points="795,-140 689,-140 689,-110 795,-110 795,-140"/>
<text text-anchor="start" x="697" y="-128" font-family="Helvetica,sans-Serif" font-size="10.00">jsonrpc/core/client</text>
<text text-anchor="middle" x="742" y="-117" font-family="Helvetica,sans-Serif" font-size="10.00">_transport.hpp</text>
</a>
</g>
</g>
<!-- Node1&#45;&gt;Node16 -->
<g id="edge20_Node000001_Node000016" class="edge">
<title>Node1&#45;&gt;Node16</title>
<g id="a_edge20_Node000001_Node000016"><a xlink:title=" ">
<path fill="none" stroke="#63b8ff" d="M382.1,-183.16C451.34,-174.93 568.69,-159.92 678.99,-140.09"/>
<polygon fill="#63b8ff" stroke="#63b8ff" points="679.75,-143.51 688.96,-138.28 678.5,-136.62 679.75,-143.51"/>
</a>
</g>
</g>
<!-- Node11&#45;&gt;Node6 -->
<g id="edge12_Node000011_Node000006" class="edge">
<title>Node11&#45;&gt;Node6</title>
<g id="a_edge12_Node000011_Node000006"><a xlink:title=" ">
<path fill="none" stroke="#63b8ff" d="M592.24,-115.47C577.38,-96.74 541.69,-51.72 522.21,-27.16"/>
<polygon fill="#63b8ff" stroke="#63b8ff" points="524.8,-24.79 515.84,-19.13 519.31,-29.14 524.8,-24.79"/>
</a>
</g>
</g>
<!-- Node11&#45;&gt;Node7 -->
<g id="edge13_Node000011_Node000007" class="edge">
<title>Node11&#45;&gt;Node7</title>
<g id="a_edge13_Node000011_Node000007"><a xlink:title=" ">
<path fill="none" stroke="#63b8ff" d="M623.57,-115.49C653.36,-105.18 703.61,-87.79 736.29,-76.48"/>
<polygon fill="#63b8ff" stroke="#63b8ff" points="737.52,-79.76 745.82,-73.18 735.23,-73.14 737.52,-79.76"/>
</a>
</g>
</g>
<!-- Node11&#45;&gt;Node10 -->
<g id="edge14_Node000011_Node000010" class="edge">
<title>Node11&#45;&gt;Node10</title>
<g id="a_edge14_Node000011_Node000010"><a xlink:title=" ">
<path fill="none" stroke="#63b8ff" d="M571.52,-115.49C537.55,-104.98 479.77,-87.1 443.31,-75.81"/>
<polygon fill="#63b8ff" stroke="#63b8ff" points="444.22,-72.43 433.63,-72.81 442.15,-79.12 444.22,-72.43"/>
</a>
</g>
</g>
<!-- Node12 -->
<g id="Node000012" class="node">
<title>Node12</title>
<g id="a_Node000012"><a xlink:title=" ">
<polygon fill="#e0e0e0" stroke="#999999" points="620.5,-19 555.5,-19 555.5,0 620.5,0 620.5,-19"/>
<text text-anchor="middle" x="588" y="-7" font-family="Helvetica,sans-Serif" font-size="10.00">functional</text>
</a>
</g>
</g>
<!-- Node11&#45;&gt;Node12 -->
<g id="edge11_Node000011_Node000012" class="edge">
<title>Node11&#45;&gt;Node12</title>
<g id="a_edge11_Node000011_Node000012"><a xlink:title=" ">
<path fill="none" stroke="#63b8ff" d="M597.56,-115.17C595.97,-105.2 593.47,-88.48 592,-74 590.48,-59.02 589.45,-42 588.81,-29.35"/>
<polygon fill="#63b8ff" stroke="#63b8ff" points="592.3,-28.97 588.34,-19.14 585.3,-29.3 592.3,-28.97"/>
</a>
</g>
</g>
<!-- Node13 -->
<g id="Node000013" class="node">
<title>Node13</title>
<g id="a_Node000013"><a xlink:href="types_8hpp.html" target="_top" xlink:title=" ">
<polygon fill="white" stroke="#666666" points="727.5,-74 600.5,-74 600.5,-55 727.5,-55 727.5,-74"/>
<text text-anchor="middle" x="664" y="-62" font-family="Helvetica,sans-Serif" font-size="10.00">jsonrpc/core/types.hpp</text>
</a>
</g>
</g>
<!-- Node11&#45;&gt;Node13 -->
<g id="edge15_Node000011_Node000013" class="edge">
<title>Node11&#45;&gt;Node13</title>
<g id="a_edge15_Node000011_Node000013"><a xlink:title=" ">
<path fill="none" stroke="#63b8ff" d="M608.59,-115.37C618.58,-106.38 634.43,-92.11 646.63,-81.14"/>
<polygon fill="#63b8ff" stroke="#63b8ff" points="649.28,-83.46 654.37,-74.17 644.6,-78.26 649.28,-83.46"/>
</a>
</g>
</g>
<!-- Node13&#45;&gt;Node6 -->
<g id="edge17_Node000013_Node000006" class="edge">
<title>Node13&#45;&gt;Node6</title>
<g id="a_edge17_Node000013_Node000006"><a xlink:title=" ">
<path fill="none" stroke="#63b8ff" d="M639.1,-54.98C613.3,-46.16 572.78,-32.31 543.82,-22.41"/>
<polygon fill="#63b8ff" stroke="#63b8ff" points="544.69,-19.01 534.1,-19.08 542.43,-25.63 544.69,-19.01"/>
</a>
</g>
</g>
<!-- Node13&#45;&gt;Node12 -->
<g id="edge16_Node000013_Node000012" class="edge">
<title>Node13&#45;&gt;Node12</title>
<g id="a_edge16_Node000013_Node000012"><a xlink:title=" ">
<path fill="none" stroke="#63b8ff" d="M651.79,-54.98C640.22,-46.92 622.62,-34.65 608.84,-25.03"/>
<polygon fill="#63b8ff" stroke="#63b8ff" points="610.64,-22.02 600.43,-19.17 606.63,-27.76 610.64,-22.02"/>
</a>
</g>
</g>
<!-- Node14 -->
<g id="Node000014" class="node">
<title>Node14</title>
<g id="a_Node000014"><a xlink:title=" ">
<polygon fill="#e0e0e0" stroke="#999999" points="689.5,-19 638.5,-19 638.5,0 689.5,0 689.5,-19"/>
<text text-anchor="middle" x="664" y="-7" font-family="Helvetica,sans-Serif" font-size="10.00">variant</text>
</a>
</g>
</g>
<!-- Node13&#45;&gt;Node14 -->
<g id="edge18_Node000013_Node000014" class="edge">
<title>Node13&#45;&gt;Node14</title>
<g id="a_edge18_Node000013_Node000014"><a xlink:title=" ">
<path fill="none" stroke="#63b8ff" d="M664,-54.75C664,-47.8 664,-37.85 664,-29.13"/>
<polygon fill="#63b8ff" stroke="#63b8ff" points="667.5,-29.09 664,-19.09 660.5,-29.09 667.5,-29.09"/>
</a>
</g>
</g>
<!-- Node15 -->
<g id="Node000015" class="node">
<title>Node15</title>
<g id="a_Node000015"><a xlink:title=" ">
<polygon fill="#e0e0e0" stroke="#999999" points="818,-19 708,-19 708,0 818,0 818,-19"/>
<text text-anchor="middle" x="763" y="-7" font-family="Helvetica,sans-Serif" font-size="10.00">nlohmann/json.hpp</text>
</a>
</g>
</g>
<!-- Node13&#45;&gt;Node15 -->
<g id="edge19_Node000013_Node000015" class="edge">
<title>Node13&#45;&gt;Node15</title>
<g id="a_edge19_Node000013_Node000015"><a xlink:title=" ">
<path fill="none" stroke="#63b8ff" d="M679.91,-54.98C695.55,-46.61 719.66,-33.7 737.88,-23.95"/>
<polygon fill="#63b8ff" stroke="#63b8ff" points="739.64,-26.98 746.8,-19.17 736.34,-20.8 739.64,-26.98"/>
</a>
</g>
</g>
<!-- Node16&#45;&gt;Node7 -->
<g id="edge21_Node000016_Node000007" class="edge">
<title>Node16&#45;&gt;Node7</title>
<g id="a_edge21_Node000016_Node000007"><a xlink:title=" ">
<path fill="none" stroke="#63b8ff" d="M748.29,-109.84C751.8,-101.95 756.2,-92.05 759.95,-83.61"/>
<polygon fill="#63b8ff" stroke="#63b8ff" points="763.24,-84.83 764.1,-74.27 756.84,-81.98 763.24,-84.83"/>
</a>
</g>
</g>
<!-- Node16&#45;&gt;Node13 -->
<g id="edge22_Node000016_Node000013" class="edge">
<title>Node16&#45;&gt;Node13</title>
<g id="a_edge22_Node000016_Node000013"><a xlink:title=" ">
<path fill="none" stroke="#63b8ff" d="M723.12,-109.84C711.22,-100.91 695.88,-89.41 683.8,-80.35"/>
<polygon fill="#63b8ff" stroke="#63b8ff" points="685.79,-77.47 675.69,-74.27 681.59,-83.07 685.79,-77.47"/>
</a>
</g>
</g>
</g>
</svg>
