<?xml version="1.0" encoding="UTF-8" standalone="no"?>
<!DOCTYPE svg PUBLIC "-//W3C//DTD SVG 1.1//EN"
 "http://www.w3.org/Graphics/SVG/1.1/DTD/svg11.dtd">
<!-- Generated by graphviz version 2.43.0 (0)
 -->
<!-- Title: include/jsonrpc/client/client.hpp Pages: 1 -->
<svg width="978pt" height="159pt"
 viewBox="0.00 0.00 977.50 159.00" xmlns="http://www.w3.org/2000/svg" xmlns:xlink="http://www.w3.org/1999/xlink">
<g id="graph0" class="graph" transform="scale(1 1) rotate(0) translate(4 155)">
<title>include/jsonrpc/client/client.hpp</title>
<!-- Node1 -->
<g id="Node000001" class="node">
<title>Node1</title>
<g id="a_Node000001"><a xlink:title=" ">
<polygon fill="#999999" stroke="#666666" points="509,-151 389,-151 389,-121 509,-121 509,-151"/>
<text text-anchor="start" x="397" y="-139" font-family="Helvetica,sans-Serif" font-size="10.00">include/jsonrpc/client</text>
<text text-anchor="middle" x="449" y="-128" font-family="Helvetica,sans-Serif" font-size="10.00">/client.hpp</text>
</a>
</g>
</g>
<!-- Node2 -->
<g id="Node000002" class="node">
<title>Node2</title>
<g id="a_Node000002"><a xlink:title=" ">
<polygon fill="#e0e0e0" stroke="#999999" points="50,-79.5 0,-79.5 0,-60.5 50,-60.5 50,-79.5"/>
<text text-anchor="middle" x="25" y="-67.5" font-family="Helvetica,sans-Serif" font-size="10.00">atomic</text>
</a>
</g>
</g>
<!-- Node1&#45;&gt;Node2 -->
<g id="edge1_Node000001_Node000002" class="edge">
<title>Node1&#45;&gt;Node2</title>
<g id="a_edge1_Node000001_Node000002"><a xlink:title=" ">
<path fill="none" stroke="#63b8ff" d="M388.93,-132.2C311.53,-127.49 173.32,-115.3 59,-85 57.06,-84.48 55.08,-83.88 53.1,-83.23"/>
<polygon fill="#63b8ff" stroke="#63b8ff" points="53.99,-79.83 43.4,-79.61 51.54,-86.38 53.99,-79.83"/>
</a>
</g>
</g>
<!-- Node3 -->
<g id="Node000003" class="node">
<title>Node3</title>
<g id="a_Node000003"><a xlink:title=" ">
<polygon fill="#e0e0e0" stroke="#999999" points="120,-79.5 68,-79.5 68,-60.5 120,-60.5 120,-79.5"/>
<text text-anchor="middle" x="94" y="-67.5" font-family="Helvetica,sans-Serif" font-size="10.00">cassert</text>
</a>
</g>
</g>
<!-- Node1&#45;&gt;Node3 -->
<g id="edge2_Node000001_Node000003" class="edge">
<title>Node1&#45;&gt;Node3</title>
<g id="a_edge2_Node000001_Node000003"><a xlink:title=" ">
<path fill="none" stroke="#63b8ff" d="M388.88,-129.69C323.92,-123.01 217.8,-109.36 129,-85 127.06,-84.47 125.08,-83.86 123.1,-83.21"/>
<polygon fill="#63b8ff" stroke="#63b8ff" points="123.95,-79.79 113.35,-79.64 121.54,-86.36 123.95,-79.79"/>
</a>
</g>
</g>
<!-- Node4 -->
<g id="Node000004" class="node">
<title>Node4</title>
<g id="a_Node000004"><a xlink:title=" ">
<polygon fill="#e0e0e0" stroke="#999999" points="184,-79.5 138,-79.5 138,-60.5 184,-60.5 184,-79.5"/>
<text text-anchor="middle" x="161" y="-67.5" font-family="Helvetica,sans-Serif" font-size="10.00">future</text>
</a>
</g>
</g>
<!-- Node1&#45;&gt;Node4 -->
<g id="edge3_Node000001_Node000004" class="edge">
<title>Node1&#45;&gt;Node4</title>
<g id="a_edge3_Node000001_Node000004"><a xlink:title=" ">
<path fill="none" stroke="#63b8ff" d="M388.85,-127.07C336.38,-119.25 258.6,-105.48 193,-85 191.37,-84.49 189.71,-83.92 188.05,-83.32"/>
<polygon fill="#63b8ff" stroke="#63b8ff" points="189.26,-80.03 178.68,-79.56 186.65,-86.53 189.26,-80.03"/>
</a>
</g>
</g>
<!-- Node5 -->
<g id="Node000005" class="node">
<title>Node5</title>
<g id="a_Node000005"><a xlink:title=" ">
<polygon fill="#e0e0e0" stroke="#999999" points="260,-79.5 202,-79.5 202,-60.5 260,-60.5 260,-79.5"/>
<text text-anchor="middle" x="231" y="-67.5" font-family="Helvetica,sans-Serif" font-size="10.00">memory</text>
</a>
</g>
</g>
<!-- Node1&#45;&gt;Node5 -->
<g id="edge4_Node000001_Node000005" class="edge">
<title>Node1&#45;&gt;Node5</title>
<g id="a_edge4_Node000001_Node000005"><a xlink:title=" ">
<path fill="none" stroke="#63b8ff" d="M393.91,-120.95C358.1,-111.51 310.52,-98.39 269,-85 267.09,-84.38 265.14,-83.73 263.17,-83.06"/>
<polygon fill="#63b8ff" stroke="#63b8ff" points="263.99,-79.64 253.4,-79.6 261.66,-86.24 263.99,-79.64"/>
</a>
</g>
</g>
<!-- Node6 -->
<g id="Node000006" class="node">
<title>Node6</title>
<g id="a_Node000006"><a xlink:title=" ">
<polygon fill="#e0e0e0" stroke="#999999" points="326,-79.5 278,-79.5 278,-60.5 326,-60.5 326,-79.5"/>
<text text-anchor="middle" x="302" y="-67.5" font-family="Helvetica,sans-Serif" font-size="10.00">mutex</text>
</a>
</g>
</g>
<!-- Node1&#45;&gt;Node6 -->
<g id="edge5_Node000001_Node000006" class="edge">
<title>Node1&#45;&gt;Node6</title>
<g id="a_edge5_Node000001_Node000006"><a xlink:title=" ">
<path fill="none" stroke="#63b8ff" d="M416.74,-120.95C391.07,-109.78 355.49,-94.29 330.78,-83.53"/>
<polygon fill="#63b8ff" stroke="#63b8ff" points="332.13,-80.3 321.56,-79.52 329.33,-86.72 332.13,-80.3"/>
</a>
</g>
</g>
<!-- Node7 -->
<g id="Node000007" class="node">
<title>Node7</title>
<g id="a_Node000007"><a xlink:title=" ">
<polygon fill="#e0e0e0" stroke="#999999" points="443,-19 387,-19 387,0 443,0 443,-19"/>
<text text-anchor="middle" x="415" y="-7" font-family="Helvetica,sans-Serif" font-size="10.00">optional</text>
</a>
</g>
</g>
<!-- Node1&#45;&gt;Node7 -->
<g id="edge6_Node000001_Node000007" class="edge">
<title>Node1&#45;&gt;Node7</title>
<g id="a_edge6_Node000001_Node000007"><a xlink:title=" ">
<path fill="none" stroke="#63b8ff" d="M413.47,-120.96C398.11,-112.9 381.69,-101.13 373,-85 366.67,-73.26 368.08,-67.39 373,-55 377.52,-43.63 386.47,-33.48 394.96,-25.76"/>
<polygon fill="#63b8ff" stroke="#63b8ff" points="397.41,-28.27 402.79,-19.14 392.89,-22.92 397.41,-28.27"/>
</a>
</g>
</g>
<!-- Node8 -->
<g id="Node000008" class="node">
<title>Node8</title>
<g id="a_Node000008"><a xlink:title=" ">
<polygon fill="#e0e0e0" stroke="#999999" points="563,-19 519,-19 519,0 563,0 563,-19"/>
<text text-anchor="middle" x="541" y="-7" font-family="Helvetica,sans-Serif" font-size="10.00">string</text>
</a>
</g>
</g>
<!-- Node1&#45;&gt;Node8 -->
<g id="edge7_Node000001_Node000008" class="edge">
<title>Node1&#45;&gt;Node8</title>
<g id="a_edge7_Node000001_Node000008"><a xlink:title=" ">
<path fill="none" stroke="#63b8ff" d="M481.49,-120.9C496.93,-112.6 514.3,-100.64 525,-85 536.3,-68.49 539.84,-45.47 540.83,-29.41"/>
<polygon fill="#63b8ff" stroke="#63b8ff" points="544.34,-29.25 541.19,-19.13 537.34,-29.01 544.34,-29.25"/>
</a>
</g>
</g>
<!-- Node9 -->
<g id="Node000009" class="node">
<title>Node9</title>
<g id="a_Node000009"><a xlink:title=" ">
<polygon fill="#e0e0e0" stroke="#999999" points="858,-79.5 810,-79.5 810,-60.5 858,-60.5 858,-79.5"/>
<text text-anchor="middle" x="834" y="-67.5" font-family="Helvetica,sans-Serif" font-size="10.00">thread</text>
</a>
</g>
</g>
<!-- Node1&#45;&gt;Node9 -->
<g id="edge8_Node000001_Node000009" class="edge">
<title>Node1&#45;&gt;Node9</title>
<g id="a_edge8_Node000001_Node000009"><a xlink:title=" ">
<path fill="none" stroke="#63b8ff" d="M509.3,-130.18C579.12,-123.71 697.17,-110.03 796,-85 798.5,-84.37 801.07,-83.62 803.64,-82.82"/>
<polygon fill="#63b8ff" stroke="#63b8ff" points="805.01,-86.05 813.34,-79.5 802.75,-79.43 805.01,-86.05"/>
</a>
</g>
</g>
<!-- Node10 -->
<g id="Node000010" class="node">
<title>Node10</title>
<g id="a_Node000010"><a xlink:title=" ">
<polygon fill="#e0e0e0" stroke="#999999" points="969.5,-79.5 876.5,-79.5 876.5,-60.5 969.5,-60.5 969.5,-79.5"/>
<text text-anchor="middle" x="923" y="-67.5" font-family="Helvetica,sans-Serif" font-size="10.00">unordered_map</text>
</a>
</g>
</g>
<!-- Node1&#45;&gt;Node10 -->
<g id="edge9_Node000001_Node000010" class="edge">
<title>Node1&#45;&gt;Node10</title>
<g id="a_edge9_Node000001_Node000010"><a xlink:title=" ">
<path fill="none" stroke="#63b8ff" d="M509.23,-130.19C590.79,-123.14 740.67,-108.25 867,-85 871.8,-84.12 876.8,-83.06 881.75,-81.94"/>
<polygon fill="#63b8ff" stroke="#63b8ff" points="882.84,-85.27 891.76,-79.55 881.22,-78.46 882.84,-85.27"/>
</a>
</g>
</g>
<!-- Node11 -->
<g id="Node000011" class="node">
<title>Node11</title>
<g id="a_Node000011"><a xlink:title=" ">
<polygon fill="#e0e0e0" stroke="#999999" points="711.5,-19 664.5,-19 664.5,0 711.5,0 711.5,-19"/>
<text text-anchor="middle" x="688" y="-7" font-family="Helvetica,sans-Serif" font-size="10.00">vector</text>
</a>
</g>
</g>
<!-- Node1&#45;&gt;Node11 -->
<g id="edge10_Node000001_Node000011" class="edge">
<title>Node1&#45;&gt;Node11</title>
<g id="a_edge10_Node000001_Node000011"><a xlink:title=" ">
<path fill="none" stroke="#63b8ff" d="M509.03,-132.82C581.78,-128.77 698.04,-117.28 725,-85 739.96,-67.09 721.3,-42.11 705.5,-26.12"/>
<polygon fill="#63b8ff" stroke="#63b8ff" points="707.77,-23.46 698.13,-19.07 702.93,-28.51 707.77,-23.46"/>
</a>
</g>
</g>
<!-- Node12 -->
<g id="Node000012" class="node">
<title>Node12</title>
<g id="a_Node000012"><a xlink:title=" ">
<polygon fill="#e0e0e0" stroke="#999999" points="840,-19 730,-19 730,0 840,0 840,-19"/>
<text text-anchor="middle" x="785" y="-7" font-family="Helvetica,sans-Serif" font-size="10.00">nlohmann/json.hpp</text>
</a>
</g>
</g>
<!-- Node1&#45;&gt;Node12 -->
<g id="edge11_Node000001_Node000012" class="edge">
<title>Node1&#45;&gt;Node12</title>
<g id="a_edge11_Node000001_Node000012"><a xlink:title=" ">
<path fill="none" stroke="#63b8ff" d="M509.31,-130.63C583.55,-124.25 704.32,-110.28 741,-85 760.67,-71.45 772.88,-45.99 779.31,-28.64"/>
<polygon fill="#63b8ff" stroke="#63b8ff" points="782.66,-29.67 782.58,-19.07 776.03,-27.4 782.66,-29.67"/>
</a>
</g>
</g>
<!-- Node13 -->
<g id="Node000013" class="node">
<title>Node13</title>
<g id="a_Node000013"><a xlink:href="client_2request_8hpp.html" target="_top" xlink:title=" ">
<polygon fill="white" stroke="#666666" points="715.5,-79.5 572.5,-79.5 572.5,-60.5 715.5,-60.5 715.5,-79.5"/>
<text text-anchor="middle" x="644" y="-67.5" font-family="Helvetica,sans-Serif" font-size="10.00">jsonrpc/client/request.hpp</text>
</a>
</g>
</g>
<!-- Node1&#45;&gt;Node13 -->
<g id="edge12_Node000001_Node000013" class="edge">
<title>Node1&#45;&gt;Node13</title>
<g id="a_edge12_Node000001_Node000013"><a xlink:title=" ">
<path fill="none" stroke="#63b8ff" d="M491.79,-120.95C526.74,-109.48 575.56,-93.46 608.4,-82.68"/>
<polygon fill="#63b8ff" stroke="#63b8ff" points="609.64,-85.96 618.05,-79.52 607.46,-79.31 609.64,-85.96"/>
</a>
</g>
</g>
<!-- Node15 -->
<g id="Node000015" class="node">
<title>Node15</title>
<g id="a_Node000015"><a xlink:href="client__transport_8hpp.html" target="_top" xlink:title=" ">
<polygon fill="white" stroke="#666666" points="516,-85 382,-85 382,-55 516,-55 516,-85"/>
<text text-anchor="start" x="390" y="-73" font-family="Helvetica,sans-Serif" font-size="10.00">jsonrpc/client/transports</text>
<text text-anchor="middle" x="449" y="-62" font-family="Helvetica,sans-Serif" font-size="10.00">/client_transport.hpp</text>
</a>
</g>
</g>
<!-- Node1&#45;&gt;Node15 -->
<g id="edge18_Node000001_Node000015" class="edge">
<title>Node1&#45;&gt;Node15</title>
<g id="a_edge18_Node000001_Node000015"><a xlink:title=" ">
<path fill="none" stroke="#63b8ff" d="M449,-120.8C449,-113.34 449,-103.99 449,-95.41"/>
<polygon fill="#63b8ff" stroke="#63b8ff" points="452.5,-95.16 449,-85.16 445.5,-95.16 452.5,-95.16"/>
</a>
</g>
</g>
<!-- Node13&#45;&gt;Node7 -->
<g id="edge14_Node000013_Node000007" class="edge">
<title>Node13&#45;&gt;Node7</title>
<g id="a_edge14_Node000013_Node000007"><a xlink:title=" ">
<path fill="none" stroke="#63b8ff" d="M610.7,-60.49C568.81,-49.79 497.04,-31.46 453.04,-20.22"/>
<polygon fill="#63b8ff" stroke="#63b8ff" points="453.84,-16.81 443.28,-17.73 452.11,-23.59 453.84,-16.81"/>
</a>
</g>
</g>
<!-- Node13&#45;&gt;Node8 -->
<g id="edge15_Node000013_Node000008" class="edge">
<title>Node13&#45;&gt;Node8</title>
<g id="a_edge15_Node000013_Node000008"><a xlink:title=" ">
<path fill="none" stroke="#63b8ff" d="M628.8,-60.37C611.99,-50.82 584.68,-35.31 564.98,-24.12"/>
<polygon fill="#63b8ff" stroke="#63b8ff" points="566.68,-21.06 556.26,-19.17 563.23,-27.15 566.68,-21.06"/>
</a>
</g>
</g>
<!-- Node13&#45;&gt;Node11 -->
<g id="edge16_Node000013_Node000011" class="edge">
<title>Node13&#45;&gt;Node11</title>
<g id="a_edge16_Node000013_Node000011"><a xlink:title=" ">
<path fill="none" stroke="#63b8ff" d="M650.49,-60.37C656.99,-51.73 667.16,-38.2 675.28,-27.42"/>
<polygon fill="#63b8ff" stroke="#63b8ff" points="678.27,-29.26 681.48,-19.17 672.67,-25.06 678.27,-29.26"/>
</a>
</g>
</g>
<!-- Node13&#45;&gt;Node12 -->
<g id="edge17_Node000013_Node000012" class="edge">
<title>Node13&#45;&gt;Node12</title>
<g id="a_edge17_Node000013_Node000012"><a xlink:title=" ">
<path fill="none" stroke="#63b8ff" d="M664.5,-60.49C688.31,-50.62 727.79,-34.23 755.04,-22.93"/>
<polygon fill="#63b8ff" stroke="#63b8ff" points="756.58,-26.08 764.47,-19.02 753.89,-19.62 756.58,-26.08"/>
</a>
</g>
</g>
<!-- Node14 -->
<g id="Node000014" class="node">
<title>Node14</title>
<g id="a_Node000014"><a xlink:title=" ">
<polygon fill="#e0e0e0" stroke="#999999" points="646.5,-19 581.5,-19 581.5,0 646.5,0 646.5,-19"/>
<text text-anchor="middle" x="614" y="-7" font-family="Helvetica,sans-Serif" font-size="10.00">functional</text>
</a>
</g>
</g>
<!-- Node13&#45;&gt;Node14 -->
<g id="edge13_Node000013_Node000014" class="edge">
<title>Node13&#45;&gt;Node14</title>
<g id="a_edge13_Node000013_Node000014"><a xlink:title=" ">
<path fill="none" stroke="#63b8ff" d="M639.57,-60.37C635.23,-51.9 628.48,-38.74 623.01,-28.07"/>
<polygon fill="#63b8ff" stroke="#63b8ff" points="626.12,-26.47 618.44,-19.17 619.89,-29.66 626.12,-26.47"/>
</a>
</g>
</g>
<!-- Node15&#45;&gt;Node8 -->
<g id="edge19_Node000015_Node000008" class="edge">
<title>Node15&#45;&gt;Node8</title>
<g id="a_edge19_Node000015_Node000008"><a xlink:title=" ">
<path fill="none" stroke="#63b8ff" d="M471.27,-54.84C485.67,-45.68 504.33,-33.82 518.73,-24.66"/>
<polygon fill="#63b8ff" stroke="#63b8ff" points="520.92,-27.41 527.48,-19.09 517.17,-21.51 520.92,-27.41"/>
</a>
</g>
</g>
</g>
</svg>
