<?xml version="1.0" encoding="UTF-8" standalone="no"?>
<!DOCTYPE svg PUBLIC "-//W3C//DTD SVG 1.1//EN"
 "http://www.w3.org/Graphics/SVG/1.1/DTD/svg11.dtd">
<!-- Generated by graphviz version 2.43.0 (0)
 -->
<!-- Title: include/jsonrpc/client/request.hpp Pages: 1 -->
<svg width="356pt" height="159pt"
 viewBox="0.00 0.00 356.00 159.00" xmlns="http://www.w3.org/2000/svg" xmlns:xlink="http://www.w3.org/1999/xlink">
<g id="graph0" class="graph" transform="scale(1 1) rotate(0) translate(4 155)">
<title>include/jsonrpc/client/request.hpp</title>
<!-- Node1 -->
<g id="Node000001" class="node">
<title>Node1</title>
<g id="a_Node000001"><a xlink:title=" ">
<polygon fill="#999999" stroke="#666666" points="277.5,-151 157.5,-151 157.5,-121 277.5,-121 277.5,-151"/>
<text text-anchor="start" x="165.5" y="-139" font-family="Helvetica,sans-Serif" font-size="10.00">include/jsonrpc/client</text>
<text text-anchor="middle" x="217.5" y="-128" font-family="Helvetica,sans-Serif" font-size="10.00">/request.hpp</text>
</a>
</g>
</g>
<!-- Node2 -->
<g id="Node000002" class="node">
<title>Node2</title>
<g id="a_Node000002"><a xlink:href="client_8hpp.html" target="_top" xlink:title=" ">
<polygon fill="white" stroke="#666666" points="208.5,-85 88.5,-85 88.5,-55 208.5,-55 208.5,-85"/>
<text text-anchor="start" x="96.5" y="-73" font-family="Helvetica,sans-Serif" font-size="10.00">include/jsonrpc/client</text>
<text text-anchor="middle" x="148.5" y="-62" font-family="Helvetica,sans-Serif" font-size="10.00">/client.hpp</text>
</a>
</g>
</g>
<!-- Node1&#45;&gt;Node2 -->
<g id="edge1_Node000001_Node000002" class="edge">
<title>Node1&#45;&gt;Node2</title>
<g id="a_edge1_Node000001_Node000002"><a xlink:title=" ">
<path fill="none" stroke="#63b8ff" d="M194.78,-113.92C184.6,-104.49 172.87,-93.61 163.77,-85.16"/>
<polygon fill="#63b8ff" stroke="#63b8ff" points="192.47,-116.56 202.19,-120.8 197.24,-111.43 192.47,-116.56"/>
</a>
</g>
</g>
<!-- Node5 -->
<g id="Node000005" class="node">
<title>Node5</title>
<g id="a_Node000005"><a xlink:href="client_2request_8cpp.html" target="_top" xlink:title=" ">
<polygon fill="white" stroke="#666666" points="348,-79.5 227,-79.5 227,-60.5 348,-60.5 348,-79.5"/>
<text text-anchor="middle" x="287.5" y="-67.5" font-family="Helvetica,sans-Serif" font-size="10.00">src/client/request.cpp</text>
</a>
</g>
</g>
<!-- Node1&#45;&gt;Node5 -->
<g id="edge4_Node000001_Node000005" class="edge">
<title>Node1&#45;&gt;Node5</title>
<g id="a_edge4_Node000001_Node000005"><a xlink:title=" ">
<path fill="none" stroke="#63b8ff" d="M240.54,-113.93C253.21,-102.35 268.24,-88.61 277.83,-79.84"/>
<polygon fill="#63b8ff" stroke="#63b8ff" points="238.05,-111.47 233.04,-120.8 242.78,-116.63 238.05,-111.47"/>
</a>
</g>
</g>
<!-- Node3 -->
<g id="Node000003" class="node">
<title>Node3</title>
<g id="a_Node000003"><a xlink:href="jsonrpc_8hpp.html" target="_top" xlink:title=" ">
<polygon fill="white" stroke="#666666" points="149,-19 0,-19 0,0 149,0 149,-19"/>
<text text-anchor="middle" x="74.5" y="-7" font-family="Helvetica,sans-Serif" font-size="10.00">include/jsonrpc/jsonrpc.hpp</text>
</a>
</g>
</g>
<!-- Node2&#45;&gt;Node3 -->
<g id="edge2_Node000002_Node000003" class="edge">
<title>Node2&#45;&gt;Node3</title>
<g id="a_edge2_Node000002_Node000003"><a xlink:title=" ">
<path fill="none" stroke="#63b8ff" d="M122.61,-48.53C109.93,-38.51 95.35,-26.98 85.59,-19.27"/>
<polygon fill="#63b8ff" stroke="#63b8ff" points="120.57,-51.38 130.59,-54.84 124.91,-45.89 120.57,-51.38"/>
</a>
</g>
</g>
<!-- Node4 -->
<g id="Node000004" class="node">
<title>Node4</title>
<g id="a_Node000004"><a xlink:href="client_8cpp.html" target="_top" xlink:title=" ">
<polygon fill="white" stroke="#666666" points="278,-19 167,-19 167,0 278,0 278,-19"/>
<text text-anchor="middle" x="222.5" y="-7" font-family="Helvetica,sans-Serif" font-size="10.00">src/client/client.cpp</text>
</a>
</g>
</g>
<!-- Node2&#45;&gt;Node4 -->
<g id="edge3_Node000002_Node000004" class="edge">
<title>Node2&#45;&gt;Node4</title>
<g id="a_edge3_Node000002_Node000004"><a xlink:title=" ">
<path fill="none" stroke="#63b8ff" d="M174.39,-48.53C187.07,-38.51 201.65,-26.98 211.41,-19.27"/>
<polygon fill="#63b8ff" stroke="#63b8ff" points="172.09,-45.89 166.41,-54.84 176.43,-51.38 172.09,-45.89"/>
</a>
</g>
</g>
</g>
</svg>
