<?xml version="1.0" encoding="UTF-8" standalone="no"?>
<!DOCTYPE svg PUBLIC "-//W3C//DTD SVG 1.1//EN"
 "http://www.w3.org/Graphics/SVG/1.1/DTD/svg11.dtd">
<!-- Generated by graphviz version 2.43.0 (0)
 -->
<!-- Title: src/client/client.cpp Pages: 1 -->
<svg width="1010pt" height="192pt"
 viewBox="0.00 0.00 1009.50 192.00" xmlns="http://www.w3.org/2000/svg" xmlns:xlink="http://www.w3.org/1999/xlink">
<g id="graph0" class="graph" transform="scale(1 1) rotate(0) translate(4 188)">
<title>src/client/client.cpp</title>
<!-- Node1 -->
<g id="Node000001" class="node">
<title>Node1</title>
<g id="a_Node000001"><a xlink:title=" ">
<polygon fill="#999999" stroke="#666666" points="585.5,-184 474.5,-184 474.5,-165 585.5,-165 585.5,-184"/>
<text text-anchor="middle" x="530" y="-172" font-family="Helvetica,sans-Serif" font-size="10.00">src/client/client.cpp</text>
</a>
</g>
</g>
<!-- Node2 -->
<g id="Node000002" class="node">
<title>Node2</title>
<g id="a_Node000002"><a xlink:href="client_8hpp.html" target="_top" xlink:title=" ">
<polygon fill="white" stroke="#666666" points="531.5,-129 398.5,-129 398.5,-110 531.5,-110 531.5,-129"/>
<text text-anchor="middle" x="465" y="-117" font-family="Helvetica,sans-Serif" font-size="10.00">jsonrpc/client/client.hpp</text>
</a>
</g>
</g>
<!-- Node1&#45;&gt;Node2 -->
<g id="edge1_Node000001_Node000002" class="edge">
<title>Node1&#45;&gt;Node2</title>
<g id="a_edge1_Node000001_Node000002"><a xlink:title=" ">
<path fill="none" stroke="#63b8ff" d="M519.56,-164.98C509.85,-157.07 495.18,-145.11 483.5,-135.58"/>
<polygon fill="#63b8ff" stroke="#63b8ff" points="485.6,-132.78 475.63,-129.17 481.17,-138.2 485.6,-132.78"/>
</a>
</g>
</g>
<!-- Node17 -->
<g id="Node000017" class="node">
<title>Node17</title>
<g id="a_Node000017"><a xlink:title=" ">
<polygon fill="#e0e0e0" stroke="#999999" points="642.5,-129 549.5,-129 549.5,-110 642.5,-110 642.5,-129"/>
<text text-anchor="middle" x="596" y="-117" font-family="Helvetica,sans-Serif" font-size="10.00">spdlog/spdlog.h</text>
</a>
</g>
</g>
<!-- Node1&#45;&gt;Node17 -->
<g id="edge21_Node000001_Node000017" class="edge">
<title>Node1&#45;&gt;Node17</title>
<g id="a_edge21_Node000001_Node000017"><a xlink:title=" ">
<path fill="none" stroke="#63b8ff" d="M540.6,-164.98C550.46,-157.07 565.35,-145.11 577.22,-135.58"/>
<polygon fill="#63b8ff" stroke="#63b8ff" points="579.6,-138.16 585.2,-129.17 575.21,-132.7 579.6,-138.16"/>
</a>
</g>
</g>
<!-- Node3 -->
<g id="Node000003" class="node">
<title>Node3</title>
<g id="a_Node000003"><a xlink:title=" ">
<polygon fill="#e0e0e0" stroke="#999999" points="50,-74 0,-74 0,-55 50,-55 50,-74"/>
<text text-anchor="middle" x="25" y="-62" font-family="Helvetica,sans-Serif" font-size="10.00">atomic</text>
</a>
</g>
</g>
<!-- Node2&#45;&gt;Node3 -->
<g id="edge2_Node000002_Node000003" class="edge">
<title>Node2&#45;&gt;Node3</title>
<g id="a_edge2_Node000002_Node000003"><a xlink:title=" ">
<path fill="none" stroke="#63b8ff" d="M398.15,-113.97C319.48,-108.01 184.82,-95.87 60.26,-73.99"/>
<polygon fill="#63b8ff" stroke="#63b8ff" points="60.63,-70.5 50.17,-72.2 59.4,-77.4 60.63,-70.5"/>
</a>
</g>
</g>
<!-- Node4 -->
<g id="Node000004" class="node">
<title>Node4</title>
<g id="a_Node000004"><a xlink:title=" ">
<polygon fill="#e0e0e0" stroke="#999999" points="120,-74 68,-74 68,-55 120,-55 120,-74"/>
<text text-anchor="middle" x="94" y="-62" font-family="Helvetica,sans-Serif" font-size="10.00">cassert</text>
</a>
</g>
</g>
<!-- Node2&#45;&gt;Node4 -->
<g id="edge3_Node000002_Node000004" class="edge">
<title>Node2&#45;&gt;Node4</title>
<g id="a_edge3_Node000002_Node000004"><a xlink:title=" ">
<path fill="none" stroke="#63b8ff" d="M398.37,-111.79C332.53,-104.69 228.78,-92.21 130.14,-74.04"/>
<polygon fill="#63b8ff" stroke="#63b8ff" points="130.78,-70.6 120.31,-72.21 129.5,-77.48 130.78,-70.6"/>
</a>
</g>
</g>
<!-- Node5 -->
<g id="Node000005" class="node">
<title>Node5</title>
<g id="a_Node000005"><a xlink:title=" ">
<polygon fill="#e0e0e0" stroke="#999999" points="184,-74 138,-74 138,-55 184,-55 184,-74"/>
<text text-anchor="middle" x="161" y="-62" font-family="Helvetica,sans-Serif" font-size="10.00">future</text>
</a>
</g>
</g>
<!-- Node2&#45;&gt;Node5 -->
<g id="edge4_Node000002_Node000005" class="edge">
<title>Node2&#45;&gt;Node5</title>
<g id="a_edge4_Node000002_Node000005"><a xlink:title=" ">
<path fill="none" stroke="#63b8ff" d="M402.01,-109.97C348.95,-102.38 270.85,-90.27 193.88,-74.01"/>
<polygon fill="#63b8ff" stroke="#63b8ff" points="194.52,-70.57 184.01,-71.9 193.05,-77.41 194.52,-70.57"/>
</a>
</g>
</g>
<!-- Node6 -->
<g id="Node000006" class="node">
<title>Node6</title>
<g id="a_Node000006"><a xlink:title=" ">
<polygon fill="#e0e0e0" stroke="#999999" points="260,-74 202,-74 202,-55 260,-55 260,-74"/>
<text text-anchor="middle" x="231" y="-62" font-family="Helvetica,sans-Serif" font-size="10.00">memory</text>
</a>
</g>
</g>
<!-- Node2&#45;&gt;Node6 -->
<g id="edge5_Node000002_Node000006" class="edge">
<title>Node2&#45;&gt;Node6</title>
<g id="a_edge5_Node000002_Node000006"><a xlink:title=" ">
<path fill="none" stroke="#63b8ff" d="M427.4,-109.98C384.23,-100.21 313.73,-84.24 269.98,-74.33"/>
<polygon fill="#63b8ff" stroke="#63b8ff" points="270.53,-70.86 260,-72.07 268.98,-77.69 270.53,-70.86"/>
</a>
</g>
</g>
<!-- Node7 -->
<g id="Node000007" class="node">
<title>Node7</title>
<g id="a_Node000007"><a xlink:title=" ">
<polygon fill="#e0e0e0" stroke="#999999" points="326,-74 278,-74 278,-55 326,-55 326,-74"/>
<text text-anchor="middle" x="302" y="-62" font-family="Helvetica,sans-Serif" font-size="10.00">mutex</text>
</a>
</g>
</g>
<!-- Node2&#45;&gt;Node7 -->
<g id="edge6_Node000002_Node000007" class="edge">
<title>Node2&#45;&gt;Node7</title>
<g id="a_edge6_Node000002_Node000007"><a xlink:title=" ">
<path fill="none" stroke="#63b8ff" d="M438.81,-109.98C410.92,-100.91 366.66,-86.52 336.07,-76.58"/>
<polygon fill="#63b8ff" stroke="#63b8ff" points="336.85,-73.15 326.26,-73.39 334.69,-79.81 336.85,-73.15"/>
</a>
</g>
</g>
<!-- Node8 -->
<g id="Node000008" class="node">
<title>Node8</title>
<g id="a_Node000008"><a xlink:title=" ">
<polygon fill="#e0e0e0" stroke="#999999" points="459,-19 403,-19 403,0 459,0 459,-19"/>
<text text-anchor="middle" x="431" y="-7" font-family="Helvetica,sans-Serif" font-size="10.00">optional</text>
</a>
</g>
</g>
<!-- Node2&#45;&gt;Node8 -->
<g id="edge7_Node000002_Node000008" class="edge">
<title>Node2&#45;&gt;Node8</title>
<g id="a_edge7_Node000002_Node000008"><a xlink:title=" ">
<path fill="none" stroke="#63b8ff" d="M424.8,-109.87C405.31,-103.45 383.64,-92.48 372,-74 359.84,-54.7 382.76,-36 403.49,-23.95"/>
<polygon fill="#63b8ff" stroke="#63b8ff" points="405.33,-26.93 412.42,-19.05 401.97,-20.79 405.33,-26.93"/>
</a>
</g>
</g>
<!-- Node9 -->
<g id="Node000009" class="node">
<title>Node9</title>
<g id="a_Node000009"><a xlink:title=" ">
<polygon fill="#e0e0e0" stroke="#999999" points="595,-19 551,-19 551,0 595,0 595,-19"/>
<text text-anchor="middle" x="573" y="-7" font-family="Helvetica,sans-Serif" font-size="10.00">string</text>
</a>
</g>
</g>
<!-- Node2&#45;&gt;Node9 -->
<g id="edge8_Node000002_Node000009" class="edge">
<title>Node2&#45;&gt;Node9</title>
<g id="a_edge8_Node000002_Node000009"><a xlink:title=" ">
<path fill="none" stroke="#63b8ff" d="M498.88,-109.92C518.57,-103.25 542.32,-92.02 557,-74 567.21,-61.47 571.01,-43.27 572.38,-29.56"/>
<polygon fill="#63b8ff" stroke="#63b8ff" points="575.89,-29.53 573.04,-19.33 568.9,-29.08 575.89,-29.53"/>
</a>
</g>
</g>
<!-- Node10 -->
<g id="Node000010" class="node">
<title>Node10</title>
<g id="a_Node000010"><a xlink:title=" ">
<polygon fill="#e0e0e0" stroke="#999999" points="890,-74 842,-74 842,-55 890,-55 890,-74"/>
<text text-anchor="middle" x="866" y="-62" font-family="Helvetica,sans-Serif" font-size="10.00">thread</text>
</a>
</g>
</g>
<!-- Node2&#45;&gt;Node10 -->
<g id="edge9_Node000002_Node000010" class="edge">
<title>Node2&#45;&gt;Node10</title>
<g id="a_edge9_Node000002_Node000010"><a xlink:title=" ">
<path fill="none" stroke="#63b8ff" d="M531.72,-110.68C628.54,-99.28 799.57,-78.91 828,-74 829.27,-73.78 830.57,-73.55 831.88,-73.3"/>
<polygon fill="#63b8ff" stroke="#63b8ff" points="832.85,-76.67 841.95,-71.25 831.45,-69.81 832.85,-76.67"/>
</a>
</g>
</g>
<!-- Node11 -->
<g id="Node000011" class="node">
<title>Node11</title>
<g id="a_Node000011"><a xlink:title=" ">
<polygon fill="#e0e0e0" stroke="#999999" points="1001.5,-74 908.5,-74 908.5,-55 1001.5,-55 1001.5,-74"/>
<text text-anchor="middle" x="955" y="-62" font-family="Helvetica,sans-Serif" font-size="10.00">unordered_map</text>
</a>
</g>
</g>
<!-- Node2&#45;&gt;Node11 -->
<g id="edge10_Node000002_Node000011" class="edge">
<title>Node2&#45;&gt;Node11</title>
<g id="a_edge10_Node000002_Node000011"><a xlink:title=" ">
<path fill="none" stroke="#63b8ff" d="M531.65,-110.9C534.47,-110.59 537.26,-110.29 540,-110 696.18,-93.32 738.19,-94 898.07,-74.05"/>
<polygon fill="#63b8ff" stroke="#63b8ff" points="898.79,-77.49 908.27,-72.77 897.92,-70.55 898.79,-77.49"/>
</a>
</g>
</g>
<!-- Node12 -->
<g id="Node000012" class="node">
<title>Node12</title>
<g id="a_Node000012"><a xlink:title=" ">
<polygon fill="#e0e0e0" stroke="#999999" points="743.5,-19 696.5,-19 696.5,0 743.5,0 743.5,-19"/>
<text text-anchor="middle" x="720" y="-7" font-family="Helvetica,sans-Serif" font-size="10.00">vector</text>
</a>
</g>
</g>
<!-- Node2&#45;&gt;Node12 -->
<g id="edge11_Node000002_Node000012" class="edge">
<title>Node2&#45;&gt;Node12</title>
<g id="a_edge11_Node000002_Node000012"><a xlink:title=" ">
<path fill="none" stroke="#63b8ff" d="M531.65,-110.55C615.54,-100.23 749.68,-82.52 757,-74 769.7,-59.22 754.08,-39.48 739.41,-25.95"/>
<polygon fill="#63b8ff" stroke="#63b8ff" points="741.39,-23.04 731.54,-19.15 736.82,-28.34 741.39,-23.04"/>
</a>
</g>
</g>
<!-- Node13 -->
<g id="Node000013" class="node">
<title>Node13</title>
<g id="a_Node000013"><a xlink:title=" ">
<polygon fill="#e0e0e0" stroke="#999999" points="872,-19 762,-19 762,0 872,0 872,-19"/>
<text text-anchor="middle" x="817" y="-7" font-family="Helvetica,sans-Serif" font-size="10.00">nlohmann/json.hpp</text>
</a>
</g>
</g>
<!-- Node2&#45;&gt;Node13 -->
<g id="edge12_Node000002_Node000013" class="edge">
<title>Node2&#45;&gt;Node13</title>
<g id="a_edge12_Node000002_Node000013"><a xlink:title=" ">
<path fill="none" stroke="#63b8ff" d="M531.62,-110.25C619.08,-99.21 762.82,-80.3 773,-74 790.24,-63.33 802.46,-43.13 809.57,-28.37"/>
<polygon fill="#63b8ff" stroke="#63b8ff" points="812.79,-29.76 813.69,-19.2 806.4,-26.89 812.79,-29.76"/>
</a>
</g>
</g>
<!-- Node14 -->
<g id="Node000014" class="node">
<title>Node14</title>
<g id="a_Node000014"><a xlink:href="client_2request_8hpp.html" target="_top" xlink:title=" ">
<polygon fill="white" stroke="#666666" points="747.5,-74 604.5,-74 604.5,-55 747.5,-55 747.5,-74"/>
<text text-anchor="middle" x="676" y="-62" font-family="Helvetica,sans-Serif" font-size="10.00">jsonrpc/client/request.hpp</text>
</a>
</g>
</g>
<!-- Node2&#45;&gt;Node14 -->
<g id="edge13_Node000002_Node000014" class="edge">
<title>Node2&#45;&gt;Node14</title>
<g id="a_edge13_Node000002_Node000014"><a xlink:title=" ">
<path fill="none" stroke="#63b8ff" d="M498.9,-109.98C535.02,-100.91 592.32,-86.52 631.92,-76.57"/>
<polygon fill="#63b8ff" stroke="#63b8ff" points="632.99,-79.91 641.83,-74.08 631.28,-73.12 632.99,-79.91"/>
</a>
</g>
</g>
<!-- Node16 -->
<g id="Node000016" class="node">
<title>Node16</title>
<g id="a_Node000016"><a xlink:href="transport_8hpp.html" target="_top" xlink:title=" ">
<polygon fill="white" stroke="#666666" points="548.5,-74 381.5,-74 381.5,-55 548.5,-55 548.5,-74"/>
<text text-anchor="middle" x="465" y="-62" font-family="Helvetica,sans-Serif" font-size="10.00">jsonrpc/transport/transport.hpp</text>
</a>
</g>
</g>
<!-- Node2&#45;&gt;Node16 -->
<g id="edge19_Node000002_Node000016" class="edge">
<title>Node2&#45;&gt;Node16</title>
<g id="a_edge19_Node000002_Node000016"><a xlink:title=" ">
<path fill="none" stroke="#63b8ff" d="M465,-109.75C465,-102.8 465,-92.85 465,-84.13"/>
<polygon fill="#63b8ff" stroke="#63b8ff" points="468.5,-84.09 465,-74.09 461.5,-84.09 468.5,-84.09"/>
</a>
</g>
</g>
<!-- Node14&#45;&gt;Node8 -->
<g id="edge15_Node000014_Node000008" class="edge">
<title>Node14&#45;&gt;Node8</title>
<g id="a_edge15_Node000014_Node000008"><a xlink:title=" ">
<path fill="none" stroke="#63b8ff" d="M636.64,-54.98C590.48,-45 514.52,-28.57 468.98,-18.72"/>
<polygon fill="#63b8ff" stroke="#63b8ff" points="469.71,-15.29 459.19,-16.6 468.23,-22.13 469.71,-15.29"/>
</a>
</g>
</g>
<!-- Node14&#45;&gt;Node9 -->
<g id="edge16_Node000014_Node000009" class="edge">
<title>Node14&#45;&gt;Node9</title>
<g id="a_edge16_Node000014_Node000009"><a xlink:title=" ">
<path fill="none" stroke="#63b8ff" d="M659.45,-54.98C643.11,-46.57 617.87,-33.59 598.87,-23.81"/>
<polygon fill="#63b8ff" stroke="#63b8ff" points="600.34,-20.63 589.85,-19.17 597.14,-26.86 600.34,-20.63"/>
</a>
</g>
</g>
<!-- Node14&#45;&gt;Node12 -->
<g id="edge17_Node000014_Node000012" class="edge">
<title>Node14&#45;&gt;Node12</title>
<g id="a_edge17_Node000014_Node000012"><a xlink:title=" ">
<path fill="none" stroke="#63b8ff" d="M683.27,-54.75C689.54,-47.18 698.79,-36.05 706.43,-26.84"/>
<polygon fill="#63b8ff" stroke="#63b8ff" points="709.17,-29.02 712.87,-19.09 703.79,-24.55 709.17,-29.02"/>
</a>
</g>
</g>
<!-- Node14&#45;&gt;Node13 -->
<g id="edge18_Node000014_Node000013" class="edge">
<title>Node14&#45;&gt;Node13</title>
<g id="a_edge18_Node000014_Node000013"><a xlink:title=" ">
<path fill="none" stroke="#63b8ff" d="M698.65,-54.98C721.85,-46.27 758.12,-32.63 784.4,-22.75"/>
<polygon fill="#63b8ff" stroke="#63b8ff" points="785.8,-25.97 793.93,-19.17 783.34,-19.41 785.8,-25.97"/>
</a>
</g>
</g>
<!-- Node15 -->
<g id="Node000015" class="node">
<title>Node15</title>
<g id="a_Node000015"><a xlink:title=" ">
<polygon fill="#e0e0e0" stroke="#999999" points="678.5,-19 613.5,-19 613.5,0 678.5,0 678.5,-19"/>
<text text-anchor="middle" x="646" y="-7" font-family="Helvetica,sans-Serif" font-size="10.00">functional</text>
</a>
</g>
</g>
<!-- Node14&#45;&gt;Node15 -->
<g id="edge14_Node000014_Node000015" class="edge">
<title>Node14&#45;&gt;Node15</title>
<g id="a_edge14_Node000014_Node000015"><a xlink:title=" ">
<path fill="none" stroke="#63b8ff" d="M671.05,-54.75C666.94,-47.49 660.97,-36.95 655.9,-27.98"/>
<polygon fill="#63b8ff" stroke="#63b8ff" points="658.83,-26.07 650.86,-19.09 652.74,-29.52 658.83,-26.07"/>
</a>
</g>
</g>
<!-- Node16&#45;&gt;Node9 -->
<g id="edge20_Node000016_Node000009" class="edge">
<title>Node16&#45;&gt;Node9</title>
<g id="a_edge20_Node000016_Node000009"><a xlink:title=" ">
<path fill="none" stroke="#63b8ff" d="M482.35,-54.98C499.57,-46.54 526.2,-33.47 546.15,-23.68"/>
<polygon fill="#63b8ff" stroke="#63b8ff" points="547.9,-26.72 555.33,-19.17 544.81,-20.43 547.9,-26.72"/>
</a>
</g>
</g>
</g>
</svg>
