<?xml version="1.0" encoding="UTF-8" standalone="no"?>
<!DOCTYPE svg PUBLIC "-//W3C//DTD SVG 1.1//EN"
 "http://www.w3.org/Graphics/SVG/1.1/DTD/svg11.dtd">
<!-- Generated by graphviz version 2.43.0 (0)
 -->
<!-- Title: src/client/client.cpp Pages: 1 -->
<svg width="908pt" height="203pt"
 viewBox="0.00 0.00 907.50 203.00" xmlns="http://www.w3.org/2000/svg" xmlns:xlink="http://www.w3.org/1999/xlink">
<g id="graph0" class="graph" transform="scale(1 1) rotate(0) translate(4 199)">
<title>src/client/client.cpp</title>
<!-- Node1 -->
<g id="Node000001" class="node">
<title>Node1</title>
<g id="a_Node000001"><a xlink:title=" ">
<polygon fill="#999999" stroke="#666666" points="489.5,-195 378.5,-195 378.5,-176 489.5,-176 489.5,-195"/>
<text text-anchor="middle" x="434" y="-183" font-family="Helvetica,sans-Serif" font-size="10.00">src/client/client.cpp</text>
</a>
</g>
</g>
<!-- Node2 -->
<g id="Node000002" class="node">
<title>Node2</title>
<g id="a_Node000002"><a xlink:href="client_8hpp.html" target="_top" xlink:title=" ">
<polygon fill="white" stroke="#666666" points="435.5,-140 302.5,-140 302.5,-121 435.5,-121 435.5,-140"/>
<text text-anchor="middle" x="369" y="-128" font-family="Helvetica,sans-Serif" font-size="10.00">jsonrpc/client/client.hpp</text>
</a>
</g>
</g>
<!-- Node1&#45;&gt;Node2 -->
<g id="edge1_Node000001_Node000002" class="edge">
<title>Node1&#45;&gt;Node2</title>
<g id="a_edge1_Node000001_Node000002"><a xlink:title=" ">
<path fill="none" stroke="#63b8ff" d="M423.56,-175.98C413.85,-168.07 399.18,-156.11 387.5,-146.58"/>
<polygon fill="#63b8ff" stroke="#63b8ff" points="389.6,-143.78 379.63,-140.17 385.17,-149.2 389.6,-143.78"/>
</a>
</g>
</g>
<!-- Node16 -->
<g id="Node000016" class="node">
<title>Node16</title>
<g id="a_Node000016"><a xlink:title=" ">
<polygon fill="#e0e0e0" stroke="#999999" points="546.5,-140 453.5,-140 453.5,-121 546.5,-121 546.5,-140"/>
<text text-anchor="middle" x="500" y="-128" font-family="Helvetica,sans-Serif" font-size="10.00">spdlog/spdlog.h</text>
</a>
</g>
</g>
<!-- Node1&#45;&gt;Node16 -->
<g id="edge20_Node000001_Node000016" class="edge">
<title>Node1&#45;&gt;Node16</title>
<g id="a_edge20_Node000001_Node000016"><a xlink:title=" ">
<path fill="none" stroke="#63b8ff" d="M444.6,-175.98C454.46,-168.07 469.35,-156.11 481.22,-146.58"/>
<polygon fill="#63b8ff" stroke="#63b8ff" points="483.6,-149.16 489.2,-140.17 479.21,-143.7 483.6,-149.16"/>
</a>
</g>
</g>
<!-- Node3 -->
<g id="Node000003" class="node">
<title>Node3</title>
<g id="a_Node000003"><a xlink:title=" ">
<polygon fill="#e0e0e0" stroke="#999999" points="50,-79.5 0,-79.5 0,-60.5 50,-60.5 50,-79.5"/>
<text text-anchor="middle" x="25" y="-67.5" font-family="Helvetica,sans-Serif" font-size="10.00">atomic</text>
</a>
</g>
</g>
<!-- Node2&#45;&gt;Node3 -->
<g id="edge2_Node000002_Node000003" class="edge">
<title>Node2&#45;&gt;Node3</title>
<g id="a_edge2_Node000002_Node000003"><a xlink:title=" ">
<path fill="none" stroke="#63b8ff" d="M302.42,-124.74C238.97,-119.09 141.22,-107.45 59,-85 57.06,-84.47 55.08,-83.86 53.11,-83.19"/>
<polygon fill="#63b8ff" stroke="#63b8ff" points="54.01,-79.79 43.42,-79.55 51.55,-86.35 54.01,-79.79"/>
</a>
</g>
</g>
<!-- Node4 -->
<g id="Node000004" class="node">
<title>Node4</title>
<g id="a_Node000004"><a xlink:title=" ">
<polygon fill="#e0e0e0" stroke="#999999" points="114,-79.5 68,-79.5 68,-60.5 114,-60.5 114,-79.5"/>
<text text-anchor="middle" x="91" y="-67.5" font-family="Helvetica,sans-Serif" font-size="10.00">future</text>
</a>
</g>
</g>
<!-- Node2&#45;&gt;Node4 -->
<g id="edge3_Node000002_Node000004" class="edge">
<title>Node2&#45;&gt;Node4</title>
<g id="a_edge3_Node000002_Node000004"><a xlink:title=" ">
<path fill="none" stroke="#63b8ff" d="M302.49,-121.75C252.42,-114.89 182.47,-103.12 123,-85 121.36,-84.5 119.7,-83.94 118.04,-83.34"/>
<polygon fill="#63b8ff" stroke="#63b8ff" points="119.25,-80.06 108.66,-79.6 116.65,-86.56 119.25,-80.06"/>
</a>
</g>
</g>
<!-- Node5 -->
<g id="Node000005" class="node">
<title>Node5</title>
<g id="a_Node000005"><a xlink:title=" ">
<polygon fill="#e0e0e0" stroke="#999999" points="190,-79.5 132,-79.5 132,-60.5 190,-60.5 190,-79.5"/>
<text text-anchor="middle" x="161" y="-67.5" font-family="Helvetica,sans-Serif" font-size="10.00">memory</text>
</a>
</g>
</g>
<!-- Node2&#45;&gt;Node5 -->
<g id="edge4_Node000002_Node000005" class="edge">
<title>Node2&#45;&gt;Node5</title>
<g id="a_edge4_Node000002_Node000005"><a xlink:title=" ">
<path fill="none" stroke="#63b8ff" d="M332.23,-120.97C297.6,-112.67 244.4,-99.27 199,-85 196.87,-84.33 194.69,-83.61 192.5,-82.87"/>
<polygon fill="#63b8ff" stroke="#63b8ff" points="193.57,-79.54 182.98,-79.51 191.24,-86.14 193.57,-79.54"/>
</a>
</g>
</g>
<!-- Node6 -->
<g id="Node000006" class="node">
<title>Node6</title>
<g id="a_Node000006"><a xlink:title=" ">
<polygon fill="#e0e0e0" stroke="#999999" points="256,-79.5 208,-79.5 208,-60.5 256,-60.5 256,-79.5"/>
<text text-anchor="middle" x="232" y="-67.5" font-family="Helvetica,sans-Serif" font-size="10.00">mutex</text>
</a>
</g>
</g>
<!-- Node2&#45;&gt;Node6 -->
<g id="edge5_Node000002_Node000006" class="edge">
<title>Node2&#45;&gt;Node6</title>
<g id="a_edge5_Node000002_Node000006"><a xlink:title=" ">
<path fill="none" stroke="#63b8ff" d="M349.08,-120.99C326.05,-111.16 287.92,-94.88 261.46,-83.58"/>
<polygon fill="#63b8ff" stroke="#63b8ff" points="262.52,-80.22 251.95,-79.52 259.77,-86.66 262.52,-80.22"/>
</a>
</g>
</g>
<!-- Node7 -->
<g id="Node000007" class="node">
<title>Node7</title>
<g id="a_Node000007"><a xlink:title=" ">
<polygon fill="#e0e0e0" stroke="#999999" points="345,-19 289,-19 289,0 345,0 345,-19"/>
<text text-anchor="middle" x="317" y="-7" font-family="Helvetica,sans-Serif" font-size="10.00">optional</text>
</a>
</g>
</g>
<!-- Node2&#45;&gt;Node7 -->
<g id="edge6_Node000002_Node000007" class="edge">
<title>Node2&#45;&gt;Node7</title>
<g id="a_edge6_Node000002_Node000007"><a xlink:title=" ">
<path fill="none" stroke="#63b8ff" d="M359.87,-120.84C351.59,-112.45 339.69,-98.99 333,-85 324.46,-67.14 320.44,-44.69 318.57,-29.13"/>
<polygon fill="#63b8ff" stroke="#63b8ff" points="322.05,-28.78 317.55,-19.18 315.09,-29.49 322.05,-28.78"/>
</a>
</g>
</g>
<!-- Node8 -->
<g id="Node000008" class="node">
<title>Node8</title>
<g id="a_Node000008"><a xlink:title=" ">
<polygon fill="#e0e0e0" stroke="#999999" points="439,-19 395,-19 395,0 439,0 439,-19"/>
<text text-anchor="middle" x="417" y="-7" font-family="Helvetica,sans-Serif" font-size="10.00">string</text>
</a>
</g>
</g>
<!-- Node2&#45;&gt;Node8 -->
<g id="edge7_Node000002_Node000008" class="edge">
<title>Node2&#45;&gt;Node8</title>
<g id="a_edge7_Node000002_Node000008"><a xlink:title=" ">
<path fill="none" stroke="#63b8ff" d="M361,-120.84C348.79,-106.52 328.22,-77.3 341,-55 350.51,-38.41 368.86,-27.41 385.15,-20.5"/>
<polygon fill="#63b8ff" stroke="#63b8ff" points="386.87,-23.59 394.93,-16.71 384.34,-17.06 386.87,-23.59"/>
</a>
</g>
</g>
<!-- Node9 -->
<g id="Node000009" class="node">
<title>Node9</title>
<g id="a_Node000009"><a xlink:title=" ">
<polygon fill="#e0e0e0" stroke="#999999" points="788,-79.5 740,-79.5 740,-60.5 788,-60.5 788,-79.5"/>
<text text-anchor="middle" x="764" y="-67.5" font-family="Helvetica,sans-Serif" font-size="10.00">thread</text>
</a>
</g>
</g>
<!-- Node2&#45;&gt;Node9 -->
<g id="edge8_Node000002_Node000009" class="edge">
<title>Node2&#45;&gt;Node9</title>
<g id="a_edge8_Node000002_Node000009"><a xlink:title=" ">
<path fill="none" stroke="#63b8ff" d="M435.74,-121.58C535.17,-109.72 712.1,-88.38 726,-85 728.51,-84.39 731.08,-83.67 733.65,-82.87"/>
<polygon fill="#63b8ff" stroke="#63b8ff" points="735.02,-86.11 743.36,-79.58 732.77,-79.48 735.02,-86.11"/>
</a>
</g>
</g>
<!-- Node10 -->
<g id="Node000010" class="node">
<title>Node10</title>
<g id="a_Node000010"><a xlink:title=" ">
<polygon fill="#e0e0e0" stroke="#999999" points="899.5,-79.5 806.5,-79.5 806.5,-60.5 899.5,-60.5 899.5,-79.5"/>
<text text-anchor="middle" x="853" y="-67.5" font-family="Helvetica,sans-Serif" font-size="10.00">unordered_map</text>
</a>
</g>
</g>
<!-- Node2&#45;&gt;Node10 -->
<g id="edge9_Node000002_Node000010" class="edge">
<title>Node2&#45;&gt;Node10</title>
<g id="a_edge9_Node000002_Node000010"><a xlink:title=" ">
<path fill="none" stroke="#63b8ff" d="M435.65,-121.91C438.47,-121.6 441.26,-121.29 444,-121 600.8,-104.12 641.66,-112.19 797,-85 802.05,-84.12 807.32,-83.02 812.52,-81.85"/>
<polygon fill="#63b8ff" stroke="#63b8ff" points="813.44,-85.22 822.36,-79.5 811.82,-78.42 813.44,-85.22"/>
</a>
</g>
</g>
<!-- Node11 -->
<g id="Node000011" class="node">
<title>Node11</title>
<g id="a_Node000011"><a xlink:title=" ">
<polygon fill="#e0e0e0" stroke="#999999" points="638.5,-19 591.5,-19 591.5,0 638.5,0 638.5,-19"/>
<text text-anchor="middle" x="615" y="-7" font-family="Helvetica,sans-Serif" font-size="10.00">vector</text>
</a>
</g>
</g>
<!-- Node2&#45;&gt;Node11 -->
<g id="edge10_Node000002_Node000011" class="edge">
<title>Node2&#45;&gt;Node11</title>
<g id="a_edge10_Node000002_Node000011"><a xlink:title=" ">
<path fill="none" stroke="#63b8ff" d="M435.69,-121.33C517.95,-110.93 647.88,-93.31 655,-85 670.43,-66.99 650.45,-42.04 633.61,-26.08"/>
<polygon fill="#63b8ff" stroke="#63b8ff" points="635.55,-23.11 625.77,-19.04 630.87,-28.32 635.55,-23.11"/>
</a>
</g>
</g>
<!-- Node12 -->
<g id="Node000012" class="node">
<title>Node12</title>
<g id="a_Node000012"><a xlink:title=" ">
<polygon fill="#e0e0e0" stroke="#999999" points="767,-19 657,-19 657,0 767,0 767,-19"/>
<text text-anchor="middle" x="712" y="-7" font-family="Helvetica,sans-Serif" font-size="10.00">nlohmann/json.hpp</text>
</a>
</g>
</g>
<!-- Node2&#45;&gt;Node12 -->
<g id="edge11_Node000002_Node000012" class="edge">
<title>Node2&#45;&gt;Node12</title>
<g id="a_edge11_Node000002_Node000012"><a xlink:title=" ">
<path fill="none" stroke="#63b8ff" d="M435.51,-121.22C521.48,-110.3 661.4,-91.67 671,-85 690.28,-71.61 701.43,-46.11 707.11,-28.72"/>
<polygon fill="#63b8ff" stroke="#63b8ff" points="710.47,-29.69 709.96,-19.11 703.76,-27.7 710.47,-29.69"/>
</a>
</g>
</g>
<!-- Node13 -->
<g id="Node000013" class="node">
<title>Node13</title>
<g id="a_Node000013"><a xlink:href="client_2request_8hpp.html" target="_top" xlink:title=" ">
<polygon fill="white" stroke="#666666" points="645.5,-79.5 502.5,-79.5 502.5,-60.5 645.5,-60.5 645.5,-79.5"/>
<text text-anchor="middle" x="574" y="-67.5" font-family="Helvetica,sans-Serif" font-size="10.00">jsonrpc/client/request.hpp</text>
</a>
</g>
</g>
<!-- Node2&#45;&gt;Node13 -->
<g id="edge12_Node000002_Node000013" class="edge">
<title>Node2&#45;&gt;Node13</title>
<g id="a_edge12_Node000002_Node000013"><a xlink:title=" ">
<path fill="none" stroke="#63b8ff" d="M398.81,-120.99C434.56,-110.79 494.63,-93.65 534.29,-82.33"/>
<polygon fill="#63b8ff" stroke="#63b8ff" points="535.5,-85.63 544.16,-79.52 533.58,-78.9 535.5,-85.63"/>
</a>
</g>
</g>
<!-- Node15 -->
<g id="Node000015" class="node">
<title>Node15</title>
<g id="a_Node000015"><a xlink:href="client__transport_8hpp.html" target="_top" xlink:title=" ">
<polygon fill="white" stroke="#666666" points="484,-85 350,-85 350,-55 484,-55 484,-85"/>
<text text-anchor="start" x="358" y="-73" font-family="Helvetica,sans-Serif" font-size="10.00">jsonrpc/client/transports</text>
<text text-anchor="middle" x="417" y="-62" font-family="Helvetica,sans-Serif" font-size="10.00">/client_transport.hpp</text>
</a>
</g>
</g>
<!-- Node2&#45;&gt;Node15 -->
<g id="edge18_Node000002_Node000015" class="edge">
<title>Node2&#45;&gt;Node15</title>
<g id="a_edge18_Node000002_Node000015"><a xlink:title=" ">
<path fill="none" stroke="#63b8ff" d="M376.08,-120.87C382.11,-113.52 391.04,-102.63 399.02,-92.91"/>
<polygon fill="#63b8ff" stroke="#63b8ff" points="401.78,-95.07 405.42,-85.11 396.37,-90.63 401.78,-95.07"/>
</a>
</g>
</g>
<!-- Node13&#45;&gt;Node7 -->
<g id="edge14_Node000013_Node000007" class="edge">
<title>Node13&#45;&gt;Node7</title>
<g id="a_edge14_Node000013_Node000007"><a xlink:title=" ">
<path fill="none" stroke="#63b8ff" d="M536.63,-60.49C488.15,-49.46 404.02,-30.31 355.16,-19.19"/>
<polygon fill="#63b8ff" stroke="#63b8ff" points="355.82,-15.75 345.29,-16.94 354.27,-22.57 355.82,-15.75"/>
</a>
</g>
</g>
<!-- Node13&#45;&gt;Node8 -->
<g id="edge15_Node000013_Node000008" class="edge">
<title>Node13&#45;&gt;Node8</title>
<g id="a_edge15_Node000013_Node000008"><a xlink:title=" ">
<path fill="none" stroke="#63b8ff" d="M551.17,-60.49C524.28,-50.47 479.42,-33.76 449.05,-22.44"/>
<polygon fill="#63b8ff" stroke="#63b8ff" points="449.94,-19.04 439.35,-18.83 447.5,-25.6 449.94,-19.04"/>
</a>
</g>
</g>
<!-- Node13&#45;&gt;Node11 -->
<g id="edge16_Node000013_Node000011" class="edge">
<title>Node13&#45;&gt;Node11</title>
<g id="a_edge16_Node000013_Node000011"><a xlink:title=" ">
<path fill="none" stroke="#63b8ff" d="M580.05,-60.37C586.11,-51.73 595.59,-38.2 603.14,-27.42"/>
<polygon fill="#63b8ff" stroke="#63b8ff" points="606.05,-29.37 608.93,-19.17 600.32,-25.35 606.05,-29.37"/>
</a>
</g>
</g>
<!-- Node13&#45;&gt;Node12 -->
<g id="edge17_Node000013_Node000012" class="edge">
<title>Node13&#45;&gt;Node12</title>
<g id="a_edge17_Node000013_Node000012"><a xlink:title=" ">
<path fill="none" stroke="#63b8ff" d="M594.07,-60.49C617.37,-50.62 656.01,-34.23 682.68,-22.93"/>
<polygon fill="#63b8ff" stroke="#63b8ff" points="684.07,-26.14 691.91,-19.02 681.34,-19.7 684.07,-26.14"/>
</a>
</g>
</g>
<!-- Node14 -->
<g id="Node000014" class="node">
<title>Node14</title>
<g id="a_Node000014"><a xlink:title=" ">
<polygon fill="#e0e0e0" stroke="#999999" points="573.5,-19 508.5,-19 508.5,0 573.5,0 573.5,-19"/>
<text text-anchor="middle" x="541" y="-7" font-family="Helvetica,sans-Serif" font-size="10.00">functional</text>
</a>
</g>
</g>
<!-- Node13&#45;&gt;Node14 -->
<g id="edge13_Node000013_Node000014" class="edge">
<title>Node13&#45;&gt;Node14</title>
<g id="a_edge13_Node000013_Node000014"><a xlink:title=" ">
<path fill="none" stroke="#63b8ff" d="M569.13,-60.37C564.35,-51.9 556.93,-38.74 550.91,-28.07"/>
<polygon fill="#63b8ff" stroke="#63b8ff" points="553.85,-26.16 545.89,-19.17 547.75,-29.6 553.85,-26.16"/>
</a>
</g>
</g>
<!-- Node15&#45;&gt;Node8 -->
<g id="edge19_Node000015_Node000008" class="edge">
<title>Node15&#45;&gt;Node8</title>
<g id="a_edge19_Node000015_Node000008"><a xlink:title=" ">
<path fill="none" stroke="#63b8ff" d="M417,-54.84C417,-47.21 417,-37.7 417,-29.45"/>
<polygon fill="#63b8ff" stroke="#63b8ff" points="420.5,-29.27 417,-19.27 413.5,-29.27 420.5,-29.27"/>
</a>
</g>
</g>
</g>
</svg>
