<?xml version="1.0" encoding="UTF-8" standalone="no"?>
<!DOCTYPE svg PUBLIC "-//W3C//DTD SVG 1.1//EN"
 "http://www.w3.org/Graphics/SVG/1.1/DTD/svg11.dtd">
<!-- Generated by graphviz version 2.43.0 (0)
 -->
<!-- Title: src/client/client.cpp Pages: 1 -->
<svg width="978pt" height="203pt"
 viewBox="0.00 0.00 977.50 203.00" xmlns="http://www.w3.org/2000/svg" xmlns:xlink="http://www.w3.org/1999/xlink">
<g id="graph0" class="graph" transform="scale(1 1) rotate(0) translate(4 199)">
<title>src/client/client.cpp</title>
<!-- Node1 -->
<g id="Node000001" class="node">
<title>Node1</title>
<g id="a_Node000001"><a xlink:title=" ">
<polygon fill="#999999" stroke="#666666" points="569.5,-195 458.5,-195 458.5,-176 569.5,-176 569.5,-195"/>
<text text-anchor="middle" x="514" y="-183" font-family="Helvetica,sans-Serif" font-size="10.00">src/client/client.cpp</text>
</a>
</g>
</g>
<!-- Node2 -->
<g id="Node000002" class="node">
<title>Node2</title>
<g id="a_Node000002"><a xlink:href="client_8hpp.html" target="_top" xlink:title=" ">
<polygon fill="white" stroke="#666666" points="515.5,-140 382.5,-140 382.5,-121 515.5,-121 515.5,-140"/>
<text text-anchor="middle" x="449" y="-128" font-family="Helvetica,sans-Serif" font-size="10.00">jsonrpc/client/client.hpp</text>
</a>
</g>
</g>
<!-- Node1&#45;&gt;Node2 -->
<g id="edge1_Node000001_Node000002" class="edge">
<title>Node1&#45;&gt;Node2</title>
<g id="a_edge1_Node000001_Node000002"><a xlink:title=" ">
<path fill="none" stroke="#63b8ff" d="M503.56,-175.98C493.85,-168.07 479.18,-156.11 467.5,-146.58"/>
<polygon fill="#63b8ff" stroke="#63b8ff" points="469.6,-143.78 459.63,-140.17 465.17,-149.2 469.6,-143.78"/>
</a>
</g>
</g>
<!-- Node17 -->
<g id="Node000017" class="node">
<title>Node17</title>
<g id="a_Node000017"><a xlink:title=" ">
<polygon fill="#e0e0e0" stroke="#999999" points="626.5,-140 533.5,-140 533.5,-121 626.5,-121 626.5,-140"/>
<text text-anchor="middle" x="580" y="-128" font-family="Helvetica,sans-Serif" font-size="10.00">spdlog/spdlog.h</text>
</a>
</g>
</g>
<!-- Node1&#45;&gt;Node17 -->
<g id="edge21_Node000001_Node000017" class="edge">
<title>Node1&#45;&gt;Node17</title>
<g id="a_edge21_Node000001_Node000017"><a xlink:title=" ">
<path fill="none" stroke="#63b8ff" d="M524.6,-175.98C534.46,-168.07 549.35,-156.11 561.22,-146.58"/>
<polygon fill="#63b8ff" stroke="#63b8ff" points="563.6,-149.16 569.2,-140.17 559.21,-143.7 563.6,-149.16"/>
</a>
</g>
</g>
<!-- Node3 -->
<g id="Node000003" class="node">
<title>Node3</title>
<g id="a_Node000003"><a xlink:title=" ">
<polygon fill="#e0e0e0" stroke="#999999" points="50,-79.5 0,-79.5 0,-60.5 50,-60.5 50,-79.5"/>
<text text-anchor="middle" x="25" y="-67.5" font-family="Helvetica,sans-Serif" font-size="10.00">atomic</text>
</a>
</g>
</g>
<!-- Node2&#45;&gt;Node3 -->
<g id="edge2_Node000002_Node000003" class="edge">
<title>Node2&#45;&gt;Node3</title>
<g id="a_edge2_Node000002_Node000003"><a xlink:title=" ">
<path fill="none" stroke="#63b8ff" d="M382.43,-127.5C303.98,-123.86 170.2,-113.64 59,-85 56.84,-84.44 54.64,-83.78 52.44,-83.04"/>
<polygon fill="#63b8ff" stroke="#63b8ff" points="53.63,-79.75 43.03,-79.51 51.16,-86.3 53.63,-79.75"/>
</a>
</g>
</g>
<!-- Node4 -->
<g id="Node000004" class="node">
<title>Node4</title>
<g id="a_Node000004"><a xlink:title=" ">
<polygon fill="#e0e0e0" stroke="#999999" points="120,-79.5 68,-79.5 68,-60.5 120,-60.5 120,-79.5"/>
<text text-anchor="middle" x="94" y="-67.5" font-family="Helvetica,sans-Serif" font-size="10.00">cassert</text>
</a>
</g>
</g>
<!-- Node2&#45;&gt;Node4 -->
<g id="edge3_Node000002_Node000004" class="edge">
<title>Node2&#45;&gt;Node4</title>
<g id="a_edge3_Node000002_Node000004"><a xlink:title=" ">
<path fill="none" stroke="#63b8ff" d="M382.5,-124.97C317.12,-119.42 214.93,-107.8 129,-85 126.84,-84.43 124.64,-83.76 122.44,-83.03"/>
<polygon fill="#63b8ff" stroke="#63b8ff" points="123.57,-79.72 112.97,-79.56 121.16,-86.29 123.57,-79.72"/>
</a>
</g>
</g>
<!-- Node5 -->
<g id="Node000005" class="node">
<title>Node5</title>
<g id="a_Node000005"><a xlink:title=" ">
<polygon fill="#e0e0e0" stroke="#999999" points="184,-79.5 138,-79.5 138,-60.5 184,-60.5 184,-79.5"/>
<text text-anchor="middle" x="161" y="-67.5" font-family="Helvetica,sans-Serif" font-size="10.00">future</text>
</a>
</g>
</g>
<!-- Node2&#45;&gt;Node5 -->
<g id="edge4_Node000002_Node000005" class="edge">
<title>Node2&#45;&gt;Node5</title>
<g id="a_edge4_Node000002_Node000005"><a xlink:title=" ">
<path fill="none" stroke="#63b8ff" d="M382.49,-122.39C330.21,-115.74 255.96,-103.94 193,-85 191.36,-84.51 189.7,-83.95 188.03,-83.36"/>
<polygon fill="#63b8ff" stroke="#63b8ff" points="189.24,-80.07 178.65,-79.63 186.65,-86.58 189.24,-80.07"/>
</a>
</g>
</g>
<!-- Node6 -->
<g id="Node000006" class="node">
<title>Node6</title>
<g id="a_Node000006"><a xlink:title=" ">
<polygon fill="#e0e0e0" stroke="#999999" points="260,-79.5 202,-79.5 202,-60.5 260,-60.5 260,-79.5"/>
<text text-anchor="middle" x="231" y="-67.5" font-family="Helvetica,sans-Serif" font-size="10.00">memory</text>
</a>
</g>
</g>
<!-- Node2&#45;&gt;Node6 -->
<g id="edge5_Node000002_Node000006" class="edge">
<title>Node2&#45;&gt;Node6</title>
<g id="a_edge5_Node000002_Node000006"><a xlink:title=" ">
<path fill="none" stroke="#63b8ff" d="M408.97,-120.94C372.27,-112.78 316.55,-99.59 269,-85 266.87,-84.35 264.69,-83.64 262.49,-82.9"/>
<polygon fill="#63b8ff" stroke="#63b8ff" points="263.56,-79.57 252.96,-79.56 261.24,-86.17 263.56,-79.57"/>
</a>
</g>
</g>
<!-- Node7 -->
<g id="Node000007" class="node">
<title>Node7</title>
<g id="a_Node000007"><a xlink:title=" ">
<polygon fill="#e0e0e0" stroke="#999999" points="326,-79.5 278,-79.5 278,-60.5 326,-60.5 326,-79.5"/>
<text text-anchor="middle" x="302" y="-67.5" font-family="Helvetica,sans-Serif" font-size="10.00">mutex</text>
</a>
</g>
</g>
<!-- Node2&#45;&gt;Node7 -->
<g id="edge6_Node000002_Node000007" class="edge">
<title>Node2&#45;&gt;Node7</title>
<g id="a_edge6_Node000002_Node000007"><a xlink:title=" ">
<path fill="none" stroke="#63b8ff" d="M427.62,-120.99C402.69,-111.07 361.28,-94.59 332.86,-83.28"/>
<polygon fill="#63b8ff" stroke="#63b8ff" points="333.99,-79.96 323.4,-79.52 331.4,-86.47 333.99,-79.96"/>
</a>
</g>
</g>
<!-- Node8 -->
<g id="Node000008" class="node">
<title>Node8</title>
<g id="a_Node000008"><a xlink:title=" ">
<polygon fill="#e0e0e0" stroke="#999999" points="443,-19 387,-19 387,0 443,0 443,-19"/>
<text text-anchor="middle" x="415" y="-7" font-family="Helvetica,sans-Serif" font-size="10.00">optional</text>
</a>
</g>
</g>
<!-- Node2&#45;&gt;Node8 -->
<g id="edge7_Node000002_Node000008" class="edge">
<title>Node2&#45;&gt;Node8</title>
<g id="a_edge7_Node000002_Node000008"><a xlink:title=" ">
<path fill="none" stroke="#63b8ff" d="M420.61,-120.92C403.54,-114.13 383.19,-102.77 373,-85 366.37,-73.43 368.08,-67.39 373,-55 377.52,-43.63 386.47,-33.48 394.96,-25.76"/>
<polygon fill="#63b8ff" stroke="#63b8ff" points="397.41,-28.27 402.79,-19.14 392.89,-22.92 397.41,-28.27"/>
</a>
</g>
</g>
<!-- Node9 -->
<g id="Node000009" class="node">
<title>Node9</title>
<g id="a_Node000009"><a xlink:title=" ">
<polygon fill="#e0e0e0" stroke="#999999" points="563,-19 519,-19 519,0 563,0 563,-19"/>
<text text-anchor="middle" x="541" y="-7" font-family="Helvetica,sans-Serif" font-size="10.00">string</text>
</a>
</g>
</g>
<!-- Node2&#45;&gt;Node9 -->
<g id="edge8_Node000002_Node000009" class="edge">
<title>Node2&#45;&gt;Node9</title>
<g id="a_edge8_Node000002_Node000009"><a xlink:title=" ">
<path fill="none" stroke="#63b8ff" d="M474.31,-120.9C491.21,-113.86 512.54,-102.22 525,-85 536.73,-68.79 540.18,-45.72 541.05,-29.56"/>
<polygon fill="#63b8ff" stroke="#63b8ff" points="544.55,-29.29 541.3,-19.21 537.56,-29.12 544.55,-29.29"/>
</a>
</g>
</g>
<!-- Node10 -->
<g id="Node000010" class="node">
<title>Node10</title>
<g id="a_Node000010"><a xlink:title=" ">
<polygon fill="#e0e0e0" stroke="#999999" points="858,-79.5 810,-79.5 810,-60.5 858,-60.5 858,-79.5"/>
<text text-anchor="middle" x="834" y="-67.5" font-family="Helvetica,sans-Serif" font-size="10.00">thread</text>
</a>
</g>
</g>
<!-- Node2&#45;&gt;Node10 -->
<g id="edge9_Node000002_Node000010" class="edge">
<title>Node2&#45;&gt;Node10</title>
<g id="a_edge9_Node000002_Node000010"><a xlink:title=" ">
<path fill="none" stroke="#63b8ff" d="M515.57,-121.78C608.69,-110.86 769.45,-91.5 796,-85 798.51,-84.39 801.08,-83.66 803.65,-82.86"/>
<polygon fill="#63b8ff" stroke="#63b8ff" points="805.02,-86.1 813.36,-79.56 802.76,-79.47 805.02,-86.1"/>
</a>
</g>
</g>
<!-- Node11 -->
<g id="Node000011" class="node">
<title>Node11</title>
<g id="a_Node000011"><a xlink:title=" ">
<polygon fill="#e0e0e0" stroke="#999999" points="969.5,-79.5 876.5,-79.5 876.5,-60.5 969.5,-60.5 969.5,-79.5"/>
<text text-anchor="middle" x="923" y="-67.5" font-family="Helvetica,sans-Serif" font-size="10.00">unordered_map</text>
</a>
</g>
</g>
<!-- Node2&#45;&gt;Node11 -->
<g id="edge10_Node000002_Node000011" class="edge">
<title>Node2&#45;&gt;Node11</title>
<g id="a_edge10_Node000002_Node000011"><a xlink:title=" ">
<path fill="none" stroke="#63b8ff" d="M515.65,-121.92C518.47,-121.61 521.26,-121.3 524,-121 676.38,-104.37 716.05,-111.65 867,-85 871.99,-84.12 877.2,-83.04 882.34,-81.87"/>
<polygon fill="#63b8ff" stroke="#63b8ff" points="883.15,-85.28 892.06,-79.56 881.53,-78.47 883.15,-85.28"/>
</a>
</g>
</g>
<!-- Node12 -->
<g id="Node000012" class="node">
<title>Node12</title>
<g id="a_Node000012"><a xlink:title=" ">
<polygon fill="#e0e0e0" stroke="#999999" points="711.5,-19 664.5,-19 664.5,0 711.5,0 711.5,-19"/>
<text text-anchor="middle" x="688" y="-7" font-family="Helvetica,sans-Serif" font-size="10.00">vector</text>
</a>
</g>
</g>
<!-- Node2&#45;&gt;Node12 -->
<g id="edge11_Node000002_Node000012" class="edge">
<title>Node2&#45;&gt;Node12</title>
<g id="a_edge11_Node000002_Node000012"><a xlink:title=" ">
<path fill="none" stroke="#63b8ff" d="M515.42,-120.97C594.9,-110.45 718.2,-92.98 725,-85 740.13,-67.24 721.42,-42.22 705.57,-26.18"/>
<polygon fill="#63b8ff" stroke="#63b8ff" points="707.81,-23.49 698.17,-19.1 702.97,-28.55 707.81,-23.49"/>
</a>
</g>
</g>
<!-- Node13 -->
<g id="Node000013" class="node">
<title>Node13</title>
<g id="a_Node000013"><a xlink:title=" ">
<polygon fill="#e0e0e0" stroke="#999999" points="840,-19 730,-19 730,0 840,0 840,-19"/>
<text text-anchor="middle" x="785" y="-7" font-family="Helvetica,sans-Serif" font-size="10.00">nlohmann/json.hpp</text>
</a>
</g>
</g>
<!-- Node2&#45;&gt;Node13 -->
<g id="edge12_Node000002_Node000013" class="edge">
<title>Node2&#45;&gt;Node13</title>
<g id="a_edge12_Node000002_Node000013"><a xlink:title=" ">
<path fill="none" stroke="#63b8ff" d="M514.34,-120.98C597.52,-109.93 731.67,-91.31 741,-85 760.79,-71.63 772.97,-46.13 779.36,-28.72"/>
<polygon fill="#63b8ff" stroke="#63b8ff" points="782.72,-29.71 782.61,-19.11 776.09,-27.47 782.72,-29.71"/>
</a>
</g>
</g>
<!-- Node14 -->
<g id="Node000014" class="node">
<title>Node14</title>
<g id="a_Node000014"><a xlink:href="client_2request_8hpp.html" target="_top" xlink:title=" ">
<polygon fill="white" stroke="#666666" points="715.5,-79.5 572.5,-79.5 572.5,-60.5 715.5,-60.5 715.5,-79.5"/>
<text text-anchor="middle" x="644" y="-67.5" font-family="Helvetica,sans-Serif" font-size="10.00">jsonrpc/client/request.hpp</text>
</a>
</g>
</g>
<!-- Node2&#45;&gt;Node14 -->
<g id="edge13_Node000002_Node000014" class="edge">
<title>Node2&#45;&gt;Node14</title>
<g id="a_edge13_Node000002_Node000014"><a xlink:title=" ">
<path fill="none" stroke="#63b8ff" d="M477.35,-120.99C511.29,-110.81 568.26,-93.72 605.99,-82.4"/>
<polygon fill="#63b8ff" stroke="#63b8ff" points="607.04,-85.74 615.61,-79.52 605.03,-79.04 607.04,-85.74"/>
</a>
</g>
</g>
<!-- Node16 -->
<g id="Node000016" class="node">
<title>Node16</title>
<g id="a_Node000016"><a xlink:href="client__transport_8hpp.html" target="_top" xlink:title=" ">
<polygon fill="white" stroke="#666666" points="516,-85 382,-85 382,-55 516,-55 516,-85"/>
<text text-anchor="start" x="390" y="-73" font-family="Helvetica,sans-Serif" font-size="10.00">jsonrpc/client/transports</text>
<text text-anchor="middle" x="449" y="-62" font-family="Helvetica,sans-Serif" font-size="10.00">/client_transport.hpp</text>
</a>
</g>
</g>
<!-- Node2&#45;&gt;Node16 -->
<g id="edge19_Node000002_Node000016" class="edge">
<title>Node2&#45;&gt;Node16</title>
<g id="a_edge19_Node000002_Node000016"><a xlink:title=" ">
<path fill="none" stroke="#63b8ff" d="M449,-120.87C449,-114.11 449,-104.35 449,-95.26"/>
<polygon fill="#63b8ff" stroke="#63b8ff" points="452.5,-95.11 449,-85.11 445.5,-95.11 452.5,-95.11"/>
</a>
</g>
</g>
<!-- Node14&#45;&gt;Node8 -->
<g id="edge15_Node000014_Node000008" class="edge">
<title>Node14&#45;&gt;Node8</title>
<g id="a_edge15_Node000014_Node000008"><a xlink:title=" ">
<path fill="none" stroke="#63b8ff" d="M610.7,-60.49C568.81,-49.79 497.04,-31.46 453.04,-20.22"/>
<polygon fill="#63b8ff" stroke="#63b8ff" points="453.84,-16.81 443.28,-17.73 452.11,-23.59 453.84,-16.81"/>
</a>
</g>
</g>
<!-- Node14&#45;&gt;Node9 -->
<g id="edge16_Node000014_Node000009" class="edge">
<title>Node14&#45;&gt;Node9</title>
<g id="a_edge16_Node000014_Node000009"><a xlink:title=" ">
<path fill="none" stroke="#63b8ff" d="M628.8,-60.37C611.99,-50.82 584.68,-35.31 564.98,-24.12"/>
<polygon fill="#63b8ff" stroke="#63b8ff" points="566.68,-21.06 556.26,-19.17 563.23,-27.15 566.68,-21.06"/>
</a>
</g>
</g>
<!-- Node14&#45;&gt;Node12 -->
<g id="edge17_Node000014_Node000012" class="edge">
<title>Node14&#45;&gt;Node12</title>
<g id="a_edge17_Node000014_Node000012"><a xlink:title=" ">
<path fill="none" stroke="#63b8ff" d="M650.49,-60.37C656.99,-51.73 667.16,-38.2 675.28,-27.42"/>
<polygon fill="#63b8ff" stroke="#63b8ff" points="678.27,-29.26 681.48,-19.17 672.67,-25.06 678.27,-29.26"/>
</a>
</g>
</g>
<!-- Node14&#45;&gt;Node13 -->
<g id="edge18_Node000014_Node000013" class="edge">
<title>Node14&#45;&gt;Node13</title>
<g id="a_edge18_Node000014_Node000013"><a xlink:title=" ">
<path fill="none" stroke="#63b8ff" d="M664.5,-60.49C688.31,-50.62 727.79,-34.23 755.04,-22.93"/>
<polygon fill="#63b8ff" stroke="#63b8ff" points="756.58,-26.08 764.47,-19.02 753.89,-19.62 756.58,-26.08"/>
</a>
</g>
</g>
<!-- Node15 -->
<g id="Node000015" class="node">
<title>Node15</title>
<g id="a_Node000015"><a xlink:title=" ">
<polygon fill="#e0e0e0" stroke="#999999" points="646.5,-19 581.5,-19 581.5,0 646.5,0 646.5,-19"/>
<text text-anchor="middle" x="614" y="-7" font-family="Helvetica,sans-Serif" font-size="10.00">functional</text>
</a>
</g>
</g>
<!-- Node14&#45;&gt;Node15 -->
<g id="edge14_Node000014_Node000015" class="edge">
<title>Node14&#45;&gt;Node15</title>
<g id="a_edge14_Node000014_Node000015"><a xlink:title=" ">
<path fill="none" stroke="#63b8ff" d="M639.57,-60.37C635.23,-51.9 628.48,-38.74 623.01,-28.07"/>
<polygon fill="#63b8ff" stroke="#63b8ff" points="626.12,-26.47 618.44,-19.17 619.89,-29.66 626.12,-26.47"/>
</a>
</g>
</g>
<!-- Node16&#45;&gt;Node9 -->
<g id="edge20_Node000016_Node000009" class="edge">
<title>Node16&#45;&gt;Node9</title>
<g id="a_edge20_Node000016_Node000009"><a xlink:title=" ">
<path fill="none" stroke="#63b8ff" d="M471.27,-54.84C485.67,-45.68 504.33,-33.82 518.73,-24.66"/>
<polygon fill="#63b8ff" stroke="#63b8ff" points="520.92,-27.41 527.48,-19.09 517.17,-21.51 520.92,-27.41"/>
</a>
</g>
</g>
</g>
</svg>
