<?xml version="1.0" encoding="UTF-8" standalone="no"?>
<!DOCTYPE svg PUBLIC "-//W3C//DTD SVG 1.1//EN"
 "http://www.w3.org/Graphics/SVG/1.1/DTD/svg11.dtd">
<!-- Generated by graphviz version 2.43.0 (0)
 -->
<!-- Title: include/json_rpc/client/client.hpp Pages: 1 -->
<svg width="599pt" height="214pt"
 viewBox="0.00 0.00 598.50 214.00" xmlns="http://www.w3.org/2000/svg" xmlns:xlink="http://www.w3.org/1999/xlink">
<g id="graph0" class="graph" transform="scale(1 1) rotate(0) translate(4 210)">
<title>include/json_rpc/client/client.hpp</title>
<!-- Node1 -->
<g id="Node000001" class="node">
<title>Node1</title>
<g id="a_Node000001"><a xlink:title=" ">
<polygon fill="#999999" stroke="#666666" points="327.5,-206 202.5,-206 202.5,-176 327.5,-176 327.5,-206"/>
<text text-anchor="start" x="210.5" y="-194" font-family="Helvetica,sans-Serif" font-size="10.00">include/json_rpc/client</text>
<text text-anchor="middle" x="265" y="-183" font-family="Helvetica,sans-Serif" font-size="10.00">/client.hpp</text>
</a>
</g>
</g>
<!-- Node2 -->
<g id="Node000002" class="node">
<title>Node2</title>
<g id="a_Node000002"><a xlink:title=" ">
<polygon fill="#e0e0e0" stroke="#999999" points="58,-134.5 0,-134.5 0,-115.5 58,-115.5 58,-134.5"/>
<text text-anchor="middle" x="29" y="-122.5" font-family="Helvetica,sans-Serif" font-size="10.00">memory</text>
</a>
</g>
</g>
<!-- Node1&#45;&gt;Node2 -->
<g id="edge1_Node000001_Node000002" class="edge">
<title>Node1&#45;&gt;Node2</title>
<g id="a_edge1_Node000001_Node000002"><a xlink:title=" ">
<path fill="none" stroke="#63b8ff" d="M202.11,-175.91C162.95,-166.7 111.71,-153.84 67,-140 64.87,-139.34 62.69,-138.63 60.5,-137.89"/>
<polygon fill="#63b8ff" stroke="#63b8ff" points="61.56,-134.56 50.97,-134.54 59.24,-141.16 61.56,-134.56"/>
</a>
</g>
</g>
<!-- Node3 -->
<g id="Node000003" class="node">
<title>Node3</title>
<g id="a_Node000003"><a xlink:title=" ">
<polygon fill="#e0e0e0" stroke="#999999" points="423,-74 379,-74 379,-55 423,-55 423,-74"/>
<text text-anchor="middle" x="401" y="-62" font-family="Helvetica,sans-Serif" font-size="10.00">string</text>
</a>
</g>
</g>
<!-- Node1&#45;&gt;Node3 -->
<g id="edge2_Node000001_Node000003" class="edge">
<title>Node1&#45;&gt;Node3</title>
<g id="a_edge2_Node000001_Node000003"><a xlink:title=" ">
<path fill="none" stroke="#63b8ff" d="M327.74,-180.64C352.59,-173.64 379,-161.4 395,-140 406.87,-124.13 406.71,-100.67 404.65,-84.33"/>
<polygon fill="#63b8ff" stroke="#63b8ff" points="408.09,-83.66 403.05,-74.34 401.18,-84.77 408.09,-83.66"/>
</a>
</g>
</g>
<!-- Node4 -->
<g id="Node000004" class="node">
<title>Node4</title>
<g id="a_Node000004"><a xlink:href="client__transport_8hpp.html" target="_top" xlink:title=" ">
<polygon fill="white" stroke="#666666" points="187.5,-140 76.5,-140 76.5,-110 187.5,-110 187.5,-140"/>
<text text-anchor="start" x="84.5" y="-128" font-family="Helvetica,sans-Serif" font-size="10.00">json_rpc/core/client</text>
<text text-anchor="middle" x="132" y="-117" font-family="Helvetica,sans-Serif" font-size="10.00">_transport.hpp</text>
</a>
</g>
</g>
<!-- Node1&#45;&gt;Node4 -->
<g id="edge3_Node000001_Node000004" class="edge">
<title>Node1&#45;&gt;Node4</title>
<g id="a_edge3_Node000001_Node000004"><a xlink:title=" ">
<path fill="none" stroke="#63b8ff" d="M235.81,-175.95C216.58,-166.7 191.2,-154.49 170.34,-144.45"/>
<polygon fill="#63b8ff" stroke="#63b8ff" points="171.65,-141.19 161.12,-140.01 168.61,-147.5 171.65,-141.19"/>
</a>
</g>
</g>
<!-- Node5 -->
<g id="Node000005" class="node">
<title>Node5</title>
<g id="a_Node000005"><a xlink:href="types_8hpp.html" target="_top" xlink:title=" ">
<polygon fill="white" stroke="#666666" points="297,-74 165,-74 165,-55 297,-55 297,-74"/>
<text text-anchor="middle" x="231" y="-62" font-family="Helvetica,sans-Serif" font-size="10.00">json_rpc/core/types.hpp</text>
</a>
</g>
</g>
<!-- Node1&#45;&gt;Node5 -->
<g id="edge18_Node000001_Node000005" class="edge">
<title>Node1&#45;&gt;Node5</title>
<g id="a_edge18_Node000001_Node000005"><a xlink:title=" ">
<path fill="none" stroke="#63b8ff" d="M253.76,-175.59C247,-166.06 238.97,-152.97 235,-140 229.44,-121.84 228.94,-100.04 229.52,-84.73"/>
<polygon fill="#63b8ff" stroke="#63b8ff" points="233.03,-84.64 230.12,-74.46 226.05,-84.24 233.03,-84.64"/>
</a>
</g>
</g>
<!-- Node10 -->
<g id="Node000010" class="node">
<title>Node10</title>
<g id="a_Node000010"><a xlink:href="request_8hpp.html" target="_top" xlink:title=" ">
<polygon fill="white" stroke="#666666" points="386,-134.5 244,-134.5 244,-115.5 386,-115.5 386,-134.5"/>
<text text-anchor="middle" x="315" y="-122.5" font-family="Helvetica,sans-Serif" font-size="10.00">json_rpc/core/request.hpp</text>
</a>
</g>
</g>
<!-- Node1&#45;&gt;Node10 -->
<g id="edge9_Node000001_Node000010" class="edge">
<title>Node1&#45;&gt;Node10</title>
<g id="a_edge9_Node000001_Node000010"><a xlink:title=" ">
<path fill="none" stroke="#63b8ff" d="M276.1,-175.8C283.66,-166.11 293.72,-153.24 301.71,-143.01"/>
<polygon fill="#63b8ff" stroke="#63b8ff" points="304.69,-144.88 308.09,-134.84 299.18,-140.57 304.69,-144.88"/>
</a>
</g>
</g>
<!-- Node11 -->
<g id="Node000011" class="node">
<title>Node11</title>
<g id="a_Node000011"><a xlink:href="response_8hpp.html" target="_top" xlink:title=" ">
<polygon fill="white" stroke="#666666" points="590.5,-134.5 441.5,-134.5 441.5,-115.5 590.5,-115.5 590.5,-134.5"/>
<text text-anchor="middle" x="516" y="-122.5" font-family="Helvetica,sans-Serif" font-size="10.00">json_rpc/core/response.hpp</text>
</a>
</g>
</g>
<!-- Node1&#45;&gt;Node11 -->
<g id="edge13_Node000001_Node000011" class="edge">
<title>Node1&#45;&gt;Node11</title>
<g id="a_edge13_Node000001_Node000011"><a xlink:title=" ">
<path fill="none" stroke="#63b8ff" d="M320.08,-175.95C366.04,-164.24 430.63,-147.77 472.88,-136.99"/>
<polygon fill="#63b8ff" stroke="#63b8ff" points="473.77,-140.38 482.6,-134.52 472.04,-133.6 473.77,-140.38"/>
</a>
</g>
</g>
<!-- Node4&#45;&gt;Node5 -->
<g id="edge4_Node000004_Node000005" class="edge">
<title>Node4&#45;&gt;Node5</title>
<g id="a_edge4_Node000004_Node000005"><a xlink:title=" ">
<path fill="none" stroke="#63b8ff" d="M155.71,-109.99C171.35,-100.75 191.74,-88.7 207.36,-79.47"/>
<polygon fill="#63b8ff" stroke="#63b8ff" points="209.55,-82.24 216.38,-74.14 205.99,-76.21 209.55,-82.24"/>
</a>
</g>
</g>
<!-- Node6 -->
<g id="Node000006" class="node">
<title>Node6</title>
<g id="a_Node000006"><a xlink:title=" ">
<polygon fill="#e0e0e0" stroke="#999999" points="138.5,-19 73.5,-19 73.5,0 138.5,0 138.5,-19"/>
<text text-anchor="middle" x="106" y="-7" font-family="Helvetica,sans-Serif" font-size="10.00">functional</text>
</a>
</g>
</g>
<!-- Node5&#45;&gt;Node6 -->
<g id="edge5_Node000005_Node000006" class="edge">
<title>Node5&#45;&gt;Node6</title>
<g id="a_edge5_Node000005_Node000006"><a xlink:title=" ">
<path fill="none" stroke="#63b8ff" d="M210.92,-54.98C190.63,-46.38 159.04,-32.99 135.83,-23.15"/>
<polygon fill="#63b8ff" stroke="#63b8ff" points="137.02,-19.85 126.45,-19.17 134.29,-26.3 137.02,-19.85"/>
</a>
</g>
</g>
<!-- Node7 -->
<g id="Node000007" class="node">
<title>Node7</title>
<g id="a_Node000007"><a xlink:title=" ">
<polygon fill="#e0e0e0" stroke="#999999" points="410,-19 354,-19 354,0 410,0 410,-19"/>
<text text-anchor="middle" x="382" y="-7" font-family="Helvetica,sans-Serif" font-size="10.00">optional</text>
</a>
</g>
</g>
<!-- Node5&#45;&gt;Node7 -->
<g id="edge6_Node000005_Node000007" class="edge">
<title>Node5&#45;&gt;Node7</title>
<g id="a_edge6_Node000005_Node000007"><a xlink:title=" ">
<path fill="none" stroke="#63b8ff" d="M255.26,-54.98C280.32,-46.19 319.63,-32.39 347.83,-22.49"/>
<polygon fill="#63b8ff" stroke="#63b8ff" points="349.02,-25.78 357.3,-19.17 346.7,-19.18 349.02,-25.78"/>
</a>
</g>
</g>
<!-- Node8 -->
<g id="Node000008" class="node">
<title>Node8</title>
<g id="a_Node000008"><a xlink:title=" ">
<polygon fill="#e0e0e0" stroke="#999999" points="207.5,-19 156.5,-19 156.5,0 207.5,0 207.5,-19"/>
<text text-anchor="middle" x="182" y="-7" font-family="Helvetica,sans-Serif" font-size="10.00">variant</text>
</a>
</g>
</g>
<!-- Node5&#45;&gt;Node8 -->
<g id="edge7_Node000005_Node000008" class="edge">
<title>Node5&#45;&gt;Node8</title>
<g id="a_edge7_Node000005_Node000008"><a xlink:title=" ">
<path fill="none" stroke="#63b8ff" d="M222.91,-54.75C215.84,-47.11 205.41,-35.82 196.85,-26.56"/>
<polygon fill="#63b8ff" stroke="#63b8ff" points="199.3,-24.06 189.94,-19.09 194.16,-28.81 199.3,-24.06"/>
</a>
</g>
</g>
<!-- Node9 -->
<g id="Node000009" class="node">
<title>Node9</title>
<g id="a_Node000009"><a xlink:title=" ">
<polygon fill="#e0e0e0" stroke="#999999" points="336,-19 226,-19 226,0 336,0 336,-19"/>
<text text-anchor="middle" x="281" y="-7" font-family="Helvetica,sans-Serif" font-size="10.00">nlohmann/json.hpp</text>
</a>
</g>
</g>
<!-- Node5&#45;&gt;Node9 -->
<g id="edge8_Node000005_Node000009" class="edge">
<title>Node5&#45;&gt;Node9</title>
<g id="a_edge8_Node000005_Node000009"><a xlink:title=" ">
<path fill="none" stroke="#63b8ff" d="M239.26,-54.75C246.46,-47.11 257.11,-35.82 265.85,-26.56"/>
<polygon fill="#63b8ff" stroke="#63b8ff" points="268.58,-28.76 272.9,-19.09 263.49,-23.96 268.58,-28.76"/>
</a>
</g>
</g>
<!-- Node10&#45;&gt;Node3 -->
<g id="edge11_Node000010_Node000003" class="edge">
<title>Node10&#45;&gt;Node3</title>
<g id="a_edge11_Node000010_Node000003"><a xlink:title=" ">
<path fill="none" stroke="#63b8ff" d="M327.69,-115.37C341.41,-106.04 363.5,-91.01 379.85,-79.88"/>
<polygon fill="#63b8ff" stroke="#63b8ff" points="381.96,-82.69 388.26,-74.17 378.02,-76.9 381.96,-82.69"/>
</a>
</g>
</g>
<!-- Node10&#45;&gt;Node5 -->
<g id="edge12_Node000010_Node000005" class="edge">
<title>Node10&#45;&gt;Node5</title>
<g id="a_edge12_Node000010_Node000005"><a xlink:title=" ">
<path fill="none" stroke="#63b8ff" d="M302.61,-115.37C289.21,-106.04 267.62,-91.01 251.65,-79.88"/>
<polygon fill="#63b8ff" stroke="#63b8ff" points="253.65,-77.01 243.45,-74.17 249.65,-82.75 253.65,-77.01"/>
</a>
</g>
</g>
<!-- Node10&#45;&gt;Node7 -->
<g id="edge10_Node000010_Node000007" class="edge">
<title>Node10&#45;&gt;Node7</title>
<g id="a_edge10_Node000010_Node000007"><a xlink:title=" ">
<path fill="none" stroke="#63b8ff" d="M320.04,-115.47C331,-96.9 357.2,-52.51 371.78,-27.82"/>
<polygon fill="#63b8ff" stroke="#63b8ff" points="374.84,-29.52 376.91,-19.13 368.81,-25.96 374.84,-29.52"/>
</a>
</g>
</g>
<!-- Node11&#45;&gt;Node3 -->
<g id="edge15_Node000011_Node000003" class="edge">
<title>Node11&#45;&gt;Node3</title>
<g id="a_edge15_Node000011_Node000003"><a xlink:title=" ">
<path fill="none" stroke="#63b8ff" d="M499.03,-115.37C480.09,-105.73 449.21,-90.03 427.17,-78.81"/>
<polygon fill="#63b8ff" stroke="#63b8ff" points="428.54,-75.58 418.04,-74.17 425.36,-81.82 428.54,-75.58"/>
</a>
</g>
</g>
<!-- Node11&#45;&gt;Node5 -->
<g id="edge17_Node000011_Node000005" class="edge">
<title>Node11&#45;&gt;Node5</title>
<g id="a_edge17_Node000011_Node000005"><a xlink:title=" ">
<path fill="none" stroke="#63b8ff" d="M474.56,-115.49C423.69,-105.05 337.43,-87.35 282.39,-76.05"/>
<polygon fill="#63b8ff" stroke="#63b8ff" points="282.99,-72.6 272.49,-74.02 281.58,-79.46 282.99,-72.6"/>
</a>
</g>
</g>
<!-- Node11&#45;&gt;Node7 -->
<g id="edge14_Node000011_Node000007" class="edge">
<title>Node11&#45;&gt;Node7</title>
<g id="a_edge14_Node000011_Node000007"><a xlink:title=" ">
<path fill="none" stroke="#63b8ff" d="M524.82,-115.19C537.65,-101.29 558.42,-73.92 544,-55 529.05,-35.39 463.2,-22.28 420.19,-15.63"/>
<polygon fill="#63b8ff" stroke="#63b8ff" points="420.47,-12.13 410.06,-14.11 419.43,-19.05 420.47,-12.13"/>
</a>
</g>
</g>
<!-- Node12 -->
<g id="Node000012" class="node">
<title>Node12</title>
<g id="a_Node000012"><a xlink:title=" ">
<polygon fill="#e0e0e0" stroke="#999999" points="534.5,-74 441.5,-74 441.5,-55 534.5,-55 534.5,-74"/>
<text text-anchor="middle" x="488" y="-62" font-family="Helvetica,sans-Serif" font-size="10.00">unordered_map</text>
</a>
</g>
</g>
<!-- Node11&#45;&gt;Node12 -->
<g id="edge16_Node000011_Node000012" class="edge">
<title>Node11&#45;&gt;Node12</title>
<g id="a_edge16_Node000011_Node000012"><a xlink:title=" ">
<path fill="none" stroke="#63b8ff" d="M511.87,-115.37C507.86,-106.99 501.65,-94.01 496.56,-83.39"/>
<polygon fill="#63b8ff" stroke="#63b8ff" points="499.62,-81.68 492.15,-74.17 493.31,-84.7 499.62,-81.68"/>
</a>
</g>
</g>
</g>
</svg>
