<?xml version="1.0" encoding="UTF-8" standalone="no"?>
<!DOCTYPE svg PUBLIC "-//W3C//DTD SVG 1.1//EN"
 "http://www.w3.org/Graphics/SVG/1.1/DTD/svg11.dtd">
<!-- Generated by graphviz version 2.43.0 (0)
 -->
<!-- Title: include/json_rpc/core/client_transport.hpp Pages: 1 -->
<svg width="715pt" height="170pt"
 viewBox="0.00 0.00 715.00 170.00" xmlns="http://www.w3.org/2000/svg" xmlns:xlink="http://www.w3.org/1999/xlink">
<g id="graph0" class="graph" transform="scale(1 1) rotate(0) translate(4 166)">
<title>include/json_rpc/core/client_transport.hpp</title>
<!-- Node1 -->
<g id="Node000001" class="node">
<title>Node1</title>
<g id="a_Node000001"><a xlink:title=" ">
<polygon fill="#999999" stroke="#666666" points="441,-162 322,-162 322,-132 441,-132 441,-162"/>
<text text-anchor="start" x="330" y="-150" font-family="Helvetica,sans-Serif" font-size="10.00">include/json_rpc/core</text>
<text text-anchor="middle" x="381.5" y="-139" font-family="Helvetica,sans-Serif" font-size="10.00">/client_transport.hpp</text>
</a>
</g>
</g>
<!-- Node2 -->
<g id="Node000002" class="node">
<title>Node2</title>
<g id="a_Node000002"><a xlink:href="client_8hpp.html" target="_top" xlink:title=" ">
<polygon fill="white" stroke="#666666" points="701,-96 576,-96 576,-66 701,-66 701,-96"/>
<text text-anchor="start" x="584" y="-84" font-family="Helvetica,sans-Serif" font-size="10.00">include/json_rpc/client</text>
<text text-anchor="middle" x="638.5" y="-73" font-family="Helvetica,sans-Serif" font-size="10.00">/client.hpp</text>
</a>
</g>
</g>
<!-- Node1&#45;&gt;Node2 -->
<g id="edge1_Node000001_Node000002" class="edge">
<title>Node1&#45;&gt;Node2</title>
<g id="a_edge1_Node000001_Node000002"><a xlink:title=" ">
<path fill="none" stroke="#63b8ff" d="M447.69,-129.52C489.37,-119.14 542.59,-105.88 582.23,-96.01"/>
<polygon fill="#63b8ff" stroke="#63b8ff" points="446.76,-126.14 437.9,-131.95 448.45,-132.93 446.76,-126.14"/>
</a>
</g>
</g>
<!-- Node3 -->
<g id="Node000003" class="node">
<title>Node3</title>
<g id="a_Node000003"><a xlink:href="json__rpc_8hpp.html" target="_top" xlink:title=" ">
<polygon fill="white" stroke="#666666" points="441,-30 322,-30 322,0 441,0 441,-30"/>
<text text-anchor="start" x="330" y="-18" font-family="Helvetica,sans-Serif" font-size="10.00">include/json_rpc/json</text>
<text text-anchor="middle" x="381.5" y="-7" font-family="Helvetica,sans-Serif" font-size="10.00">_rpc.hpp</text>
</a>
</g>
</g>
<!-- Node1&#45;&gt;Node3 -->
<g id="edge4_Node000001_Node000003" class="edge">
<title>Node1&#45;&gt;Node3</title>
<g id="a_edge4_Node000001_Node000003"><a xlink:title=" ">
<path fill="none" stroke="#63b8ff" d="M381.5,-121.68C381.5,-94.7 381.5,-52.11 381.5,-30.14"/>
<polygon fill="#63b8ff" stroke="#63b8ff" points="378,-121.84 381.5,-131.84 385,-121.84 378,-121.84"/>
</a>
</g>
</g>
<!-- Node5 -->
<g id="Node000005" class="node">
<title>Node5</title>
<g id="a_Node000005"><a xlink:href="framed__stdio__client__transport_8hpp.html" target="_top" xlink:title=" ">
<polygon fill="white" stroke="#666666" points="187,-96 0,-96 0,-66 187,-66 187,-96"/>
<text text-anchor="start" x="8" y="-84" font-family="Helvetica,sans-Serif" font-size="10.00">include/json_rpc/transports</text>
<text text-anchor="middle" x="93.5" y="-73" font-family="Helvetica,sans-Serif" font-size="10.00">/framed_stdio_client_transport.hpp</text>
</a>
</g>
</g>
<!-- Node1&#45;&gt;Node5 -->
<g id="edge5_Node000001_Node000005" class="edge">
<title>Node1&#45;&gt;Node5</title>
<g id="a_edge5_Node000001_Node000005"><a xlink:title=" ">
<path fill="none" stroke="#63b8ff" d="M311.96,-130.55C264.63,-120.03 202.49,-106.22 156.59,-96.02"/>
<polygon fill="#63b8ff" stroke="#63b8ff" points="311.31,-133.99 321.83,-132.74 312.82,-127.15 311.31,-133.99"/>
</a>
</g>
</g>
<!-- Node7 -->
<g id="Node000007" class="node">
<title>Node7</title>
<g id="a_Node000007"><a xlink:href="http__client__transport_8hpp.html" target="_top" xlink:title=" ">
<polygon fill="white" stroke="#666666" points="353.5,-96 205.5,-96 205.5,-66 353.5,-66 353.5,-96"/>
<text text-anchor="start" x="213.5" y="-84" font-family="Helvetica,sans-Serif" font-size="10.00">include/json_rpc/transports</text>
<text text-anchor="middle" x="279.5" y="-73" font-family="Helvetica,sans-Serif" font-size="10.00">/http_client_transport.hpp</text>
</a>
</g>
</g>
<!-- Node1&#45;&gt;Node7 -->
<g id="edge8_Node000001_Node000007" class="edge">
<title>Node1&#45;&gt;Node7</title>
<g id="a_edge8_Node000001_Node000007"><a xlink:title=" ">
<path fill="none" stroke="#63b8ff" d="M350.29,-126.42C334.64,-116.6 316.04,-104.93 301.83,-96.01"/>
<polygon fill="#63b8ff" stroke="#63b8ff" points="348.78,-129.6 359.12,-131.95 352.51,-123.68 348.78,-129.6"/>
</a>
</g>
</g>
<!-- Node9 -->
<g id="Node000009" class="node">
<title>Node9</title>
<g id="a_Node000009"><a xlink:href="stdio__client__transport_8hpp.html" target="_top" xlink:title=" ">
<polygon fill="white" stroke="#666666" points="557.5,-96 409.5,-96 409.5,-66 557.5,-66 557.5,-96"/>
<text text-anchor="start" x="417.5" y="-84" font-family="Helvetica,sans-Serif" font-size="10.00">include/json_rpc/transports</text>
<text text-anchor="middle" x="483.5" y="-73" font-family="Helvetica,sans-Serif" font-size="10.00">/stdio_client_transport.hpp</text>
</a>
</g>
</g>
<!-- Node1&#45;&gt;Node9 -->
<g id="edge11_Node000001_Node000009" class="edge">
<title>Node1&#45;&gt;Node9</title>
<g id="a_edge11_Node000001_Node000009"><a xlink:title=" ">
<path fill="none" stroke="#63b8ff" d="M412.71,-126.42C428.36,-116.6 446.96,-104.93 461.17,-96.01"/>
<polygon fill="#63b8ff" stroke="#63b8ff" points="410.49,-123.68 403.88,-131.95 414.22,-129.6 410.49,-123.68"/>
</a>
</g>
</g>
<!-- Node2&#45;&gt;Node3 -->
<g id="edge2_Node000002_Node000003" class="edge">
<title>Node2&#45;&gt;Node3</title>
<g id="a_edge2_Node000002_Node000003"><a xlink:title=" ">
<path fill="none" stroke="#63b8ff" d="M572.31,-63.52C530.63,-53.14 477.41,-39.88 437.77,-30.01"/>
<polygon fill="#63b8ff" stroke="#63b8ff" points="571.55,-66.93 582.1,-65.95 573.24,-60.14 571.55,-66.93"/>
</a>
</g>
</g>
<!-- Node4 -->
<g id="Node000004" class="node">
<title>Node4</title>
<g id="a_Node000004"><a xlink:href="client_8cpp.html" target="_top" xlink:title=" ">
<polygon fill="white" stroke="#666666" points="707,-24.5 596,-24.5 596,-5.5 707,-5.5 707,-24.5"/>
<text text-anchor="middle" x="651.5" y="-12.5" font-family="Helvetica,sans-Serif" font-size="10.00">src/client/client.cpp</text>
</a>
</g>
</g>
<!-- Node2&#45;&gt;Node4 -->
<g id="edge3_Node000002_Node000004" class="edge">
<title>Node2&#45;&gt;Node4</title>
<g id="a_edge3_Node000002_Node000004"><a xlink:title=" ">
<path fill="none" stroke="#63b8ff" d="M643.39,-55.94C645.6,-45.06 648.07,-32.86 649.7,-24.84"/>
<polygon fill="#63b8ff" stroke="#63b8ff" points="639.95,-55.3 641.39,-65.8 646.81,-56.69 639.95,-55.3"/>
</a>
</g>
</g>
<!-- Node5&#45;&gt;Node3 -->
<g id="edge6_Node000005_Node000003" class="edge">
<title>Node5&#45;&gt;Node3</title>
<g id="a_edge6_Node000005_Node000003"><a xlink:title=" ">
<path fill="none" stroke="#63b8ff" d="M166.73,-63.73C214.79,-53.05 276.85,-39.26 321.89,-29.25"/>
<polygon fill="#63b8ff" stroke="#63b8ff" points="165.71,-60.37 156.7,-65.95 167.22,-67.2 165.71,-60.37"/>
</a>
</g>
</g>
<!-- Node6 -->
<g id="Node000006" class="node">
<title>Node6</title>
<g id="a_Node000006"><a xlink:href="framed__stdio__client__transport_8cpp.html" target="_top" xlink:title=" ">
<polygon fill="white" stroke="#666666" points="166.5,-30 18.5,-30 18.5,0 166.5,0 166.5,-30"/>
<text text-anchor="start" x="26.5" y="-18" font-family="Helvetica,sans-Serif" font-size="10.00">src/transports/framed</text>
<text text-anchor="middle" x="92.5" y="-7" font-family="Helvetica,sans-Serif" font-size="10.00">_stdio_client_transport.cpp</text>
</a>
</g>
</g>
<!-- Node5&#45;&gt;Node6 -->
<g id="edge7_Node000005_Node000006" class="edge">
<title>Node5&#45;&gt;Node6</title>
<g id="a_edge7_Node000005_Node000006"><a xlink:title=" ">
<path fill="none" stroke="#63b8ff" d="M93.12,-55.54C92.98,-46.96 92.84,-37.61 92.72,-30.16"/>
<polygon fill="#63b8ff" stroke="#63b8ff" points="89.62,-55.85 93.28,-65.8 96.62,-55.74 89.62,-55.85"/>
</a>
</g>
</g>
<!-- Node7&#45;&gt;Node3 -->
<g id="edge9_Node000007_Node000003" class="edge">
<title>Node7&#45;&gt;Node3</title>
<g id="a_edge9_Node000007_Node000003"><a xlink:title=" ">
<path fill="none" stroke="#63b8ff" d="M310.71,-60.42C326.36,-50.6 344.96,-38.93 359.17,-30.01"/>
<polygon fill="#63b8ff" stroke="#63b8ff" points="308.49,-57.68 301.88,-65.95 312.22,-63.6 308.49,-57.68"/>
</a>
</g>
</g>
<!-- Node8 -->
<g id="Node000008" class="node">
<title>Node8</title>
<g id="a_Node000008"><a xlink:href="http__client__transport_8cpp.html" target="_top" xlink:title=" ">
<polygon fill="white" stroke="#666666" points="304,-30 185,-30 185,0 304,0 304,-30"/>
<text text-anchor="start" x="193" y="-18" font-family="Helvetica,sans-Serif" font-size="10.00">src/transports/http</text>
<text text-anchor="middle" x="244.5" y="-7" font-family="Helvetica,sans-Serif" font-size="10.00">_client_transport.cpp</text>
</a>
</g>
</g>
<!-- Node7&#45;&gt;Node8 -->
<g id="edge10_Node000007_Node000008" class="edge">
<title>Node7&#45;&gt;Node8</title>
<g id="a_edge10_Node000007_Node000008"><a xlink:title=" ">
<path fill="none" stroke="#63b8ff" d="M266.9,-56.96C262,-48 256.55,-38.03 252.25,-30.16"/>
<polygon fill="#63b8ff" stroke="#63b8ff" points="263.86,-58.7 271.73,-65.8 270,-55.34 263.86,-58.7"/>
</a>
</g>
</g>
<!-- Node9&#45;&gt;Node3 -->
<g id="edge12_Node000009_Node000003" class="edge">
<title>Node9&#45;&gt;Node3</title>
<g id="a_edge12_Node000009_Node000003"><a xlink:title=" ">
<path fill="none" stroke="#63b8ff" d="M452.29,-60.42C436.64,-50.6 418.04,-38.93 403.83,-30.01"/>
<polygon fill="#63b8ff" stroke="#63b8ff" points="450.78,-63.6 461.12,-65.95 454.51,-57.68 450.78,-63.6"/>
</a>
</g>
</g>
<!-- Node10 -->
<g id="Node000010" class="node">
<title>Node10</title>
<g id="a_Node000010"><a xlink:href="stdio__client__transport_8cpp.html" target="_top" xlink:title=" ">
<polygon fill="white" stroke="#666666" points="578,-30 459,-30 459,0 578,0 578,-30"/>
<text text-anchor="start" x="467" y="-18" font-family="Helvetica,sans-Serif" font-size="10.00">src/transports/stdio</text>
<text text-anchor="middle" x="518.5" y="-7" font-family="Helvetica,sans-Serif" font-size="10.00">_client_transport.cpp</text>
</a>
</g>
</g>
<!-- Node9&#45;&gt;Node10 -->
<g id="edge13_Node000009_Node000010" class="edge">
<title>Node9&#45;&gt;Node10</title>
<g id="a_edge13_Node000009_Node000010"><a xlink:title=" ">
<path fill="none" stroke="#63b8ff" d="M496.1,-56.96C501,-48 506.45,-38.03 510.75,-30.16"/>
<polygon fill="#63b8ff" stroke="#63b8ff" points="493,-55.34 491.27,-65.8 499.14,-58.7 493,-55.34"/>
</a>
</g>
</g>
</g>
</svg>
