<?xml version="1.0" encoding="UTF-8" standalone="no"?>
<!DOCTYPE svg PUBLIC "-//W3C//DTD SVG 1.1//EN"
 "http://www.w3.org/Graphics/SVG/1.1/DTD/svg11.dtd">
<!-- Generated by graphviz version 2.43.0 (0)
 -->
<!-- Title: include/jsonrpc/core/request.hpp Pages: 1 -->
<svg width="774pt" height="302pt"
 viewBox="0.00 0.00 773.50 302.00" xmlns="http://www.w3.org/2000/svg" xmlns:xlink="http://www.w3.org/1999/xlink">
<g id="graph0" class="graph" transform="scale(1 1) rotate(0) translate(4 298)">
<title>include/jsonrpc/core/request.hpp</title>
<!-- Node1 -->
<g id="Node000001" class="node">
<title>Node1</title>
<g id="a_Node000001"><a xlink:title=" ">
<polygon fill="#999999" stroke="#666666" points="679,-294 565,-294 565,-264 679,-264 679,-294"/>
<text text-anchor="start" x="573" y="-282" font-family="Helvetica,sans-Serif" font-size="10.00">include/jsonrpc/core</text>
<text text-anchor="middle" x="622" y="-271" font-family="Helvetica,sans-Serif" font-size="10.00">/request.hpp</text>
</a>
</g>
</g>
<!-- Node2 -->
<g id="Node000002" class="node">
<title>Node2</title>
<g id="a_Node000002"><a xlink:href="dispatcher_8hpp.html" target="_top" xlink:title=" ">
<polygon fill="white" stroke="#666666" points="503,-228 389,-228 389,-198 503,-198 503,-228"/>
<text text-anchor="start" x="397" y="-216" font-family="Helvetica,sans-Serif" font-size="10.00">include/jsonrpc/core</text>
<text text-anchor="middle" x="446" y="-205" font-family="Helvetica,sans-Serif" font-size="10.00">/dispatcher.hpp</text>
</a>
</g>
</g>
<!-- Node1&#45;&gt;Node2 -->
<g id="edge1_Node000001_Node000002" class="edge">
<title>Node1&#45;&gt;Node2</title>
<g id="a_edge1_Node000001_Node000002"><a xlink:title=" ">
<path fill="none" stroke="#63b8ff" d="M573.76,-260.46C545.68,-250.25 510.76,-237.55 484.53,-228.01"/>
<polygon fill="#63b8ff" stroke="#63b8ff" points="572.78,-263.83 583.38,-263.95 575.17,-257.25 572.78,-263.83"/>
</a>
</g>
</g>
<!-- Node4 -->
<g id="Node000004" class="node">
<title>Node4</title>
<g id="a_Node000004"><a xlink:href="jsonrpc_8hpp.html" target="_top" xlink:title=" ">
<polygon fill="white" stroke="#666666" points="466.5,-24.5 317.5,-24.5 317.5,-5.5 466.5,-5.5 466.5,-24.5"/>
<text text-anchor="middle" x="392" y="-12.5" font-family="Helvetica,sans-Serif" font-size="10.00">include/jsonrpc/jsonrpc.hpp</text>
</a>
</g>
</g>
<!-- Node1&#45;&gt;Node4 -->
<g id="edge17_Node000001_Node000004" class="edge">
<title>Node1&#45;&gt;Node4</title>
<g id="a_edge17_Node000001_Node000004"><a xlink:title=" ">
<path fill="none" stroke="#63b8ff" d="M626.8,-254.05C633.99,-210.71 642.11,-118.86 595,-66 584.52,-54.25 495.01,-35.46 438.4,-24.57"/>
<polygon fill="#63b8ff" stroke="#63b8ff" points="623.34,-253.51 625.03,-263.97 630.23,-254.75 623.34,-253.51"/>
</a>
</g>
</g>
<!-- Node12 -->
<g id="Node000012" class="node">
<title>Node12</title>
<g id="a_Node000012"><a xlink:href="core_2request_8cpp.html" target="_top" xlink:title=" ">
<polygon fill="white" stroke="#666666" points="765.5,-222.5 650.5,-222.5 650.5,-203.5 765.5,-203.5 765.5,-222.5"/>
<text text-anchor="middle" x="708" y="-210.5" font-family="Helvetica,sans-Serif" font-size="10.00">src/core/request.cpp</text>
</a>
</g>
</g>
<!-- Node1&#45;&gt;Node12 -->
<g id="edge18_Node000001_Node000012" class="edge">
<title>Node1&#45;&gt;Node12</title>
<g id="a_edge18_Node000001_Node000012"><a xlink:title=" ">
<path fill="none" stroke="#63b8ff" d="M649.43,-257.58C665.17,-245.87 684.12,-231.77 696.12,-222.84"/>
<polygon fill="#63b8ff" stroke="#63b8ff" points="647.02,-255.02 641.09,-263.8 651.2,-260.63 647.02,-255.02"/>
</a>
</g>
</g>
<!-- Node3 -->
<g id="Node000003" class="node">
<title>Node3</title>
<g id="a_Node000003"><a xlink:href="server__transport_8hpp.html" target="_top" xlink:title=" ">
<polygon fill="white" stroke="#666666" points="371.5,-162 250.5,-162 250.5,-132 371.5,-132 371.5,-162"/>
<text text-anchor="start" x="258.5" y="-150" font-family="Helvetica,sans-Serif" font-size="10.00">include/jsonrpc/core</text>
<text text-anchor="middle" x="311" y="-139" font-family="Helvetica,sans-Serif" font-size="10.00">/server_transport.hpp</text>
</a>
</g>
</g>
<!-- Node2&#45;&gt;Node3 -->
<g id="edge2_Node000002_Node000003" class="edge">
<title>Node2&#45;&gt;Node3</title>
<g id="a_edge2_Node000002_Node000003"><a xlink:title=" ">
<path fill="none" stroke="#63b8ff" d="M407.29,-193.65C386.06,-183.58 360.15,-171.3 340.56,-162.01"/>
<polygon fill="#63b8ff" stroke="#63b8ff" points="405.84,-196.83 416.37,-197.95 408.84,-190.51 405.84,-196.83"/>
</a>
</g>
</g>
<!-- Node2&#45;&gt;Node4 -->
<g id="edge13_Node000002_Node000004" class="edge">
<title>Node2&#45;&gt;Node4</title>
<g id="a_edge13_Node000002_Node000004"><a xlink:title=" ">
<path fill="none" stroke="#63b8ff" d="M431.63,-189C427,-180.74 422.24,-171.19 419,-162 401.34,-111.92 394.62,-47.9 392.67,-24.8"/>
<polygon fill="#63b8ff" stroke="#63b8ff" points="428.64,-190.81 436.71,-197.68 434.68,-187.28 428.64,-190.81"/>
</a>
</g>
</g>
<!-- Node5 -->
<g id="Node000005" class="node">
<title>Node5</title>
<g id="a_Node000005"><a xlink:href="server_8hpp.html" target="_top" xlink:title=" ">
<polygon fill="white" stroke="#666666" points="124,-96 0,-96 0,-66 124,-66 124,-96"/>
<text text-anchor="start" x="8" y="-84" font-family="Helvetica,sans-Serif" font-size="10.00">include/jsonrpc/server</text>
<text text-anchor="middle" x="62" y="-73" font-family="Helvetica,sans-Serif" font-size="10.00">/server.hpp</text>
</a>
</g>
</g>
<!-- Node2&#45;&gt;Node5 -->
<g id="edge14_Node000002_Node000005" class="edge">
<title>Node2&#45;&gt;Node5</title>
<g id="a_edge14_Node000002_Node000005"><a xlink:title=" ">
<path fill="none" stroke="#63b8ff" d="M378.63,-198.79C338.21,-190.07 286.05,-177.42 241,-162 185.61,-143.04 123.85,-113.45 89.28,-96.06"/>
<polygon fill="#63b8ff" stroke="#63b8ff" points="378.14,-202.26 388.65,-200.92 379.59,-195.42 378.14,-202.26"/>
</a>
</g>
</g>
<!-- Node9 -->
<g id="Node000009" class="node">
<title>Node9</title>
<g id="a_Node000009"><a xlink:href="stdio__server__transport_8hpp.html" target="_top" xlink:title=" ">
<polygon fill="white" stroke="#666666" points="586,-96 436,-96 436,-66 586,-66 586,-96"/>
<text text-anchor="start" x="444" y="-84" font-family="Helvetica,sans-Serif" font-size="10.00">include/jsonrpc/transports</text>
<text text-anchor="middle" x="511" y="-73" font-family="Helvetica,sans-Serif" font-size="10.00">/stdio_server_transport.hpp</text>
</a>
</g>
</g>
<!-- Node2&#45;&gt;Node9 -->
<g id="edge15_Node000002_Node000009" class="edge">
<title>Node2&#45;&gt;Node9</title>
<g id="a_edge15_Node000002_Node000009"><a xlink:title=" ">
<path fill="none" stroke="#63b8ff" d="M512.7,-199.07C532.92,-191.7 552.95,-180.13 565,-162 580.4,-138.83 553.12,-112.07 532.04,-96.12"/>
<polygon fill="#63b8ff" stroke="#63b8ff" points="511.48,-195.79 503.1,-202.27 513.7,-202.43 511.48,-195.79"/>
</a>
</g>
</g>
<!-- Node11 -->
<g id="Node000011" class="node">
<title>Node11</title>
<g id="a_Node000011"><a xlink:href="dispatcher_8cpp.html" target="_top" xlink:title=" ">
<polygon fill="white" stroke="#666666" points="556,-156.5 428,-156.5 428,-137.5 556,-137.5 556,-156.5"/>
<text text-anchor="middle" x="492" y="-144.5" font-family="Helvetica,sans-Serif" font-size="10.00">src/core/dispatcher.cpp</text>
</a>
</g>
</g>
<!-- Node2&#45;&gt;Node11 -->
<g id="edge16_Node000002_Node000011" class="edge">
<title>Node2&#45;&gt;Node11</title>
<g id="a_edge16_Node000002_Node000011"><a xlink:title=" ">
<path fill="none" stroke="#63b8ff" d="M462.09,-189.61C470.2,-178.32 479.58,-165.28 485.64,-156.84"/>
<polygon fill="#63b8ff" stroke="#63b8ff" points="459.2,-187.63 456.21,-197.8 464.89,-191.72 459.2,-187.63"/>
</a>
</g>
</g>
<!-- Node3&#45;&gt;Node4 -->
<g id="edge3_Node000003_Node000004" class="edge">
<title>Node3&#45;&gt;Node4</title>
<g id="a_edge3_Node000003_Node000004"><a xlink:title=" ">
<path fill="none" stroke="#63b8ff" d="M325.26,-123.11C343.48,-93.86 374.15,-44.65 386.55,-24.75"/>
<polygon fill="#63b8ff" stroke="#63b8ff" points="322.14,-121.5 319.82,-131.84 328.08,-125.2 322.14,-121.5"/>
</a>
</g>
</g>
<!-- Node3&#45;&gt;Node5 -->
<g id="edge4_Node000003_Node000005" class="edge">
<title>Node3&#45;&gt;Node5</title>
<g id="a_edge4_Node000003_Node000005"><a xlink:title=" ">
<path fill="none" stroke="#63b8ff" d="M246.62,-129.45C206.27,-119.08 154.84,-105.86 116.52,-96.01"/>
<polygon fill="#63b8ff" stroke="#63b8ff" points="245.8,-132.86 256.36,-131.95 247.54,-126.08 245.8,-132.86"/>
</a>
</g>
</g>
<!-- Node7 -->
<g id="Node000007" class="node">
<title>Node7</title>
<g id="a_Node000007"><a xlink:href="framed__stdio__server__transport_8hpp.html" target="_top" xlink:title=" ">
<polygon fill="white" stroke="#666666" points="333.5,-96 142.5,-96 142.5,-66 333.5,-66 333.5,-96"/>
<text text-anchor="start" x="150.5" y="-84" font-family="Helvetica,sans-Serif" font-size="10.00">include/jsonrpc/transports</text>
<text text-anchor="middle" x="238" y="-73" font-family="Helvetica,sans-Serif" font-size="10.00">/framed_stdio_server_transport.hpp</text>
</a>
</g>
</g>
<!-- Node3&#45;&gt;Node7 -->
<g id="edge7_Node000003_Node000007" class="edge">
<title>Node3&#45;&gt;Node7</title>
<g id="a_edge7_Node000003_Node000007"><a xlink:title=" ">
<path fill="none" stroke="#63b8ff" d="M287.28,-125.2C276.44,-115.7 263.88,-104.69 254.16,-96.16"/>
<polygon fill="#63b8ff" stroke="#63b8ff" points="284.97,-127.84 294.8,-131.8 289.59,-122.57 284.97,-127.84"/>
</a>
</g>
</g>
<!-- Node3&#45;&gt;Node9 -->
<g id="edge10_Node000003_Node000009" class="edge">
<title>Node3&#45;&gt;Node9</title>
<g id="a_edge10_Node000003_Node000009"><a xlink:title=" ">
<path fill="none" stroke="#63b8ff" d="M364.57,-128.86C396.69,-118.58 437.01,-105.68 467.21,-96.01"/>
<polygon fill="#63b8ff" stroke="#63b8ff" points="363.35,-125.57 354.89,-131.95 365.48,-132.24 363.35,-125.57"/>
</a>
</g>
</g>
<!-- Node5&#45;&gt;Node4 -->
<g id="edge5_Node000005_Node000004" class="edge">
<title>Node5&#45;&gt;Node4</title>
<g id="a_edge5_Node000005_Node000004"><a xlink:title=" ">
<path fill="none" stroke="#63b8ff" d="M134.19,-65.77C215.08,-50 297.95,-34.05 347.53,-24.53"/>
<polygon fill="#63b8ff" stroke="#63b8ff" points="133.48,-62.34 124.34,-67.69 134.82,-69.21 133.48,-62.34"/>
</a>
</g>
</g>
<!-- Node6 -->
<g id="Node000006" class="node">
<title>Node6</title>
<g id="a_Node000006"><a xlink:href="server_8cpp.html" target="_top" xlink:title=" ">
<polygon fill="white" stroke="#666666" points="121,-24.5 3,-24.5 3,-5.5 121,-5.5 121,-24.5"/>
<text text-anchor="middle" x="62" y="-12.5" font-family="Helvetica,sans-Serif" font-size="10.00">src/server/server.cpp</text>
</a>
</g>
</g>
<!-- Node5&#45;&gt;Node6 -->
<g id="edge6_Node000005_Node000006" class="edge">
<title>Node5&#45;&gt;Node6</title>
<g id="a_edge6_Node000005_Node000006"><a xlink:title=" ">
<path fill="none" stroke="#63b8ff" d="M62,-55.6C62,-44.8 62,-32.78 62,-24.84"/>
<polygon fill="#63b8ff" stroke="#63b8ff" points="58.5,-55.8 62,-65.8 65.5,-55.8 58.5,-55.8"/>
</a>
</g>
</g>
<!-- Node7&#45;&gt;Node4 -->
<g id="edge8_Node000007_Node000004" class="edge">
<title>Node7&#45;&gt;Node4</title>
<g id="a_edge8_Node000007_Node000004"><a xlink:title=" ">
<path fill="none" stroke="#63b8ff" d="M281.07,-62.1C310.63,-49.82 348.53,-34.06 371.51,-24.52"/>
<polygon fill="#63b8ff" stroke="#63b8ff" points="279.69,-58.89 271.8,-65.95 282.37,-65.35 279.69,-58.89"/>
</a>
</g>
</g>
<!-- Node8 -->
<g id="Node000008" class="node">
<title>Node8</title>
<g id="a_Node000008"><a xlink:href="framed__stdio__server__transport_8cpp.html" target="_top" xlink:title=" ">
<polygon fill="white" stroke="#666666" points="299,-30 147,-30 147,0 299,0 299,-30"/>
<text text-anchor="start" x="155" y="-18" font-family="Helvetica,sans-Serif" font-size="10.00">src/transports/framed</text>
<text text-anchor="middle" x="223" y="-7" font-family="Helvetica,sans-Serif" font-size="10.00">_stdio_server_transport.cpp</text>
</a>
</g>
</g>
<!-- Node7&#45;&gt;Node8 -->
<g id="edge9_Node000007_Node000008" class="edge">
<title>Node7&#45;&gt;Node8</title>
<g id="a_edge9_Node000007_Node000008"><a xlink:title=" ">
<path fill="none" stroke="#63b8ff" d="M232.33,-55.83C230.31,-47.17 228.09,-37.7 226.32,-30.16"/>
<polygon fill="#63b8ff" stroke="#63b8ff" points="228.98,-56.86 234.67,-65.8 235.8,-55.26 228.98,-56.86"/>
</a>
</g>
</g>
<!-- Node9&#45;&gt;Node4 -->
<g id="edge11_Node000009_Node000004" class="edge">
<title>Node9&#45;&gt;Node4</title>
<g id="a_edge11_Node000009_Node000004"><a xlink:title=" ">
<path fill="none" stroke="#63b8ff" d="M475.93,-61.14C453.36,-49 425.13,-33.82 407.84,-24.52"/>
<polygon fill="#63b8ff" stroke="#63b8ff" points="474.42,-64.3 484.88,-65.95 477.74,-58.14 474.42,-64.3"/>
</a>
</g>
</g>
<!-- Node10 -->
<g id="Node000010" class="node">
<title>Node10</title>
<g id="a_Node000010"><a xlink:href="stdio__server__transport_8cpp.html" target="_top" xlink:title=" ">
<polygon fill="white" stroke="#666666" points="607,-30 485,-30 485,0 607,0 607,-30"/>
<text text-anchor="start" x="493" y="-18" font-family="Helvetica,sans-Serif" font-size="10.00">src/transports/stdio</text>
<text text-anchor="middle" x="546" y="-7" font-family="Helvetica,sans-Serif" font-size="10.00">_server_transport.cpp</text>
</a>
</g>
</g>
<!-- Node9&#45;&gt;Node10 -->
<g id="edge12_Node000009_Node000010" class="edge">
<title>Node9&#45;&gt;Node10</title>
<g id="a_edge12_Node000009_Node000010"><a xlink:title=" ">
<path fill="none" stroke="#63b8ff" d="M523.6,-56.96C528.5,-48 533.95,-38.03 538.25,-30.16"/>
<polygon fill="#63b8ff" stroke="#63b8ff" points="520.5,-55.34 518.77,-65.8 526.64,-58.7 520.5,-55.34"/>
</a>
</g>
</g>
</g>
</svg>
