<?xml version="1.0" encoding="UTF-8" standalone="no"?>
<!DOCTYPE svg PUBLIC "-//W3C//DTD SVG 1.1//EN"
 "http://www.w3.org/Graphics/SVG/1.1/DTD/svg11.dtd">
<!-- Generated by graphviz version 2.43.0 (0)
 -->
<!-- Title: src/core/dispatcher.cpp Pages: 1 -->
<svg width="658pt" height="247pt"
 viewBox="0.00 0.00 658.01 247.00" xmlns="http://www.w3.org/2000/svg" xmlns:xlink="http://www.w3.org/1999/xlink">
<g id="graph0" class="graph" transform="scale(1 1) rotate(0) translate(4 243)">
<title>src/core/dispatcher.cpp</title>
<!-- Node1 -->
<g id="Node000001" class="node">
<title>Node1</title>
<g id="a_Node000001"><a xlink:title=" ">
<polygon fill="#999999" stroke="#666666" points="398.01,-239 270.01,-239 270.01,-220 398.01,-220 398.01,-239"/>
<text text-anchor="middle" x="334.01" y="-227" font-family="Helvetica,sans-Serif" font-size="10.00">src/core/dispatcher.cpp</text>
</a>
</g>
</g>
<!-- Node2 -->
<g id="Node000002" class="node">
<title>Node2</title>
<g id="a_Node000002"><a xlink:href="dispatcher_8hpp.html" target="_top" xlink:title=" ">
<polygon fill="white" stroke="#666666" points="340.01,-184 190.01,-184 190.01,-165 340.01,-165 340.01,-184"/>
<text text-anchor="middle" x="265.01" y="-172" font-family="Helvetica,sans-Serif" font-size="10.00">jsonrpc/core/dispatcher.hpp</text>
</a>
</g>
</g>
<!-- Node1&#45;&gt;Node2 -->
<g id="edge1_Node000001_Node000002" class="edge">
<title>Node1&#45;&gt;Node2</title>
<g id="a_edge1_Node000001_Node000002"><a xlink:title=" ">
<path fill="none" stroke="#63b8ff" d="M322.92,-219.98C312.52,-212 296.75,-199.88 284.29,-190.31"/>
<polygon fill="#63b8ff" stroke="#63b8ff" points="286.36,-187.49 276.3,-184.17 282.1,-193.04 286.36,-187.49"/>
</a>
</g>
</g>
<!-- Node14 -->
<g id="Node000014" class="node">
<title>Node14</title>
<g id="a_Node000014"><a xlink:title=" ">
<polygon fill="#e0e0e0" stroke="#999999" points="450.51,-184 357.51,-184 357.51,-165 450.51,-165 450.51,-184"/>
<text text-anchor="middle" x="404.01" y="-172" font-family="Helvetica,sans-Serif" font-size="10.00">spdlog/spdlog.h</text>
</a>
</g>
</g>
<!-- Node1&#45;&gt;Node14 -->
<g id="edge21_Node000001_Node000014" class="edge">
<title>Node1&#45;&gt;Node14</title>
<g id="a_edge21_Node000001_Node000014"><a xlink:title=" ">
<path fill="none" stroke="#63b8ff" d="M345.26,-219.98C355.81,-212 371.81,-199.88 384.45,-190.31"/>
<polygon fill="#63b8ff" stroke="#63b8ff" points="386.7,-193 392.56,-184.17 382.47,-187.42 386.7,-193"/>
</a>
</g>
</g>
<!-- Node3 -->
<g id="Node000003" class="node">
<title>Node3</title>
<g id="a_Node000003"><a xlink:title=" ">
<polygon fill="#e0e0e0" stroke="#999999" points="351.01,-19 295.01,-19 295.01,0 351.01,0 351.01,-19"/>
<text text-anchor="middle" x="323.01" y="-7" font-family="Helvetica,sans-Serif" font-size="10.00">optional</text>
</a>
</g>
</g>
<!-- Node2&#45;&gt;Node3 -->
<g id="edge2_Node000002_Node000003" class="edge">
<title>Node2&#45;&gt;Node3</title>
<g id="a_edge2_Node000002_Node000003"><a xlink:title=" ">
<path fill="none" stroke="#63b8ff" d="M189.89,-170.59C123.99,-166.27 35.28,-155.55 13.01,-129 3.16,-117.26 -10.55,-83.45 15.01,-55 50.15,-15.88 209.96,-10.52 284.5,-10.2"/>
<polygon fill="#63b8ff" stroke="#63b8ff" points="284.86,-13.7 294.86,-10.19 284.85,-6.7 284.86,-13.7"/>
</a>
</g>
</g>
<!-- Node4 -->
<g id="Node000004" class="node">
<title>Node4</title>
<g id="a_Node000004"><a xlink:title=" ">
<polygon fill="#e0e0e0" stroke="#999999" points="376.01,-74 332.01,-74 332.01,-55 376.01,-55 376.01,-74"/>
<text text-anchor="middle" x="354.01" y="-62" font-family="Helvetica,sans-Serif" font-size="10.00">string</text>
</a>
</g>
</g>
<!-- Node2&#45;&gt;Node4 -->
<g id="edge3_Node000002_Node000004" class="edge">
<title>Node2&#45;&gt;Node4</title>
<g id="a_edge3_Node000002_Node000004"><a xlink:title=" ">
<path fill="none" stroke="#63b8ff" d="M322.58,-164.99C343.96,-158.73 366.13,-147.86 379.01,-129 388.88,-114.55 379.04,-95.65 368.96,-82.23"/>
<polygon fill="#63b8ff" stroke="#63b8ff" points="371.53,-79.85 362.49,-74.31 366.1,-84.27 371.53,-79.85"/>
</a>
</g>
</g>
<!-- Node5 -->
<g id="Node000005" class="node">
<title>Node5</title>
<g id="a_Node000005"><a xlink:title=" ">
<polygon fill="#e0e0e0" stroke="#999999" points="117.51,-74 24.51,-74 24.51,-55 117.51,-55 117.51,-74"/>
<text text-anchor="middle" x="71.01" y="-62" font-family="Helvetica,sans-Serif" font-size="10.00">unordered_map</text>
</a>
</g>
</g>
<!-- Node2&#45;&gt;Node5 -->
<g id="edge4_Node000002_Node000005" class="edge">
<title>Node2&#45;&gt;Node5</title>
<g id="a_edge4_Node000002_Node000005"><a xlink:title=" ">
<path fill="none" stroke="#63b8ff" d="M189.78,-170.06C126.23,-165.39 42.25,-154.46 21.01,-129 7.06,-112.27 28.41,-92.48 47.38,-79.5"/>
<polygon fill="#63b8ff" stroke="#63b8ff" points="49.31,-82.42 55.79,-74.04 45.5,-76.55 49.31,-82.42"/>
</a>
</g>
</g>
<!-- Node6 -->
<g id="Node000006" class="node">
<title>Node6</title>
<g id="a_Node000006"><a xlink:title=" ">
<polygon fill="#e0e0e0" stroke="#999999" points="239.51,-129 192.51,-129 192.51,-110 239.51,-110 239.51,-129"/>
<text text-anchor="middle" x="216.01" y="-117" font-family="Helvetica,sans-Serif" font-size="10.00">vector</text>
</a>
</g>
</g>
<!-- Node2&#45;&gt;Node6 -->
<g id="edge5_Node000002_Node000006" class="edge">
<title>Node2&#45;&gt;Node6</title>
<g id="a_edge5_Node000002_Node000006"><a xlink:title=" ">
<path fill="none" stroke="#63b8ff" d="M256.92,-164.75C249.85,-157.11 239.42,-145.82 230.86,-136.56"/>
<polygon fill="#63b8ff" stroke="#63b8ff" points="233.31,-134.06 223.95,-129.09 228.17,-138.81 233.31,-134.06"/>
</a>
</g>
</g>
<!-- Node7 -->
<g id="Node000007" class="node">
<title>Node7</title>
<g id="a_Node000007"><a xlink:title=" ">
<polygon fill="#e0e0e0" stroke="#999999" points="370.51,-129 257.51,-129 257.51,-110 370.51,-110 370.51,-129"/>
<text text-anchor="middle" x="314.01" y="-117" font-family="Helvetica,sans-Serif" font-size="10.00">BS_thread_pool.hpp</text>
</a>
</g>
</g>
<!-- Node2&#45;&gt;Node7 -->
<g id="edge6_Node000002_Node000007" class="edge">
<title>Node2&#45;&gt;Node7</title>
<g id="a_edge6_Node000002_Node000007"><a xlink:title=" ">
<path fill="none" stroke="#63b8ff" d="M273.1,-164.75C280.16,-157.11 290.6,-145.82 299.16,-136.56"/>
<polygon fill="#63b8ff" stroke="#63b8ff" points="301.85,-138.81 306.07,-129.09 296.71,-134.06 301.85,-138.81"/>
</a>
</g>
</g>
<!-- Node8 -->
<g id="Node000008" class="node">
<title>Node8</title>
<g id="a_Node000008"><a xlink:href="request_8hpp.html" target="_top" xlink:title=" ">
<polygon fill="white" stroke="#666666" points="564.51,-129 427.51,-129 427.51,-110 564.51,-110 564.51,-129"/>
<text text-anchor="middle" x="496.01" y="-117" font-family="Helvetica,sans-Serif" font-size="10.00">jsonrpc/core/request.hpp</text>
</a>
</g>
</g>
<!-- Node2&#45;&gt;Node8 -->
<g id="edge7_Node000002_Node000008" class="edge">
<title>Node2&#45;&gt;Node8</title>
<g id="a_edge7_Node000002_Node000008"><a xlink:title=" ">
<path fill="none" stroke="#63b8ff" d="M302.12,-164.98C342,-155.84 405.47,-141.27 448.85,-131.32"/>
<polygon fill="#63b8ff" stroke="#63b8ff" points="449.64,-134.73 458.6,-129.08 448.07,-127.91 449.64,-134.73"/>
</a>
</g>
</g>
<!-- Node9 -->
<g id="Node000009" class="node">
<title>Node9</title>
<g id="a_Node000009"><a xlink:href="types_8hpp.html" target="_top" xlink:title=" ">
<polygon fill="white" stroke="#666666" points="559.51,-74 432.51,-74 432.51,-55 559.51,-55 559.51,-74"/>
<text text-anchor="middle" x="496.01" y="-62" font-family="Helvetica,sans-Serif" font-size="10.00">jsonrpc/core/types.hpp</text>
</a>
</g>
</g>
<!-- Node2&#45;&gt;Node9 -->
<g id="edge20_Node000002_Node000009" class="edge">
<title>Node2&#45;&gt;Node9</title>
<g id="a_edge20_Node000002_Node000009"><a xlink:title=" ">
<path fill="none" stroke="#63b8ff" d="M340.13,-165.16C429.12,-154.92 566.37,-137.82 574.01,-129 591.73,-108.55 559.41,-89.58 531.14,-77.8"/>
<polygon fill="#63b8ff" stroke="#63b8ff" points="532.37,-74.53 521.79,-74.09 529.79,-81.04 532.37,-74.53"/>
</a>
</g>
</g>
<!-- Node13 -->
<g id="Node000013" class="node">
<title>Node13</title>
<g id="a_Node000013"><a xlink:href="response_8hpp.html" target="_top" xlink:title=" ">
<polygon fill="white" stroke="#666666" points="174.01,-129 30.01,-129 30.01,-110 174.01,-110 174.01,-129"/>
<text text-anchor="middle" x="102.01" y="-117" font-family="Helvetica,sans-Serif" font-size="10.00">jsonrpc/core/response.hpp</text>
</a>
</g>
</g>
<!-- Node2&#45;&gt;Node13 -->
<g id="edge15_Node000002_Node000013" class="edge">
<title>Node2&#45;&gt;Node13</title>
<g id="a_edge15_Node000002_Node000013"><a xlink:title=" ">
<path fill="none" stroke="#63b8ff" d="M238.82,-164.98C211.57,-156.13 168.71,-142.19 138.23,-132.28"/>
<polygon fill="#63b8ff" stroke="#63b8ff" points="139,-128.85 128.4,-129.08 136.83,-135.5 139,-128.85"/>
</a>
</g>
</g>
<!-- Node8&#45;&gt;Node3 -->
<g id="edge8_Node000008_Node000003" class="edge">
<title>Node8&#45;&gt;Node3</title>
<g id="a_edge8_Node000008_Node000003"><a xlink:title=" ">
<path fill="none" stroke="#63b8ff" d="M481.92,-109.83C467.39,-100.89 444.09,-86.52 424.01,-74 396.88,-57.09 365.74,-37.48 345.3,-24.58"/>
<polygon fill="#63b8ff" stroke="#63b8ff" points="347.04,-21.54 336.71,-19.16 343.3,-27.46 347.04,-21.54"/>
</a>
</g>
</g>
<!-- Node8&#45;&gt;Node4 -->
<g id="edge9_Node000008_Node000004" class="edge">
<title>Node8&#45;&gt;Node4</title>
<g id="a_edge9_Node000008_Node000004"><a xlink:title=" ">
<path fill="none" stroke="#63b8ff" d="M473.19,-109.98C449.56,-101.16 412.43,-87.31 385.9,-77.4"/>
<polygon fill="#63b8ff" stroke="#63b8ff" points="386.89,-74.04 376.3,-73.82 384.44,-80.6 386.89,-74.04"/>
</a>
</g>
</g>
<!-- Node8&#45;&gt;Node9 -->
<g id="edge10_Node000008_Node000009" class="edge">
<title>Node8&#45;&gt;Node9</title>
<g id="a_edge10_Node000008_Node000009"><a xlink:title=" ">
<path fill="none" stroke="#63b8ff" d="M496.01,-109.75C496.01,-102.8 496.01,-92.85 496.01,-84.13"/>
<polygon fill="#63b8ff" stroke="#63b8ff" points="499.51,-84.09 496.01,-74.09 492.51,-84.09 499.51,-84.09"/>
</a>
</g>
</g>
<!-- Node9&#45;&gt;Node3 -->
<g id="edge12_Node000009_Node000003" class="edge">
<title>Node9&#45;&gt;Node3</title>
<g id="a_edge12_Node000009_Node000003"><a xlink:title=" ">
<path fill="none" stroke="#63b8ff" d="M468.21,-54.98C439.04,-46.05 393.01,-31.94 360.61,-22.02"/>
<polygon fill="#63b8ff" stroke="#63b8ff" points="361.61,-18.66 351.02,-19.08 359.56,-25.36 361.61,-18.66"/>
</a>
</g>
</g>
<!-- Node10 -->
<g id="Node000010" class="node">
<title>Node10</title>
<g id="a_Node000010"><a xlink:title=" ">
<polygon fill="#e0e0e0" stroke="#999999" points="452.51,-19 387.51,-19 387.51,0 452.51,0 452.51,-19"/>
<text text-anchor="middle" x="420.01" y="-7" font-family="Helvetica,sans-Serif" font-size="10.00">functional</text>
</a>
</g>
</g>
<!-- Node9&#45;&gt;Node10 -->
<g id="edge11_Node000009_Node000010" class="edge">
<title>Node9&#45;&gt;Node10</title>
<g id="a_edge11_Node000009_Node000010"><a xlink:title=" ">
<path fill="none" stroke="#63b8ff" d="M483.8,-54.98C472.23,-46.92 454.63,-34.65 440.85,-25.03"/>
<polygon fill="#63b8ff" stroke="#63b8ff" points="442.65,-22.02 432.44,-19.17 438.64,-27.76 442.65,-22.02"/>
</a>
</g>
</g>
<!-- Node11 -->
<g id="Node000011" class="node">
<title>Node11</title>
<g id="a_Node000011"><a xlink:title=" ">
<polygon fill="#e0e0e0" stroke="#999999" points="521.51,-19 470.51,-19 470.51,0 521.51,0 521.51,-19"/>
<text text-anchor="middle" x="496.01" y="-7" font-family="Helvetica,sans-Serif" font-size="10.00">variant</text>
</a>
</g>
</g>
<!-- Node9&#45;&gt;Node11 -->
<g id="edge13_Node000009_Node000011" class="edge">
<title>Node9&#45;&gt;Node11</title>
<g id="a_edge13_Node000009_Node000011"><a xlink:title=" ">
<path fill="none" stroke="#63b8ff" d="M496.01,-54.75C496.01,-47.8 496.01,-37.85 496.01,-29.13"/>
<polygon fill="#63b8ff" stroke="#63b8ff" points="499.51,-29.09 496.01,-19.09 492.51,-29.09 499.51,-29.09"/>
</a>
</g>
</g>
<!-- Node12 -->
<g id="Node000012" class="node">
<title>Node12</title>
<g id="a_Node000012"><a xlink:title=" ">
<polygon fill="#e0e0e0" stroke="#999999" points="650.01,-19 540.01,-19 540.01,0 650.01,0 650.01,-19"/>
<text text-anchor="middle" x="595.01" y="-7" font-family="Helvetica,sans-Serif" font-size="10.00">nlohmann/json.hpp</text>
</a>
</g>
</g>
<!-- Node9&#45;&gt;Node12 -->
<g id="edge14_Node000009_Node000012" class="edge">
<title>Node9&#45;&gt;Node12</title>
<g id="a_edge14_Node000009_Node000012"><a xlink:title=" ">
<path fill="none" stroke="#63b8ff" d="M511.92,-54.98C527.55,-46.61 551.66,-33.7 569.89,-23.95"/>
<polygon fill="#63b8ff" stroke="#63b8ff" points="571.65,-26.98 578.81,-19.17 568.35,-20.8 571.65,-26.98"/>
</a>
</g>
</g>
<!-- Node13&#45;&gt;Node3 -->
<g id="edge16_Node000013_Node000003" class="edge">
<title>Node13&#45;&gt;Node3</title>
<g id="a_edge16_Node000013_Node000003"><a xlink:title=" ">
<path fill="none" stroke="#63b8ff" d="M119.72,-109.84C158.45,-90.92 250.84,-45.77 296.52,-23.45"/>
<polygon fill="#63b8ff" stroke="#63b8ff" points="298.07,-26.58 305.52,-19.05 295,-20.29 298.07,-26.58"/>
</a>
</g>
</g>
<!-- Node13&#45;&gt;Node4 -->
<g id="edge17_Node000013_Node000004" class="edge">
<title>Node13&#45;&gt;Node4</title>
<g id="a_edge17_Node000013_Node000004"><a xlink:title=" ">
<path fill="none" stroke="#63b8ff" d="M142.5,-109.98C192.45,-99.48 276.35,-81.83 322.03,-72.23"/>
<polygon fill="#63b8ff" stroke="#63b8ff" points="322.91,-75.62 331.97,-70.13 321.47,-68.77 322.91,-75.62"/>
</a>
</g>
</g>
<!-- Node13&#45;&gt;Node5 -->
<g id="edge18_Node000013_Node000005" class="edge">
<title>Node13&#45;&gt;Node5</title>
<g id="a_edge18_Node000013_Node000005"><a xlink:title=" ">
<path fill="none" stroke="#63b8ff" d="M96.89,-109.75C92.65,-102.49 86.48,-91.95 81.23,-82.98"/>
<polygon fill="#63b8ff" stroke="#63b8ff" points="84.1,-80.95 76.03,-74.09 78.06,-84.49 84.1,-80.95"/>
</a>
</g>
</g>
<!-- Node13&#45;&gt;Node9 -->
<g id="edge19_Node000013_Node000009" class="edge">
<title>Node13&#45;&gt;Node9</title>
<g id="a_edge19_Node000013_Node000009"><a xlink:title=" ">
<path fill="none" stroke="#63b8ff" d="M165.31,-109.98C235.43,-100.55 348.33,-85.36 422.36,-75.41"/>
<polygon fill="#63b8ff" stroke="#63b8ff" points="423.09,-78.84 432.54,-74.04 422.16,-71.9 423.09,-78.84"/>
</a>
</g>
</g>
</g>
</svg>
