<?xml version="1.0" encoding="UTF-8" standalone="no"?>
<!DOCTYPE svg PUBLIC "-//W3C//DTD SVG 1.1//EN"
 "http://www.w3.org/Graphics/SVG/1.1/DTD/svg11.dtd">
<!-- Generated by graphviz version 2.43.0 (0)
 -->
<!-- Title: include/json_rpc/core/dispatcher.hpp Pages: 1 -->
<svg width="989pt" height="236pt"
 viewBox="0.00 0.00 988.50 236.00" xmlns="http://www.w3.org/2000/svg" xmlns:xlink="http://www.w3.org/1999/xlink">
<g id="graph0" class="graph" transform="scale(1 1) rotate(0) translate(4 232)">
<title>include/json_rpc/core/dispatcher.hpp</title>
<!-- Node1 -->
<g id="Node000001" class="node">
<title>Node1</title>
<g id="a_Node000001"><a xlink:title=" ">
<polygon fill="#999999" stroke="#666666" points="631,-228 512,-228 512,-198 631,-198 631,-228"/>
<text text-anchor="start" x="520" y="-216" font-family="Helvetica,sans-Serif" font-size="10.00">include/json_rpc/core</text>
<text text-anchor="middle" x="571.5" y="-205" font-family="Helvetica,sans-Serif" font-size="10.00">/dispatcher.hpp</text>
</a>
</g>
</g>
<!-- Node2 -->
<g id="Node000002" class="node">
<title>Node2</title>
<g id="a_Node000002"><a xlink:href="server__transport_8hpp.html" target="_top" xlink:title=" ">
<polygon fill="white" stroke="#666666" points="507,-162 386,-162 386,-132 507,-132 507,-162"/>
<text text-anchor="start" x="394" y="-150" font-family="Helvetica,sans-Serif" font-size="10.00">include/json_rpc/core</text>
<text text-anchor="middle" x="446.5" y="-139" font-family="Helvetica,sans-Serif" font-size="10.00">/server_transport.hpp</text>
</a>
</g>
</g>
<!-- Node1&#45;&gt;Node2 -->
<g id="edge1_Node000001_Node000002" class="edge">
<title>Node1&#45;&gt;Node2</title>
<g id="a_edge1_Node000001_Node000002"><a xlink:title=" ">
<path fill="none" stroke="#63b8ff" d="M535.13,-193.38C515.57,-183.36 491.85,-171.22 473.87,-162.01"/>
<polygon fill="#63b8ff" stroke="#63b8ff" points="533.57,-196.51 544.07,-197.95 536.76,-190.28 533.57,-196.51"/>
</a>
</g>
</g>
<!-- Node3 -->
<g id="Node000003" class="node">
<title>Node3</title>
<g id="a_Node000003"><a xlink:href="json__rpc_8hpp.html" target="_top" xlink:title=" ">
<polygon fill="white" stroke="#666666" points="594,-30 475,-30 475,0 594,0 594,-30"/>
<text text-anchor="start" x="483" y="-18" font-family="Helvetica,sans-Serif" font-size="10.00">include/json_rpc/json</text>
<text text-anchor="middle" x="534.5" y="-7" font-family="Helvetica,sans-Serif" font-size="10.00">_rpc.hpp</text>
</a>
</g>
</g>
<!-- Node1&#45;&gt;Node3 -->
<g id="edge15_Node000001_Node000003" class="edge">
<title>Node1&#45;&gt;Node3</title>
<g id="a_edge15_Node000001_Node000003"><a xlink:title=" ">
<path fill="none" stroke="#63b8ff" d="M566.95,-187.89C559.15,-146.58 543.46,-63.48 537.19,-30.23"/>
<polygon fill="#63b8ff" stroke="#63b8ff" points="563.54,-188.73 568.84,-197.9 570.42,-187.43 563.54,-188.73"/>
</a>
</g>
</g>
<!-- Node4 -->
<g id="Node000004" class="node">
<title>Node4</title>
<g id="a_Node000004"><a xlink:href="server_8hpp.html" target="_top" xlink:title=" ">
<polygon fill="white" stroke="#666666" points="129,-96 0,-96 0,-66 129,-66 129,-96"/>
<text text-anchor="start" x="8" y="-84" font-family="Helvetica,sans-Serif" font-size="10.00">include/json_rpc/server</text>
<text text-anchor="middle" x="64.5" y="-73" font-family="Helvetica,sans-Serif" font-size="10.00">/server.hpp</text>
</a>
</g>
</g>
<!-- Node1&#45;&gt;Node4 -->
<g id="edge16_Node000001_Node000004" class="edge">
<title>Node1&#45;&gt;Node4</title>
<g id="a_edge16_Node000001_Node000004"><a xlink:title=" ">
<path fill="none" stroke="#63b8ff" d="M501.7,-201.34C448.16,-192.55 372.63,-178.81 307.5,-162 233.53,-142.91 149.26,-113.36 101.93,-96.02"/>
<polygon fill="#63b8ff" stroke="#63b8ff" points="501.34,-204.83 511.77,-202.98 502.46,-197.92 501.34,-204.83"/>
</a>
</g>
</g>
<!-- Node8 -->
<g id="Node000008" class="node">
<title>Node8</title>
<g id="a_Node000008"><a xlink:href="http__server__transport_8hpp.html" target="_top" xlink:title=" ">
<polygon fill="white" stroke="#666666" points="295.5,-96 147.5,-96 147.5,-66 295.5,-66 295.5,-96"/>
<text text-anchor="start" x="155.5" y="-84" font-family="Helvetica,sans-Serif" font-size="10.00">include/json_rpc/transports</text>
<text text-anchor="middle" x="221.5" y="-73" font-family="Helvetica,sans-Serif" font-size="10.00">/http_server_transport.hpp</text>
</a>
</g>
</g>
<!-- Node1&#45;&gt;Node8 -->
<g id="edge17_Node000001_Node000008" class="edge">
<title>Node1&#45;&gt;Node8</title>
<g id="a_edge17_Node000001_Node000008"><a xlink:title=" ">
<path fill="none" stroke="#63b8ff" d="M502.09,-198.2C464.31,-189.71 417.13,-177.47 376.5,-162 327.68,-143.42 274.28,-113.55 244.63,-96.05"/>
<polygon fill="#63b8ff" stroke="#63b8ff" points="501.46,-201.65 511.98,-200.39 502.97,-194.82 501.46,-201.65"/>
</a>
</g>
</g>
<!-- Node10 -->
<g id="Node000010" class="node">
<title>Node10</title>
<g id="a_Node000010"><a xlink:href="stdio__server__transport_8hpp.html" target="_top" xlink:title=" ">
<polygon fill="white" stroke="#666666" points="749.5,-96 599.5,-96 599.5,-66 749.5,-66 749.5,-96"/>
<text text-anchor="start" x="607.5" y="-84" font-family="Helvetica,sans-Serif" font-size="10.00">include/json_rpc/transports</text>
<text text-anchor="middle" x="674.5" y="-73" font-family="Helvetica,sans-Serif" font-size="10.00">/stdio_server_transport.hpp</text>
</a>
</g>
</g>
<!-- Node1&#45;&gt;Node10 -->
<g id="edge21_Node000001_Node000010" class="edge">
<title>Node1&#45;&gt;Node10</title>
<g id="a_edge21_Node000001_Node000010"><a xlink:title=" ">
<path fill="none" stroke="#63b8ff" d="M589.09,-189.8C610.33,-162.99 645.43,-118.7 663.29,-96.14"/>
<polygon fill="#63b8ff" stroke="#63b8ff" points="586.19,-187.83 582.72,-197.84 591.67,-192.18 586.19,-187.83"/>
</a>
</g>
</g>
<!-- Node12 -->
<g id="Node000012" class="node">
<title>Node12</title>
<g id="a_Node000012"><a xlink:href="stdio__client__transport_8hpp.html" target="_top" xlink:title=" ">
<polygon fill="white" stroke="#666666" points="834.5,-162 686.5,-162 686.5,-132 834.5,-132 834.5,-162"/>
<text text-anchor="start" x="694.5" y="-150" font-family="Helvetica,sans-Serif" font-size="10.00">include/json_rpc/transports</text>
<text text-anchor="middle" x="760.5" y="-139" font-family="Helvetica,sans-Serif" font-size="10.00">/stdio_client_transport.hpp</text>
</a>
</g>
</g>
<!-- Node1&#45;&gt;Node12 -->
<g id="edge18_Node000001_Node000012" class="edge">
<title>Node1&#45;&gt;Node12</title>
<g id="a_edge18_Node000001_Node000012"><a xlink:title=" ">
<path fill="none" stroke="#63b8ff" d="M622.52,-194.72C652.8,-184.47 690.71,-171.63 719.12,-162.01"/>
<polygon fill="#63b8ff" stroke="#63b8ff" points="621.33,-191.43 612.98,-197.95 623.57,-198.06 621.33,-191.43"/>
</a>
</g>
</g>
<!-- Node14 -->
<g id="Node000014" class="node">
<title>Node14</title>
<g id="a_Node000014"><a xlink:href="dispatcher_8cpp.html" target="_top" xlink:title=" ">
<polygon fill="white" stroke="#666666" points="980.5,-156.5 852.5,-156.5 852.5,-137.5 980.5,-137.5 980.5,-156.5"/>
<text text-anchor="middle" x="916.5" y="-144.5" font-family="Helvetica,sans-Serif" font-size="10.00">src/core/dispatcher.cpp</text>
</a>
</g>
</g>
<!-- Node1&#45;&gt;Node14 -->
<g id="edge22_Node000001_Node000014" class="edge">
<title>Node1&#45;&gt;Node14</title>
<g id="a_edge22_Node000001_Node000014"><a xlink:title=" ">
<path fill="none" stroke="#63b8ff" d="M641.2,-199.34C696.17,-189.32 774.75,-174.91 843.5,-162 852.76,-160.26 862.67,-158.38 872.12,-156.57"/>
<polygon fill="#63b8ff" stroke="#63b8ff" points="640.43,-195.92 631.22,-201.16 641.68,-202.81 640.43,-195.92"/>
</a>
</g>
</g>
<!-- Node2&#45;&gt;Node3 -->
<g id="edge2_Node000002_Node000003" class="edge">
<title>Node2&#45;&gt;Node3</title>
<g id="a_edge2_Node000002_Node000003"><a xlink:title=" ">
<path fill="none" stroke="#63b8ff" d="M481.91,-126.24C493.48,-118.22 505.42,-107.99 513.5,-96 527.15,-75.76 531.93,-47.12 533.6,-30.17"/>
<polygon fill="#63b8ff" stroke="#63b8ff" points="479.66,-123.53 473.21,-131.94 483.49,-129.39 479.66,-123.53"/>
</a>
</g>
</g>
<!-- Node2&#45;&gt;Node4 -->
<g id="edge3_Node000002_Node000004" class="edge">
<title>Node2&#45;&gt;Node4</title>
<g id="a_edge3_Node000002_Node000004"><a xlink:title=" ">
<path fill="none" stroke="#63b8ff" d="M375.79,-135.06C313.31,-125.26 219.74,-110.28 138.5,-96 135.41,-95.46 132.25,-94.89 129.06,-94.32"/>
<polygon fill="#63b8ff" stroke="#63b8ff" points="375.51,-138.56 385.93,-136.64 376.6,-131.64 375.51,-138.56"/>
</a>
</g>
</g>
<!-- Node6 -->
<g id="Node000006" class="node">
<title>Node6</title>
<g id="a_Node000006"><a xlink:href="framed__stdio__server__transport_8hpp.html" target="_top" xlink:title=" ">
<polygon fill="white" stroke="#666666" points="505,-96 314,-96 314,-66 505,-66 505,-96"/>
<text text-anchor="start" x="322" y="-84" font-family="Helvetica,sans-Serif" font-size="10.00">include/json_rpc/transports</text>
<text text-anchor="middle" x="409.5" y="-73" font-family="Helvetica,sans-Serif" font-size="10.00">/framed_stdio_server_transport.hpp</text>
</a>
</g>
</g>
<!-- Node2&#45;&gt;Node6 -->
<g id="edge6_Node000002_Node000006" class="edge">
<title>Node2&#45;&gt;Node6</title>
<g id="a_edge6_Node000002_Node000006"><a xlink:title=" ">
<path fill="none" stroke="#63b8ff" d="M433.18,-122.96C428,-114 422.24,-104.03 417.69,-96.16"/>
<polygon fill="#63b8ff" stroke="#63b8ff" points="430.25,-124.89 438.29,-131.8 436.31,-121.39 430.25,-124.89"/>
</a>
</g>
</g>
<!-- Node2&#45;&gt;Node8 -->
<g id="edge9_Node000002_Node000008" class="edge">
<title>Node2&#45;&gt;Node8</title>
<g id="a_edge9_Node000002_Node000008"><a xlink:title=" ">
<path fill="none" stroke="#63b8ff" d="M387.16,-129.12C350.88,-118.8 305.03,-105.76 270.76,-96.01"/>
<polygon fill="#63b8ff" stroke="#63b8ff" points="386.55,-132.59 397.12,-131.95 388.46,-125.85 386.55,-132.59"/>
</a>
</g>
</g>
<!-- Node2&#45;&gt;Node10 -->
<g id="edge12_Node000002_Node000010" class="edge">
<title>Node2&#45;&gt;Node10</title>
<g id="a_edge12_Node000002_Node000010"><a xlink:title=" ">
<path fill="none" stroke="#63b8ff" d="M506.63,-129.12C543.39,-118.8 589.86,-105.76 624.58,-96.01"/>
<polygon fill="#63b8ff" stroke="#63b8ff" points="505.22,-125.88 496.54,-131.95 507.11,-132.62 505.22,-125.88"/>
</a>
</g>
</g>
<!-- Node4&#45;&gt;Node3 -->
<g id="edge4_Node000004_Node000003" class="edge">
<title>Node4&#45;&gt;Node3</title>
<g id="a_edge4_Node000004_Node000003"><a xlink:title=" ">
<path fill="none" stroke="#63b8ff" d="M139.23,-65.98C284.86,-44.75 324.28,-52.05 465.5,-30 468.52,-29.53 471.61,-29.02 474.72,-28.47"/>
<polygon fill="#63b8ff" stroke="#63b8ff" points="138.4,-62.56 129.02,-67.49 139.43,-69.49 138.4,-62.56"/>
</a>
</g>
</g>
<!-- Node5 -->
<g id="Node000005" class="node">
<title>Node5</title>
<g id="a_Node000005"><a xlink:href="server_8cpp.html" target="_top" xlink:title=" ">
<polygon fill="white" stroke="#666666" points="123.5,-24.5 5.5,-24.5 5.5,-5.5 123.5,-5.5 123.5,-24.5"/>
<text text-anchor="middle" x="64.5" y="-12.5" font-family="Helvetica,sans-Serif" font-size="10.00">src/server/server.cpp</text>
</a>
</g>
</g>
<!-- Node4&#45;&gt;Node5 -->
<g id="edge5_Node000004_Node000005" class="edge">
<title>Node4&#45;&gt;Node5</title>
<g id="a_edge5_Node000004_Node000005"><a xlink:title=" ">
<path fill="none" stroke="#63b8ff" d="M64.5,-55.6C64.5,-44.8 64.5,-32.78 64.5,-24.84"/>
<polygon fill="#63b8ff" stroke="#63b8ff" points="61,-55.8 64.5,-65.8 68,-55.8 61,-55.8"/>
</a>
</g>
</g>
<!-- Node6&#45;&gt;Node3 -->
<g id="edge7_Node000006_Node000003" class="edge">
<title>Node6&#45;&gt;Node3</title>
<g id="a_edge7_Node000006_Node000003"><a xlink:title=" ">
<path fill="none" stroke="#63b8ff" d="M445.87,-61.38C465.43,-51.36 489.15,-39.22 507.13,-30.01"/>
<polygon fill="#63b8ff" stroke="#63b8ff" points="444.24,-58.28 436.93,-65.95 447.43,-64.51 444.24,-58.28"/>
</a>
</g>
</g>
<!-- Node7 -->
<g id="Node000007" class="node">
<title>Node7</title>
<g id="a_Node000007"><a xlink:href="framed__stdio__server__transport_8cpp.html" target="_top" xlink:title=" ">
<polygon fill="white" stroke="#666666" points="456.5,-30 304.5,-30 304.5,0 456.5,0 456.5,-30"/>
<text text-anchor="start" x="312.5" y="-18" font-family="Helvetica,sans-Serif" font-size="10.00">src/transports/framed</text>
<text text-anchor="middle" x="380.5" y="-7" font-family="Helvetica,sans-Serif" font-size="10.00">_stdio_server_transport.cpp</text>
</a>
</g>
</g>
<!-- Node6&#45;&gt;Node7 -->
<g id="edge8_Node000006_Node000007" class="edge">
<title>Node6&#45;&gt;Node7</title>
<g id="a_edge8_Node000006_Node000007"><a xlink:title=" ">
<path fill="none" stroke="#63b8ff" d="M398.93,-56.68C394.91,-47.79 390.44,-37.95 386.92,-30.16"/>
<polygon fill="#63b8ff" stroke="#63b8ff" points="395.75,-58.13 403.06,-65.8 402.12,-55.24 395.75,-58.13"/>
</a>
</g>
</g>
<!-- Node8&#45;&gt;Node3 -->
<g id="edge10_Node000008_Node000003" class="edge">
<title>Node8&#45;&gt;Node3</title>
<g id="a_edge10_Node000008_Node000003"><a xlink:title=" ">
<path fill="none" stroke="#63b8ff" d="M300.11,-63.93C354.36,-52.83 425.35,-38.32 474.94,-28.18"/>
<polygon fill="#63b8ff" stroke="#63b8ff" points="299.29,-60.52 290.19,-65.95 300.69,-67.38 299.29,-60.52"/>
</a>
</g>
</g>
<!-- Node9 -->
<g id="Node000009" class="node">
<title>Node9</title>
<g id="a_Node000009"><a xlink:href="http__server__transport_8cpp.html" target="_top" xlink:title=" ">
<polygon fill="white" stroke="#666666" points="282.5,-30 160.5,-30 160.5,0 282.5,0 282.5,-30"/>
<text text-anchor="start" x="168.5" y="-18" font-family="Helvetica,sans-Serif" font-size="10.00">src/transports/http</text>
<text text-anchor="middle" x="221.5" y="-7" font-family="Helvetica,sans-Serif" font-size="10.00">_server_transport.cpp</text>
</a>
</g>
</g>
<!-- Node8&#45;&gt;Node9 -->
<g id="edge11_Node000008_Node000009" class="edge">
<title>Node8&#45;&gt;Node9</title>
<g id="a_edge11_Node000008_Node000009"><a xlink:title=" ">
<path fill="none" stroke="#63b8ff" d="M221.5,-55.54C221.5,-46.96 221.5,-37.61 221.5,-30.16"/>
<polygon fill="#63b8ff" stroke="#63b8ff" points="218,-55.8 221.5,-65.8 225,-55.8 218,-55.8"/>
</a>
</g>
</g>
<!-- Node10&#45;&gt;Node3 -->
<g id="edge13_Node000010_Node000003" class="edge">
<title>Node10&#45;&gt;Node3</title>
<g id="a_edge13_Node000010_Node000003"><a xlink:title=" ">
<path fill="none" stroke="#63b8ff" d="M634.65,-61.78C612.58,-51.69 585.56,-39.34 565.15,-30.01"/>
<polygon fill="#63b8ff" stroke="#63b8ff" points="633.23,-64.98 643.78,-65.95 636.14,-58.61 633.23,-64.98"/>
</a>
</g>
</g>
<!-- Node11 -->
<g id="Node000011" class="node">
<title>Node11</title>
<g id="a_Node000011"><a xlink:href="stdio__server__transport_8cpp.html" target="_top" xlink:title=" ">
<polygon fill="white" stroke="#666666" points="735.5,-30 613.5,-30 613.5,0 735.5,0 735.5,-30"/>
<text text-anchor="start" x="621.5" y="-18" font-family="Helvetica,sans-Serif" font-size="10.00">src/transports/stdio</text>
<text text-anchor="middle" x="674.5" y="-7" font-family="Helvetica,sans-Serif" font-size="10.00">_server_transport.cpp</text>
</a>
</g>
</g>
<!-- Node10&#45;&gt;Node11 -->
<g id="edge14_Node000010_Node000011" class="edge">
<title>Node10&#45;&gt;Node11</title>
<g id="a_edge14_Node000010_Node000011"><a xlink:title=" ">
<path fill="none" stroke="#63b8ff" d="M674.5,-55.54C674.5,-46.96 674.5,-37.61 674.5,-30.16"/>
<polygon fill="#63b8ff" stroke="#63b8ff" points="671,-55.8 674.5,-65.8 678,-55.8 671,-55.8"/>
</a>
</g>
</g>
<!-- Node12&#45;&gt;Node3 -->
<g id="edge19_Node000012_Node000003" class="edge">
<title>Node12&#45;&gt;Node3</title>
<g id="a_edge19_Node000012_Node000003"><a xlink:title=" ">
<path fill="none" stroke="#63b8ff" d="M767.09,-121.76C770.27,-104.33 771.07,-81.29 758.5,-66 755.84,-62.76 659.63,-42.12 594.18,-28.39"/>
<polygon fill="#63b8ff" stroke="#63b8ff" points="763.62,-121.26 764.9,-131.77 770.45,-122.75 763.62,-121.26"/>
</a>
</g>
</g>
<!-- Node13 -->
<g id="Node000013" class="node">
<title>Node13</title>
<g id="a_Node000013"><a xlink:href="stdio__client__transport_8cpp.html" target="_top" xlink:title=" ">
<polygon fill="white" stroke="#666666" points="925,-96 806,-96 806,-66 925,-66 925,-96"/>
<text text-anchor="start" x="814" y="-84" font-family="Helvetica,sans-Serif" font-size="10.00">src/transports/stdio</text>
<text text-anchor="middle" x="865.5" y="-73" font-family="Helvetica,sans-Serif" font-size="10.00">_client_transport.cpp</text>
</a>
</g>
</g>
<!-- Node12&#45;&gt;Node13 -->
<g id="edge20_Node000012_Node000013" class="edge">
<title>Node12&#45;&gt;Node13</title>
<g id="a_edge20_Node000012_Node000013"><a xlink:title=" ">
<path fill="none" stroke="#63b8ff" d="M792.17,-126.69C808.38,-116.82 827.75,-105.01 842.51,-96.01"/>
<polygon fill="#63b8ff" stroke="#63b8ff" points="790.26,-123.76 783.54,-131.95 793.9,-129.74 790.26,-123.76"/>
</a>
</g>
</g>
</g>
</svg>
