<?xml version="1.0" encoding="UTF-8" standalone="no"?>
<!DOCTYPE svg PUBLIC "-//W3C//DTD SVG 1.1//EN"
 "http://www.w3.org/Graphics/SVG/1.1/DTD/svg11.dtd">
<!-- Generated by graphviz version 2.43.0 (0)
 -->
<!-- Title: include/jsonrpc/core/dispatcher.hpp Pages: 1 -->
<svg width="658pt" height="203pt"
 viewBox="0.00 0.00 657.84 203.00" xmlns="http://www.w3.org/2000/svg" xmlns:xlink="http://www.w3.org/1999/xlink">
<g id="graph0" class="graph" transform="scale(1 1) rotate(0) translate(4 199)">
<title>include/jsonrpc/core/dispatcher.hpp</title>
<!-- Node1 -->
<g id="Node000001" class="node">
<title>Node1</title>
<g id="a_Node000001"><a xlink:title=" ">
<polygon fill="#999999" stroke="#666666" points="321.84,-195 207.84,-195 207.84,-165 321.84,-165 321.84,-195"/>
<text text-anchor="start" x="215.84" y="-183" font-family="Helvetica,sans-Serif" font-size="10.00">include/jsonrpc/core</text>
<text text-anchor="middle" x="264.84" y="-172" font-family="Helvetica,sans-Serif" font-size="10.00">/dispatcher.hpp</text>
</a>
</g>
</g>
<!-- Node2 -->
<g id="Node000002" class="node">
<title>Node2</title>
<g id="a_Node000002"><a xlink:title=" ">
<polygon fill="#e0e0e0" stroke="#999999" points="350.84,-19 294.84,-19 294.84,0 350.84,0 350.84,-19"/>
<text text-anchor="middle" x="322.84" y="-7" font-family="Helvetica,sans-Serif" font-size="10.00">optional</text>
</a>
</g>
</g>
<!-- Node1&#45;&gt;Node2 -->
<g id="edge1_Node000001_Node000002" class="edge">
<title>Node1&#45;&gt;Node2</title>
<g id="a_edge1_Node000001_Node000002"><a xlink:title=" ">
<path fill="none" stroke="#63b8ff" d="M207.65,-175.85C141.04,-170.84 37,-158.43 12.84,-129 3.1,-117.14 -10.4,-83.1 14.84,-55 49.98,-15.88 209.79,-10.52 284.33,-10.2"/>
<polygon fill="#63b8ff" stroke="#63b8ff" points="284.69,-13.7 294.69,-10.19 284.68,-6.7 284.69,-13.7"/>
</a>
</g>
</g>
<!-- Node3 -->
<g id="Node000003" class="node">
<title>Node3</title>
<g id="a_Node000003"><a xlink:title=" ">
<polygon fill="#e0e0e0" stroke="#999999" points="375.84,-74 331.84,-74 331.84,-55 375.84,-55 375.84,-74"/>
<text text-anchor="middle" x="353.84" y="-62" font-family="Helvetica,sans-Serif" font-size="10.00">string</text>
</a>
</g>
</g>
<!-- Node1&#45;&gt;Node3 -->
<g id="edge2_Node000001_Node000003" class="edge">
<title>Node1&#45;&gt;Node3</title>
<g id="a_edge2_Node000001_Node000003"><a xlink:title=" ">
<path fill="none" stroke="#63b8ff" d="M321.99,-167.88C343.58,-160.6 366.01,-148.63 378.84,-129 388.41,-114.35 378.62,-95.48 368.62,-82.12"/>
<polygon fill="#63b8ff" stroke="#63b8ff" points="371.24,-79.8 362.22,-74.25 365.81,-84.22 371.24,-79.8"/>
</a>
</g>
</g>
<!-- Node4 -->
<g id="Node000004" class="node">
<title>Node4</title>
<g id="a_Node000004"><a xlink:title=" ">
<polygon fill="#e0e0e0" stroke="#999999" points="117.34,-74 24.34,-74 24.34,-55 117.34,-55 117.34,-74"/>
<text text-anchor="middle" x="70.84" y="-62" font-family="Helvetica,sans-Serif" font-size="10.00">unordered_map</text>
</a>
</g>
</g>
<!-- Node1&#45;&gt;Node4 -->
<g id="edge3_Node000001_Node000004" class="edge">
<title>Node1&#45;&gt;Node4</title>
<g id="a_edge3_Node000001_Node000004"><a xlink:title=" ">
<path fill="none" stroke="#63b8ff" d="M207.74,-175.43C143.17,-170.07 43.97,-157.35 20.84,-129 7.21,-112.29 27.95,-92.76 46.72,-79.82"/>
<polygon fill="#63b8ff" stroke="#63b8ff" points="48.87,-82.59 55.34,-74.2 45.05,-76.73 48.87,-82.59"/>
</a>
</g>
</g>
<!-- Node5 -->
<g id="Node000005" class="node">
<title>Node5</title>
<g id="a_Node000005"><a xlink:title=" ">
<polygon fill="#e0e0e0" stroke="#999999" points="239.34,-129 192.34,-129 192.34,-110 239.34,-110 239.34,-129"/>
<text text-anchor="middle" x="215.84" y="-117" font-family="Helvetica,sans-Serif" font-size="10.00">vector</text>
</a>
</g>
</g>
<!-- Node1&#45;&gt;Node5 -->
<g id="edge4_Node000001_Node000005" class="edge">
<title>Node1&#45;&gt;Node5</title>
<g id="a_edge4_Node000001_Node000005"><a xlink:title=" ">
<path fill="none" stroke="#63b8ff" d="M252.98,-164.84C245.93,-156.43 236.98,-145.74 229.62,-136.96"/>
<polygon fill="#63b8ff" stroke="#63b8ff" points="232.28,-134.68 223.18,-129.27 226.92,-139.18 232.28,-134.68"/>
</a>
</g>
</g>
<!-- Node6 -->
<g id="Node000006" class="node">
<title>Node6</title>
<g id="a_Node000006"><a xlink:title=" ">
<polygon fill="#e0e0e0" stroke="#999999" points="370.34,-129 257.34,-129 257.34,-110 370.34,-110 370.34,-129"/>
<text text-anchor="middle" x="313.84" y="-117" font-family="Helvetica,sans-Serif" font-size="10.00">BS_thread_pool.hpp</text>
</a>
</g>
</g>
<!-- Node1&#45;&gt;Node6 -->
<g id="edge5_Node000001_Node000006" class="edge">
<title>Node1&#45;&gt;Node6</title>
<g id="a_edge5_Node000001_Node000006"><a xlink:title=" ">
<path fill="none" stroke="#63b8ff" d="M276.7,-164.84C283.74,-156.43 292.7,-145.74 300.05,-136.96"/>
<polygon fill="#63b8ff" stroke="#63b8ff" points="302.76,-139.18 306.49,-129.27 297.39,-134.68 302.76,-139.18"/>
</a>
</g>
</g>
<!-- Node7 -->
<g id="Node000007" class="node">
<title>Node7</title>
<g id="a_Node000007"><a xlink:href="core_2request_8hpp.html" target="_top" xlink:title=" ">
<polygon fill="white" stroke="#666666" points="564.34,-129 427.34,-129 427.34,-110 564.34,-110 564.34,-129"/>
<text text-anchor="middle" x="495.84" y="-117" font-family="Helvetica,sans-Serif" font-size="10.00">jsonrpc/core/request.hpp</text>
</a>
</g>
</g>
<!-- Node1&#45;&gt;Node7 -->
<g id="edge6_Node000001_Node000007" class="edge">
<title>Node1&#45;&gt;Node7</title>
<g id="a_edge6_Node000001_Node000007"><a xlink:title=" ">
<path fill="none" stroke="#63b8ff" d="M320.17,-164.99C360.55,-154.76 414.55,-141.09 451.97,-131.61"/>
<polygon fill="#63b8ff" stroke="#63b8ff" points="453.23,-134.9 462.06,-129.05 451.51,-128.12 453.23,-134.9"/>
</a>
</g>
</g>
<!-- Node8 -->
<g id="Node000008" class="node">
<title>Node8</title>
<g id="a_Node000008"><a xlink:href="types_8hpp.html" target="_top" xlink:title=" ">
<polygon fill="white" stroke="#666666" points="559.34,-74 432.34,-74 432.34,-55 559.34,-55 559.34,-74"/>
<text text-anchor="middle" x="495.84" y="-62" font-family="Helvetica,sans-Serif" font-size="10.00">jsonrpc/core/types.hpp</text>
</a>
</g>
</g>
<!-- Node1&#45;&gt;Node8 -->
<g id="edge19_Node000001_Node000008" class="edge">
<title>Node1&#45;&gt;Node8</title>
<g id="a_edge19_Node000001_Node000008"><a xlink:title=" ">
<path fill="none" stroke="#63b8ff" d="M321.99,-178.24C402.25,-175.83 542.13,-166.24 573.84,-129 591.38,-108.39 559.09,-89.46 530.88,-77.73"/>
<polygon fill="#63b8ff" stroke="#63b8ff" points="532.14,-74.47 521.55,-74.04 529.56,-80.97 532.14,-74.47"/>
</a>
</g>
</g>
<!-- Node12 -->
<g id="Node000012" class="node">
<title>Node12</title>
<g id="a_Node000012"><a xlink:href="response_8hpp.html" target="_top" xlink:title=" ">
<polygon fill="white" stroke="#666666" points="173.84,-129 29.84,-129 29.84,-110 173.84,-110 173.84,-129"/>
<text text-anchor="middle" x="101.84" y="-117" font-family="Helvetica,sans-Serif" font-size="10.00">jsonrpc/core/response.hpp</text>
</a>
</g>
</g>
<!-- Node1&#45;&gt;Node12 -->
<g id="edge14_Node000001_Node000012" class="edge">
<title>Node1&#45;&gt;Node12</title>
<g id="a_edge14_Node000001_Node000012"><a xlink:title=" ">
<path fill="none" stroke="#63b8ff" d="M225.79,-164.99C198.23,-155.1 161.69,-141.98 135.43,-132.56"/>
<polygon fill="#63b8ff" stroke="#63b8ff" points="136.5,-129.22 125.91,-129.14 134.14,-135.81 136.5,-129.22"/>
</a>
</g>
</g>
<!-- Node7&#45;&gt;Node2 -->
<g id="edge7_Node000007_Node000002" class="edge">
<title>Node7&#45;&gt;Node2</title>
<g id="a_edge7_Node000007_Node000002"><a xlink:title=" ">
<path fill="none" stroke="#63b8ff" d="M481.74,-109.83C467.22,-100.89 443.91,-86.52 423.84,-74 396.71,-57.09 365.57,-37.48 345.13,-24.58"/>
<polygon fill="#63b8ff" stroke="#63b8ff" points="346.86,-21.54 336.54,-19.16 343.13,-27.46 346.86,-21.54"/>
</a>
</g>
</g>
<!-- Node7&#45;&gt;Node3 -->
<g id="edge8_Node000007_Node000003" class="edge">
<title>Node7&#45;&gt;Node3</title>
<g id="a_edge8_Node000007_Node000003"><a xlink:title=" ">
<path fill="none" stroke="#63b8ff" d="M473.02,-109.98C449.39,-101.16 412.26,-87.31 385.73,-77.4"/>
<polygon fill="#63b8ff" stroke="#63b8ff" points="386.72,-74.04 376.13,-73.82 384.27,-80.6 386.72,-74.04"/>
</a>
</g>
</g>
<!-- Node7&#45;&gt;Node8 -->
<g id="edge9_Node000007_Node000008" class="edge">
<title>Node7&#45;&gt;Node8</title>
<g id="a_edge9_Node000007_Node000008"><a xlink:title=" ">
<path fill="none" stroke="#63b8ff" d="M495.84,-109.75C495.84,-102.8 495.84,-92.85 495.84,-84.13"/>
<polygon fill="#63b8ff" stroke="#63b8ff" points="499.34,-84.09 495.84,-74.09 492.34,-84.09 499.34,-84.09"/>
</a>
</g>
</g>
<!-- Node8&#45;&gt;Node2 -->
<g id="edge11_Node000008_Node000002" class="edge">
<title>Node8&#45;&gt;Node2</title>
<g id="a_edge11_Node000008_Node000002"><a xlink:title=" ">
<path fill="none" stroke="#63b8ff" d="M468.04,-54.98C438.87,-46.05 392.84,-31.94 360.43,-22.02"/>
<polygon fill="#63b8ff" stroke="#63b8ff" points="361.44,-18.66 350.85,-19.08 359.39,-25.36 361.44,-18.66"/>
</a>
</g>
</g>
<!-- Node9 -->
<g id="Node000009" class="node">
<title>Node9</title>
<g id="a_Node000009"><a xlink:title=" ">
<polygon fill="#e0e0e0" stroke="#999999" points="452.34,-19 387.34,-19 387.34,0 452.34,0 452.34,-19"/>
<text text-anchor="middle" x="419.84" y="-7" font-family="Helvetica,sans-Serif" font-size="10.00">functional</text>
</a>
</g>
</g>
<!-- Node8&#45;&gt;Node9 -->
<g id="edge10_Node000008_Node000009" class="edge">
<title>Node8&#45;&gt;Node9</title>
<g id="a_edge10_Node000008_Node000009"><a xlink:title=" ">
<path fill="none" stroke="#63b8ff" d="M483.63,-54.98C472.06,-46.92 454.46,-34.65 440.68,-25.03"/>
<polygon fill="#63b8ff" stroke="#63b8ff" points="442.47,-22.02 432.27,-19.17 438.47,-27.76 442.47,-22.02"/>
</a>
</g>
</g>
<!-- Node10 -->
<g id="Node000010" class="node">
<title>Node10</title>
<g id="a_Node000010"><a xlink:title=" ">
<polygon fill="#e0e0e0" stroke="#999999" points="521.34,-19 470.34,-19 470.34,0 521.34,0 521.34,-19"/>
<text text-anchor="middle" x="495.84" y="-7" font-family="Helvetica,sans-Serif" font-size="10.00">variant</text>
</a>
</g>
</g>
<!-- Node8&#45;&gt;Node10 -->
<g id="edge12_Node000008_Node000010" class="edge">
<title>Node8&#45;&gt;Node10</title>
<g id="a_edge12_Node000008_Node000010"><a xlink:title=" ">
<path fill="none" stroke="#63b8ff" d="M495.84,-54.75C495.84,-47.8 495.84,-37.85 495.84,-29.13"/>
<polygon fill="#63b8ff" stroke="#63b8ff" points="499.34,-29.09 495.84,-19.09 492.34,-29.09 499.34,-29.09"/>
</a>
</g>
</g>
<!-- Node11 -->
<g id="Node000011" class="node">
<title>Node11</title>
<g id="a_Node000011"><a xlink:title=" ">
<polygon fill="#e0e0e0" stroke="#999999" points="649.84,-19 539.84,-19 539.84,0 649.84,0 649.84,-19"/>
<text text-anchor="middle" x="594.84" y="-7" font-family="Helvetica,sans-Serif" font-size="10.00">nlohmann/json.hpp</text>
</a>
</g>
</g>
<!-- Node8&#45;&gt;Node11 -->
<g id="edge13_Node000008_Node000011" class="edge">
<title>Node8&#45;&gt;Node11</title>
<g id="a_edge13_Node000008_Node000011"><a xlink:title=" ">
<path fill="none" stroke="#63b8ff" d="M511.74,-54.98C527.38,-46.61 551.49,-33.7 569.72,-23.95"/>
<polygon fill="#63b8ff" stroke="#63b8ff" points="571.48,-26.98 578.64,-19.17 568.17,-20.8 571.48,-26.98"/>
</a>
</g>
</g>
<!-- Node12&#45;&gt;Node2 -->
<g id="edge15_Node000012_Node000002" class="edge">
<title>Node12&#45;&gt;Node2</title>
<g id="a_edge15_Node000012_Node000002"><a xlink:title=" ">
<path fill="none" stroke="#63b8ff" d="M119.55,-109.84C158.28,-90.92 250.67,-45.77 296.35,-23.45"/>
<polygon fill="#63b8ff" stroke="#63b8ff" points="297.9,-26.58 305.35,-19.05 294.83,-20.29 297.9,-26.58"/>
</a>
</g>
</g>
<!-- Node12&#45;&gt;Node3 -->
<g id="edge16_Node000012_Node000003" class="edge">
<title>Node12&#45;&gt;Node3</title>
<g id="a_edge16_Node000012_Node000003"><a xlink:title=" ">
<path fill="none" stroke="#63b8ff" d="M142.32,-109.98C192.28,-99.48 276.18,-81.83 321.86,-72.23"/>
<polygon fill="#63b8ff" stroke="#63b8ff" points="322.73,-75.62 331.8,-70.13 321.29,-68.77 322.73,-75.62"/>
</a>
</g>
</g>
<!-- Node12&#45;&gt;Node4 -->
<g id="edge17_Node000012_Node000004" class="edge">
<title>Node12&#45;&gt;Node4</title>
<g id="a_edge17_Node000012_Node000004"><a xlink:title=" ">
<path fill="none" stroke="#63b8ff" d="M96.72,-109.75C92.47,-102.49 86.31,-91.95 81.06,-82.98"/>
<polygon fill="#63b8ff" stroke="#63b8ff" points="83.93,-80.95 75.86,-74.09 77.89,-84.49 83.93,-80.95"/>
</a>
</g>
</g>
<!-- Node12&#45;&gt;Node8 -->
<g id="edge18_Node000012_Node000008" class="edge">
<title>Node12&#45;&gt;Node8</title>
<g id="a_edge18_Node000012_Node000008"><a xlink:title=" ">
<path fill="none" stroke="#63b8ff" d="M165.14,-109.98C235.26,-100.55 348.16,-85.36 422.19,-75.41"/>
<polygon fill="#63b8ff" stroke="#63b8ff" points="422.92,-78.84 432.36,-74.04 421.99,-71.9 422.92,-78.84"/>
</a>
</g>
</g>
</g>
</svg>
