<?xml version="1.0" encoding="UTF-8" standalone="no"?>
<!DOCTYPE svg PUBLIC "-//W3C//DTD SVG 1.1//EN"
 "http://www.w3.org/Graphics/SVG/1.1/DTD/svg11.dtd">
<!-- Generated by graphviz version 2.43.0 (0)
 -->
<!-- Title: include/jsonrpc/server/dispatcher.hpp Pages: 1 -->
<svg width="868pt" height="148pt"
 viewBox="0.00 0.00 868.00 148.00" xmlns="http://www.w3.org/2000/svg" xmlns:xlink="http://www.w3.org/1999/xlink">
<g id="graph0" class="graph" transform="scale(1 1) rotate(0) translate(4 144)">
<title>include/jsonrpc/server/dispatcher.hpp</title>
<!-- Node1 -->
<g id="Node000001" class="node">
<title>Node1</title>
<g id="a_Node000001"><a xlink:title=" ">
<polygon fill="#999999" stroke="#666666" points="440.5,-140 316.5,-140 316.5,-110 440.5,-110 440.5,-140"/>
<text text-anchor="start" x="324.5" y="-128" font-family="Helvetica,sans-Serif" font-size="10.00">include/jsonrpc/server</text>
<text text-anchor="middle" x="378.5" y="-117" font-family="Helvetica,sans-Serif" font-size="10.00">/dispatcher.hpp</text>
</a>
</g>
</g>
<!-- Node2 -->
<g id="Node000002" class="node">
<title>Node2</title>
<g id="a_Node000002"><a xlink:title=" ">
<polygon fill="#e0e0e0" stroke="#999999" points="558.5,-19 502.5,-19 502.5,0 558.5,0 558.5,-19"/>
<text text-anchor="middle" x="530.5" y="-7" font-family="Helvetica,sans-Serif" font-size="10.00">optional</text>
</a>
</g>
</g>
<!-- Node1&#45;&gt;Node2 -->
<g id="edge1_Node000001_Node000002" class="edge">
<title>Node1&#45;&gt;Node2</title>
<g id="a_edge1_Node000001_Node000002"><a xlink:title=" ">
<path fill="none" stroke="#63b8ff" d="M440.64,-119.12C501.41,-112.91 587.76,-99.73 608.5,-74 625.31,-53.14 593.96,-34.48 566.14,-22.87"/>
<polygon fill="#63b8ff" stroke="#63b8ff" points="567.11,-19.49 556.53,-19.07 564.54,-26 567.11,-19.49"/>
</a>
</g>
</g>
<!-- Node3 -->
<g id="Node000003" class="node">
<title>Node3</title>
<g id="a_Node000003"><a xlink:title=" ">
<polygon fill="#e0e0e0" stroke="#999999" points="183.5,-19 139.5,-19 139.5,0 183.5,0 183.5,-19"/>
<text text-anchor="middle" x="161.5" y="-7" font-family="Helvetica,sans-Serif" font-size="10.00">string</text>
</a>
</g>
</g>
<!-- Node1&#45;&gt;Node3 -->
<g id="edge2_Node000001_Node000003" class="edge">
<title>Node1&#45;&gt;Node3</title>
<g id="a_edge2_Node000001_Node000003"><a xlink:title=" ">
<path fill="none" stroke="#63b8ff" d="M316.44,-122.86C236.94,-119.93 105.77,-109.67 75.5,-74 55.53,-50.47 97.8,-30.71 129.87,-19.76"/>
<polygon fill="#63b8ff" stroke="#63b8ff" points="130.99,-23.07 139.41,-16.65 128.82,-16.42 130.99,-23.07"/>
</a>
</g>
</g>
<!-- Node4 -->
<g id="Node000004" class="node">
<title>Node4</title>
<g id="a_Node000004"><a xlink:title=" ">
<polygon fill="#e0e0e0" stroke="#999999" points="93,-19 0,-19 0,0 93,0 93,-19"/>
<text text-anchor="middle" x="46.5" y="-7" font-family="Helvetica,sans-Serif" font-size="10.00">unordered_map</text>
</a>
</g>
</g>
<!-- Node1&#45;&gt;Node4 -->
<g id="edge3_Node000001_Node000004" class="edge">
<title>Node1&#45;&gt;Node4</title>
<g id="a_edge3_Node000001_Node000004"><a xlink:title=" ">
<path fill="none" stroke="#63b8ff" d="M316.5,-121.63C236.43,-117.32 102.99,-105.51 66.5,-74 53.8,-63.03 49.07,-44.08 47.36,-29.73"/>
<polygon fill="#63b8ff" stroke="#63b8ff" points="50.82,-29.13 46.54,-19.45 43.84,-29.69 50.82,-29.13"/>
</a>
</g>
</g>
<!-- Node5 -->
<g id="Node000005" class="node">
<title>Node5</title>
<g id="a_Node000005"><a xlink:title=" ">
<polygon fill="#e0e0e0" stroke="#999999" points="304,-74 257,-74 257,-55 304,-55 304,-74"/>
<text text-anchor="middle" x="280.5" y="-62" font-family="Helvetica,sans-Serif" font-size="10.00">vector</text>
</a>
</g>
</g>
<!-- Node1&#45;&gt;Node5 -->
<g id="edge4_Node000001_Node000005" class="edge">
<title>Node1&#45;&gt;Node5</title>
<g id="a_edge4_Node000001_Node000005"><a xlink:title=" ">
<path fill="none" stroke="#63b8ff" d="M354.78,-109.84C339.3,-100.6 319.18,-88.59 303.79,-79.4"/>
<polygon fill="#63b8ff" stroke="#63b8ff" points="305.28,-76.21 294.9,-74.09 301.69,-82.23 305.28,-76.21"/>
</a>
</g>
</g>
<!-- Node6 -->
<g id="Node000006" class="node">
<title>Node6</title>
<g id="a_Node000006"><a xlink:title=" ">
<polygon fill="#e0e0e0" stroke="#999999" points="435,-74 322,-74 322,-55 435,-55 435,-74"/>
<text text-anchor="middle" x="378.5" y="-62" font-family="Helvetica,sans-Serif" font-size="10.00">BS_thread_pool.hpp</text>
</a>
</g>
</g>
<!-- Node1&#45;&gt;Node6 -->
<g id="edge5_Node000001_Node000006" class="edge">
<title>Node1&#45;&gt;Node6</title>
<g id="a_edge5_Node000001_Node000006"><a xlink:title=" ">
<path fill="none" stroke="#63b8ff" d="M378.5,-109.84C378.5,-102.21 378.5,-92.7 378.5,-84.45"/>
<polygon fill="#63b8ff" stroke="#63b8ff" points="382,-84.27 378.5,-74.27 375,-84.27 382,-84.27"/>
</a>
</g>
</g>
<!-- Node7 -->
<g id="Node000007" class="node">
<title>Node7</title>
<g id="a_Node000007"><a xlink:title=" ">
<polygon fill="#e0e0e0" stroke="#999999" points="700.5,-19 590.5,-19 590.5,0 700.5,0 700.5,-19"/>
<text text-anchor="middle" x="645.5" y="-7" font-family="Helvetica,sans-Serif" font-size="10.00">nlohmann/json.hpp</text>
</a>
</g>
</g>
<!-- Node1&#45;&gt;Node7 -->
<g id="edge6_Node000001_Node000007" class="edge">
<title>Node1&#45;&gt;Node7</title>
<g id="a_edge6_Node000001_Node000007"><a xlink:title=" ">
<path fill="none" stroke="#63b8ff" d="M440.65,-118.6C504.68,-111.81 598.79,-98.03 625.5,-74 637.97,-62.78 642.73,-43.86 644.51,-29.58"/>
<polygon fill="#63b8ff" stroke="#63b8ff" points="648.02,-29.63 645.4,-19.37 641.05,-29.03 648.02,-29.63"/>
</a>
</g>
</g>
<!-- Node8 -->
<g id="Node000008" class="node">
<title>Node8</title>
<g id="a_Node000008"><a xlink:href="server_2request_8hpp.html" target="_top" xlink:title=" ">
<polygon fill="white" stroke="#666666" points="599.5,-74 453.5,-74 453.5,-55 599.5,-55 599.5,-74"/>
<text text-anchor="middle" x="526.5" y="-62" font-family="Helvetica,sans-Serif" font-size="10.00">jsonrpc/server/request.hpp</text>
</a>
</g>
</g>
<!-- Node1&#45;&gt;Node8 -->
<g id="edge7_Node000001_Node000008" class="edge">
<title>Node1&#45;&gt;Node8</title>
<g id="a_edge7_Node000001_Node000008"><a xlink:title=" ">
<path fill="none" stroke="#63b8ff" d="M413.95,-109.99C438.64,-100.23 471.28,-87.33 495.05,-77.93"/>
<polygon fill="#63b8ff" stroke="#63b8ff" points="496.63,-81.07 504.64,-74.14 494.06,-74.56 496.63,-81.07"/>
</a>
</g>
</g>
<!-- Node9 -->
<g id="Node000009" class="node">
<title>Node9</title>
<g id="a_Node000009"><a xlink:href="response_8hpp.html" target="_top" xlink:title=" ">
<polygon fill="white" stroke="#666666" points="238.5,-74 84.5,-74 84.5,-55 238.5,-55 238.5,-74"/>
<text text-anchor="middle" x="161.5" y="-62" font-family="Helvetica,sans-Serif" font-size="10.00">jsonrpc/server/response.hpp</text>
</a>
</g>
</g>
<!-- Node1&#45;&gt;Node9 -->
<g id="edge11_Node000001_Node000009" class="edge">
<title>Node1&#45;&gt;Node9</title>
<g id="a_edge11_Node000001_Node000009"><a xlink:title=" ">
<path fill="none" stroke="#63b8ff" d="M326.52,-109.99C288.75,-99.8 238.29,-86.2 203.16,-76.73"/>
<polygon fill="#63b8ff" stroke="#63b8ff" points="203.8,-73.28 193.23,-74.05 201.97,-80.04 203.8,-73.28"/>
</a>
</g>
</g>
<!-- Node10 -->
<g id="Node000010" class="node">
<title>Node10</title>
<g id="a_Node000010"><a xlink:href="types_8hpp.html" target="_top" xlink:title=" ">
<polygon fill="white" stroke="#666666" points="831,-74 694,-74 694,-55 831,-55 831,-74"/>
<text text-anchor="middle" x="762.5" y="-62" font-family="Helvetica,sans-Serif" font-size="10.00">jsonrpc/server/types.hpp</text>
</a>
</g>
</g>
<!-- Node1&#45;&gt;Node10 -->
<g id="edge16_Node000001_Node000010" class="edge">
<title>Node1&#45;&gt;Node10</title>
<g id="a_edge16_Node000001_Node000010"><a xlink:title=" ">
<path fill="none" stroke="#63b8ff" d="M440.62,-114.54C510.73,-103.86 624.31,-86.55 696.12,-75.61"/>
<polygon fill="#63b8ff" stroke="#63b8ff" points="697.04,-79.01 706.4,-74.05 695.99,-72.09 697.04,-79.01"/>
</a>
</g>
</g>
<!-- Node8&#45;&gt;Node2 -->
<g id="edge8_Node000008_Node000002" class="edge">
<title>Node8&#45;&gt;Node2</title>
<g id="a_edge8_Node000008_Node000002"><a xlink:title=" ">
<path fill="none" stroke="#63b8ff" d="M527.16,-54.75C527.68,-47.8 528.44,-37.85 529.09,-29.13"/>
<polygon fill="#63b8ff" stroke="#63b8ff" points="532.59,-29.32 529.85,-19.09 525.61,-28.8 532.59,-29.32"/>
</a>
</g>
</g>
<!-- Node8&#45;&gt;Node3 -->
<g id="edge9_Node000008_Node000003" class="edge">
<title>Node8&#45;&gt;Node3</title>
<g id="a_edge9_Node000008_Node000003"><a xlink:title=" ">
<path fill="none" stroke="#63b8ff" d="M467.86,-54.98C390.1,-43.69 255.56,-24.16 193.98,-15.22"/>
<polygon fill="#63b8ff" stroke="#63b8ff" points="194.1,-11.7 183.7,-13.72 193.09,-18.62 194.1,-11.7"/>
</a>
</g>
</g>
<!-- Node8&#45;&gt;Node7 -->
<g id="edge10_Node000008_Node000007" class="edge">
<title>Node8&#45;&gt;Node7</title>
<g id="a_edge10_Node000008_Node000007"><a xlink:title=" ">
<path fill="none" stroke="#63b8ff" d="M545.62,-54.98C564.85,-46.42 594.73,-33.11 616.81,-23.28"/>
<polygon fill="#63b8ff" stroke="#63b8ff" points="618.32,-26.44 626.03,-19.17 615.47,-20.04 618.32,-26.44"/>
</a>
</g>
</g>
<!-- Node9&#45;&gt;Node2 -->
<g id="edge12_Node000009_Node000002" class="edge">
<title>Node9&#45;&gt;Node2</title>
<g id="a_edge12_Node000009_Node000002"><a xlink:title=" ">
<path fill="none" stroke="#63b8ff" d="M220.79,-54.98C297.21,-44.01 427.9,-25.24 492.31,-15.98"/>
<polygon fill="#63b8ff" stroke="#63b8ff" points="493.03,-19.42 502.43,-14.53 492.04,-12.49 493.03,-19.42"/>
</a>
</g>
</g>
<!-- Node9&#45;&gt;Node3 -->
<g id="edge13_Node000009_Node000003" class="edge">
<title>Node9&#45;&gt;Node3</title>
<g id="a_edge13_Node000009_Node000003"><a xlink:title=" ">
<path fill="none" stroke="#63b8ff" d="M161.5,-54.75C161.5,-47.8 161.5,-37.85 161.5,-29.13"/>
<polygon fill="#63b8ff" stroke="#63b8ff" points="165,-29.09 161.5,-19.09 158,-29.09 165,-29.09"/>
</a>
</g>
</g>
<!-- Node9&#45;&gt;Node4 -->
<g id="edge14_Node000009_Node000004" class="edge">
<title>Node9&#45;&gt;Node4</title>
<g id="a_edge14_Node000009_Node000004"><a xlink:title=" ">
<path fill="none" stroke="#63b8ff" d="M143.02,-54.98C124.52,-46.46 95.82,-33.23 74.52,-23.41"/>
<polygon fill="#63b8ff" stroke="#63b8ff" points="75.86,-20.18 65.31,-19.17 72.93,-26.53 75.86,-20.18"/>
</a>
</g>
</g>
<!-- Node9&#45;&gt;Node7 -->
<g id="edge15_Node000009_Node000007" class="edge">
<title>Node9&#45;&gt;Node7</title>
<g id="a_edge15_Node000009_Node000007"><a xlink:title=" ">
<path fill="none" stroke="#63b8ff" d="M238.73,-55.04C333.2,-44.7 491.48,-27.37 580.18,-17.65"/>
<polygon fill="#63b8ff" stroke="#63b8ff" points="580.82,-21.1 590.38,-16.54 580.06,-14.15 580.82,-21.1"/>
</a>
</g>
</g>
<!-- Node10&#45;&gt;Node2 -->
<g id="edge18_Node000010_Node000002" class="edge">
<title>Node10&#45;&gt;Node2</title>
<g id="a_edge18_Node000010_Node000002"><a xlink:title=" ">
<path fill="none" stroke="#63b8ff" d="M725.23,-54.98C682.18,-45.15 611.75,-29.06 568.43,-19.17"/>
<polygon fill="#63b8ff" stroke="#63b8ff" points="569.09,-15.73 558.56,-16.91 567.53,-22.55 569.09,-15.73"/>
</a>
</g>
</g>
<!-- Node10&#45;&gt;Node7 -->
<g id="edge20_Node000010_Node000007" class="edge">
<title>Node10&#45;&gt;Node7</title>
<g id="a_edge20_Node000010_Node000007"><a xlink:title=" ">
<path fill="none" stroke="#63b8ff" d="M743.7,-54.98C724.88,-46.46 695.68,-33.23 674,-23.41"/>
<polygon fill="#63b8ff" stroke="#63b8ff" points="675.19,-20.11 664.64,-19.17 672.3,-26.48 675.19,-20.11"/>
</a>
</g>
</g>
<!-- Node11 -->
<g id="Node000011" class="node">
<title>Node11</title>
<g id="a_Node000011"><a xlink:title=" ">
<polygon fill="#e0e0e0" stroke="#999999" points="791,-19 726,-19 726,0 791,0 791,-19"/>
<text text-anchor="middle" x="758.5" y="-7" font-family="Helvetica,sans-Serif" font-size="10.00">functional</text>
</a>
</g>
</g>
<!-- Node10&#45;&gt;Node11 -->
<g id="edge17_Node000010_Node000011" class="edge">
<title>Node10&#45;&gt;Node11</title>
<g id="a_edge17_Node000010_Node000011"><a xlink:title=" ">
<path fill="none" stroke="#63b8ff" d="M761.84,-54.75C761.32,-47.8 760.56,-37.85 759.91,-29.13"/>
<polygon fill="#63b8ff" stroke="#63b8ff" points="763.39,-28.8 759.15,-19.09 756.41,-29.32 763.39,-28.8"/>
</a>
</g>
</g>
<!-- Node12 -->
<g id="Node000012" class="node">
<title>Node12</title>
<g id="a_Node000012"><a xlink:title=" ">
<polygon fill="#e0e0e0" stroke="#999999" points="860,-19 809,-19 809,0 860,0 860,-19"/>
<text text-anchor="middle" x="834.5" y="-7" font-family="Helvetica,sans-Serif" font-size="10.00">variant</text>
</a>
</g>
</g>
<!-- Node10&#45;&gt;Node12 -->
<g id="edge19_Node000010_Node000012" class="edge">
<title>Node10&#45;&gt;Node12</title>
<g id="a_edge19_Node000010_Node000012"><a xlink:title=" ">
<path fill="none" stroke="#63b8ff" d="M774.07,-54.98C784.92,-47 801.38,-34.88 814.38,-25.31"/>
<polygon fill="#63b8ff" stroke="#63b8ff" points="816.74,-27.92 822.72,-19.17 812.59,-22.28 816.74,-27.92"/>
</a>
</g>
</g>
</g>
</svg>
