<?xml version="1.0" encoding="UTF-8" standalone="no"?>
<!DOCTYPE svg PUBLIC "-//W3C//DTD SVG 1.1//EN"
 "http://www.w3.org/Graphics/SVG/1.1/DTD/svg11.dtd">
<!-- Generated by graphviz version 2.43.0 (0)
 -->
<!-- Title: include/json_rpc/core/dispatcher.hpp Pages: 1 -->
<svg width="623pt" height="203pt"
 viewBox="0.00 0.00 623.38 203.00" xmlns="http://www.w3.org/2000/svg" xmlns:xlink="http://www.w3.org/1999/xlink">
<g id="graph0" class="graph" transform="scale(1 1) rotate(0) translate(4 199)">
<title>include/json_rpc/core/dispatcher.hpp</title>
<!-- Node1 -->
<g id="Node000001" class="node">
<title>Node1</title>
<g id="a_Node000001"><a xlink:title=" ">
<polygon fill="#999999" stroke="#666666" points="309.38,-195 190.38,-195 190.38,-165 309.38,-165 309.38,-195"/>
<text text-anchor="start" x="198.38" y="-183" font-family="Helvetica,sans-Serif" font-size="10.00">include/json_rpc/core</text>
<text text-anchor="middle" x="249.88" y="-172" font-family="Helvetica,sans-Serif" font-size="10.00">/dispatcher.hpp</text>
</a>
</g>
</g>
<!-- Node2 -->
<g id="Node000002" class="node">
<title>Node2</title>
<g id="a_Node000002"><a xlink:title=" ">
<polygon fill="#e0e0e0" stroke="#999999" points="228.88,-19 172.88,-19 172.88,0 228.88,0 228.88,-19"/>
<text text-anchor="middle" x="200.88" y="-7" font-family="Helvetica,sans-Serif" font-size="10.00">optional</text>
</a>
</g>
</g>
<!-- Node1&#45;&gt;Node2 -->
<g id="edge1_Node000001_Node000002" class="edge">
<title>Node1&#45;&gt;Node2</title>
<g id="a_edge1_Node000001_Node000002"><a xlink:title=" ">
<path fill="none" stroke="#63b8ff" d="M190.37,-173.5C129.41,-166.64 40.23,-152.83 15.88,-129 -2.07,-111.43 5.79,-98.95 2.88,-74 1.9,-65.61 -2.39,-61.59 2.88,-55 22.5,-30.49 110.77,-18.54 162.59,-13.54"/>
<polygon fill="#63b8ff" stroke="#63b8ff" points="163.11,-17.01 172.75,-12.6 162.47,-10.04 163.11,-17.01"/>
</a>
</g>
</g>
<!-- Node3 -->
<g id="Node000003" class="node">
<title>Node3</title>
<g id="a_Node000003"><a xlink:title=" ">
<polygon fill="#e0e0e0" stroke="#999999" points="252.88,-74 208.88,-74 208.88,-55 252.88,-55 252.88,-74"/>
<text text-anchor="middle" x="230.88" y="-62" font-family="Helvetica,sans-Serif" font-size="10.00">string</text>
</a>
</g>
</g>
<!-- Node1&#45;&gt;Node3 -->
<g id="edge2_Node000001_Node000003" class="edge">
<title>Node1&#45;&gt;Node3</title>
<g id="a_edge2_Node000001_Node000003"><a xlink:title=" ">
<path fill="none" stroke="#63b8ff" d="M253.9,-164.75C257.24,-150.63 260.72,-128.5 255.88,-110 253.34,-100.26 248.13,-90.41 243.12,-82.46"/>
<polygon fill="#63b8ff" stroke="#63b8ff" points="246,-80.46 237.51,-74.12 240.19,-84.37 246,-80.46"/>
</a>
</g>
</g>
<!-- Node4 -->
<g id="Node000004" class="node">
<title>Node4</title>
<g id="a_Node000004"><a xlink:title=" ">
<polygon fill="#e0e0e0" stroke="#999999" points="105.38,-74 12.38,-74 12.38,-55 105.38,-55 105.38,-74"/>
<text text-anchor="middle" x="58.88" y="-62" font-family="Helvetica,sans-Serif" font-size="10.00">unordered_map</text>
</a>
</g>
</g>
<!-- Node1&#45;&gt;Node4 -->
<g id="edge3_Node000001_Node000004" class="edge">
<title>Node1&#45;&gt;Node4</title>
<g id="a_edge3_Node000001_Node000004"><a xlink:title=" ">
<path fill="none" stroke="#63b8ff" d="M190.19,-174.11C130.4,-167.82 44.39,-154.54 23.88,-129 11.91,-114.09 26.46,-94.52 40.28,-81.07"/>
<polygon fill="#63b8ff" stroke="#63b8ff" points="42.68,-83.62 47.71,-74.3 37.96,-78.45 42.68,-83.62"/>
</a>
</g>
</g>
<!-- Node5 -->
<g id="Node000005" class="node">
<title>Node5</title>
<g id="a_Node000005"><a xlink:title=" ">
<polygon fill="#e0e0e0" stroke="#999999" points="247.38,-129 200.38,-129 200.38,-110 247.38,-110 247.38,-129"/>
<text text-anchor="middle" x="223.88" y="-117" font-family="Helvetica,sans-Serif" font-size="10.00">vector</text>
</a>
</g>
</g>
<!-- Node1&#45;&gt;Node5 -->
<g id="edge4_Node000001_Node000005" class="edge">
<title>Node1&#45;&gt;Node5</title>
<g id="a_edge4_Node000001_Node000005"><a xlink:title=" ">
<path fill="none" stroke="#63b8ff" d="M243.59,-164.84C240.08,-156.95 235.68,-147.05 231.93,-138.61"/>
<polygon fill="#63b8ff" stroke="#63b8ff" points="235.04,-136.98 227.78,-129.27 228.64,-139.83 235.04,-136.98"/>
</a>
</g>
</g>
<!-- Node6 -->
<g id="Node000006" class="node">
<title>Node6</title>
<g id="a_Node000006"><a xlink:href="request_8hpp.html" target="_top" xlink:title=" ">
<polygon fill="white" stroke="#666666" points="445.88,-129 303.88,-129 303.88,-110 445.88,-110 445.88,-129"/>
<text text-anchor="middle" x="374.88" y="-117" font-family="Helvetica,sans-Serif" font-size="10.00">json_rpc/core/request.hpp</text>
</a>
</g>
</g>
<!-- Node1&#45;&gt;Node6 -->
<g id="edge5_Node000001_Node000006" class="edge">
<title>Node1&#45;&gt;Node6</title>
<g id="a_edge5_Node000001_Node000006"><a xlink:title=" ">
<path fill="none" stroke="#63b8ff" d="M279.82,-164.99C300.31,-155.4 327.26,-142.79 347.24,-133.44"/>
<polygon fill="#63b8ff" stroke="#63b8ff" points="348.85,-136.55 356.42,-129.14 345.88,-130.21 348.85,-136.55"/>
</a>
</g>
</g>
<!-- Node7 -->
<g id="Node000007" class="node">
<title>Node7</title>
<g id="a_Node000007"><a xlink:href="types_8hpp.html" target="_top" xlink:title=" ">
<polygon fill="white" stroke="#666666" points="440.88,-74 308.88,-74 308.88,-55 440.88,-55 440.88,-74"/>
<text text-anchor="middle" x="374.88" y="-62" font-family="Helvetica,sans-Serif" font-size="10.00">json_rpc/core/types.hpp</text>
</a>
</g>
</g>
<!-- Node1&#45;&gt;Node7 -->
<g id="edge18_Node000001_Node000007" class="edge">
<title>Node1&#45;&gt;Node7</title>
<g id="a_edge18_Node000001_Node000007"><a xlink:title=" ">
<path fill="none" stroke="#63b8ff" d="M309.4,-172.6C363.34,-165.43 437.03,-151.72 454.88,-129 471.66,-107.64 439.72,-89.1 411.35,-77.66"/>
<polygon fill="#63b8ff" stroke="#63b8ff" points="412.53,-74.37 401.94,-74.06 410.03,-80.91 412.53,-74.37"/>
</a>
</g>
</g>
<!-- Node11 -->
<g id="Node000011" class="node">
<title>Node11</title>
<g id="a_Node000011"><a xlink:href="response_8hpp.html" target="_top" xlink:title=" ">
<polygon fill="white" stroke="#666666" points="182.38,-129 33.38,-129 33.38,-110 182.38,-110 182.38,-129"/>
<text text-anchor="middle" x="107.88" y="-117" font-family="Helvetica,sans-Serif" font-size="10.00">json_rpc/core/response.hpp</text>
</a>
</g>
</g>
<!-- Node1&#45;&gt;Node11 -->
<g id="edge13_Node000001_Node000011" class="edge">
<title>Node1&#45;&gt;Node11</title>
<g id="a_edge13_Node000001_Node000011"><a xlink:title=" ">
<path fill="none" stroke="#63b8ff" d="M215.87,-164.99C192.28,-155.27 161.14,-142.44 138.36,-133.06"/>
<polygon fill="#63b8ff" stroke="#63b8ff" points="139.43,-129.71 128.85,-129.14 136.77,-136.18 139.43,-129.71"/>
</a>
</g>
</g>
<!-- Node12 -->
<g id="Node000012" class="node">
<title>Node12</title>
<g id="a_Node000012"><a xlink:title=" ">
<polygon fill="#e0e0e0" stroke="#999999" points="615.38,-129 502.38,-129 502.38,-110 615.38,-110 615.38,-129"/>
<text text-anchor="middle" x="558.88" y="-117" font-family="Helvetica,sans-Serif" font-size="10.00">BS_thread_pool.hpp</text>
</a>
</g>
</g>
<!-- Node1&#45;&gt;Node12 -->
<g id="edge19_Node000001_Node000012" class="edge">
<title>Node1&#45;&gt;Node12</title>
<g id="a_edge19_Node000001_Node000012"><a xlink:title=" ">
<path fill="none" stroke="#63b8ff" d="M309.46,-167.72C365.59,-157.09 449.02,-141.3 503.68,-130.95"/>
<polygon fill="#63b8ff" stroke="#63b8ff" points="504.36,-134.38 513.54,-129.08 503.06,-127.51 504.36,-134.38"/>
</a>
</g>
</g>
<!-- Node6&#45;&gt;Node2 -->
<g id="edge6_Node000006_Node000002" class="edge">
<title>Node6&#45;&gt;Node2</title>
<g id="a_edge6_Node000006_Node000002"><a xlink:title=" ">
<path fill="none" stroke="#63b8ff" d="M360.13,-109.95C344.94,-101.1 320.63,-86.8 299.88,-74 273.03,-57.43 242.52,-37.73 222.56,-24.71"/>
<polygon fill="#63b8ff" stroke="#63b8ff" points="224.21,-21.61 213.92,-19.07 220.38,-27.47 224.21,-21.61"/>
</a>
</g>
</g>
<!-- Node6&#45;&gt;Node3 -->
<g id="edge7_Node000006_Node000003" class="edge">
<title>Node6&#45;&gt;Node3</title>
<g id="a_edge7_Node000006_Node000003"><a xlink:title=" ">
<path fill="none" stroke="#63b8ff" d="M351.75,-109.98C327.64,-101.11 289.69,-87.14 262.75,-77.23"/>
<polygon fill="#63b8ff" stroke="#63b8ff" points="263.61,-73.82 253.02,-73.65 261.19,-80.38 263.61,-73.82"/>
</a>
</g>
</g>
<!-- Node6&#45;&gt;Node7 -->
<g id="edge8_Node000006_Node000007" class="edge">
<title>Node6&#45;&gt;Node7</title>
<g id="a_edge8_Node000006_Node000007"><a xlink:title=" ">
<path fill="none" stroke="#63b8ff" d="M374.88,-109.75C374.88,-102.8 374.88,-92.85 374.88,-84.13"/>
<polygon fill="#63b8ff" stroke="#63b8ff" points="378.38,-84.09 374.88,-74.09 371.38,-84.09 378.38,-84.09"/>
</a>
</g>
</g>
<!-- Node7&#45;&gt;Node2 -->
<g id="edge10_Node000007_Node000002" class="edge">
<title>Node7&#45;&gt;Node2</title>
<g id="a_edge10_Node000007_Node000002"><a xlink:title=" ">
<path fill="none" stroke="#63b8ff" d="M346.93,-54.98C317.59,-46.05 271.29,-31.94 238.7,-22.02"/>
<polygon fill="#63b8ff" stroke="#63b8ff" points="239.64,-18.65 229.06,-19.08 237.6,-25.34 239.64,-18.65"/>
</a>
</g>
</g>
<!-- Node8 -->
<g id="Node000008" class="node">
<title>Node8</title>
<g id="a_Node000008"><a xlink:title=" ">
<polygon fill="#e0e0e0" stroke="#999999" points="331.38,-19 266.38,-19 266.38,0 331.38,0 331.38,-19"/>
<text text-anchor="middle" x="298.88" y="-7" font-family="Helvetica,sans-Serif" font-size="10.00">functional</text>
</a>
</g>
</g>
<!-- Node7&#45;&gt;Node8 -->
<g id="edge9_Node000007_Node000008" class="edge">
<title>Node7&#45;&gt;Node8</title>
<g id="a_edge9_Node000007_Node000008"><a xlink:title=" ">
<path fill="none" stroke="#63b8ff" d="M362.67,-54.98C351.11,-46.92 333.51,-34.65 319.72,-25.03"/>
<polygon fill="#63b8ff" stroke="#63b8ff" points="321.52,-22.02 311.32,-19.17 317.52,-27.76 321.52,-22.02"/>
</a>
</g>
</g>
<!-- Node9 -->
<g id="Node000009" class="node">
<title>Node9</title>
<g id="a_Node000009"><a xlink:title=" ">
<polygon fill="#e0e0e0" stroke="#999999" points="400.38,-19 349.38,-19 349.38,0 400.38,0 400.38,-19"/>
<text text-anchor="middle" x="374.88" y="-7" font-family="Helvetica,sans-Serif" font-size="10.00">variant</text>
</a>
</g>
</g>
<!-- Node7&#45;&gt;Node9 -->
<g id="edge11_Node000007_Node000009" class="edge">
<title>Node7&#45;&gt;Node9</title>
<g id="a_edge11_Node000007_Node000009"><a xlink:title=" ">
<path fill="none" stroke="#63b8ff" d="M374.88,-54.75C374.88,-47.8 374.88,-37.85 374.88,-29.13"/>
<polygon fill="#63b8ff" stroke="#63b8ff" points="378.38,-29.09 374.88,-19.09 371.38,-29.09 378.38,-29.09"/>
</a>
</g>
</g>
<!-- Node10 -->
<g id="Node000010" class="node">
<title>Node10</title>
<g id="a_Node000010"><a xlink:title=" ">
<polygon fill="#e0e0e0" stroke="#999999" points="528.88,-19 418.88,-19 418.88,0 528.88,0 528.88,-19"/>
<text text-anchor="middle" x="473.88" y="-7" font-family="Helvetica,sans-Serif" font-size="10.00">nlohmann/json.hpp</text>
</a>
</g>
</g>
<!-- Node7&#45;&gt;Node10 -->
<g id="edge12_Node000007_Node000010" class="edge">
<title>Node7&#45;&gt;Node10</title>
<g id="a_edge12_Node000007_Node000010"><a xlink:title=" ">
<path fill="none" stroke="#63b8ff" d="M390.79,-54.98C406.43,-46.61 430.54,-33.7 448.77,-23.95"/>
<polygon fill="#63b8ff" stroke="#63b8ff" points="450.52,-26.98 457.69,-19.17 447.22,-20.8 450.52,-26.98"/>
</a>
</g>
</g>
<!-- Node11&#45;&gt;Node2 -->
<g id="edge14_Node000011_Node000002" class="edge">
<title>Node11&#45;&gt;Node2</title>
<g id="a_edge14_Node000011_Node000002"><a xlink:title=" ">
<path fill="none" stroke="#63b8ff" d="M115.49,-109.66C131.1,-91.54 166.94,-49.91 186.87,-26.77"/>
<polygon fill="#63b8ff" stroke="#63b8ff" points="189.55,-29.02 193.43,-19.16 184.25,-24.45 189.55,-29.02"/>
</a>
</g>
</g>
<!-- Node11&#45;&gt;Node3 -->
<g id="edge15_Node000011_Node000003" class="edge">
<title>Node11&#45;&gt;Node3</title>
<g id="a_edge15_Node000011_Node000003"><a xlink:title=" ">
<path fill="none" stroke="#63b8ff" d="M127.64,-109.98C147.61,-101.38 178.69,-87.99 201.53,-78.15"/>
<polygon fill="#63b8ff" stroke="#63b8ff" points="202.96,-81.34 210.76,-74.17 200.19,-74.91 202.96,-81.34"/>
</a>
</g>
</g>
<!-- Node11&#45;&gt;Node4 -->
<g id="edge16_Node000011_Node000004" class="edge">
<title>Node11&#45;&gt;Node4</title>
<g id="a_edge16_Node000011_Node000004"><a xlink:title=" ">
<path fill="none" stroke="#63b8ff" d="M99.79,-109.75C92.73,-102.11 82.29,-90.82 73.73,-81.56"/>
<polygon fill="#63b8ff" stroke="#63b8ff" points="76.18,-79.06 66.82,-74.09 71.04,-83.81 76.18,-79.06"/>
</a>
</g>
</g>
<!-- Node11&#45;&gt;Node7 -->
<g id="edge17_Node000011_Node000007" class="edge">
<title>Node11&#45;&gt;Node7</title>
<g id="a_edge17_Node000011_Node000007"><a xlink:title=" ">
<path fill="none" stroke="#63b8ff" d="M150.78,-109.98C197.26,-100.76 271.47,-86.03 321.64,-76.07"/>
<polygon fill="#63b8ff" stroke="#63b8ff" points="322.52,-79.46 331.65,-74.08 321.16,-72.6 322.52,-79.46"/>
</a>
</g>
</g>
</g>
</svg>
