<?xml version="1.0" encoding="UTF-8" standalone="no"?>
<!DOCTYPE svg PUBLIC "-//W3C//DTD SVG 1.1//EN"
 "http://www.w3.org/Graphics/SVG/1.1/DTD/svg11.dtd">
<!-- Generated by graphviz version 2.43.0 (0)
 -->
<!-- Title: include/jsonrpc/core/dispatcher.hpp Pages: 1 -->
<svg width="979pt" height="236pt"
 viewBox="0.00 0.00 979.00 236.00" xmlns="http://www.w3.org/2000/svg" xmlns:xlink="http://www.w3.org/1999/xlink">
<g id="graph0" class="graph" transform="scale(1 1) rotate(0) translate(4 232)">
<title>include/jsonrpc/core/dispatcher.hpp</title>
<!-- Node1 -->
<g id="Node000001" class="node">
<title>Node1</title>
<g id="a_Node000001"><a xlink:title=" ">
<polygon fill="#999999" stroke="#666666" points="621,-228 507,-228 507,-198 621,-198 621,-228"/>
<text text-anchor="start" x="515" y="-216" font-family="Helvetica,sans-Serif" font-size="10.00">include/jsonrpc/core</text>
<text text-anchor="middle" x="564" y="-205" font-family="Helvetica,sans-Serif" font-size="10.00">/dispatcher.hpp</text>
</a>
</g>
</g>
<!-- Node2 -->
<g id="Node000002" class="node">
<title>Node2</title>
<g id="a_Node000002"><a xlink:href="server__transport_8hpp.html" target="_top" xlink:title=" ">
<polygon fill="white" stroke="#666666" points="499.5,-162 378.5,-162 378.5,-132 499.5,-132 499.5,-162"/>
<text text-anchor="start" x="386.5" y="-150" font-family="Helvetica,sans-Serif" font-size="10.00">include/jsonrpc/core</text>
<text text-anchor="middle" x="439" y="-139" font-family="Helvetica,sans-Serif" font-size="10.00">/server_transport.hpp</text>
</a>
</g>
</g>
<!-- Node1&#45;&gt;Node2 -->
<g id="edge1_Node000001_Node000002" class="edge">
<title>Node1&#45;&gt;Node2</title>
<g id="a_edge1_Node000001_Node000002"><a xlink:title=" ">
<path fill="none" stroke="#63b8ff" d="M527.63,-193.38C508.07,-183.36 484.35,-171.22 466.37,-162.01"/>
<polygon fill="#63b8ff" stroke="#63b8ff" points="526.07,-196.51 536.57,-197.95 529.26,-190.28 526.07,-196.51"/>
</a>
</g>
</g>
<!-- Node3 -->
<g id="Node000003" class="node">
<title>Node3</title>
<g id="a_Node000003"><a xlink:href="jsonrpc_8hpp.html" target="_top" xlink:title=" ">
<polygon fill="white" stroke="#666666" points="606.5,-24.5 457.5,-24.5 457.5,-5.5 606.5,-5.5 606.5,-24.5"/>
<text text-anchor="middle" x="532" y="-12.5" font-family="Helvetica,sans-Serif" font-size="10.00">include/jsonrpc/jsonrpc.hpp</text>
</a>
</g>
</g>
<!-- Node1&#45;&gt;Node3 -->
<g id="edge15_Node000001_Node000003" class="edge">
<title>Node1&#45;&gt;Node3</title>
<g id="a_edge15_Node000001_Node000003"><a xlink:title=" ">
<path fill="none" stroke="#63b8ff" d="M560.05,-187.83C552.89,-143.97 538.07,-53.18 533.42,-24.73"/>
<polygon fill="#63b8ff" stroke="#63b8ff" points="556.63,-188.6 561.7,-197.9 563.54,-187.47 556.63,-188.6"/>
</a>
</g>
</g>
<!-- Node4 -->
<g id="Node000004" class="node">
<title>Node4</title>
<g id="a_Node000004"><a xlink:href="server_8hpp.html" target="_top" xlink:title=" ">
<polygon fill="white" stroke="#666666" points="124,-96 0,-96 0,-66 124,-66 124,-96"/>
<text text-anchor="start" x="8" y="-84" font-family="Helvetica,sans-Serif" font-size="10.00">include/jsonrpc/server</text>
<text text-anchor="middle" x="62" y="-73" font-family="Helvetica,sans-Serif" font-size="10.00">/server.hpp</text>
</a>
</g>
</g>
<!-- Node1&#45;&gt;Node4 -->
<g id="edge16_Node000001_Node000004" class="edge">
<title>Node1&#45;&gt;Node4</title>
<g id="a_edge16_Node000001_Node000004"><a xlink:title=" ">
<path fill="none" stroke="#63b8ff" d="M496.77,-201.88C443.08,-193.17 366.14,-179.29 300,-162 227.46,-143.03 144.96,-113.44 98.63,-96.06"/>
<polygon fill="#63b8ff" stroke="#63b8ff" points="496.42,-205.37 506.85,-203.5 497.53,-198.46 496.42,-205.37"/>
</a>
</g>
</g>
<!-- Node8 -->
<g id="Node000008" class="node">
<title>Node8</title>
<g id="a_Node000008"><a xlink:href="http__server__transport_8hpp.html" target="_top" xlink:title=" ">
<polygon fill="white" stroke="#666666" points="288,-96 142,-96 142,-66 288,-66 288,-96"/>
<text text-anchor="start" x="150" y="-84" font-family="Helvetica,sans-Serif" font-size="10.00">include/jsonrpc/transports</text>
<text text-anchor="middle" x="215" y="-73" font-family="Helvetica,sans-Serif" font-size="10.00">/http_server_transport.hpp</text>
</a>
</g>
</g>
<!-- Node1&#45;&gt;Node8 -->
<g id="edge17_Node000001_Node000008" class="edge">
<title>Node1&#45;&gt;Node8</title>
<g id="a_edge17_Node000001_Node000008"><a xlink:title=" ">
<path fill="none" stroke="#63b8ff" d="M496.65,-198.71C458.53,-190.21 410.36,-177.81 369,-162 320.45,-143.45 267.41,-113.57 237.97,-96.06"/>
<polygon fill="#63b8ff" stroke="#63b8ff" points="496.1,-202.18 506.62,-200.9 497.6,-195.34 496.1,-202.18"/>
</a>
</g>
</g>
<!-- Node10 -->
<g id="Node000010" class="node">
<title>Node10</title>
<g id="a_Node000010"><a xlink:href="stdio__server__transport_8hpp.html" target="_top" xlink:title=" ">
<polygon fill="white" stroke="#666666" points="742,-96 592,-96 592,-66 742,-66 742,-96"/>
<text text-anchor="start" x="600" y="-84" font-family="Helvetica,sans-Serif" font-size="10.00">include/jsonrpc/transports</text>
<text text-anchor="middle" x="667" y="-73" font-family="Helvetica,sans-Serif" font-size="10.00">/stdio_server_transport.hpp</text>
</a>
</g>
</g>
<!-- Node1&#45;&gt;Node10 -->
<g id="edge21_Node000001_Node000010" class="edge">
<title>Node1&#45;&gt;Node10</title>
<g id="a_edge21_Node000001_Node000010"><a xlink:title=" ">
<path fill="none" stroke="#63b8ff" d="M581.59,-189.8C602.83,-162.99 637.93,-118.7 655.79,-96.14"/>
<polygon fill="#63b8ff" stroke="#63b8ff" points="578.69,-187.83 575.22,-197.84 584.17,-192.18 578.69,-187.83"/>
</a>
</g>
</g>
<!-- Node12 -->
<g id="Node000012" class="node">
<title>Node12</title>
<g id="a_Node000012"><a xlink:href="stdio__client__transport_8hpp.html" target="_top" xlink:title=" ">
<polygon fill="white" stroke="#666666" points="825,-162 679,-162 679,-132 825,-132 825,-162"/>
<text text-anchor="start" x="687" y="-150" font-family="Helvetica,sans-Serif" font-size="10.00">include/jsonrpc/transports</text>
<text text-anchor="middle" x="752" y="-139" font-family="Helvetica,sans-Serif" font-size="10.00">/stdio_client_transport.hpp</text>
</a>
</g>
</g>
<!-- Node1&#45;&gt;Node12 -->
<g id="edge18_Node000001_Node000012" class="edge">
<title>Node1&#45;&gt;Node12</title>
<g id="a_edge18_Node000001_Node000012"><a xlink:title=" ">
<path fill="none" stroke="#63b8ff" d="M614.75,-194.72C644.87,-184.47 682.58,-171.63 710.84,-162.01"/>
<polygon fill="#63b8ff" stroke="#63b8ff" points="613.6,-191.42 605.26,-197.95 615.85,-198.05 613.6,-191.42"/>
</a>
</g>
</g>
<!-- Node14 -->
<g id="Node000014" class="node">
<title>Node14</title>
<g id="a_Node000014"><a xlink:href="dispatcher_8cpp.html" target="_top" xlink:title=" ">
<polygon fill="white" stroke="#666666" points="971,-156.5 843,-156.5 843,-137.5 971,-137.5 971,-156.5"/>
<text text-anchor="middle" x="907" y="-144.5" font-family="Helvetica,sans-Serif" font-size="10.00">src/core/dispatcher.cpp</text>
</a>
</g>
</g>
<!-- Node1&#45;&gt;Node14 -->
<g id="edge22_Node000001_Node000014" class="edge">
<title>Node1&#45;&gt;Node14</title>
<g id="a_edge22_Node000001_Node000014"><a xlink:title=" ">
<path fill="none" stroke="#63b8ff" d="M631.08,-199.7C685.72,-189.65 764.87,-175.03 834,-162 843.26,-160.26 853.17,-158.37 862.61,-156.56"/>
<polygon fill="#63b8ff" stroke="#63b8ff" points="630.37,-196.27 621.17,-201.52 631.64,-203.16 630.37,-196.27"/>
</a>
</g>
</g>
<!-- Node2&#45;&gt;Node3 -->
<g id="edge2_Node000002_Node000003" class="edge">
<title>Node2&#45;&gt;Node3</title>
<g id="a_edge2_Node000002_Node000003"><a xlink:title=" ">
<path fill="none" stroke="#63b8ff" d="M473.41,-126.4C485.13,-118.29 497.43,-107.96 506,-96 522.17,-73.45 528.66,-40.3 530.93,-24.71"/>
<polygon fill="#63b8ff" stroke="#63b8ff" points="471.47,-123.49 465.04,-131.91 475.32,-129.34 471.47,-123.49"/>
</a>
</g>
</g>
<!-- Node2&#45;&gt;Node4 -->
<g id="edge3_Node000002_Node000004" class="edge">
<title>Node2&#45;&gt;Node4</title>
<g id="a_edge3_Node000002_Node000004"><a xlink:title=" ">
<path fill="none" stroke="#63b8ff" d="M368.15,-135.1C306.06,-125.38 213.42,-110.49 133,-96 130.16,-95.49 127.25,-94.95 124.32,-94.41"/>
<polygon fill="#63b8ff" stroke="#63b8ff" points="367.81,-138.59 378.23,-136.67 368.89,-131.67 367.81,-138.59"/>
</a>
</g>
</g>
<!-- Node6 -->
<g id="Node000006" class="node">
<title>Node6</title>
<g id="a_Node000006"><a xlink:href="framed__stdio__server__transport_8hpp.html" target="_top" xlink:title=" ">
<polygon fill="white" stroke="#666666" points="497.5,-96 306.5,-96 306.5,-66 497.5,-66 497.5,-96"/>
<text text-anchor="start" x="314.5" y="-84" font-family="Helvetica,sans-Serif" font-size="10.00">include/jsonrpc/transports</text>
<text text-anchor="middle" x="402" y="-73" font-family="Helvetica,sans-Serif" font-size="10.00">/framed_stdio_server_transport.hpp</text>
</a>
</g>
</g>
<!-- Node2&#45;&gt;Node6 -->
<g id="edge6_Node000002_Node000006" class="edge">
<title>Node2&#45;&gt;Node6</title>
<g id="a_edge6_Node000002_Node000006"><a xlink:title=" ">
<path fill="none" stroke="#63b8ff" d="M425.68,-122.96C420.5,-114 414.74,-104.03 410.19,-96.16"/>
<polygon fill="#63b8ff" stroke="#63b8ff" points="422.75,-124.89 430.79,-131.8 428.81,-121.39 422.75,-124.89"/>
</a>
</g>
</g>
<!-- Node2&#45;&gt;Node8 -->
<g id="edge9_Node000002_Node000008" class="edge">
<title>Node2&#45;&gt;Node8</title>
<g id="a_edge9_Node000002_Node000008"><a xlink:title=" ">
<path fill="none" stroke="#63b8ff" d="M379.93,-129.12C343.81,-118.8 298.16,-105.76 264.04,-96.01"/>
<polygon fill="#63b8ff" stroke="#63b8ff" points="379.27,-132.57 389.84,-131.95 381.19,-125.84 379.27,-132.57"/>
</a>
</g>
</g>
<!-- Node2&#45;&gt;Node10 -->
<g id="edge12_Node000002_Node000010" class="edge">
<title>Node2&#45;&gt;Node10</title>
<g id="a_edge12_Node000002_Node000010"><a xlink:title=" ">
<path fill="none" stroke="#63b8ff" d="M499.13,-129.12C535.89,-118.8 582.36,-105.76 617.08,-96.01"/>
<polygon fill="#63b8ff" stroke="#63b8ff" points="497.72,-125.88 489.04,-131.95 499.61,-132.62 497.72,-125.88"/>
</a>
</g>
</g>
<!-- Node4&#45;&gt;Node3 -->
<g id="edge4_Node000004_Node000003" class="edge">
<title>Node4&#45;&gt;Node3</title>
<g id="a_edge4_Node000004_Node000003"><a xlink:title=" ">
<path fill="none" stroke="#63b8ff" d="M134.51,-65.85C273.99,-44.58 311.73,-49.13 448,-30 459.42,-28.4 471.68,-26.47 483.21,-24.57"/>
<polygon fill="#63b8ff" stroke="#63b8ff" points="133.64,-62.44 124.29,-67.42 134.7,-69.36 133.64,-62.44"/>
</a>
</g>
</g>
<!-- Node5 -->
<g id="Node000005" class="node">
<title>Node5</title>
<g id="a_Node000005"><a xlink:href="server_8cpp.html" target="_top" xlink:title=" ">
<polygon fill="white" stroke="#666666" points="121,-24.5 3,-24.5 3,-5.5 121,-5.5 121,-24.5"/>
<text text-anchor="middle" x="62" y="-12.5" font-family="Helvetica,sans-Serif" font-size="10.00">src/server/server.cpp</text>
</a>
</g>
</g>
<!-- Node4&#45;&gt;Node5 -->
<g id="edge5_Node000004_Node000005" class="edge">
<title>Node4&#45;&gt;Node5</title>
<g id="a_edge5_Node000004_Node000005"><a xlink:title=" ">
<path fill="none" stroke="#63b8ff" d="M62,-55.6C62,-44.8 62,-32.78 62,-24.84"/>
<polygon fill="#63b8ff" stroke="#63b8ff" points="58.5,-55.8 62,-65.8 65.5,-55.8 58.5,-55.8"/>
</a>
</g>
</g>
<!-- Node6&#45;&gt;Node3 -->
<g id="edge7_Node000006_Node000003" class="edge">
<title>Node6&#45;&gt;Node3</title>
<g id="a_edge7_Node000006_Node000003"><a xlink:title=" ">
<path fill="none" stroke="#63b8ff" d="M439.66,-61.46C464.42,-49.27 495.64,-33.9 514.7,-24.52"/>
<polygon fill="#63b8ff" stroke="#63b8ff" points="437.95,-58.4 430.53,-65.95 441.05,-64.68 437.95,-58.4"/>
</a>
</g>
</g>
<!-- Node7 -->
<g id="Node000007" class="node">
<title>Node7</title>
<g id="a_Node000007"><a xlink:href="framed__stdio__server__transport_8cpp.html" target="_top" xlink:title=" ">
<polygon fill="white" stroke="#666666" points="439,-30 287,-30 287,0 439,0 439,-30"/>
<text text-anchor="start" x="295" y="-18" font-family="Helvetica,sans-Serif" font-size="10.00">src/transports/framed</text>
<text text-anchor="middle" x="363" y="-7" font-family="Helvetica,sans-Serif" font-size="10.00">_stdio_server_transport.cpp</text>
</a>
</g>
</g>
<!-- Node6&#45;&gt;Node7 -->
<g id="edge8_Node000006_Node000007" class="edge">
<title>Node6&#45;&gt;Node7</title>
<g id="a_edge8_Node000006_Node000007"><a xlink:title=" ">
<path fill="none" stroke="#63b8ff" d="M388.13,-57.24C382.63,-48.21 376.47,-38.11 371.63,-30.16"/>
<polygon fill="#63b8ff" stroke="#63b8ff" points="385.15,-59.08 393.34,-65.8 391.13,-55.44 385.15,-59.08"/>
</a>
</g>
</g>
<!-- Node8&#45;&gt;Node3 -->
<g id="edge10_Node000008_Node000003" class="edge">
<title>Node8&#45;&gt;Node3</title>
<g id="a_edge10_Node000008_Node000003"><a xlink:title=" ">
<path fill="none" stroke="#63b8ff" d="M294.71,-63.91C356.66,-51.4 440.17,-34.54 489.81,-24.52"/>
<polygon fill="#63b8ff" stroke="#63b8ff" points="293.68,-60.55 284.57,-65.95 295.06,-67.41 293.68,-60.55"/>
</a>
</g>
</g>
<!-- Node9 -->
<g id="Node000009" class="node">
<title>Node9</title>
<g id="a_Node000009"><a xlink:href="http__server__transport_8cpp.html" target="_top" xlink:title=" ">
<polygon fill="white" stroke="#666666" points="269,-30 147,-30 147,0 269,0 269,-30"/>
<text text-anchor="start" x="155" y="-18" font-family="Helvetica,sans-Serif" font-size="10.00">src/transports/http</text>
<text text-anchor="middle" x="208" y="-7" font-family="Helvetica,sans-Serif" font-size="10.00">_server_transport.cpp</text>
</a>
</g>
</g>
<!-- Node8&#45;&gt;Node9 -->
<g id="edge11_Node000008_Node000009" class="edge">
<title>Node8&#45;&gt;Node9</title>
<g id="a_edge11_Node000008_Node000009"><a xlink:title=" ">
<path fill="none" stroke="#63b8ff" d="M212.36,-55.83C211.41,-47.17 210.37,-37.7 209.55,-30.16"/>
<polygon fill="#63b8ff" stroke="#63b8ff" points="208.88,-56.24 213.45,-65.8 215.84,-55.48 208.88,-56.24"/>
</a>
</g>
</g>
<!-- Node10&#45;&gt;Node3 -->
<g id="edge13_Node000010_Node000003" class="edge">
<title>Node10&#45;&gt;Node3</title>
<g id="a_edge13_Node000010_Node000003"><a xlink:title=" ">
<path fill="none" stroke="#63b8ff" d="M628.23,-61.62C602.47,-49.41 569.84,-33.94 549.97,-24.52"/>
<polygon fill="#63b8ff" stroke="#63b8ff" points="626.84,-64.83 637.37,-65.95 629.84,-58.51 626.84,-64.83"/>
</a>
</g>
</g>
<!-- Node11 -->
<g id="Node000011" class="node">
<title>Node11</title>
<g id="a_Node000011"><a xlink:href="stdio__server__transport_8cpp.html" target="_top" xlink:title=" ">
<polygon fill="white" stroke="#666666" points="747,-30 625,-30 625,0 747,0 747,-30"/>
<text text-anchor="start" x="633" y="-18" font-family="Helvetica,sans-Serif" font-size="10.00">src/transports/stdio</text>
<text text-anchor="middle" x="686" y="-7" font-family="Helvetica,sans-Serif" font-size="10.00">_server_transport.cpp</text>
</a>
</g>
</g>
<!-- Node10&#45;&gt;Node11 -->
<g id="edge14_Node000010_Node000011" class="edge">
<title>Node10&#45;&gt;Node11</title>
<g id="a_edge14_Node000010_Node000011"><a xlink:title=" ">
<path fill="none" stroke="#63b8ff" d="M674.09,-56.11C676.69,-47.38 679.53,-37.78 681.8,-30.16"/>
<polygon fill="#63b8ff" stroke="#63b8ff" points="670.71,-55.21 671.22,-65.8 677.42,-57.21 670.71,-55.21"/>
</a>
</g>
</g>
<!-- Node12&#45;&gt;Node3 -->
<g id="edge19_Node000012_Node000003" class="edge">
<title>Node12&#45;&gt;Node3</title>
<g id="a_edge19_Node000012_Node000003"><a xlink:title=" ">
<path fill="none" stroke="#63b8ff" d="M758.92,-121.83C762.34,-104.42 763.43,-81.39 751,-66 740.51,-53.01 646.05,-35.03 584.66,-24.54"/>
<polygon fill="#63b8ff" stroke="#63b8ff" points="755.46,-121.28 756.6,-131.82 762.27,-122.87 755.46,-121.28"/>
</a>
</g>
</g>
<!-- Node13 -->
<g id="Node000013" class="node">
<title>Node13</title>
<g id="a_Node000013"><a xlink:href="stdio__client__transport_8cpp.html" target="_top" xlink:title=" ">
<polygon fill="white" stroke="#666666" points="917.5,-96 798.5,-96 798.5,-66 917.5,-66 917.5,-96"/>
<text text-anchor="start" x="806.5" y="-84" font-family="Helvetica,sans-Serif" font-size="10.00">src/transports/stdio</text>
<text text-anchor="middle" x="858" y="-73" font-family="Helvetica,sans-Serif" font-size="10.00">_client_transport.cpp</text>
</a>
</g>
</g>
<!-- Node12&#45;&gt;Node13 -->
<g id="edge20_Node000012_Node000013" class="edge">
<title>Node12&#45;&gt;Node13</title>
<g id="a_edge20_Node000012_Node000013"><a xlink:title=" ">
<path fill="none" stroke="#63b8ff" d="M783.97,-126.69C800.34,-116.82 819.89,-105.01 834.79,-96.01"/>
<polygon fill="#63b8ff" stroke="#63b8ff" points="782.01,-123.79 775.26,-131.95 785.63,-129.78 782.01,-123.79"/>
</a>
</g>
</g>
</g>
</svg>
