<?xml version="1.0" encoding="UTF-8" standalone="no"?>
<!DOCTYPE svg PUBLIC "-//W3C//DTD SVG 1.1//EN"
 "http://www.w3.org/Graphics/SVG/1.1/DTD/svg11.dtd">
<!-- Generated by graphviz version 2.43.0 (0)
 -->
<!-- Title: include/json_rpc/transports/framed_stdio_server_transport.hpp Pages: 1 -->
<svg width="838pt" height="335pt"
 viewBox="0.00 0.00 837.64 335.00" xmlns="http://www.w3.org/2000/svg" xmlns:xlink="http://www.w3.org/1999/xlink">
<g id="graph0" class="graph" transform="scale(1 1) rotate(0) translate(4 331)">
<title>include/json_rpc/transports/framed_stdio_server_transport.hpp</title>
<!-- Node1 -->
<g id="Node000001" class="node">
<title>Node1</title>
<g id="a_Node000001"><a xlink:title=" ">
<polygon fill="#999999" stroke="#666666" points="209.8,-327 18.8,-327 18.8,-297 209.8,-297 209.8,-327"/>
<text text-anchor="start" x="26.8" y="-315" font-family="Helvetica,sans-Serif" font-size="10.00">include/json_rpc/transports</text>
<text text-anchor="middle" x="114.3" y="-304" font-family="Helvetica,sans-Serif" font-size="10.00">/framed_stdio_server_transport.hpp</text>
</a>
</g>
</g>
<!-- Node2 -->
<g id="Node000002" class="node">
<title>Node2</title>
<g id="a_Node000002"><a xlink:title=" ">
<polygon fill="#e0e0e0" stroke="#999999" points="406.3,-74 362.3,-74 362.3,-55 406.3,-55 406.3,-74"/>
<text text-anchor="middle" x="384.3" y="-62" font-family="Helvetica,sans-Serif" font-size="10.00">string</text>
</a>
</g>
</g>
<!-- Node1&#45;&gt;Node2 -->
<g id="edge1_Node000001_Node000002" class="edge">
<title>Node1&#45;&gt;Node2</title>
<g id="a_edge1_Node000001_Node000002"><a xlink:title=" ">
<path fill="none" stroke="#63b8ff" d="M117.94,-296.87C125.91,-268.92 147.72,-206.62 190.3,-176 254.77,-129.64 307.86,-194.82 365.3,-140 380.21,-125.77 384.05,-101.61 384.75,-84.67"/>
<polygon fill="#63b8ff" stroke="#63b8ff" points="388.25,-84.34 384.82,-74.31 381.25,-84.28 388.25,-84.34"/>
</a>
</g>
</g>
<!-- Node3 -->
<g id="Node000003" class="node">
<title>Node3</title>
<g id="a_Node000003"><a xlink:href="server__transport_8hpp.html" target="_top" xlink:title=" ">
<polygon fill="white" stroke="#666666" points="281.8,-261 166.8,-261 166.8,-231 281.8,-231 281.8,-261"/>
<text text-anchor="start" x="174.8" y="-249" font-family="Helvetica,sans-Serif" font-size="10.00">json_rpc/core/server</text>
<text text-anchor="middle" x="224.3" y="-238" font-family="Helvetica,sans-Serif" font-size="10.00">_transport.hpp</text>
</a>
</g>
</g>
<!-- Node1&#45;&gt;Node3 -->
<g id="edge2_Node000001_Node000003" class="edge">
<title>Node1&#45;&gt;Node3</title>
<g id="a_edge2_Node000001_Node000003"><a xlink:title=" ">
<path fill="none" stroke="#63b8ff" d="M138.44,-296.95C153.92,-287.95 174.21,-276.14 191.18,-266.27"/>
<polygon fill="#63b8ff" stroke="#63b8ff" points="193.34,-269.07 200.22,-261.01 189.82,-263.02 193.34,-269.07"/>
</a>
</g>
</g>
<!-- Node11 -->
<g id="Node000011" class="node">
<title>Node11</title>
<g id="a_Node000011"><a xlink:href="types_8hpp.html" target="_top" xlink:title=" ">
<polygon fill="white" stroke="#666666" points="252.3,-74 120.3,-74 120.3,-55 252.3,-55 252.3,-74"/>
<text text-anchor="middle" x="186.3" y="-62" font-family="Helvetica,sans-Serif" font-size="10.00">json_rpc/core/types.hpp</text>
</a>
</g>
</g>
<!-- Node1&#45;&gt;Node11 -->
<g id="edge26_Node000001_Node000011" class="edge">
<title>Node1&#45;&gt;Node11</title>
<g id="a_edge26_Node000001_Node000011"><a xlink:title=" ">
<path fill="none" stroke="#63b8ff" d="M96.99,-296.77C57.13,-262.29 -34.13,-172.56 14.3,-110 26.56,-94.17 70.6,-82.95 111.05,-75.74"/>
<polygon fill="#63b8ff" stroke="#63b8ff" points="111.7,-79.18 120.96,-74.04 110.51,-72.28 111.7,-79.18"/>
</a>
</g>
</g>
<!-- Node17 -->
<g id="Node000017" class="node">
<title>Node17</title>
<g id="a_Node000017"><a xlink:href="framed__transport_8hpp.html" target="_top" xlink:title=" ">
<polygon fill="white" stroke="#666666" points="157.8,-140 32.8,-140 32.8,-110 157.8,-110 157.8,-140"/>
<text text-anchor="start" x="40.8" y="-128" font-family="Helvetica,sans-Serif" font-size="10.00">json_rpc/transports</text>
<text text-anchor="middle" x="95.3" y="-117" font-family="Helvetica,sans-Serif" font-size="10.00">/framed_transport.hpp</text>
</a>
</g>
</g>
<!-- Node1&#45;&gt;Node17 -->
<g id="edge27_Node000001_Node000017" class="edge">
<title>Node1&#45;&gt;Node17</title>
<g id="a_edge27_Node000001_Node000017"><a xlink:title=" ">
<path fill="none" stroke="#63b8ff" d="M112.84,-296.79C109.6,-265.24 101.78,-189.04 97.77,-149.97"/>
<polygon fill="#63b8ff" stroke="#63b8ff" points="101.25,-149.59 96.74,-140 94.28,-150.31 101.25,-149.59"/>
</a>
</g>
</g>
<!-- Node4 -->
<g id="Node000004" class="node">
<title>Node4</title>
<g id="a_Node000004"><a xlink:title=" ">
<polygon fill="#e0e0e0" stroke="#999999" points="249.3,-195 199.3,-195 199.3,-176 249.3,-176 249.3,-195"/>
<text text-anchor="middle" x="224.3" y="-183" font-family="Helvetica,sans-Serif" font-size="10.00">atomic</text>
</a>
</g>
</g>
<!-- Node3&#45;&gt;Node4 -->
<g id="edge3_Node000003_Node000004" class="edge">
<title>Node3&#45;&gt;Node4</title>
<g id="a_edge3_Node000003_Node000004"><a xlink:title=" ">
<path fill="none" stroke="#63b8ff" d="M224.3,-230.84C224.3,-223.21 224.3,-213.7 224.3,-205.45"/>
<polygon fill="#63b8ff" stroke="#63b8ff" points="227.8,-205.27 224.3,-195.27 220.8,-205.27 227.8,-205.27"/>
</a>
</g>
</g>
<!-- Node5 -->
<g id="Node000005" class="node">
<title>Node5</title>
<g id="a_Node000005"><a xlink:title=" ">
<polygon fill="#e0e0e0" stroke="#999999" points="325.3,-195 267.3,-195 267.3,-176 325.3,-176 325.3,-195"/>
<text text-anchor="middle" x="296.3" y="-183" font-family="Helvetica,sans-Serif" font-size="10.00">memory</text>
</a>
</g>
</g>
<!-- Node3&#45;&gt;Node5 -->
<g id="edge4_Node000003_Node000005" class="edge">
<title>Node3&#45;&gt;Node5</title>
<g id="a_edge4_Node000003_Node000005"><a xlink:title=" ">
<path fill="none" stroke="#63b8ff" d="M241.73,-230.84C252.61,-222 266.6,-210.63 277.7,-201.62"/>
<polygon fill="#63b8ff" stroke="#63b8ff" points="279.96,-204.29 285.51,-195.27 275.55,-198.86 279.96,-204.29"/>
</a>
</g>
</g>
<!-- Node6 -->
<g id="Node000006" class="node">
<title>Node6</title>
<g id="a_Node000006"><a xlink:href="dispatcher_8hpp.html" target="_top" xlink:title=" ">
<polygon fill="white" stroke="#666666" points="601.8,-195 446.8,-195 446.8,-176 601.8,-176 601.8,-195"/>
<text text-anchor="middle" x="524.3" y="-183" font-family="Helvetica,sans-Serif" font-size="10.00">json_rpc/core/dispatcher.hpp</text>
</a>
</g>
</g>
<!-- Node3&#45;&gt;Node6 -->
<g id="edge5_Node000003_Node000006" class="edge">
<title>Node3&#45;&gt;Node6</title>
<g id="a_edge5_Node000003_Node000006"><a xlink:title=" ">
<path fill="none" stroke="#63b8ff" d="M282.15,-233.72C336.53,-223.12 417.31,-207.36 470.38,-197.02"/>
<polygon fill="#63b8ff" stroke="#63b8ff" points="471.13,-200.43 480.28,-195.08 469.79,-193.56 471.13,-200.43"/>
</a>
</g>
</g>
<!-- Node3&#45;&gt;Node11 -->
<g id="edge25_Node000003_Node000011" class="edge">
<title>Node3&#45;&gt;Node11</title>
<g id="a_edge25_Node000003_Node000011"><a xlink:title=" ">
<path fill="none" stroke="#63b8ff" d="M166.62,-232.3C118.93,-218.42 54.21,-191.01 23.3,-140 -0.4,-100.87 56.89,-82.12 109.95,-73.24"/>
<polygon fill="#63b8ff" stroke="#63b8ff" points="110.8,-76.65 120.14,-71.64 109.72,-69.73 110.8,-76.65"/>
</a>
</g>
</g>
<!-- Node6&#45;&gt;Node2 -->
<g id="edge7_Node000006_Node000002" class="edge">
<title>Node6&#45;&gt;Node2</title>
<g id="a_edge7_Node000006_Node000002"><a xlink:title=" ">
<path fill="none" stroke="#63b8ff" d="M502.65,-175.95C484.93,-168.27 459.86,-155.79 441.3,-140 421.81,-123.42 404.77,-99.12 394.52,-82.83"/>
<polygon fill="#63b8ff" stroke="#63b8ff" points="397.49,-80.99 389.3,-74.28 391.52,-84.64 397.49,-80.99"/>
</a>
</g>
</g>
<!-- Node7 -->
<g id="Node000007" class="node">
<title>Node7</title>
<g id="a_Node000007"><a xlink:title=" ">
<polygon fill="#e0e0e0" stroke="#999999" points="437.3,-19 381.3,-19 381.3,0 437.3,0 437.3,-19"/>
<text text-anchor="middle" x="409.3" y="-7" font-family="Helvetica,sans-Serif" font-size="10.00">optional</text>
</a>
</g>
</g>
<!-- Node6&#45;&gt;Node7 -->
<g id="edge6_Node000006_Node000007" class="edge">
<title>Node6&#45;&gt;Node7</title>
<g id="a_edge6_Node000006_Node000007"><a xlink:title=" ">
<path fill="none" stroke="#63b8ff" d="M601.87,-184.01C680.75,-181.66 795.25,-172.54 823.3,-140 832.01,-129.9 831.4,-120.59 823.3,-110 777.49,-50.05 541.5,-22.44 447.76,-13.72"/>
<polygon fill="#63b8ff" stroke="#63b8ff" points="447.85,-10.21 437.57,-12.79 447.22,-17.18 447.85,-10.21"/>
</a>
</g>
</g>
<!-- Node8 -->
<g id="Node000008" class="node">
<title>Node8</title>
<g id="a_Node000008"><a xlink:title=" ">
<polygon fill="#e0e0e0" stroke="#999999" points="611.8,-74 518.8,-74 518.8,-55 611.8,-55 611.8,-74"/>
<text text-anchor="middle" x="565.3" y="-62" font-family="Helvetica,sans-Serif" font-size="10.00">unordered_map</text>
</a>
</g>
</g>
<!-- Node6&#45;&gt;Node8 -->
<g id="edge8_Node000006_Node000008" class="edge">
<title>Node6&#45;&gt;Node8</title>
<g id="a_edge8_Node000006_Node000008"><a xlink:title=" ">
<path fill="none" stroke="#63b8ff" d="M602.11,-183.05C675.75,-179.84 778.74,-169.95 804.3,-140 856.57,-78.77 708.09,-67.14 622,-65.39"/>
<polygon fill="#63b8ff" stroke="#63b8ff" points="621.88,-61.89 611.82,-65.23 621.76,-68.89 621.88,-61.89"/>
</a>
</g>
</g>
<!-- Node9 -->
<g id="Node000009" class="node">
<title>Node9</title>
<g id="a_Node000009"><a xlink:title=" ">
<polygon fill="#e0e0e0" stroke="#999999" points="663.8,-134.5 616.8,-134.5 616.8,-115.5 663.8,-115.5 663.8,-134.5"/>
<text text-anchor="middle" x="640.3" y="-122.5" font-family="Helvetica,sans-Serif" font-size="10.00">vector</text>
</a>
</g>
</g>
<!-- Node6&#45;&gt;Node9 -->
<g id="edge9_Node000006_Node000009" class="edge">
<title>Node6&#45;&gt;Node9</title>
<g id="a_edge9_Node000006_Node000009"><a xlink:title=" ">
<path fill="none" stroke="#63b8ff" d="M541.42,-175.87C560.52,-166.23 591.67,-150.53 613.9,-139.31"/>
<polygon fill="#63b8ff" stroke="#63b8ff" points="615.76,-142.3 623.12,-134.67 612.61,-136.05 615.76,-142.3"/>
</a>
</g>
</g>
<!-- Node10 -->
<g id="Node000010" class="node">
<title>Node10</title>
<g id="a_Node000010"><a xlink:href="request_8hpp.html" target="_top" xlink:title=" ">
<polygon fill="white" stroke="#666666" points="356.3,-134.5 214.3,-134.5 214.3,-115.5 356.3,-115.5 356.3,-134.5"/>
<text text-anchor="middle" x="285.3" y="-122.5" font-family="Helvetica,sans-Serif" font-size="10.00">json_rpc/core/request.hpp</text>
</a>
</g>
</g>
<!-- Node6&#45;&gt;Node10 -->
<g id="edge10_Node000006_Node000010" class="edge">
<title>Node6&#45;&gt;Node10</title>
<g id="a_edge10_Node000006_Node000010"><a xlink:title=" ">
<path fill="none" stroke="#63b8ff" d="M489.55,-175.99C447.34,-165.66 376.05,-148.21 329.84,-136.9"/>
<polygon fill="#63b8ff" stroke="#63b8ff" points="330.64,-133.49 320.1,-134.52 328.98,-140.29 330.64,-133.49"/>
</a>
</g>
</g>
<!-- Node6&#45;&gt;Node11 -->
<g id="edge23_Node000006_Node000011" class="edge">
<title>Node6&#45;&gt;Node11</title>
<g id="a_edge23_Node000006_Node000011"><a xlink:title=" ">
<path fill="none" stroke="#63b8ff" d="M446.57,-183.34C363.75,-180.47 239.89,-170.95 205.3,-140 189.87,-126.19 186.16,-101.74 185.64,-84.63"/>
<polygon fill="#63b8ff" stroke="#63b8ff" points="189.14,-84.2 185.68,-74.18 182.14,-84.17 189.14,-84.2"/>
</a>
</g>
</g>
<!-- Node15 -->
<g id="Node000015" class="node">
<title>Node15</title>
<g id="a_Node000015"><a xlink:href="response_8hpp.html" target="_top" xlink:title=" ">
<polygon fill="white" stroke="#666666" points="598.8,-134.5 449.8,-134.5 449.8,-115.5 598.8,-115.5 598.8,-134.5"/>
<text text-anchor="middle" x="524.3" y="-122.5" font-family="Helvetica,sans-Serif" font-size="10.00">json_rpc/core/response.hpp</text>
</a>
</g>
</g>
<!-- Node6&#45;&gt;Node15 -->
<g id="edge18_Node000006_Node000015" class="edge">
<title>Node6&#45;&gt;Node15</title>
<g id="a_edge18_Node000006_Node000015"><a xlink:title=" ">
<path fill="none" stroke="#63b8ff" d="M524.3,-175.87C524.3,-167.75 524.3,-155.31 524.3,-144.89"/>
<polygon fill="#63b8ff" stroke="#63b8ff" points="527.8,-144.67 524.3,-134.67 520.8,-144.67 527.8,-144.67"/>
</a>
</g>
</g>
<!-- Node16 -->
<g id="Node000016" class="node">
<title>Node16</title>
<g id="a_Node000016"><a xlink:title=" ">
<polygon fill="#e0e0e0" stroke="#999999" points="794.8,-134.5 681.8,-134.5 681.8,-115.5 794.8,-115.5 794.8,-134.5"/>
<text text-anchor="middle" x="738.3" y="-122.5" font-family="Helvetica,sans-Serif" font-size="10.00">BS_thread_pool.hpp</text>
</a>
</g>
</g>
<!-- Node6&#45;&gt;Node16 -->
<g id="edge24_Node000006_Node000016" class="edge">
<title>Node6&#45;&gt;Node16</title>
<g id="a_edge24_Node000006_Node000016"><a xlink:title=" ">
<path fill="none" stroke="#63b8ff" d="M555.42,-175.99C592.9,-165.75 655.98,-148.5 697.38,-137.19"/>
<polygon fill="#63b8ff" stroke="#63b8ff" points="698.43,-140.53 707.15,-134.52 696.58,-133.78 698.43,-140.53"/>
</a>
</g>
</g>
<!-- Node10&#45;&gt;Node2 -->
<g id="edge12_Node000010_Node000002" class="edge">
<title>Node10&#45;&gt;Node2</title>
<g id="a_edge12_Node000010_Node000002"><a xlink:title=" ">
<path fill="none" stroke="#63b8ff" d="M299.91,-115.37C316,-105.86 342.08,-90.45 361,-79.27"/>
<polygon fill="#63b8ff" stroke="#63b8ff" points="362.81,-82.27 369.64,-74.17 359.25,-76.24 362.81,-82.27"/>
</a>
</g>
</g>
<!-- Node10&#45;&gt;Node7 -->
<g id="edge11_Node000010_Node000007" class="edge">
<title>Node10&#45;&gt;Node7</title>
<g id="a_edge11_Node000010_Node000007"><a xlink:title=" ">
<path fill="none" stroke="#63b8ff" d="M293.36,-115.17C305.77,-101.7 330.54,-75.46 353.3,-55 364.82,-44.65 378.4,-33.83 389.3,-25.45"/>
<polygon fill="#63b8ff" stroke="#63b8ff" points="391.54,-28.14 397.38,-19.31 387.3,-22.57 391.54,-28.14"/>
</a>
</g>
</g>
<!-- Node10&#45;&gt;Node11 -->
<g id="edge13_Node000010_Node000011" class="edge">
<title>Node10&#45;&gt;Node11</title>
<g id="a_edge13_Node000010_Node000011"><a xlink:title=" ">
<path fill="none" stroke="#63b8ff" d="M270.7,-115.37C254.61,-105.86 228.52,-90.45 209.61,-79.27"/>
<polygon fill="#63b8ff" stroke="#63b8ff" points="211.36,-76.24 200.97,-74.17 207.8,-82.27 211.36,-76.24"/>
</a>
</g>
</g>
<!-- Node11&#45;&gt;Node7 -->
<g id="edge15_Node000011_Node000007" class="edge">
<title>Node11&#45;&gt;Node7</title>
<g id="a_edge15_Node000011_Node000007"><a xlink:title=" ">
<path fill="none" stroke="#63b8ff" d="M222.13,-54.98C262.97,-45.28 329.43,-29.48 371.19,-19.56"/>
<polygon fill="#63b8ff" stroke="#63b8ff" points="372.07,-22.95 380.99,-17.23 370.45,-16.14 372.07,-22.95"/>
</a>
</g>
</g>
<!-- Node12 -->
<g id="Node000012" class="node">
<title>Node12</title>
<g id="a_Node000012"><a xlink:title=" ">
<polygon fill="#e0e0e0" stroke="#999999" points="218.8,-19 153.8,-19 153.8,0 218.8,0 218.8,-19"/>
<text text-anchor="middle" x="186.3" y="-7" font-family="Helvetica,sans-Serif" font-size="10.00">functional</text>
</a>
</g>
</g>
<!-- Node11&#45;&gt;Node12 -->
<g id="edge14_Node000011_Node000012" class="edge">
<title>Node11&#45;&gt;Node12</title>
<g id="a_edge14_Node000011_Node000012"><a xlink:title=" ">
<path fill="none" stroke="#63b8ff" d="M186.3,-54.75C186.3,-47.8 186.3,-37.85 186.3,-29.13"/>
<polygon fill="#63b8ff" stroke="#63b8ff" points="189.8,-29.09 186.3,-19.09 182.8,-29.09 189.8,-29.09"/>
</a>
</g>
</g>
<!-- Node13 -->
<g id="Node000013" class="node">
<title>Node13</title>
<g id="a_Node000013"><a xlink:title=" ">
<polygon fill="#e0e0e0" stroke="#999999" points="287.8,-19 236.8,-19 236.8,0 287.8,0 287.8,-19"/>
<text text-anchor="middle" x="262.3" y="-7" font-family="Helvetica,sans-Serif" font-size="10.00">variant</text>
</a>
</g>
</g>
<!-- Node11&#45;&gt;Node13 -->
<g id="edge16_Node000011_Node000013" class="edge">
<title>Node11&#45;&gt;Node13</title>
<g id="a_edge16_Node000011_Node000013"><a xlink:title=" ">
<path fill="none" stroke="#63b8ff" d="M198.51,-54.98C210.08,-46.92 227.68,-34.65 241.46,-25.03"/>
<polygon fill="#63b8ff" stroke="#63b8ff" points="243.67,-27.76 249.87,-19.17 239.67,-22.02 243.67,-27.76"/>
</a>
</g>
</g>
<!-- Node14 -->
<g id="Node000014" class="node">
<title>Node14</title>
<g id="a_Node000014"><a xlink:title=" ">
<polygon fill="#e0e0e0" stroke="#999999" points="135.3,-19 25.3,-19 25.3,0 135.3,0 135.3,-19"/>
<text text-anchor="middle" x="80.3" y="-7" font-family="Helvetica,sans-Serif" font-size="10.00">nlohmann/json.hpp</text>
</a>
</g>
</g>
<!-- Node11&#45;&gt;Node14 -->
<g id="edge17_Node000011_Node000014" class="edge">
<title>Node11&#45;&gt;Node14</title>
<g id="a_edge17_Node000011_Node000014"><a xlink:title=" ">
<path fill="none" stroke="#63b8ff" d="M169.27,-54.98C152.37,-46.54 126.24,-33.47 106.66,-23.68"/>
<polygon fill="#63b8ff" stroke="#63b8ff" points="108.15,-20.51 97.64,-19.17 105.02,-26.77 108.15,-20.51"/>
</a>
</g>
</g>
<!-- Node15&#45;&gt;Node2 -->
<g id="edge20_Node000015_Node000002" class="edge">
<title>Node15&#45;&gt;Node2</title>
<g id="a_edge20_Node000015_Node000002"><a xlink:title=" ">
<path fill="none" stroke="#63b8ff" d="M503.95,-115.49C480.31,-105.62 441.1,-89.23 414.05,-77.93"/>
<polygon fill="#63b8ff" stroke="#63b8ff" points="415.26,-74.64 404.69,-74.02 412.56,-81.1 415.26,-74.64"/>
</a>
</g>
</g>
<!-- Node15&#45;&gt;Node7 -->
<g id="edge19_Node000015_Node000007" class="edge">
<title>Node15&#45;&gt;Node7</title>
<g id="a_edge19_Node000015_Node000007"><a xlink:title=" ">
<path fill="none" stroke="#63b8ff" d="M515.66,-115.47C496.43,-96.49 449.86,-50.53 425.22,-26.21"/>
<polygon fill="#63b8ff" stroke="#63b8ff" points="427.62,-23.66 418.05,-19.13 422.71,-28.65 427.62,-23.66"/>
</a>
</g>
</g>
<!-- Node15&#45;&gt;Node8 -->
<g id="edge21_Node000015_Node000008" class="edge">
<title>Node15&#45;&gt;Node8</title>
<g id="a_edge21_Node000015_Node000008"><a xlink:title=" ">
<path fill="none" stroke="#63b8ff" d="M530.35,-115.37C536.41,-106.73 545.89,-93.2 553.45,-82.42"/>
<polygon fill="#63b8ff" stroke="#63b8ff" points="556.36,-84.37 559.23,-74.17 550.62,-80.35 556.36,-84.37"/>
</a>
</g>
</g>
<!-- Node15&#45;&gt;Node11 -->
<g id="edge22_Node000015_Node000011" class="edge">
<title>Node15&#45;&gt;Node11</title>
<g id="a_edge22_Node000015_Node000011"><a xlink:title=" ">
<path fill="none" stroke="#63b8ff" d="M475.16,-115.49C414.33,-104.97 310.82,-87.05 245.63,-75.77"/>
<polygon fill="#63b8ff" stroke="#63b8ff" points="245.96,-72.27 235.51,-74.02 244.77,-79.17 245.96,-72.27"/>
</a>
</g>
</g>
<!-- Node17&#45;&gt;Node2 -->
<g id="edge28_Node000017_Node000002" class="edge">
<title>Node17&#45;&gt;Node2</title>
<g id="a_edge28_Node000017_Node000002"><a xlink:title=" ">
<path fill="none" stroke="#63b8ff" d="M158.01,-111.31C217.9,-99.18 305.72,-81.41 352.39,-71.96"/>
<polygon fill="#63b8ff" stroke="#63b8ff" points="353.14,-75.38 362.25,-69.96 351.75,-68.52 353.14,-75.38"/>
</a>
</g>
</g>
<!-- Node17&#45;&gt;Node11 -->
<g id="edge29_Node000017_Node000011" class="edge">
<title>Node17&#45;&gt;Node11</title>
<g id="a_edge29_Node000017_Node000011"><a xlink:title=" ">
<path fill="none" stroke="#63b8ff" d="M117.33,-109.84C131.57,-100.68 150.03,-88.82 164.27,-79.66"/>
<polygon fill="#63b8ff" stroke="#63b8ff" points="166.42,-82.45 172.93,-74.09 162.63,-76.56 166.42,-82.45"/>
</a>
</g>
</g>
</g>
</svg>
