<?xml version="1.0" encoding="UTF-8" standalone="no"?>
<!DOCTYPE svg PUBLIC "-//W3C//DTD SVG 1.1//EN"
 "http://www.w3.org/Graphics/SVG/1.1/DTD/svg11.dtd">
<!-- Generated by graphviz version 2.43.0 (0)
 -->
<!-- Title: include/jsonrpc/client/transports/framed_stdio_client_transport.hpp Pages: 1 -->
<svg width="324pt" height="170pt"
 viewBox="0.00 0.00 323.83 170.00" xmlns="http://www.w3.org/2000/svg" xmlns:xlink="http://www.w3.org/1999/xlink">
<g id="graph0" class="graph" transform="scale(1 1) rotate(0) translate(4 166)">
<title>include/jsonrpc/client/transports/framed_stdio_client_transport.hpp</title>
<!-- Node1 -->
<g id="Node000001" class="node">
<title>Node1</title>
<g id="a_Node000001"><a xlink:title=" ">
<polygon fill="#999999" stroke="#666666" points="149.33,-162 12.33,-162 12.33,-121 149.33,-121 149.33,-162"/>
<text text-anchor="start" x="20.33" y="-150" font-family="Helvetica,sans-Serif" font-size="10.00">include/jsonrpc/client</text>
<text text-anchor="start" x="20.33" y="-139" font-family="Helvetica,sans-Serif" font-size="10.00">/transports/framed_stdio</text>
<text text-anchor="middle" x="80.83" y="-128" font-family="Helvetica,sans-Serif" font-size="10.00">_client_transport.hpp</text>
</a>
</g>
</g>
<!-- Node2 -->
<g id="Node000002" class="node">
<title>Node2</title>
<g id="a_Node000002"><a xlink:title=" ">
<polygon fill="#e0e0e0" stroke="#999999" points="102.83,-19 58.83,-19 58.83,0 102.83,0 102.83,-19"/>
<text text-anchor="middle" x="80.83" y="-7" font-family="Helvetica,sans-Serif" font-size="10.00">string</text>
</a>
</g>
</g>
<!-- Node1&#45;&gt;Node2 -->
<g id="edge1_Node000001_Node000002" class="edge">
<title>Node1&#45;&gt;Node2</title>
<g id="a_edge1_Node000001_Node000002"><a xlink:title=" ">
<path fill="none" stroke="#63b8ff" d="M40,-120.8C26.24,-111.92 12.45,-100 4.83,-85 -1.21,-73.11 -1.81,-66.57 4.83,-55 14.33,-38.41 32.69,-27.41 48.98,-20.5"/>
<polygon fill="#63b8ff" stroke="#63b8ff" points="50.69,-23.59 58.75,-16.71 48.16,-17.06 50.69,-23.59"/>
</a>
</g>
</g>
<!-- Node3 -->
<g id="Node000003" class="node">
<title>Node3</title>
<g id="a_Node000003"><a xlink:href="client__transport_8hpp.html" target="_top" xlink:title=" ">
<polygon fill="white" stroke="#666666" points="147.83,-85 13.83,-85 13.83,-55 147.83,-55 147.83,-85"/>
<text text-anchor="start" x="21.83" y="-73" font-family="Helvetica,sans-Serif" font-size="10.00">jsonrpc/client/transports</text>
<text text-anchor="middle" x="80.83" y="-62" font-family="Helvetica,sans-Serif" font-size="10.00">/client_transport.hpp</text>
</a>
</g>
</g>
<!-- Node1&#45;&gt;Node3 -->
<g id="edge2_Node000001_Node000003" class="edge">
<title>Node1&#45;&gt;Node3</title>
<g id="a_edge2_Node000001_Node000003"><a xlink:title=" ">
<path fill="none" stroke="#63b8ff" d="M80.83,-120.77C80.83,-112.85 80.83,-103.63 80.83,-95.3"/>
<polygon fill="#63b8ff" stroke="#63b8ff" points="84.33,-95.04 80.83,-85.04 77.33,-95.04 84.33,-95.04"/>
</a>
</g>
</g>
<!-- Node4 -->
<g id="Node000004" class="node">
<title>Node4</title>
<g id="a_Node000004"><a xlink:href="framed__transport_8hpp.html" target="_top" xlink:title=" ">
<polygon fill="white" stroke="#666666" points="315.83,-85 165.83,-85 165.83,-55 315.83,-55 315.83,-85"/>
<text text-anchor="start" x="173.83" y="-73" font-family="Helvetica,sans-Serif" font-size="10.00">jsonrpc/common/transports</text>
<text text-anchor="middle" x="240.83" y="-62" font-family="Helvetica,sans-Serif" font-size="10.00">/framed_transport.hpp</text>
</a>
</g>
</g>
<!-- Node1&#45;&gt;Node4 -->
<g id="edge4_Node000001_Node000004" class="edge">
<title>Node1&#45;&gt;Node4</title>
<g id="a_edge4_Node000001_Node000004"><a xlink:title=" ">
<path fill="none" stroke="#63b8ff" d="M125.82,-120.96C148.87,-110.94 176.75,-98.83 199.28,-89.04"/>
<polygon fill="#63b8ff" stroke="#63b8ff" points="200.81,-92.2 208.59,-85 198.02,-85.78 200.81,-92.2"/>
</a>
</g>
</g>
<!-- Node3&#45;&gt;Node2 -->
<g id="edge3_Node000003_Node000002" class="edge">
<title>Node3&#45;&gt;Node2</title>
<g id="a_edge3_Node000003_Node000002"><a xlink:title=" ">
<path fill="none" stroke="#63b8ff" d="M80.83,-54.84C80.83,-47.21 80.83,-37.7 80.83,-29.45"/>
<polygon fill="#63b8ff" stroke="#63b8ff" points="84.33,-29.27 80.83,-19.27 77.33,-29.27 84.33,-29.27"/>
</a>
</g>
</g>
<!-- Node4&#45;&gt;Node2 -->
<g id="edge5_Node000004_Node000002" class="edge">
<title>Node4&#45;&gt;Node2</title>
<g id="a_edge5_Node000004_Node000002"><a xlink:title=" ">
<path fill="none" stroke="#63b8ff" d="M202.5,-54.99C175.08,-44.96 138.59,-31.62 112.75,-22.17"/>
<polygon fill="#63b8ff" stroke="#63b8ff" points="113.66,-18.78 103.06,-18.63 111.25,-25.35 113.66,-18.78"/>
</a>
</g>
</g>
</g>
</svg>
