<?xml version="1.0" encoding="UTF-8" standalone="no"?>
<!DOCTYPE svg PUBLIC "-//W3C//DTD SVG 1.1//EN"
 "http://www.w3.org/Graphics/SVG/1.1/DTD/svg11.dtd">
<!-- Generated by graphviz version 2.43.0 (0)
 -->
<!-- Title: src/transport/framed_pipe_transport.cpp Pages: 1 -->
<svg width="669pt" height="280pt"
 viewBox="0.00 0.00 668.71 280.00" xmlns="http://www.w3.org/2000/svg" xmlns:xlink="http://www.w3.org/1999/xlink">
<g id="graph0" class="graph" transform="scale(1 1) rotate(0) translate(4 276)">
<title>src/transport/framed_pipe_transport.cpp</title>
<!-- Node1 -->
<g id="Node000001" class="node">
<title>Node1</title>
<g id="a_Node000001"><a xlink:title=" ">
<polygon fill="#999999" stroke="#666666" points="539.21,-272 423.21,-272 423.21,-242 539.21,-242 539.21,-272"/>
<text text-anchor="start" x="431.21" y="-260" font-family="Helvetica,sans-Serif" font-size="10.00">src/transport/framed</text>
<text text-anchor="middle" x="481.21" y="-249" font-family="Helvetica,sans-Serif" font-size="10.00">_pipe_transport.cpp</text>
</a>
</g>
</g>
<!-- Node2 -->
<g id="Node000002" class="node">
<title>Node2</title>
<g id="a_Node000002"><a xlink:href="framed__pipe__transport_8hpp.html" target="_top" xlink:title=" ">
<polygon fill="white" stroke="#666666" points="391.71,-206 254.71,-206 254.71,-176 391.71,-176 391.71,-206"/>
<text text-anchor="start" x="262.71" y="-194" font-family="Helvetica,sans-Serif" font-size="10.00">jsonrpc/transport/framed</text>
<text text-anchor="middle" x="323.21" y="-183" font-family="Helvetica,sans-Serif" font-size="10.00">_pipe_transport.hpp</text>
</a>
</g>
</g>
<!-- Node1&#45;&gt;Node2 -->
<g id="edge1_Node000001_Node000002" class="edge">
<title>Node1&#45;&gt;Node2</title>
<g id="a_edge1_Node000001_Node000002"><a xlink:title=" ">
<path fill="none" stroke="#63b8ff" d="M446.53,-241.95C423.17,-232.49 392.17,-219.93 367.09,-209.78"/>
<polygon fill="#63b8ff" stroke="#63b8ff" points="368.38,-206.52 357.8,-206.01 365.76,-213.01 368.38,-206.52"/>
</a>
</g>
</g>
<!-- Node12 -->
<g id="Node000012" class="node">
<title>Node12</title>
<g id="a_Node000012"><a xlink:title=" ">
<polygon fill="#e0e0e0" stroke="#999999" points="474.71,-200.5 409.71,-200.5 409.71,-181.5 474.71,-181.5 474.71,-200.5"/>
<text text-anchor="middle" x="442.21" y="-188.5" font-family="Helvetica,sans-Serif" font-size="10.00">stdexcept</text>
</a>
</g>
</g>
<!-- Node1&#45;&gt;Node12 -->
<g id="edge16_Node000001_Node000012" class="edge">
<title>Node1&#45;&gt;Node12</title>
<g id="a_edge16_Node000001_Node000012"><a xlink:title=" ">
<path fill="none" stroke="#63b8ff" d="M472.55,-241.8C466.77,-232.31 459.12,-219.76 452.95,-209.63"/>
<polygon fill="#63b8ff" stroke="#63b8ff" points="455.79,-207.56 447.6,-200.84 449.81,-211.21 455.79,-207.56"/>
</a>
</g>
</g>
<!-- Node13 -->
<g id="Node000013" class="node">
<title>Node13</title>
<g id="a_Node000013"><a xlink:title=" ">
<polygon fill="#e0e0e0" stroke="#999999" points="549.21,-200.5 493.21,-200.5 493.21,-181.5 549.21,-181.5 549.21,-200.5"/>
<text text-anchor="middle" x="521.21" y="-188.5" font-family="Helvetica,sans-Serif" font-size="10.00">unistd.h</text>
</a>
</g>
</g>
<!-- Node1&#45;&gt;Node13 -->
<g id="edge17_Node000001_Node000013" class="edge">
<title>Node1&#45;&gt;Node13</title>
<g id="a_edge17_Node000001_Node000013"><a xlink:title=" ">
<path fill="none" stroke="#63b8ff" d="M490.09,-241.8C496.02,-232.31 503.86,-219.76 510.19,-209.63"/>
<polygon fill="#63b8ff" stroke="#63b8ff" points="513.35,-211.18 515.68,-200.84 507.41,-207.47 513.35,-211.18"/>
</a>
</g>
</g>
<!-- Node14 -->
<g id="Node000014" class="node">
<title>Node14</title>
<g id="a_Node000014"><a xlink:title=" ">
<polygon fill="#e0e0e0" stroke="#999999" points="660.71,-200.5 567.71,-200.5 567.71,-181.5 660.71,-181.5 660.71,-200.5"/>
<text text-anchor="middle" x="614.21" y="-188.5" font-family="Helvetica,sans-Serif" font-size="10.00">spdlog/spdlog.h</text>
</a>
</g>
</g>
<!-- Node1&#45;&gt;Node14 -->
<g id="edge18_Node000001_Node000014" class="edge">
<title>Node1&#45;&gt;Node14</title>
<g id="a_edge18_Node000001_Node000014"><a xlink:title=" ">
<path fill="none" stroke="#63b8ff" d="M510.4,-241.95C533.31,-230.93 564.96,-215.7 587.27,-204.96"/>
<polygon fill="#63b8ff" stroke="#63b8ff" points="589.01,-208.01 596.51,-200.52 585.98,-201.7 589.01,-208.01"/>
</a>
</g>
</g>
<!-- Node3 -->
<g id="Node000003" class="node">
<title>Node3</title>
<g id="a_Node000003"><a xlink:title=" ">
<polygon fill="#e0e0e0" stroke="#999999" points="428.21,-74 370.21,-74 370.21,-55 428.21,-55 428.21,-74"/>
<text text-anchor="middle" x="399.21" y="-62" font-family="Helvetica,sans-Serif" font-size="10.00">asio.hpp</text>
</a>
</g>
</g>
<!-- Node2&#45;&gt;Node3 -->
<g id="edge2_Node000002_Node000003" class="edge">
<title>Node2&#45;&gt;Node3</title>
<g id="a_edge2_Node000002_Node000003"><a xlink:title=" ">
<path fill="none" stroke="#63b8ff" d="M331.93,-175.72C345.97,-152.71 373.55,-107.53 388.67,-82.76"/>
<polygon fill="#63b8ff" stroke="#63b8ff" points="391.75,-84.43 393.98,-74.07 385.78,-80.78 391.75,-84.43"/>
</a>
</g>
</g>
<!-- Node4 -->
<g id="Node000004" class="node">
<title>Node4</title>
<g id="a_Node000004"><a xlink:title=" ">
<polygon fill="#e0e0e0" stroke="#999999" points="188.71,-134.5 21.71,-134.5 21.71,-115.5 188.71,-115.5 188.71,-134.5"/>
<text text-anchor="middle" x="105.21" y="-122.5" font-family="Helvetica,sans-Serif" font-size="10.00">asio/local/stream_protocol.hpp</text>
</a>
</g>
</g>
<!-- Node2&#45;&gt;Node4 -->
<g id="edge3_Node000002_Node000004" class="edge">
<title>Node2&#45;&gt;Node4</title>
<g id="a_edge3_Node000002_Node000004"><a xlink:title=" ">
<path fill="none" stroke="#63b8ff" d="M275.37,-175.95C235.96,-164.38 180.78,-148.18 144.06,-137.41"/>
<polygon fill="#63b8ff" stroke="#63b8ff" points="144.8,-133.98 134.22,-134.52 142.83,-140.69 144.8,-133.98"/>
</a>
</g>
</g>
<!-- Node5 -->
<g id="Node000005" class="node">
<title>Node5</title>
<g id="a_Node000005"><a xlink:title=" ">
<polygon fill="#e0e0e0" stroke="#999999" points="291.21,-19 247.21,-19 247.21,0 291.21,0 291.21,-19"/>
<text text-anchor="middle" x="269.21" y="-7" font-family="Helvetica,sans-Serif" font-size="10.00">string</text>
</a>
</g>
</g>
<!-- Node2&#45;&gt;Node5 -->
<g id="edge4_Node000002_Node000005" class="edge">
<title>Node2&#45;&gt;Node5</title>
<g id="a_edge4_Node000002_Node000005"><a xlink:title=" ">
<path fill="none" stroke="#63b8ff" d="M254.44,-188.9C172.72,-185.96 43.56,-175.64 13.21,-140 -53.54,-61.62 154.37,-25.39 236.94,-14.34"/>
<polygon fill="#63b8ff" stroke="#63b8ff" points="237.58,-17.79 247.05,-13.03 236.68,-10.84 237.58,-17.79"/>
</a>
</g>
</g>
<!-- Node6 -->
<g id="Node000006" class="node">
<title>Node6</title>
<g id="a_Node000006"><a xlink:href="framed__transport_8hpp.html" target="_top" xlink:title=" ">
<polygon fill="white" stroke="#666666" points="343.71,-140 206.71,-140 206.71,-110 343.71,-110 343.71,-140"/>
<text text-anchor="start" x="214.71" y="-128" font-family="Helvetica,sans-Serif" font-size="10.00">jsonrpc/transport/framed</text>
<text text-anchor="middle" x="275.21" y="-117" font-family="Helvetica,sans-Serif" font-size="10.00">_transport.hpp</text>
</a>
</g>
</g>
<!-- Node2&#45;&gt;Node6 -->
<g id="edge5_Node000002_Node000006" class="edge">
<title>Node2&#45;&gt;Node6</title>
<g id="a_edge5_Node000002_Node000006"><a xlink:title=" ">
<path fill="none" stroke="#63b8ff" d="M312.56,-175.8C306.53,-167.76 298.85,-157.53 292.03,-148.43"/>
<polygon fill="#63b8ff" stroke="#63b8ff" points="294.63,-146.06 285.83,-140.16 289.03,-150.26 294.63,-146.06"/>
</a>
</g>
</g>
<!-- Node10 -->
<g id="Node000010" class="node">
<title>Node10</title>
<g id="a_Node000010"><a xlink:href="pipe__transport_8hpp.html" target="_top" xlink:title=" ">
<polygon fill="white" stroke="#666666" points="523.71,-140 400.71,-140 400.71,-110 523.71,-110 523.71,-140"/>
<text text-anchor="start" x="408.71" y="-128" font-family="Helvetica,sans-Serif" font-size="10.00">jsonrpc/transport/pipe</text>
<text text-anchor="middle" x="462.21" y="-117" font-family="Helvetica,sans-Serif" font-size="10.00">_transport.hpp</text>
</a>
</g>
</g>
<!-- Node2&#45;&gt;Node10 -->
<g id="edge10_Node000002_Node000010" class="edge">
<title>Node2&#45;&gt;Node10</title>
<g id="a_edge10_Node000002_Node000010"><a xlink:title=" ">
<path fill="none" stroke="#63b8ff" d="M353.71,-175.95C373.9,-166.66 400.58,-154.38 422.43,-144.32"/>
<polygon fill="#63b8ff" stroke="#63b8ff" points="424.16,-147.37 431.77,-140.01 421.23,-141.02 424.16,-147.37"/>
</a>
</g>
</g>
<!-- Node11 -->
<g id="Node000011" class="node">
<title>Node11</title>
<g id="a_Node000011"><a xlink:href="transport_8hpp.html" target="_top" xlink:title=" ">
<polygon fill="white" stroke="#666666" points="650.71,-74 483.71,-74 483.71,-55 650.71,-55 650.71,-74"/>
<text text-anchor="middle" x="567.21" y="-62" font-family="Helvetica,sans-Serif" font-size="10.00">jsonrpc/transport/transport.hpp</text>
</a>
</g>
</g>
<!-- Node2&#45;&gt;Node11 -->
<g id="edge15_Node000002_Node000011" class="edge">
<title>Node2&#45;&gt;Node11</title>
<g id="a_edge15_Node000002_Node000011"><a xlink:title=" ">
<path fill="none" stroke="#63b8ff" d="M391.9,-176.77C448.81,-165.29 522.1,-149.13 533.21,-140 550.41,-125.85 559.29,-101.12 563.6,-84.05"/>
<polygon fill="#63b8ff" stroke="#63b8ff" points="567.05,-84.66 565.8,-74.13 560.21,-83.14 567.05,-84.66"/>
</a>
</g>
</g>
<!-- Node6&#45;&gt;Node5 -->
<g id="edge8_Node000006_Node000005" class="edge">
<title>Node6&#45;&gt;Node5</title>
<g id="a_edge8_Node000006_Node000005"><a xlink:title=" ">
<path fill="none" stroke="#63b8ff" d="M213.47,-109.98C166.66,-98.72 109.21,-83.31 102.21,-74 66.32,-26.27 178.85,-14.42 236.87,-11.47"/>
<polygon fill="#63b8ff" stroke="#63b8ff" points="237.19,-14.96 247.02,-11.02 236.88,-7.97 237.19,-14.96"/>
</a>
</g>
</g>
<!-- Node7 -->
<g id="Node000007" class="node">
<title>Node7</title>
<g id="a_Node000007"><a xlink:title=" ">
<polygon fill="#e0e0e0" stroke="#999999" points="165.21,-74 111.21,-74 111.21,-55 165.21,-55 165.21,-74"/>
<text text-anchor="middle" x="138.21" y="-62" font-family="Helvetica,sans-Serif" font-size="10.00">istream</text>
</a>
</g>
</g>
<!-- Node6&#45;&gt;Node7 -->
<g id="edge6_Node000006_Node000007" class="edge">
<title>Node6&#45;&gt;Node7</title>
<g id="a_edge6_Node000006_Node000007"><a xlink:title=" ">
<path fill="none" stroke="#63b8ff" d="M242.39,-109.99C219.74,-100.31 189.86,-87.56 167.91,-78.18"/>
<polygon fill="#63b8ff" stroke="#63b8ff" points="169.01,-74.85 158.44,-74.14 166.26,-81.29 169.01,-74.85"/>
</a>
</g>
</g>
<!-- Node8 -->
<g id="Node000008" class="node">
<title>Node8</title>
<g id="a_Node000008"><a xlink:title=" ">
<polygon fill="#e0e0e0" stroke="#999999" points="240.71,-74 183.71,-74 183.71,-55 240.71,-55 240.71,-74"/>
<text text-anchor="middle" x="212.21" y="-62" font-family="Helvetica,sans-Serif" font-size="10.00">ostream</text>
</a>
</g>
</g>
<!-- Node6&#45;&gt;Node8 -->
<g id="edge7_Node000006_Node000008" class="edge">
<title>Node6&#45;&gt;Node8</title>
<g id="a_edge7_Node000006_Node000008"><a xlink:title=" ">
<path fill="none" stroke="#63b8ff" d="M259.96,-109.84C250.63,-101.17 238.67,-90.08 229.06,-81.15"/>
<polygon fill="#63b8ff" stroke="#63b8ff" points="231.36,-78.51 221.65,-74.27 226.59,-83.64 231.36,-78.51"/>
</a>
</g>
</g>
<!-- Node9 -->
<g id="Node000009" class="node">
<title>Node9</title>
<g id="a_Node000009"><a xlink:title=" ">
<polygon fill="#e0e0e0" stroke="#999999" points="351.71,-74 258.71,-74 258.71,-55 351.71,-55 351.71,-74"/>
<text text-anchor="middle" x="305.21" y="-62" font-family="Helvetica,sans-Serif" font-size="10.00">unordered_map</text>
</a>
</g>
</g>
<!-- Node6&#45;&gt;Node9 -->
<g id="edge9_Node000006_Node000009" class="edge">
<title>Node6&#45;&gt;Node9</title>
<g id="a_edge9_Node000006_Node000009"><a xlink:title=" ">
<path fill="none" stroke="#63b8ff" d="M282.47,-109.84C286.56,-101.87 291.7,-91.84 296.06,-83.33"/>
<polygon fill="#63b8ff" stroke="#63b8ff" points="299.26,-84.76 300.71,-74.27 293.03,-81.57 299.26,-84.76"/>
</a>
</g>
</g>
<!-- Node10&#45;&gt;Node3 -->
<g id="edge11_Node000010_Node000003" class="edge">
<title>Node10&#45;&gt;Node3</title>
<g id="a_edge11_Node000010_Node000003"><a xlink:title=" ">
<path fill="none" stroke="#63b8ff" d="M446.96,-109.84C437.63,-101.17 425.67,-90.08 416.06,-81.15"/>
<polygon fill="#63b8ff" stroke="#63b8ff" points="418.36,-78.51 408.65,-74.27 413.59,-83.64 418.36,-78.51"/>
</a>
</g>
</g>
<!-- Node10&#45;&gt;Node5 -->
<g id="edge12_Node000010_Node000005" class="edge">
<title>Node10&#45;&gt;Node5</title>
<g id="a_edge12_Node000010_Node000005"><a xlink:title=" ">
<path fill="none" stroke="#63b8ff" d="M460.94,-109.99C458.76,-94.35 452.91,-69.36 437.21,-55 399.73,-20.7 338.87,-12.27 301.61,-10.52"/>
<polygon fill="#63b8ff" stroke="#63b8ff" points="301.42,-7.01 291.3,-10.17 301.18,-14.01 301.42,-7.01"/>
</a>
</g>
</g>
<!-- Node10&#45;&gt;Node11 -->
<g id="edge13_Node000010_Node000011" class="edge">
<title>Node10&#45;&gt;Node11</title>
<g id="a_edge13_Node000010_Node000011"><a xlink:title=" ">
<path fill="none" stroke="#63b8ff" d="M487.36,-109.99C504.09,-100.66 525.98,-88.47 542.6,-79.21"/>
<polygon fill="#63b8ff" stroke="#63b8ff" points="544.67,-82.06 551.7,-74.14 541.26,-75.95 544.67,-82.06"/>
</a>
</g>
</g>
<!-- Node11&#45;&gt;Node5 -->
<g id="edge14_Node000011_Node000005" class="edge">
<title>Node11&#45;&gt;Node5</title>
<g id="a_edge14_Node000011_Node000005"><a xlink:title=" ">
<path fill="none" stroke="#63b8ff" d="M519.33,-54.98C458.22,-44.12 354.15,-25.61 301.6,-16.26"/>
<polygon fill="#63b8ff" stroke="#63b8ff" points="301.97,-12.77 291.51,-14.47 300.74,-19.66 301.97,-12.77"/>
</a>
</g>
</g>
</g>
</svg>
