<?xml version="1.0" encoding="UTF-8" standalone="no"?>
<!DOCTYPE svg PUBLIC "-//W3C//DTD SVG 1.1//EN"
 "http://www.w3.org/Graphics/SVG/1.1/DTD/svg11.dtd">
<!-- Generated by graphviz version 2.43.0 (0)
 -->
<!-- Title: include/jsonrpc/transport/framed_transport.hpp Pages: 1 -->
<svg width="468pt" height="170pt"
 viewBox="0.00 0.00 468.00 170.00" xmlns="http://www.w3.org/2000/svg" xmlns:xlink="http://www.w3.org/1999/xlink">
<g id="graph0" class="graph" transform="scale(1 1) rotate(0) translate(4 166)">
<title>include/jsonrpc/transport/framed_transport.hpp</title>
<!-- Node1 -->
<g id="Node000001" class="node">
<title>Node1</title>
<g id="a_Node000001"><a xlink:title=" ">
<polygon fill="#999999" stroke="#666666" points="316.5,-162 179.5,-162 179.5,-132 316.5,-132 316.5,-162"/>
<text text-anchor="start" x="187.5" y="-150" font-family="Helvetica,sans-Serif" font-size="10.00">include/jsonrpc/transport</text>
<text text-anchor="middle" x="248" y="-139" font-family="Helvetica,sans-Serif" font-size="10.00">/framed_transport.hpp</text>
</a>
</g>
</g>
<!-- Node2 -->
<g id="Node000002" class="node">
<title>Node2</title>
<g id="a_Node000002"><a xlink:href="framed__pipe__transport_8hpp.html" target="_top" xlink:title=" ">
<polygon fill="white" stroke="#666666" points="152,-96 0,-96 0,-66 152,-66 152,-96"/>
<text text-anchor="start" x="8" y="-84" font-family="Helvetica,sans-Serif" font-size="10.00">include/jsonrpc/transport</text>
<text text-anchor="middle" x="76" y="-73" font-family="Helvetica,sans-Serif" font-size="10.00">/framed_pipe_transport.hpp</text>
</a>
</g>
</g>
<!-- Node1&#45;&gt;Node2 -->
<g id="edge1_Node000001_Node000002" class="edge">
<title>Node1&#45;&gt;Node2</title>
<g id="a_edge1_Node000001_Node000002"><a xlink:title=" ">
<path fill="none" stroke="#63b8ff" d="M200.85,-128.46C173.41,-118.25 139.29,-105.55 113.66,-96.01"/>
<polygon fill="#63b8ff" stroke="#63b8ff" points="199.66,-131.75 210.25,-131.95 202.1,-125.19 199.66,-131.75"/>
</a>
</g>
</g>
<!-- Node4 -->
<g id="Node000004" class="node">
<title>Node4</title>
<g id="a_Node000004"><a xlink:href="framed__stdio__transport_8hpp.html" target="_top" xlink:title=" ">
<polygon fill="white" stroke="#666666" points="325.5,-96 170.5,-96 170.5,-66 325.5,-66 325.5,-96"/>
<text text-anchor="start" x="178.5" y="-84" font-family="Helvetica,sans-Serif" font-size="10.00">include/jsonrpc/transport</text>
<text text-anchor="middle" x="248" y="-73" font-family="Helvetica,sans-Serif" font-size="10.00">/framed_stdio_transport.hpp</text>
</a>
</g>
</g>
<!-- Node1&#45;&gt;Node4 -->
<g id="edge3_Node000001_Node000004" class="edge">
<title>Node1&#45;&gt;Node4</title>
<g id="a_edge3_Node000001_Node000004"><a xlink:title=" ">
<path fill="none" stroke="#63b8ff" d="M248,-121.54C248,-112.96 248,-103.61 248,-96.16"/>
<polygon fill="#63b8ff" stroke="#63b8ff" points="244.5,-121.8 248,-131.8 251.5,-121.8 244.5,-121.8"/>
</a>
</g>
</g>
<!-- Node6 -->
<g id="Node000006" class="node">
<title>Node6</title>
<g id="a_Node000006"><a xlink:href="framed__transport_8cpp.html" target="_top" xlink:title=" ">
<polygon fill="white" stroke="#666666" points="460,-96 344,-96 344,-66 460,-66 460,-96"/>
<text text-anchor="start" x="352" y="-84" font-family="Helvetica,sans-Serif" font-size="10.00">src/transport/framed</text>
<text text-anchor="middle" x="402" y="-73" font-family="Helvetica,sans-Serif" font-size="10.00">_transport.cpp</text>
</a>
</g>
</g>
<!-- Node1&#45;&gt;Node6 -->
<g id="edge5_Node000001_Node000006" class="edge">
<title>Node1&#45;&gt;Node6</title>
<g id="a_edge5_Node000001_Node000006"><a xlink:title=" ">
<path fill="none" stroke="#63b8ff" d="M291.18,-128.05C315.58,-117.91 345.63,-105.43 368.28,-96.01"/>
<polygon fill="#63b8ff" stroke="#63b8ff" points="289.69,-124.89 281.8,-131.95 292.37,-131.35 289.69,-124.89"/>
</a>
</g>
</g>
<!-- Node3 -->
<g id="Node000003" class="node">
<title>Node3</title>
<g id="a_Node000003"><a xlink:href="framed__pipe__transport_8cpp.html" target="_top" xlink:title=" ">
<polygon fill="white" stroke="#666666" points="134,-30 18,-30 18,0 134,0 134,-30"/>
<text text-anchor="start" x="26" y="-18" font-family="Helvetica,sans-Serif" font-size="10.00">src/transport/framed</text>
<text text-anchor="middle" x="76" y="-7" font-family="Helvetica,sans-Serif" font-size="10.00">_pipe_transport.cpp</text>
</a>
</g>
</g>
<!-- Node2&#45;&gt;Node3 -->
<g id="edge2_Node000002_Node000003" class="edge">
<title>Node2&#45;&gt;Node3</title>
<g id="a_edge2_Node000002_Node000003"><a xlink:title=" ">
<path fill="none" stroke="#63b8ff" d="M76,-55.54C76,-46.96 76,-37.61 76,-30.16"/>
<polygon fill="#63b8ff" stroke="#63b8ff" points="72.5,-55.8 76,-65.8 79.5,-55.8 72.5,-55.8"/>
</a>
</g>
</g>
<!-- Node5 -->
<g id="Node000005" class="node">
<title>Node5</title>
<g id="a_Node000005"><a xlink:href="framed__stdio__transport_8cpp.html" target="_top" xlink:title=" ">
<polygon fill="white" stroke="#666666" points="306,-30 190,-30 190,0 306,0 306,-30"/>
<text text-anchor="start" x="198" y="-18" font-family="Helvetica,sans-Serif" font-size="10.00">src/transport/framed</text>
<text text-anchor="middle" x="248" y="-7" font-family="Helvetica,sans-Serif" font-size="10.00">_stdio_transport.cpp</text>
</a>
</g>
</g>
<!-- Node4&#45;&gt;Node5 -->
<g id="edge4_Node000004_Node000005" class="edge">
<title>Node4&#45;&gt;Node5</title>
<g id="a_edge4_Node000004_Node000005"><a xlink:title=" ">
<path fill="none" stroke="#63b8ff" d="M248,-55.54C248,-46.96 248,-37.61 248,-30.16"/>
<polygon fill="#63b8ff" stroke="#63b8ff" points="244.5,-55.8 248,-65.8 251.5,-55.8 244.5,-55.8"/>
</a>
</g>
</g>
</g>
</svg>
