<?xml version="1.0" encoding="UTF-8" standalone="no"?>
<!DOCTYPE svg PUBLIC "-//W3C//DTD SVG 1.1//EN"
 "http://www.w3.org/Graphics/SVG/1.1/DTD/svg11.dtd">
<!-- Generated by graphviz version 2.43.0 (0)
 -->
<!-- Title: include/jsonrpc/transport/framed_pipe_transport.hpp Pages: 1 -->
<svg width="666pt" height="214pt"
 viewBox="0.00 0.00 665.55 214.00" xmlns="http://www.w3.org/2000/svg" xmlns:xlink="http://www.w3.org/1999/xlink">
<g id="graph0" class="graph" transform="scale(1 1) rotate(0) translate(4 210)">
<title>include/jsonrpc/transport/framed_pipe_transport.hpp</title>
<!-- Node1 -->
<g id="Node000001" class="node">
<title>Node1</title>
<g id="a_Node000001"><a xlink:title=" ">
<polygon fill="#999999" stroke="#666666" points="352.05,-206 200.05,-206 200.05,-176 352.05,-176 352.05,-206"/>
<text text-anchor="start" x="208.05" y="-194" font-family="Helvetica,sans-Serif" font-size="10.00">include/jsonrpc/transport</text>
<text text-anchor="middle" x="276.05" y="-183" font-family="Helvetica,sans-Serif" font-size="10.00">/framed_pipe_transport.hpp</text>
</a>
</g>
</g>
<!-- Node2 -->
<g id="Node000002" class="node">
<title>Node2</title>
<g id="a_Node000002"><a xlink:title=" ">
<polygon fill="#e0e0e0" stroke="#999999" points="435.05,-74 377.05,-74 377.05,-55 435.05,-55 435.05,-74"/>
<text text-anchor="middle" x="406.05" y="-62" font-family="Helvetica,sans-Serif" font-size="10.00">asio.hpp</text>
</a>
</g>
</g>
<!-- Node1&#45;&gt;Node2 -->
<g id="edge1_Node000001_Node000002" class="edge">
<title>Node1&#45;&gt;Node2</title>
<g id="a_edge1_Node000001_Node000002"><a xlink:title=" ">
<path fill="none" stroke="#63b8ff" d="M303.14,-175.8C318.77,-166.81 338.21,-154.23 353.05,-140 370.89,-122.9 386.63,-99.05 396.23,-82.98"/>
<polygon fill="#63b8ff" stroke="#63b8ff" points="399.39,-84.51 401.38,-74.11 393.33,-81 399.39,-84.51"/>
</a>
</g>
</g>
<!-- Node3 -->
<g id="Node000003" class="node">
<title>Node3</title>
<g id="a_Node000003"><a xlink:title=" ">
<polygon fill="#e0e0e0" stroke="#999999" points="189.55,-134.5 22.55,-134.5 22.55,-115.5 189.55,-115.5 189.55,-134.5"/>
<text text-anchor="middle" x="106.05" y="-122.5" font-family="Helvetica,sans-Serif" font-size="10.00">asio/local/stream_protocol.hpp</text>
</a>
</g>
</g>
<!-- Node1&#45;&gt;Node3 -->
<g id="edge2_Node000001_Node000003" class="edge">
<title>Node1&#45;&gt;Node3</title>
<g id="a_edge2_Node000001_Node000003"><a xlink:title=" ">
<path fill="none" stroke="#63b8ff" d="M238.74,-175.95C208.67,-164.63 166.81,-148.88 138.2,-138.1"/>
<polygon fill="#63b8ff" stroke="#63b8ff" points="139.27,-134.77 128.67,-134.52 136.8,-141.32 139.27,-134.77"/>
</a>
</g>
</g>
<!-- Node4 -->
<g id="Node000004" class="node">
<title>Node4</title>
<g id="a_Node000004"><a xlink:title=" ">
<polygon fill="#e0e0e0" stroke="#999999" points="298.05,-19 254.05,-19 254.05,0 298.05,0 298.05,-19"/>
<text text-anchor="middle" x="276.05" y="-7" font-family="Helvetica,sans-Serif" font-size="10.00">string</text>
</a>
</g>
</g>
<!-- Node1&#45;&gt;Node4 -->
<g id="edge3_Node000001_Node000004" class="edge">
<title>Node1&#45;&gt;Node4</title>
<g id="a_edge3_Node000001_Node000004"><a xlink:title=" ">
<path fill="none" stroke="#63b8ff" d="M199.9,-186.04C130.86,-180.66 36.43,-168.24 13.05,-140 -54.25,-58.7 160.07,-24.14 243.91,-13.94"/>
<polygon fill="#63b8ff" stroke="#63b8ff" points="244.4,-17.41 253.92,-12.76 243.58,-10.46 244.4,-17.41"/>
</a>
</g>
</g>
<!-- Node5 -->
<g id="Node000005" class="node">
<title>Node5</title>
<g id="a_Node000005"><a xlink:href="framed__transport_8hpp.html" target="_top" xlink:title=" ">
<polygon fill="white" stroke="#666666" points="344.55,-140 207.55,-140 207.55,-110 344.55,-110 344.55,-140"/>
<text text-anchor="start" x="215.55" y="-128" font-family="Helvetica,sans-Serif" font-size="10.00">jsonrpc/transport/framed</text>
<text text-anchor="middle" x="276.05" y="-117" font-family="Helvetica,sans-Serif" font-size="10.00">_transport.hpp</text>
</a>
</g>
</g>
<!-- Node1&#45;&gt;Node5 -->
<g id="edge4_Node000001_Node000005" class="edge">
<title>Node1&#45;&gt;Node5</title>
<g id="a_edge4_Node000001_Node000005"><a xlink:title=" ">
<path fill="none" stroke="#63b8ff" d="M276.05,-175.8C276.05,-168.34 276.05,-158.99 276.05,-150.41"/>
<polygon fill="#63b8ff" stroke="#63b8ff" points="279.55,-150.16 276.05,-140.16 272.55,-150.16 279.55,-150.16"/>
</a>
</g>
</g>
<!-- Node9 -->
<g id="Node000009" class="node">
<title>Node9</title>
<g id="a_Node000009"><a xlink:href="pipe__transport_8hpp.html" target="_top" xlink:title=" ">
<polygon fill="white" stroke="#666666" points="524.55,-140 401.55,-140 401.55,-110 524.55,-110 524.55,-140"/>
<text text-anchor="start" x="409.55" y="-128" font-family="Helvetica,sans-Serif" font-size="10.00">jsonrpc/transport/pipe</text>
<text text-anchor="middle" x="463.05" y="-117" font-family="Helvetica,sans-Serif" font-size="10.00">_transport.hpp</text>
</a>
</g>
</g>
<!-- Node1&#45;&gt;Node9 -->
<g id="edge9_Node000001_Node000009" class="edge">
<title>Node1&#45;&gt;Node9</title>
<g id="a_edge9_Node000001_Node000009"><a xlink:title=" ">
<path fill="none" stroke="#63b8ff" d="M317.09,-175.95C345.1,-166.37 382.4,-153.6 412.28,-143.37"/>
<polygon fill="#63b8ff" stroke="#63b8ff" points="413.78,-146.56 422.11,-140.01 411.51,-139.94 413.78,-146.56"/>
</a>
</g>
</g>
<!-- Node5&#45;&gt;Node4 -->
<g id="edge7_Node000005_Node000004" class="edge">
<title>Node5&#45;&gt;Node4</title>
<g id="a_edge7_Node000005_Node000004"><a xlink:title=" ">
<path fill="none" stroke="#63b8ff" d="M207.12,-111.93C166.69,-103.3 121.2,-90.33 109.05,-74 104.01,-67.23 103.91,-61.7 109.05,-55 125.35,-33.79 199.95,-20.54 243.74,-14.45"/>
<polygon fill="#63b8ff" stroke="#63b8ff" points="244.45,-17.88 253.89,-13.09 243.52,-10.95 244.45,-17.88"/>
</a>
</g>
</g>
<!-- Node6 -->
<g id="Node000006" class="node">
<title>Node6</title>
<g id="a_Node000006"><a xlink:title=" ">
<polygon fill="#e0e0e0" stroke="#999999" points="172.05,-74 118.05,-74 118.05,-55 172.05,-55 172.05,-74"/>
<text text-anchor="middle" x="145.05" y="-62" font-family="Helvetica,sans-Serif" font-size="10.00">istream</text>
</a>
</g>
</g>
<!-- Node5&#45;&gt;Node6 -->
<g id="edge5_Node000005_Node000006" class="edge">
<title>Node5&#45;&gt;Node6</title>
<g id="a_edge5_Node000005_Node000006"><a xlink:title=" ">
<path fill="none" stroke="#63b8ff" d="M244.67,-109.99C223.11,-100.36 194.7,-87.67 173.74,-78.31"/>
<polygon fill="#63b8ff" stroke="#63b8ff" points="174.95,-75.02 164.4,-74.14 172.1,-81.41 174.95,-75.02"/>
</a>
</g>
</g>
<!-- Node7 -->
<g id="Node000007" class="node">
<title>Node7</title>
<g id="a_Node000007"><a xlink:title=" ">
<polygon fill="#e0e0e0" stroke="#999999" points="247.55,-74 190.55,-74 190.55,-55 247.55,-55 247.55,-74"/>
<text text-anchor="middle" x="219.05" y="-62" font-family="Helvetica,sans-Serif" font-size="10.00">ostream</text>
</a>
</g>
</g>
<!-- Node5&#45;&gt;Node7 -->
<g id="edge6_Node000005_Node000007" class="edge">
<title>Node5&#45;&gt;Node7</title>
<g id="a_edge6_Node000005_Node000007"><a xlink:title=" ">
<path fill="none" stroke="#63b8ff" d="M262.25,-109.84C253.98,-101.35 243.43,-90.52 234.82,-81.69"/>
<polygon fill="#63b8ff" stroke="#63b8ff" points="237.08,-78.99 227.59,-74.27 232.06,-83.87 237.08,-78.99"/>
</a>
</g>
</g>
<!-- Node8 -->
<g id="Node000008" class="node">
<title>Node8</title>
<g id="a_Node000008"><a xlink:title=" ">
<polygon fill="#e0e0e0" stroke="#999999" points="358.55,-74 265.55,-74 265.55,-55 358.55,-55 358.55,-74"/>
<text text-anchor="middle" x="312.05" y="-62" font-family="Helvetica,sans-Serif" font-size="10.00">unordered_map</text>
</a>
</g>
</g>
<!-- Node5&#45;&gt;Node8 -->
<g id="edge8_Node000005_Node000008" class="edge">
<title>Node5&#45;&gt;Node8</title>
<g id="a_edge8_Node000005_Node000008"><a xlink:title=" ">
<path fill="none" stroke="#63b8ff" d="M284.77,-109.84C289.72,-101.78 295.98,-91.62 301.25,-83.06"/>
<polygon fill="#63b8ff" stroke="#63b8ff" points="304.4,-84.62 306.66,-74.27 298.43,-80.95 304.4,-84.62"/>
</a>
</g>
</g>
<!-- Node9&#45;&gt;Node2 -->
<g id="edge10_Node000009_Node000002" class="edge">
<title>Node9&#45;&gt;Node2</title>
<g id="a_edge10_Node000009_Node000002"><a xlink:title=" ">
<path fill="none" stroke="#63b8ff" d="M449.25,-109.84C440.98,-101.35 430.43,-90.52 421.82,-81.69"/>
<polygon fill="#63b8ff" stroke="#63b8ff" points="424.08,-78.99 414.59,-74.27 419.06,-83.87 424.08,-78.99"/>
</a>
</g>
</g>
<!-- Node9&#45;&gt;Node4 -->
<g id="edge11_Node000009_Node000004" class="edge">
<title>Node9&#45;&gt;Node4</title>
<g id="a_edge11_Node000009_Node000004"><a xlink:title=" ">
<path fill="none" stroke="#63b8ff" d="M463.09,-109.79C462.34,-94.22 458.71,-69.51 444.05,-55 407.85,-19.16 346.33,-11.24 308.63,-10"/>
<polygon fill="#63b8ff" stroke="#63b8ff" points="308.27,-6.49 298.21,-9.81 308.14,-13.49 308.27,-6.49"/>
</a>
</g>
</g>
<!-- Node10 -->
<g id="Node000010" class="node">
<title>Node10</title>
<g id="a_Node000010"><a xlink:href="transport_8hpp.html" target="_top" xlink:title=" ">
<polygon fill="white" stroke="#666666" points="657.55,-74 490.55,-74 490.55,-55 657.55,-55 657.55,-74"/>
<text text-anchor="middle" x="574.05" y="-62" font-family="Helvetica,sans-Serif" font-size="10.00">jsonrpc/transport/transport.hpp</text>
</a>
</g>
</g>
<!-- Node9&#45;&gt;Node10 -->
<g id="edge12_Node000009_Node000010" class="edge">
<title>Node9&#45;&gt;Node10</title>
<g id="a_edge12_Node000009_Node000010"><a xlink:title=" ">
<path fill="none" stroke="#63b8ff" d="M489.64,-109.99C507.5,-100.58 530.9,-88.24 548.53,-78.95"/>
<polygon fill="#63b8ff" stroke="#63b8ff" points="550.44,-81.9 557.66,-74.14 547.18,-75.71 550.44,-81.9"/>
</a>
</g>
</g>
<!-- Node10&#45;&gt;Node4 -->
<g id="edge13_Node000010_Node000004" class="edge">
<title>Node10&#45;&gt;Node4</title>
<g id="a_edge13_Node000010_Node000004"><a xlink:title=" ">
<path fill="none" stroke="#63b8ff" d="M526.17,-54.98C465.06,-44.12 360.99,-25.61 308.45,-16.26"/>
<polygon fill="#63b8ff" stroke="#63b8ff" points="308.81,-12.77 298.35,-14.47 307.58,-19.66 308.81,-12.77"/>
</a>
</g>
</g>
</g>
</svg>
