<?xml version="1.0" encoding="UTF-8" standalone="no"?>
<!DOCTYPE svg PUBLIC "-//W3C//DTD SVG 1.1//EN"
 "http://www.w3.org/Graphics/SVG/1.1/DTD/svg11.dtd">
<!-- Generated by graphviz version 2.43.0 (0)
 -->
<!-- Title: src/transport/framed_stdio_transport.cpp Pages: 1 -->
<svg width="721pt" height="225pt"
 viewBox="0.00 0.00 721.30 225.00" xmlns="http://www.w3.org/2000/svg" xmlns:xlink="http://www.w3.org/1999/xlink">
<g id="graph0" class="graph" transform="scale(1 1) rotate(0) translate(4 221)">
<title>src/transport/framed_stdio_transport.cpp</title>
<!-- Node1 -->
<g id="Node000001" class="node">
<title>Node1</title>
<g id="a_Node000001"><a xlink:title=" ">
<polygon fill="#999999" stroke="#666666" points="519.8,-217 403.8,-217 403.8,-187 519.8,-187 519.8,-217"/>
<text text-anchor="start" x="411.8" y="-205" font-family="Helvetica,sans-Serif" font-size="10.00">src/transport/framed</text>
<text text-anchor="middle" x="461.8" y="-194" font-family="Helvetica,sans-Serif" font-size="10.00">_stdio_transport.cpp</text>
</a>
</g>
</g>
<!-- Node2 -->
<g id="Node000002" class="node">
<title>Node2</title>
<g id="a_Node000002"><a xlink:href="framed__stdio__transport_8hpp.html" target="_top" xlink:title=" ">
<polygon fill="white" stroke="#666666" points="252.3,-151 115.3,-151 115.3,-121 252.3,-121 252.3,-151"/>
<text text-anchor="start" x="123.3" y="-139" font-family="Helvetica,sans-Serif" font-size="10.00">jsonrpc/transport/framed</text>
<text text-anchor="middle" x="183.8" y="-128" font-family="Helvetica,sans-Serif" font-size="10.00">_stdio_transport.hpp</text>
</a>
</g>
</g>
<!-- Node1&#45;&gt;Node2 -->
<g id="edge1_Node000001_Node000002" class="edge">
<title>Node1&#45;&gt;Node2</title>
<g id="a_edge1_Node000001_Node000002"><a xlink:title=" ">
<path fill="none" stroke="#63b8ff" d="M403.53,-187.58C360.21,-177.61 300.9,-163.96 254.81,-153.35"/>
<polygon fill="#63b8ff" stroke="#63b8ff" points="255.42,-149.9 244.89,-151.06 253.85,-156.72 255.42,-149.9"/>
</a>
</g>
</g>
<!-- Node7 -->
<g id="Node000007" class="node">
<title>Node7</title>
<g id="a_Node000007"><a xlink:title=" ">
<polygon fill="#e0e0e0" stroke="#999999" points="411.3,-19 318.3,-19 318.3,0 411.3,0 411.3,-19"/>
<text text-anchor="middle" x="364.8" y="-7" font-family="Helvetica,sans-Serif" font-size="10.00">unordered_map</text>
</a>
</g>
</g>
<!-- Node1&#45;&gt;Node7 -->
<g id="edge13_Node000001_Node000007" class="edge">
<title>Node1&#45;&gt;Node7</title>
<g id="a_edge13_Node000001_Node000007"><a xlink:title=" ">
<path fill="none" stroke="#63b8ff" d="M427.62,-186.9C412.07,-178.72 394.92,-166.85 384.8,-151 360.68,-113.22 360.75,-58.18 362.8,-29.49"/>
<polygon fill="#63b8ff" stroke="#63b8ff" points="366.31,-29.52 363.71,-19.25 359.34,-28.9 366.31,-29.52"/>
</a>
</g>
</g>
<!-- Node9 -->
<g id="Node000009" class="node">
<title>Node9</title>
<g id="a_Node000009"><a xlink:title=" ">
<polygon fill="#e0e0e0" stroke="#999999" points="453.8,-145.5 393.8,-145.5 393.8,-126.5 453.8,-126.5 453.8,-145.5"/>
<text text-anchor="middle" x="423.8" y="-133.5" font-family="Helvetica,sans-Serif" font-size="10.00">iostream</text>
</a>
</g>
</g>
<!-- Node1&#45;&gt;Node9 -->
<g id="edge10_Node000001_Node000009" class="edge">
<title>Node1&#45;&gt;Node9</title>
<g id="a_edge10_Node000001_Node000009"><a xlink:title=" ">
<path fill="none" stroke="#63b8ff" d="M453.37,-186.8C447.74,-177.31 440.29,-164.76 434.27,-154.63"/>
<polygon fill="#63b8ff" stroke="#63b8ff" points="437.17,-152.66 429.05,-145.84 431.15,-156.23 437.17,-152.66"/>
</a>
</g>
</g>
<!-- Node10 -->
<g id="Node000010" class="node">
<title>Node10</title>
<g id="a_Node000010"><a xlink:title=" ">
<polygon fill="#e0e0e0" stroke="#999999" points="527.8,-145.5 471.8,-145.5 471.8,-126.5 527.8,-126.5 527.8,-145.5"/>
<text text-anchor="middle" x="499.8" y="-133.5" font-family="Helvetica,sans-Serif" font-size="10.00">optional</text>
</a>
</g>
</g>
<!-- Node1&#45;&gt;Node10 -->
<g id="edge11_Node000001_Node000010" class="edge">
<title>Node1&#45;&gt;Node10</title>
<g id="a_edge11_Node000001_Node000010"><a xlink:title=" ">
<path fill="none" stroke="#63b8ff" d="M470.24,-186.8C475.87,-177.31 483.32,-164.76 489.33,-154.63"/>
<polygon fill="#63b8ff" stroke="#63b8ff" points="492.46,-156.23 494.55,-145.84 486.44,-152.66 492.46,-156.23"/>
</a>
</g>
</g>
<!-- Node11 -->
<g id="Node000011" class="node">
<title>Node11</title>
<g id="a_Node000011"><a xlink:title=" ">
<polygon fill="#e0e0e0" stroke="#999999" points="601.8,-145.5 545.8,-145.5 545.8,-126.5 601.8,-126.5 601.8,-145.5"/>
<text text-anchor="middle" x="573.8" y="-133.5" font-family="Helvetica,sans-Serif" font-size="10.00">sstream</text>
</a>
</g>
</g>
<!-- Node1&#45;&gt;Node11 -->
<g id="edge12_Node000001_Node000011" class="edge">
<title>Node1&#45;&gt;Node11</title>
<g id="a_edge12_Node000001_Node000011"><a xlink:title=" ">
<path fill="none" stroke="#63b8ff" d="M486.38,-186.95C505.33,-176.13 531.38,-161.24 550.1,-150.54"/>
<polygon fill="#63b8ff" stroke="#63b8ff" points="551.95,-153.52 558.9,-145.52 548.48,-147.44 551.95,-153.52"/>
</a>
</g>
</g>
<!-- Node12 -->
<g id="Node000012" class="node">
<title>Node12</title>
<g id="a_Node000012"><a xlink:title=" ">
<polygon fill="#e0e0e0" stroke="#999999" points="713.3,-145.5 620.3,-145.5 620.3,-126.5 713.3,-126.5 713.3,-145.5"/>
<text text-anchor="middle" x="666.8" y="-133.5" font-family="Helvetica,sans-Serif" font-size="10.00">spdlog/spdlog.h</text>
</a>
</g>
</g>
<!-- Node1&#45;&gt;Node12 -->
<g id="edge14_Node000001_Node000012" class="edge">
<title>Node1&#45;&gt;Node12</title>
<g id="a_edge14_Node000001_Node000012"><a xlink:title=" ">
<path fill="none" stroke="#63b8ff" d="M506.79,-186.95C543.69,-175.43 595.3,-159.32 629.83,-148.54"/>
<polygon fill="#63b8ff" stroke="#63b8ff" points="631.02,-151.84 639.52,-145.52 628.93,-145.16 631.02,-151.84"/>
</a>
</g>
</g>
<!-- Node3 -->
<g id="Node000003" class="node">
<title>Node3</title>
<g id="a_Node000003"><a xlink:title=" ">
<polygon fill="#e0e0e0" stroke="#999999" points="120.8,-19 76.8,-19 76.8,0 120.8,0 120.8,-19"/>
<text text-anchor="middle" x="98.8" y="-7" font-family="Helvetica,sans-Serif" font-size="10.00">string</text>
</a>
</g>
</g>
<!-- Node2&#45;&gt;Node3 -->
<g id="edge2_Node000002_Node000003" class="edge">
<title>Node2&#45;&gt;Node3</title>
<g id="a_edge2_Node000002_Node000003"><a xlink:title=" ">
<path fill="none" stroke="#63b8ff" d="M115.17,-124.45C70.97,-116.09 19.33,-102.84 5.8,-85 -2.25,-74.37 -1.3,-66.28 5.8,-55 19.09,-33.92 45.43,-22.6 66.69,-16.67"/>
<polygon fill="#63b8ff" stroke="#63b8ff" points="67.8,-20 76.65,-14.17 66.1,-13.21 67.8,-20"/>
</a>
</g>
</g>
<!-- Node4 -->
<g id="Node000004" class="node">
<title>Node4</title>
<g id="a_Node000004"><a xlink:href="framed__transport_8hpp.html" target="_top" xlink:title=" ">
<polygon fill="white" stroke="#666666" points="337.3,-85 200.3,-85 200.3,-55 337.3,-55 337.3,-85"/>
<text text-anchor="start" x="208.3" y="-73" font-family="Helvetica,sans-Serif" font-size="10.00">jsonrpc/transport/framed</text>
<text text-anchor="middle" x="268.8" y="-62" font-family="Helvetica,sans-Serif" font-size="10.00">_transport.hpp</text>
</a>
</g>
</g>
<!-- Node2&#45;&gt;Node4 -->
<g id="edge3_Node000002_Node000004" class="edge">
<title>Node2&#45;&gt;Node4</title>
<g id="a_edge3_Node000002_Node000004"><a xlink:title=" ">
<path fill="none" stroke="#63b8ff" d="M202.67,-120.8C214.22,-112.1 229.2,-100.82 241.97,-91.2"/>
<polygon fill="#63b8ff" stroke="#63b8ff" points="244.11,-93.98 249.99,-85.16 239.9,-88.38 244.11,-93.98"/>
</a>
</g>
</g>
<!-- Node8 -->
<g id="Node000008" class="node">
<title>Node8</title>
<g id="a_Node000008"><a xlink:href="transport_8hpp.html" target="_top" xlink:title=" ">
<polygon fill="white" stroke="#666666" points="182.3,-79.5 15.3,-79.5 15.3,-60.5 182.3,-60.5 182.3,-79.5"/>
<text text-anchor="middle" x="98.8" y="-67.5" font-family="Helvetica,sans-Serif" font-size="10.00">jsonrpc/transport/transport.hpp</text>
</a>
</g>
</g>
<!-- Node2&#45;&gt;Node8 -->
<g id="edge8_Node000002_Node000008" class="edge">
<title>Node2&#45;&gt;Node8</title>
<g id="a_edge8_Node000002_Node000008"><a xlink:title=" ">
<path fill="none" stroke="#63b8ff" d="M164.94,-120.8C151.17,-110.43 132.54,-96.4 118.57,-85.88"/>
<polygon fill="#63b8ff" stroke="#63b8ff" points="120.64,-83.06 110.55,-79.84 116.43,-88.66 120.64,-83.06"/>
</a>
</g>
</g>
<!-- Node4&#45;&gt;Node3 -->
<g id="edge6_Node000004_Node000003" class="edge">
<title>Node4&#45;&gt;Node3</title>
<g id="a_edge6_Node000004_Node000003"><a xlink:title=" ">
<path fill="none" stroke="#63b8ff" d="M228.08,-54.99C198.16,-44.69 158.09,-30.9 130.53,-21.42"/>
<polygon fill="#63b8ff" stroke="#63b8ff" points="131.58,-18.08 120.99,-18.13 129.3,-24.7 131.58,-18.08"/>
</a>
</g>
</g>
<!-- Node5 -->
<g id="Node000005" class="node">
<title>Node5</title>
<g id="a_Node000005"><a xlink:title=" ">
<polygon fill="#e0e0e0" stroke="#999999" points="222.8,-19 168.8,-19 168.8,0 222.8,0 222.8,-19"/>
<text text-anchor="middle" x="195.8" y="-7" font-family="Helvetica,sans-Serif" font-size="10.00">istream</text>
</a>
</g>
</g>
<!-- Node4&#45;&gt;Node5 -->
<g id="edge4_Node000004_Node000005" class="edge">
<title>Node4&#45;&gt;Node5</title>
<g id="a_edge4_Node000004_Node000005"><a xlink:title=" ">
<path fill="none" stroke="#63b8ff" d="M251.13,-54.84C240.1,-46 225.92,-34.63 214.67,-25.62"/>
<polygon fill="#63b8ff" stroke="#63b8ff" points="216.73,-22.79 206.74,-19.27 212.36,-28.25 216.73,-22.79"/>
</a>
</g>
</g>
<!-- Node6 -->
<g id="Node000006" class="node">
<title>Node6</title>
<g id="a_Node000006"><a xlink:title=" ">
<polygon fill="#e0e0e0" stroke="#999999" points="298.3,-19 241.3,-19 241.3,0 298.3,0 298.3,-19"/>
<text text-anchor="middle" x="269.8" y="-7" font-family="Helvetica,sans-Serif" font-size="10.00">ostream</text>
</a>
</g>
</g>
<!-- Node4&#45;&gt;Node6 -->
<g id="edge5_Node000004_Node000006" class="edge">
<title>Node4&#45;&gt;Node6</title>
<g id="a_edge5_Node000004_Node000006"><a xlink:title=" ">
<path fill="none" stroke="#63b8ff" d="M269.05,-54.84C269.18,-47.21 269.34,-37.7 269.48,-29.45"/>
<polygon fill="#63b8ff" stroke="#63b8ff" points="272.98,-29.32 269.65,-19.27 265.98,-29.2 272.98,-29.32"/>
</a>
</g>
</g>
<!-- Node4&#45;&gt;Node7 -->
<g id="edge7_Node000004_Node000007" class="edge">
<title>Node4&#45;&gt;Node7</title>
<g id="a_edge7_Node000004_Node000007"><a xlink:title=" ">
<path fill="none" stroke="#63b8ff" d="M292.04,-54.84C307.21,-45.6 326.91,-33.59 341.99,-24.4"/>
<polygon fill="#63b8ff" stroke="#63b8ff" points="343.98,-27.29 350.7,-19.09 340.34,-21.31 343.98,-27.29"/>
</a>
</g>
</g>
<!-- Node8&#45;&gt;Node3 -->
<g id="edge9_Node000008_Node000003" class="edge">
<title>Node8&#45;&gt;Node3</title>
<g id="a_edge9_Node000008_Node000003"><a xlink:title=" ">
<path fill="none" stroke="#63b8ff" d="M98.8,-60.37C98.8,-52.25 98.8,-39.81 98.8,-29.39"/>
<polygon fill="#63b8ff" stroke="#63b8ff" points="102.3,-29.17 98.8,-19.17 95.3,-29.17 102.3,-29.17"/>
</a>
</g>
</g>
</g>
</svg>
