<?xml version="1.0" encoding="UTF-8" standalone="no"?>
<!DOCTYPE svg PUBLIC "-//W3C//DTD SVG 1.1//EN"
 "http://www.w3.org/Graphics/SVG/1.1/DTD/svg11.dtd">
<!-- Generated by graphviz version 2.43.0 (0)
 -->
<!-- Title: src/transport/framed_stdio_transport.cpp Pages: 1 -->
<svg width="608pt" height="225pt"
 viewBox="0.00 0.00 608.45 225.00" xmlns="http://www.w3.org/2000/svg" xmlns:xlink="http://www.w3.org/1999/xlink">
<g id="graph0" class="graph" transform="scale(1 1) rotate(0) translate(4 221)">
<title>src/transport/framed_stdio_transport.cpp</title>
<!-- Node1 -->
<g id="Node000001" class="node">
<title>Node1</title>
<g id="a_Node000001"><a xlink:title=" ">
<polygon fill="#999999" stroke="#666666" points="370.95,-217 254.95,-217 254.95,-187 370.95,-187 370.95,-217"/>
<text text-anchor="start" x="262.95" y="-205" font-family="Helvetica,sans-Serif" font-size="10.00">src/transport/framed</text>
<text text-anchor="middle" x="312.95" y="-194" font-family="Helvetica,sans-Serif" font-size="10.00">_stdio_transport.cpp</text>
</a>
</g>
</g>
<!-- Node2 -->
<g id="Node000002" class="node">
<title>Node2</title>
<g id="a_Node000002"><a xlink:href="framed__stdio__transport_8hpp.html" target="_top" xlink:title=" ">
<polygon fill="white" stroke="#666666" points="151.45,-151 14.45,-151 14.45,-121 151.45,-121 151.45,-151"/>
<text text-anchor="start" x="22.45" y="-139" font-family="Helvetica,sans-Serif" font-size="10.00">jsonrpc/transport/framed</text>
<text text-anchor="middle" x="82.95" y="-128" font-family="Helvetica,sans-Serif" font-size="10.00">_stdio_transport.hpp</text>
</a>
</g>
</g>
<!-- Node1&#45;&gt;Node2 -->
<g id="edge1_Node000001_Node000002" class="edge">
<title>Node1&#45;&gt;Node2</title>
<g id="a_edge1_Node000001_Node000002"><a xlink:title=" ">
<path fill="none" stroke="#63b8ff" d="M262.47,-186.95C227.27,-177.16 180.14,-164.05 143,-153.71"/>
<polygon fill="#63b8ff" stroke="#63b8ff" points="143.88,-150.32 133.3,-151.01 142,-157.07 143.88,-150.32"/>
</a>
</g>
</g>
<!-- Node6 -->
<g id="Node000006" class="node">
<title>Node6</title>
<g id="a_Node000006"><a xlink:title=" ">
<polygon fill="#e0e0e0" stroke="#999999" points="229.95,-145.5 169.95,-145.5 169.95,-126.5 229.95,-126.5 229.95,-145.5"/>
<text text-anchor="middle" x="199.95" y="-133.5" font-family="Helvetica,sans-Serif" font-size="10.00">iostream</text>
</a>
</g>
</g>
<!-- Node1&#45;&gt;Node6 -->
<g id="edge7_Node000001_Node000006" class="edge">
<title>Node1&#45;&gt;Node6</title>
<g id="a_edge7_Node000001_Node000006"><a xlink:title=" ">
<path fill="none" stroke="#63b8ff" d="M288.15,-186.95C269.03,-176.13 242.75,-161.24 223.86,-150.54"/>
<polygon fill="#63b8ff" stroke="#63b8ff" points="225.41,-147.4 214.99,-145.52 221.96,-153.49 225.41,-147.4"/>
</a>
</g>
</g>
<!-- Node7 -->
<g id="Node000007" class="node">
<title>Node7</title>
<g id="a_Node000007"><a xlink:title=" ">
<polygon fill="#e0e0e0" stroke="#999999" points="303.95,-145.5 247.95,-145.5 247.95,-126.5 303.95,-126.5 303.95,-145.5"/>
<text text-anchor="middle" x="275.95" y="-133.5" font-family="Helvetica,sans-Serif" font-size="10.00">optional</text>
</a>
</g>
</g>
<!-- Node1&#45;&gt;Node7 -->
<g id="edge8_Node000001_Node000007" class="edge">
<title>Node1&#45;&gt;Node7</title>
<g id="a_edge8_Node000001_Node000007"><a xlink:title=" ">
<path fill="none" stroke="#63b8ff" d="M304.74,-186.8C299.25,-177.31 292,-164.76 286.14,-154.63"/>
<polygon fill="#63b8ff" stroke="#63b8ff" points="289.1,-152.75 281.06,-145.84 283.04,-156.25 289.1,-152.75"/>
</a>
</g>
</g>
<!-- Node8 -->
<g id="Node000008" class="node">
<title>Node8</title>
<g id="a_Node000008"><a xlink:title=" ">
<polygon fill="#e0e0e0" stroke="#999999" points="377.95,-145.5 321.95,-145.5 321.95,-126.5 377.95,-126.5 377.95,-145.5"/>
<text text-anchor="middle" x="349.95" y="-133.5" font-family="Helvetica,sans-Serif" font-size="10.00">sstream</text>
</a>
</g>
</g>
<!-- Node1&#45;&gt;Node8 -->
<g id="edge9_Node000001_Node000008" class="edge">
<title>Node1&#45;&gt;Node8</title>
<g id="a_edge9_Node000001_Node000008"><a xlink:title=" ">
<path fill="none" stroke="#63b8ff" d="M321.16,-186.8C326.64,-177.31 333.9,-164.76 339.75,-154.63"/>
<polygon fill="#63b8ff" stroke="#63b8ff" points="342.86,-156.25 344.83,-145.84 336.8,-152.75 342.86,-156.25"/>
</a>
</g>
</g>
<!-- Node9 -->
<g id="Node000009" class="node">
<title>Node9</title>
<g id="a_Node000009"><a xlink:title=" ">
<polygon fill="#e0e0e0" stroke="#999999" points="489.45,-145.5 396.45,-145.5 396.45,-126.5 489.45,-126.5 489.45,-145.5"/>
<text text-anchor="middle" x="442.95" y="-133.5" font-family="Helvetica,sans-Serif" font-size="10.00">unordered_map</text>
</a>
</g>
</g>
<!-- Node1&#45;&gt;Node9 -->
<g id="edge10_Node000001_Node000009" class="edge">
<title>Node1&#45;&gt;Node9</title>
<g id="a_edge10_Node000001_Node000009"><a xlink:title=" ">
<path fill="none" stroke="#63b8ff" d="M341.48,-186.95C363.87,-175.93 394.81,-160.7 416.62,-149.96"/>
<polygon fill="#63b8ff" stroke="#63b8ff" points="418.22,-153.07 425.65,-145.52 415.13,-146.79 418.22,-153.07"/>
</a>
</g>
</g>
<!-- Node10 -->
<g id="Node000010" class="node">
<title>Node10</title>
<g id="a_Node000010"><a xlink:title=" ">
<polygon fill="#e0e0e0" stroke="#999999" points="600.45,-145.5 507.45,-145.5 507.45,-126.5 600.45,-126.5 600.45,-145.5"/>
<text text-anchor="middle" x="553.95" y="-133.5" font-family="Helvetica,sans-Serif" font-size="10.00">spdlog/spdlog.h</text>
</a>
</g>
</g>
<!-- Node1&#45;&gt;Node10 -->
<g id="edge11_Node000001_Node000010" class="edge">
<title>Node1&#45;&gt;Node10</title>
<g id="a_edge11_Node000001_Node000010"><a xlink:title=" ">
<path fill="none" stroke="#63b8ff" d="M365.84,-186.95C409.78,-175.29 471.45,-158.91 512.03,-148.13"/>
<polygon fill="#63b8ff" stroke="#63b8ff" points="513.11,-151.47 521.87,-145.52 511.31,-144.7 513.11,-151.47"/>
</a>
</g>
</g>
<!-- Node3 -->
<g id="Node000003" class="node">
<title>Node3</title>
<g id="a_Node000003"><a xlink:title=" ">
<polygon fill="#e0e0e0" stroke="#999999" points="104.95,-19 60.95,-19 60.95,0 104.95,0 104.95,-19"/>
<text text-anchor="middle" x="82.95" y="-7" font-family="Helvetica,sans-Serif" font-size="10.00">string</text>
</a>
</g>
</g>
<!-- Node2&#45;&gt;Node3 -->
<g id="edge2_Node000002_Node000003" class="edge">
<title>Node2&#45;&gt;Node3</title>
<g id="a_edge2_Node000002_Node000003"><a xlink:title=" ">
<path fill="none" stroke="#63b8ff" d="M46.1,-120.98C30.46,-112.97 13.82,-101.23 4.95,-85 -1.45,-73.3 -1.75,-66.53 4.95,-55 14.9,-37.87 34.18,-26.78 51.09,-19.96"/>
<polygon fill="#63b8ff" stroke="#63b8ff" points="52.51,-23.16 60.68,-16.42 50.09,-16.6 52.51,-23.16"/>
</a>
</g>
</g>
<!-- Node4 -->
<g id="Node000004" class="node">
<title>Node4</title>
<g id="a_Node000004"><a xlink:href="framed__transport_8hpp.html" target="_top" xlink:title=" ">
<polygon fill="white" stroke="#666666" points="151.45,-85 14.45,-85 14.45,-55 151.45,-55 151.45,-85"/>
<text text-anchor="start" x="22.45" y="-73" font-family="Helvetica,sans-Serif" font-size="10.00">jsonrpc/transport/framed</text>
<text text-anchor="middle" x="82.95" y="-62" font-family="Helvetica,sans-Serif" font-size="10.00">_transport.hpp</text>
</a>
</g>
</g>
<!-- Node2&#45;&gt;Node4 -->
<g id="edge3_Node000002_Node000004" class="edge">
<title>Node2&#45;&gt;Node4</title>
<g id="a_edge3_Node000002_Node000004"><a xlink:title=" ">
<path fill="none" stroke="#63b8ff" d="M82.95,-120.8C82.95,-113.34 82.95,-103.99 82.95,-95.41"/>
<polygon fill="#63b8ff" stroke="#63b8ff" points="86.45,-95.16 82.95,-85.16 79.45,-95.16 86.45,-95.16"/>
</a>
</g>
</g>
<!-- Node5 -->
<g id="Node000005" class="node">
<title>Node5</title>
<g id="a_Node000005"><a xlink:href="transport_8hpp.html" target="_top" xlink:title=" ">
<polygon fill="white" stroke="#666666" points="336.45,-79.5 169.45,-79.5 169.45,-60.5 336.45,-60.5 336.45,-79.5"/>
<text text-anchor="middle" x="252.95" y="-67.5" font-family="Helvetica,sans-Serif" font-size="10.00">jsonrpc/transport/transport.hpp</text>
</a>
</g>
</g>
<!-- Node2&#45;&gt;Node5 -->
<g id="edge5_Node000002_Node000005" class="edge">
<title>Node2&#45;&gt;Node5</title>
<g id="a_edge5_Node000002_Node000005"><a xlink:title=" ">
<path fill="none" stroke="#63b8ff" d="M120.25,-120.95C150.33,-109.63 192.19,-93.88 220.8,-83.1"/>
<polygon fill="#63b8ff" stroke="#63b8ff" points="222.2,-86.32 230.32,-79.52 219.73,-79.77 222.2,-86.32"/>
</a>
</g>
</g>
<!-- Node4&#45;&gt;Node3 -->
<g id="edge4_Node000004_Node000003" class="edge">
<title>Node4&#45;&gt;Node3</title>
<g id="a_edge4_Node000004_Node000003"><a xlink:title=" ">
<path fill="none" stroke="#63b8ff" d="M82.95,-54.84C82.95,-47.21 82.95,-37.7 82.95,-29.45"/>
<polygon fill="#63b8ff" stroke="#63b8ff" points="86.45,-29.27 82.95,-19.27 79.45,-29.27 86.45,-29.27"/>
</a>
</g>
</g>
<!-- Node5&#45;&gt;Node3 -->
<g id="edge6_Node000005_Node000003" class="edge">
<title>Node5&#45;&gt;Node3</title>
<g id="a_edge6_Node000005_Node000003"><a xlink:title=" ">
<path fill="none" stroke="#63b8ff" d="M228.23,-60.49C198.18,-50.16 147.44,-32.69 114.57,-21.38"/>
<polygon fill="#63b8ff" stroke="#63b8ff" points="115.59,-18.03 104.99,-18.09 113.31,-24.65 115.59,-18.03"/>
</a>
</g>
</g>
</g>
</svg>
