<?xml version="1.0" encoding="UTF-8" standalone="no"?>
<!DOCTYPE svg PUBLIC "-//W3C//DTD SVG 1.1//EN"
 "http://www.w3.org/Graphics/SVG/1.1/DTD/svg11.dtd">
<!-- Generated by graphviz version 2.43.0 (0)
 -->
<!-- Title: src/transports/framed_transport.cpp Pages: 1 -->
<svg width="577pt" height="214pt"
 viewBox="0.00 0.00 577.00 214.00" xmlns="http://www.w3.org/2000/svg" xmlns:xlink="http://www.w3.org/1999/xlink">
<g id="graph0" class="graph" transform="scale(1 1) rotate(0) translate(4 210)">
<title>src/transports/framed_transport.cpp</title>
<!-- Node1 -->
<g id="Node000001" class="node">
<title>Node1</title>
<g id="a_Node000001"><a xlink:title=" ">
<polygon fill="#999999" stroke="#666666" points="213,-206 91,-206 91,-176 213,-176 213,-206"/>
<text text-anchor="start" x="99" y="-194" font-family="Helvetica,sans-Serif" font-size="10.00">src/transports/framed</text>
<text text-anchor="middle" x="152" y="-183" font-family="Helvetica,sans-Serif" font-size="10.00">_transport.cpp</text>
</a>
</g>
</g>
<!-- Node2 -->
<g id="Node000002" class="node">
<title>Node2</title>
<g id="a_Node000002"><a xlink:title=" ">
<polygon fill="#e0e0e0" stroke="#999999" points="60,-134.5 0,-134.5 0,-115.5 60,-115.5 60,-134.5"/>
<text text-anchor="middle" x="30" y="-122.5" font-family="Helvetica,sans-Serif" font-size="10.00">iostream</text>
</a>
</g>
</g>
<!-- Node1&#45;&gt;Node2 -->
<g id="edge1_Node000001_Node000002" class="edge">
<title>Node1&#45;&gt;Node2</title>
<g id="a_edge1_Node000001_Node000002"><a xlink:title=" ">
<path fill="none" stroke="#63b8ff" d="M125.23,-175.95C104.4,-165.03 75.69,-149.97 55.26,-139.25"/>
<polygon fill="#63b8ff" stroke="#63b8ff" points="56.72,-136.06 46.24,-134.52 53.47,-142.26 56.72,-136.06"/>
</a>
</g>
</g>
<!-- Node3 -->
<g id="Node000003" class="node">
<title>Node3</title>
<g id="a_Node000003"><a xlink:title=" ">
<polygon fill="#e0e0e0" stroke="#999999" points="134,-134.5 78,-134.5 78,-115.5 134,-115.5 134,-134.5"/>
<text text-anchor="middle" x="106" y="-122.5" font-family="Helvetica,sans-Serif" font-size="10.00">sstream</text>
</a>
</g>
</g>
<!-- Node1&#45;&gt;Node3 -->
<g id="edge2_Node000001_Node000003" class="edge">
<title>Node1&#45;&gt;Node3</title>
<g id="a_edge2_Node000001_Node000003"><a xlink:title=" ">
<path fill="none" stroke="#63b8ff" d="M141.79,-175.8C134.83,-166.11 125.58,-153.24 118.23,-143.01"/>
<polygon fill="#63b8ff" stroke="#63b8ff" points="121.04,-140.92 112.36,-134.84 115.35,-145.01 121.04,-140.92"/>
</a>
</g>
</g>
<!-- Node4 -->
<g id="Node000004" class="node">
<title>Node4</title>
<g id="a_Node000004"><a xlink:title=" ">
<polygon fill="#e0e0e0" stroke="#999999" points="245.5,-134.5 152.5,-134.5 152.5,-115.5 245.5,-115.5 245.5,-134.5"/>
<text text-anchor="middle" x="199" y="-122.5" font-family="Helvetica,sans-Serif" font-size="10.00">spdlog/spdlog.h</text>
</a>
</g>
</g>
<!-- Node1&#45;&gt;Node4 -->
<g id="edge3_Node000001_Node000004" class="edge">
<title>Node1&#45;&gt;Node4</title>
<g id="a_edge3_Node000001_Node000004"><a xlink:title=" ">
<path fill="none" stroke="#63b8ff" d="M162.43,-175.8C169.54,-166.11 179,-153.24 186.51,-143.01"/>
<polygon fill="#63b8ff" stroke="#63b8ff" points="189.41,-144.98 192.5,-134.84 183.76,-140.83 189.41,-144.98"/>
</a>
</g>
</g>
<!-- Node5 -->
<g id="Node000005" class="node">
<title>Node5</title>
<g id="a_Node000005"><a xlink:href="framed__transport_8hpp.html" target="_top" xlink:title=" ">
<polygon fill="white" stroke="#666666" points="388.5,-140 263.5,-140 263.5,-110 388.5,-110 388.5,-140"/>
<text text-anchor="start" x="271.5" y="-128" font-family="Helvetica,sans-Serif" font-size="10.00">json_rpc/transports</text>
<text text-anchor="middle" x="326" y="-117" font-family="Helvetica,sans-Serif" font-size="10.00">/framed_transport.hpp</text>
</a>
</g>
</g>
<!-- Node1&#45;&gt;Node5 -->
<g id="edge4_Node000001_Node000005" class="edge">
<title>Node1&#45;&gt;Node5</title>
<g id="a_edge4_Node000001_Node000005"><a xlink:title=" ">
<path fill="none" stroke="#63b8ff" d="M190.19,-175.95C216.14,-166.41 250.66,-153.71 278.4,-143.51"/>
<polygon fill="#63b8ff" stroke="#63b8ff" points="279.73,-146.75 287.9,-140.01 277.31,-140.18 279.73,-146.75"/>
</a>
</g>
</g>
<!-- Node6 -->
<g id="Node000006" class="node">
<title>Node6</title>
<g id="a_Node000006"><a xlink:title=" ">
<polygon fill="#e0e0e0" stroke="#999999" points="295,-74 251,-74 251,-55 295,-55 295,-74"/>
<text text-anchor="middle" x="273" y="-62" font-family="Helvetica,sans-Serif" font-size="10.00">string</text>
</a>
</g>
</g>
<!-- Node5&#45;&gt;Node6 -->
<g id="edge5_Node000005_Node000006" class="edge">
<title>Node5&#45;&gt;Node6</title>
<g id="a_edge5_Node000005_Node000006"><a xlink:title=" ">
<path fill="none" stroke="#63b8ff" d="M313.17,-109.84C305.48,-101.35 295.67,-90.52 287.67,-81.69"/>
<polygon fill="#63b8ff" stroke="#63b8ff" points="290.25,-79.33 280.94,-74.27 285.06,-84.03 290.25,-79.33"/>
</a>
</g>
</g>
<!-- Node7 -->
<g id="Node000007" class="node">
<title>Node7</title>
<g id="a_Node000007"><a xlink:href="types_8hpp.html" target="_top" xlink:title=" ">
<polygon fill="white" stroke="#666666" points="445,-74 313,-74 313,-55 445,-55 445,-74"/>
<text text-anchor="middle" x="379" y="-62" font-family="Helvetica,sans-Serif" font-size="10.00">json_rpc/core/types.hpp</text>
</a>
</g>
</g>
<!-- Node5&#45;&gt;Node7 -->
<g id="edge6_Node000005_Node000007" class="edge">
<title>Node5&#45;&gt;Node7</title>
<g id="a_edge6_Node000005_Node000007"><a xlink:title=" ">
<path fill="none" stroke="#63b8ff" d="M338.83,-109.84C346.52,-101.35 356.33,-90.52 364.33,-81.69"/>
<polygon fill="#63b8ff" stroke="#63b8ff" points="366.94,-84.03 371.06,-74.27 361.75,-79.33 366.94,-84.03"/>
</a>
</g>
</g>
<!-- Node8 -->
<g id="Node000008" class="node">
<title>Node8</title>
<g id="a_Node000008"><a xlink:title=" ">
<polygon fill="#e0e0e0" stroke="#999999" points="296.5,-19 231.5,-19 231.5,0 296.5,0 296.5,-19"/>
<text text-anchor="middle" x="264" y="-7" font-family="Helvetica,sans-Serif" font-size="10.00">functional</text>
</a>
</g>
</g>
<!-- Node7&#45;&gt;Node8 -->
<g id="edge7_Node000007_Node000008" class="edge">
<title>Node7&#45;&gt;Node8</title>
<g id="a_edge7_Node000007_Node000008"><a xlink:title=" ">
<path fill="none" stroke="#63b8ff" d="M360.52,-54.98C342.02,-46.46 313.32,-33.23 292.02,-23.41"/>
<polygon fill="#63b8ff" stroke="#63b8ff" points="293.36,-20.18 282.81,-19.17 290.43,-26.53 293.36,-20.18"/>
</a>
</g>
</g>
<!-- Node9 -->
<g id="Node000009" class="node">
<title>Node9</title>
<g id="a_Node000009"><a xlink:title=" ">
<polygon fill="#e0e0e0" stroke="#999999" points="371,-19 315,-19 315,0 371,0 371,-19"/>
<text text-anchor="middle" x="343" y="-7" font-family="Helvetica,sans-Serif" font-size="10.00">optional</text>
</a>
</g>
</g>
<!-- Node7&#45;&gt;Node9 -->
<g id="edge8_Node000007_Node000009" class="edge">
<title>Node7&#45;&gt;Node9</title>
<g id="a_edge8_Node000007_Node000009"><a xlink:title=" ">
<path fill="none" stroke="#63b8ff" d="M373.06,-54.75C368.02,-47.34 360.66,-36.5 354.49,-27.41"/>
<polygon fill="#63b8ff" stroke="#63b8ff" points="357.35,-25.39 348.83,-19.09 351.56,-29.33 357.35,-25.39"/>
</a>
</g>
</g>
<!-- Node10 -->
<g id="Node000010" class="node">
<title>Node10</title>
<g id="a_Node000010"><a xlink:title=" ">
<polygon fill="#e0e0e0" stroke="#999999" points="440.5,-19 389.5,-19 389.5,0 440.5,0 440.5,-19"/>
<text text-anchor="middle" x="415" y="-7" font-family="Helvetica,sans-Serif" font-size="10.00">variant</text>
</a>
</g>
</g>
<!-- Node7&#45;&gt;Node10 -->
<g id="edge9_Node000007_Node000010" class="edge">
<title>Node7&#45;&gt;Node10</title>
<g id="a_edge9_Node000007_Node000010"><a xlink:title=" ">
<path fill="none" stroke="#63b8ff" d="M384.94,-54.75C389.98,-47.34 397.34,-36.5 403.51,-27.41"/>
<polygon fill="#63b8ff" stroke="#63b8ff" points="406.44,-29.33 409.17,-19.09 400.65,-25.39 406.44,-29.33"/>
</a>
</g>
</g>
<!-- Node11 -->
<g id="Node000011" class="node">
<title>Node11</title>
<g id="a_Node000011"><a xlink:title=" ">
<polygon fill="#e0e0e0" stroke="#999999" points="569,-19 459,-19 459,0 569,0 569,-19"/>
<text text-anchor="middle" x="514" y="-7" font-family="Helvetica,sans-Serif" font-size="10.00">nlohmann/json.hpp</text>
</a>
</g>
</g>
<!-- Node7&#45;&gt;Node11 -->
<g id="edge10_Node000007_Node000011" class="edge">
<title>Node7&#45;&gt;Node11</title>
<g id="a_edge10_Node000007_Node000011"><a xlink:title=" ">
<path fill="none" stroke="#63b8ff" d="M400.69,-54.98C422.8,-46.3 457.32,-32.75 482.45,-22.88"/>
<polygon fill="#63b8ff" stroke="#63b8ff" points="483.89,-26.08 491.92,-19.17 481.33,-19.57 483.89,-26.08"/>
</a>
</g>
</g>
</g>
</svg>
