<?xml version="1.0" encoding="UTF-8" standalone="no"?>
<!DOCTYPE svg PUBLIC "-//W3C//DTD SVG 1.1//EN"
 "http://www.w3.org/Graphics/SVG/1.1/DTD/svg11.dtd">
<!-- Generated by graphviz version 2.43.0 (0)
 -->
<!-- Title: include/jsonrpc/server/transports/framed_stdio_server_transport.hpp Pages: 1 -->
<svg width="1037pt" height="280pt"
 viewBox="0.00 0.00 1036.50 280.00" xmlns="http://www.w3.org/2000/svg" xmlns:xlink="http://www.w3.org/1999/xlink">
<g id="graph0" class="graph" transform="scale(1 1) rotate(0) translate(4 276)">
<title>include/jsonrpc/server/transports/framed_stdio_server_transport.hpp</title>
<!-- Node1 -->
<g id="Node000001" class="node">
<title>Node1</title>
<g id="a_Node000001"><a xlink:title=" ">
<polygon fill="#999999" stroke="#666666" points="246.5,-272 109.5,-272 109.5,-231 246.5,-231 246.5,-272"/>
<text text-anchor="start" x="117.5" y="-260" font-family="Helvetica,sans-Serif" font-size="10.00">include/jsonrpc/server</text>
<text text-anchor="start" x="117.5" y="-249" font-family="Helvetica,sans-Serif" font-size="10.00">/transports/framed_stdio</text>
<text text-anchor="middle" x="178" y="-238" font-family="Helvetica,sans-Serif" font-size="10.00">_server_transport.hpp</text>
</a>
</g>
</g>
<!-- Node2 -->
<g id="Node000002" class="node">
<title>Node2</title>
<g id="a_Node000002"><a xlink:title=" ">
<polygon fill="#e0e0e0" stroke="#999999" points="238,-19 194,-19 194,0 238,0 238,-19"/>
<text text-anchor="middle" x="216" y="-7" font-family="Helvetica,sans-Serif" font-size="10.00">string</text>
</a>
</g>
</g>
<!-- Node1&#45;&gt;Node2 -->
<g id="edge1_Node000001_Node000002" class="edge">
<title>Node1&#45;&gt;Node2</title>
<g id="a_edge1_Node000001_Node000002"><a xlink:title=" ">
<path fill="none" stroke="#63b8ff" d="M181.11,-230.86C188.28,-185.55 205.92,-74.16 212.99,-29.49"/>
<polygon fill="#63b8ff" stroke="#63b8ff" points="216.48,-29.85 214.59,-19.43 209.57,-28.75 216.48,-29.85"/>
</a>
</g>
</g>
<!-- Node3 -->
<g id="Node000003" class="node">
<title>Node3</title>
<g id="a_Node000003"><a xlink:href="framed__transport_8hpp.html" target="_top" xlink:title=" ">
<polygon fill="white" stroke="#666666" points="150,-195 0,-195 0,-165 150,-165 150,-195"/>
<text text-anchor="start" x="8" y="-183" font-family="Helvetica,sans-Serif" font-size="10.00">jsonrpc/common/transports</text>
<text text-anchor="middle" x="75" y="-172" font-family="Helvetica,sans-Serif" font-size="10.00">/framed_transport.hpp</text>
</a>
</g>
</g>
<!-- Node1&#45;&gt;Node3 -->
<g id="edge2_Node000001_Node000003" class="edge">
<title>Node1&#45;&gt;Node3</title>
<g id="a_edge2_Node000001_Node000003"><a xlink:title=" ">
<path fill="none" stroke="#63b8ff" d="M149.03,-230.96C135.04,-221.51 118.28,-210.2 104.25,-200.74"/>
<polygon fill="#63b8ff" stroke="#63b8ff" points="106.16,-197.8 95.92,-195.11 102.25,-203.61 106.16,-197.8"/>
</a>
</g>
</g>
<!-- Node4 -->
<g id="Node000004" class="node">
<title>Node4</title>
<g id="a_Node000004"><a xlink:href="server__transport_8hpp.html" target="_top" xlink:title=" ">
<polygon fill="white" stroke="#666666" points="582,-195 444,-195 444,-165 582,-165 582,-195"/>
<text text-anchor="start" x="452" y="-183" font-family="Helvetica,sans-Serif" font-size="10.00">jsonrpc/server/transports</text>
<text text-anchor="middle" x="513" y="-172" font-family="Helvetica,sans-Serif" font-size="10.00">/server_transport.hpp</text>
</a>
</g>
</g>
<!-- Node1&#45;&gt;Node4 -->
<g id="edge4_Node000001_Node000004" class="edge">
<title>Node1&#45;&gt;Node4</title>
<g id="a_edge4_Node000001_Node000004"><a xlink:title=" ">
<path fill="none" stroke="#63b8ff" d="M246.6,-236.27C301.41,-224.9 378.22,-208.96 435.29,-197.12"/>
<polygon fill="#63b8ff" stroke="#63b8ff" points="436.27,-200.49 445.35,-195.03 434.85,-193.64 436.27,-200.49"/>
</a>
</g>
</g>
<!-- Node3&#45;&gt;Node2 -->
<g id="edge3_Node000003_Node000002" class="edge">
<title>Node3&#45;&gt;Node2</title>
<g id="a_edge3_Node000003_Node000002"><a xlink:title=" ">
<path fill="none" stroke="#63b8ff" d="M83.61,-164.79C98.45,-140.84 130.49,-91.5 164,-55 173.79,-44.33 186.05,-33.74 196.2,-25.56"/>
<polygon fill="#63b8ff" stroke="#63b8ff" points="198.44,-28.25 204.13,-19.32 194.11,-22.75 198.44,-28.25"/>
</a>
</g>
</g>
<!-- Node5 -->
<g id="Node000005" class="node">
<title>Node5</title>
<g id="a_Node000005"><a xlink:title=" ">
<polygon fill="#e0e0e0" stroke="#999999" points="725,-129 675,-129 675,-110 725,-110 725,-129"/>
<text text-anchor="middle" x="700" y="-117" font-family="Helvetica,sans-Serif" font-size="10.00">atomic</text>
</a>
</g>
</g>
<!-- Node4&#45;&gt;Node5 -->
<g id="edge5_Node000004_Node000005" class="edge">
<title>Node4&#45;&gt;Node5</title>
<g id="a_edge5_Node000004_Node000005"><a xlink:title=" ">
<path fill="none" stroke="#63b8ff" d="M557.79,-164.99C590.7,-154.69 634.78,-140.9 665.09,-131.42"/>
<polygon fill="#63b8ff" stroke="#63b8ff" points="666.31,-134.71 674.81,-128.38 664.22,-128.03 666.31,-134.71"/>
</a>
</g>
</g>
<!-- Node6 -->
<g id="Node000006" class="node">
<title>Node6</title>
<g id="a_Node000006"><a xlink:title=" ">
<polygon fill="#e0e0e0" stroke="#999999" points="479,-129 421,-129 421,-110 479,-110 479,-129"/>
<text text-anchor="middle" x="450" y="-117" font-family="Helvetica,sans-Serif" font-size="10.00">memory</text>
</a>
</g>
</g>
<!-- Node4&#45;&gt;Node6 -->
<g id="edge6_Node000004_Node000006" class="edge">
<title>Node4&#45;&gt;Node6</title>
<g id="a_edge6_Node000004_Node000006"><a xlink:title=" ">
<path fill="none" stroke="#63b8ff" d="M497.75,-164.84C488.42,-156.17 476.47,-145.08 466.85,-136.15"/>
<polygon fill="#63b8ff" stroke="#63b8ff" points="469.15,-133.51 459.44,-129.27 464.39,-138.64 469.15,-133.51"/>
</a>
</g>
</g>
<!-- Node7 -->
<g id="Node000007" class="node">
<title>Node7</title>
<g id="a_Node000007"><a xlink:href="dispatcher_8hpp.html" target="_top" xlink:title=" ">
<polygon fill="white" stroke="#666666" points="657,-129 497,-129 497,-110 657,-110 657,-129"/>
<text text-anchor="middle" x="577" y="-117" font-family="Helvetica,sans-Serif" font-size="10.00">jsonrpc/server/dispatcher.hpp</text>
</a>
</g>
</g>
<!-- Node4&#45;&gt;Node7 -->
<g id="edge7_Node000004_Node000007" class="edge">
<title>Node4&#45;&gt;Node7</title>
<g id="a_edge7_Node000004_Node000007"><a xlink:title=" ">
<path fill="none" stroke="#63b8ff" d="M528.49,-164.84C537.97,-156.17 550.11,-145.08 559.88,-136.15"/>
<polygon fill="#63b8ff" stroke="#63b8ff" points="562.39,-138.6 567.41,-129.27 557.67,-133.43 562.39,-138.6"/>
</a>
</g>
</g>
<!-- Node7&#45;&gt;Node2 -->
<g id="edge9_Node000007_Node000002" class="edge">
<title>Node7&#45;&gt;Node2</title>
<g id="a_edge9_Node000007_Node000002"><a xlink:title=" ">
<path fill="none" stroke="#63b8ff" d="M496.86,-110.23C411.12,-100.89 284.71,-85.48 265,-74 246.82,-63.4 233.03,-43.19 224.78,-28.4"/>
<polygon fill="#63b8ff" stroke="#63b8ff" points="227.71,-26.46 219.97,-19.22 221.51,-29.7 227.71,-26.46"/>
</a>
</g>
</g>
<!-- Node8 -->
<g id="Node000008" class="node">
<title>Node8</title>
<g id="a_Node000008"><a xlink:title=" ">
<polygon fill="#e0e0e0" stroke="#999999" points="592,-19 536,-19 536,0 592,0 592,-19"/>
<text text-anchor="middle" x="564" y="-7" font-family="Helvetica,sans-Serif" font-size="10.00">optional</text>
</a>
</g>
</g>
<!-- Node7&#45;&gt;Node8 -->
<g id="edge8_Node000007_Node000008" class="edge">
<title>Node7&#45;&gt;Node8</title>
<g id="a_edge8_Node000007_Node000008"><a xlink:title=" ">
<path fill="none" stroke="#63b8ff" d="M586.87,-109.65C599.11,-97.54 617.37,-75.05 609,-55 604.14,-43.36 594.58,-33.2 585.52,-25.55"/>
<polygon fill="#63b8ff" stroke="#63b8ff" points="587.52,-22.67 577.49,-19.25 583.2,-28.17 587.52,-22.67"/>
</a>
</g>
</g>
<!-- Node9 -->
<g id="Node000009" class="node">
<title>Node9</title>
<g id="a_Node000009"><a xlink:title=" ">
<polygon fill="#e0e0e0" stroke="#999999" points="377.5,-19 284.5,-19 284.5,0 377.5,0 377.5,-19"/>
<text text-anchor="middle" x="331" y="-7" font-family="Helvetica,sans-Serif" font-size="10.00">unordered_map</text>
</a>
</g>
</g>
<!-- Node7&#45;&gt;Node9 -->
<g id="edge10_Node000007_Node000009" class="edge">
<title>Node7&#45;&gt;Node9</title>
<g id="a_edge10_Node000007_Node000009"><a xlink:title=" ">
<path fill="none" stroke="#63b8ff" d="M501.95,-109.98C414.37,-99.68 280.48,-82.65 273,-74 257.88,-56.5 282.28,-36.94 303.92,-24.21"/>
<polygon fill="#63b8ff" stroke="#63b8ff" points="305.87,-27.13 312.9,-19.2 302.46,-21.01 305.87,-27.13"/>
</a>
</g>
</g>
<!-- Node10 -->
<g id="Node000010" class="node">
<title>Node10</title>
<g id="a_Node000010"><a xlink:title=" ">
<polygon fill="#e0e0e0" stroke="#999999" points="703.5,-74 656.5,-74 656.5,-55 703.5,-55 703.5,-74"/>
<text text-anchor="middle" x="680" y="-62" font-family="Helvetica,sans-Serif" font-size="10.00">vector</text>
</a>
</g>
</g>
<!-- Node7&#45;&gt;Node10 -->
<g id="edge11_Node000007_Node000010" class="edge">
<title>Node7&#45;&gt;Node10</title>
<g id="a_edge11_Node000007_Node000010"><a xlink:title=" ">
<path fill="none" stroke="#63b8ff" d="M593.55,-109.98C609.89,-101.57 635.13,-88.59 654.13,-78.81"/>
<polygon fill="#63b8ff" stroke="#63b8ff" points="655.86,-81.86 663.15,-74.17 652.66,-75.63 655.86,-81.86"/>
</a>
</g>
</g>
<!-- Node11 -->
<g id="Node000011" class="node">
<title>Node11</title>
<g id="a_Node000011"><a xlink:title=" ">
<polygon fill="#e0e0e0" stroke="#999999" points="834.5,-74 721.5,-74 721.5,-55 834.5,-55 834.5,-74"/>
<text text-anchor="middle" x="778" y="-62" font-family="Helvetica,sans-Serif" font-size="10.00">BS_thread_pool.hpp</text>
</a>
</g>
</g>
<!-- Node7&#45;&gt;Node11 -->
<g id="edge12_Node000007_Node000011" class="edge">
<title>Node7&#45;&gt;Node11</title>
<g id="a_edge12_Node000007_Node000011"><a xlink:title=" ">
<path fill="none" stroke="#63b8ff" d="M609.29,-109.98C643.62,-100.93 698.06,-86.58 735.77,-76.64"/>
<polygon fill="#63b8ff" stroke="#63b8ff" points="736.68,-80.02 745.45,-74.08 734.89,-73.25 736.68,-80.02"/>
</a>
</g>
</g>
<!-- Node12 -->
<g id="Node000012" class="node">
<title>Node12</title>
<g id="a_Node000012"><a xlink:title=" ">
<polygon fill="#e0e0e0" stroke="#999999" points="796,-19 686,-19 686,0 796,0 796,-19"/>
<text text-anchor="middle" x="741" y="-7" font-family="Helvetica,sans-Serif" font-size="10.00">nlohmann/json.hpp</text>
</a>
</g>
</g>
<!-- Node7&#45;&gt;Node12 -->
<g id="edge13_Node000007_Node000012" class="edge">
<title>Node7&#45;&gt;Node12</title>
<g id="a_edge13_Node000007_Node000012"><a xlink:title=" ">
<path fill="none" stroke="#63b8ff" d="M657.05,-110.39C731.22,-102.05 831.89,-88.3 844,-74 864.35,-49.97 825.55,-32.31 789.9,-21.8"/>
<polygon fill="#63b8ff" stroke="#63b8ff" points="790.55,-18.35 779.97,-19.02 788.66,-25.09 790.55,-18.35"/>
</a>
</g>
</g>
<!-- Node13 -->
<g id="Node000013" class="node">
<title>Node13</title>
<g id="a_Node000013"><a xlink:href="server_2request_8hpp.html" target="_top" xlink:title=" ">
<polygon fill="white" stroke="#666666" points="600,-74 454,-74 454,-55 600,-55 600,-74"/>
<text text-anchor="middle" x="527" y="-62" font-family="Helvetica,sans-Serif" font-size="10.00">jsonrpc/server/request.hpp</text>
</a>
</g>
</g>
<!-- Node7&#45;&gt;Node13 -->
<g id="edge14_Node000007_Node000013" class="edge">
<title>Node7&#45;&gt;Node13</title>
<g id="a_edge14_Node000007_Node000013"><a xlink:title=" ">
<path fill="none" stroke="#63b8ff" d="M568.74,-109.75C561.54,-102.11 550.89,-90.82 542.15,-81.56"/>
<polygon fill="#63b8ff" stroke="#63b8ff" points="544.51,-78.96 535.1,-74.09 539.42,-83.76 544.51,-78.96"/>
</a>
</g>
</g>
<!-- Node14 -->
<g id="Node000014" class="node">
<title>Node14</title>
<g id="a_Node000014"><a xlink:href="response_8hpp.html" target="_top" xlink:title=" ">
<polygon fill="white" stroke="#666666" points="436,-74 282,-74 282,-55 436,-55 436,-74"/>
<text text-anchor="middle" x="359" y="-62" font-family="Helvetica,sans-Serif" font-size="10.00">jsonrpc/server/response.hpp</text>
</a>
</g>
</g>
<!-- Node7&#45;&gt;Node14 -->
<g id="edge18_Node000007_Node000014" class="edge">
<title>Node7&#45;&gt;Node14</title>
<g id="a_edge18_Node000007_Node000014"><a xlink:title=" ">
<path fill="none" stroke="#63b8ff" d="M541.97,-109.98C504.5,-100.87 444.95,-86.4 404.02,-76.45"/>
<polygon fill="#63b8ff" stroke="#63b8ff" points="404.84,-73.04 394.3,-74.08 403.19,-79.85 404.84,-73.04"/>
</a>
</g>
</g>
<!-- Node15 -->
<g id="Node000015" class="node">
<title>Node15</title>
<g id="a_Node000015"><a xlink:href="types_8hpp.html" target="_top" xlink:title=" ">
<polygon fill="white" stroke="#666666" points="1028.5,-74 891.5,-74 891.5,-55 1028.5,-55 1028.5,-74"/>
<text text-anchor="middle" x="960" y="-62" font-family="Helvetica,sans-Serif" font-size="10.00">jsonrpc/server/types.hpp</text>
</a>
</g>
</g>
<!-- Node7&#45;&gt;Node15 -->
<g id="edge23_Node000007_Node000015" class="edge">
<title>Node7&#45;&gt;Node15</title>
<g id="a_edge23_Node000007_Node000015"><a xlink:title=" ">
<path fill="none" stroke="#63b8ff" d="M638.54,-109.98C706.56,-100.57 816,-85.43 887.96,-75.47"/>
<polygon fill="#63b8ff" stroke="#63b8ff" points="888.87,-78.88 898.3,-74.04 887.91,-71.94 888.87,-78.88"/>
</a>
</g>
</g>
<!-- Node13&#45;&gt;Node2 -->
<g id="edge16_Node000013_Node000002" class="edge">
<title>Node13&#45;&gt;Node2</title>
<g id="a_edge16_Node000013_Node000002"><a xlink:title=" ">
<path fill="none" stroke="#63b8ff" d="M477.03,-54.98C412.64,-44.01 302.55,-25.25 248.24,-15.99"/>
<polygon fill="#63b8ff" stroke="#63b8ff" points="248.59,-12.5 238.15,-14.27 247.42,-19.4 248.59,-12.5"/>
</a>
</g>
</g>
<!-- Node13&#45;&gt;Node8 -->
<g id="edge15_Node000013_Node000008" class="edge">
<title>Node13&#45;&gt;Node8</title>
<g id="a_edge15_Node000013_Node000008"><a xlink:title=" ">
<path fill="none" stroke="#63b8ff" d="M533.11,-54.75C538.28,-47.34 545.85,-36.5 552.19,-27.41"/>
<polygon fill="#63b8ff" stroke="#63b8ff" points="555.15,-29.29 558,-19.09 549.41,-25.29 555.15,-29.29"/>
</a>
</g>
</g>
<!-- Node13&#45;&gt;Node12 -->
<g id="edge17_Node000013_Node000012" class="edge">
<title>Node13&#45;&gt;Node12</title>
<g id="a_edge17_Node000013_Node000012"><a xlink:title=" ">
<path fill="none" stroke="#63b8ff" d="M561.38,-54.98C598.09,-45.89 656.38,-31.46 696.55,-21.51"/>
<polygon fill="#63b8ff" stroke="#63b8ff" points="697.48,-24.88 706.35,-19.08 695.8,-18.09 697.48,-24.88"/>
</a>
</g>
</g>
<!-- Node14&#45;&gt;Node2 -->
<g id="edge20_Node000014_Node000002" class="edge">
<title>Node14&#45;&gt;Node2</title>
<g id="a_edge20_Node000014_Node000002"><a xlink:title=" ">
<path fill="none" stroke="#63b8ff" d="M336.02,-54.98C312.22,-46.16 274.84,-32.31 248.11,-22.4"/>
<polygon fill="#63b8ff" stroke="#63b8ff" points="249.04,-19.01 238.45,-18.82 246.61,-25.58 249.04,-19.01"/>
</a>
</g>
</g>
<!-- Node14&#45;&gt;Node8 -->
<g id="edge19_Node000014_Node000008" class="edge">
<title>Node14&#45;&gt;Node8</title>
<g id="a_edge19_Node000014_Node000008"><a xlink:title=" ">
<path fill="none" stroke="#63b8ff" d="M391.94,-54.98C428.51,-45.53 487.45,-30.29 525.96,-20.33"/>
<polygon fill="#63b8ff" stroke="#63b8ff" points="526.96,-23.69 535.76,-17.8 525.21,-16.91 526.96,-23.69"/>
</a>
</g>
</g>
<!-- Node14&#45;&gt;Node9 -->
<g id="edge21_Node000014_Node000009" class="edge">
<title>Node14&#45;&gt;Node9</title>
<g id="a_edge21_Node000014_Node000009"><a xlink:title=" ">
<path fill="none" stroke="#63b8ff" d="M354.38,-54.75C350.54,-47.49 344.98,-36.95 340.24,-27.98"/>
<polygon fill="#63b8ff" stroke="#63b8ff" points="343.3,-26.3 335.54,-19.09 337.11,-29.57 343.3,-26.3"/>
</a>
</g>
</g>
<!-- Node14&#45;&gt;Node12 -->
<g id="edge22_Node000014_Node000012" class="edge">
<title>Node14&#45;&gt;Node12</title>
<g id="a_edge22_Node000014_Node000012"><a xlink:title=" ">
<path fill="none" stroke="#63b8ff" d="M420.37,-54.98C490.33,-45.28 604.21,-29.48 675.74,-19.55"/>
<polygon fill="#63b8ff" stroke="#63b8ff" points="676.55,-22.98 685.98,-18.13 675.59,-16.04 676.55,-22.98"/>
</a>
</g>
</g>
<!-- Node15&#45;&gt;Node8 -->
<g id="edge25_Node000015_Node000008" class="edge">
<title>Node15&#45;&gt;Node8</title>
<g id="a_edge25_Node000015_Node000008"><a xlink:title=" ">
<path fill="none" stroke="#63b8ff" d="M896.38,-54.98C813.36,-43.87 670.69,-24.78 602.49,-15.65"/>
<polygon fill="#63b8ff" stroke="#63b8ff" points="602.58,-12.13 592.2,-14.27 601.65,-19.07 602.58,-12.13"/>
</a>
</g>
</g>
<!-- Node15&#45;&gt;Node12 -->
<g id="edge27_Node000015_Node000012" class="edge">
<title>Node15&#45;&gt;Node12</title>
<g id="a_edge27_Node000015_Node000012"><a xlink:title=" ">
<path fill="none" stroke="#63b8ff" d="M924.81,-54.98C887.17,-45.87 827.34,-31.4 786.23,-21.45"/>
<polygon fill="#63b8ff" stroke="#63b8ff" points="787,-18.03 776.46,-19.08 785.36,-24.84 787,-18.03"/>
</a>
</g>
</g>
<!-- Node16 -->
<g id="Node000016" class="node">
<title>Node16</title>
<g id="a_Node000016"><a xlink:title=" ">
<polygon fill="#e0e0e0" stroke="#999999" points="954.5,-19 889.5,-19 889.5,0 954.5,0 954.5,-19"/>
<text text-anchor="middle" x="922" y="-7" font-family="Helvetica,sans-Serif" font-size="10.00">functional</text>
</a>
</g>
</g>
<!-- Node15&#45;&gt;Node16 -->
<g id="edge24_Node000015_Node000016" class="edge">
<title>Node15&#45;&gt;Node16</title>
<g id="a_edge24_Node000015_Node000016"><a xlink:title=" ">
<path fill="none" stroke="#63b8ff" d="M953.73,-54.75C948.41,-47.34 940.64,-36.5 934.12,-27.41"/>
<polygon fill="#63b8ff" stroke="#63b8ff" points="936.83,-25.18 928.16,-19.09 931.14,-29.26 936.83,-25.18"/>
</a>
</g>
</g>
<!-- Node17 -->
<g id="Node000017" class="node">
<title>Node17</title>
<g id="a_Node000017"><a xlink:title=" ">
<polygon fill="#e0e0e0" stroke="#999999" points="1023.5,-19 972.5,-19 972.5,0 1023.5,0 1023.5,-19"/>
<text text-anchor="middle" x="998" y="-7" font-family="Helvetica,sans-Serif" font-size="10.00">variant</text>
</a>
</g>
</g>
<!-- Node15&#45;&gt;Node17 -->
<g id="edge26_Node000015_Node000017" class="edge">
<title>Node15&#45;&gt;Node17</title>
<g id="a_edge26_Node000015_Node000017"><a xlink:title=" ">
<path fill="none" stroke="#63b8ff" d="M966.27,-54.75C971.59,-47.34 979.36,-36.5 985.88,-27.41"/>
<polygon fill="#63b8ff" stroke="#63b8ff" points="988.86,-29.26 991.84,-19.09 983.17,-25.18 988.86,-29.26"/>
</a>
</g>
</g>
</g>
</svg>
