<?xml version="1.0" encoding="UTF-8" standalone="no"?>
<!DOCTYPE svg PUBLIC "-//W3C//DTD SVG 1.1//EN"
 "http://www.w3.org/Graphics/SVG/1.1/DTD/svg11.dtd">
<!-- Generated by graphviz version 2.43.0 (0)
 -->
<!-- Title: include/jsonrpc/transport/framed_stdio_transport.hpp Pages: 1 -->
<svg width="416pt" height="159pt"
 viewBox="0.00 0.00 415.76 159.00" xmlns="http://www.w3.org/2000/svg" xmlns:xlink="http://www.w3.org/1999/xlink">
<g id="graph0" class="graph" transform="scale(1 1) rotate(0) translate(4 155)">
<title>include/jsonrpc/transport/framed_stdio_transport.hpp</title>
<!-- Node1 -->
<g id="Node000001" class="node">
<title>Node1</title>
<g id="a_Node000001"><a xlink:title=" ">
<polygon fill="#999999" stroke="#666666" points="175.76,-151 20.76,-151 20.76,-121 175.76,-121 175.76,-151"/>
<text text-anchor="start" x="28.76" y="-139" font-family="Helvetica,sans-Serif" font-size="10.00">include/jsonrpc/transport</text>
<text text-anchor="middle" x="98.26" y="-128" font-family="Helvetica,sans-Serif" font-size="10.00">/framed_stdio_transport.hpp</text>
</a>
</g>
</g>
<!-- Node2 -->
<g id="Node000002" class="node">
<title>Node2</title>
<g id="a_Node000002"><a xlink:title=" ">
<polygon fill="#e0e0e0" stroke="#999999" points="120.26,-19 76.26,-19 76.26,0 120.26,0 120.26,-19"/>
<text text-anchor="middle" x="98.26" y="-7" font-family="Helvetica,sans-Serif" font-size="10.00">string</text>
</a>
</g>
</g>
<!-- Node1&#45;&gt;Node2 -->
<g id="edge1_Node000001_Node000002" class="edge">
<title>Node1&#45;&gt;Node2</title>
<g id="a_edge1_Node000001_Node000002"><a xlink:title=" ">
<path fill="none" stroke="#63b8ff" d="M50.16,-120.8C32.89,-113.12 15.23,-101.68 5.26,-85 -1.58,-73.56 -1.84,-66.28 5.26,-55 18.55,-33.92 44.89,-22.6 66.15,-16.67"/>
<polygon fill="#63b8ff" stroke="#63b8ff" points="67.26,-20 76.11,-14.17 65.56,-13.21 67.26,-20"/>
</a>
</g>
</g>
<!-- Node3 -->
<g id="Node000003" class="node">
<title>Node3</title>
<g id="a_Node000003"><a xlink:href="framed__transport_8hpp.html" target="_top" xlink:title=" ">
<polygon fill="white" stroke="#666666" points="336.76,-85 199.76,-85 199.76,-55 336.76,-55 336.76,-85"/>
<text text-anchor="start" x="207.76" y="-73" font-family="Helvetica,sans-Serif" font-size="10.00">jsonrpc/transport/framed</text>
<text text-anchor="middle" x="268.26" y="-62" font-family="Helvetica,sans-Serif" font-size="10.00">_transport.hpp</text>
</a>
</g>
</g>
<!-- Node1&#45;&gt;Node3 -->
<g id="edge2_Node000001_Node000003" class="edge">
<title>Node1&#45;&gt;Node3</title>
<g id="a_edge2_Node000001_Node000003"><a xlink:title=" ">
<path fill="none" stroke="#63b8ff" d="M135.57,-120.95C160.82,-111.45 194.36,-98.82 221.4,-88.64"/>
<polygon fill="#63b8ff" stroke="#63b8ff" points="222.92,-91.81 231.04,-85.01 220.45,-85.26 222.92,-91.81"/>
</a>
</g>
</g>
<!-- Node7 -->
<g id="Node000007" class="node">
<title>Node7</title>
<g id="a_Node000007"><a xlink:href="transport_8hpp.html" target="_top" xlink:title=" ">
<polygon fill="white" stroke="#666666" points="181.76,-79.5 14.76,-79.5 14.76,-60.5 181.76,-60.5 181.76,-79.5"/>
<text text-anchor="middle" x="98.26" y="-67.5" font-family="Helvetica,sans-Serif" font-size="10.00">jsonrpc/transport/transport.hpp</text>
</a>
</g>
</g>
<!-- Node1&#45;&gt;Node7 -->
<g id="edge7_Node000001_Node000007" class="edge">
<title>Node1&#45;&gt;Node7</title>
<g id="a_edge7_Node000001_Node000007"><a xlink:title=" ">
<path fill="none" stroke="#63b8ff" d="M98.26,-120.8C98.26,-111.7 98.26,-99.79 98.26,-89.9"/>
<polygon fill="#63b8ff" stroke="#63b8ff" points="101.76,-89.84 98.26,-79.84 94.76,-89.84 101.76,-89.84"/>
</a>
</g>
</g>
<!-- Node3&#45;&gt;Node2 -->
<g id="edge5_Node000003_Node000002" class="edge">
<title>Node3&#45;&gt;Node2</title>
<g id="a_edge5_Node000003_Node000002"><a xlink:title=" ">
<path fill="none" stroke="#63b8ff" d="M227.54,-54.99C197.63,-44.69 157.55,-30.9 129.99,-21.42"/>
<polygon fill="#63b8ff" stroke="#63b8ff" points="131.04,-18.08 120.45,-18.13 128.76,-24.7 131.04,-18.08"/>
</a>
</g>
</g>
<!-- Node4 -->
<g id="Node000004" class="node">
<title>Node4</title>
<g id="a_Node000004"><a xlink:title=" ">
<polygon fill="#e0e0e0" stroke="#999999" points="221.26,-19 167.26,-19 167.26,0 221.26,0 221.26,-19"/>
<text text-anchor="middle" x="194.26" y="-7" font-family="Helvetica,sans-Serif" font-size="10.00">istream</text>
</a>
</g>
</g>
<!-- Node3&#45;&gt;Node4 -->
<g id="edge3_Node000003_Node000004" class="edge">
<title>Node3&#45;&gt;Node4</title>
<g id="a_edge3_Node000003_Node000004"><a xlink:title=" ">
<path fill="none" stroke="#63b8ff" d="M250.35,-54.84C239.17,-46 224.79,-34.63 213.39,-25.62"/>
<polygon fill="#63b8ff" stroke="#63b8ff" points="215.37,-22.72 205.35,-19.27 211.03,-28.21 215.37,-22.72"/>
</a>
</g>
</g>
<!-- Node5 -->
<g id="Node000005" class="node">
<title>Node5</title>
<g id="a_Node000005"><a xlink:title=" ">
<polygon fill="#e0e0e0" stroke="#999999" points="296.76,-19 239.76,-19 239.76,0 296.76,0 296.76,-19"/>
<text text-anchor="middle" x="268.26" y="-7" font-family="Helvetica,sans-Serif" font-size="10.00">ostream</text>
</a>
</g>
</g>
<!-- Node3&#45;&gt;Node5 -->
<g id="edge4_Node000003_Node000005" class="edge">
<title>Node3&#45;&gt;Node5</title>
<g id="a_edge4_Node000003_Node000005"><a xlink:title=" ">
<path fill="none" stroke="#63b8ff" d="M268.26,-54.84C268.26,-47.21 268.26,-37.7 268.26,-29.45"/>
<polygon fill="#63b8ff" stroke="#63b8ff" points="271.76,-29.27 268.26,-19.27 264.76,-29.27 271.76,-29.27"/>
</a>
</g>
</g>
<!-- Node6 -->
<g id="Node000006" class="node">
<title>Node6</title>
<g id="a_Node000006"><a xlink:title=" ">
<polygon fill="#e0e0e0" stroke="#999999" points="407.76,-19 314.76,-19 314.76,0 407.76,0 407.76,-19"/>
<text text-anchor="middle" x="361.26" y="-7" font-family="Helvetica,sans-Serif" font-size="10.00">unordered_map</text>
</a>
</g>
</g>
<!-- Node3&#45;&gt;Node6 -->
<g id="edge6_Node000003_Node000006" class="edge">
<title>Node3&#45;&gt;Node6</title>
<g id="a_edge6_Node000003_Node000006"><a xlink:title=" ">
<path fill="none" stroke="#63b8ff" d="M290.78,-54.84C305.33,-45.68 324.2,-33.82 338.75,-24.66"/>
<polygon fill="#63b8ff" stroke="#63b8ff" points="341,-27.38 347.6,-19.09 337.27,-21.46 341,-27.38"/>
</a>
</g>
</g>
<!-- Node7&#45;&gt;Node2 -->
<g id="edge8_Node000007_Node000002" class="edge">
<title>Node7&#45;&gt;Node2</title>
<g id="a_edge8_Node000007_Node000002"><a xlink:title=" ">
<path fill="none" stroke="#63b8ff" d="M98.26,-60.37C98.26,-52.25 98.26,-39.81 98.26,-29.39"/>
<polygon fill="#63b8ff" stroke="#63b8ff" points="101.76,-29.17 98.26,-19.17 94.76,-29.17 101.76,-29.17"/>
</a>
</g>
</g>
</g>
</svg>
