<?xml version="1.0" encoding="UTF-8" standalone="no"?>
<!DOCTYPE svg PUBLIC "-//W3C//DTD SVG 1.1//EN"
 "http://www.w3.org/Graphics/SVG/1.1/DTD/svg11.dtd">
<!-- Generated by graphviz version 2.43.0 (0)
 -->
<!-- Title: src/server/transports/framed_stdio_server_transport.cpp Pages: 1 -->
<svg width="1237pt" height="346pt"
 viewBox="0.00 0.00 1237.32 346.00" xmlns="http://www.w3.org/2000/svg" xmlns:xlink="http://www.w3.org/1999/xlink">
<g id="graph0" class="graph" transform="scale(1 1) rotate(0) translate(4 342)">
<title>src/server/transports/framed_stdio_server_transport.cpp</title>
<!-- Node1 -->
<g id="Node000001" class="node">
<title>Node1</title>
<g id="a_Node000001"><a xlink:title=" ">
<polygon fill="#999999" stroke="#666666" points="1044.82,-338 924.82,-338 924.82,-297 1044.82,-297 1044.82,-338"/>
<text text-anchor="start" x="932.82" y="-326" font-family="Helvetica,sans-Serif" font-size="10.00">src/server/transports</text>
<text text-anchor="start" x="932.82" y="-315" font-family="Helvetica,sans-Serif" font-size="10.00">/framed_stdio_server</text>
<text text-anchor="middle" x="984.82" y="-304" font-family="Helvetica,sans-Serif" font-size="10.00">_transport.cpp</text>
</a>
</g>
</g>
<!-- Node2 -->
<g id="Node000002" class="node">
<title>Node2</title>
<g id="a_Node000002"><a xlink:href="framed__stdio__server__transport_8hpp.html" target="_top" xlink:title=" ">
<polygon fill="white" stroke="#666666" points="918.32,-261 727.32,-261 727.32,-231 918.32,-231 918.32,-261"/>
<text text-anchor="start" x="735.32" y="-249" font-family="Helvetica,sans-Serif" font-size="10.00">jsonrpc/server/transports</text>
<text text-anchor="middle" x="822.82" y="-238" font-family="Helvetica,sans-Serif" font-size="10.00">/framed_stdio_server_transport.hpp</text>
</a>
</g>
</g>
<!-- Node1&#45;&gt;Node2 -->
<g id="edge1_Node000001_Node000002" class="edge">
<title>Node1&#45;&gt;Node2</title>
<g id="a_edge1_Node000001_Node000002"><a xlink:title=" ">
<path fill="none" stroke="#63b8ff" d="M939.27,-296.96C915.93,-286.94 887.7,-274.83 864.88,-265.04"/>
<polygon fill="#63b8ff" stroke="#63b8ff" points="866.04,-261.73 855.47,-261 863.28,-268.16 866.04,-261.73"/>
</a>
</g>
</g>
<!-- Node9 -->
<g id="Node000009" class="node">
<title>Node9</title>
<g id="a_Node000009"><a xlink:title=" ">
<polygon fill="#e0e0e0" stroke="#999999" points="353.82,-19 297.82,-19 297.82,0 353.82,0 353.82,-19"/>
<text text-anchor="middle" x="325.82" y="-7" font-family="Helvetica,sans-Serif" font-size="10.00">optional</text>
</a>
</g>
</g>
<!-- Node1&#45;&gt;Node9 -->
<g id="edge30_Node000001_Node000009" class="edge">
<title>Node1&#45;&gt;Node9</title>
<g id="a_edge30_Node000001_Node000009"><a xlink:title=" ">
<path fill="none" stroke="#63b8ff" d="M924.75,-314.59C711.11,-307.01 0.82,-274.77 0.82,-181 0.82,-181 0.82,-181 0.82,-118.5 0.82,-89.04 -2.47,-74.25 19.82,-55 39.81,-37.74 209.82,-20.73 287.44,-13.77"/>
<polygon fill="#63b8ff" stroke="#63b8ff" points="288.11,-17.23 297.76,-12.86 287.49,-10.26 288.11,-17.23"/>
</a>
</g>
</g>
<!-- Node10 -->
<g id="Node000010" class="node">
<title>Node10</title>
<g id="a_Node000010"><a xlink:title=" ">
<polygon fill="#e0e0e0" stroke="#999999" points="888.32,-19 795.32,-19 795.32,0 888.32,0 888.32,-19"/>
<text text-anchor="middle" x="841.82" y="-7" font-family="Helvetica,sans-Serif" font-size="10.00">unordered_map</text>
</a>
</g>
</g>
<!-- Node1&#45;&gt;Node10 -->
<g id="edge32_Node000001_Node000010" class="edge">
<title>Node1&#45;&gt;Node10</title>
<g id="a_edge32_Node000001_Node000010"><a xlink:title=" ">
<path fill="none" stroke="#63b8ff" d="M977.8,-296.58C969.22,-270.41 955.82,-222.86 955.82,-181 955.82,-181 955.82,-181 955.82,-118.5 955.82,-72.47 906.24,-40.18 872.47,-23.53"/>
<polygon fill="#63b8ff" stroke="#63b8ff" points="873.54,-20.16 863,-19.05 870.55,-26.49 873.54,-20.16"/>
</a>
</g>
</g>
<!-- Node19 -->
<g id="Node000019" class="node">
<title>Node19</title>
<g id="a_Node000019"><a xlink:title=" ">
<polygon fill="#e0e0e0" stroke="#999999" points="1043.82,-255.5 983.82,-255.5 983.82,-236.5 1043.82,-236.5 1043.82,-255.5"/>
<text text-anchor="middle" x="1013.82" y="-243.5" font-family="Helvetica,sans-Serif" font-size="10.00">iostream</text>
</a>
</g>
</g>
<!-- Node1&#45;&gt;Node19 -->
<g id="edge29_Node000001_Node000019" class="edge">
<title>Node1&#45;&gt;Node19</title>
<g id="a_edge29_Node000001_Node000019"><a xlink:title=" ">
<path fill="none" stroke="#63b8ff" d="M993.06,-296.77C997.19,-286.87 1002.16,-274.95 1006.21,-265.26"/>
<polygon fill="#63b8ff" stroke="#63b8ff" points="1009.52,-266.4 1010.14,-255.82 1003.06,-263.7 1009.52,-266.4"/>
</a>
</g>
</g>
<!-- Node20 -->
<g id="Node000020" class="node">
<title>Node20</title>
<g id="a_Node000020"><a xlink:title=" ">
<polygon fill="#e0e0e0" stroke="#999999" points="1117.82,-255.5 1061.82,-255.5 1061.82,-236.5 1117.82,-236.5 1117.82,-255.5"/>
<text text-anchor="middle" x="1089.82" y="-243.5" font-family="Helvetica,sans-Serif" font-size="10.00">sstream</text>
</a>
</g>
</g>
<!-- Node1&#45;&gt;Node20 -->
<g id="edge31_Node000001_Node000020" class="edge">
<title>Node1&#45;&gt;Node20</title>
<g id="a_edge31_Node000001_Node000020"><a xlink:title=" ">
<path fill="none" stroke="#63b8ff" d="M1014.35,-296.96C1031.59,-285.54 1052.95,-271.41 1068.54,-261.09"/>
<polygon fill="#63b8ff" stroke="#63b8ff" points="1070.57,-263.94 1076.98,-255.5 1066.71,-258.1 1070.57,-263.94"/>
</a>
</g>
</g>
<!-- Node21 -->
<g id="Node000021" class="node">
<title>Node21</title>
<g id="a_Node000021"><a xlink:title=" ">
<polygon fill="#e0e0e0" stroke="#999999" points="1229.32,-255.5 1136.32,-255.5 1136.32,-236.5 1229.32,-236.5 1229.32,-255.5"/>
<text text-anchor="middle" x="1182.82" y="-243.5" font-family="Helvetica,sans-Serif" font-size="10.00">spdlog/spdlog.h</text>
</a>
</g>
</g>
<!-- Node1&#45;&gt;Node21 -->
<g id="edge33_Node000001_Node000021" class="edge">
<title>Node1&#45;&gt;Node21</title>
<g id="a_edge33_Node000001_Node000021"><a xlink:title=" ">
<path fill="none" stroke="#63b8ff" d="M1040.51,-296.96C1075.45,-284.69 1119.35,-269.28 1149.09,-258.84"/>
<polygon fill="#63b8ff" stroke="#63b8ff" points="1150.32,-262.12 1158.6,-255.5 1148,-255.51 1150.32,-262.12"/>
</a>
</g>
</g>
<!-- Node3 -->
<g id="Node000003" class="node">
<title>Node3</title>
<g id="a_Node000003"><a xlink:title=" ">
<polygon fill="#e0e0e0" stroke="#999999" points="759.82,-19 715.82,-19 715.82,0 759.82,0 759.82,-19"/>
<text text-anchor="middle" x="737.82" y="-7" font-family="Helvetica,sans-Serif" font-size="10.00">string</text>
</a>
</g>
</g>
<!-- Node2&#45;&gt;Node3 -->
<g id="edge2_Node000002_Node000003" class="edge">
<title>Node2&#45;&gt;Node3</title>
<g id="a_edge2_Node000002_Node000003"><a xlink:title=" ">
<path fill="none" stroke="#63b8ff" d="M858.35,-230.96C873.71,-222.9 890.13,-211.13 898.82,-195 905.15,-183.26 902.07,-177.93 898.82,-165 885.31,-111.2 880.61,-92.61 839.82,-55 820.08,-36.8 791.71,-25.24 769.9,-18.48"/>
<polygon fill="#63b8ff" stroke="#63b8ff" points="770.67,-15.06 760.09,-15.62 768.71,-21.78 770.67,-15.06"/>
</a>
</g>
</g>
<!-- Node4 -->
<g id="Node000004" class="node">
<title>Node4</title>
<g id="a_Node000004"><a xlink:href="framed__transport_8hpp.html" target="_top" xlink:title=" ">
<polygon fill="white" stroke="#666666" points="889.82,-195 739.82,-195 739.82,-165 889.82,-165 889.82,-195"/>
<text text-anchor="start" x="747.82" y="-183" font-family="Helvetica,sans-Serif" font-size="10.00">jsonrpc/common/transports</text>
<text text-anchor="middle" x="814.82" y="-172" font-family="Helvetica,sans-Serif" font-size="10.00">/framed_transport.hpp</text>
</a>
</g>
</g>
<!-- Node2&#45;&gt;Node4 -->
<g id="edge3_Node000002_Node000004" class="edge">
<title>Node2&#45;&gt;Node4</title>
<g id="a_edge3_Node000002_Node000004"><a xlink:title=" ">
<path fill="none" stroke="#63b8ff" d="M821.05,-230.8C820.11,-223.26 818.92,-213.78 817.84,-205.13"/>
<polygon fill="#63b8ff" stroke="#63b8ff" points="821.31,-204.65 816.59,-195.16 814.36,-205.52 821.31,-204.65"/>
</a>
</g>
</g>
<!-- Node5 -->
<g id="Node000005" class="node">
<title>Node5</title>
<g id="a_Node000005"><a xlink:href="server__transport_8hpp.html" target="_top" xlink:title=" ">
<polygon fill="white" stroke="#666666" points="585.82,-195 447.82,-195 447.82,-165 585.82,-165 585.82,-195"/>
<text text-anchor="start" x="455.82" y="-183" font-family="Helvetica,sans-Serif" font-size="10.00">jsonrpc/server/transports</text>
<text text-anchor="middle" x="516.82" y="-172" font-family="Helvetica,sans-Serif" font-size="10.00">/server_transport.hpp</text>
</a>
</g>
</g>
<!-- Node2&#45;&gt;Node5 -->
<g id="edge5_Node000002_Node000005" class="edge">
<title>Node2&#45;&gt;Node5</title>
<g id="a_edge5_Node000002_Node000005"><a xlink:title=" ">
<path fill="none" stroke="#63b8ff" d="M755.67,-230.95C707.94,-220.97 643.73,-207.54 593.9,-197.12"/>
<polygon fill="#63b8ff" stroke="#63b8ff" points="594.33,-193.63 583.82,-195.01 592.89,-200.49 594.33,-193.63"/>
</a>
</g>
</g>
<!-- Node4&#45;&gt;Node3 -->
<g id="edge4_Node000004_Node000003" class="edge">
<title>Node4&#45;&gt;Node3</title>
<g id="a_edge4_Node000004_Node000003"><a xlink:title=" ">
<path fill="none" stroke="#63b8ff" d="M820.66,-164.75C829.67,-140.31 843.82,-89.7 822.82,-55 811.35,-36.04 788.83,-24.76 769.86,-18.31"/>
<polygon fill="#63b8ff" stroke="#63b8ff" points="770.64,-14.89 760.05,-15.28 768.57,-21.58 770.64,-14.89"/>
</a>
</g>
</g>
<!-- Node6 -->
<g id="Node000006" class="node">
<title>Node6</title>
<g id="a_Node000006"><a xlink:title=" ">
<polygon fill="#e0e0e0" stroke="#999999" points="406.82,-129 356.82,-129 356.82,-110 406.82,-110 406.82,-129"/>
<text text-anchor="middle" x="381.82" y="-117" font-family="Helvetica,sans-Serif" font-size="10.00">atomic</text>
</a>
</g>
</g>
<!-- Node5&#45;&gt;Node6 -->
<g id="edge6_Node000005_Node000006" class="edge">
<title>Node5&#45;&gt;Node6</title>
<g id="a_edge6_Node000005_Node000006"><a xlink:title=" ">
<path fill="none" stroke="#63b8ff" d="M484.49,-164.99C462.17,-155.31 432.72,-142.56 411.1,-133.18"/>
<polygon fill="#63b8ff" stroke="#63b8ff" points="412.33,-129.9 401.76,-129.14 409.54,-136.33 412.33,-129.9"/>
</a>
</g>
</g>
<!-- Node7 -->
<g id="Node000007" class="node">
<title>Node7</title>
<g id="a_Node000007"><a xlink:title=" ">
<polygon fill="#e0e0e0" stroke="#999999" points="482.82,-129 424.82,-129 424.82,-110 482.82,-110 482.82,-129"/>
<text text-anchor="middle" x="453.82" y="-117" font-family="Helvetica,sans-Serif" font-size="10.00">memory</text>
</a>
</g>
</g>
<!-- Node5&#45;&gt;Node7 -->
<g id="edge7_Node000005_Node000007" class="edge">
<title>Node5&#45;&gt;Node7</title>
<g id="a_edge7_Node000005_Node000007"><a xlink:title=" ">
<path fill="none" stroke="#63b8ff" d="M501.57,-164.84C492.24,-156.17 480.29,-145.08 470.68,-136.15"/>
<polygon fill="#63b8ff" stroke="#63b8ff" points="472.97,-133.51 463.26,-129.27 468.21,-138.64 472.97,-133.51"/>
</a>
</g>
</g>
<!-- Node8 -->
<g id="Node000008" class="node">
<title>Node8</title>
<g id="a_Node000008"><a xlink:href="dispatcher_8hpp.html" target="_top" xlink:title=" ">
<polygon fill="white" stroke="#666666" points="660.82,-129 500.82,-129 500.82,-110 660.82,-110 660.82,-129"/>
<text text-anchor="middle" x="580.82" y="-117" font-family="Helvetica,sans-Serif" font-size="10.00">jsonrpc/server/dispatcher.hpp</text>
</a>
</g>
</g>
<!-- Node5&#45;&gt;Node8 -->
<g id="edge8_Node000005_Node000008" class="edge">
<title>Node5&#45;&gt;Node8</title>
<g id="a_edge8_Node000005_Node000008"><a xlink:title=" ">
<path fill="none" stroke="#63b8ff" d="M532.32,-164.84C541.8,-156.17 553.94,-145.08 563.7,-136.15"/>
<polygon fill="#63b8ff" stroke="#63b8ff" points="566.21,-138.6 571.23,-129.27 561.49,-133.43 566.21,-138.6"/>
</a>
</g>
</g>
<!-- Node8&#45;&gt;Node3 -->
<g id="edge10_Node000008_Node000003" class="edge">
<title>Node8&#45;&gt;Node3</title>
<g id="a_edge10_Node000008_Node000003"><a xlink:title=" ">
<path fill="none" stroke="#63b8ff" d="M649.28,-109.94C674.05,-103.66 700.42,-92.8 718.82,-74 730.51,-62.06 735.05,-43.24 736.8,-29.18"/>
<polygon fill="#63b8ff" stroke="#63b8ff" points="740.29,-29.42 737.68,-19.15 733.32,-28.81 740.29,-29.42"/>
</a>
</g>
</g>
<!-- Node8&#45;&gt;Node9 -->
<g id="edge9_Node000008_Node000009" class="edge">
<title>Node8&#45;&gt;Node9</title>
<g id="a_edge9_Node000008_Node000009"><a xlink:title=" ">
<path fill="none" stroke="#63b8ff" d="M517.41,-109.99C451.95,-100.67 357.6,-85.51 344.82,-74 332.41,-62.82 327.97,-43.9 326.44,-29.61"/>
<polygon fill="#63b8ff" stroke="#63b8ff" points="329.92,-29.12 325.75,-19.38 322.94,-29.59 329.92,-29.12"/>
</a>
</g>
</g>
<!-- Node8&#45;&gt;Node10 -->
<g id="edge11_Node000008_Node000010" class="edge">
<title>Node8&#45;&gt;Node10</title>
<g id="a_edge11_Node000008_Node000010"><a xlink:title=" ">
<path fill="none" stroke="#63b8ff" d="M661.13,-112.69C722.08,-106.68 799.29,-95.1 822.82,-74 835.26,-62.85 839.7,-43.92 841.22,-29.62"/>
<polygon fill="#63b8ff" stroke="#63b8ff" points="844.73,-29.6 841.9,-19.39 837.74,-29.13 844.73,-29.6"/>
</a>
</g>
</g>
<!-- Node11 -->
<g id="Node000011" class="node">
<title>Node11</title>
<g id="a_Node000011"><a xlink:title=" ">
<polygon fill="#e0e0e0" stroke="#999999" points="813.32,-74 766.32,-74 766.32,-55 813.32,-55 813.32,-74"/>
<text text-anchor="middle" x="789.82" y="-62" font-family="Helvetica,sans-Serif" font-size="10.00">vector</text>
</a>
</g>
</g>
<!-- Node8&#45;&gt;Node11 -->
<g id="edge12_Node000008_Node000011" class="edge">
<title>Node8&#45;&gt;Node11</title>
<g id="a_edge12_Node000008_Node000011"><a xlink:title=" ">
<path fill="none" stroke="#63b8ff" d="M614.4,-109.98C653.38,-100.1 717.29,-83.89 756.26,-74.01"/>
<polygon fill="#63b8ff" stroke="#63b8ff" points="757.25,-77.37 766.08,-71.52 755.52,-70.59 757.25,-77.37"/>
</a>
</g>
</g>
<!-- Node12 -->
<g id="Node000012" class="node">
<title>Node12</title>
<g id="a_Node000012"><a xlink:title=" ">
<polygon fill="#e0e0e0" stroke="#999999" points="297.32,-74 184.32,-74 184.32,-55 297.32,-55 297.32,-74"/>
<text text-anchor="middle" x="240.82" y="-62" font-family="Helvetica,sans-Serif" font-size="10.00">BS_thread_pool.hpp</text>
</a>
</g>
</g>
<!-- Node8&#45;&gt;Node12 -->
<g id="edge13_Node000008_Node000012" class="edge">
<title>Node8&#45;&gt;Node12</title>
<g id="a_edge13_Node000008_Node000012"><a xlink:title=" ">
<path fill="none" stroke="#63b8ff" d="M526.2,-109.98C466.06,-100.61 369.45,-85.55 305.56,-75.59"/>
<polygon fill="#63b8ff" stroke="#63b8ff" points="306.02,-72.12 295.6,-74.04 304.94,-79.04 306.02,-72.12"/>
</a>
</g>
</g>
<!-- Node13 -->
<g id="Node000013" class="node">
<title>Node13</title>
<g id="a_Node000013"><a xlink:title=" ">
<polygon fill="#e0e0e0" stroke="#999999" points="532.82,-19 422.82,-19 422.82,0 532.82,0 532.82,-19"/>
<text text-anchor="middle" x="477.82" y="-7" font-family="Helvetica,sans-Serif" font-size="10.00">nlohmann/json.hpp</text>
</a>
</g>
</g>
<!-- Node8&#45;&gt;Node13 -->
<g id="edge14_Node000008_Node000013" class="edge">
<title>Node8&#45;&gt;Node13</title>
<g id="a_edge14_Node000008_Node000013"><a xlink:title=" ">
<path fill="none" stroke="#63b8ff" d="M572.4,-109.66C555.03,-91.46 515.06,-49.55 493.05,-26.47"/>
<polygon fill="#63b8ff" stroke="#63b8ff" points="495.52,-23.98 486.08,-19.16 490.45,-28.81 495.52,-23.98"/>
</a>
</g>
</g>
<!-- Node14 -->
<g id="Node000014" class="node">
<title>Node14</title>
<g id="a_Node000014"><a xlink:href="server_2request_8hpp.html" target="_top" xlink:title=" ">
<polygon fill="white" stroke="#666666" points="499.82,-74 353.82,-74 353.82,-55 499.82,-55 499.82,-74"/>
<text text-anchor="middle" x="426.82" y="-62" font-family="Helvetica,sans-Serif" font-size="10.00">jsonrpc/server/request.hpp</text>
</a>
</g>
</g>
<!-- Node8&#45;&gt;Node14 -->
<g id="edge15_Node000008_Node000014" class="edge">
<title>Node8&#45;&gt;Node14</title>
<g id="a_edge15_Node000008_Node000014"><a xlink:title=" ">
<path fill="none" stroke="#63b8ff" d="M556.08,-109.98C530.45,-101.16 490.19,-87.31 461.42,-77.41"/>
<polygon fill="#63b8ff" stroke="#63b8ff" points="462.36,-74.03 451.76,-74.08 460.08,-80.65 462.36,-74.03"/>
</a>
</g>
</g>
<!-- Node15 -->
<g id="Node000015" class="node">
<title>Node15</title>
<g id="a_Node000015"><a xlink:href="response_8hpp.html" target="_top" xlink:title=" ">
<polygon fill="white" stroke="#666666" points="709.82,-74 555.82,-74 555.82,-55 709.82,-55 709.82,-74"/>
<text text-anchor="middle" x="632.82" y="-62" font-family="Helvetica,sans-Serif" font-size="10.00">jsonrpc/server/response.hpp</text>
</a>
</g>
</g>
<!-- Node8&#45;&gt;Node15 -->
<g id="edge19_Node000008_Node000015" class="edge">
<title>Node8&#45;&gt;Node15</title>
<g id="a_edge19_Node000008_Node000015"><a xlink:title=" ">
<path fill="none" stroke="#63b8ff" d="M589.41,-109.75C596.98,-102.03 608.2,-90.6 617.34,-81.28"/>
<polygon fill="#63b8ff" stroke="#63b8ff" points="619.89,-83.68 624.4,-74.09 614.9,-78.78 619.89,-83.68"/>
</a>
</g>
</g>
<!-- Node16 -->
<g id="Node000016" class="node">
<title>Node16</title>
<g id="a_Node000016"><a xlink:href="types_8hpp.html" target="_top" xlink:title=" ">
<polygon fill="white" stroke="#666666" points="166.32,-74 29.32,-74 29.32,-55 166.32,-55 166.32,-74"/>
<text text-anchor="middle" x="97.82" y="-62" font-family="Helvetica,sans-Serif" font-size="10.00">jsonrpc/server/types.hpp</text>
</a>
</g>
</g>
<!-- Node8&#45;&gt;Node16 -->
<g id="edge24_Node000008_Node000016" class="edge">
<title>Node8&#45;&gt;Node16</title>
<g id="a_edge24_Node000008_Node000016"><a xlink:title=" ">
<path fill="none" stroke="#63b8ff" d="M502.99,-109.99C423.5,-101.29 296.2,-87.35 176.73,-74.21"/>
<polygon fill="#63b8ff" stroke="#63b8ff" points="176.99,-70.72 166.67,-73.1 176.23,-77.68 176.99,-70.72"/>
</a>
</g>
</g>
<!-- Node14&#45;&gt;Node3 -->
<g id="edge17_Node000014_Node000003" class="edge">
<title>Node14&#45;&gt;Node3</title>
<g id="a_edge17_Node000014_Node000003"><a xlink:title=" ">
<path fill="none" stroke="#63b8ff" d="M476.79,-54.98C541.18,-44.01 651.28,-25.25 705.59,-15.99"/>
<polygon fill="#63b8ff" stroke="#63b8ff" points="706.41,-19.4 715.68,-14.27 705.23,-12.5 706.41,-19.4"/>
</a>
</g>
</g>
<!-- Node14&#45;&gt;Node9 -->
<g id="edge16_Node000014_Node000009" class="edge">
<title>Node14&#45;&gt;Node9</title>
<g id="a_edge16_Node000014_Node000009"><a xlink:title=" ">
<path fill="none" stroke="#63b8ff" d="M410.6,-54.98C394.64,-46.61 370.04,-33.7 351.45,-23.95"/>
<polygon fill="#63b8ff" stroke="#63b8ff" points="352.83,-20.72 342.35,-19.17 349.58,-26.92 352.83,-20.72"/>
</a>
</g>
</g>
<!-- Node14&#45;&gt;Node13 -->
<g id="edge18_Node000014_Node000013" class="edge">
<title>Node14&#45;&gt;Node13</title>
<g id="a_edge18_Node000014_Node000013"><a xlink:title=" ">
<path fill="none" stroke="#63b8ff" d="M435.25,-54.75C442.6,-47.11 453.46,-35.82 462.37,-26.56"/>
<polygon fill="#63b8ff" stroke="#63b8ff" points="465.15,-28.72 469.56,-19.09 460.1,-23.87 465.15,-28.72"/>
</a>
</g>
</g>
<!-- Node15&#45;&gt;Node3 -->
<g id="edge21_Node000015_Node000003" class="edge">
<title>Node15&#45;&gt;Node3</title>
<g id="a_edge21_Node000015_Node000003"><a xlink:title=" ">
<path fill="none" stroke="#63b8ff" d="M649.69,-54.98C666.43,-46.54 692.32,-33.47 711.72,-23.68"/>
<polygon fill="#63b8ff" stroke="#63b8ff" points="713.3,-26.8 720.65,-19.17 710.14,-20.55 713.3,-26.8"/>
</a>
</g>
</g>
<!-- Node15&#45;&gt;Node9 -->
<g id="edge20_Node000015_Node000009" class="edge">
<title>Node15&#45;&gt;Node9</title>
<g id="a_edge20_Node000015_Node000009"><a xlink:title=" ">
<path fill="none" stroke="#63b8ff" d="M583.5,-54.98C522.35,-44.43 419.45,-26.66 363.99,-17.09"/>
<polygon fill="#63b8ff" stroke="#63b8ff" points="364.33,-13.6 353.88,-15.34 363.14,-20.49 364.33,-13.6"/>
</a>
</g>
</g>
<!-- Node15&#45;&gt;Node10 -->
<g id="edge22_Node000015_Node000010" class="edge">
<title>Node15&#45;&gt;Node10</title>
<g id="a_edge22_Node000015_Node000010"><a xlink:title=" ">
<path fill="none" stroke="#63b8ff" d="M666.4,-54.98C702.18,-45.91 758.94,-31.52 798.16,-21.57"/>
<polygon fill="#63b8ff" stroke="#63b8ff" points="799.15,-24.93 807.98,-19.08 797.43,-18.15 799.15,-24.93"/>
</a>
</g>
</g>
<!-- Node15&#45;&gt;Node13 -->
<g id="edge23_Node000015_Node000013" class="edge">
<title>Node15&#45;&gt;Node13</title>
<g id="a_edge23_Node000015_Node000013"><a xlink:title=" ">
<path fill="none" stroke="#63b8ff" d="M607.92,-54.98C582.12,-46.16 541.6,-32.31 512.64,-22.41"/>
<polygon fill="#63b8ff" stroke="#63b8ff" points="513.52,-19.01 502.92,-19.08 511.25,-25.63 513.52,-19.01"/>
</a>
</g>
</g>
<!-- Node16&#45;&gt;Node9 -->
<g id="edge26_Node000016_Node000009" class="edge">
<title>Node16&#45;&gt;Node9</title>
<g id="a_edge26_Node000016_Node000009"><a xlink:title=" ">
<path fill="none" stroke="#63b8ff" d="M134.46,-54.98C176.44,-45.23 244.92,-29.31 287.57,-19.39"/>
<polygon fill="#63b8ff" stroke="#63b8ff" points="288.62,-22.74 297.56,-17.07 287.03,-15.92 288.62,-22.74"/>
</a>
</g>
</g>
<!-- Node16&#45;&gt;Node13 -->
<g id="edge28_Node000016_Node000013" class="edge">
<title>Node16&#45;&gt;Node13</title>
<g id="a_edge28_Node000016_Node000013"><a xlink:title=" ">
<path fill="none" stroke="#63b8ff" d="M158.88,-54.98C228.37,-45.29 341.42,-29.52 412.6,-19.6"/>
<polygon fill="#63b8ff" stroke="#63b8ff" points="413.37,-23.02 422.79,-18.18 412.4,-16.09 413.37,-23.02"/>
</a>
</g>
</g>
<!-- Node17 -->
<g id="Node000017" class="node">
<title>Node17</title>
<g id="a_Node000017"><a xlink:title=" ">
<polygon fill="#e0e0e0" stroke="#999999" points="92.32,-19 27.32,-19 27.32,0 92.32,0 92.32,-19"/>
<text text-anchor="middle" x="59.82" y="-7" font-family="Helvetica,sans-Serif" font-size="10.00">functional</text>
</a>
</g>
</g>
<!-- Node16&#45;&gt;Node17 -->
<g id="edge25_Node000016_Node000017" class="edge">
<title>Node16&#45;&gt;Node17</title>
<g id="a_edge25_Node000016_Node000017"><a xlink:title=" ">
<path fill="none" stroke="#63b8ff" d="M91.55,-54.75C86.24,-47.34 78.47,-36.5 71.95,-27.41"/>
<polygon fill="#63b8ff" stroke="#63b8ff" points="74.65,-25.18 65.98,-19.09 68.96,-29.26 74.65,-25.18"/>
</a>
</g>
</g>
<!-- Node18 -->
<g id="Node000018" class="node">
<title>Node18</title>
<g id="a_Node000018"><a xlink:title=" ">
<polygon fill="#e0e0e0" stroke="#999999" points="161.32,-19 110.32,-19 110.32,0 161.32,0 161.32,-19"/>
<text text-anchor="middle" x="135.82" y="-7" font-family="Helvetica,sans-Serif" font-size="10.00">variant</text>
</a>
</g>
</g>
<!-- Node16&#45;&gt;Node18 -->
<g id="edge27_Node000016_Node000018" class="edge">
<title>Node16&#45;&gt;Node18</title>
<g id="a_edge27_Node000016_Node000018"><a xlink:title=" ">
<path fill="none" stroke="#63b8ff" d="M104.1,-54.75C109.41,-47.34 117.18,-36.5 123.7,-27.41"/>
<polygon fill="#63b8ff" stroke="#63b8ff" points="126.68,-29.26 129.67,-19.09 120.99,-25.18 126.68,-29.26"/>
</a>
</g>
</g>
</g>
</svg>
