<?xml version="1.0" encoding="UTF-8" standalone="no"?>
<!DOCTYPE svg PUBLIC "-//W3C//DTD SVG 1.1//EN"
 "http://www.w3.org/Graphics/SVG/1.1/DTD/svg11.dtd">
<!-- Generated by graphviz version 2.43.0 (0)
 -->
<!-- Title: include/json_rpc/transports/framed_stdio_client_transport.hpp Pages: 1 -->
<svg width="411pt" height="214pt"
 viewBox="0.00 0.00 411.32 214.00" xmlns="http://www.w3.org/2000/svg" xmlns:xlink="http://www.w3.org/1999/xlink">
<g id="graph0" class="graph" transform="scale(1 1) rotate(0) translate(4 210)">
<title>include/json_rpc/transports/framed_stdio_client_transport.hpp</title>
<!-- Node1 -->
<g id="Node000001" class="node">
<title>Node1</title>
<g id="a_Node000001"><a xlink:title=" ">
<polygon fill="#999999" stroke="#666666" points="238.82,-206 51.82,-206 51.82,-176 238.82,-176 238.82,-206"/>
<text text-anchor="start" x="59.82" y="-194" font-family="Helvetica,sans-Serif" font-size="10.00">include/json_rpc/transports</text>
<text text-anchor="middle" x="145.32" y="-183" font-family="Helvetica,sans-Serif" font-size="10.00">/framed_stdio_client_transport.hpp</text>
</a>
</g>
</g>
<!-- Node2 -->
<g id="Node000002" class="node">
<title>Node2</title>
<g id="a_Node000002"><a xlink:title=" ">
<polygon fill="#e0e0e0" stroke="#999999" points="54.32,-74 10.32,-74 10.32,-55 54.32,-55 54.32,-74"/>
<text text-anchor="middle" x="32.32" y="-62" font-family="Helvetica,sans-Serif" font-size="10.00">string</text>
</a>
</g>
</g>
<!-- Node1&#45;&gt;Node2 -->
<g id="edge1_Node000001_Node000002" class="edge">
<title>Node1&#45;&gt;Node2</title>
<g id="a_edge1_Node000001_Node000002"><a xlink:title=" ">
<path fill="none" stroke="#63b8ff" d="M55.74,-175.94C36.03,-168.51 17.43,-157.19 5.32,-140 -7.25,-122.16 6.12,-97.83 18.11,-81.89"/>
<polygon fill="#63b8ff" stroke="#63b8ff" points="20.92,-83.99 24.46,-74 15.47,-79.6 20.92,-83.99"/>
</a>
</g>
</g>
<!-- Node3 -->
<g id="Node000003" class="node">
<title>Node3</title>
<g id="a_Node000003"><a xlink:href="client__transport_8hpp.html" target="_top" xlink:title=" ">
<polygon fill="white" stroke="#666666" points="268.82,-140 157.82,-140 157.82,-110 268.82,-110 268.82,-140"/>
<text text-anchor="start" x="165.82" y="-128" font-family="Helvetica,sans-Serif" font-size="10.00">json_rpc/core/client</text>
<text text-anchor="middle" x="213.32" y="-117" font-family="Helvetica,sans-Serif" font-size="10.00">_transport.hpp</text>
</a>
</g>
</g>
<!-- Node1&#45;&gt;Node3 -->
<g id="edge2_Node000001_Node000003" class="edge">
<title>Node1&#45;&gt;Node3</title>
<g id="a_edge2_Node000001_Node000003"><a xlink:title=" ">
<path fill="none" stroke="#63b8ff" d="M160.41,-175.8C169.39,-167.34 180.95,-156.46 190.97,-147.03"/>
<polygon fill="#63b8ff" stroke="#63b8ff" points="193.38,-149.57 198.27,-140.16 188.59,-144.47 193.38,-149.57"/>
</a>
</g>
</g>
<!-- Node4 -->
<g id="Node000004" class="node">
<title>Node4</title>
<g id="a_Node000004"><a xlink:href="types_8hpp.html" target="_top" xlink:title=" ">
<polygon fill="white" stroke="#666666" points="279.32,-74 147.32,-74 147.32,-55 279.32,-55 279.32,-74"/>
<text text-anchor="middle" x="213.32" y="-62" font-family="Helvetica,sans-Serif" font-size="10.00">json_rpc/core/types.hpp</text>
</a>
</g>
</g>
<!-- Node1&#45;&gt;Node4 -->
<g id="edge8_Node000001_Node000004" class="edge">
<title>Node1&#45;&gt;Node4</title>
<g id="a_edge8_Node000001_Node000004"><a xlink:title=" ">
<path fill="none" stroke="#63b8ff" d="M228.09,-175.95C247.71,-168.54 266.38,-157.24 278.32,-140 285.91,-129.04 284.54,-121.79 278.32,-110 271.08,-96.27 257.49,-85.97 244.6,-78.76"/>
<polygon fill="#63b8ff" stroke="#63b8ff" points="245.93,-75.51 235.44,-74.05 242.73,-81.73 245.93,-75.51"/>
</a>
</g>
</g>
<!-- Node9 -->
<g id="Node000009" class="node">
<title>Node9</title>
<g id="a_Node000009"><a xlink:href="framed__transport_8hpp.html" target="_top" xlink:title=" ">
<polygon fill="white" stroke="#666666" points="139.82,-140 14.82,-140 14.82,-110 139.82,-110 139.82,-140"/>
<text text-anchor="start" x="22.82" y="-128" font-family="Helvetica,sans-Serif" font-size="10.00">json_rpc/transports</text>
<text text-anchor="middle" x="77.32" y="-117" font-family="Helvetica,sans-Serif" font-size="10.00">/framed_transport.hpp</text>
</a>
</g>
</g>
<!-- Node1&#45;&gt;Node9 -->
<g id="edge9_Node000001_Node000009" class="edge">
<title>Node1&#45;&gt;Node9</title>
<g id="a_edge9_Node000001_Node000009"><a xlink:title=" ">
<path fill="none" stroke="#63b8ff" d="M130.23,-175.8C121.25,-167.34 109.69,-156.46 99.66,-147.03"/>
<polygon fill="#63b8ff" stroke="#63b8ff" points="102.05,-144.47 92.37,-140.16 97.25,-149.57 102.05,-144.47"/>
</a>
</g>
</g>
<!-- Node3&#45;&gt;Node4 -->
<g id="edge3_Node000003_Node000004" class="edge">
<title>Node3&#45;&gt;Node4</title>
<g id="a_edge3_Node000003_Node000004"><a xlink:title=" ">
<path fill="none" stroke="#63b8ff" d="M213.32,-109.84C213.32,-102.21 213.32,-92.7 213.32,-84.45"/>
<polygon fill="#63b8ff" stroke="#63b8ff" points="216.82,-84.27 213.32,-74.27 209.82,-84.27 216.82,-84.27"/>
</a>
</g>
</g>
<!-- Node5 -->
<g id="Node000005" class="node">
<title>Node5</title>
<g id="a_Node000005"><a xlink:title=" ">
<polygon fill="#e0e0e0" stroke="#999999" points="130.82,-19 65.82,-19 65.82,0 130.82,0 130.82,-19"/>
<text text-anchor="middle" x="98.32" y="-7" font-family="Helvetica,sans-Serif" font-size="10.00">functional</text>
</a>
</g>
</g>
<!-- Node4&#45;&gt;Node5 -->
<g id="edge4_Node000004_Node000005" class="edge">
<title>Node4&#45;&gt;Node5</title>
<g id="a_edge4_Node000004_Node000005"><a xlink:title=" ">
<path fill="none" stroke="#63b8ff" d="M194.84,-54.98C176.34,-46.46 147.64,-33.23 126.33,-23.41"/>
<polygon fill="#63b8ff" stroke="#63b8ff" points="127.68,-20.18 117.13,-19.17 124.75,-26.53 127.68,-20.18"/>
</a>
</g>
</g>
<!-- Node6 -->
<g id="Node000006" class="node">
<title>Node6</title>
<g id="a_Node000006"><a xlink:title=" ">
<polygon fill="#e0e0e0" stroke="#999999" points="205.32,-19 149.32,-19 149.32,0 205.32,0 205.32,-19"/>
<text text-anchor="middle" x="177.32" y="-7" font-family="Helvetica,sans-Serif" font-size="10.00">optional</text>
</a>
</g>
</g>
<!-- Node4&#45;&gt;Node6 -->
<g id="edge5_Node000004_Node000006" class="edge">
<title>Node4&#45;&gt;Node6</title>
<g id="a_edge5_Node000004_Node000006"><a xlink:title=" ">
<path fill="none" stroke="#63b8ff" d="M207.37,-54.75C202.34,-47.34 194.98,-36.5 188.8,-27.41"/>
<polygon fill="#63b8ff" stroke="#63b8ff" points="191.67,-25.39 183.15,-19.09 185.87,-29.33 191.67,-25.39"/>
</a>
</g>
</g>
<!-- Node7 -->
<g id="Node000007" class="node">
<title>Node7</title>
<g id="a_Node000007"><a xlink:title=" ">
<polygon fill="#e0e0e0" stroke="#999999" points="274.82,-19 223.82,-19 223.82,0 274.82,0 274.82,-19"/>
<text text-anchor="middle" x="249.32" y="-7" font-family="Helvetica,sans-Serif" font-size="10.00">variant</text>
</a>
</g>
</g>
<!-- Node4&#45;&gt;Node7 -->
<g id="edge6_Node000004_Node000007" class="edge">
<title>Node4&#45;&gt;Node7</title>
<g id="a_edge6_Node000004_Node000007"><a xlink:title=" ">
<path fill="none" stroke="#63b8ff" d="M219.26,-54.75C224.29,-47.34 231.65,-36.5 237.83,-27.41"/>
<polygon fill="#63b8ff" stroke="#63b8ff" points="240.76,-29.33 243.48,-19.09 234.97,-25.39 240.76,-29.33"/>
</a>
</g>
</g>
<!-- Node8 -->
<g id="Node000008" class="node">
<title>Node8</title>
<g id="a_Node000008"><a xlink:title=" ">
<polygon fill="#e0e0e0" stroke="#999999" points="403.32,-19 293.32,-19 293.32,0 403.32,0 403.32,-19"/>
<text text-anchor="middle" x="348.32" y="-7" font-family="Helvetica,sans-Serif" font-size="10.00">nlohmann/json.hpp</text>
</a>
</g>
</g>
<!-- Node4&#45;&gt;Node8 -->
<g id="edge7_Node000004_Node000008" class="edge">
<title>Node4&#45;&gt;Node8</title>
<g id="a_edge7_Node000004_Node000008"><a xlink:title=" ">
<path fill="none" stroke="#63b8ff" d="M235.01,-54.98C257.12,-46.3 291.64,-32.75 316.77,-22.88"/>
<polygon fill="#63b8ff" stroke="#63b8ff" points="318.2,-26.08 326.23,-19.17 315.64,-19.57 318.2,-26.08"/>
</a>
</g>
</g>
<!-- Node9&#45;&gt;Node2 -->
<g id="edge10_Node000009_Node000002" class="edge">
<title>Node9&#45;&gt;Node2</title>
<g id="a_edge10_Node000009_Node000002"><a xlink:title=" ">
<path fill="none" stroke="#63b8ff" d="M66.42,-109.84C60.02,-101.52 51.9,-90.96 45.19,-82.23"/>
<polygon fill="#63b8ff" stroke="#63b8ff" points="47.93,-80.06 39.06,-74.27 42.38,-84.33 47.93,-80.06"/>
</a>
</g>
</g>
<!-- Node9&#45;&gt;Node4 -->
<g id="edge11_Node000009_Node000004" class="edge">
<title>Node9&#45;&gt;Node4</title>
<g id="a_edge11_Node000009_Node000004"><a xlink:title=" ">
<path fill="none" stroke="#63b8ff" d="M109.89,-109.99C132.38,-100.31 162.04,-87.56 183.83,-78.18"/>
<polygon fill="#63b8ff" stroke="#63b8ff" points="185.43,-81.31 193.23,-74.14 182.66,-74.88 185.43,-81.31"/>
</a>
</g>
</g>
</g>
</svg>
