<?xml version="1.0" encoding="UTF-8" standalone="no"?>
<!DOCTYPE svg PUBLIC "-//W3C//DTD SVG 1.1//EN"
 "http://www.w3.org/Graphics/SVG/1.1/DTD/svg11.dtd">
<!-- Generated by graphviz version 2.43.0 (0)
 -->
<!-- Title: src/client/transports/framed_stdio_client_transport.cpp Pages: 1 -->
<svg width="643pt" height="236pt"
 viewBox="0.00 0.00 643.00 236.00" xmlns="http://www.w3.org/2000/svg" xmlns:xlink="http://www.w3.org/1999/xlink">
<g id="graph0" class="graph" transform="scale(1 1) rotate(0) translate(4 232)">
<title>src/client/transports/framed_stdio_client_transport.cpp</title>
<!-- Node1 -->
<g id="Node000001" class="node">
<title>Node1</title>
<g id="a_Node000001"><a xlink:title=" ">
<polygon fill="#999999" stroke="#666666" points="405.5,-228 289.5,-228 289.5,-187 405.5,-187 405.5,-228"/>
<text text-anchor="start" x="297.5" y="-216" font-family="Helvetica,sans-Serif" font-size="10.00">src/client/transports</text>
<text text-anchor="start" x="297.5" y="-205" font-family="Helvetica,sans-Serif" font-size="10.00">/framed_stdio_client</text>
<text text-anchor="middle" x="347.5" y="-194" font-family="Helvetica,sans-Serif" font-size="10.00">_transport.cpp</text>
</a>
</g>
</g>
<!-- Node2 -->
<g id="Node000002" class="node">
<title>Node2</title>
<g id="a_Node000002"><a xlink:href="framed__stdio__client__transport_8hpp.html" target="_top" xlink:title=" ">
<polygon fill="white" stroke="#666666" points="187,-151 0,-151 0,-121 187,-121 187,-151"/>
<text text-anchor="start" x="8" y="-139" font-family="Helvetica,sans-Serif" font-size="10.00">jsonrpc/client/transports</text>
<text text-anchor="middle" x="93.5" y="-128" font-family="Helvetica,sans-Serif" font-size="10.00">/framed_stdio_client_transport.hpp</text>
</a>
</g>
</g>
<!-- Node1&#45;&gt;Node2 -->
<g id="edge1_Node000001_Node000002" class="edge">
<title>Node1&#45;&gt;Node2</title>
<g id="a_edge1_Node000001_Node000002"><a xlink:title=" ">
<path fill="none" stroke="#63b8ff" d="M289.23,-190.56C249.04,-179.56 195.72,-164.97 154.88,-153.79"/>
<polygon fill="#63b8ff" stroke="#63b8ff" points="155.61,-150.37 145.04,-151.1 153.76,-157.12 155.61,-150.37"/>
</a>
</g>
</g>
<!-- Node6 -->
<g id="Node000006" class="node">
<title>Node6</title>
<g id="a_Node000006"><a xlink:title=" ">
<polygon fill="#e0e0e0" stroke="#999999" points="264.5,-145.5 204.5,-145.5 204.5,-126.5 264.5,-126.5 264.5,-145.5"/>
<text text-anchor="middle" x="234.5" y="-133.5" font-family="Helvetica,sans-Serif" font-size="10.00">iostream</text>
</a>
</g>
</g>
<!-- Node1&#45;&gt;Node6 -->
<g id="edge7_Node000001_Node000006" class="edge">
<title>Node1&#45;&gt;Node6</title>
<g id="a_edge7_Node000001_Node000006"><a xlink:title=" ">
<path fill="none" stroke="#63b8ff" d="M315.72,-186.96C297,-175.44 273.76,-161.14 256.94,-150.8"/>
<polygon fill="#63b8ff" stroke="#63b8ff" points="258.68,-147.76 248.33,-145.5 255.01,-153.72 258.68,-147.76"/>
</a>
</g>
</g>
<!-- Node7 -->
<g id="Node000007" class="node">
<title>Node7</title>
<g id="a_Node000007"><a xlink:title=" ">
<polygon fill="#e0e0e0" stroke="#999999" points="338.5,-145.5 282.5,-145.5 282.5,-126.5 338.5,-126.5 338.5,-145.5"/>
<text text-anchor="middle" x="310.5" y="-133.5" font-family="Helvetica,sans-Serif" font-size="10.00">optional</text>
</a>
</g>
</g>
<!-- Node1&#45;&gt;Node7 -->
<g id="edge8_Node000001_Node000007" class="edge">
<title>Node1&#45;&gt;Node7</title>
<g id="a_edge8_Node000001_Node000007"><a xlink:title=" ">
<path fill="none" stroke="#63b8ff" d="M337,-186.77C331.67,-176.76 325.24,-164.7 320.06,-154.95"/>
<polygon fill="#63b8ff" stroke="#63b8ff" points="322.98,-153 315.2,-145.82 316.81,-156.29 322.98,-153"/>
</a>
</g>
</g>
<!-- Node8 -->
<g id="Node000008" class="node">
<title>Node8</title>
<g id="a_Node000008"><a xlink:title=" ">
<polygon fill="#e0e0e0" stroke="#999999" points="412.5,-145.5 356.5,-145.5 356.5,-126.5 412.5,-126.5 412.5,-145.5"/>
<text text-anchor="middle" x="384.5" y="-133.5" font-family="Helvetica,sans-Serif" font-size="10.00">sstream</text>
</a>
</g>
</g>
<!-- Node1&#45;&gt;Node8 -->
<g id="edge9_Node000001_Node000008" class="edge">
<title>Node1&#45;&gt;Node8</title>
<g id="a_edge9_Node000001_Node000008"><a xlink:title=" ">
<path fill="none" stroke="#63b8ff" d="M358,-186.77C363.33,-176.76 369.76,-164.7 374.94,-154.95"/>
<polygon fill="#63b8ff" stroke="#63b8ff" points="378.19,-156.29 379.8,-145.82 372.02,-153 378.19,-156.29"/>
</a>
</g>
</g>
<!-- Node9 -->
<g id="Node000009" class="node">
<title>Node9</title>
<g id="a_Node000009"><a xlink:title=" ">
<polygon fill="#e0e0e0" stroke="#999999" points="524,-145.5 431,-145.5 431,-126.5 524,-126.5 524,-145.5"/>
<text text-anchor="middle" x="477.5" y="-133.5" font-family="Helvetica,sans-Serif" font-size="10.00">unordered_map</text>
</a>
</g>
</g>
<!-- Node1&#45;&gt;Node9 -->
<g id="edge10_Node000001_Node000009" class="edge">
<title>Node1&#45;&gt;Node9</title>
<g id="a_edge10_Node000001_Node000009"><a xlink:title=" ">
<path fill="none" stroke="#63b8ff" d="M384.06,-186.96C406,-175.22 433.33,-160.61 452.75,-150.23"/>
<polygon fill="#63b8ff" stroke="#63b8ff" points="454.43,-153.3 461.59,-145.5 451.13,-147.13 454.43,-153.3"/>
</a>
</g>
</g>
<!-- Node10 -->
<g id="Node000010" class="node">
<title>Node10</title>
<g id="a_Node000010"><a xlink:title=" ">
<polygon fill="#e0e0e0" stroke="#999999" points="635,-145.5 542,-145.5 542,-126.5 635,-126.5 635,-145.5"/>
<text text-anchor="middle" x="588.5" y="-133.5" font-family="Helvetica,sans-Serif" font-size="10.00">spdlog/spdlog.h</text>
</a>
</g>
</g>
<!-- Node1&#45;&gt;Node10 -->
<g id="edge11_Node000001_Node000010" class="edge">
<title>Node1&#45;&gt;Node10</title>
<g id="a_edge11_Node000001_Node000010"><a xlink:title=" ">
<path fill="none" stroke="#63b8ff" d="M405.53,-189.76C449.9,-176.97 509.88,-159.67 548.87,-148.43"/>
<polygon fill="#63b8ff" stroke="#63b8ff" points="550.16,-151.7 558.8,-145.57 548.22,-144.97 550.16,-151.7"/>
</a>
</g>
</g>
<!-- Node3 -->
<g id="Node000003" class="node">
<title>Node3</title>
<g id="a_Node000003"><a xlink:title=" ">
<polygon fill="#e0e0e0" stroke="#999999" points="115.5,-19 71.5,-19 71.5,0 115.5,0 115.5,-19"/>
<text text-anchor="middle" x="93.5" y="-7" font-family="Helvetica,sans-Serif" font-size="10.00">string</text>
</a>
</g>
</g>
<!-- Node2&#45;&gt;Node3 -->
<g id="edge2_Node000002_Node000003" class="edge">
<title>Node2&#45;&gt;Node3</title>
<g id="a_edge2_Node000002_Node000003"><a xlink:title=" ">
<path fill="none" stroke="#63b8ff" d="M57.97,-120.96C42.61,-112.9 26.19,-101.13 17.5,-85 11.17,-73.26 10.87,-66.57 17.5,-55 27.01,-38.41 45.36,-27.41 61.65,-20.5"/>
<polygon fill="#63b8ff" stroke="#63b8ff" points="63.37,-23.59 71.43,-16.71 60.84,-17.06 63.37,-23.59"/>
</a>
</g>
</g>
<!-- Node4 -->
<g id="Node000004" class="node">
<title>Node4</title>
<g id="a_Node000004"><a xlink:href="client__transport_8hpp.html" target="_top" xlink:title=" ">
<polygon fill="white" stroke="#666666" points="160.5,-85 26.5,-85 26.5,-55 160.5,-55 160.5,-85"/>
<text text-anchor="start" x="34.5" y="-73" font-family="Helvetica,sans-Serif" font-size="10.00">jsonrpc/client/transports</text>
<text text-anchor="middle" x="93.5" y="-62" font-family="Helvetica,sans-Serif" font-size="10.00">/client_transport.hpp</text>
</a>
</g>
</g>
<!-- Node2&#45;&gt;Node4 -->
<g id="edge3_Node000002_Node000004" class="edge">
<title>Node2&#45;&gt;Node4</title>
<g id="a_edge3_Node000002_Node000004"><a xlink:title=" ">
<path fill="none" stroke="#63b8ff" d="M93.5,-120.8C93.5,-113.34 93.5,-103.99 93.5,-95.41"/>
<polygon fill="#63b8ff" stroke="#63b8ff" points="97,-95.16 93.5,-85.16 90,-95.16 97,-95.16"/>
</a>
</g>
</g>
<!-- Node5 -->
<g id="Node000005" class="node">
<title>Node5</title>
<g id="a_Node000005"><a xlink:href="framed__transport_8hpp.html" target="_top" xlink:title=" ">
<polygon fill="white" stroke="#666666" points="328.5,-85 178.5,-85 178.5,-55 328.5,-55 328.5,-85"/>
<text text-anchor="start" x="186.5" y="-73" font-family="Helvetica,sans-Serif" font-size="10.00">jsonrpc/common/transports</text>
<text text-anchor="middle" x="253.5" y="-62" font-family="Helvetica,sans-Serif" font-size="10.00">/framed_transport.hpp</text>
</a>
</g>
</g>
<!-- Node2&#45;&gt;Node5 -->
<g id="edge5_Node000002_Node000005" class="edge">
<title>Node2&#45;&gt;Node5</title>
<g id="a_edge5_Node000002_Node000005"><a xlink:title=" ">
<path fill="none" stroke="#63b8ff" d="M128.61,-120.95C152.27,-111.49 183.66,-98.93 209.06,-88.78"/>
<polygon fill="#63b8ff" stroke="#63b8ff" points="210.48,-91.98 218.47,-85.01 207.88,-85.48 210.48,-91.98"/>
</a>
</g>
</g>
<!-- Node4&#45;&gt;Node3 -->
<g id="edge4_Node000004_Node000003" class="edge">
<title>Node4&#45;&gt;Node3</title>
<g id="a_edge4_Node000004_Node000003"><a xlink:title=" ">
<path fill="none" stroke="#63b8ff" d="M93.5,-54.84C93.5,-47.21 93.5,-37.7 93.5,-29.45"/>
<polygon fill="#63b8ff" stroke="#63b8ff" points="97,-29.27 93.5,-19.27 90,-29.27 97,-29.27"/>
</a>
</g>
</g>
<!-- Node5&#45;&gt;Node3 -->
<g id="edge6_Node000005_Node000003" class="edge">
<title>Node5&#45;&gt;Node3</title>
<g id="a_edge6_Node000005_Node000003"><a xlink:title=" ">
<path fill="none" stroke="#63b8ff" d="M215.18,-54.99C187.75,-44.96 151.27,-31.62 125.42,-22.17"/>
<polygon fill="#63b8ff" stroke="#63b8ff" points="126.33,-18.78 115.74,-18.63 123.93,-25.35 126.33,-18.78"/>
</a>
</g>
</g>
</g>
</svg>
