<?xml version="1.0" encoding="UTF-8" standalone="no"?>
<!DOCTYPE svg PUBLIC "-//W3C//DTD SVG 1.1//EN"
 "http://www.w3.org/Graphics/SVG/1.1/DTD/svg11.dtd">
<!-- Generated by graphviz version 2.43.0 (0)
 -->
<!-- Title: include/jsonrpc/transport/framed_stdio_transport.hpp Pages: 1 -->
<svg width="344pt" height="159pt"
 viewBox="0.00 0.00 344.45 159.00" xmlns="http://www.w3.org/2000/svg" xmlns:xlink="http://www.w3.org/1999/xlink">
<g id="graph0" class="graph" transform="scale(1 1) rotate(0) translate(4 155)">
<title>include/jsonrpc/transport/framed_stdio_transport.hpp</title>
<!-- Node1 -->
<g id="Node000001" class="node">
<title>Node1</title>
<g id="a_Node000001"><a xlink:title=" ">
<polygon fill="#999999" stroke="#666666" points="160.45,-151 5.45,-151 5.45,-121 160.45,-121 160.45,-151"/>
<text text-anchor="start" x="13.45" y="-139" font-family="Helvetica,sans-Serif" font-size="10.00">include/jsonrpc/transport</text>
<text text-anchor="middle" x="82.95" y="-128" font-family="Helvetica,sans-Serif" font-size="10.00">/framed_stdio_transport.hpp</text>
</a>
</g>
</g>
<!-- Node2 -->
<g id="Node000002" class="node">
<title>Node2</title>
<g id="a_Node000002"><a xlink:title=" ">
<polygon fill="#e0e0e0" stroke="#999999" points="104.95,-19 60.95,-19 60.95,0 104.95,0 104.95,-19"/>
<text text-anchor="middle" x="82.95" y="-7" font-family="Helvetica,sans-Serif" font-size="10.00">string</text>
</a>
</g>
</g>
<!-- Node1&#45;&gt;Node2 -->
<g id="edge1_Node000001_Node000002" class="edge">
<title>Node1&#45;&gt;Node2</title>
<g id="a_edge1_Node000001_Node000002"><a xlink:title=" ">
<path fill="none" stroke="#63b8ff" d="M46.1,-120.98C30.46,-112.97 13.82,-101.23 4.95,-85 -1.45,-73.3 -1.75,-66.53 4.95,-55 14.9,-37.87 34.18,-26.78 51.09,-19.96"/>
<polygon fill="#63b8ff" stroke="#63b8ff" points="52.51,-23.16 60.68,-16.42 50.09,-16.6 52.51,-23.16"/>
</a>
</g>
</g>
<!-- Node3 -->
<g id="Node000003" class="node">
<title>Node3</title>
<g id="a_Node000003"><a xlink:href="framed__transport_8hpp.html" target="_top" xlink:title=" ">
<polygon fill="white" stroke="#666666" points="151.45,-85 14.45,-85 14.45,-55 151.45,-55 151.45,-85"/>
<text text-anchor="start" x="22.45" y="-73" font-family="Helvetica,sans-Serif" font-size="10.00">jsonrpc/transport/framed</text>
<text text-anchor="middle" x="82.95" y="-62" font-family="Helvetica,sans-Serif" font-size="10.00">_transport.hpp</text>
</a>
</g>
</g>
<!-- Node1&#45;&gt;Node3 -->
<g id="edge2_Node000001_Node000003" class="edge">
<title>Node1&#45;&gt;Node3</title>
<g id="a_edge2_Node000001_Node000003"><a xlink:title=" ">
<path fill="none" stroke="#63b8ff" d="M82.95,-120.8C82.95,-113.34 82.95,-103.99 82.95,-95.41"/>
<polygon fill="#63b8ff" stroke="#63b8ff" points="86.45,-95.16 82.95,-85.16 79.45,-95.16 86.45,-95.16"/>
</a>
</g>
</g>
<!-- Node4 -->
<g id="Node000004" class="node">
<title>Node4</title>
<g id="a_Node000004"><a xlink:href="transport_8hpp.html" target="_top" xlink:title=" ">
<polygon fill="white" stroke="#666666" points="336.45,-79.5 169.45,-79.5 169.45,-60.5 336.45,-60.5 336.45,-79.5"/>
<text text-anchor="middle" x="252.95" y="-67.5" font-family="Helvetica,sans-Serif" font-size="10.00">jsonrpc/transport/transport.hpp</text>
</a>
</g>
</g>
<!-- Node1&#45;&gt;Node4 -->
<g id="edge4_Node000001_Node000004" class="edge">
<title>Node1&#45;&gt;Node4</title>
<g id="a_edge4_Node000001_Node000004"><a xlink:title=" ">
<path fill="none" stroke="#63b8ff" d="M120.25,-120.95C150.33,-109.63 192.19,-93.88 220.8,-83.1"/>
<polygon fill="#63b8ff" stroke="#63b8ff" points="222.2,-86.32 230.32,-79.52 219.73,-79.77 222.2,-86.32"/>
</a>
</g>
</g>
<!-- Node3&#45;&gt;Node2 -->
<g id="edge3_Node000003_Node000002" class="edge">
<title>Node3&#45;&gt;Node2</title>
<g id="a_edge3_Node000003_Node000002"><a xlink:title=" ">
<path fill="none" stroke="#63b8ff" d="M82.95,-54.84C82.95,-47.21 82.95,-37.7 82.95,-29.45"/>
<polygon fill="#63b8ff" stroke="#63b8ff" points="86.45,-29.27 82.95,-19.27 79.45,-29.27 86.45,-29.27"/>
</a>
</g>
</g>
<!-- Node4&#45;&gt;Node2 -->
<g id="edge5_Node000004_Node000002" class="edge">
<title>Node4&#45;&gt;Node2</title>
<g id="a_edge5_Node000004_Node000002"><a xlink:title=" ">
<path fill="none" stroke="#63b8ff" d="M228.23,-60.49C198.18,-50.16 147.44,-32.69 114.57,-21.38"/>
<polygon fill="#63b8ff" stroke="#63b8ff" points="115.59,-18.03 104.99,-18.09 113.31,-24.65 115.59,-18.03"/>
</a>
</g>
</g>
</g>
</svg>
