<?xml version="1.0" encoding="UTF-8" standalone="no"?>
<!DOCTYPE svg PUBLIC "-//W3C//DTD SVG 1.1//EN"
 "http://www.w3.org/Graphics/SVG/1.1/DTD/svg11.dtd">
<!-- Generated by graphviz version 2.43.0 (0)
 -->
<!-- Title: src/transports/framed_stdio_server_transport.cpp Pages: 1 -->
<svg width="1129pt" height="412pt"
 viewBox="0.00 0.00 1129.31 412.00" xmlns="http://www.w3.org/2000/svg" xmlns:xlink="http://www.w3.org/1999/xlink">
<g id="graph0" class="graph" transform="scale(1 1) rotate(0) translate(4 408)">
<title>src/transports/framed_stdio_server_transport.cpp</title>
<!-- Node1 -->
<g id="Node000001" class="node">
<title>Node1</title>
<g id="a_Node000001"><a xlink:title=" ">
<polygon fill="#999999" stroke="#666666" points="248,-404 96,-404 96,-374 248,-374 248,-404"/>
<text text-anchor="start" x="104" y="-392" font-family="Helvetica,sans-Serif" font-size="10.00">src/transports/framed</text>
<text text-anchor="middle" x="172" y="-381" font-family="Helvetica,sans-Serif" font-size="10.00">_stdio_server_transport.cpp</text>
</a>
</g>
</g>
<!-- Node2 -->
<g id="Node000002" class="node">
<title>Node2</title>
<g id="a_Node000002"><a xlink:title=" ">
<polygon fill="#e0e0e0" stroke="#999999" points="60,-327 0,-327 0,-308 60,-308 60,-327"/>
<text text-anchor="middle" x="30" y="-315" font-family="Helvetica,sans-Serif" font-size="10.00">iostream</text>
</a>
</g>
</g>
<!-- Node1&#45;&gt;Node2 -->
<g id="edge1_Node000001_Node000002" class="edge">
<title>Node1&#45;&gt;Node2</title>
<g id="a_edge1_Node000001_Node000002"><a xlink:title=" ">
<path fill="none" stroke="#63b8ff" d="M143.26,-373.94C117.94,-361.54 81.33,-343.62 56.65,-331.54"/>
<polygon fill="#63b8ff" stroke="#63b8ff" points="58.03,-328.32 47.51,-327.07 54.95,-334.61 58.03,-328.32"/>
</a>
</g>
</g>
<!-- Node3 -->
<g id="Node000003" class="node">
<title>Node3</title>
<g id="a_Node000003"><a xlink:title=" ">
<polygon fill="#e0e0e0" stroke="#999999" points="444,-19 388,-19 388,0 444,0 444,-19"/>
<text text-anchor="middle" x="416" y="-7" font-family="Helvetica,sans-Serif" font-size="10.00">optional</text>
</a>
</g>
</g>
<!-- Node1&#45;&gt;Node3 -->
<g id="edge2_Node000001_Node000003" class="edge">
<title>Node1&#45;&gt;Node3</title>
<g id="a_edge2_Node000001_Node000003"><a xlink:title=" ">
<path fill="none" stroke="#63b8ff" d="M145.79,-373.96C132.18,-365.35 116.46,-353.07 107,-338 85.04,-303 88,-288.32 88,-247 88,-247 88,-247 88,-124 88,-63.27 291.32,-27.81 377.81,-15.48"/>
<polygon fill="#63b8ff" stroke="#63b8ff" points="378.33,-18.94 387.75,-14.09 377.36,-12.01 378.33,-18.94"/>
</a>
</g>
</g>
<!-- Node4 -->
<g id="Node000004" class="node">
<title>Node4</title>
<g id="a_Node000004"><a xlink:title=" ">
<polygon fill="#e0e0e0" stroke="#999999" points="172,-327 116,-327 116,-308 172,-308 172,-327"/>
<text text-anchor="middle" x="144" y="-315" font-family="Helvetica,sans-Serif" font-size="10.00">sstream</text>
</a>
</g>
</g>
<!-- Node1&#45;&gt;Node4 -->
<g id="edge3_Node000001_Node000004" class="edge">
<title>Node1&#45;&gt;Node4</title>
<g id="a_edge3_Node000001_Node000004"><a xlink:title=" ">
<path fill="none" stroke="#63b8ff" d="M166.33,-373.94C162.03,-363.25 156.07,-348.45 151.39,-336.83"/>
<polygon fill="#63b8ff" stroke="#63b8ff" points="154.52,-335.23 147.53,-327.27 148.02,-337.85 154.52,-335.23"/>
</a>
</g>
</g>
<!-- Node5 -->
<g id="Node000005" class="node">
<title>Node5</title>
<g id="a_Node000005"><a xlink:title=" ">
<polygon fill="#e0e0e0" stroke="#999999" points="359.5,-74 266.5,-74 266.5,-55 359.5,-55 359.5,-74"/>
<text text-anchor="middle" x="313" y="-62" font-family="Helvetica,sans-Serif" font-size="10.00">unordered_map</text>
</a>
</g>
</g>
<!-- Node1&#45;&gt;Node5 -->
<g id="edge4_Node000001_Node000005" class="edge">
<title>Node1&#45;&gt;Node5</title>
<g id="a_edge4_Node000001_Node000005"><a xlink:title=" ">
<path fill="none" stroke="#63b8ff" d="M176.75,-373.77C184.74,-348.54 200,-294.17 200,-247 200,-247 200,-247 200,-184.5 200,-134.76 252.56,-97.52 285.98,-78.86"/>
<polygon fill="#63b8ff" stroke="#63b8ff" points="287.69,-81.91 294.84,-74.1 284.38,-75.75 287.69,-81.91"/>
</a>
</g>
</g>
<!-- Node6 -->
<g id="Node000006" class="node">
<title>Node6</title>
<g id="a_Node000006"><a xlink:title=" ">
<polygon fill="#e0e0e0" stroke="#999999" points="321.5,-327 228.5,-327 228.5,-308 321.5,-308 321.5,-327"/>
<text text-anchor="middle" x="275" y="-315" font-family="Helvetica,sans-Serif" font-size="10.00">spdlog/spdlog.h</text>
</a>
</g>
</g>
<!-- Node1&#45;&gt;Node6 -->
<g id="edge5_Node000001_Node000006" class="edge">
<title>Node1&#45;&gt;Node6</title>
<g id="a_edge5_Node000001_Node000006"><a xlink:title=" ">
<path fill="none" stroke="#63b8ff" d="M192.84,-373.94C210.56,-361.98 235.9,-344.88 253.74,-332.85"/>
<polygon fill="#63b8ff" stroke="#63b8ff" points="255.97,-335.56 262.3,-327.07 252.06,-329.76 255.97,-335.56"/>
</a>
</g>
</g>
<!-- Node7 -->
<g id="Node000007" class="node">
<title>Node7</title>
<g id="a_Node000007"><a xlink:href="framed__stdio__server__transport_8hpp.html" target="_top" xlink:title=" ">
<polygon fill="white" stroke="#666666" points="870,-338 750,-338 750,-297 870,-297 870,-338"/>
<text text-anchor="start" x="758" y="-326" font-family="Helvetica,sans-Serif" font-size="10.00">json_rpc/transports</text>
<text text-anchor="start" x="758" y="-315" font-family="Helvetica,sans-Serif" font-size="10.00">/framed_stdio_server</text>
<text text-anchor="middle" x="810" y="-304" font-family="Helvetica,sans-Serif" font-size="10.00">_transport.hpp</text>
</a>
</g>
</g>
<!-- Node1&#45;&gt;Node7 -->
<g id="edge6_Node000001_Node000007" class="edge">
<title>Node1&#45;&gt;Node7</title>
<g id="a_edge6_Node000001_Node000007"><a xlink:title=" ">
<path fill="none" stroke="#63b8ff" d="M248.01,-379.72C372.58,-366.15 618.41,-339.37 739.38,-326.19"/>
<polygon fill="#63b8ff" stroke="#63b8ff" points="740.07,-329.64 749.64,-325.08 739.31,-322.68 740.07,-329.64"/>
</a>
</g>
</g>
<!-- Node8 -->
<g id="Node000008" class="node">
<title>Node8</title>
<g id="a_Node000008"><a xlink:title=" ">
<polygon fill="#e0e0e0" stroke="#999999" points="540,-74 496,-74 496,-55 540,-55 540,-74"/>
<text text-anchor="middle" x="518" y="-62" font-family="Helvetica,sans-Serif" font-size="10.00">string</text>
</a>
</g>
</g>
<!-- Node7&#45;&gt;Node8 -->
<g id="edge7_Node000007_Node000008" class="edge">
<title>Node7&#45;&gt;Node8</title>
<g id="a_edge7_Node000007_Node000008"><a xlink:title=" ">
<path fill="none" stroke="#63b8ff" d="M749.81,-314.83C644.28,-308.25 427.96,-277.72 332,-140 293.09,-84.15 422.34,-70.15 485.41,-66.66"/>
<polygon fill="#63b8ff" stroke="#63b8ff" points="485.83,-70.14 495.64,-66.15 485.48,-63.15 485.83,-70.14"/>
</a>
</g>
</g>
<!-- Node9 -->
<g id="Node000009" class="node">
<title>Node9</title>
<g id="a_Node000009"><a xlink:href="server__transport_8hpp.html" target="_top" xlink:title=" ">
<polygon fill="white" stroke="#666666" points="867.5,-261 752.5,-261 752.5,-231 867.5,-231 867.5,-261"/>
<text text-anchor="start" x="760.5" y="-249" font-family="Helvetica,sans-Serif" font-size="10.00">json_rpc/core/server</text>
<text text-anchor="middle" x="810" y="-238" font-family="Helvetica,sans-Serif" font-size="10.00">_transport.hpp</text>
</a>
</g>
</g>
<!-- Node7&#45;&gt;Node9 -->
<g id="edge8_Node000007_Node000009" class="edge">
<title>Node7&#45;&gt;Node9</title>
<g id="a_edge8_Node000007_Node000009"><a xlink:title=" ">
<path fill="none" stroke="#63b8ff" d="M810,-296.77C810,-288.85 810,-279.63 810,-271.3"/>
<polygon fill="#63b8ff" stroke="#63b8ff" points="813.5,-271.04 810,-261.04 806.5,-271.04 813.5,-271.04"/>
</a>
</g>
</g>
<!-- Node15 -->
<g id="Node000015" class="node">
<title>Node15</title>
<g id="a_Node000015"><a xlink:href="types_8hpp.html" target="_top" xlink:title=" ">
<polygon fill="white" stroke="#666666" points="980,-74 848,-74 848,-55 980,-55 980,-74"/>
<text text-anchor="middle" x="914" y="-62" font-family="Helvetica,sans-Serif" font-size="10.00">json_rpc/core/types.hpp</text>
</a>
</g>
</g>
<!-- Node7&#45;&gt;Node15 -->
<g id="edge32_Node000007_Node000015" class="edge">
<title>Node7&#45;&gt;Node15</title>
<g id="a_edge32_Node000007_Node000015"><a xlink:title=" ">
<path fill="none" stroke="#63b8ff" d="M870.05,-301.44C942.95,-279.57 1062.63,-231.27 1115,-140 1144.55,-88.49 1059.18,-72.25 990.67,-67.32"/>
<polygon fill="#63b8ff" stroke="#63b8ff" points="990.47,-63.8 980.27,-66.65 990.02,-70.79 990.47,-63.8"/>
</a>
</g>
</g>
<!-- Node21 -->
<g id="Node000021" class="node">
<title>Node21</title>
<g id="a_Node000021"><a xlink:href="framed__transport_8hpp.html" target="_top" xlink:title=" ">
<polygon fill="white" stroke="#666666" points="1105.5,-140 980.5,-140 980.5,-110 1105.5,-110 1105.5,-140"/>
<text text-anchor="start" x="988.5" y="-128" font-family="Helvetica,sans-Serif" font-size="10.00">json_rpc/transports</text>
<text text-anchor="middle" x="1043" y="-117" font-family="Helvetica,sans-Serif" font-size="10.00">/framed_transport.hpp</text>
</a>
</g>
</g>
<!-- Node7&#45;&gt;Node21 -->
<g id="edge33_Node000007_Node000021" class="edge">
<title>Node7&#45;&gt;Node21</title>
<g id="a_edge33_Node000007_Node000021"><a xlink:title=" ">
<path fill="none" stroke="#63b8ff" d="M834.06,-296.83C878.39,-260.59 972.56,-183.59 1017.76,-146.64"/>
<polygon fill="#63b8ff" stroke="#63b8ff" points="1020.08,-149.26 1025.61,-140.22 1015.65,-143.84 1020.08,-149.26"/>
</a>
</g>
</g>
<!-- Node10 -->
<g id="Node000010" class="node">
<title>Node10</title>
<g id="a_Node000010"><a xlink:title=" ">
<polygon fill="#e0e0e0" stroke="#999999" points="799,-195 749,-195 749,-176 799,-176 799,-195"/>
<text text-anchor="middle" x="774" y="-183" font-family="Helvetica,sans-Serif" font-size="10.00">atomic</text>
</a>
</g>
</g>
<!-- Node9&#45;&gt;Node10 -->
<g id="edge9_Node000009_Node000010" class="edge">
<title>Node9&#45;&gt;Node10</title>
<g id="a_edge9_Node000009_Node000010"><a xlink:title=" ">
<path fill="none" stroke="#63b8ff" d="M801.29,-230.84C796.33,-222.78 790.07,-212.62 784.8,-204.06"/>
<polygon fill="#63b8ff" stroke="#63b8ff" points="787.62,-201.95 779.39,-195.27 781.65,-205.62 787.62,-201.95"/>
</a>
</g>
</g>
<!-- Node11 -->
<g id="Node000011" class="node">
<title>Node11</title>
<g id="a_Node000011"><a xlink:title=" ">
<polygon fill="#e0e0e0" stroke="#999999" points="875,-195 817,-195 817,-176 875,-176 875,-195"/>
<text text-anchor="middle" x="846" y="-183" font-family="Helvetica,sans-Serif" font-size="10.00">memory</text>
</a>
</g>
</g>
<!-- Node9&#45;&gt;Node11 -->
<g id="edge10_Node000009_Node000011" class="edge">
<title>Node9&#45;&gt;Node11</title>
<g id="a_edge10_Node000009_Node000011"><a xlink:title=" ">
<path fill="none" stroke="#63b8ff" d="M818.71,-230.84C823.67,-222.78 829.93,-212.62 835.2,-204.06"/>
<polygon fill="#63b8ff" stroke="#63b8ff" points="838.35,-205.62 840.61,-195.27 832.38,-201.95 838.35,-205.62"/>
</a>
</g>
</g>
<!-- Node12 -->
<g id="Node000012" class="node">
<title>Node12</title>
<g id="a_Node000012"><a xlink:href="dispatcher_8hpp.html" target="_top" xlink:title=" ">
<polygon fill="white" stroke="#666666" points="680.5,-195 525.5,-195 525.5,-176 680.5,-176 680.5,-195"/>
<text text-anchor="middle" x="603" y="-183" font-family="Helvetica,sans-Serif" font-size="10.00">json_rpc/core/dispatcher.hpp</text>
</a>
</g>
</g>
<!-- Node9&#45;&gt;Node12 -->
<g id="edge11_Node000009_Node000012" class="edge">
<title>Node9&#45;&gt;Node12</title>
<g id="a_edge11_Node000009_Node000012"><a xlink:title=" ">
<path fill="none" stroke="#63b8ff" d="M760.42,-230.99C724.54,-220.85 676.67,-207.32 643.17,-197.85"/>
<polygon fill="#63b8ff" stroke="#63b8ff" points="643.84,-194.41 633.27,-195.05 641.94,-201.14 643.84,-194.41"/>
</a>
</g>
</g>
<!-- Node9&#45;&gt;Node15 -->
<g id="edge31_Node000009_Node000015" class="edge">
<title>Node9&#45;&gt;Node15</title>
<g id="a_edge31_Node000009_Node000015"><a xlink:title=" ">
<path fill="none" stroke="#63b8ff" d="M836.83,-230.87C851.95,-222 870.45,-209.5 884,-195 903.31,-174.34 908.63,-167.3 916,-140 920.94,-121.68 919.57,-99.91 917.49,-84.65"/>
<polygon fill="#63b8ff" stroke="#63b8ff" points="920.89,-83.73 915.86,-74.41 913.98,-84.84 920.89,-83.73"/>
</a>
</g>
</g>
<!-- Node12&#45;&gt;Node3 -->
<g id="edge12_Node000012_Node000003" class="edge">
<title>Node12&#45;&gt;Node3</title>
<g id="a_edge12_Node000012_Node000003"><a xlink:title=" ">
<path fill="none" stroke="#63b8ff" d="M525.22,-178.72C451.98,-172.18 348.4,-159.79 313,-140 279.42,-121.23 270.26,-110.11 257,-74 238.51,-23.64 325.11,-12.73 377.82,-10.67"/>
<polygon fill="#63b8ff" stroke="#63b8ff" points="377.98,-14.17 387.87,-10.37 377.76,-7.17 377.98,-14.17"/>
</a>
</g>
</g>
<!-- Node12&#45;&gt;Node5 -->
<g id="edge14_Node000012_Node000005" class="edge">
<title>Node12&#45;&gt;Node5</title>
<g id="a_edge14_Node000012_Node000005"><a xlink:title=" ">
<path fill="none" stroke="#63b8ff" d="M525.47,-181.05C455.57,-176.33 359.63,-165.33 332,-140 316.73,-126 312.99,-101.6 312.41,-84.55"/>
<polygon fill="#63b8ff" stroke="#63b8ff" points="315.91,-84.14 312.42,-74.14 308.91,-84.14 315.91,-84.14"/>
</a>
</g>
</g>
<!-- Node12&#45;&gt;Node8 -->
<g id="edge13_Node000012_Node000008" class="edge">
<title>Node12&#45;&gt;Node8</title>
<g id="a_edge13_Node000012_Node000008"><a xlink:title=" ">
<path fill="none" stroke="#63b8ff" d="M583.7,-175.94C569.06,-168.48 549.54,-156.29 538,-140 526.29,-123.47 521.43,-100.46 519.42,-84.4"/>
<polygon fill="#63b8ff" stroke="#63b8ff" points="522.87,-83.73 518.4,-74.13 515.91,-84.43 522.87,-83.73"/>
</a>
</g>
</g>
<!-- Node13 -->
<g id="Node000013" class="node">
<title>Node13</title>
<g id="a_Node000013"><a xlink:title=" ">
<polygon fill="#e0e0e0" stroke="#999999" points="885.5,-134.5 838.5,-134.5 838.5,-115.5 885.5,-115.5 885.5,-134.5"/>
<text text-anchor="middle" x="862" y="-122.5" font-family="Helvetica,sans-Serif" font-size="10.00">vector</text>
</a>
</g>
</g>
<!-- Node12&#45;&gt;Node13 -->
<g id="edge15_Node000012_Node000013" class="edge">
<title>Node12&#45;&gt;Node13</title>
<g id="a_edge15_Node000012_Node000013"><a xlink:title=" ">
<path fill="none" stroke="#63b8ff" d="M664.27,-175.95C710.22,-168.7 774.33,-156.78 829,-140 830.68,-139.49 832.38,-138.91 834.1,-138.31"/>
<polygon fill="#63b8ff" stroke="#63b8ff" points="835.71,-141.43 843.75,-134.54 833.16,-134.91 835.71,-141.43"/>
</a>
</g>
</g>
<!-- Node14 -->
<g id="Node000014" class="node">
<title>Node14</title>
<g id="a_Node000014"><a xlink:href="request_8hpp.html" target="_top" xlink:title=" ">
<polygon fill="white" stroke="#666666" points="820,-134.5 678,-134.5 678,-115.5 820,-115.5 820,-134.5"/>
<text text-anchor="middle" x="749" y="-122.5" font-family="Helvetica,sans-Serif" font-size="10.00">json_rpc/core/request.hpp</text>
</a>
</g>
</g>
<!-- Node12&#45;&gt;Node14 -->
<g id="edge16_Node000012_Node000014" class="edge">
<title>Node12&#45;&gt;Node14</title>
<g id="a_edge16_Node000012_Node000014"><a xlink:title=" ">
<path fill="none" stroke="#63b8ff" d="M624.23,-175.99C648.99,-166.07 690.12,-149.59 718.35,-138.28"/>
<polygon fill="#63b8ff" stroke="#63b8ff" points="719.76,-141.49 727.74,-134.52 717.16,-134.99 719.76,-141.49"/>
</a>
</g>
</g>
<!-- Node12&#45;&gt;Node15 -->
<g id="edge29_Node000012_Node000015" class="edge">
<title>Node12&#45;&gt;Node15</title>
<g id="a_edge29_Node000012_Node000015"><a xlink:title=" ">
<path fill="none" stroke="#63b8ff" d="M680.78,-177.09C761.84,-168.67 879.28,-154.25 895,-140 910.35,-126.09 914.07,-101.67 914.62,-84.59"/>
<polygon fill="#63b8ff" stroke="#63b8ff" points="918.12,-84.15 914.6,-74.16 911.12,-84.17 918.12,-84.15"/>
</a>
</g>
</g>
<!-- Node19 -->
<g id="Node000019" class="node">
<title>Node19</title>
<g id="a_Node000019"><a xlink:href="response_8hpp.html" target="_top" xlink:title=" ">
<polygon fill="white" stroke="#666666" points="490.5,-134.5 341.5,-134.5 341.5,-115.5 490.5,-115.5 490.5,-134.5"/>
<text text-anchor="middle" x="416" y="-122.5" font-family="Helvetica,sans-Serif" font-size="10.00">json_rpc/core/response.hpp</text>
</a>
</g>
</g>
<!-- Node12&#45;&gt;Node19 -->
<g id="edge24_Node000012_Node000019" class="edge">
<title>Node12&#45;&gt;Node19</title>
<g id="a_edge24_Node000012_Node000019"><a xlink:title=" ">
<path fill="none" stroke="#63b8ff" d="M575.81,-175.99C543.4,-165.86 489.1,-148.87 452.92,-137.55"/>
<polygon fill="#63b8ff" stroke="#63b8ff" points="453.81,-134.16 443.22,-134.52 451.72,-140.84 453.81,-134.16"/>
</a>
</g>
</g>
<!-- Node20 -->
<g id="Node000020" class="node">
<title>Node20</title>
<g id="a_Node000020"><a xlink:title=" ">
<polygon fill="#e0e0e0" stroke="#999999" points="659.5,-134.5 546.5,-134.5 546.5,-115.5 659.5,-115.5 659.5,-134.5"/>
<text text-anchor="middle" x="603" y="-122.5" font-family="Helvetica,sans-Serif" font-size="10.00">BS_thread_pool.hpp</text>
</a>
</g>
</g>
<!-- Node12&#45;&gt;Node20 -->
<g id="edge30_Node000012_Node000020" class="edge">
<title>Node12&#45;&gt;Node20</title>
<g id="a_edge30_Node000012_Node000020"><a xlink:title=" ">
<path fill="none" stroke="#63b8ff" d="M603,-175.87C603,-167.75 603,-155.31 603,-144.89"/>
<polygon fill="#63b8ff" stroke="#63b8ff" points="606.5,-144.67 603,-134.67 599.5,-144.67 606.5,-144.67"/>
</a>
</g>
</g>
<!-- Node14&#45;&gt;Node3 -->
<g id="edge17_Node000014_Node000003" class="edge">
<title>Node14&#45;&gt;Node3</title>
<g id="a_edge17_Node000014_Node000003"><a xlink:title=" ">
<path fill="none" stroke="#63b8ff" d="M724.39,-115.43C686.68,-102.31 612.3,-76.51 549,-55 516.09,-43.82 478.52,-31.27 451.73,-22.35"/>
<polygon fill="#63b8ff" stroke="#63b8ff" points="452.61,-18.96 442.02,-19.13 450.4,-25.6 452.61,-18.96"/>
</a>
</g>
</g>
<!-- Node14&#45;&gt;Node8 -->
<g id="edge18_Node000014_Node000008" class="edge">
<title>Node14&#45;&gt;Node8</title>
<g id="a_edge18_Node000014_Node000008"><a xlink:title=" ">
<path fill="none" stroke="#63b8ff" d="M715.41,-115.49C671.04,-104.26 593.45,-84.61 549.93,-73.59"/>
<polygon fill="#63b8ff" stroke="#63b8ff" points="550.71,-70.17 540.15,-71.11 548.99,-76.96 550.71,-70.17"/>
</a>
</g>
</g>
<!-- Node14&#45;&gt;Node15 -->
<g id="edge19_Node000014_Node000015" class="edge">
<title>Node14&#45;&gt;Node15</title>
<g id="a_edge19_Node000014_Node000015"><a xlink:title=" ">
<path fill="none" stroke="#63b8ff" d="M772.99,-115.49C801.22,-105.49 848.28,-88.8 880.19,-77.49"/>
<polygon fill="#63b8ff" stroke="#63b8ff" points="881.72,-80.66 889.98,-74.02 879.38,-74.06 881.72,-80.66"/>
</a>
</g>
</g>
<!-- Node15&#45;&gt;Node3 -->
<g id="edge21_Node000015_Node000003" class="edge">
<title>Node15&#45;&gt;Node3</title>
<g id="a_edge21_Node000015_Node000003"><a xlink:title=" ">
<path fill="none" stroke="#63b8ff" d="M847.87,-56.46C742.32,-45.23 539.06,-23.6 454.44,-14.59"/>
<polygon fill="#63b8ff" stroke="#63b8ff" points="454.56,-11.08 444.25,-13.51 453.82,-18.04 454.56,-11.08"/>
</a>
</g>
</g>
<!-- Node16 -->
<g id="Node000016" class="node">
<title>Node16</title>
<g id="a_Node000016"><a xlink:title=" ">
<polygon fill="#e0e0e0" stroke="#999999" points="946.5,-19 881.5,-19 881.5,0 946.5,0 946.5,-19"/>
<text text-anchor="middle" x="914" y="-7" font-family="Helvetica,sans-Serif" font-size="10.00">functional</text>
</a>
</g>
</g>
<!-- Node15&#45;&gt;Node16 -->
<g id="edge20_Node000015_Node000016" class="edge">
<title>Node15&#45;&gt;Node16</title>
<g id="a_edge20_Node000015_Node000016"><a xlink:title=" ">
<path fill="none" stroke="#63b8ff" d="M914,-54.75C914,-47.8 914,-37.85 914,-29.13"/>
<polygon fill="#63b8ff" stroke="#63b8ff" points="917.5,-29.09 914,-19.09 910.5,-29.09 917.5,-29.09"/>
</a>
</g>
</g>
<!-- Node17 -->
<g id="Node000017" class="node">
<title>Node17</title>
<g id="a_Node000017"><a xlink:title=" ">
<polygon fill="#e0e0e0" stroke="#999999" points="1015.5,-19 964.5,-19 964.5,0 1015.5,0 1015.5,-19"/>
<text text-anchor="middle" x="990" y="-7" font-family="Helvetica,sans-Serif" font-size="10.00">variant</text>
</a>
</g>
</g>
<!-- Node15&#45;&gt;Node17 -->
<g id="edge22_Node000015_Node000017" class="edge">
<title>Node15&#45;&gt;Node17</title>
<g id="a_edge22_Node000015_Node000017"><a xlink:title=" ">
<path fill="none" stroke="#63b8ff" d="M926.21,-54.98C937.78,-46.92 955.38,-34.65 969.16,-25.03"/>
<polygon fill="#63b8ff" stroke="#63b8ff" points="971.37,-27.76 977.57,-19.17 967.36,-22.02 971.37,-27.76"/>
</a>
</g>
</g>
<!-- Node18 -->
<g id="Node000018" class="node">
<title>Node18</title>
<g id="a_Node000018"><a xlink:title=" ">
<polygon fill="#e0e0e0" stroke="#999999" points="863,-19 753,-19 753,0 863,0 863,-19"/>
<text text-anchor="middle" x="808" y="-7" font-family="Helvetica,sans-Serif" font-size="10.00">nlohmann/json.hpp</text>
</a>
</g>
</g>
<!-- Node15&#45;&gt;Node18 -->
<g id="edge23_Node000015_Node000018" class="edge">
<title>Node15&#45;&gt;Node18</title>
<g id="a_edge23_Node000015_Node000018"><a xlink:title=" ">
<path fill="none" stroke="#63b8ff" d="M896.97,-54.98C880.07,-46.54 853.94,-33.47 834.36,-23.68"/>
<polygon fill="#63b8ff" stroke="#63b8ff" points="835.85,-20.51 825.34,-19.17 832.72,-26.77 835.85,-20.51"/>
</a>
</g>
</g>
<!-- Node19&#45;&gt;Node3 -->
<g id="edge25_Node000019_Node000003" class="edge">
<title>Node19&#45;&gt;Node3</title>
<g id="a_edge25_Node000019_Node000003"><a xlink:title=" ">
<path fill="none" stroke="#63b8ff" d="M416,-115.47C416,-97.23 416,-54.07 416,-29.14"/>
<polygon fill="#63b8ff" stroke="#63b8ff" points="419.5,-29.13 416,-19.13 412.5,-29.13 419.5,-29.13"/>
</a>
</g>
</g>
<!-- Node19&#45;&gt;Node5 -->
<g id="edge27_Node000019_Node000005" class="edge">
<title>Node19&#45;&gt;Node5</title>
<g id="a_edge27_Node000019_Node000005"><a xlink:title=" ">
<path fill="none" stroke="#63b8ff" d="M400.8,-115.37C383.99,-105.82 356.68,-90.31 336.98,-79.12"/>
<polygon fill="#63b8ff" stroke="#63b8ff" points="338.68,-76.06 328.26,-74.17 335.23,-82.15 338.68,-76.06"/>
</a>
</g>
</g>
<!-- Node19&#45;&gt;Node8 -->
<g id="edge26_Node000019_Node000008" class="edge">
<title>Node19&#45;&gt;Node8</title>
<g id="a_edge26_Node000019_Node000008"><a xlink:title=" ">
<path fill="none" stroke="#63b8ff" d="M431.05,-115.37C447.62,-105.86 474.5,-90.45 493.99,-79.27"/>
<polygon fill="#63b8ff" stroke="#63b8ff" points="495.95,-82.18 502.89,-74.17 492.47,-76.11 495.95,-82.18"/>
</a>
</g>
</g>
<!-- Node19&#45;&gt;Node15 -->
<g id="edge28_Node000019_Node000015" class="edge">
<title>Node19&#45;&gt;Node15</title>
<g id="a_edge28_Node000019_Node000015"><a xlink:title=" ">
<path fill="none" stroke="#63b8ff" d="M488.41,-115.49C581.59,-104.55 742.75,-85.62 837.75,-74.46"/>
<polygon fill="#63b8ff" stroke="#63b8ff" points="838.34,-77.91 847.87,-73.27 837.53,-70.96 838.34,-77.91"/>
</a>
</g>
</g>
<!-- Node21&#45;&gt;Node8 -->
<g id="edge34_Node000021_Node000008" class="edge">
<title>Node21&#45;&gt;Node8</title>
<g id="a_edge34_Node000021_Node000008"><a xlink:title=" ">
<path fill="none" stroke="#63b8ff" d="M980.45,-117.03C867.94,-104.49 635.22,-78.56 550.09,-69.08"/>
<polygon fill="#63b8ff" stroke="#63b8ff" points="550.33,-65.58 540,-67.95 549.55,-72.54 550.33,-65.58"/>
</a>
</g>
</g>
<!-- Node21&#45;&gt;Node15 -->
<g id="edge35_Node000021_Node000015" class="edge">
<title>Node21&#45;&gt;Node15</title>
<g id="a_edge35_Node000021_Node000015"><a xlink:title=" ">
<path fill="none" stroke="#63b8ff" d="M1012.1,-109.99C990.87,-100.36 962.89,-87.67 942.25,-78.31"/>
<polygon fill="#63b8ff" stroke="#63b8ff" points="943.6,-75.08 933.05,-74.14 940.71,-81.46 943.6,-75.08"/>
</a>
</g>
</g>
</g>
</svg>
