<?xml version="1.0" encoding="UTF-8" standalone="no"?>
<!DOCTYPE svg PUBLIC "-//W3C//DTD SVG 1.1//EN"
 "http://www.w3.org/Graphics/SVG/1.1/DTD/svg11.dtd">
<!-- Generated by graphviz version 2.43.0 (0)
 -->
<!-- Title: include/jsonrpc/common/transports/framed_transport.hpp Pages: 1 -->
<svg width="447pt" height="192pt"
 viewBox="0.00 0.00 447.00 192.00" xmlns="http://www.w3.org/2000/svg" xmlns:xlink="http://www.w3.org/1999/xlink">
<g id="graph0" class="graph" transform="scale(1 1) rotate(0) translate(4 188)">
<title>include/jsonrpc/common/transports/framed_transport.hpp</title>
<!-- Node1 -->
<g id="Node000001" class="node">
<title>Node1</title>
<g id="a_Node000001"><a xlink:title=" ">
<polygon fill="#999999" stroke="#666666" points="312.5,-184 134.5,-184 134.5,-154 312.5,-154 312.5,-184"/>
<text text-anchor="start" x="142.5" y="-172" font-family="Helvetica,sans-Serif" font-size="10.00">include/jsonrpc/common</text>
<text text-anchor="middle" x="223.5" y="-161" font-family="Helvetica,sans-Serif" font-size="10.00">/transports/framed_transport.hpp</text>
</a>
</g>
</g>
<!-- Node2 -->
<g id="Node000002" class="node">
<title>Node2</title>
<g id="a_Node000002"><a xlink:href="framed__stdio__client__transport_8hpp.html" target="_top" xlink:title=" ">
<polygon fill="white" stroke="#666666" points="137,-118 0,-118 0,-77 137,-77 137,-118"/>
<text text-anchor="start" x="8" y="-106" font-family="Helvetica,sans-Serif" font-size="10.00">include/jsonrpc/client</text>
<text text-anchor="start" x="8" y="-95" font-family="Helvetica,sans-Serif" font-size="10.00">/transports/framed_stdio</text>
<text text-anchor="middle" x="68.5" y="-84" font-family="Helvetica,sans-Serif" font-size="10.00">_client_transport.hpp</text>
</a>
</g>
</g>
<!-- Node1&#45;&gt;Node2 -->
<g id="edge1_Node000001_Node000002" class="edge">
<title>Node1&#45;&gt;Node2</title>
<g id="a_edge1_Node000001_Node000002"><a xlink:title=" ">
<path fill="none" stroke="#63b8ff" d="M182.85,-149.77C161.11,-140.02 134.33,-128.02 112.15,-118.07"/>
<polygon fill="#63b8ff" stroke="#63b8ff" points="181.58,-153.04 192.13,-153.94 184.44,-146.65 181.58,-153.04"/>
</a>
</g>
</g>
<!-- Node4 -->
<g id="Node000004" class="node">
<title>Node4</title>
<g id="a_Node000004"><a xlink:href="framed__stdio__server__transport_8hpp.html" target="_top" xlink:title=" ">
<polygon fill="white" stroke="#666666" points="292,-118 155,-118 155,-77 292,-77 292,-118"/>
<text text-anchor="start" x="163" y="-106" font-family="Helvetica,sans-Serif" font-size="10.00">include/jsonrpc/server</text>
<text text-anchor="start" x="163" y="-95" font-family="Helvetica,sans-Serif" font-size="10.00">/transports/framed_stdio</text>
<text text-anchor="middle" x="223.5" y="-84" font-family="Helvetica,sans-Serif" font-size="10.00">_server_transport.hpp</text>
</a>
</g>
</g>
<!-- Node1&#45;&gt;Node4 -->
<g id="edge3_Node000001_Node000004" class="edge">
<title>Node1&#45;&gt;Node4</title>
<g id="a_edge3_Node000001_Node000004"><a xlink:title=" ">
<path fill="none" stroke="#63b8ff" d="M223.5,-143.91C223.5,-135.47 223.5,-126.1 223.5,-118.07"/>
<polygon fill="#63b8ff" stroke="#63b8ff" points="220,-143.94 223.5,-153.94 227,-143.94 220,-143.94"/>
</a>
</g>
</g>
<!-- Node6 -->
<g id="Node000006" class="node">
<title>Node6</title>
<g id="a_Node000006"><a xlink:href="framed__transport_8cpp.html" target="_top" xlink:title=" ">
<polygon fill="white" stroke="#666666" points="439,-112.5 310,-112.5 310,-82.5 439,-82.5 439,-112.5"/>
<text text-anchor="start" x="318" y="-100.5" font-family="Helvetica,sans-Serif" font-size="10.00">src/common/transports</text>
<text text-anchor="middle" x="374.5" y="-89.5" font-family="Helvetica,sans-Serif" font-size="10.00">/framed_transport.cpp</text>
</a>
</g>
</g>
<!-- Node1&#45;&gt;Node6 -->
<g id="edge5_Node000001_Node000006" class="edge">
<title>Node1&#45;&gt;Node6</title>
<g id="a_edge5_Node000001_Node000006"><a xlink:title=" ">
<path fill="none" stroke="#63b8ff" d="M263.36,-149.65C288.62,-138.03 320.77,-123.23 343.99,-112.54"/>
<polygon fill="#63b8ff" stroke="#63b8ff" points="261.68,-146.58 254.06,-153.94 264.6,-152.93 261.68,-146.58"/>
</a>
</g>
</g>
<!-- Node3 -->
<g id="Node000003" class="node">
<title>Node3</title>
<g id="a_Node000003"><a xlink:href="framed__stdio__client__transport_8cpp.html" target="_top" xlink:title=" ">
<polygon fill="white" stroke="#666666" points="126.5,-41 10.5,-41 10.5,0 126.5,0 126.5,-41"/>
<text text-anchor="start" x="18.5" y="-29" font-family="Helvetica,sans-Serif" font-size="10.00">src/client/transports</text>
<text text-anchor="start" x="18.5" y="-18" font-family="Helvetica,sans-Serif" font-size="10.00">/framed_stdio_client</text>
<text text-anchor="middle" x="68.5" y="-7" font-family="Helvetica,sans-Serif" font-size="10.00">_transport.cpp</text>
</a>
</g>
</g>
<!-- Node2&#45;&gt;Node3 -->
<g id="edge2_Node000002_Node000003" class="edge">
<title>Node2&#45;&gt;Node3</title>
<g id="a_edge2_Node000002_Node000003"><a xlink:title=" ">
<path fill="none" stroke="#63b8ff" d="M68.5,-66.69C68.5,-58.08 68.5,-48.9 68.5,-41.07"/>
<polygon fill="#63b8ff" stroke="#63b8ff" points="65,-66.79 68.5,-76.79 72,-66.79 65,-66.79"/>
</a>
</g>
</g>
<!-- Node5 -->
<g id="Node000005" class="node">
<title>Node5</title>
<g id="a_Node000005"><a xlink:href="framed__stdio__server__transport_8cpp.html" target="_top" xlink:title=" ">
<polygon fill="white" stroke="#666666" points="283.5,-41 163.5,-41 163.5,0 283.5,0 283.5,-41"/>
<text text-anchor="start" x="171.5" y="-29" font-family="Helvetica,sans-Serif" font-size="10.00">src/server/transports</text>
<text text-anchor="start" x="171.5" y="-18" font-family="Helvetica,sans-Serif" font-size="10.00">/framed_stdio_server</text>
<text text-anchor="middle" x="223.5" y="-7" font-family="Helvetica,sans-Serif" font-size="10.00">_transport.cpp</text>
</a>
</g>
</g>
<!-- Node4&#45;&gt;Node5 -->
<g id="edge4_Node000004_Node000005" class="edge">
<title>Node4&#45;&gt;Node5</title>
<g id="a_edge4_Node000004_Node000005"><a xlink:title=" ">
<path fill="none" stroke="#63b8ff" d="M223.5,-66.69C223.5,-58.08 223.5,-48.9 223.5,-41.07"/>
<polygon fill="#63b8ff" stroke="#63b8ff" points="220,-66.79 223.5,-76.79 227,-66.79 220,-66.79"/>
</a>
</g>
</g>
</g>
</svg>
