<?xml version="1.0" encoding="UTF-8" standalone="no"?>
<!DOCTYPE svg PUBLIC "-//W3C//DTD SVG 1.1//EN"
 "http://www.w3.org/Graphics/SVG/1.1/DTD/svg11.dtd">
<!-- Generated by graphviz version 2.43.0 (0)
 -->
<!-- Title: include/jsonrpc/transports/framed_stdio_client_transport.hpp Pages: 1 -->
<svg width="409pt" height="214pt"
 viewBox="0.00 0.00 409.31 214.00" xmlns="http://www.w3.org/2000/svg" xmlns:xlink="http://www.w3.org/1999/xlink">
<g id="graph0" class="graph" transform="scale(1 1) rotate(0) translate(4 210)">
<title>include/jsonrpc/transports/framed_stdio_client_transport.hpp</title>
<!-- Node1 -->
<g id="Node000001" class="node">
<title>Node1</title>
<g id="a_Node000001"><a xlink:title=" ">
<polygon fill="#999999" stroke="#666666" points="237.81,-206 50.81,-206 50.81,-176 237.81,-176 237.81,-206"/>
<text text-anchor="start" x="58.81" y="-194" font-family="Helvetica,sans-Serif" font-size="10.00">include/jsonrpc/transports</text>
<text text-anchor="middle" x="144.31" y="-183" font-family="Helvetica,sans-Serif" font-size="10.00">/framed_stdio_client_transport.hpp</text>
</a>
</g>
</g>
<!-- Node2 -->
<g id="Node000002" class="node">
<title>Node2</title>
<g id="a_Node000002"><a xlink:title=" ">
<polygon fill="#e0e0e0" stroke="#999999" points="54.31,-74 10.31,-74 10.31,-55 54.31,-55 54.31,-74"/>
<text text-anchor="middle" x="32.31" y="-62" font-family="Helvetica,sans-Serif" font-size="10.00">string</text>
</a>
</g>
</g>
<!-- Node1&#45;&gt;Node2 -->
<g id="edge1_Node000001_Node000002" class="edge">
<title>Node1&#45;&gt;Node2</title>
<g id="a_edge1_Node000001_Node000002"><a xlink:title=" ">
<path fill="none" stroke="#63b8ff" d="M55.72,-175.95C36.02,-168.52 17.41,-157.2 5.31,-140 -7.1,-122.34 5.85,-98.33 17.74,-82.4"/>
<polygon fill="#63b8ff" stroke="#63b8ff" points="20.56,-84.47 24.06,-74.47 15.09,-80.1 20.56,-84.47"/>
</a>
</g>
</g>
<!-- Node3 -->
<g id="Node000003" class="node">
<title>Node3</title>
<g id="a_Node000003"><a xlink:href="client__transport_8hpp.html" target="_top" xlink:title=" ">
<polygon fill="white" stroke="#666666" points="264.31,-140 158.31,-140 158.31,-110 264.31,-110 264.31,-140"/>
<text text-anchor="start" x="166.31" y="-128" font-family="Helvetica,sans-Serif" font-size="10.00">jsonrpc/core/client</text>
<text text-anchor="middle" x="211.31" y="-117" font-family="Helvetica,sans-Serif" font-size="10.00">_transport.hpp</text>
</a>
</g>
</g>
<!-- Node1&#45;&gt;Node3 -->
<g id="edge2_Node000001_Node000003" class="edge">
<title>Node1&#45;&gt;Node3</title>
<g id="a_edge2_Node000001_Node000003"><a xlink:title=" ">
<path fill="none" stroke="#63b8ff" d="M159.18,-175.8C167.95,-167.43 179.2,-156.68 189.01,-147.31"/>
<polygon fill="#63b8ff" stroke="#63b8ff" points="191.67,-149.6 196.49,-140.16 186.84,-144.54 191.67,-149.6"/>
</a>
</g>
</g>
<!-- Node4 -->
<g id="Node000004" class="node">
<title>Node4</title>
<g id="a_Node000004"><a xlink:href="types_8hpp.html" target="_top" xlink:title=" ">
<polygon fill="white" stroke="#666666" points="274.81,-74 147.81,-74 147.81,-55 274.81,-55 274.81,-74"/>
<text text-anchor="middle" x="211.31" y="-62" font-family="Helvetica,sans-Serif" font-size="10.00">jsonrpc/core/types.hpp</text>
</a>
</g>
</g>
<!-- Node1&#45;&gt;Node4 -->
<g id="edge8_Node000001_Node000004" class="edge">
<title>Node1&#45;&gt;Node4</title>
<g id="a_edge8_Node000001_Node000004"><a xlink:title=" ">
<path fill="none" stroke="#63b8ff" d="M223.31,-175.94C242.83,-168.54 261.51,-157.24 273.31,-140 280.85,-129 279.4,-121.86 273.31,-110 266.35,-96.44 253.12,-86.07 240.67,-78.78"/>
<polygon fill="#63b8ff" stroke="#63b8ff" points="242.3,-75.68 231.83,-74 238.97,-81.84 242.3,-75.68"/>
</a>
</g>
</g>
<!-- Node9 -->
<g id="Node000009" class="node">
<title>Node9</title>
<g id="a_Node000009"><a xlink:href="framed__transport_8hpp.html" target="_top" xlink:title=" ">
<polygon fill="white" stroke="#666666" points="139.81,-140 14.81,-140 14.81,-110 139.81,-110 139.81,-140"/>
<text text-anchor="start" x="22.81" y="-128" font-family="Helvetica,sans-Serif" font-size="10.00">jsonrpc/transports</text>
<text text-anchor="middle" x="77.31" y="-117" font-family="Helvetica,sans-Serif" font-size="10.00">/framed_transport.hpp</text>
</a>
</g>
</g>
<!-- Node1&#45;&gt;Node9 -->
<g id="edge9_Node000001_Node000009" class="edge">
<title>Node1&#45;&gt;Node9</title>
<g id="a_edge9_Node000001_Node000009"><a xlink:title=" ">
<path fill="none" stroke="#63b8ff" d="M129.45,-175.8C120.68,-167.43 109.43,-156.68 99.62,-147.31"/>
<polygon fill="#63b8ff" stroke="#63b8ff" points="101.79,-144.54 92.14,-140.16 96.96,-149.6 101.79,-144.54"/>
</a>
</g>
</g>
<!-- Node3&#45;&gt;Node4 -->
<g id="edge3_Node000003_Node000004" class="edge">
<title>Node3&#45;&gt;Node4</title>
<g id="a_edge3_Node000003_Node000004"><a xlink:title=" ">
<path fill="none" stroke="#63b8ff" d="M211.31,-109.84C211.31,-102.21 211.31,-92.7 211.31,-84.45"/>
<polygon fill="#63b8ff" stroke="#63b8ff" points="214.81,-84.27 211.31,-74.27 207.81,-84.27 214.81,-84.27"/>
</a>
</g>
</g>
<!-- Node5 -->
<g id="Node000005" class="node">
<title>Node5</title>
<g id="a_Node000005"><a xlink:title=" ">
<polygon fill="#e0e0e0" stroke="#999999" points="128.81,-19 63.81,-19 63.81,0 128.81,0 128.81,-19"/>
<text text-anchor="middle" x="96.31" y="-7" font-family="Helvetica,sans-Serif" font-size="10.00">functional</text>
</a>
</g>
</g>
<!-- Node4&#45;&gt;Node5 -->
<g id="edge4_Node000004_Node000005" class="edge">
<title>Node4&#45;&gt;Node5</title>
<g id="a_edge4_Node000004_Node000005"><a xlink:title=" ">
<path fill="none" stroke="#63b8ff" d="M192.84,-54.98C174.34,-46.46 145.63,-33.23 124.33,-23.41"/>
<polygon fill="#63b8ff" stroke="#63b8ff" points="125.67,-20.18 115.13,-19.17 122.74,-26.53 125.67,-20.18"/>
</a>
</g>
</g>
<!-- Node6 -->
<g id="Node000006" class="node">
<title>Node6</title>
<g id="a_Node000006"><a xlink:title=" ">
<polygon fill="#e0e0e0" stroke="#999999" points="203.31,-19 147.31,-19 147.31,0 203.31,0 203.31,-19"/>
<text text-anchor="middle" x="175.31" y="-7" font-family="Helvetica,sans-Serif" font-size="10.00">optional</text>
</a>
</g>
</g>
<!-- Node4&#45;&gt;Node6 -->
<g id="edge5_Node000004_Node000006" class="edge">
<title>Node4&#45;&gt;Node6</title>
<g id="a_edge5_Node000004_Node000006"><a xlink:title=" ">
<path fill="none" stroke="#63b8ff" d="M205.37,-54.75C200.34,-47.34 192.98,-36.5 186.8,-27.41"/>
<polygon fill="#63b8ff" stroke="#63b8ff" points="189.66,-25.39 181.15,-19.09 183.87,-29.33 189.66,-25.39"/>
</a>
</g>
</g>
<!-- Node7 -->
<g id="Node000007" class="node">
<title>Node7</title>
<g id="a_Node000007"><a xlink:title=" ">
<polygon fill="#e0e0e0" stroke="#999999" points="272.81,-19 221.81,-19 221.81,0 272.81,0 272.81,-19"/>
<text text-anchor="middle" x="247.31" y="-7" font-family="Helvetica,sans-Serif" font-size="10.00">variant</text>
</a>
</g>
</g>
<!-- Node4&#45;&gt;Node7 -->
<g id="edge6_Node000004_Node000007" class="edge">
<title>Node4&#45;&gt;Node7</title>
<g id="a_edge6_Node000004_Node000007"><a xlink:title=" ">
<path fill="none" stroke="#63b8ff" d="M217.26,-54.75C222.29,-47.34 229.65,-36.5 235.83,-27.41"/>
<polygon fill="#63b8ff" stroke="#63b8ff" points="238.76,-29.33 241.48,-19.09 232.97,-25.39 238.76,-29.33"/>
</a>
</g>
</g>
<!-- Node8 -->
<g id="Node000008" class="node">
<title>Node8</title>
<g id="a_Node000008"><a xlink:title=" ">
<polygon fill="#e0e0e0" stroke="#999999" points="401.31,-19 291.31,-19 291.31,0 401.31,0 401.31,-19"/>
<text text-anchor="middle" x="346.31" y="-7" font-family="Helvetica,sans-Serif" font-size="10.00">nlohmann/json.hpp</text>
</a>
</g>
</g>
<!-- Node4&#45;&gt;Node8 -->
<g id="edge7_Node000004_Node000008" class="edge">
<title>Node4&#45;&gt;Node8</title>
<g id="a_edge7_Node000004_Node000008"><a xlink:title=" ">
<path fill="none" stroke="#63b8ff" d="M233,-54.98C255.11,-46.3 289.64,-32.75 314.77,-22.88"/>
<polygon fill="#63b8ff" stroke="#63b8ff" points="316.2,-26.08 324.23,-19.17 313.64,-19.57 316.2,-26.08"/>
</a>
</g>
</g>
<!-- Node9&#45;&gt;Node2 -->
<g id="edge10_Node000009_Node000002" class="edge">
<title>Node9&#45;&gt;Node2</title>
<g id="a_edge10_Node000009_Node000002"><a xlink:title=" ">
<path fill="none" stroke="#63b8ff" d="M66.42,-109.84C60.02,-101.52 51.9,-90.96 45.19,-82.23"/>
<polygon fill="#63b8ff" stroke="#63b8ff" points="47.93,-80.06 39.06,-74.27 42.38,-84.33 47.93,-80.06"/>
</a>
</g>
</g>
<!-- Node9&#45;&gt;Node4 -->
<g id="edge11_Node000009_Node000004" class="edge">
<title>Node9&#45;&gt;Node4</title>
<g id="a_edge11_Node000009_Node000004"><a xlink:title=" ">
<path fill="none" stroke="#63b8ff" d="M109.41,-109.99C131.57,-100.31 160.79,-87.56 182.26,-78.18"/>
<polygon fill="#63b8ff" stroke="#63b8ff" points="183.76,-81.35 191.53,-74.14 180.96,-74.93 183.76,-81.35"/>
</a>
</g>
</g>
</g>
</svg>
