<?xml version="1.0" encoding="UTF-8" standalone="no"?>
<!DOCTYPE svg PUBLIC "-//W3C//DTD SVG 1.1//EN"
 "http://www.w3.org/Graphics/SVG/1.1/DTD/svg11.dtd">
<!-- Generated by graphviz version 2.43.0 (0)
 -->
<!-- Title: src/transport/framed_transport.cpp Pages: 1 -->
<svg width="621pt" height="159pt"
 viewBox="0.00 0.00 620.50 159.00" xmlns="http://www.w3.org/2000/svg" xmlns:xlink="http://www.w3.org/1999/xlink">
<g id="graph0" class="graph" transform="scale(1 1) rotate(0) translate(4 155)">
<title>src/transport/framed_transport.cpp</title>
<!-- Node1 -->
<g id="Node000001" class="node">
<title>Node1</title>
<g id="a_Node000001"><a xlink:title=" ">
<polygon fill="#999999" stroke="#666666" points="342,-151 226,-151 226,-121 342,-121 342,-151"/>
<text text-anchor="start" x="234" y="-139" font-family="Helvetica,sans-Serif" font-size="10.00">src/transport/framed</text>
<text text-anchor="middle" x="284" y="-128" font-family="Helvetica,sans-Serif" font-size="10.00">_transport.cpp</text>
</a>
</g>
</g>
<!-- Node2 -->
<g id="Node000002" class="node">
<title>Node2</title>
<g id="a_Node000002"><a xlink:href="framed__transport_8hpp.html" target="_top" xlink:title=" ">
<polygon fill="white" stroke="#666666" points="198.5,-85 61.5,-85 61.5,-55 198.5,-55 198.5,-85"/>
<text text-anchor="start" x="69.5" y="-73" font-family="Helvetica,sans-Serif" font-size="10.00">jsonrpc/transport/framed</text>
<text text-anchor="middle" x="130" y="-62" font-family="Helvetica,sans-Serif" font-size="10.00">_transport.hpp</text>
</a>
</g>
</g>
<!-- Node1&#45;&gt;Node2 -->
<g id="edge1_Node000001_Node000002" class="edge">
<title>Node1&#45;&gt;Node2</title>
<g id="a_edge1_Node000001_Node000002"><a xlink:title=" ">
<path fill="none" stroke="#63b8ff" d="M250.2,-120.95C227.54,-111.53 197.48,-99.04 173.1,-88.91"/>
<polygon fill="#63b8ff" stroke="#63b8ff" points="174.29,-85.62 163.72,-85.01 171.61,-92.08 174.29,-85.62"/>
</a>
</g>
</g>
<!-- Node7 -->
<g id="Node000007" class="node">
<title>Node7</title>
<g id="a_Node000007"><a xlink:title=" ">
<polygon fill="#e0e0e0" stroke="#999999" points="273,-79.5 217,-79.5 217,-60.5 273,-60.5 273,-79.5"/>
<text text-anchor="middle" x="245" y="-67.5" font-family="Helvetica,sans-Serif" font-size="10.00">sstream</text>
</a>
</g>
</g>
<!-- Node1&#45;&gt;Node7 -->
<g id="edge6_Node000001_Node000007" class="edge">
<title>Node1&#45;&gt;Node7</title>
<g id="a_edge6_Node000001_Node000007"><a xlink:title=" ">
<path fill="none" stroke="#63b8ff" d="M275.34,-120.8C269.56,-111.31 261.92,-98.76 255.74,-88.63"/>
<polygon fill="#63b8ff" stroke="#63b8ff" points="258.58,-86.56 250.39,-79.84 252.6,-90.21 258.58,-86.56"/>
</a>
</g>
</g>
<!-- Node8 -->
<g id="Node000008" class="node">
<title>Node8</title>
<g id="a_Node000008"><a xlink:title=" ">
<polygon fill="#e0e0e0" stroke="#999999" points="356.5,-79.5 291.5,-79.5 291.5,-60.5 356.5,-60.5 356.5,-79.5"/>
<text text-anchor="middle" x="324" y="-67.5" font-family="Helvetica,sans-Serif" font-size="10.00">stdexcept</text>
</a>
</g>
</g>
<!-- Node1&#45;&gt;Node8 -->
<g id="edge7_Node000001_Node000008" class="edge">
<title>Node1&#45;&gt;Node8</title>
<g id="a_edge7_Node000001_Node000008"><a xlink:title=" ">
<path fill="none" stroke="#63b8ff" d="M292.88,-120.8C298.81,-111.31 306.65,-98.76 312.98,-88.63"/>
<polygon fill="#63b8ff" stroke="#63b8ff" points="316.14,-90.18 318.47,-79.84 310.2,-86.47 316.14,-90.18"/>
</a>
</g>
</g>
<!-- Node9 -->
<g id="Node000009" class="node">
<title>Node9</title>
<g id="a_Node000009"><a xlink:href="string__utils_8hpp.html" target="_top" xlink:title=" ">
<polygon fill="white" stroke="#666666" points="481.5,-85 374.5,-85 374.5,-55 481.5,-55 481.5,-85"/>
<text text-anchor="start" x="382.5" y="-73" font-family="Helvetica,sans-Serif" font-size="10.00">jsonrpc/utils/string</text>
<text text-anchor="middle" x="428" y="-62" font-family="Helvetica,sans-Serif" font-size="10.00">_utils.hpp</text>
</a>
</g>
</g>
<!-- Node1&#45;&gt;Node9 -->
<g id="edge8_Node000001_Node000009" class="edge">
<title>Node1&#45;&gt;Node9</title>
<g id="a_edge8_Node000001_Node000009"><a xlink:title=" ">
<path fill="none" stroke="#63b8ff" d="M315.6,-120.95C336.61,-111.62 364.4,-99.27 387.09,-89.18"/>
<polygon fill="#63b8ff" stroke="#63b8ff" points="388.76,-92.27 396.47,-85.01 385.91,-85.88 388.76,-92.27"/>
</a>
</g>
</g>
<!-- Node3 -->
<g id="Node000003" class="node">
<title>Node3</title>
<g id="a_Node000003"><a xlink:title=" ">
<polygon fill="#e0e0e0" stroke="#999999" points="54,-19 0,-19 0,0 54,0 54,-19"/>
<text text-anchor="middle" x="27" y="-7" font-family="Helvetica,sans-Serif" font-size="10.00">istream</text>
</a>
</g>
</g>
<!-- Node2&#45;&gt;Node3 -->
<g id="edge2_Node000002_Node000003" class="edge">
<title>Node2&#45;&gt;Node3</title>
<g id="a_edge2_Node000002_Node000003"><a xlink:title=" ">
<path fill="none" stroke="#63b8ff" d="M105.33,-54.99C88.91,-45.66 67.45,-33.47 51.14,-24.21"/>
<polygon fill="#63b8ff" stroke="#63b8ff" points="52.63,-21.03 42.21,-19.14 49.18,-27.12 52.63,-21.03"/>
</a>
</g>
</g>
<!-- Node4 -->
<g id="Node000004" class="node">
<title>Node4</title>
<g id="a_Node000004"><a xlink:title=" ">
<polygon fill="#e0e0e0" stroke="#999999" points="129.5,-19 72.5,-19 72.5,0 129.5,0 129.5,-19"/>
<text text-anchor="middle" x="101" y="-7" font-family="Helvetica,sans-Serif" font-size="10.00">ostream</text>
</a>
</g>
</g>
<!-- Node2&#45;&gt;Node4 -->
<g id="edge3_Node000002_Node000004" class="edge">
<title>Node2&#45;&gt;Node4</title>
<g id="a_edge3_Node000002_Node000004"><a xlink:title=" ">
<path fill="none" stroke="#63b8ff" d="M122.98,-54.84C119.03,-46.87 114.06,-36.84 109.84,-28.33"/>
<polygon fill="#63b8ff" stroke="#63b8ff" points="112.92,-26.67 105.35,-19.27 106.65,-29.78 112.92,-26.67"/>
</a>
</g>
</g>
<!-- Node5 -->
<g id="Node000005" class="node">
<title>Node5</title>
<g id="a_Node000005"><a xlink:title=" ">
<polygon fill="#e0e0e0" stroke="#999999" points="303,-19 259,-19 259,0 303,0 303,-19"/>
<text text-anchor="middle" x="281" y="-7" font-family="Helvetica,sans-Serif" font-size="10.00">string</text>
</a>
</g>
</g>
<!-- Node2&#45;&gt;Node5 -->
<g id="edge4_Node000002_Node000005" class="edge">
<title>Node2&#45;&gt;Node5</title>
<g id="a_edge4_Node000002_Node000005"><a xlink:title=" ">
<path fill="none" stroke="#63b8ff" d="M166.17,-54.99C191.47,-45.18 224.96,-32.21 249.24,-22.81"/>
<polygon fill="#63b8ff" stroke="#63b8ff" points="250.64,-26.02 258.7,-19.14 248.11,-19.49 250.64,-26.02"/>
</a>
</g>
</g>
<!-- Node6 -->
<g id="Node000006" class="node">
<title>Node6</title>
<g id="a_Node000006"><a xlink:title=" ">
<polygon fill="#e0e0e0" stroke="#999999" points="240.5,-19 147.5,-19 147.5,0 240.5,0 240.5,-19"/>
<text text-anchor="middle" x="194" y="-7" font-family="Helvetica,sans-Serif" font-size="10.00">unordered_map</text>
</a>
</g>
</g>
<!-- Node2&#45;&gt;Node6 -->
<g id="edge5_Node000002_Node000006" class="edge">
<title>Node2&#45;&gt;Node6</title>
<g id="a_edge5_Node000002_Node000006"><a xlink:title=" ">
<path fill="none" stroke="#63b8ff" d="M145.49,-54.84C154.97,-46.17 167.11,-35.08 176.88,-26.15"/>
<polygon fill="#63b8ff" stroke="#63b8ff" points="179.39,-28.6 184.41,-19.27 174.67,-23.43 179.39,-28.6"/>
</a>
</g>
</g>
<!-- Node9&#45;&gt;Node5 -->
<g id="edge12_Node000009_Node000005" class="edge">
<title>Node9&#45;&gt;Node5</title>
<g id="a_edge12_Node000009_Node000005"><a xlink:title=" ">
<path fill="none" stroke="#63b8ff" d="M392.79,-54.99C368.26,-45.23 335.85,-32.33 312.24,-22.93"/>
<polygon fill="#63b8ff" stroke="#63b8ff" points="313.29,-19.58 302.71,-19.14 310.71,-26.09 313.29,-19.58"/>
</a>
</g>
</g>
<!-- Node10 -->
<g id="Node000010" class="node">
<title>Node10</title>
<g id="a_Node000010"><a xlink:title=" ">
<polygon fill="#e0e0e0" stroke="#999999" points="385,-19 321,-19 321,0 385,0 385,-19"/>
<text text-anchor="middle" x="353" y="-7" font-family="Helvetica,sans-Serif" font-size="10.00">algorithm</text>
</a>
</g>
</g>
<!-- Node9&#45;&gt;Node10 -->
<g id="edge9_Node000009_Node000010" class="edge">
<title>Node9&#45;&gt;Node10</title>
<g id="a_edge9_Node000009_Node000010"><a xlink:title=" ">
<path fill="none" stroke="#63b8ff" d="M409.84,-54.84C398.51,-46 383.94,-34.63 372.38,-25.62"/>
<polygon fill="#63b8ff" stroke="#63b8ff" points="374.28,-22.66 364.24,-19.27 369.97,-28.18 374.28,-22.66"/>
</a>
</g>
</g>
<!-- Node11 -->
<g id="Node000011" class="node">
<title>Node11</title>
<g id="a_Node000011"><a xlink:title=" ">
<polygon fill="#e0e0e0" stroke="#999999" points="452.5,-19 403.5,-19 403.5,0 452.5,0 452.5,-19"/>
<text text-anchor="middle" x="428" y="-7" font-family="Helvetica,sans-Serif" font-size="10.00">cctype</text>
</a>
</g>
</g>
<!-- Node9&#45;&gt;Node11 -->
<g id="edge10_Node000009_Node000011" class="edge">
<title>Node9&#45;&gt;Node11</title>
<g id="a_edge10_Node000009_Node000011"><a xlink:title=" ">
<path fill="none" stroke="#63b8ff" d="M428,-54.84C428,-47.21 428,-37.7 428,-29.45"/>
<polygon fill="#63b8ff" stroke="#63b8ff" points="431.5,-29.27 428,-19.27 424.5,-29.27 431.5,-29.27"/>
</a>
</g>
</g>
<!-- Node12 -->
<g id="Node000012" class="node">
<title>Node12</title>
<g id="a_Node000012"><a xlink:title=" ">
<polygon fill="#e0e0e0" stroke="#999999" points="521,-19 471,-19 471,0 521,0 521,-19"/>
<text text-anchor="middle" x="496" y="-7" font-family="Helvetica,sans-Serif" font-size="10.00">ranges</text>
</a>
</g>
</g>
<!-- Node9&#45;&gt;Node12 -->
<g id="edge11_Node000009_Node000012" class="edge">
<title>Node9&#45;&gt;Node12</title>
<g id="a_edge11_Node000009_Node000012"><a xlink:title=" ">
<path fill="none" stroke="#63b8ff" d="M444.46,-54.84C454.63,-46.09 467.69,-34.85 478.12,-25.88"/>
<polygon fill="#63b8ff" stroke="#63b8ff" points="480.51,-28.44 485.81,-19.27 475.95,-23.13 480.51,-28.44"/>
</a>
</g>
</g>
<!-- Node13 -->
<g id="Node000013" class="node">
<title>Node13</title>
<g id="a_Node000013"><a xlink:title=" ">
<polygon fill="#e0e0e0" stroke="#999999" points="612.5,-19 539.5,-19 539.5,0 612.5,0 612.5,-19"/>
<text text-anchor="middle" x="576" y="-7" font-family="Helvetica,sans-Serif" font-size="10.00">string_view</text>
</a>
</g>
</g>
<!-- Node9&#45;&gt;Node13 -->
<g id="edge13_Node000009_Node000013" class="edge">
<title>Node9&#45;&gt;Node13</title>
<g id="a_edge13_Node000009_Node000013"><a xlink:title=" ">
<path fill="none" stroke="#63b8ff" d="M463.45,-54.99C488.14,-45.23 520.78,-32.33 544.55,-22.93"/>
<polygon fill="#63b8ff" stroke="#63b8ff" points="546.13,-26.07 554.14,-19.14 543.56,-19.56 546.13,-26.07"/>
</a>
</g>
</g>
</g>
</svg>
