<?xml version="1.0" encoding="UTF-8" standalone="no"?>
<!DOCTYPE svg PUBLIC "-//W3C//DTD SVG 1.1//EN"
 "http://www.w3.org/Graphics/SVG/1.1/DTD/svg11.dtd">
<!-- Generated by graphviz version 2.43.0 (0)
 -->
<!-- Title: include/jsonrpc/transports/framed_stdio_server_transport.hpp Pages: 1 -->
<svg width="947pt" height="324pt"
 viewBox="0.00 0.00 946.50 324.00" xmlns="http://www.w3.org/2000/svg" xmlns:xlink="http://www.w3.org/1999/xlink">
<g id="graph0" class="graph" transform="scale(1 1) rotate(0) translate(4 320)">
<title>include/jsonrpc/transports/framed_stdio_server_transport.hpp</title>
<!-- Node1 -->
<g id="Node000001" class="node">
<title>Node1</title>
<g id="a_Node000001"><a xlink:title=" ">
<polygon fill="#999999" stroke="#666666" points="447,-316 256,-316 256,-286 447,-286 447,-316"/>
<text text-anchor="start" x="264" y="-304" font-family="Helvetica,sans-Serif" font-size="10.00">include/jsonrpc/transports</text>
<text text-anchor="middle" x="351.5" y="-293" font-family="Helvetica,sans-Serif" font-size="10.00">/framed_stdio_server_transport.hpp</text>
</a>
</g>
</g>
<!-- Node2 -->
<g id="Node000002" class="node">
<title>Node2</title>
<g id="a_Node000002"><a xlink:title=" ">
<polygon fill="#e0e0e0" stroke="#999999" points="263.5,-74 219.5,-74 219.5,-55 263.5,-55 263.5,-74"/>
<text text-anchor="middle" x="241.5" y="-62" font-family="Helvetica,sans-Serif" font-size="10.00">string</text>
</a>
</g>
</g>
<!-- Node1&#45;&gt;Node2 -->
<g id="edge1_Node000001_Node000002" class="edge">
<title>Node1&#45;&gt;Node2</title>
<g id="a_edge1_Node000001_Node000002"><a xlink:title=" ">
<path fill="none" stroke="#63b8ff" d="M337.17,-285.63C310.86,-258.11 255.72,-194.84 235.5,-129 231.02,-114.43 233.1,-97.16 235.97,-84.32"/>
<polygon fill="#63b8ff" stroke="#63b8ff" points="239.43,-84.9 238.56,-74.35 232.66,-83.15 239.43,-84.9"/>
</a>
</g>
</g>
<!-- Node3 -->
<g id="Node000003" class="node">
<title>Node3</title>
<g id="a_Node000003"><a xlink:href="server__transport_8hpp.html" target="_top" xlink:title=" ">
<polygon fill="white" stroke="#666666" points="548.5,-250 438.5,-250 438.5,-220 548.5,-220 548.5,-250"/>
<text text-anchor="start" x="446.5" y="-238" font-family="Helvetica,sans-Serif" font-size="10.00">jsonrpc/core/server</text>
<text text-anchor="middle" x="493.5" y="-227" font-family="Helvetica,sans-Serif" font-size="10.00">_transport.hpp</text>
</a>
</g>
</g>
<!-- Node1&#45;&gt;Node3 -->
<g id="edge2_Node000001_Node000003" class="edge">
<title>Node1&#45;&gt;Node3</title>
<g id="a_edge2_Node000001_Node000003"><a xlink:title=" ">
<path fill="none" stroke="#63b8ff" d="M382.66,-285.95C403.38,-276.62 430.79,-264.27 453.16,-254.18"/>
<polygon fill="#63b8ff" stroke="#63b8ff" points="454.73,-257.31 462.41,-250.01 451.86,-250.93 454.73,-257.31"/>
</a>
</g>
</g>
<!-- Node12 -->
<g id="Node000012" class="node">
<title>Node12</title>
<g id="a_Node000012"><a xlink:href="types_8hpp.html" target="_top" xlink:title=" ">
<polygon fill="white" stroke="#666666" points="848,-74 721,-74 721,-55 848,-55 848,-74"/>
<text text-anchor="middle" x="784.5" y="-62" font-family="Helvetica,sans-Serif" font-size="10.00">jsonrpc/core/types.hpp</text>
</a>
</g>
</g>
<!-- Node1&#45;&gt;Node12 -->
<g id="edge26_Node000001_Node000012" class="edge">
<title>Node1&#45;&gt;Node12</title>
<g id="a_edge26_Node000001_Node000012"><a xlink:title=" ">
<path fill="none" stroke="#63b8ff" d="M447.28,-289.11C535.36,-275.55 666.74,-246.09 764.5,-184 792.64,-166.13 803.33,-160.03 815.5,-129 821.97,-112.51 811.28,-94.42 800.73,-81.79"/>
<polygon fill="#63b8ff" stroke="#63b8ff" points="803.3,-79.41 794,-74.34 798.11,-84.1 803.3,-79.41"/>
</a>
</g>
</g>
<!-- Node17 -->
<g id="Node000017" class="node">
<title>Node17</title>
<g id="a_Node000017"><a xlink:href="framed__transport_8hpp.html" target="_top" xlink:title=" ">
<polygon fill="white" stroke="#666666" points="125,-250 0,-250 0,-220 125,-220 125,-250"/>
<text text-anchor="start" x="8" y="-238" font-family="Helvetica,sans-Serif" font-size="10.00">jsonrpc/transports</text>
<text text-anchor="middle" x="62.5" y="-227" font-family="Helvetica,sans-Serif" font-size="10.00">/framed_transport.hpp</text>
</a>
</g>
</g>
<!-- Node1&#45;&gt;Node17 -->
<g id="edge27_Node000001_Node000017" class="edge">
<title>Node1&#45;&gt;Node17</title>
<g id="a_edge27_Node000001_Node000017"><a xlink:title=" ">
<path fill="none" stroke="#63b8ff" d="M288.08,-285.95C242.94,-275.96 182.19,-262.51 135.11,-252.08"/>
<polygon fill="#63b8ff" stroke="#63b8ff" points="135.8,-248.65 125.28,-249.9 134.28,-255.48 135.8,-248.65"/>
</a>
</g>
</g>
<!-- Node4 -->
<g id="Node000004" class="node">
<title>Node4</title>
<g id="a_Node000004"><a xlink:title=" ">
<polygon fill="#e0e0e0" stroke="#999999" points="636.5,-184 586.5,-184 586.5,-165 636.5,-165 636.5,-184"/>
<text text-anchor="middle" x="611.5" y="-172" font-family="Helvetica,sans-Serif" font-size="10.00">atomic</text>
</a>
</g>
</g>
<!-- Node3&#45;&gt;Node4 -->
<g id="edge3_Node000003_Node000004" class="edge">
<title>Node3&#45;&gt;Node4</title>
<g id="a_edge3_Node000003_Node000004"><a xlink:title=" ">
<path fill="none" stroke="#63b8ff" d="M521.76,-219.99C540.92,-210.49 566.08,-198.02 584.89,-188.69"/>
<polygon fill="#63b8ff" stroke="#63b8ff" points="586.67,-191.72 594.07,-184.14 583.56,-185.45 586.67,-191.72"/>
</a>
</g>
</g>
<!-- Node5 -->
<g id="Node000005" class="node">
<title>Node5</title>
<g id="a_Node000005"><a xlink:title=" ">
<polygon fill="#e0e0e0" stroke="#999999" points="400.5,-184 342.5,-184 342.5,-165 400.5,-165 400.5,-184"/>
<text text-anchor="middle" x="371.5" y="-172" font-family="Helvetica,sans-Serif" font-size="10.00">memory</text>
</a>
</g>
</g>
<!-- Node3&#45;&gt;Node5 -->
<g id="edge4_Node000003_Node000005" class="edge">
<title>Node3&#45;&gt;Node5</title>
<g id="a_edge4_Node000003_Node000005"><a xlink:title=" ">
<path fill="none" stroke="#63b8ff" d="M464.28,-219.99C444.38,-210.45 418.22,-197.9 398.75,-188.57"/>
<polygon fill="#63b8ff" stroke="#63b8ff" points="400.05,-185.31 389.52,-184.14 397.02,-191.62 400.05,-185.31"/>
</a>
</g>
</g>
<!-- Node6 -->
<g id="Node000006" class="node">
<title>Node6</title>
<g id="a_Node000006"><a xlink:href="dispatcher_8hpp.html" target="_top" xlink:title=" ">
<polygon fill="white" stroke="#666666" points="568.5,-184 418.5,-184 418.5,-165 568.5,-165 568.5,-184"/>
<text text-anchor="middle" x="493.5" y="-172" font-family="Helvetica,sans-Serif" font-size="10.00">jsonrpc/core/dispatcher.hpp</text>
</a>
</g>
</g>
<!-- Node3&#45;&gt;Node6 -->
<g id="edge5_Node000003_Node000006" class="edge">
<title>Node3&#45;&gt;Node6</title>
<g id="a_edge5_Node000003_Node000006"><a xlink:title=" ">
<path fill="none" stroke="#63b8ff" d="M493.5,-219.84C493.5,-212.21 493.5,-202.7 493.5,-194.45"/>
<polygon fill="#63b8ff" stroke="#63b8ff" points="497,-194.27 493.5,-184.27 490,-194.27 497,-194.27"/>
</a>
</g>
</g>
<!-- Node3&#45;&gt;Node12 -->
<g id="edge25_Node000003_Node000012" class="edge">
<title>Node3&#45;&gt;Node12</title>
<g id="a_edge25_Node000003_Node000012"><a xlink:title=" ">
<path fill="none" stroke="#63b8ff" d="M548.71,-233.27C620.33,-228.96 742.8,-209.46 799.5,-129 809.06,-115.44 802.77,-96.61 795.64,-82.98"/>
<polygon fill="#63b8ff" stroke="#63b8ff" points="798.55,-81.03 790.51,-74.13 792.49,-84.53 798.55,-81.03"/>
</a>
</g>
</g>
<!-- Node6&#45;&gt;Node2 -->
<g id="edge7_Node000006_Node000002" class="edge">
<title>Node6&#45;&gt;Node2</title>
<g id="a_edge7_Node000006_Node000002"><a xlink:title=" ">
<path fill="none" stroke="#63b8ff" d="M422.54,-164.96C354.5,-156.09 260.38,-141.75 248.5,-129 237.52,-117.22 236.74,-98.38 238.13,-84.27"/>
<polygon fill="#63b8ff" stroke="#63b8ff" points="241.62,-84.59 239.55,-74.2 234.68,-83.61 241.62,-84.59"/>
</a>
</g>
</g>
<!-- Node7 -->
<g id="Node000007" class="node">
<title>Node7</title>
<g id="a_Node000007"><a xlink:title=" ">
<polygon fill="#e0e0e0" stroke="#999999" points="450.5,-19 394.5,-19 394.5,0 450.5,0 450.5,-19"/>
<text text-anchor="middle" x="422.5" y="-7" font-family="Helvetica,sans-Serif" font-size="10.00">optional</text>
</a>
</g>
</g>
<!-- Node6&#45;&gt;Node7 -->
<g id="edge6_Node000006_Node000007" class="edge">
<title>Node6&#45;&gt;Node7</title>
<g id="a_edge6_Node000006_Node000007"><a xlink:title=" ">
<path fill="none" stroke="#63b8ff" d="M424.5,-164.97C353.23,-155.63 250.34,-140.46 235.5,-129 214.25,-112.59 216.18,-100.24 210.5,-74 208.71,-65.75 205.18,-61.56 210.5,-55 231.99,-28.53 329.38,-17.23 384.38,-12.89"/>
<polygon fill="#63b8ff" stroke="#63b8ff" points="384.75,-16.38 394.46,-12.14 384.22,-9.4 384.75,-16.38"/>
</a>
</g>
</g>
<!-- Node8 -->
<g id="Node000008" class="node">
<title>Node8</title>
<g id="a_Node000008"><a xlink:title=" ">
<polygon fill="#e0e0e0" stroke="#999999" points="632,-74 539,-74 539,-55 632,-55 632,-74"/>
<text text-anchor="middle" x="585.5" y="-62" font-family="Helvetica,sans-Serif" font-size="10.00">unordered_map</text>
</a>
</g>
</g>
<!-- Node6&#45;&gt;Node8 -->
<g id="edge8_Node000006_Node000008" class="edge">
<title>Node6&#45;&gt;Node8</title>
<g id="a_edge8_Node000006_Node000008"><a xlink:title=" ">
<path fill="none" stroke="#63b8ff" d="M558.15,-164.97C635.89,-154.4 756.85,-136.83 763.5,-129 800.03,-85.96 707.06,-72.09 642.16,-67.62"/>
<polygon fill="#63b8ff" stroke="#63b8ff" points="642.21,-64.12 632.01,-66.98 641.77,-71.1 642.21,-64.12"/>
</a>
</g>
</g>
<!-- Node9 -->
<g id="Node000009" class="node">
<title>Node9</title>
<g id="a_Node000009"><a xlink:title=" ">
<polygon fill="#e0e0e0" stroke="#999999" points="460,-129 413,-129 413,-110 460,-110 460,-129"/>
<text text-anchor="middle" x="436.5" y="-117" font-family="Helvetica,sans-Serif" font-size="10.00">vector</text>
</a>
</g>
</g>
<!-- Node6&#45;&gt;Node9 -->
<g id="edge9_Node000006_Node000009" class="edge">
<title>Node6&#45;&gt;Node9</title>
<g id="a_edge9_Node000006_Node000009"><a xlink:title=" ">
<path fill="none" stroke="#63b8ff" d="M484.34,-164.98C476,-157.23 463.47,-145.58 453.32,-136.14"/>
<polygon fill="#63b8ff" stroke="#63b8ff" points="455.53,-133.42 445.82,-129.17 450.76,-138.54 455.53,-133.42"/>
</a>
</g>
</g>
<!-- Node10 -->
<g id="Node000010" class="node">
<title>Node10</title>
<g id="a_Node000010"><a xlink:title=" ">
<polygon fill="#e0e0e0" stroke="#999999" points="754,-129 641,-129 641,-110 754,-110 754,-129"/>
<text text-anchor="middle" x="697.5" y="-117" font-family="Helvetica,sans-Serif" font-size="10.00">BS_thread_pool.hpp</text>
</a>
</g>
</g>
<!-- Node6&#45;&gt;Node10 -->
<g id="edge10_Node000006_Node000010" class="edge">
<title>Node6&#45;&gt;Node10</title>
<g id="a_edge10_Node000006_Node000010"><a xlink:title=" ">
<path fill="none" stroke="#63b8ff" d="M526.28,-164.98C561.12,-155.93 616.37,-141.58 654.64,-131.64"/>
<polygon fill="#63b8ff" stroke="#63b8ff" points="655.67,-134.98 664.47,-129.08 653.91,-128.21 655.67,-134.98"/>
</a>
</g>
</g>
<!-- Node11 -->
<g id="Node000011" class="node">
<title>Node11</title>
<g id="a_Node000011"><a xlink:href="core_2request_8hpp.html" target="_top" xlink:title=" ">
<polygon fill="white" stroke="#666666" points="395,-129 258,-129 258,-110 395,-110 395,-129"/>
<text text-anchor="middle" x="326.5" y="-117" font-family="Helvetica,sans-Serif" font-size="10.00">jsonrpc/core/request.hpp</text>
</a>
</g>
</g>
<!-- Node6&#45;&gt;Node11 -->
<g id="edge11_Node000006_Node000011" class="edge">
<title>Node6&#45;&gt;Node11</title>
<g id="a_edge11_Node000006_Node000011"><a xlink:title=" ">
<path fill="none" stroke="#63b8ff" d="M466.67,-164.98C438.63,-156.09 394.45,-142.07 363.2,-132.15"/>
<polygon fill="#63b8ff" stroke="#63b8ff" points="364.13,-128.77 353.54,-129.08 362.01,-135.44 364.13,-128.77"/>
</a>
</g>
</g>
<!-- Node6&#45;&gt;Node12 -->
<g id="edge24_Node000006_Node000012" class="edge">
<title>Node6&#45;&gt;Node12</title>
<g id="a_edge24_Node000006_Node000012"><a xlink:title=" ">
<path fill="none" stroke="#63b8ff" d="M563.1,-164.97C645.98,-154.5 774.21,-137.11 781.5,-129 792.21,-117.08 791.74,-98.26 789.32,-84.2"/>
<polygon fill="#63b8ff" stroke="#63b8ff" points="792.69,-83.19 787.14,-74.16 785.85,-84.67 792.69,-83.19"/>
</a>
</g>
</g>
<!-- Node16 -->
<g id="Node000016" class="node">
<title>Node16</title>
<g id="a_Node000016"><a xlink:href="response_8hpp.html" target="_top" xlink:title=" ">
<polygon fill="white" stroke="#666666" points="622.5,-129 478.5,-129 478.5,-110 622.5,-110 622.5,-129"/>
<text text-anchor="middle" x="550.5" y="-117" font-family="Helvetica,sans-Serif" font-size="10.00">jsonrpc/core/response.hpp</text>
</a>
</g>
</g>
<!-- Node6&#45;&gt;Node16 -->
<g id="edge19_Node000006_Node000016" class="edge">
<title>Node6&#45;&gt;Node16</title>
<g id="a_edge19_Node000006_Node000016"><a xlink:title=" ">
<path fill="none" stroke="#63b8ff" d="M502.66,-164.98C511,-157.23 523.53,-145.58 533.68,-136.14"/>
<polygon fill="#63b8ff" stroke="#63b8ff" points="536.24,-138.54 541.18,-129.17 531.47,-133.42 536.24,-138.54"/>
</a>
</g>
</g>
<!-- Node11&#45;&gt;Node2 -->
<g id="edge13_Node000011_Node000002" class="edge">
<title>Node11&#45;&gt;Node2</title>
<g id="a_edge13_Node000011_Node000002"><a xlink:title=" ">
<path fill="none" stroke="#63b8ff" d="M312.84,-109.98C299.66,-101.77 279.47,-89.18 263.93,-79.49"/>
<polygon fill="#63b8ff" stroke="#63b8ff" points="265.74,-76.49 255.41,-74.17 262.04,-82.43 265.74,-76.49"/>
</a>
</g>
</g>
<!-- Node11&#45;&gt;Node7 -->
<g id="edge12_Node000011_Node000007" class="edge">
<title>Node11&#45;&gt;Node7</title>
<g id="a_edge12_Node000011_Node000007"><a xlink:title=" ">
<path fill="none" stroke="#63b8ff" d="M334.36,-109.66C350.47,-91.54 387.47,-49.91 408.04,-26.77"/>
<polygon fill="#63b8ff" stroke="#63b8ff" points="410.78,-28.96 414.8,-19.16 405.54,-24.31 410.78,-28.96"/>
</a>
</g>
</g>
<!-- Node11&#45;&gt;Node12 -->
<g id="edge14_Node000011_Node000012" class="edge">
<title>Node11&#45;&gt;Node12</title>
<g id="a_edge14_Node000011_Node000012"><a xlink:title=" ">
<path fill="none" stroke="#63b8ff" d="M395.07,-110.57C479.8,-100.76 623.43,-84.14 710.56,-74.06"/>
<polygon fill="#63b8ff" stroke="#63b8ff" points="711.11,-77.52 720.64,-72.89 710.31,-70.56 711.11,-77.52"/>
</a>
</g>
</g>
<!-- Node12&#45;&gt;Node7 -->
<g id="edge16_Node000012_Node000007" class="edge">
<title>Node12&#45;&gt;Node7</title>
<g id="a_edge16_Node000012_Node000007"><a xlink:title=" ">
<path fill="none" stroke="#63b8ff" d="M726.34,-54.98C651.75,-44.06 524.45,-25.43 460.93,-16.13"/>
<polygon fill="#63b8ff" stroke="#63b8ff" points="461.33,-12.65 450.93,-14.66 460.32,-19.57 461.33,-12.65"/>
</a>
</g>
</g>
<!-- Node13 -->
<g id="Node000013" class="node">
<title>Node13</title>
<g id="a_Node000013"><a xlink:title=" ">
<polygon fill="#e0e0e0" stroke="#999999" points="741,-19 676,-19 676,0 741,0 741,-19"/>
<text text-anchor="middle" x="708.5" y="-7" font-family="Helvetica,sans-Serif" font-size="10.00">functional</text>
</a>
</g>
</g>
<!-- Node12&#45;&gt;Node13 -->
<g id="edge15_Node000012_Node000013" class="edge">
<title>Node12&#45;&gt;Node13</title>
<g id="a_edge15_Node000012_Node000013"><a xlink:title=" ">
<path fill="none" stroke="#63b8ff" d="M772.29,-54.98C760.72,-46.92 743.12,-34.65 729.34,-25.03"/>
<polygon fill="#63b8ff" stroke="#63b8ff" points="731.14,-22.02 720.93,-19.17 727.13,-27.76 731.14,-22.02"/>
</a>
</g>
</g>
<!-- Node14 -->
<g id="Node000014" class="node">
<title>Node14</title>
<g id="a_Node000014"><a xlink:title=" ">
<polygon fill="#e0e0e0" stroke="#999999" points="810,-19 759,-19 759,0 810,0 810,-19"/>
<text text-anchor="middle" x="784.5" y="-7" font-family="Helvetica,sans-Serif" font-size="10.00">variant</text>
</a>
</g>
</g>
<!-- Node12&#45;&gt;Node14 -->
<g id="edge17_Node000012_Node000014" class="edge">
<title>Node12&#45;&gt;Node14</title>
<g id="a_edge17_Node000012_Node000014"><a xlink:title=" ">
<path fill="none" stroke="#63b8ff" d="M784.5,-54.75C784.5,-47.8 784.5,-37.85 784.5,-29.13"/>
<polygon fill="#63b8ff" stroke="#63b8ff" points="788,-29.09 784.5,-19.09 781,-29.09 788,-29.09"/>
</a>
</g>
</g>
<!-- Node15 -->
<g id="Node000015" class="node">
<title>Node15</title>
<g id="a_Node000015"><a xlink:title=" ">
<polygon fill="#e0e0e0" stroke="#999999" points="938.5,-19 828.5,-19 828.5,0 938.5,0 938.5,-19"/>
<text text-anchor="middle" x="883.5" y="-7" font-family="Helvetica,sans-Serif" font-size="10.00">nlohmann/json.hpp</text>
</a>
</g>
</g>
<!-- Node12&#45;&gt;Node15 -->
<g id="edge18_Node000012_Node000015" class="edge">
<title>Node12&#45;&gt;Node15</title>
<g id="a_edge18_Node000012_Node000015"><a xlink:title=" ">
<path fill="none" stroke="#63b8ff" d="M800.41,-54.98C816.05,-46.61 840.16,-33.7 858.38,-23.95"/>
<polygon fill="#63b8ff" stroke="#63b8ff" points="860.14,-26.98 867.3,-19.17 856.84,-20.8 860.14,-26.98"/>
</a>
</g>
</g>
<!-- Node16&#45;&gt;Node2 -->
<g id="edge21_Node000016_Node000002" class="edge">
<title>Node16&#45;&gt;Node2</title>
<g id="a_edge21_Node000016_Node000002"><a xlink:title=" ">
<path fill="none" stroke="#63b8ff" d="M500.85,-109.98C436.88,-99.01 327.49,-80.25 273.53,-70.99"/>
<polygon fill="#63b8ff" stroke="#63b8ff" points="273.95,-67.52 263.51,-69.27 272.77,-74.41 273.95,-67.52"/>
</a>
</g>
</g>
<!-- Node16&#45;&gt;Node7 -->
<g id="edge20_Node000016_Node000007" class="edge">
<title>Node16&#45;&gt;Node7</title>
<g id="a_edge20_Node000016_Node000007"><a xlink:title=" ">
<path fill="none" stroke="#63b8ff" d="M540.03,-109.66C518.26,-91.3 467.91,-48.81 440.71,-25.87"/>
<polygon fill="#63b8ff" stroke="#63b8ff" points="442.66,-22.93 432.76,-19.16 438.15,-28.28 442.66,-22.93"/>
</a>
</g>
</g>
<!-- Node16&#45;&gt;Node8 -->
<g id="edge22_Node000016_Node000008" class="edge">
<title>Node16&#45;&gt;Node8</title>
<g id="a_edge22_Node000016_Node000008"><a xlink:title=" ">
<path fill="none" stroke="#63b8ff" d="M556.28,-109.75C561.12,-102.42 568.18,-91.73 574.14,-82.7"/>
<polygon fill="#63b8ff" stroke="#63b8ff" points="577.24,-84.36 579.83,-74.09 571.4,-80.5 577.24,-84.36"/>
</a>
</g>
</g>
<!-- Node16&#45;&gt;Node12 -->
<g id="edge23_Node000016_Node000012" class="edge">
<title>Node16&#45;&gt;Node12</title>
<g id="a_edge23_Node000016_Node000012"><a xlink:title=" ">
<path fill="none" stroke="#63b8ff" d="M588.1,-109.98C628.49,-100.84 692.78,-86.27 736.73,-76.32"/>
<polygon fill="#63b8ff" stroke="#63b8ff" points="737.63,-79.7 746.61,-74.08 736.08,-72.88 737.63,-79.7"/>
</a>
</g>
</g>
<!-- Node17&#45;&gt;Node2 -->
<g id="edge28_Node000017_Node000002" class="edge">
<title>Node17&#45;&gt;Node2</title>
<g id="a_edge28_Node000017_Node000002"><a xlink:title=" ">
<path fill="none" stroke="#63b8ff" d="M67.95,-219.81C78.31,-194.55 103.09,-141.5 139.5,-110 159.68,-92.54 187.78,-80.97 209.37,-74.01"/>
<polygon fill="#63b8ff" stroke="#63b8ff" points="210.54,-77.31 219.09,-71.05 208.5,-70.62 210.54,-77.31"/>
</a>
</g>
</g>
</g>
</svg>
