<?xml version="1.0" encoding="UTF-8" standalone="no"?>
<!DOCTYPE svg PUBLIC "-//W3C//DTD SVG 1.1//EN"
 "http://www.w3.org/Graphics/SVG/1.1/DTD/svg11.dtd">
<!-- Generated by graphviz version 2.43.0 (0)
 -->
<!-- Title: src/transports/framed_stdio_client_transport.cpp Pages: 1 -->
<svg width="723pt" height="291pt"
 viewBox="0.00 0.00 723.27 291.00" xmlns="http://www.w3.org/2000/svg" xmlns:xlink="http://www.w3.org/1999/xlink">
<g id="graph0" class="graph" transform="scale(1 1) rotate(0) translate(4 287)">
<title>src/transports/framed_stdio_client_transport.cpp</title>
<!-- Node1 -->
<g id="Node000001" class="node">
<title>Node1</title>
<g id="a_Node000001"><a xlink:title=" ">
<polygon fill="#999999" stroke="#666666" points="500.77,-283 352.77,-283 352.77,-253 500.77,-253 500.77,-283"/>
<text text-anchor="start" x="360.77" y="-271" font-family="Helvetica,sans-Serif" font-size="10.00">src/transports/framed</text>
<text text-anchor="middle" x="426.77" y="-260" font-family="Helvetica,sans-Serif" font-size="10.00">_stdio_client_transport.cpp</text>
</a>
</g>
</g>
<!-- Node2 -->
<g id="Node000002" class="node">
<title>Node2</title>
<g id="a_Node000002"><a xlink:href="framed__stdio__client__transport_8hpp.html" target="_top" xlink:title=" ">
<polygon fill="white" stroke="#666666" points="269.77,-217 153.77,-217 153.77,-176 269.77,-176 269.77,-217"/>
<text text-anchor="start" x="161.77" y="-205" font-family="Helvetica,sans-Serif" font-size="10.00">jsonrpc/transports</text>
<text text-anchor="start" x="161.77" y="-194" font-family="Helvetica,sans-Serif" font-size="10.00">/framed_stdio_client</text>
<text text-anchor="middle" x="211.77" y="-183" font-family="Helvetica,sans-Serif" font-size="10.00">_transport.hpp</text>
</a>
</g>
</g>
<!-- Node1&#45;&gt;Node2 -->
<g id="edge1_Node000001_Node000002" class="edge">
<title>Node1&#45;&gt;Node2</title>
<g id="a_edge1_Node000001_Node000002"><a xlink:title=" ">
<path fill="none" stroke="#63b8ff" d="M383.26,-252.94C353.56,-243.33 313.6,-230.42 279.73,-219.47"/>
<polygon fill="#63b8ff" stroke="#63b8ff" points="280.48,-216.03 269.89,-216.29 278.33,-222.69 280.48,-216.03"/>
</a>
</g>
</g>
<!-- Node7 -->
<g id="Node000007" class="node">
<title>Node7</title>
<g id="a_Node000007"><a xlink:title=" ">
<polygon fill="#e0e0e0" stroke="#999999" points="358.77,-19 302.77,-19 302.77,0 358.77,0 358.77,-19"/>
<text text-anchor="middle" x="330.77" y="-7" font-family="Helvetica,sans-Serif" font-size="10.00">optional</text>
</a>
</g>
</g>
<!-- Node1&#45;&gt;Node7 -->
<g id="edge14_Node000001_Node000007" class="edge">
<title>Node1&#45;&gt;Node7</title>
<g id="a_edge14_Node000001_Node000007"><a xlink:title=" ">
<path fill="none" stroke="#63b8ff" d="M391.85,-252.9C376.33,-244.78 359.41,-232.96 349.77,-217 313.34,-156.67 321.51,-67.87 327.38,-29.41"/>
<polygon fill="#63b8ff" stroke="#63b8ff" points="330.89,-29.61 329.07,-19.17 323.99,-28.47 330.89,-29.61"/>
</a>
</g>
</g>
<!-- Node11 -->
<g id="Node000011" class="node">
<title>Node11</title>
<g id="a_Node000011"><a xlink:title=" ">
<polygon fill="#e0e0e0" stroke="#999999" points="418.77,-206 358.77,-206 358.77,-187 418.77,-187 418.77,-206"/>
<text text-anchor="middle" x="388.77" y="-194" font-family="Helvetica,sans-Serif" font-size="10.00">iostream</text>
</a>
</g>
</g>
<!-- Node1&#45;&gt;Node11 -->
<g id="edge13_Node000001_Node000011" class="edge">
<title>Node1&#45;&gt;Node11</title>
<g id="a_edge13_Node000001_Node000011"><a xlink:title=" ">
<path fill="none" stroke="#63b8ff" d="M419.08,-252.94C413.12,-242.03 404.82,-226.85 398.41,-215.13"/>
<polygon fill="#63b8ff" stroke="#63b8ff" points="401.43,-213.36 393.57,-206.27 395.29,-216.72 401.43,-213.36"/>
</a>
</g>
</g>
<!-- Node12 -->
<g id="Node000012" class="node">
<title>Node12</title>
<g id="a_Node000012"><a xlink:title=" ">
<polygon fill="#e0e0e0" stroke="#999999" points="492.77,-206 436.77,-206 436.77,-187 492.77,-187 492.77,-206"/>
<text text-anchor="middle" x="464.77" y="-194" font-family="Helvetica,sans-Serif" font-size="10.00">sstream</text>
</a>
</g>
</g>
<!-- Node1&#45;&gt;Node12 -->
<g id="edge15_Node000001_Node000012" class="edge">
<title>Node1&#45;&gt;Node12</title>
<g id="a_edge15_Node000001_Node000012"><a xlink:title=" ">
<path fill="none" stroke="#63b8ff" d="M434.46,-252.94C440.43,-242.03 448.73,-226.85 455.14,-215.13"/>
<polygon fill="#63b8ff" stroke="#63b8ff" points="458.25,-216.72 459.98,-206.27 452.11,-213.36 458.25,-216.72"/>
</a>
</g>
</g>
<!-- Node13 -->
<g id="Node000013" class="node">
<title>Node13</title>
<g id="a_Node000013"><a xlink:title=" ">
<polygon fill="#e0e0e0" stroke="#999999" points="604.27,-206 511.27,-206 511.27,-187 604.27,-187 604.27,-206"/>
<text text-anchor="middle" x="557.77" y="-194" font-family="Helvetica,sans-Serif" font-size="10.00">unordered_map</text>
</a>
</g>
</g>
<!-- Node1&#45;&gt;Node13 -->
<g id="edge16_Node000001_Node000013" class="edge">
<title>Node1&#45;&gt;Node13</title>
<g id="a_edge16_Node000001_Node000013"><a xlink:title=" ">
<path fill="none" stroke="#63b8ff" d="M453.28,-252.94C476.44,-240.65 509.82,-222.94 532.58,-210.87"/>
<polygon fill="#63b8ff" stroke="#63b8ff" points="534.43,-213.85 541.62,-206.07 531.15,-207.66 534.43,-213.85"/>
</a>
</g>
</g>
<!-- Node14 -->
<g id="Node000014" class="node">
<title>Node14</title>
<g id="a_Node000014"><a xlink:title=" ">
<polygon fill="#e0e0e0" stroke="#999999" points="715.27,-206 622.27,-206 622.27,-187 715.27,-187 715.27,-206"/>
<text text-anchor="middle" x="668.77" y="-194" font-family="Helvetica,sans-Serif" font-size="10.00">spdlog/spdlog.h</text>
</a>
</g>
</g>
<!-- Node1&#45;&gt;Node14 -->
<g id="edge17_Node000001_Node000014" class="edge">
<title>Node1&#45;&gt;Node14</title>
<g id="a_edge17_Node000001_Node000014"><a xlink:title=" ">
<path fill="none" stroke="#63b8ff" d="M483.99,-252.96C521.18,-243.52 570.6,-230.4 613.77,-217 621.09,-214.73 628.88,-212.1 636.23,-209.52"/>
<polygon fill="#63b8ff" stroke="#63b8ff" points="637.65,-212.73 645.9,-206.07 635.3,-206.13 637.65,-212.73"/>
</a>
</g>
</g>
<!-- Node3 -->
<g id="Node000003" class="node">
<title>Node3</title>
<g id="a_Node000003"><a xlink:title=" ">
<polygon fill="#e0e0e0" stroke="#999999" points="54.77,-74 10.77,-74 10.77,-55 54.77,-55 54.77,-74"/>
<text text-anchor="middle" x="32.77" y="-62" font-family="Helvetica,sans-Serif" font-size="10.00">string</text>
</a>
</g>
</g>
<!-- Node2&#45;&gt;Node3 -->
<g id="edge2_Node000002_Node000003" class="edge">
<title>Node2&#45;&gt;Node3</title>
<g id="a_edge2_Node000002_Node000003"><a xlink:title=" ">
<path fill="none" stroke="#63b8ff" d="M153.68,-187.78C99.28,-179.22 23.74,-163.45 5.77,-140 -7.5,-122.68 6.04,-98.22 18.26,-82.12"/>
<polygon fill="#63b8ff" stroke="#63b8ff" points="21.16,-84.1 24.74,-74.13 15.72,-79.69 21.16,-84.1"/>
</a>
</g>
</g>
<!-- Node4 -->
<g id="Node000004" class="node">
<title>Node4</title>
<g id="a_Node000004"><a xlink:href="client__transport_8hpp.html" target="_top" xlink:title=" ">
<polygon fill="white" stroke="#666666" points="264.77,-140 158.77,-140 158.77,-110 264.77,-110 264.77,-140"/>
<text text-anchor="start" x="166.77" y="-128" font-family="Helvetica,sans-Serif" font-size="10.00">jsonrpc/core/client</text>
<text text-anchor="middle" x="211.77" y="-117" font-family="Helvetica,sans-Serif" font-size="10.00">_transport.hpp</text>
</a>
</g>
</g>
<!-- Node2&#45;&gt;Node4 -->
<g id="edge3_Node000002_Node000004" class="edge">
<title>Node2&#45;&gt;Node4</title>
<g id="a_edge3_Node000002_Node000004"><a xlink:title=" ">
<path fill="none" stroke="#63b8ff" d="M211.77,-175.77C211.77,-167.85 211.77,-158.63 211.77,-150.3"/>
<polygon fill="#63b8ff" stroke="#63b8ff" points="215.27,-150.04 211.77,-140.04 208.27,-150.04 215.27,-150.04"/>
</a>
</g>
</g>
<!-- Node5 -->
<g id="Node000005" class="node">
<title>Node5</title>
<g id="a_Node000005"><a xlink:href="types_8hpp.html" target="_top" xlink:title=" ">
<polygon fill="white" stroke="#666666" points="275.27,-74 148.27,-74 148.27,-55 275.27,-55 275.27,-74"/>
<text text-anchor="middle" x="211.77" y="-62" font-family="Helvetica,sans-Serif" font-size="10.00">jsonrpc/core/types.hpp</text>
</a>
</g>
</g>
<!-- Node2&#45;&gt;Node5 -->
<g id="edge9_Node000002_Node000005" class="edge">
<title>Node2&#45;&gt;Node5</title>
<g id="a_edge9_Node000002_Node000005"><a xlink:title=" ">
<path fill="none" stroke="#63b8ff" d="M243.27,-175.84C255.15,-166.57 267.35,-154.38 273.77,-140 279.21,-127.83 279.86,-121.86 273.77,-110 266.81,-96.44 253.58,-86.07 241.12,-78.78"/>
<polygon fill="#63b8ff" stroke="#63b8ff" points="242.75,-75.68 232.29,-74 239.43,-81.84 242.75,-75.68"/>
</a>
</g>
</g>
<!-- Node10 -->
<g id="Node000010" class="node">
<title>Node10</title>
<g id="a_Node000010"><a xlink:href="framed__transport_8hpp.html" target="_top" xlink:title=" ">
<polygon fill="white" stroke="#666666" points="140.27,-140 15.27,-140 15.27,-110 140.27,-110 140.27,-140"/>
<text text-anchor="start" x="23.27" y="-128" font-family="Helvetica,sans-Serif" font-size="10.00">jsonrpc/transports</text>
<text text-anchor="middle" x="77.77" y="-117" font-family="Helvetica,sans-Serif" font-size="10.00">/framed_transport.hpp</text>
</a>
</g>
</g>
<!-- Node2&#45;&gt;Node10 -->
<g id="edge10_Node000002_Node000010" class="edge">
<title>Node2&#45;&gt;Node10</title>
<g id="a_edge10_Node000002_Node000010"><a xlink:title=" ">
<path fill="none" stroke="#63b8ff" d="M174.09,-175.96C155.28,-166.2 132.64,-154.46 114.03,-144.81"/>
<polygon fill="#63b8ff" stroke="#63b8ff" points="115.47,-141.61 104.98,-140.11 112.25,-147.82 115.47,-141.61"/>
</a>
</g>
</g>
<!-- Node4&#45;&gt;Node5 -->
<g id="edge4_Node000004_Node000005" class="edge">
<title>Node4&#45;&gt;Node5</title>
<g id="a_edge4_Node000004_Node000005"><a xlink:title=" ">
<path fill="none" stroke="#63b8ff" d="M211.77,-109.84C211.77,-102.21 211.77,-92.7 211.77,-84.45"/>
<polygon fill="#63b8ff" stroke="#63b8ff" points="215.27,-84.27 211.77,-74.27 208.27,-84.27 215.27,-84.27"/>
</a>
</g>
</g>
<!-- Node6 -->
<g id="Node000006" class="node">
<title>Node6</title>
<g id="a_Node000006"><a xlink:title=" ">
<polygon fill="#e0e0e0" stroke="#999999" points="87.27,-19 22.27,-19 22.27,0 87.27,0 87.27,-19"/>
<text text-anchor="middle" x="54.77" y="-7" font-family="Helvetica,sans-Serif" font-size="10.00">functional</text>
</a>
</g>
</g>
<!-- Node5&#45;&gt;Node6 -->
<g id="edge5_Node000005_Node000006" class="edge">
<title>Node5&#45;&gt;Node6</title>
<g id="a_edge5_Node000005_Node000006"><a xlink:title=" ">
<path fill="none" stroke="#63b8ff" d="M186.55,-54.98C160.42,-46.16 119.38,-32.31 90.04,-22.41"/>
<polygon fill="#63b8ff" stroke="#63b8ff" points="90.79,-18.96 80.19,-19.08 88.55,-25.6 90.79,-18.96"/>
</a>
</g>
</g>
<!-- Node5&#45;&gt;Node7 -->
<g id="edge6_Node000005_Node000007" class="edge">
<title>Node5&#45;&gt;Node7</title>
<g id="a_edge6_Node000005_Node000007"><a xlink:title=" ">
<path fill="none" stroke="#63b8ff" d="M230.89,-54.98C250.12,-46.42 280.01,-33.11 302.08,-23.28"/>
<polygon fill="#63b8ff" stroke="#63b8ff" points="303.59,-26.44 311.31,-19.17 300.75,-20.04 303.59,-26.44"/>
</a>
</g>
</g>
<!-- Node8 -->
<g id="Node000008" class="node">
<title>Node8</title>
<g id="a_Node000008"><a xlink:title=" ">
<polygon fill="#e0e0e0" stroke="#999999" points="156.27,-19 105.27,-19 105.27,0 156.27,0 156.27,-19"/>
<text text-anchor="middle" x="130.77" y="-7" font-family="Helvetica,sans-Serif" font-size="10.00">variant</text>
</a>
</g>
</g>
<!-- Node5&#45;&gt;Node8 -->
<g id="edge7_Node000005_Node000008" class="edge">
<title>Node5&#45;&gt;Node8</title>
<g id="a_edge7_Node000005_Node000008"><a xlink:title=" ">
<path fill="none" stroke="#63b8ff" d="M198.76,-54.98C186.31,-46.84 167.32,-34.41 152.56,-24.76"/>
<polygon fill="#63b8ff" stroke="#63b8ff" points="154.31,-21.72 144.02,-19.17 150.47,-27.57 154.31,-21.72"/>
</a>
</g>
</g>
<!-- Node9 -->
<g id="Node000009" class="node">
<title>Node9</title>
<g id="a_Node000009"><a xlink:title=" ">
<polygon fill="#e0e0e0" stroke="#999999" points="284.77,-19 174.77,-19 174.77,0 284.77,0 284.77,-19"/>
<text text-anchor="middle" x="229.77" y="-7" font-family="Helvetica,sans-Serif" font-size="10.00">nlohmann/json.hpp</text>
</a>
</g>
</g>
<!-- Node5&#45;&gt;Node9 -->
<g id="edge8_Node000005_Node000009" class="edge">
<title>Node5&#45;&gt;Node9</title>
<g id="a_edge8_Node000005_Node000009"><a xlink:title=" ">
<path fill="none" stroke="#63b8ff" d="M214.74,-54.75C217.13,-47.72 220.56,-37.62 223.54,-28.84"/>
<polygon fill="#63b8ff" stroke="#63b8ff" points="226.95,-29.68 226.86,-19.09 220.33,-27.43 226.95,-29.68"/>
</a>
</g>
</g>
<!-- Node10&#45;&gt;Node3 -->
<g id="edge11_Node000010_Node000003" class="edge">
<title>Node10&#45;&gt;Node3</title>
<g id="a_edge11_Node000010_Node000003"><a xlink:title=" ">
<path fill="none" stroke="#63b8ff" d="M66.88,-109.84C60.48,-101.52 52.36,-90.96 45.64,-82.23"/>
<polygon fill="#63b8ff" stroke="#63b8ff" points="48.39,-80.06 39.52,-74.27 42.84,-84.33 48.39,-80.06"/>
</a>
</g>
</g>
<!-- Node10&#45;&gt;Node5 -->
<g id="edge12_Node000010_Node000005" class="edge">
<title>Node10&#45;&gt;Node5</title>
<g id="a_edge12_Node000010_Node000005"><a xlink:title=" ">
<path fill="none" stroke="#63b8ff" d="M109.87,-109.99C132.03,-100.31 161.25,-87.56 182.72,-78.18"/>
<polygon fill="#63b8ff" stroke="#63b8ff" points="184.22,-81.35 191.98,-74.14 181.42,-74.93 184.22,-81.35"/>
</a>
</g>
</g>
</g>
</svg>
