<?xml version="1.0" encoding="UTF-8" standalone="no"?>
<!DOCTYPE svg PUBLIC "-//W3C//DTD SVG 1.1//EN"
 "http://www.w3.org/Graphics/SVG/1.1/DTD/svg11.dtd">
<!-- Generated by graphviz version 2.43.0 (0)
 -->
<!-- Title: src/transports/framed_stdio_server_transport.cpp Pages: 1 -->
<svg width="1201pt" height="412pt"
 viewBox="0.00 0.00 1201.00 412.00" xmlns="http://www.w3.org/2000/svg" xmlns:xlink="http://www.w3.org/1999/xlink">
<g id="graph0" class="graph" transform="scale(1 1) rotate(0) translate(4 408)">
<title>src/transports/framed_stdio_server_transport.cpp</title>
<!-- Node1 -->
<g id="Node000001" class="node">
<title>Node1</title>
<g id="a_Node000001"><a xlink:title=" ">
<polygon fill="#999999" stroke="#666666" points="1024.5,-404 872.5,-404 872.5,-374 1024.5,-374 1024.5,-404"/>
<text text-anchor="start" x="880.5" y="-392" font-family="Helvetica,sans-Serif" font-size="10.00">src/transports/framed</text>
<text text-anchor="middle" x="948.5" y="-381" font-family="Helvetica,sans-Serif" font-size="10.00">_stdio_server_transport.cpp</text>
</a>
</g>
</g>
<!-- Node2 -->
<g id="Node000002" class="node">
<title>Node2</title>
<g id="a_Node000002"><a xlink:href="framed__stdio__server__transport_8hpp.html" target="_top" xlink:title=" ">
<polygon fill="white" stroke="#666666" points="253.5,-338 133.5,-338 133.5,-297 253.5,-297 253.5,-338"/>
<text text-anchor="start" x="141.5" y="-326" font-family="Helvetica,sans-Serif" font-size="10.00">jsonrpc/transports</text>
<text text-anchor="start" x="141.5" y="-315" font-family="Helvetica,sans-Serif" font-size="10.00">/framed_stdio_server</text>
<text text-anchor="middle" x="193.5" y="-304" font-family="Helvetica,sans-Serif" font-size="10.00">_transport.hpp</text>
</a>
</g>
</g>
<!-- Node1&#45;&gt;Node2 -->
<g id="edge1_Node000001_Node000002" class="edge">
<title>Node1&#45;&gt;Node2</title>
<g id="a_edge1_Node000001_Node000002"><a xlink:title=" ">
<path fill="none" stroke="#63b8ff" d="M872.3,-380.99C725.64,-367.49 406.09,-338.07 264.03,-324.99"/>
<polygon fill="#63b8ff" stroke="#63b8ff" points="263.98,-321.47 253.7,-324.04 263.34,-328.44 263.98,-321.47"/>
</a>
</g>
</g>
<!-- Node8 -->
<g id="Node000008" class="node">
<title>Node8</title>
<g id="a_Node000008"><a xlink:title=" ">
<polygon fill="#e0e0e0" stroke="#999999" points="536.5,-19 480.5,-19 480.5,0 536.5,0 536.5,-19"/>
<text text-anchor="middle" x="508.5" y="-7" font-family="Helvetica,sans-Serif" font-size="10.00">optional</text>
</a>
</g>
</g>
<!-- Node1&#45;&gt;Node8 -->
<g id="edge32_Node000001_Node000008" class="edge">
<title>Node1&#45;&gt;Node8</title>
<g id="a_edge32_Node000001_Node000008"><a xlink:title=" ">
<path fill="none" stroke="#63b8ff" d="M943.58,-373.79C935.31,-348.58 919.5,-294.23 919.5,-247 919.5,-247 919.5,-247 919.5,-124 919.5,-92.19 924.67,-75.67 900.5,-55 873.91,-32.25 639.94,-17.46 546.65,-12.42"/>
<polygon fill="#63b8ff" stroke="#63b8ff" points="546.69,-8.92 536.51,-11.88 546.31,-15.91 546.69,-8.92"/>
</a>
</g>
</g>
<!-- Node9 -->
<g id="Node000009" class="node">
<title>Node9</title>
<g id="a_Node000009"><a xlink:title=" ">
<polygon fill="#e0e0e0" stroke="#999999" points="891,-74 798,-74 798,-55 891,-55 891,-74"/>
<text text-anchor="middle" x="844.5" y="-62" font-family="Helvetica,sans-Serif" font-size="10.00">unordered_map</text>
</a>
</g>
</g>
<!-- Node1&#45;&gt;Node9 -->
<g id="edge34_Node000001_Node000009" class="edge">
<title>Node1&#45;&gt;Node9</title>
<g id="a_edge34_Node000001_Node000009"><a xlink:title=" ">
<path fill="none" stroke="#63b8ff" d="M932.96,-373.59C923.75,-364.25 912.53,-351.38 905.5,-338 886.03,-300.98 881.5,-288.83 881.5,-247 881.5,-247 881.5,-247 881.5,-184.5 881.5,-147.16 864.69,-106.09 853.73,-83.28"/>
<polygon fill="#63b8ff" stroke="#63b8ff" points="856.78,-81.56 849.19,-74.17 850.51,-84.68 856.78,-81.56"/>
</a>
</g>
</g>
<!-- Node19 -->
<g id="Node000019" class="node">
<title>Node19</title>
<g id="a_Node000019"><a xlink:title=" ">
<polygon fill="#e0e0e0" stroke="#999999" points="1007.5,-327 947.5,-327 947.5,-308 1007.5,-308 1007.5,-327"/>
<text text-anchor="middle" x="977.5" y="-315" font-family="Helvetica,sans-Serif" font-size="10.00">iostream</text>
</a>
</g>
</g>
<!-- Node1&#45;&gt;Node19 -->
<g id="edge31_Node000001_Node000019" class="edge">
<title>Node1&#45;&gt;Node19</title>
<g id="a_edge31_Node000001_Node000019"><a xlink:title=" ">
<path fill="none" stroke="#63b8ff" d="M954.37,-373.94C958.83,-363.25 965,-348.45 969.85,-336.83"/>
<polygon fill="#63b8ff" stroke="#63b8ff" points="973.22,-337.84 973.84,-327.27 966.76,-335.15 973.22,-337.84"/>
</a>
</g>
</g>
<!-- Node20 -->
<g id="Node000020" class="node">
<title>Node20</title>
<g id="a_Node000020"><a xlink:title=" ">
<polygon fill="#e0e0e0" stroke="#999999" points="1081.5,-327 1025.5,-327 1025.5,-308 1081.5,-308 1081.5,-327"/>
<text text-anchor="middle" x="1053.5" y="-315" font-family="Helvetica,sans-Serif" font-size="10.00">sstream</text>
</a>
</g>
</g>
<!-- Node1&#45;&gt;Node20 -->
<g id="edge33_Node000001_Node000020" class="edge">
<title>Node1&#45;&gt;Node20</title>
<g id="a_edge33_Node000001_Node000020"><a xlink:title=" ">
<path fill="none" stroke="#63b8ff" d="M969.75,-373.94C987.81,-361.98 1013.64,-344.88 1031.82,-332.85"/>
<polygon fill="#63b8ff" stroke="#63b8ff" points="1034.15,-335.51 1040.56,-327.07 1030.29,-329.67 1034.15,-335.51"/>
</a>
</g>
</g>
<!-- Node21 -->
<g id="Node000021" class="node">
<title>Node21</title>
<g id="a_Node000021"><a xlink:title=" ">
<polygon fill="#e0e0e0" stroke="#999999" points="1193,-327 1100,-327 1100,-308 1193,-308 1193,-327"/>
<text text-anchor="middle" x="1146.5" y="-315" font-family="Helvetica,sans-Serif" font-size="10.00">spdlog/spdlog.h</text>
</a>
</g>
</g>
<!-- Node1&#45;&gt;Node21 -->
<g id="edge35_Node000001_Node000021" class="edge">
<title>Node1&#45;&gt;Node21</title>
<g id="a_edge35_Node000001_Node000021"><a xlink:title=" ">
<path fill="none" stroke="#63b8ff" d="M988.57,-373.94C1024.98,-361.16 1078.1,-342.51 1112.49,-330.44"/>
<polygon fill="#63b8ff" stroke="#63b8ff" points="1113.81,-333.68 1122.09,-327.07 1111.5,-327.08 1113.81,-333.68"/>
</a>
</g>
</g>
<!-- Node3 -->
<g id="Node000003" class="node">
<title>Node3</title>
<g id="a_Node000003"><a xlink:title=" ">
<polygon fill="#e0e0e0" stroke="#999999" points="392.5,-74 348.5,-74 348.5,-55 392.5,-55 392.5,-74"/>
<text text-anchor="middle" x="370.5" y="-62" font-family="Helvetica,sans-Serif" font-size="10.00">string</text>
</a>
</g>
</g>
<!-- Node2&#45;&gt;Node3 -->
<g id="edge2_Node000002_Node000003" class="edge">
<title>Node2&#45;&gt;Node3</title>
<g id="a_edge2_Node000002_Node000003"><a xlink:title=" ">
<path fill="none" stroke="#63b8ff" d="M198.56,-296.76C203.35,-279.17 211.17,-252.91 220.5,-231 231.41,-205.38 229.33,-194.08 250.5,-176 286.74,-145.05 319.4,-175.22 351.5,-140 365.38,-124.77 369.43,-100.82 370.46,-84.2"/>
<polygon fill="#63b8ff" stroke="#63b8ff" points="373.96,-84.17 370.77,-74.06 366.96,-83.95 373.96,-84.17"/>
</a>
</g>
</g>
<!-- Node4 -->
<g id="Node000004" class="node">
<title>Node4</title>
<g id="a_Node000004"><a xlink:href="server__transport_8hpp.html" target="_top" xlink:title=" ">
<polygon fill="white" stroke="#666666" points="339.5,-261 229.5,-261 229.5,-231 339.5,-231 339.5,-261"/>
<text text-anchor="start" x="237.5" y="-249" font-family="Helvetica,sans-Serif" font-size="10.00">jsonrpc/core/server</text>
<text text-anchor="middle" x="284.5" y="-238" font-family="Helvetica,sans-Serif" font-size="10.00">_transport.hpp</text>
</a>
</g>
</g>
<!-- Node2&#45;&gt;Node4 -->
<g id="edge3_Node000002_Node000004" class="edge">
<title>Node2&#45;&gt;Node4</title>
<g id="a_edge3_Node000002_Node000004"><a xlink:title=" ">
<path fill="none" stroke="#63b8ff" d="M219.33,-296.77C231.46,-287.51 245.89,-276.49 258.09,-267.17"/>
<polygon fill="#63b8ff" stroke="#63b8ff" points="260.3,-269.89 266.12,-261.04 256.05,-264.33 260.3,-269.89"/>
</a>
</g>
</g>
<!-- Node13 -->
<g id="Node000013" class="node">
<title>Node13</title>
<g id="a_Node000013"><a xlink:href="types_8hpp.html" target="_top" xlink:title=" ">
<polygon fill="white" stroke="#666666" points="188,-74 61,-74 61,-55 188,-55 188,-74"/>
<text text-anchor="middle" x="124.5" y="-62" font-family="Helvetica,sans-Serif" font-size="10.00">jsonrpc/core/types.hpp</text>
</a>
</g>
</g>
<!-- Node2&#45;&gt;Node13 -->
<g id="edge27_Node000002_Node000013" class="edge">
<title>Node2&#45;&gt;Node13</title>
<g id="a_edge27_Node000002_Node000013"><a xlink:title=" ">
<path fill="none" stroke="#63b8ff" d="M166.18,-296.91C128.16,-267.75 60.96,-208.92 34.5,-140 29.72,-127.55 27.47,-121.33 34.5,-110 44.03,-94.65 60.6,-84.44 76.95,-77.71"/>
<polygon fill="#63b8ff" stroke="#63b8ff" points="78.35,-80.93 86.49,-74.15 75.89,-74.37 78.35,-80.93"/>
</a>
</g>
</g>
<!-- Node18 -->
<g id="Node000018" class="node">
<title>Node18</title>
<g id="a_Node000018"><a xlink:href="framed__transport_8hpp.html" target="_top" xlink:title=" ">
<polygon fill="white" stroke="#666666" points="187,-140 62,-140 62,-110 187,-110 187,-140"/>
<text text-anchor="start" x="70" y="-128" font-family="Helvetica,sans-Serif" font-size="10.00">jsonrpc/transports</text>
<text text-anchor="middle" x="124.5" y="-117" font-family="Helvetica,sans-Serif" font-size="10.00">/framed_transport.hpp</text>
</a>
</g>
</g>
<!-- Node2&#45;&gt;Node18 -->
<g id="edge28_Node000002_Node000018" class="edge">
<title>Node2&#45;&gt;Node18</title>
<g id="a_edge28_Node000002_Node000018"><a xlink:title=" ">
<path fill="none" stroke="#63b8ff" d="M186.38,-296.83C173.66,-261.73 147.1,-188.39 133.28,-150.24"/>
<polygon fill="#63b8ff" stroke="#63b8ff" points="136.44,-148.68 129.74,-140.47 129.86,-151.06 136.44,-148.68"/>
</a>
</g>
</g>
<!-- Node5 -->
<g id="Node000005" class="node">
<title>Node5</title>
<g id="a_Node000005"><a xlink:title=" ">
<polygon fill="#e0e0e0" stroke="#999999" points="309.5,-195 259.5,-195 259.5,-176 309.5,-176 309.5,-195"/>
<text text-anchor="middle" x="284.5" y="-183" font-family="Helvetica,sans-Serif" font-size="10.00">atomic</text>
</a>
</g>
</g>
<!-- Node4&#45;&gt;Node5 -->
<g id="edge4_Node000004_Node000005" class="edge">
<title>Node4&#45;&gt;Node5</title>
<g id="a_edge4_Node000004_Node000005"><a xlink:title=" ">
<path fill="none" stroke="#63b8ff" d="M284.5,-230.84C284.5,-223.21 284.5,-213.7 284.5,-205.45"/>
<polygon fill="#63b8ff" stroke="#63b8ff" points="288,-205.27 284.5,-195.27 281,-205.27 288,-205.27"/>
</a>
</g>
</g>
<!-- Node6 -->
<g id="Node000006" class="node">
<title>Node6</title>
<g id="a_Node000006"><a xlink:title=" ">
<polygon fill="#e0e0e0" stroke="#999999" points="385.5,-195 327.5,-195 327.5,-176 385.5,-176 385.5,-195"/>
<text text-anchor="middle" x="356.5" y="-183" font-family="Helvetica,sans-Serif" font-size="10.00">memory</text>
</a>
</g>
</g>
<!-- Node4&#45;&gt;Node6 -->
<g id="edge5_Node000004_Node000006" class="edge">
<title>Node4&#45;&gt;Node6</title>
<g id="a_edge5_Node000004_Node000006"><a xlink:title=" ">
<path fill="none" stroke="#63b8ff" d="M301.93,-230.84C312.81,-222 326.8,-210.63 337.89,-201.62"/>
<polygon fill="#63b8ff" stroke="#63b8ff" points="340.16,-204.29 345.71,-195.27 335.74,-198.86 340.16,-204.29"/>
</a>
</g>
</g>
<!-- Node7 -->
<g id="Node000007" class="node">
<title>Node7</title>
<g id="a_Node000007"><a xlink:href="dispatcher_8hpp.html" target="_top" xlink:title=" ">
<polygon fill="white" stroke="#666666" points="583.5,-195 433.5,-195 433.5,-176 583.5,-176 583.5,-195"/>
<text text-anchor="middle" x="508.5" y="-183" font-family="Helvetica,sans-Serif" font-size="10.00">jsonrpc/core/dispatcher.hpp</text>
</a>
</g>
</g>
<!-- Node4&#45;&gt;Node7 -->
<g id="edge6_Node000004_Node000007" class="edge">
<title>Node4&#45;&gt;Node7</title>
<g id="a_edge6_Node000004_Node000007"><a xlink:title=" ">
<path fill="none" stroke="#63b8ff" d="M338.15,-230.99C377.31,-220.76 429.68,-207.09 465.96,-197.61"/>
<polygon fill="#63b8ff" stroke="#63b8ff" points="466.96,-200.97 475.75,-195.05 465.19,-194.19 466.96,-200.97"/>
</a>
</g>
</g>
<!-- Node4&#45;&gt;Node13 -->
<g id="edge26_Node000004_Node000013" class="edge">
<title>Node4&#45;&gt;Node13</title>
<g id="a_edge26_Node000004_Node000013"><a xlink:title=" ">
<path fill="none" stroke="#63b8ff" d="M229.39,-238.32C171.89,-228.09 84.52,-202.61 43.5,-140 36.19,-128.85 36.71,-121.48 43.5,-110 52.36,-95.02 68.26,-84.74 83.64,-77.88"/>
<polygon fill="#63b8ff" stroke="#63b8ff" points="85.14,-81.04 93.08,-74.03 82.5,-74.56 85.14,-81.04"/>
</a>
</g>
</g>
<!-- Node7&#45;&gt;Node3 -->
<g id="edge8_Node000007_Node000003" class="edge">
<title>Node7&#45;&gt;Node3</title>
<g id="a_edge8_Node000007_Node000003"><a xlink:title=" ">
<path fill="none" stroke="#63b8ff" d="M487.73,-176C470.42,-168.27 445.75,-155.69 427.5,-140 408.09,-123.32 391.03,-99.04 380.75,-82.78"/>
<polygon fill="#63b8ff" stroke="#63b8ff" points="383.73,-80.94 375.51,-74.25 377.76,-84.61 383.73,-80.94"/>
</a>
</g>
</g>
<!-- Node7&#45;&gt;Node8 -->
<g id="edge7_Node000007_Node000008" class="edge">
<title>Node7&#45;&gt;Node8</title>
<g id="a_edge7_Node000007_Node000008"><a xlink:title=" ">
<path fill="none" stroke="#63b8ff" d="M583.71,-183.06C656.95,-179.88 760.89,-170.03 786.5,-140 857.1,-57.2 637.8,-24.07 546.47,-14.07"/>
<polygon fill="#63b8ff" stroke="#63b8ff" points="546.82,-10.59 536.51,-13.02 546.08,-17.55 546.82,-10.59"/>
</a>
</g>
</g>
<!-- Node7&#45;&gt;Node9 -->
<g id="edge9_Node000007_Node000009" class="edge">
<title>Node7&#45;&gt;Node9</title>
<g id="a_edge9_Node000007_Node000009"><a xlink:title=" ">
<path fill="none" stroke="#63b8ff" d="M583.53,-182.63C663.91,-179.12 784.67,-169.02 819.5,-140 835.92,-126.32 841.61,-101.48 843.55,-84.26"/>
<polygon fill="#63b8ff" stroke="#63b8ff" points="847.04,-84.49 844.36,-74.24 840.06,-83.93 847.04,-84.49"/>
</a>
</g>
</g>
<!-- Node10 -->
<g id="Node000010" class="node">
<title>Node10</title>
<g id="a_Node000010"><a xlink:title=" ">
<polygon fill="#e0e0e0" stroke="#999999" points="646,-134.5 599,-134.5 599,-115.5 646,-115.5 646,-134.5"/>
<text text-anchor="middle" x="622.5" y="-122.5" font-family="Helvetica,sans-Serif" font-size="10.00">vector</text>
</a>
</g>
</g>
<!-- Node7&#45;&gt;Node10 -->
<g id="edge10_Node000007_Node000010" class="edge">
<title>Node7&#45;&gt;Node10</title>
<g id="a_edge10_Node000007_Node000010"><a xlink:title=" ">
<path fill="none" stroke="#63b8ff" d="M525.32,-175.87C544.1,-166.23 574.7,-150.53 596.55,-139.31"/>
<polygon fill="#63b8ff" stroke="#63b8ff" points="598.31,-142.35 605.61,-134.67 595.11,-136.12 598.31,-142.35"/>
</a>
</g>
</g>
<!-- Node11 -->
<g id="Node000011" class="node">
<title>Node11</title>
<g id="a_Node000011"><a xlink:title=" ">
<polygon fill="#e0e0e0" stroke="#999999" points="777,-134.5 664,-134.5 664,-115.5 777,-115.5 777,-134.5"/>
<text text-anchor="middle" x="720.5" y="-122.5" font-family="Helvetica,sans-Serif" font-size="10.00">BS_thread_pool.hpp</text>
</a>
</g>
</g>
<!-- Node7&#45;&gt;Node11 -->
<g id="edge11_Node000007_Node000011" class="edge">
<title>Node7&#45;&gt;Node11</title>
<g id="a_edge11_Node000007_Node000011"><a xlink:title=" ">
<path fill="none" stroke="#63b8ff" d="M539.33,-175.99C576.46,-165.75 638.95,-148.5 679.96,-137.19"/>
<polygon fill="#63b8ff" stroke="#63b8ff" points="680.93,-140.55 689.64,-134.52 679.07,-133.8 680.93,-140.55"/>
</a>
</g>
</g>
<!-- Node12 -->
<g id="Node000012" class="node">
<title>Node12</title>
<g id="a_Node000012"><a xlink:href="request_8hpp.html" target="_top" xlink:title=" ">
<polygon fill="white" stroke="#666666" points="342,-134.5 205,-134.5 205,-115.5 342,-115.5 342,-134.5"/>
<text text-anchor="middle" x="273.5" y="-122.5" font-family="Helvetica,sans-Serif" font-size="10.00">jsonrpc/core/request.hpp</text>
</a>
</g>
</g>
<!-- Node7&#45;&gt;Node12 -->
<g id="edge12_Node000007_Node000012" class="edge">
<title>Node7&#45;&gt;Node12</title>
<g id="a_edge12_Node000007_Node000012"><a xlink:title=" ">
<path fill="none" stroke="#63b8ff" d="M474.33,-175.99C432.91,-165.68 363.02,-148.28 317.58,-136.97"/>
<polygon fill="#63b8ff" stroke="#63b8ff" points="318.26,-133.54 307.71,-134.52 316.57,-140.33 318.26,-133.54"/>
</a>
</g>
</g>
<!-- Node7&#45;&gt;Node13 -->
<g id="edge25_Node000007_Node000013" class="edge">
<title>Node7&#45;&gt;Node13</title>
<g id="a_edge25_Node000007_Node000013"><a xlink:title=" ">
<path fill="none" stroke="#63b8ff" d="M433.46,-178.46C305.65,-168.01 58.83,-146.98 52.5,-140 43.54,-130.12 46.01,-121.65 52.5,-110 60.54,-95.58 75.4,-85.24 89.54,-78.18"/>
<polygon fill="#63b8ff" stroke="#63b8ff" points="91.01,-81.36 98.65,-74.01 88.1,-74.99 91.01,-81.36"/>
</a>
</g>
</g>
<!-- Node17 -->
<g id="Node000017" class="node">
<title>Node17</title>
<g id="a_Node000017"><a xlink:href="response_8hpp.html" target="_top" xlink:title=" ">
<polygon fill="white" stroke="#666666" points="580.5,-134.5 436.5,-134.5 436.5,-115.5 580.5,-115.5 580.5,-134.5"/>
<text text-anchor="middle" x="508.5" y="-122.5" font-family="Helvetica,sans-Serif" font-size="10.00">jsonrpc/core/response.hpp</text>
</a>
</g>
</g>
<!-- Node7&#45;&gt;Node17 -->
<g id="edge20_Node000007_Node000017" class="edge">
<title>Node7&#45;&gt;Node17</title>
<g id="a_edge20_Node000007_Node000017"><a xlink:title=" ">
<path fill="none" stroke="#63b8ff" d="M508.5,-175.87C508.5,-167.75 508.5,-155.31 508.5,-144.89"/>
<polygon fill="#63b8ff" stroke="#63b8ff" points="512,-144.67 508.5,-134.67 505,-144.67 512,-144.67"/>
</a>
</g>
</g>
<!-- Node12&#45;&gt;Node3 -->
<g id="edge14_Node000012_Node000003" class="edge">
<title>Node12&#45;&gt;Node3</title>
<g id="a_edge14_Node000012_Node000003"><a xlink:title=" ">
<path fill="none" stroke="#63b8ff" d="M287.81,-115.37C303.5,-105.91 328.9,-90.59 347.41,-79.42"/>
<polygon fill="#63b8ff" stroke="#63b8ff" points="349.37,-82.33 356.13,-74.17 345.76,-76.33 349.37,-82.33"/>
</a>
</g>
</g>
<!-- Node12&#45;&gt;Node8 -->
<g id="edge13_Node000012_Node000008" class="edge">
<title>Node12&#45;&gt;Node8</title>
<g id="a_edge13_Node000012_Node000008"><a xlink:title=" ">
<path fill="none" stroke="#63b8ff" d="M279.31,-115.33C289.64,-100.62 312.65,-70.82 339.5,-55 380.42,-30.88 434.49,-19.62 470.33,-14.51"/>
<polygon fill="#63b8ff" stroke="#63b8ff" points="470.93,-17.96 480.38,-13.17 470,-11.02 470.93,-17.96"/>
</a>
</g>
</g>
<!-- Node12&#45;&gt;Node13 -->
<g id="edge15_Node000012_Node000013" class="edge">
<title>Node12&#45;&gt;Node13</title>
<g id="a_edge15_Node000012_Node000013"><a xlink:title=" ">
<path fill="none" stroke="#63b8ff" d="M251.83,-115.49C226.56,-105.57 184.59,-89.09 155.78,-77.78"/>
<polygon fill="#63b8ff" stroke="#63b8ff" points="156.78,-74.41 146.19,-74.02 154.22,-80.93 156.78,-74.41"/>
</a>
</g>
</g>
<!-- Node13&#45;&gt;Node8 -->
<g id="edge17_Node000013_Node000008" class="edge">
<title>Node13&#45;&gt;Node8</title>
<g id="a_edge17_Node000013_Node000008"><a xlink:title=" ">
<path fill="none" stroke="#63b8ff" d="M186.2,-54.98C266.29,-43.93 403.67,-24.97 470.18,-15.79"/>
<polygon fill="#63b8ff" stroke="#63b8ff" points="470.8,-19.24 480.23,-14.4 469.84,-12.3 470.8,-19.24"/>
</a>
</g>
</g>
<!-- Node14 -->
<g id="Node000014" class="node">
<title>Node14</title>
<g id="a_Node000014"><a xlink:title=" ">
<polygon fill="#e0e0e0" stroke="#999999" points="263,-19 198,-19 198,0 263,0 263,-19"/>
<text text-anchor="middle" x="230.5" y="-7" font-family="Helvetica,sans-Serif" font-size="10.00">functional</text>
</a>
</g>
</g>
<!-- Node13&#45;&gt;Node14 -->
<g id="edge16_Node000013_Node000014" class="edge">
<title>Node13&#45;&gt;Node14</title>
<g id="a_edge16_Node000013_Node000014"><a xlink:title=" ">
<path fill="none" stroke="#63b8ff" d="M141.53,-54.98C158.43,-46.54 184.56,-33.47 204.14,-23.68"/>
<polygon fill="#63b8ff" stroke="#63b8ff" points="205.78,-26.77 213.16,-19.17 202.65,-20.51 205.78,-26.77"/>
</a>
</g>
</g>
<!-- Node15 -->
<g id="Node000015" class="node">
<title>Node15</title>
<g id="a_Node000015"><a xlink:title=" ">
<polygon fill="#e0e0e0" stroke="#999999" points="51,-19 0,-19 0,0 51,0 51,-19"/>
<text text-anchor="middle" x="25.5" y="-7" font-family="Helvetica,sans-Serif" font-size="10.00">variant</text>
</a>
</g>
</g>
<!-- Node13&#45;&gt;Node15 -->
<g id="edge18_Node000013_Node000015" class="edge">
<title>Node13&#45;&gt;Node15</title>
<g id="a_edge18_Node000013_Node000015"><a xlink:title=" ">
<path fill="none" stroke="#63b8ff" d="M108.59,-54.98C92.95,-46.61 68.84,-33.7 50.62,-23.95"/>
<polygon fill="#63b8ff" stroke="#63b8ff" points="52.16,-20.8 41.7,-19.17 48.86,-26.98 52.16,-20.8"/>
</a>
</g>
</g>
<!-- Node16 -->
<g id="Node000016" class="node">
<title>Node16</title>
<g id="a_Node000016"><a xlink:title=" ">
<polygon fill="#e0e0e0" stroke="#999999" points="179.5,-19 69.5,-19 69.5,0 179.5,0 179.5,-19"/>
<text text-anchor="middle" x="124.5" y="-7" font-family="Helvetica,sans-Serif" font-size="10.00">nlohmann/json.hpp</text>
</a>
</g>
</g>
<!-- Node13&#45;&gt;Node16 -->
<g id="edge19_Node000013_Node000016" class="edge">
<title>Node13&#45;&gt;Node16</title>
<g id="a_edge19_Node000013_Node000016"><a xlink:title=" ">
<path fill="none" stroke="#63b8ff" d="M124.5,-54.75C124.5,-47.8 124.5,-37.85 124.5,-29.13"/>
<polygon fill="#63b8ff" stroke="#63b8ff" points="128,-29.09 124.5,-19.09 121,-29.09 128,-29.09"/>
</a>
</g>
</g>
<!-- Node17&#45;&gt;Node3 -->
<g id="edge22_Node000017_Node000003" class="edge">
<title>Node17&#45;&gt;Node3</title>
<g id="a_edge22_Node000017_Node000003"><a xlink:title=" ">
<path fill="none" stroke="#63b8ff" d="M488.43,-115.49C465.13,-105.62 426.49,-89.23 399.82,-77.93"/>
<polygon fill="#63b8ff" stroke="#63b8ff" points="401.16,-74.7 390.59,-74.02 398.43,-81.14 401.16,-74.7"/>
</a>
</g>
</g>
<!-- Node17&#45;&gt;Node8 -->
<g id="edge21_Node000017_Node000008" class="edge">
<title>Node17&#45;&gt;Node8</title>
<g id="a_edge21_Node000017_Node000008"><a xlink:title=" ">
<path fill="none" stroke="#63b8ff" d="M508.5,-115.47C508.5,-97.23 508.5,-54.07 508.5,-29.14"/>
<polygon fill="#63b8ff" stroke="#63b8ff" points="512,-29.13 508.5,-19.13 505,-29.13 512,-29.13"/>
</a>
</g>
</g>
<!-- Node17&#45;&gt;Node9 -->
<g id="edge23_Node000017_Node000009" class="edge">
<title>Node17&#45;&gt;Node9</title>
<g id="a_edge23_Node000017_Node000009"><a xlink:title=" ">
<path fill="none" stroke="#63b8ff" d="M557.36,-115.49C618.52,-104.85 723.08,-86.64 787.73,-75.38"/>
<polygon fill="#63b8ff" stroke="#63b8ff" points="788.5,-78.8 797.75,-73.64 787.3,-71.91 788.5,-78.8"/>
</a>
</g>
</g>
<!-- Node17&#45;&gt;Node13 -->
<g id="edge24_Node000017_Node000013" class="edge">
<title>Node17&#45;&gt;Node13</title>
<g id="a_edge24_Node000017_Node000013"><a xlink:title=" ">
<path fill="none" stroke="#63b8ff" d="M452.66,-115.49C383.13,-104.9 264.51,-86.83 190.54,-75.56"/>
<polygon fill="#63b8ff" stroke="#63b8ff" points="190.82,-72.06 180.4,-74.02 189.76,-78.98 190.82,-72.06"/>
</a>
</g>
</g>
<!-- Node18&#45;&gt;Node3 -->
<g id="edge29_Node000018_Node000003" class="edge">
<title>Node18&#45;&gt;Node3</title>
<g id="a_edge29_Node000018_Node000003"><a xlink:title=" ">
<path fill="none" stroke="#63b8ff" d="M183.42,-109.99C232.09,-98.41 299.33,-82.42 338.54,-73.1"/>
<polygon fill="#63b8ff" stroke="#63b8ff" points="339.43,-76.49 348.34,-70.77 337.81,-69.68 339.43,-76.49"/>
</a>
</g>
</g>
<!-- Node18&#45;&gt;Node13 -->
<g id="edge30_Node000018_Node000013" class="edge">
<title>Node18&#45;&gt;Node13</title>
<g id="a_edge30_Node000018_Node000013"><a xlink:title=" ">
<path fill="none" stroke="#63b8ff" d="M124.5,-109.84C124.5,-102.21 124.5,-92.7 124.5,-84.45"/>
<polygon fill="#63b8ff" stroke="#63b8ff" points="128,-84.27 124.5,-74.27 121,-84.27 128,-84.27"/>
</a>
</g>
</g>
</g>
</svg>
