<?xml version="1.0" encoding="UTF-8" standalone="no"?>
<!DOCTYPE svg PUBLIC "-//W3C//DTD SVG 1.1//EN"
 "http://www.w3.org/Graphics/SVG/1.1/DTD/svg11.dtd">
<!-- Generated by graphviz version 2.43.0 (0)
 -->
<!-- Title: src/transport/framed_stdio_transport.cpp Pages: 1 -->
<svg width="474pt" height="225pt"
 viewBox="0.00 0.00 473.76 225.00" xmlns="http://www.w3.org/2000/svg" xmlns:xlink="http://www.w3.org/1999/xlink">
<g id="graph0" class="graph" transform="scale(1 1) rotate(0) translate(4 221)">
<title>src/transport/framed_stdio_transport.cpp</title>
<!-- Node1 -->
<g id="Node000001" class="node">
<title>Node1</title>
<g id="a_Node000001"><a xlink:title=" ">
<polygon fill="#999999" stroke="#666666" points="273.26,-217 157.26,-217 157.26,-187 273.26,-187 273.26,-217"/>
<text text-anchor="start" x="165.26" y="-205" font-family="Helvetica,sans-Serif" font-size="10.00">src/transport/framed</text>
<text text-anchor="middle" x="215.26" y="-194" font-family="Helvetica,sans-Serif" font-size="10.00">_stdio_transport.cpp</text>
</a>
</g>
</g>
<!-- Node2 -->
<g id="Node000002" class="node">
<title>Node2</title>
<g id="a_Node000002"><a xlink:href="framed__stdio__transport_8hpp.html" target="_top" xlink:title=" ">
<polygon fill="white" stroke="#666666" points="166.76,-151 29.76,-151 29.76,-121 166.76,-121 166.76,-151"/>
<text text-anchor="start" x="37.76" y="-139" font-family="Helvetica,sans-Serif" font-size="10.00">jsonrpc/transport/framed</text>
<text text-anchor="middle" x="98.26" y="-128" font-family="Helvetica,sans-Serif" font-size="10.00">_stdio_transport.hpp</text>
</a>
</g>
</g>
<!-- Node1&#45;&gt;Node2 -->
<g id="edge1_Node000001_Node000002" class="edge">
<title>Node1&#45;&gt;Node2</title>
<g id="a_edge1_Node000001_Node000002"><a xlink:title=" ">
<path fill="none" stroke="#63b8ff" d="M189.59,-186.95C172.98,-177.87 151.14,-165.93 132.99,-156"/>
<polygon fill="#63b8ff" stroke="#63b8ff" points="134.33,-152.74 123.88,-151.01 130.97,-158.88 134.33,-152.74"/>
</a>
</g>
</g>
<!-- Node10 -->
<g id="Node000010" class="node">
<title>Node10</title>
<g id="a_Node000010"><a xlink:title=" ">
<polygon fill="#e0e0e0" stroke="#999999" points="245.26,-145.5 185.26,-145.5 185.26,-126.5 245.26,-126.5 245.26,-145.5"/>
<text text-anchor="middle" x="215.26" y="-133.5" font-family="Helvetica,sans-Serif" font-size="10.00">iostream</text>
</a>
</g>
</g>
<!-- Node1&#45;&gt;Node10 -->
<g id="edge11_Node000001_Node000010" class="edge">
<title>Node1&#45;&gt;Node10</title>
<g id="a_edge11_Node000001_Node000010"><a xlink:title=" ">
<path fill="none" stroke="#63b8ff" d="M215.26,-186.8C215.26,-177.7 215.26,-165.79 215.26,-155.9"/>
<polygon fill="#63b8ff" stroke="#63b8ff" points="218.76,-155.84 215.26,-145.84 211.76,-155.84 218.76,-155.84"/>
</a>
</g>
</g>
<!-- Node11 -->
<g id="Node000011" class="node">
<title>Node11</title>
<g id="a_Node000011"><a xlink:title=" ">
<polygon fill="#e0e0e0" stroke="#999999" points="356.76,-145.5 263.76,-145.5 263.76,-126.5 356.76,-126.5 356.76,-145.5"/>
<text text-anchor="middle" x="310.26" y="-133.5" font-family="Helvetica,sans-Serif" font-size="10.00">spdlog/spdlog.h</text>
</a>
</g>
</g>
<!-- Node1&#45;&gt;Node11 -->
<g id="edge12_Node000001_Node000011" class="edge">
<title>Node1&#45;&gt;Node11</title>
<g id="a_edge12_Node000001_Node000011"><a xlink:title=" ">
<path fill="none" stroke="#63b8ff" d="M236.35,-186.8C251.98,-176.27 273.2,-161.97 288.89,-151.4"/>
<polygon fill="#63b8ff" stroke="#63b8ff" points="291.07,-154.15 297.41,-145.66 287.16,-148.34 291.07,-154.15"/>
</a>
</g>
</g>
<!-- Node3 -->
<g id="Node000003" class="node">
<title>Node3</title>
<g id="a_Node000003"><a xlink:title=" ">
<polygon fill="#e0e0e0" stroke="#999999" points="120.26,-19 76.26,-19 76.26,0 120.26,0 120.26,-19"/>
<text text-anchor="middle" x="98.26" y="-7" font-family="Helvetica,sans-Serif" font-size="10.00">string</text>
</a>
</g>
</g>
<!-- Node2&#45;&gt;Node3 -->
<g id="edge2_Node000002_Node000003" class="edge">
<title>Node2&#45;&gt;Node3</title>
<g id="a_edge2_Node000002_Node000003"><a xlink:title=" ">
<path fill="none" stroke="#63b8ff" d="M50.16,-120.8C32.89,-113.12 15.23,-101.68 5.26,-85 -1.58,-73.56 -1.84,-66.28 5.26,-55 18.55,-33.92 44.89,-22.6 66.15,-16.67"/>
<polygon fill="#63b8ff" stroke="#63b8ff" points="67.26,-20 76.11,-14.17 65.56,-13.21 67.26,-20"/>
</a>
</g>
</g>
<!-- Node4 -->
<g id="Node000004" class="node">
<title>Node4</title>
<g id="a_Node000004"><a xlink:href="framed__transport_8hpp.html" target="_top" xlink:title=" ">
<polygon fill="white" stroke="#666666" points="336.76,-85 199.76,-85 199.76,-55 336.76,-55 336.76,-85"/>
<text text-anchor="start" x="207.76" y="-73" font-family="Helvetica,sans-Serif" font-size="10.00">jsonrpc/transport/framed</text>
<text text-anchor="middle" x="268.26" y="-62" font-family="Helvetica,sans-Serif" font-size="10.00">_transport.hpp</text>
</a>
</g>
</g>
<!-- Node2&#45;&gt;Node4 -->
<g id="edge3_Node000002_Node000004" class="edge">
<title>Node2&#45;&gt;Node4</title>
<g id="a_edge3_Node000002_Node000004"><a xlink:title=" ">
<path fill="none" stroke="#63b8ff" d="M135.57,-120.95C160.82,-111.45 194.36,-98.82 221.4,-88.64"/>
<polygon fill="#63b8ff" stroke="#63b8ff" points="222.92,-91.81 231.04,-85.01 220.45,-85.26 222.92,-91.81"/>
</a>
</g>
</g>
<!-- Node9 -->
<g id="Node000009" class="node">
<title>Node9</title>
<g id="a_Node000009"><a xlink:href="transport_8hpp.html" target="_top" xlink:title=" ">
<polygon fill="white" stroke="#666666" points="181.76,-79.5 14.76,-79.5 14.76,-60.5 181.76,-60.5 181.76,-79.5"/>
<text text-anchor="middle" x="98.26" y="-67.5" font-family="Helvetica,sans-Serif" font-size="10.00">jsonrpc/transport/transport.hpp</text>
</a>
</g>
</g>
<!-- Node2&#45;&gt;Node9 -->
<g id="edge9_Node000002_Node000009" class="edge">
<title>Node2&#45;&gt;Node9</title>
<g id="a_edge9_Node000002_Node000009"><a xlink:title=" ">
<path fill="none" stroke="#63b8ff" d="M98.26,-120.8C98.26,-111.7 98.26,-99.79 98.26,-89.9"/>
<polygon fill="#63b8ff" stroke="#63b8ff" points="101.76,-89.84 98.26,-79.84 94.76,-89.84 101.76,-89.84"/>
</a>
</g>
</g>
<!-- Node4&#45;&gt;Node3 -->
<g id="edge7_Node000004_Node000003" class="edge">
<title>Node4&#45;&gt;Node3</title>
<g id="a_edge7_Node000004_Node000003"><a xlink:title=" ">
<path fill="none" stroke="#63b8ff" d="M227.54,-54.99C197.63,-44.69 157.55,-30.9 129.99,-21.42"/>
<polygon fill="#63b8ff" stroke="#63b8ff" points="131.04,-18.08 120.45,-18.13 128.76,-24.7 131.04,-18.08"/>
</a>
</g>
</g>
<!-- Node5 -->
<g id="Node000005" class="node">
<title>Node5</title>
<g id="a_Node000005"><a xlink:title=" ">
<polygon fill="#e0e0e0" stroke="#999999" points="206.76,-19 153.76,-19 153.76,0 206.76,0 206.76,-19"/>
<text text-anchor="middle" x="180.26" y="-7" font-family="Helvetica,sans-Serif" font-size="10.00">cstddef</text>
</a>
</g>
</g>
<!-- Node4&#45;&gt;Node5 -->
<g id="edge4_Node000004_Node000005" class="edge">
<title>Node4&#45;&gt;Node5</title>
<g id="a_edge4_Node000004_Node000005"><a xlink:title=" ">
<path fill="none" stroke="#63b8ff" d="M246.96,-54.84C233.19,-45.68 215.34,-33.82 201.57,-24.66"/>
<polygon fill="#63b8ff" stroke="#63b8ff" points="203.46,-21.72 193.19,-19.09 199.58,-27.55 203.46,-21.72"/>
</a>
</g>
</g>
<!-- Node6 -->
<g id="Node000006" class="node">
<title>Node6</title>
<g id="a_Node000006"><a xlink:title=" ">
<polygon fill="#e0e0e0" stroke="#999999" points="279.26,-19 225.26,-19 225.26,0 279.26,0 279.26,-19"/>
<text text-anchor="middle" x="252.26" y="-7" font-family="Helvetica,sans-Serif" font-size="10.00">istream</text>
</a>
</g>
</g>
<!-- Node4&#45;&gt;Node6 -->
<g id="edge5_Node000004_Node000006" class="edge">
<title>Node4&#45;&gt;Node6</title>
<g id="a_edge5_Node000004_Node000006"><a xlink:title=" ">
<path fill="none" stroke="#63b8ff" d="M264.39,-54.84C262.28,-47.13 259.65,-37.49 257.37,-29.17"/>
<polygon fill="#63b8ff" stroke="#63b8ff" points="260.68,-27.99 254.66,-19.27 253.92,-29.84 260.68,-27.99"/>
</a>
</g>
</g>
<!-- Node7 -->
<g id="Node000007" class="node">
<title>Node7</title>
<g id="a_Node000007"><a xlink:title=" ">
<polygon fill="#e0e0e0" stroke="#999999" points="354.76,-19 297.76,-19 297.76,0 354.76,0 354.76,-19"/>
<text text-anchor="middle" x="326.26" y="-7" font-family="Helvetica,sans-Serif" font-size="10.00">ostream</text>
</a>
</g>
</g>
<!-- Node4&#45;&gt;Node7 -->
<g id="edge6_Node000004_Node000007" class="edge">
<title>Node4&#45;&gt;Node7</title>
<g id="a_edge6_Node000004_Node000007"><a xlink:title=" ">
<path fill="none" stroke="#63b8ff" d="M282.3,-54.84C290.81,-46.26 301.68,-35.3 310.48,-26.42"/>
<polygon fill="#63b8ff" stroke="#63b8ff" points="313.02,-28.83 317.57,-19.27 308.05,-23.9 313.02,-28.83"/>
</a>
</g>
</g>
<!-- Node8 -->
<g id="Node000008" class="node">
<title>Node8</title>
<g id="a_Node000008"><a xlink:title=" ">
<polygon fill="#e0e0e0" stroke="#999999" points="465.76,-19 372.76,-19 372.76,0 465.76,0 465.76,-19"/>
<text text-anchor="middle" x="419.26" y="-7" font-family="Helvetica,sans-Serif" font-size="10.00">unordered_map</text>
</a>
</g>
</g>
<!-- Node4&#45;&gt;Node8 -->
<g id="edge8_Node000004_Node000008" class="edge">
<title>Node4&#45;&gt;Node8</title>
<g id="a_edge8_Node000004_Node000008"><a xlink:title=" ">
<path fill="none" stroke="#63b8ff" d="M304.43,-54.99C329.74,-45.18 363.22,-32.21 387.5,-22.81"/>
<polygon fill="#63b8ff" stroke="#63b8ff" points="388.9,-26.02 396.96,-19.14 386.38,-19.49 388.9,-26.02"/>
</a>
</g>
</g>
<!-- Node9&#45;&gt;Node3 -->
<g id="edge10_Node000009_Node000003" class="edge">
<title>Node9&#45;&gt;Node3</title>
<g id="a_edge10_Node000009_Node000003"><a xlink:title=" ">
<path fill="none" stroke="#63b8ff" d="M98.26,-60.37C98.26,-52.25 98.26,-39.81 98.26,-29.39"/>
<polygon fill="#63b8ff" stroke="#63b8ff" points="101.76,-29.17 98.26,-19.17 94.76,-29.17 101.76,-29.17"/>
</a>
</g>
</g>
</g>
</svg>
