<?xml version="1.0" encoding="UTF-8" standalone="no"?>
<!DOCTYPE svg PUBLIC "-//W3C//DTD SVG 1.1//EN"
 "http://www.w3.org/Graphics/SVG/1.1/DTD/svg11.dtd">
<!-- Generated by graphviz version 2.43.0 (0)
 -->
<!-- Title: src/transport/framed_socket_transport.cpp Pages: 1 -->
<svg width="732pt" height="280pt"
 viewBox="0.00 0.00 731.71 280.00" xmlns="http://www.w3.org/2000/svg" xmlns:xlink="http://www.w3.org/1999/xlink">
<g id="graph0" class="graph" transform="scale(1 1) rotate(0) translate(4 276)">
<title>src/transport/framed_socket_transport.cpp</title>
<!-- Node1 -->
<g id="Node000001" class="node">
<title>Node1</title>
<g id="a_Node000001"><a xlink:title=" ">
<polygon fill="#999999" stroke="#666666" points="540.71,-272 417.71,-272 417.71,-242 540.71,-242 540.71,-272"/>
<text text-anchor="start" x="425.71" y="-260" font-family="Helvetica,sans-Serif" font-size="10.00">src/transport/framed</text>
<text text-anchor="middle" x="479.21" y="-249" font-family="Helvetica,sans-Serif" font-size="10.00">_socket_transport.cpp</text>
</a>
</g>
</g>
<!-- Node2 -->
<g id="Node000002" class="node">
<title>Node2</title>
<g id="a_Node000002"><a xlink:href="framed__socket__transport_8hpp.html" target="_top" xlink:title=" ">
<polygon fill="white" stroke="#666666" points="349.71,-206 212.71,-206 212.71,-176 349.71,-176 349.71,-206"/>
<text text-anchor="start" x="220.71" y="-194" font-family="Helvetica,sans-Serif" font-size="10.00">jsonrpc/transport/framed</text>
<text text-anchor="middle" x="281.21" y="-183" font-family="Helvetica,sans-Serif" font-size="10.00">_socket_transport.hpp</text>
</a>
</g>
</g>
<!-- Node1&#45;&gt;Node2 -->
<g id="edge1_Node000001_Node000002" class="edge">
<title>Node1&#45;&gt;Node2</title>
<g id="a_edge1_Node000001_Node000002"><a xlink:title=" ">
<path fill="none" stroke="#63b8ff" d="M435.76,-241.95C405.84,-232.28 365.92,-219.38 334.14,-209.11"/>
<polygon fill="#63b8ff" stroke="#63b8ff" points="335.16,-205.76 324.56,-206.01 333,-212.42 335.16,-205.76"/>
</a>
</g>
</g>
<!-- Node13 -->
<g id="Node000013" class="node">
<title>Node13</title>
<g id="a_Node000013"><a xlink:title=" ">
<polygon fill="#e0e0e0" stroke="#999999" points="432.71,-200.5 367.71,-200.5 367.71,-181.5 432.71,-181.5 432.71,-200.5"/>
<text text-anchor="middle" x="400.21" y="-188.5" font-family="Helvetica,sans-Serif" font-size="10.00">stdexcept</text>
</a>
</g>
</g>
<!-- Node1&#45;&gt;Node13 -->
<g id="edge16_Node000001_Node000013" class="edge">
<title>Node1&#45;&gt;Node13</title>
<g id="a_edge16_Node000001_Node000013"><a xlink:title=" ">
<path fill="none" stroke="#63b8ff" d="M461.68,-241.8C449,-231.53 431.9,-217.67 418.95,-207.18"/>
<polygon fill="#63b8ff" stroke="#63b8ff" points="421.1,-204.42 411.13,-200.84 416.7,-209.86 421.1,-204.42"/>
</a>
</g>
</g>
<!-- Node14 -->
<g id="Node000014" class="node">
<title>Node14</title>
<g id="a_Node000014"><a xlink:title=" ">
<polygon fill="#e0e0e0" stroke="#999999" points="507.21,-200.5 451.21,-200.5 451.21,-181.5 507.21,-181.5 507.21,-200.5"/>
<text text-anchor="middle" x="479.21" y="-188.5" font-family="Helvetica,sans-Serif" font-size="10.00">unistd.h</text>
</a>
</g>
</g>
<!-- Node1&#45;&gt;Node14 -->
<g id="edge17_Node000001_Node000014" class="edge">
<title>Node1&#45;&gt;Node14</title>
<g id="a_edge17_Node000001_Node000014"><a xlink:title=" ">
<path fill="none" stroke="#63b8ff" d="M479.21,-241.8C479.21,-232.7 479.21,-220.79 479.21,-210.9"/>
<polygon fill="#63b8ff" stroke="#63b8ff" points="482.71,-210.84 479.21,-200.84 475.71,-210.84 482.71,-210.84"/>
</a>
</g>
</g>
<!-- Node15 -->
<g id="Node000015" class="node">
<title>Node15</title>
<g id="a_Node000015"><a xlink:title=" ">
<polygon fill="#e0e0e0" stroke="#999999" points="604.71,-200.5 525.71,-200.5 525.71,-181.5 604.71,-181.5 604.71,-200.5"/>
<text text-anchor="middle" x="565.21" y="-188.5" font-family="Helvetica,sans-Serif" font-size="10.00">fmt/format.h</text>
</a>
</g>
</g>
<!-- Node1&#45;&gt;Node15 -->
<g id="edge18_Node000001_Node000015" class="edge">
<title>Node1&#45;&gt;Node15</title>
<g id="a_edge18_Node000001_Node000015"><a xlink:title=" ">
<path fill="none" stroke="#63b8ff" d="M498.3,-241.8C512.23,-231.43 531.08,-217.4 545.22,-206.88"/>
<polygon fill="#63b8ff" stroke="#63b8ff" points="547.4,-209.62 553.33,-200.84 543.22,-204.01 547.4,-209.62"/>
</a>
</g>
</g>
<!-- Node16 -->
<g id="Node000016" class="node">
<title>Node16</title>
<g id="a_Node000016"><a xlink:title=" ">
<polygon fill="#e0e0e0" stroke="#999999" points="715.71,-200.5 622.71,-200.5 622.71,-181.5 715.71,-181.5 715.71,-200.5"/>
<text text-anchor="middle" x="669.21" y="-188.5" font-family="Helvetica,sans-Serif" font-size="10.00">spdlog/spdlog.h</text>
</a>
</g>
</g>
<!-- Node1&#45;&gt;Node16 -->
<g id="edge19_Node000001_Node000016" class="edge">
<title>Node1&#45;&gt;Node16</title>
<g id="a_edge19_Node000001_Node000016"><a xlink:title=" ">
<path fill="none" stroke="#63b8ff" d="M520.91,-241.95C554.82,-230.53 602.12,-214.6 634.11,-203.82"/>
<polygon fill="#63b8ff" stroke="#63b8ff" points="635.57,-207.03 643.93,-200.52 633.33,-200.39 635.57,-207.03"/>
</a>
</g>
</g>
<!-- Node3 -->
<g id="Node000003" class="node">
<title>Node3</title>
<g id="a_Node000003"><a xlink:title=" ">
<polygon fill="#e0e0e0" stroke="#999999" points="501.21,-74 443.21,-74 443.21,-55 501.21,-55 501.21,-74"/>
<text text-anchor="middle" x="472.21" y="-62" font-family="Helvetica,sans-Serif" font-size="10.00">asio.hpp</text>
</a>
</g>
</g>
<!-- Node2&#45;&gt;Node3 -->
<g id="edge2_Node000002_Node000003" class="edge">
<title>Node2&#45;&gt;Node3</title>
<g id="a_edge2_Node000002_Node000003"><a xlink:title=" ">
<path fill="none" stroke="#63b8ff" d="M338.66,-175.99C363.47,-168.1 391.86,-156.45 414.21,-140 435.18,-124.57 452.46,-99.61 462.55,-82.88"/>
<polygon fill="#63b8ff" stroke="#63b8ff" points="465.64,-84.53 467.64,-74.12 459.59,-81.01 465.64,-84.53"/>
</a>
</g>
</g>
<!-- Node4 -->
<g id="Node000004" class="node">
<title>Node4</title>
<g id="a_Node000004"><a xlink:title=" ">
<polygon fill="#e0e0e0" stroke="#999999" points="182.71,-134.5 15.71,-134.5 15.71,-115.5 182.71,-115.5 182.71,-134.5"/>
<text text-anchor="middle" x="99.21" y="-122.5" font-family="Helvetica,sans-Serif" font-size="10.00">asio/local/stream_protocol.hpp</text>
</a>
</g>
</g>
<!-- Node2&#45;&gt;Node4 -->
<g id="edge3_Node000002_Node000004" class="edge">
<title>Node2&#45;&gt;Node4</title>
<g id="a_edge3_Node000002_Node000004"><a xlink:title=" ">
<path fill="none" stroke="#63b8ff" d="M241.27,-175.95C208.93,-164.58 163.87,-148.74 133.23,-137.96"/>
<polygon fill="#63b8ff" stroke="#63b8ff" points="134.03,-134.53 123.43,-134.52 131.71,-141.14 134.03,-134.53"/>
</a>
</g>
</g>
<!-- Node5 -->
<g id="Node000005" class="node">
<title>Node5</title>
<g id="a_Node000005"><a xlink:title=" ">
<polygon fill="#e0e0e0" stroke="#999999" points="250.21,-134.5 200.21,-134.5 200.21,-115.5 250.21,-115.5 250.21,-134.5"/>
<text text-anchor="middle" x="225.21" y="-122.5" font-family="Helvetica,sans-Serif" font-size="10.00">cstdint</text>
</a>
</g>
</g>
<!-- Node2&#45;&gt;Node5 -->
<g id="edge4_Node000002_Node000005" class="edge">
<title>Node2&#45;&gt;Node5</title>
<g id="a_edge4_Node000002_Node000005"><a xlink:title=" ">
<path fill="none" stroke="#63b8ff" d="M268.78,-175.8C260.14,-165.92 248.59,-152.72 239.56,-142.39"/>
<polygon fill="#63b8ff" stroke="#63b8ff" points="242.17,-140.07 232.95,-134.84 236.9,-144.67 242.17,-140.07"/>
</a>
</g>
</g>
<!-- Node6 -->
<g id="Node000006" class="node">
<title>Node6</title>
<g id="a_Node000006"><a xlink:title=" ">
<polygon fill="#e0e0e0" stroke="#999999" points="364.21,-19 320.21,-19 320.21,0 364.21,0 364.21,-19"/>
<text text-anchor="middle" x="342.21" y="-7" font-family="Helvetica,sans-Serif" font-size="10.00">string</text>
</a>
</g>
</g>
<!-- Node2&#45;&gt;Node6 -->
<g id="edge5_Node000002_Node000006" class="edge">
<title>Node2&#45;&gt;Node6</title>
<g id="a_edge5_Node000002_Node000006"><a xlink:title=" ">
<path fill="none" stroke="#63b8ff" d="M212.38,-187.25C139.66,-182.73 31.98,-170.88 6.21,-140 -2.33,-129.76 -1.55,-120.84 6.21,-110 42.26,-59.7 233.19,-26.51 310.09,-15"/>
<polygon fill="#63b8ff" stroke="#63b8ff" points="310.77,-18.44 320.15,-13.52 309.75,-11.51 310.77,-18.44"/>
</a>
</g>
</g>
<!-- Node7 -->
<g id="Node000007" class="node">
<title>Node7</title>
<g id="a_Node000007"><a xlink:href="framed__transport_8hpp.html" target="_top" xlink:title=" ">
<polygon fill="white" stroke="#666666" points="405.71,-140 268.71,-140 268.71,-110 405.71,-110 405.71,-140"/>
<text text-anchor="start" x="276.71" y="-128" font-family="Helvetica,sans-Serif" font-size="10.00">jsonrpc/transport/framed</text>
<text text-anchor="middle" x="337.21" y="-117" font-family="Helvetica,sans-Serif" font-size="10.00">_transport.hpp</text>
</a>
</g>
</g>
<!-- Node2&#45;&gt;Node7 -->
<g id="edge6_Node000002_Node000007" class="edge">
<title>Node2&#45;&gt;Node7</title>
<g id="a_edge6_Node000002_Node000007"><a xlink:title=" ">
<path fill="none" stroke="#63b8ff" d="M293.64,-175.8C300.82,-167.59 310,-157.1 318.08,-147.87"/>
<polygon fill="#63b8ff" stroke="#63b8ff" points="320.87,-149.99 324.82,-140.16 315.6,-145.38 320.87,-149.99"/>
</a>
</g>
</g>
<!-- Node11 -->
<g id="Node000011" class="node">
<title>Node11</title>
<g id="a_Node000011"><a xlink:href="socket__transport_8hpp.html" target="_top" xlink:title=" ">
<polygon fill="white" stroke="#666666" points="596.21,-140 462.21,-140 462.21,-110 596.21,-110 596.21,-140"/>
<text text-anchor="start" x="470.21" y="-128" font-family="Helvetica,sans-Serif" font-size="10.00">jsonrpc/transport/socket</text>
<text text-anchor="middle" x="529.21" y="-117" font-family="Helvetica,sans-Serif" font-size="10.00">_transport.hpp</text>
</a>
</g>
</g>
<!-- Node2&#45;&gt;Node11 -->
<g id="edge11_Node000002_Node000011" class="edge">
<title>Node2&#45;&gt;Node11</title>
<g id="a_edge11_Node000002_Node000011"><a xlink:title=" ">
<path fill="none" stroke="#63b8ff" d="M335.64,-175.95C373.84,-166.1 425.06,-152.88 465.22,-142.51"/>
<polygon fill="#63b8ff" stroke="#63b8ff" points="466.11,-145.9 474.92,-140.01 464.36,-139.12 466.11,-145.9"/>
</a>
</g>
</g>
<!-- Node7&#45;&gt;Node6 -->
<g id="edge9_Node000007_Node000006" class="edge">
<title>Node7&#45;&gt;Node6</title>
<g id="a_edge9_Node000007_Node000006"><a xlink:title=" ">
<path fill="none" stroke="#63b8ff" d="M268.57,-111.27C229.78,-102.53 186.79,-89.69 175.21,-74 170.2,-67.21 170.07,-61.7 175.21,-55 191.51,-33.79 266.12,-20.54 309.9,-14.45"/>
<polygon fill="#63b8ff" stroke="#63b8ff" points="310.61,-17.88 320.05,-13.09 309.68,-10.95 310.61,-17.88"/>
</a>
</g>
</g>
<!-- Node8 -->
<g id="Node000008" class="node">
<title>Node8</title>
<g id="a_Node000008"><a xlink:title=" ">
<polygon fill="#e0e0e0" stroke="#999999" points="238.21,-74 184.21,-74 184.21,-55 238.21,-55 238.21,-74"/>
<text text-anchor="middle" x="211.21" y="-62" font-family="Helvetica,sans-Serif" font-size="10.00">istream</text>
</a>
</g>
</g>
<!-- Node7&#45;&gt;Node8 -->
<g id="edge7_Node000007_Node000008" class="edge">
<title>Node7&#45;&gt;Node8</title>
<g id="a_edge7_Node000007_Node000008"><a xlink:title=" ">
<path fill="none" stroke="#63b8ff" d="M307.03,-109.99C286.39,-100.4 259.21,-87.79 239.08,-78.44"/>
<polygon fill="#63b8ff" stroke="#63b8ff" points="240.36,-75.18 229.82,-74.14 237.42,-81.52 240.36,-75.18"/>
</a>
</g>
</g>
<!-- Node9 -->
<g id="Node000009" class="node">
<title>Node9</title>
<g id="a_Node000009"><a xlink:title=" ">
<polygon fill="#e0e0e0" stroke="#999999" points="313.71,-74 256.71,-74 256.71,-55 313.71,-55 313.71,-74"/>
<text text-anchor="middle" x="285.21" y="-62" font-family="Helvetica,sans-Serif" font-size="10.00">ostream</text>
</a>
</g>
</g>
<!-- Node7&#45;&gt;Node9 -->
<g id="edge8_Node000007_Node000009" class="edge">
<title>Node7&#45;&gt;Node9</title>
<g id="a_edge8_Node000007_Node000009"><a xlink:title=" ">
<path fill="none" stroke="#63b8ff" d="M324.63,-109.84C317.15,-101.43 307.65,-90.74 299.84,-81.96"/>
<polygon fill="#63b8ff" stroke="#63b8ff" points="302.26,-79.41 293.01,-74.27 297.03,-84.07 302.26,-79.41"/>
</a>
</g>
</g>
<!-- Node10 -->
<g id="Node000010" class="node">
<title>Node10</title>
<g id="a_Node000010"><a xlink:title=" ">
<polygon fill="#e0e0e0" stroke="#999999" points="424.71,-74 331.71,-74 331.71,-55 424.71,-55 424.71,-74"/>
<text text-anchor="middle" x="378.21" y="-62" font-family="Helvetica,sans-Serif" font-size="10.00">unordered_map</text>
</a>
</g>
</g>
<!-- Node7&#45;&gt;Node10 -->
<g id="edge10_Node000007_Node000010" class="edge">
<title>Node7&#45;&gt;Node10</title>
<g id="a_edge10_Node000007_Node000010"><a xlink:title=" ">
<path fill="none" stroke="#63b8ff" d="M347.14,-109.84C352.91,-101.61 360.22,-91.18 366.29,-82.51"/>
<polygon fill="#63b8ff" stroke="#63b8ff" points="369.2,-84.46 372.07,-74.27 363.46,-80.45 369.2,-84.46"/>
</a>
</g>
</g>
<!-- Node11&#45;&gt;Node3 -->
<g id="edge12_Node000011_Node000003" class="edge">
<title>Node11&#45;&gt;Node3</title>
<g id="a_edge12_Node000011_Node000003"><a xlink:title=" ">
<path fill="none" stroke="#63b8ff" d="M515.42,-109.84C507.14,-101.35 496.59,-90.52 487.99,-81.69"/>
<polygon fill="#63b8ff" stroke="#63b8ff" points="490.24,-78.99 480.75,-74.27 485.23,-83.87 490.24,-78.99"/>
</a>
</g>
</g>
<!-- Node11&#45;&gt;Node6 -->
<g id="edge13_Node000011_Node000006" class="edge">
<title>Node11&#45;&gt;Node6</title>
<g id="a_edge13_Node000011_Node000006"><a xlink:title=" ">
<path fill="none" stroke="#63b8ff" d="M529.25,-109.79C528.51,-94.22 524.87,-69.51 510.21,-55 474.02,-19.16 412.49,-11.24 374.79,-10"/>
<polygon fill="#63b8ff" stroke="#63b8ff" points="374.43,-6.49 364.37,-9.81 374.3,-13.49 374.43,-6.49"/>
</a>
</g>
</g>
<!-- Node12 -->
<g id="Node000012" class="node">
<title>Node12</title>
<g id="a_Node000012"><a xlink:href="transport_8hpp.html" target="_top" xlink:title=" ">
<polygon fill="white" stroke="#666666" points="723.71,-74 556.71,-74 556.71,-55 723.71,-55 723.71,-74"/>
<text text-anchor="middle" x="640.21" y="-62" font-family="Helvetica,sans-Serif" font-size="10.00">jsonrpc/transport/transport.hpp</text>
</a>
</g>
</g>
<!-- Node11&#45;&gt;Node12 -->
<g id="edge14_Node000011_Node000012" class="edge">
<title>Node11&#45;&gt;Node12</title>
<g id="a_edge14_Node000011_Node000012"><a xlink:title=" ">
<path fill="none" stroke="#63b8ff" d="M555.8,-109.99C573.66,-100.58 597.06,-88.24 614.69,-78.95"/>
<polygon fill="#63b8ff" stroke="#63b8ff" points="616.61,-81.9 623.82,-74.14 613.34,-75.71 616.61,-81.9"/>
</a>
</g>
</g>
<!-- Node12&#45;&gt;Node6 -->
<g id="edge15_Node000012_Node000006" class="edge">
<title>Node12&#45;&gt;Node6</title>
<g id="a_edge15_Node000012_Node000006"><a xlink:title=" ">
<path fill="none" stroke="#63b8ff" d="M592.33,-54.98C531.23,-44.12 427.16,-25.61 374.61,-16.26"/>
<polygon fill="#63b8ff" stroke="#63b8ff" points="374.97,-12.77 364.51,-14.47 373.75,-19.66 374.97,-12.77"/>
</a>
</g>
</g>
</g>
</svg>
