<?xml version="1.0" encoding="UTF-8" standalone="no"?>
<!DOCTYPE svg PUBLIC "-//W3C//DTD SVG 1.1//EN"
 "http://www.w3.org/Graphics/SVG/1.1/DTD/svg11.dtd">
<!-- Generated by graphviz version 2.43.0 (0)
 -->
<!-- Title: include/jsonrpc/transports/framed_stdio_server_transport.hpp Pages: 1 -->
<svg width="830pt" height="335pt"
 viewBox="0.00 0.00 829.64 335.00" xmlns="http://www.w3.org/2000/svg" xmlns:xlink="http://www.w3.org/1999/xlink">
<g id="graph0" class="graph" transform="scale(1 1) rotate(0) translate(4 331)">
<title>include/jsonrpc/transports/framed_stdio_server_transport.hpp</title>
<!-- Node1 -->
<g id="Node000001" class="node">
<title>Node1</title>
<g id="a_Node000001"><a xlink:title=" ">
<polygon fill="#999999" stroke="#666666" points="209.8,-327 18.8,-327 18.8,-297 209.8,-297 209.8,-327"/>
<text text-anchor="start" x="26.8" y="-315" font-family="Helvetica,sans-Serif" font-size="10.00">include/jsonrpc/transports</text>
<text text-anchor="middle" x="114.3" y="-304" font-family="Helvetica,sans-Serif" font-size="10.00">/framed_stdio_server_transport.hpp</text>
</a>
</g>
</g>
<!-- Node2 -->
<g id="Node000002" class="node">
<title>Node2</title>
<g id="a_Node000002"><a xlink:title=" ">
<polygon fill="#e0e0e0" stroke="#999999" points="402.3,-74 358.3,-74 358.3,-55 402.3,-55 402.3,-74"/>
<text text-anchor="middle" x="380.3" y="-62" font-family="Helvetica,sans-Serif" font-size="10.00">string</text>
</a>
</g>
</g>
<!-- Node1&#45;&gt;Node2 -->
<g id="edge1_Node000001_Node000002" class="edge">
<title>Node1&#45;&gt;Node2</title>
<g id="a_edge1_Node000001_Node000002"><a xlink:title=" ">
<path fill="none" stroke="#63b8ff" d="M117.99,-296.94C126.05,-269.11 148.01,-207.02 190.3,-176 252.93,-130.07 305.24,-193.75 361.3,-140 376.18,-125.74 380.02,-101.59 380.73,-84.66"/>
<polygon fill="#63b8ff" stroke="#63b8ff" points="384.23,-84.33 380.82,-74.3 377.23,-84.27 384.23,-84.33"/>
</a>
</g>
</g>
<!-- Node3 -->
<g id="Node000003" class="node">
<title>Node3</title>
<g id="a_Node000003"><a xlink:href="server__transport_8hpp.html" target="_top" xlink:title=" ">
<polygon fill="white" stroke="#666666" points="279.3,-261 169.3,-261 169.3,-231 279.3,-231 279.3,-261"/>
<text text-anchor="start" x="177.3" y="-249" font-family="Helvetica,sans-Serif" font-size="10.00">jsonrpc/core/server</text>
<text text-anchor="middle" x="224.3" y="-238" font-family="Helvetica,sans-Serif" font-size="10.00">_transport.hpp</text>
</a>
</g>
</g>
<!-- Node1&#45;&gt;Node3 -->
<g id="edge2_Node000001_Node000003" class="edge">
<title>Node1&#45;&gt;Node3</title>
<g id="a_edge2_Node000001_Node000003"><a xlink:title=" ">
<path fill="none" stroke="#63b8ff" d="M138.44,-296.95C153.92,-287.95 174.21,-276.14 191.18,-266.27"/>
<polygon fill="#63b8ff" stroke="#63b8ff" points="193.34,-269.07 200.22,-261.01 189.82,-263.02 193.34,-269.07"/>
</a>
</g>
</g>
<!-- Node12 -->
<g id="Node000012" class="node">
<title>Node12</title>
<g id="a_Node000012"><a xlink:href="types_8hpp.html" target="_top" xlink:title=" ">
<polygon fill="white" stroke="#666666" points="249.8,-74 122.8,-74 122.8,-55 249.8,-55 249.8,-74"/>
<text text-anchor="middle" x="186.3" y="-62" font-family="Helvetica,sans-Serif" font-size="10.00">jsonrpc/core/types.hpp</text>
</a>
</g>
</g>
<!-- Node1&#45;&gt;Node12 -->
<g id="edge26_Node000001_Node000012" class="edge">
<title>Node1&#45;&gt;Node12</title>
<g id="a_edge26_Node000001_Node000012"><a xlink:title=" ">
<path fill="none" stroke="#63b8ff" d="M96.99,-296.77C57.13,-262.29 -34.13,-172.56 14.3,-110 26.73,-93.95 71.86,-82.64 112.77,-75.44"/>
<polygon fill="#63b8ff" stroke="#63b8ff" points="113.51,-78.86 122.79,-73.74 112.34,-71.96 113.51,-78.86"/>
</a>
</g>
</g>
<!-- Node17 -->
<g id="Node000017" class="node">
<title>Node17</title>
<g id="a_Node000017"><a xlink:href="framed__transport_8hpp.html" target="_top" xlink:title=" ">
<polygon fill="white" stroke="#666666" points="157.8,-140 32.8,-140 32.8,-110 157.8,-110 157.8,-140"/>
<text text-anchor="start" x="40.8" y="-128" font-family="Helvetica,sans-Serif" font-size="10.00">jsonrpc/transports</text>
<text text-anchor="middle" x="95.3" y="-117" font-family="Helvetica,sans-Serif" font-size="10.00">/framed_transport.hpp</text>
</a>
</g>
</g>
<!-- Node1&#45;&gt;Node17 -->
<g id="edge27_Node000001_Node000017" class="edge">
<title>Node1&#45;&gt;Node17</title>
<g id="a_edge27_Node000001_Node000017"><a xlink:title=" ">
<path fill="none" stroke="#63b8ff" d="M112.84,-296.79C109.6,-265.24 101.78,-189.04 97.77,-149.97"/>
<polygon fill="#63b8ff" stroke="#63b8ff" points="101.25,-149.59 96.74,-140 94.28,-150.31 101.25,-149.59"/>
</a>
</g>
</g>
<!-- Node4 -->
<g id="Node000004" class="node">
<title>Node4</title>
<g id="a_Node000004"><a xlink:title=" ">
<polygon fill="#e0e0e0" stroke="#999999" points="249.3,-195 199.3,-195 199.3,-176 249.3,-176 249.3,-195"/>
<text text-anchor="middle" x="224.3" y="-183" font-family="Helvetica,sans-Serif" font-size="10.00">atomic</text>
</a>
</g>
</g>
<!-- Node3&#45;&gt;Node4 -->
<g id="edge3_Node000003_Node000004" class="edge">
<title>Node3&#45;&gt;Node4</title>
<g id="a_edge3_Node000003_Node000004"><a xlink:title=" ">
<path fill="none" stroke="#63b8ff" d="M224.3,-230.84C224.3,-223.21 224.3,-213.7 224.3,-205.45"/>
<polygon fill="#63b8ff" stroke="#63b8ff" points="227.8,-205.27 224.3,-195.27 220.8,-205.27 227.8,-205.27"/>
</a>
</g>
</g>
<!-- Node5 -->
<g id="Node000005" class="node">
<title>Node5</title>
<g id="a_Node000005"><a xlink:title=" ">
<polygon fill="#e0e0e0" stroke="#999999" points="325.3,-195 267.3,-195 267.3,-176 325.3,-176 325.3,-195"/>
<text text-anchor="middle" x="296.3" y="-183" font-family="Helvetica,sans-Serif" font-size="10.00">memory</text>
</a>
</g>
</g>
<!-- Node3&#45;&gt;Node5 -->
<g id="edge4_Node000003_Node000005" class="edge">
<title>Node3&#45;&gt;Node5</title>
<g id="a_edge4_Node000003_Node000005"><a xlink:title=" ">
<path fill="none" stroke="#63b8ff" d="M241.73,-230.84C252.61,-222 266.6,-210.63 277.7,-201.62"/>
<polygon fill="#63b8ff" stroke="#63b8ff" points="279.96,-204.29 285.51,-195.27 275.55,-198.86 279.96,-204.29"/>
</a>
</g>
</g>
<!-- Node6 -->
<g id="Node000006" class="node">
<title>Node6</title>
<g id="a_Node000006"><a xlink:href="dispatcher_8hpp.html" target="_top" xlink:title=" ">
<polygon fill="white" stroke="#666666" points="593.3,-195 443.3,-195 443.3,-176 593.3,-176 593.3,-195"/>
<text text-anchor="middle" x="518.3" y="-183" font-family="Helvetica,sans-Serif" font-size="10.00">jsonrpc/core/dispatcher.hpp</text>
</a>
</g>
</g>
<!-- Node3&#45;&gt;Node6 -->
<g id="edge5_Node000003_Node000006" class="edge">
<title>Node3&#45;&gt;Node6</title>
<g id="a_edge5_Node000003_Node000006"><a xlink:title=" ">
<path fill="none" stroke="#63b8ff" d="M279.6,-234C332.78,-223.42 412.61,-207.53 465.08,-197.09"/>
<polygon fill="#63b8ff" stroke="#63b8ff" points="466.07,-200.46 475.19,-195.08 464.7,-193.6 466.07,-200.46"/>
</a>
</g>
</g>
<!-- Node3&#45;&gt;Node12 -->
<g id="edge25_Node000003_Node000012" class="edge">
<title>Node3&#45;&gt;Node12</title>
<g id="a_edge25_Node000003_Node000012"><a xlink:title=" ">
<path fill="none" stroke="#63b8ff" d="M168.97,-232.97C121.08,-219.32 54.72,-191.86 23.3,-140 -0.83,-100.17 58.99,-81.44 112.83,-72.76"/>
<polygon fill="#63b8ff" stroke="#63b8ff" points="113.43,-76.21 122.79,-71.26 112.38,-69.29 113.43,-76.21"/>
</a>
</g>
</g>
<!-- Node6&#45;&gt;Node2 -->
<g id="edge7_Node000006_Node000002" class="edge">
<title>Node6&#45;&gt;Node2</title>
<g id="a_edge7_Node000006_Node000002"><a xlink:title=" ">
<path fill="none" stroke="#63b8ff" d="M497.53,-176C480.23,-168.27 455.55,-155.69 437.3,-140 417.89,-123.32 400.83,-99.04 390.55,-82.78"/>
<polygon fill="#63b8ff" stroke="#63b8ff" points="393.53,-80.94 385.32,-74.25 387.57,-84.61 393.53,-80.94"/>
</a>
</g>
</g>
<!-- Node7 -->
<g id="Node000007" class="node">
<title>Node7</title>
<g id="a_Node000007"><a xlink:title=" ">
<polygon fill="#e0e0e0" stroke="#999999" points="434.3,-19 378.3,-19 378.3,0 434.3,0 434.3,-19"/>
<text text-anchor="middle" x="406.3" y="-7" font-family="Helvetica,sans-Serif" font-size="10.00">optional</text>
</a>
</g>
</g>
<!-- Node6&#45;&gt;Node7 -->
<g id="edge6_Node000006_Node000007" class="edge">
<title>Node6&#45;&gt;Node7</title>
<g id="a_edge6_Node000006_Node000007"><a xlink:title=" ">
<path fill="none" stroke="#63b8ff" d="M593.57,-183.98C671.97,-181.66 787.23,-172.59 815.3,-140 824.01,-129.9 823.39,-120.6 815.3,-110 770.11,-50.78 537.46,-22.77 444.62,-13.83"/>
<polygon fill="#63b8ff" stroke="#63b8ff" points="444.82,-10.33 434.53,-12.88 444.16,-17.3 444.82,-10.33"/>
</a>
</g>
</g>
<!-- Node8 -->
<g id="Node000008" class="node">
<title>Node8</title>
<g id="a_Node000008"><a xlink:title=" ">
<polygon fill="#e0e0e0" stroke="#999999" points="604.8,-74 511.8,-74 511.8,-55 604.8,-55 604.8,-74"/>
<text text-anchor="middle" x="558.3" y="-62" font-family="Helvetica,sans-Serif" font-size="10.00">unordered_map</text>
</a>
</g>
</g>
<!-- Node6&#45;&gt;Node8 -->
<g id="edge8_Node000006_Node000008" class="edge">
<title>Node6&#45;&gt;Node8</title>
<g id="a_edge8_Node000006_Node000008"><a xlink:title=" ">
<path fill="none" stroke="#63b8ff" d="M593.51,-183.06C666.76,-179.88 770.7,-170.03 796.3,-140 848.27,-79.06 700.87,-67.29 615.09,-65.45"/>
<polygon fill="#63b8ff" stroke="#63b8ff" points="615.01,-61.95 604.95,-65.27 614.89,-68.95 615.01,-61.95"/>
</a>
</g>
</g>
<!-- Node9 -->
<g id="Node000009" class="node">
<title>Node9</title>
<g id="a_Node000009"><a xlink:title=" ">
<polygon fill="#e0e0e0" stroke="#999999" points="655.8,-134.5 608.8,-134.5 608.8,-115.5 655.8,-115.5 655.8,-134.5"/>
<text text-anchor="middle" x="632.3" y="-122.5" font-family="Helvetica,sans-Serif" font-size="10.00">vector</text>
</a>
</g>
</g>
<!-- Node6&#45;&gt;Node9 -->
<g id="edge9_Node000006_Node000009" class="edge">
<title>Node6&#45;&gt;Node9</title>
<g id="a_edge9_Node000006_Node000009"><a xlink:title=" ">
<path fill="none" stroke="#63b8ff" d="M535.12,-175.87C553.9,-166.23 584.51,-150.53 606.36,-139.31"/>
<polygon fill="#63b8ff" stroke="#63b8ff" points="608.11,-142.35 615.41,-134.67 604.92,-136.12 608.11,-142.35"/>
</a>
</g>
</g>
<!-- Node10 -->
<g id="Node000010" class="node">
<title>Node10</title>
<g id="a_Node000010"><a xlink:title=" ">
<polygon fill="#e0e0e0" stroke="#999999" points="786.8,-134.5 673.8,-134.5 673.8,-115.5 786.8,-115.5 786.8,-134.5"/>
<text text-anchor="middle" x="730.3" y="-122.5" font-family="Helvetica,sans-Serif" font-size="10.00">BS_thread_pool.hpp</text>
</a>
</g>
</g>
<!-- Node6&#45;&gt;Node10 -->
<g id="edge10_Node000006_Node000010" class="edge">
<title>Node6&#45;&gt;Node10</title>
<g id="a_edge10_Node000006_Node000010"><a xlink:title=" ">
<path fill="none" stroke="#63b8ff" d="M549.13,-175.99C586.26,-165.75 648.75,-148.5 689.76,-137.19"/>
<polygon fill="#63b8ff" stroke="#63b8ff" points="690.73,-140.55 699.44,-134.52 688.87,-133.8 690.73,-140.55"/>
</a>
</g>
</g>
<!-- Node11 -->
<g id="Node000011" class="node">
<title>Node11</title>
<g id="a_Node000011"><a xlink:href="request_8hpp.html" target="_top" xlink:title=" ">
<polygon fill="white" stroke="#666666" points="351.8,-134.5 214.8,-134.5 214.8,-115.5 351.8,-115.5 351.8,-134.5"/>
<text text-anchor="middle" x="283.3" y="-122.5" font-family="Helvetica,sans-Serif" font-size="10.00">jsonrpc/core/request.hpp</text>
</a>
</g>
</g>
<!-- Node6&#45;&gt;Node11 -->
<g id="edge11_Node000006_Node000011" class="edge">
<title>Node6&#45;&gt;Node11</title>
<g id="a_edge11_Node000006_Node000011"><a xlink:title=" ">
<path fill="none" stroke="#63b8ff" d="M484.13,-175.99C442.71,-165.68 372.82,-148.28 327.38,-136.97"/>
<polygon fill="#63b8ff" stroke="#63b8ff" points="328.07,-133.54 317.52,-134.52 326.37,-140.33 328.07,-133.54"/>
</a>
</g>
</g>
<!-- Node6&#45;&gt;Node12 -->
<g id="edge24_Node000006_Node000012" class="edge">
<title>Node6&#45;&gt;Node12</title>
<g id="a_edge24_Node000006_Node000012"><a xlink:title=" ">
<path fill="none" stroke="#63b8ff" d="M443.06,-183.06C362.12,-179.95 240.39,-170.21 206.3,-140 190.75,-126.22 186.7,-101.77 185.93,-84.65"/>
<polygon fill="#63b8ff" stroke="#63b8ff" points="189.42,-84.15 185.81,-74.19 182.42,-84.23 189.42,-84.15"/>
</a>
</g>
</g>
<!-- Node16 -->
<g id="Node000016" class="node">
<title>Node16</title>
<g id="a_Node000016"><a xlink:href="response_8hpp.html" target="_top" xlink:title=" ">
<polygon fill="white" stroke="#666666" points="590.3,-134.5 446.3,-134.5 446.3,-115.5 590.3,-115.5 590.3,-134.5"/>
<text text-anchor="middle" x="518.3" y="-122.5" font-family="Helvetica,sans-Serif" font-size="10.00">jsonrpc/core/response.hpp</text>
</a>
</g>
</g>
<!-- Node6&#45;&gt;Node16 -->
<g id="edge19_Node000006_Node000016" class="edge">
<title>Node6&#45;&gt;Node16</title>
<g id="a_edge19_Node000006_Node000016"><a xlink:title=" ">
<path fill="none" stroke="#63b8ff" d="M518.3,-175.87C518.3,-167.75 518.3,-155.31 518.3,-144.89"/>
<polygon fill="#63b8ff" stroke="#63b8ff" points="521.8,-144.67 518.3,-134.67 514.8,-144.67 521.8,-144.67"/>
</a>
</g>
</g>
<!-- Node11&#45;&gt;Node2 -->
<g id="edge13_Node000011_Node000002" class="edge">
<title>Node11&#45;&gt;Node2</title>
<g id="a_edge13_Node000011_Node000002"><a xlink:title=" ">
<path fill="none" stroke="#63b8ff" d="M297.62,-115.37C313.31,-105.91 338.7,-90.59 357.22,-79.42"/>
<polygon fill="#63b8ff" stroke="#63b8ff" points="359.18,-82.33 365.93,-74.17 355.56,-76.33 359.18,-82.33"/>
</a>
</g>
</g>
<!-- Node11&#45;&gt;Node7 -->
<g id="edge12_Node000011_Node000007" class="edge">
<title>Node11&#45;&gt;Node7</title>
<g id="a_edge12_Node000011_Node000007"><a xlink:title=" ">
<path fill="none" stroke="#63b8ff" d="M291.05,-115.11C303.01,-101.57 326.93,-75.24 349.3,-55 360.91,-44.5 374.73,-33.67 385.86,-25.33"/>
<polygon fill="#63b8ff" stroke="#63b8ff" points="388.15,-27.98 394.11,-19.22 383.99,-22.36 388.15,-27.98"/>
</a>
</g>
</g>
<!-- Node11&#45;&gt;Node12 -->
<g id="edge14_Node000011_Node000012" class="edge">
<title>Node11&#45;&gt;Node12</title>
<g id="a_edge14_Node000011_Node000012"><a xlink:title=" ">
<path fill="none" stroke="#63b8ff" d="M268.99,-115.37C253.3,-105.91 227.9,-90.59 209.39,-79.42"/>
<polygon fill="#63b8ff" stroke="#63b8ff" points="211.05,-76.33 200.67,-74.17 207.43,-82.33 211.05,-76.33"/>
</a>
</g>
</g>
<!-- Node12&#45;&gt;Node7 -->
<g id="edge16_Node000012_Node000007" class="edge">
<title>Node12&#45;&gt;Node7</title>
<g id="a_edge16_Node000012_Node000007"><a xlink:title=" ">
<path fill="none" stroke="#63b8ff" d="M221.65,-54.98C261.74,-45.33 326.87,-29.64 368.1,-19.7"/>
<polygon fill="#63b8ff" stroke="#63b8ff" points="369.14,-23.05 378.04,-17.31 367.5,-16.25 369.14,-23.05"/>
</a>
</g>
</g>
<!-- Node13 -->
<g id="Node000013" class="node">
<title>Node13</title>
<g id="a_Node000013"><a xlink:title=" ">
<polygon fill="#e0e0e0" stroke="#999999" points="218.8,-19 153.8,-19 153.8,0 218.8,0 218.8,-19"/>
<text text-anchor="middle" x="186.3" y="-7" font-family="Helvetica,sans-Serif" font-size="10.00">functional</text>
</a>
</g>
</g>
<!-- Node12&#45;&gt;Node13 -->
<g id="edge15_Node000012_Node000013" class="edge">
<title>Node12&#45;&gt;Node13</title>
<g id="a_edge15_Node000012_Node000013"><a xlink:title=" ">
<path fill="none" stroke="#63b8ff" d="M186.3,-54.75C186.3,-47.8 186.3,-37.85 186.3,-29.13"/>
<polygon fill="#63b8ff" stroke="#63b8ff" points="189.8,-29.09 186.3,-19.09 182.8,-29.09 189.8,-29.09"/>
</a>
</g>
</g>
<!-- Node14 -->
<g id="Node000014" class="node">
<title>Node14</title>
<g id="a_Node000014"><a xlink:title=" ">
<polygon fill="#e0e0e0" stroke="#999999" points="287.8,-19 236.8,-19 236.8,0 287.8,0 287.8,-19"/>
<text text-anchor="middle" x="262.3" y="-7" font-family="Helvetica,sans-Serif" font-size="10.00">variant</text>
</a>
</g>
</g>
<!-- Node12&#45;&gt;Node14 -->
<g id="edge17_Node000012_Node000014" class="edge">
<title>Node12&#45;&gt;Node14</title>
<g id="a_edge17_Node000012_Node000014"><a xlink:title=" ">
<path fill="none" stroke="#63b8ff" d="M198.51,-54.98C210.08,-46.92 227.68,-34.65 241.46,-25.03"/>
<polygon fill="#63b8ff" stroke="#63b8ff" points="243.67,-27.76 249.87,-19.17 239.67,-22.02 243.67,-27.76"/>
</a>
</g>
</g>
<!-- Node15 -->
<g id="Node000015" class="node">
<title>Node15</title>
<g id="a_Node000015"><a xlink:title=" ">
<polygon fill="#e0e0e0" stroke="#999999" points="135.3,-19 25.3,-19 25.3,0 135.3,0 135.3,-19"/>
<text text-anchor="middle" x="80.3" y="-7" font-family="Helvetica,sans-Serif" font-size="10.00">nlohmann/json.hpp</text>
</a>
</g>
</g>
<!-- Node12&#45;&gt;Node15 -->
<g id="edge18_Node000012_Node000015" class="edge">
<title>Node12&#45;&gt;Node15</title>
<g id="a_edge18_Node000012_Node000015"><a xlink:title=" ">
<path fill="none" stroke="#63b8ff" d="M169.27,-54.98C152.37,-46.54 126.24,-33.47 106.66,-23.68"/>
<polygon fill="#63b8ff" stroke="#63b8ff" points="108.15,-20.51 97.64,-19.17 105.02,-26.77 108.15,-20.51"/>
</a>
</g>
</g>
<!-- Node16&#45;&gt;Node2 -->
<g id="edge21_Node000016_Node000002" class="edge">
<title>Node16&#45;&gt;Node2</title>
<g id="a_edge21_Node000016_Node000002"><a xlink:title=" ">
<path fill="none" stroke="#63b8ff" d="M498.24,-115.49C474.93,-105.62 436.29,-89.23 409.63,-77.93"/>
<polygon fill="#63b8ff" stroke="#63b8ff" points="410.97,-74.7 400.39,-74.02 408.23,-81.14 410.97,-74.7"/>
</a>
</g>
</g>
<!-- Node16&#45;&gt;Node7 -->
<g id="edge20_Node000016_Node000007" class="edge">
<title>Node16&#45;&gt;Node7</title>
<g id="a_edge20_Node000016_Node000007"><a xlink:title=" ">
<path fill="none" stroke="#63b8ff" d="M509.89,-115.47C491.24,-96.57 446.2,-50.93 422.11,-26.52"/>
<polygon fill="#63b8ff" stroke="#63b8ff" points="424.33,-23.79 414.82,-19.13 419.35,-28.71 424.33,-23.79"/>
</a>
</g>
</g>
<!-- Node16&#45;&gt;Node8 -->
<g id="edge22_Node000016_Node000008" class="edge">
<title>Node16&#45;&gt;Node8</title>
<g id="a_edge22_Node000016_Node000008"><a xlink:title=" ">
<path fill="none" stroke="#63b8ff" d="M524.21,-115.37C530.05,-106.81 539.18,-93.47 546.52,-82.74"/>
<polygon fill="#63b8ff" stroke="#63b8ff" points="549.62,-84.4 552.38,-74.17 543.84,-80.45 549.62,-84.4"/>
</a>
</g>
</g>
<!-- Node16&#45;&gt;Node12 -->
<g id="edge23_Node000016_Node000012" class="edge">
<title>Node16&#45;&gt;Node12</title>
<g id="a_edge23_Node000016_Node000012"><a xlink:title=" ">
<path fill="none" stroke="#63b8ff" d="M470.03,-115.49C410.28,-104.97 308.61,-87.05 244.58,-75.77"/>
<polygon fill="#63b8ff" stroke="#63b8ff" points="245.09,-72.31 234.64,-74.02 243.88,-79.2 245.09,-72.31"/>
</a>
</g>
</g>
<!-- Node17&#45;&gt;Node2 -->
<g id="edge28_Node000017_Node000002" class="edge">
<title>Node17&#45;&gt;Node2</title>
<g id="a_edge28_Node000017_Node000002"><a xlink:title=" ">
<path fill="none" stroke="#63b8ff" d="M157.85,-111.16C216.53,-99.12 301.95,-81.58 348,-72.13"/>
<polygon fill="#63b8ff" stroke="#63b8ff" points="348.92,-75.52 358.01,-70.08 347.51,-68.66 348.92,-75.52"/>
</a>
</g>
</g>
<!-- Node17&#45;&gt;Node12 -->
<g id="edge29_Node000017_Node000012" class="edge">
<title>Node17&#45;&gt;Node12</title>
<g id="a_edge29_Node000017_Node000012"><a xlink:title=" ">
<path fill="none" stroke="#63b8ff" d="M117.33,-109.84C131.57,-100.68 150.03,-88.82 164.27,-79.66"/>
<polygon fill="#63b8ff" stroke="#63b8ff" points="166.42,-82.45 172.93,-74.09 162.63,-76.56 166.42,-82.45"/>
</a>
</g>
</g>
</g>
</svg>
