<?xml version="1.0" encoding="UTF-8" standalone="no"?>
<!DOCTYPE svg PUBLIC "-//W3C//DTD SVG 1.1//EN"
 "http://www.w3.org/Graphics/SVG/1.1/DTD/svg11.dtd">
<!-- Generated by graphviz version 2.43.0 (0)
 -->
<!-- Title: src/transports/framed_stdio_client_transport.cpp Pages: 1 -->
<svg width="595pt" height="291pt"
 viewBox="0.00 0.00 595.00 291.00" xmlns="http://www.w3.org/2000/svg" xmlns:xlink="http://www.w3.org/1999/xlink">
<g id="graph0" class="graph" transform="scale(1 1) rotate(0) translate(4 287)">
<title>src/transports/framed_stdio_client_transport.cpp</title>
<!-- Node1 -->
<g id="Node000001" class="node">
<title>Node1</title>
<g id="a_Node000001"><a xlink:title=" ">
<polygon fill="#999999" stroke="#666666" points="264,-283 116,-283 116,-253 264,-253 264,-283"/>
<text text-anchor="start" x="124" y="-271" font-family="Helvetica,sans-Serif" font-size="10.00">src/transports/framed</text>
<text text-anchor="middle" x="190" y="-260" font-family="Helvetica,sans-Serif" font-size="10.00">_stdio_client_transport.cpp</text>
</a>
</g>
</g>
<!-- Node2 -->
<g id="Node000002" class="node">
<title>Node2</title>
<g id="a_Node000002"><a xlink:title=" ">
<polygon fill="#e0e0e0" stroke="#999999" points="60,-206 0,-206 0,-187 60,-187 60,-206"/>
<text text-anchor="middle" x="30" y="-194" font-family="Helvetica,sans-Serif" font-size="10.00">iostream</text>
</a>
</g>
</g>
<!-- Node1&#45;&gt;Node2 -->
<g id="edge1_Node000001_Node000002" class="edge">
<title>Node1&#45;&gt;Node2</title>
<g id="a_edge1_Node000001_Node000002"><a xlink:title=" ">
<path fill="none" stroke="#63b8ff" d="M157.21,-252.97C133.96,-243 102.03,-229.25 74,-217 69.05,-214.84 63.8,-212.53 58.72,-210.28"/>
<polygon fill="#63b8ff" stroke="#63b8ff" points="59.82,-206.94 49.26,-206.09 56.98,-213.34 59.82,-206.94"/>
</a>
</g>
</g>
<!-- Node3 -->
<g id="Node000003" class="node">
<title>Node3</title>
<g id="a_Node000003"><a xlink:title=" ">
<polygon fill="#e0e0e0" stroke="#999999" points="211,-19 155,-19 155,0 211,0 211,-19"/>
<text text-anchor="middle" x="183" y="-7" font-family="Helvetica,sans-Serif" font-size="10.00">optional</text>
</a>
</g>
</g>
<!-- Node1&#45;&gt;Node3 -->
<g id="edge2_Node000001_Node000003" class="edge">
<title>Node1&#45;&gt;Node3</title>
<g id="a_edge2_Node000001_Node000003"><a xlink:title=" ">
<path fill="none" stroke="#63b8ff" d="M149.56,-252.91C133.31,-245.02 116.27,-233.4 107,-217 69.59,-150.8 136.3,-62.71 167.83,-26.79"/>
<polygon fill="#63b8ff" stroke="#63b8ff" points="170.58,-28.97 174.67,-19.19 165.38,-24.28 170.58,-28.97"/>
</a>
</g>
</g>
<!-- Node4 -->
<g id="Node000004" class="node">
<title>Node4</title>
<g id="a_Node000004"><a xlink:title=" ">
<polygon fill="#e0e0e0" stroke="#999999" points="172,-206 116,-206 116,-187 172,-187 172,-206"/>
<text text-anchor="middle" x="144" y="-194" font-family="Helvetica,sans-Serif" font-size="10.00">sstream</text>
</a>
</g>
</g>
<!-- Node1&#45;&gt;Node4 -->
<g id="edge3_Node000001_Node000004" class="edge">
<title>Node1&#45;&gt;Node4</title>
<g id="a_edge3_Node000001_Node000004"><a xlink:title=" ">
<path fill="none" stroke="#63b8ff" d="M180.69,-252.94C173.4,-241.92 163.22,-226.54 155.43,-214.78"/>
<polygon fill="#63b8ff" stroke="#63b8ff" points="158.24,-212.67 149.8,-206.27 152.4,-216.54 158.24,-212.67"/>
</a>
</g>
</g>
<!-- Node5 -->
<g id="Node000005" class="node">
<title>Node5</title>
<g id="a_Node000005"><a xlink:title=" ">
<polygon fill="#e0e0e0" stroke="#999999" points="283.5,-206 190.5,-206 190.5,-187 283.5,-187 283.5,-206"/>
<text text-anchor="middle" x="237" y="-194" font-family="Helvetica,sans-Serif" font-size="10.00">unordered_map</text>
</a>
</g>
</g>
<!-- Node1&#45;&gt;Node5 -->
<g id="edge4_Node000001_Node000005" class="edge">
<title>Node1&#45;&gt;Node5</title>
<g id="a_edge4_Node000001_Node000005"><a xlink:title=" ">
<path fill="none" stroke="#63b8ff" d="M199.51,-252.94C206.96,-241.92 217.36,-226.54 225.32,-214.78"/>
<polygon fill="#63b8ff" stroke="#63b8ff" points="228.37,-216.51 231.07,-206.27 222.57,-212.59 228.37,-216.51"/>
</a>
</g>
</g>
<!-- Node6 -->
<g id="Node000006" class="node">
<title>Node6</title>
<g id="a_Node000006"><a xlink:title=" ">
<polygon fill="#e0e0e0" stroke="#999999" points="394.5,-206 301.5,-206 301.5,-187 394.5,-187 394.5,-206"/>
<text text-anchor="middle" x="348" y="-194" font-family="Helvetica,sans-Serif" font-size="10.00">spdlog/spdlog.h</text>
</a>
</g>
</g>
<!-- Node1&#45;&gt;Node6 -->
<g id="edge5_Node000001_Node000006" class="edge">
<title>Node1&#45;&gt;Node6</title>
<g id="a_edge5_Node000001_Node000006"><a xlink:title=" ">
<path fill="none" stroke="#63b8ff" d="M221.97,-252.94C250.4,-240.43 291.61,-222.31 319.07,-210.22"/>
<polygon fill="#63b8ff" stroke="#63b8ff" points="320.78,-213.3 328.52,-206.07 317.96,-206.89 320.78,-213.3"/>
</a>
</g>
</g>
<!-- Node7 -->
<g id="Node000007" class="node">
<title>Node7</title>
<g id="a_Node000007"><a xlink:href="framed__stdio__client__transport_8hpp.html" target="_top" xlink:title=" ">
<polygon fill="white" stroke="#666666" points="529,-217 413,-217 413,-176 529,-176 529,-217"/>
<text text-anchor="start" x="421" y="-205" font-family="Helvetica,sans-Serif" font-size="10.00">json_rpc/transports</text>
<text text-anchor="start" x="421" y="-194" font-family="Helvetica,sans-Serif" font-size="10.00">/framed_stdio_client</text>
<text text-anchor="middle" x="471" y="-183" font-family="Helvetica,sans-Serif" font-size="10.00">_transport.hpp</text>
</a>
</g>
</g>
<!-- Node1&#45;&gt;Node7 -->
<g id="edge6_Node000001_Node000007" class="edge">
<title>Node1&#45;&gt;Node7</title>
<g id="a_edge6_Node000001_Node000007"><a xlink:title=" ">
<path fill="none" stroke="#63b8ff" d="M253.58,-252.93C296.02,-243.32 353.01,-230.03 403,-217 403.1,-216.97 403.2,-216.95 403.3,-216.92"/>
<polygon fill="#63b8ff" stroke="#63b8ff" points="404.05,-220.34 412.81,-214.39 402.25,-213.58 404.05,-220.34"/>
</a>
</g>
</g>
<!-- Node8 -->
<g id="Node000008" class="node">
<title>Node8</title>
<g id="a_Node000008"><a xlink:title=" ">
<polygon fill="#e0e0e0" stroke="#999999" points="311,-74 267,-74 267,-55 311,-55 311,-74"/>
<text text-anchor="middle" x="289" y="-62" font-family="Helvetica,sans-Serif" font-size="10.00">string</text>
</a>
</g>
</g>
<!-- Node7&#45;&gt;Node8 -->
<g id="edge7_Node000007_Node000008" class="edge">
<title>Node7&#45;&gt;Node8</title>
<g id="a_edge7_Node000007_Node000008"><a xlink:title=" ">
<path fill="none" stroke="#63b8ff" d="M412.79,-178.69C409.48,-177.77 406.2,-176.87 403,-176 341,-159.14 302.37,-190.77 263,-140 249.68,-122.83 262.85,-98.33 274.8,-82.18"/>
<polygon fill="#63b8ff" stroke="#63b8ff" points="277.68,-84.18 281.13,-74.17 272.18,-79.84 277.68,-84.18"/>
</a>
</g>
</g>
<!-- Node9 -->
<g id="Node000009" class="node">
<title>Node9</title>
<g id="a_Node000009"><a xlink:href="client__transport_8hpp.html" target="_top" xlink:title=" ">
<polygon fill="white" stroke="#666666" points="526.5,-140 415.5,-140 415.5,-110 526.5,-110 526.5,-140"/>
<text text-anchor="start" x="423.5" y="-128" font-family="Helvetica,sans-Serif" font-size="10.00">json_rpc/core/client</text>
<text text-anchor="middle" x="471" y="-117" font-family="Helvetica,sans-Serif" font-size="10.00">_transport.hpp</text>
</a>
</g>
</g>
<!-- Node7&#45;&gt;Node9 -->
<g id="edge8_Node000007_Node000009" class="edge">
<title>Node7&#45;&gt;Node9</title>
<g id="a_edge8_Node000007_Node000009"><a xlink:title=" ">
<path fill="none" stroke="#63b8ff" d="M471,-175.77C471,-167.85 471,-158.63 471,-150.3"/>
<polygon fill="#63b8ff" stroke="#63b8ff" points="474.5,-150.04 471,-140.04 467.5,-150.04 474.5,-150.04"/>
</a>
</g>
</g>
<!-- Node10 -->
<g id="Node000010" class="node">
<title>Node10</title>
<g id="a_Node000010"><a xlink:href="types_8hpp.html" target="_top" xlink:title=" ">
<polygon fill="white" stroke="#666666" points="499,-74 367,-74 367,-55 499,-55 499,-74"/>
<text text-anchor="middle" x="433" y="-62" font-family="Helvetica,sans-Serif" font-size="10.00">json_rpc/core/types.hpp</text>
</a>
</g>
</g>
<!-- Node7&#45;&gt;Node10 -->
<g id="edge14_Node000007_Node000010" class="edge">
<title>Node7&#45;&gt;Node10</title>
<g id="a_edge14_Node000007_Node000010"><a xlink:title=" ">
<path fill="none" stroke="#63b8ff" d="M503.11,-175.68C526.41,-158.71 551.36,-133.37 536,-110 525.57,-94.14 508.16,-83.9 490.59,-77.31"/>
<polygon fill="#63b8ff" stroke="#63b8ff" points="491.45,-73.91 480.85,-74.01 489.2,-80.54 491.45,-73.91"/>
</a>
</g>
</g>
<!-- Node14 -->
<g id="Node000014" class="node">
<title>Node14</title>
<g id="a_Node000014"><a xlink:href="framed__transport_8hpp.html" target="_top" xlink:title=" ">
<polygon fill="white" stroke="#666666" points="397.5,-140 272.5,-140 272.5,-110 397.5,-110 397.5,-140"/>
<text text-anchor="start" x="280.5" y="-128" font-family="Helvetica,sans-Serif" font-size="10.00">json_rpc/transports</text>
<text text-anchor="middle" x="335" y="-117" font-family="Helvetica,sans-Serif" font-size="10.00">/framed_transport.hpp</text>
</a>
</g>
</g>
<!-- Node7&#45;&gt;Node14 -->
<g id="edge15_Node000007_Node000014" class="edge">
<title>Node7&#45;&gt;Node14</title>
<g id="a_edge15_Node000007_Node000014"><a xlink:title=" ">
<path fill="none" stroke="#63b8ff" d="M432.75,-175.96C413.58,-166.16 390.47,-154.35 371.54,-144.67"/>
<polygon fill="#63b8ff" stroke="#63b8ff" points="373.11,-141.55 362.62,-140.11 369.93,-147.78 373.11,-141.55"/>
</a>
</g>
</g>
<!-- Node9&#45;&gt;Node10 -->
<g id="edge9_Node000009_Node000010" class="edge">
<title>Node9&#45;&gt;Node10</title>
<g id="a_edge9_Node000009_Node000010"><a xlink:title=" ">
<path fill="none" stroke="#63b8ff" d="M461.8,-109.84C456.51,-101.69 449.82,-91.4 444.22,-82.78"/>
<polygon fill="#63b8ff" stroke="#63b8ff" points="447.08,-80.75 438.69,-74.27 441.21,-84.56 447.08,-80.75"/>
</a>
</g>
</g>
<!-- Node10&#45;&gt;Node3 -->
<g id="edge11_Node000010_Node000003" class="edge">
<title>Node10&#45;&gt;Node3</title>
<g id="a_edge11_Node000010_Node000003"><a xlink:title=" ">
<path fill="none" stroke="#63b8ff" d="M392.83,-54.98C345.48,-44.95 267.38,-28.39 221,-18.56"/>
<polygon fill="#63b8ff" stroke="#63b8ff" points="221.55,-15.1 211.04,-16.45 220.1,-21.94 221.55,-15.1"/>
</a>
</g>
</g>
<!-- Node11 -->
<g id="Node000011" class="node">
<title>Node11</title>
<g id="a_Node000011"><a xlink:title=" ">
<polygon fill="#e0e0e0" stroke="#999999" points="389.5,-19 324.5,-19 324.5,0 389.5,0 389.5,-19"/>
<text text-anchor="middle" x="357" y="-7" font-family="Helvetica,sans-Serif" font-size="10.00">functional</text>
</a>
</g>
</g>
<!-- Node10&#45;&gt;Node11 -->
<g id="edge10_Node000010_Node000011" class="edge">
<title>Node10&#45;&gt;Node11</title>
<g id="a_edge10_Node000010_Node000011"><a xlink:title=" ">
<path fill="none" stroke="#63b8ff" d="M420.79,-54.98C409.22,-46.92 391.62,-34.65 377.84,-25.03"/>
<polygon fill="#63b8ff" stroke="#63b8ff" points="379.64,-22.02 369.43,-19.17 375.63,-27.76 379.64,-22.02"/>
</a>
</g>
</g>
<!-- Node12 -->
<g id="Node000012" class="node">
<title>Node12</title>
<g id="a_Node000012"><a xlink:title=" ">
<polygon fill="#e0e0e0" stroke="#999999" points="458.5,-19 407.5,-19 407.5,0 458.5,0 458.5,-19"/>
<text text-anchor="middle" x="433" y="-7" font-family="Helvetica,sans-Serif" font-size="10.00">variant</text>
</a>
</g>
</g>
<!-- Node10&#45;&gt;Node12 -->
<g id="edge12_Node000010_Node000012" class="edge">
<title>Node10&#45;&gt;Node12</title>
<g id="a_edge12_Node000010_Node000012"><a xlink:title=" ">
<path fill="none" stroke="#63b8ff" d="M433,-54.75C433,-47.8 433,-37.85 433,-29.13"/>
<polygon fill="#63b8ff" stroke="#63b8ff" points="436.5,-29.09 433,-19.09 429.5,-29.09 436.5,-29.09"/>
</a>
</g>
</g>
<!-- Node13 -->
<g id="Node000013" class="node">
<title>Node13</title>
<g id="a_Node000013"><a xlink:title=" ">
<polygon fill="#e0e0e0" stroke="#999999" points="587,-19 477,-19 477,0 587,0 587,-19"/>
<text text-anchor="middle" x="532" y="-7" font-family="Helvetica,sans-Serif" font-size="10.00">nlohmann/json.hpp</text>
</a>
</g>
</g>
<!-- Node10&#45;&gt;Node13 -->
<g id="edge13_Node000010_Node000013" class="edge">
<title>Node10&#45;&gt;Node13</title>
<g id="a_edge13_Node000010_Node000013"><a xlink:title=" ">
<path fill="none" stroke="#63b8ff" d="M448.91,-54.98C464.55,-46.61 488.66,-33.7 506.88,-23.95"/>
<polygon fill="#63b8ff" stroke="#63b8ff" points="508.64,-26.98 515.8,-19.17 505.34,-20.8 508.64,-26.98"/>
</a>
</g>
</g>
<!-- Node14&#45;&gt;Node8 -->
<g id="edge16_Node000014_Node000008" class="edge">
<title>Node14&#45;&gt;Node8</title>
<g id="a_edge16_Node000014_Node000008"><a xlink:title=" ">
<path fill="none" stroke="#63b8ff" d="M323.86,-109.84C317.32,-101.52 309.02,-90.96 302.16,-82.23"/>
<polygon fill="#63b8ff" stroke="#63b8ff" points="304.83,-79.96 295.89,-74.27 299.32,-84.29 304.83,-79.96"/>
</a>
</g>
</g>
<!-- Node14&#45;&gt;Node10 -->
<g id="edge17_Node000014_Node000010" class="edge">
<title>Node14&#45;&gt;Node10</title>
<g id="a_edge17_Node000014_Node000010"><a xlink:title=" ">
<path fill="none" stroke="#63b8ff" d="M358.72,-109.84C374.2,-100.6 394.32,-88.59 409.71,-79.4"/>
<polygon fill="#63b8ff" stroke="#63b8ff" points="411.81,-82.23 418.6,-74.09 408.22,-76.21 411.81,-82.23"/>
</a>
</g>
</g>
</g>
</svg>
