<?xml version="1.0" encoding="UTF-8" standalone="no"?>
<!DOCTYPE svg PUBLIC "-//W3C//DTD SVG 1.1//EN"
 "http://www.w3.org/Graphics/SVG/1.1/DTD/svg11.dtd">
<!-- Generated by graphviz version 2.43.0 (0)
 -->
<!-- Title: src/common/transports/framed_transport.cpp Pages: 1 -->
<svg width="422pt" height="159pt"
 viewBox="0.00 0.00 421.50 159.00" xmlns="http://www.w3.org/2000/svg" xmlns:xlink="http://www.w3.org/1999/xlink">
<g id="graph0" class="graph" transform="scale(1 1) rotate(0) translate(4 155)">
<title>src/common/transports/framed_transport.cpp</title>
<!-- Node1 -->
<g id="Node000001" class="node">
<title>Node1</title>
<g id="a_Node000001"><a xlink:title=" ">
<polygon fill="#999999" stroke="#666666" points="300.5,-151 171.5,-151 171.5,-121 300.5,-121 300.5,-151"/>
<text text-anchor="start" x="179.5" y="-139" font-family="Helvetica,sans-Serif" font-size="10.00">src/common/transports</text>
<text text-anchor="middle" x="236" y="-128" font-family="Helvetica,sans-Serif" font-size="10.00">/framed_transport.cpp</text>
</a>
</g>
</g>
<!-- Node2 -->
<g id="Node000002" class="node">
<title>Node2</title>
<g id="a_Node000002"><a xlink:href="framed__transport_8hpp.html" target="_top" xlink:title=" ">
<polygon fill="white" stroke="#666666" points="150,-85 0,-85 0,-55 150,-55 150,-85"/>
<text text-anchor="start" x="8" y="-73" font-family="Helvetica,sans-Serif" font-size="10.00">jsonrpc/common/transports</text>
<text text-anchor="middle" x="75" y="-62" font-family="Helvetica,sans-Serif" font-size="10.00">/framed_transport.hpp</text>
</a>
</g>
</g>
<!-- Node1&#45;&gt;Node2 -->
<g id="edge1_Node000001_Node000002" class="edge">
<title>Node1&#45;&gt;Node2</title>
<g id="a_edge1_Node000001_Node000002"><a xlink:title=" ">
<path fill="none" stroke="#63b8ff" d="M200.67,-120.95C176.87,-111.49 145.27,-98.93 119.72,-88.78"/>
<polygon fill="#63b8ff" stroke="#63b8ff" points="120.84,-85.45 110.25,-85.01 118.25,-91.96 120.84,-85.45"/>
</a>
</g>
</g>
<!-- Node4 -->
<g id="Node000004" class="node">
<title>Node4</title>
<g id="a_Node000004"><a xlink:title=" ">
<polygon fill="#e0e0e0" stroke="#999999" points="228,-79.5 168,-79.5 168,-60.5 228,-60.5 228,-79.5"/>
<text text-anchor="middle" x="198" y="-67.5" font-family="Helvetica,sans-Serif" font-size="10.00">iostream</text>
</a>
</g>
</g>
<!-- Node1&#45;&gt;Node4 -->
<g id="edge3_Node000001_Node000004" class="edge">
<title>Node1&#45;&gt;Node4</title>
<g id="a_edge3_Node000001_Node000004"><a xlink:title=" ">
<path fill="none" stroke="#63b8ff" d="M227.57,-120.8C221.93,-111.31 214.48,-98.76 208.47,-88.63"/>
<polygon fill="#63b8ff" stroke="#63b8ff" points="211.37,-86.66 203.25,-79.84 205.35,-90.23 211.37,-86.66"/>
</a>
</g>
</g>
<!-- Node5 -->
<g id="Node000005" class="node">
<title>Node5</title>
<g id="a_Node000005"><a xlink:title=" ">
<polygon fill="#e0e0e0" stroke="#999999" points="302,-79.5 246,-79.5 246,-60.5 302,-60.5 302,-79.5"/>
<text text-anchor="middle" x="274" y="-67.5" font-family="Helvetica,sans-Serif" font-size="10.00">sstream</text>
</a>
</g>
</g>
<!-- Node1&#45;&gt;Node5 -->
<g id="edge4_Node000001_Node000005" class="edge">
<title>Node1&#45;&gt;Node5</title>
<g id="a_edge4_Node000001_Node000005"><a xlink:title=" ">
<path fill="none" stroke="#63b8ff" d="M244.43,-120.8C250.07,-111.31 257.52,-98.76 263.53,-88.63"/>
<polygon fill="#63b8ff" stroke="#63b8ff" points="266.65,-90.23 268.75,-79.84 260.63,-86.66 266.65,-90.23"/>
</a>
</g>
</g>
<!-- Node6 -->
<g id="Node000006" class="node">
<title>Node6</title>
<g id="a_Node000006"><a xlink:title=" ">
<polygon fill="#e0e0e0" stroke="#999999" points="413.5,-79.5 320.5,-79.5 320.5,-60.5 413.5,-60.5 413.5,-79.5"/>
<text text-anchor="middle" x="367" y="-67.5" font-family="Helvetica,sans-Serif" font-size="10.00">spdlog/spdlog.h</text>
</a>
</g>
</g>
<!-- Node1&#45;&gt;Node6 -->
<g id="edge5_Node000001_Node000006" class="edge">
<title>Node1&#45;&gt;Node6</title>
<g id="a_edge5_Node000001_Node000006"><a xlink:title=" ">
<path fill="none" stroke="#63b8ff" d="M264.75,-120.95C287.32,-109.93 318.49,-94.7 340.47,-83.96"/>
<polygon fill="#63b8ff" stroke="#63b8ff" points="342.12,-87.05 349.57,-79.52 339.04,-80.76 342.12,-87.05"/>
</a>
</g>
</g>
<!-- Node3 -->
<g id="Node000003" class="node">
<title>Node3</title>
<g id="a_Node000003"><a xlink:title=" ">
<polygon fill="#e0e0e0" stroke="#999999" points="97,-19 53,-19 53,0 97,0 97,-19"/>
<text text-anchor="middle" x="75" y="-7" font-family="Helvetica,sans-Serif" font-size="10.00">string</text>
</a>
</g>
</g>
<!-- Node2&#45;&gt;Node3 -->
<g id="edge2_Node000002_Node000003" class="edge">
<title>Node2&#45;&gt;Node3</title>
<g id="a_edge2_Node000002_Node000003"><a xlink:title=" ">
<path fill="none" stroke="#63b8ff" d="M75,-54.84C75,-47.21 75,-37.7 75,-29.45"/>
<polygon fill="#63b8ff" stroke="#63b8ff" points="78.5,-29.27 75,-19.27 71.5,-29.27 78.5,-29.27"/>
</a>
</g>
</g>
</g>
</svg>
