<?xml version="1.0" encoding="UTF-8" standalone="no"?>
<!DOCTYPE svg PUBLIC "-//W3C//DTD SVG 1.1//EN"
 "http://www.w3.org/Graphics/SVG/1.1/DTD/svg11.dtd">
<!-- Generated by graphviz version 2.43.0 (0)
 -->
<!-- Title: include/jsonrpc/transport/framed_socket_transport.hpp Pages: 1 -->
<svg width="721pt" height="214pt"
 viewBox="0.00 0.00 720.92 214.00" xmlns="http://www.w3.org/2000/svg" xmlns:xlink="http://www.w3.org/1999/xlink">
<g id="graph0" class="graph" transform="scale(1 1) rotate(0) translate(4 210)">
<title>include/jsonrpc/transport/framed_socket_transport.hpp</title>
<!-- Node1 -->
<g id="Node000001" class="node">
<title>Node1</title>
<g id="a_Node000001"><a xlink:title=" ">
<polygon fill="#999999" stroke="#666666" points="360.78,-206 198.78,-206 198.78,-176 360.78,-176 360.78,-206"/>
<text text-anchor="start" x="206.78" y="-194" font-family="Helvetica,sans-Serif" font-size="10.00">include/jsonrpc/transport</text>
<text text-anchor="middle" x="279.78" y="-183" font-family="Helvetica,sans-Serif" font-size="10.00">/framed_socket_transport.hpp</text>
</a>
</g>
</g>
<!-- Node2 -->
<g id="Node000002" class="node">
<title>Node2</title>
<g id="a_Node000002"><a xlink:title=" ">
<polygon fill="#e0e0e0" stroke="#999999" points="68.78,-74 10.78,-74 10.78,-55 68.78,-55 68.78,-74"/>
<text text-anchor="middle" x="39.78" y="-62" font-family="Helvetica,sans-Serif" font-size="10.00">asio.hpp</text>
</a>
</g>
</g>
<!-- Node1&#45;&gt;Node2 -->
<g id="edge1_Node000001_Node000002" class="edge">
<title>Node1&#45;&gt;Node2</title>
<g id="a_edge1_Node000001_Node000002"><a xlink:title=" ">
<path fill="none" stroke="#63b8ff" d="M198.76,-186.38C127.02,-181.27 30.01,-169.06 5.78,-140 -8.8,-122.52 8.15,-97.77 22.9,-81.67"/>
<polygon fill="#63b8ff" stroke="#63b8ff" points="25.77,-83.74 30.23,-74.13 20.75,-78.86 25.77,-83.74"/>
</a>
</g>
</g>
<!-- Node3 -->
<g id="Node000003" class="node">
<title>Node3</title>
<g id="a_Node000003"><a xlink:title=" ">
<polygon fill="#e0e0e0" stroke="#999999" points="182.28,-134.5 15.28,-134.5 15.28,-115.5 182.28,-115.5 182.28,-134.5"/>
<text text-anchor="middle" x="98.78" y="-122.5" font-family="Helvetica,sans-Serif" font-size="10.00">asio/local/stream_protocol.hpp</text>
</a>
</g>
</g>
<!-- Node1&#45;&gt;Node3 -->
<g id="edge2_Node000001_Node000003" class="edge">
<title>Node1&#45;&gt;Node3</title>
<g id="a_edge2_Node000001_Node000003"><a xlink:title=" ">
<path fill="none" stroke="#63b8ff" d="M240.06,-175.95C207.9,-164.58 163.08,-148.74 132.61,-137.96"/>
<polygon fill="#63b8ff" stroke="#63b8ff" points="133.46,-134.55 122.87,-134.52 131.13,-141.15 133.46,-134.55"/>
</a>
</g>
</g>
<!-- Node4 -->
<g id="Node000004" class="node">
<title>Node4</title>
<g id="a_Node000004"><a xlink:title=" ">
<polygon fill="#e0e0e0" stroke="#999999" points="249.78,-134.5 199.78,-134.5 199.78,-115.5 249.78,-115.5 249.78,-134.5"/>
<text text-anchor="middle" x="224.78" y="-122.5" font-family="Helvetica,sans-Serif" font-size="10.00">cstdint</text>
</a>
</g>
</g>
<!-- Node1&#45;&gt;Node4 -->
<g id="edge3_Node000001_Node000004" class="edge">
<title>Node1&#45;&gt;Node4</title>
<g id="a_edge3_Node000001_Node000004"><a xlink:title=" ">
<path fill="none" stroke="#63b8ff" d="M267.57,-175.8C259.17,-166.01 247.96,-152.98 239.13,-142.7"/>
<polygon fill="#63b8ff" stroke="#63b8ff" points="241.55,-140.15 232.38,-134.84 236.24,-144.71 241.55,-140.15"/>
</a>
</g>
</g>
<!-- Node5 -->
<g id="Node000005" class="node">
<title>Node5</title>
<g id="a_Node000005"><a xlink:title=" ">
<polygon fill="#e0e0e0" stroke="#999999" points="362.78,-19 318.78,-19 318.78,0 362.78,0 362.78,-19"/>
<text text-anchor="middle" x="340.78" y="-7" font-family="Helvetica,sans-Serif" font-size="10.00">string</text>
</a>
</g>
</g>
<!-- Node1&#45;&gt;Node5 -->
<g id="edge4_Node000001_Node000005" class="edge">
<title>Node1&#45;&gt;Node5</title>
<g id="a_edge4_Node000001_Node000005"><a xlink:title=" ">
<path fill="none" stroke="#63b8ff" d="M360.86,-184.83C424.97,-178.9 515.99,-166.33 591.78,-140 648.54,-120.28 679.38,-125.83 709.78,-74 744.61,-14.62 469.2,-10.03 373.08,-10.21"/>
<polygon fill="#63b8ff" stroke="#63b8ff" points="373.04,-6.71 363.05,-10.25 373.07,-13.71 373.04,-6.71"/>
</a>
</g>
</g>
<!-- Node6 -->
<g id="Node000006" class="node">
<title>Node6</title>
<g id="a_Node000006"><a xlink:href="framed__transport_8hpp.html" target="_top" xlink:title=" ">
<polygon fill="white" stroke="#666666" points="582.28,-140 445.28,-140 445.28,-110 582.28,-110 582.28,-140"/>
<text text-anchor="start" x="453.28" y="-128" font-family="Helvetica,sans-Serif" font-size="10.00">jsonrpc/transport/framed</text>
<text text-anchor="middle" x="513.78" y="-117" font-family="Helvetica,sans-Serif" font-size="10.00">_transport.hpp</text>
</a>
</g>
</g>
<!-- Node1&#45;&gt;Node6 -->
<g id="edge5_Node000001_Node000006" class="edge">
<title>Node1&#45;&gt;Node6</title>
<g id="a_edge5_Node000001_Node000006"><a xlink:title=" ">
<path fill="none" stroke="#63b8ff" d="M331.13,-175.95C366.95,-166.16 414.89,-153.05 452.68,-142.71"/>
<polygon fill="#63b8ff" stroke="#63b8ff" points="453.82,-146.03 462.55,-140.01 451.98,-139.27 453.82,-146.03"/>
</a>
</g>
</g>
<!-- Node11 -->
<g id="Node000011" class="node">
<title>Node11</title>
<g id="a_Node000011"><a xlink:href="socket__transport_8hpp.html" target="_top" xlink:title=" ">
<polygon fill="white" stroke="#666666" points="401.78,-140 267.78,-140 267.78,-110 401.78,-110 401.78,-140"/>
<text text-anchor="start" x="275.78" y="-128" font-family="Helvetica,sans-Serif" font-size="10.00">jsonrpc/transport/socket</text>
<text text-anchor="middle" x="334.78" y="-117" font-family="Helvetica,sans-Serif" font-size="10.00">_transport.hpp</text>
</a>
</g>
</g>
<!-- Node1&#45;&gt;Node11 -->
<g id="edge11_Node000001_Node000011" class="edge">
<title>Node1&#45;&gt;Node11</title>
<g id="a_edge11_Node000001_Node000011"><a xlink:title=" ">
<path fill="none" stroke="#63b8ff" d="M291.99,-175.8C299.04,-167.59 308.05,-157.1 315.99,-147.87"/>
<polygon fill="#63b8ff" stroke="#63b8ff" points="318.74,-150.03 322.61,-140.16 313.44,-145.47 318.74,-150.03"/>
</a>
</g>
</g>
<!-- Node6&#45;&gt;Node5 -->
<g id="edge9_Node000006_Node000005" class="edge">
<title>Node6&#45;&gt;Node5</title>
<g id="a_edge9_Node000006_Node000005"><a xlink:title=" ">
<path fill="none" stroke="#63b8ff" d="M450.95,-109.95C426.82,-102.28 400.2,-90.8 379.78,-74 365.13,-61.95 354.47,-42.87 348.03,-28.77"/>
<polygon fill="#63b8ff" stroke="#63b8ff" points="351.08,-26.98 343.94,-19.15 344.64,-29.73 351.08,-26.98"/>
</a>
</g>
</g>
<!-- Node7 -->
<g id="Node000007" class="node">
<title>Node7</title>
<g id="a_Node000007"><a xlink:title=" ">
<polygon fill="#e0e0e0" stroke="#999999" points="552.28,-74 499.28,-74 499.28,-55 552.28,-55 552.28,-74"/>
<text text-anchor="middle" x="525.78" y="-62" font-family="Helvetica,sans-Serif" font-size="10.00">cstddef</text>
</a>
</g>
</g>
<!-- Node6&#45;&gt;Node7 -->
<g id="edge6_Node000006_Node000007" class="edge">
<title>Node6&#45;&gt;Node7</title>
<g id="a_edge6_Node000006_Node000007"><a xlink:title=" ">
<path fill="none" stroke="#63b8ff" d="M516.68,-109.84C518.27,-102.13 520.24,-92.49 521.95,-84.17"/>
<polygon fill="#63b8ff" stroke="#63b8ff" points="525.4,-84.77 523.98,-74.27 518.54,-83.36 525.4,-84.77"/>
</a>
</g>
</g>
<!-- Node8 -->
<g id="Node000008" class="node">
<title>Node8</title>
<g id="a_Node000008"><a xlink:title=" ">
<polygon fill="#e0e0e0" stroke="#999999" points="624.78,-74 570.78,-74 570.78,-55 624.78,-55 624.78,-74"/>
<text text-anchor="middle" x="597.78" y="-62" font-family="Helvetica,sans-Serif" font-size="10.00">istream</text>
</a>
</g>
</g>
<!-- Node6&#45;&gt;Node8 -->
<g id="edge7_Node000006_Node000008" class="edge">
<title>Node6&#45;&gt;Node8</title>
<g id="a_edge7_Node000006_Node000008"><a xlink:title=" ">
<path fill="none" stroke="#63b8ff" d="M534.11,-109.84C547.05,-100.83 563.77,-89.18 576.83,-80.09"/>
<polygon fill="#63b8ff" stroke="#63b8ff" points="578.99,-82.85 585.19,-74.27 574.99,-77.11 578.99,-82.85"/>
</a>
</g>
</g>
<!-- Node9 -->
<g id="Node000009" class="node">
<title>Node9</title>
<g id="a_Node000009"><a xlink:title=" ">
<polygon fill="#e0e0e0" stroke="#999999" points="700.28,-74 643.28,-74 643.28,-55 700.28,-55 700.28,-74"/>
<text text-anchor="middle" x="671.78" y="-62" font-family="Helvetica,sans-Serif" font-size="10.00">ostream</text>
</a>
</g>
</g>
<!-- Node6&#45;&gt;Node9 -->
<g id="edge8_Node000006_Node000009" class="edge">
<title>Node6&#45;&gt;Node9</title>
<g id="a_edge8_Node000006_Node000009"><a xlink:title=" ">
<path fill="none" stroke="#63b8ff" d="M551.62,-109.99C578.22,-100.14 613.45,-87.1 638.88,-77.68"/>
<polygon fill="#63b8ff" stroke="#63b8ff" points="640.28,-80.89 648.45,-74.14 637.85,-74.33 640.28,-80.89"/>
</a>
</g>
</g>
<!-- Node10 -->
<g id="Node000010" class="node">
<title>Node10</title>
<g id="a_Node000010"><a xlink:title=" ">
<polygon fill="#e0e0e0" stroke="#999999" points="481.28,-74 388.28,-74 388.28,-55 481.28,-55 481.28,-74"/>
<text text-anchor="middle" x="434.78" y="-62" font-family="Helvetica,sans-Serif" font-size="10.00">unordered_map</text>
</a>
</g>
</g>
<!-- Node6&#45;&gt;Node10 -->
<g id="edge10_Node000006_Node000010" class="edge">
<title>Node6&#45;&gt;Node10</title>
<g id="a_edge10_Node000006_Node000010"><a xlink:title=" ">
<path fill="none" stroke="#63b8ff" d="M494.66,-109.84C482.6,-100.91 467.07,-89.41 454.84,-80.35"/>
<polygon fill="#63b8ff" stroke="#63b8ff" points="456.74,-77.4 446.62,-74.27 452.57,-83.03 456.74,-77.4"/>
</a>
</g>
</g>
<!-- Node11&#45;&gt;Node2 -->
<g id="edge12_Node000011_Node000002" class="edge">
<title>Node11&#45;&gt;Node2</title>
<g id="a_edge12_Node000011_Node000002"><a xlink:title=" ">
<path fill="none" stroke="#63b8ff" d="M267.47,-110.65C209.17,-99.09 126.85,-82.77 78.83,-73.24"/>
<polygon fill="#63b8ff" stroke="#63b8ff" points="79.32,-69.77 68.83,-71.26 77.96,-76.64 79.32,-69.77"/>
</a>
</g>
</g>
<!-- Node11&#45;&gt;Node5 -->
<g id="edge13_Node000011_Node000005" class="edge">
<title>Node11&#45;&gt;Node5</title>
<g id="a_edge13_Node000011_Node000005"><a xlink:title=" ">
<path fill="none" stroke="#63b8ff" d="M335.54,-109.63C336.62,-89.21 338.6,-51.81 339.79,-29.24"/>
<polygon fill="#63b8ff" stroke="#63b8ff" points="343.29,-29.4 340.32,-19.23 336.29,-29.03 343.29,-29.4"/>
</a>
</g>
</g>
<!-- Node12 -->
<g id="Node000012" class="node">
<title>Node12</title>
<g id="a_Node000012"><a xlink:href="transport_8hpp.html" target="_top" xlink:title=" ">
<polygon fill="white" stroke="#666666" points="294.28,-74 127.28,-74 127.28,-55 294.28,-55 294.28,-74"/>
<text text-anchor="middle" x="210.78" y="-62" font-family="Helvetica,sans-Serif" font-size="10.00">jsonrpc/transport/transport.hpp</text>
</a>
</g>
</g>
<!-- Node11&#45;&gt;Node12 -->
<g id="edge14_Node000011_Node000012" class="edge">
<title>Node11&#45;&gt;Node12</title>
<g id="a_edge14_Node000011_Node000012"><a xlink:title=" ">
<path fill="none" stroke="#63b8ff" d="M305.08,-109.99C284.76,-100.4 258.02,-87.79 238.2,-78.44"/>
<polygon fill="#63b8ff" stroke="#63b8ff" points="239.63,-75.24 229.09,-74.14 236.64,-81.57 239.63,-75.24"/>
</a>
</g>
</g>
<!-- Node12&#45;&gt;Node5 -->
<g id="edge15_Node000012_Node000005" class="edge">
<title>Node12&#45;&gt;Node5</title>
<g id="a_edge15_Node000012_Node000005"><a xlink:title=" ">
<path fill="none" stroke="#63b8ff" d="M231.67,-54.98C252.86,-46.34 285.91,-32.87 310.08,-23.02"/>
<polygon fill="#63b8ff" stroke="#63b8ff" points="311.57,-26.19 319.51,-19.17 308.93,-19.7 311.57,-26.19"/>
</a>
</g>
</g>
</g>
</svg>
