<?xml version="1.0" encoding="UTF-8" standalone="no"?>
<!DOCTYPE svg PUBLIC "-//W3C//DTD SVG 1.1//EN"
 "http://www.w3.org/Graphics/SVG/1.1/DTD/svg11.dtd">
<!-- Generated by graphviz version 2.43.0 (0)
 -->
<!-- Title: src/transports/framed_stdio_client_transport.cpp Pages: 1 -->
<svg width="723pt" height="291pt"
 viewBox="0.00 0.00 723.18 291.00" xmlns="http://www.w3.org/2000/svg" xmlns:xlink="http://www.w3.org/1999/xlink">
<g id="graph0" class="graph" transform="scale(1 1) rotate(0) translate(4 287)">
<title>src/transports/framed_stdio_client_transport.cpp</title>
<!-- Node1 -->
<g id="Node000001" class="node">
<title>Node1</title>
<g id="a_Node000001"><a xlink:title=" ">
<polygon fill="#999999" stroke="#666666" points="500.68,-283 352.68,-283 352.68,-253 500.68,-253 500.68,-283"/>
<text text-anchor="start" x="360.68" y="-271" font-family="Helvetica,sans-Serif" font-size="10.00">src/transports/framed</text>
<text text-anchor="middle" x="426.68" y="-260" font-family="Helvetica,sans-Serif" font-size="10.00">_stdio_client_transport.cpp</text>
</a>
</g>
</g>
<!-- Node2 -->
<g id="Node000002" class="node">
<title>Node2</title>
<g id="a_Node000002"><a xlink:href="framed__stdio__client__transport_8hpp.html" target="_top" xlink:title=" ">
<polygon fill="white" stroke="#666666" points="269.68,-217 153.68,-217 153.68,-176 269.68,-176 269.68,-217"/>
<text text-anchor="start" x="161.68" y="-205" font-family="Helvetica,sans-Serif" font-size="10.00">jsonrpc/transports</text>
<text text-anchor="start" x="161.68" y="-194" font-family="Helvetica,sans-Serif" font-size="10.00">/framed_stdio_client</text>
<text text-anchor="middle" x="211.68" y="-183" font-family="Helvetica,sans-Serif" font-size="10.00">_transport.hpp</text>
</a>
</g>
</g>
<!-- Node1&#45;&gt;Node2 -->
<g id="edge1_Node000001_Node000002" class="edge">
<title>Node1&#45;&gt;Node2</title>
<g id="a_edge1_Node000001_Node000002"><a xlink:title=" ">
<path fill="none" stroke="#63b8ff" d="M383.17,-252.94C353.46,-243.33 313.51,-230.42 279.64,-219.47"/>
<polygon fill="#63b8ff" stroke="#63b8ff" points="280.39,-216.03 269.8,-216.29 278.24,-222.69 280.39,-216.03"/>
</a>
</g>
</g>
<!-- Node7 -->
<g id="Node000007" class="node">
<title>Node7</title>
<g id="a_Node000007"><a xlink:title=" ">
<polygon fill="#e0e0e0" stroke="#999999" points="358.68,-19 302.68,-19 302.68,0 358.68,0 358.68,-19"/>
<text text-anchor="middle" x="330.68" y="-7" font-family="Helvetica,sans-Serif" font-size="10.00">optional</text>
</a>
</g>
</g>
<!-- Node1&#45;&gt;Node7 -->
<g id="edge14_Node000001_Node000007" class="edge">
<title>Node1&#45;&gt;Node7</title>
<g id="a_edge14_Node000001_Node000007"><a xlink:title=" ">
<path fill="none" stroke="#63b8ff" d="M391.75,-252.9C376.23,-244.78 359.32,-232.96 349.68,-217 313.24,-156.67 321.42,-67.87 327.29,-29.41"/>
<polygon fill="#63b8ff" stroke="#63b8ff" points="330.8,-29.61 328.98,-19.17 323.89,-28.47 330.8,-29.61"/>
</a>
</g>
</g>
<!-- Node11 -->
<g id="Node000011" class="node">
<title>Node11</title>
<g id="a_Node000011"><a xlink:title=" ">
<polygon fill="#e0e0e0" stroke="#999999" points="418.68,-206 358.68,-206 358.68,-187 418.68,-187 418.68,-206"/>
<text text-anchor="middle" x="388.68" y="-194" font-family="Helvetica,sans-Serif" font-size="10.00">iostream</text>
</a>
</g>
</g>
<!-- Node1&#45;&gt;Node11 -->
<g id="edge13_Node000001_Node000011" class="edge">
<title>Node1&#45;&gt;Node11</title>
<g id="a_edge13_Node000001_Node000011"><a xlink:title=" ">
<path fill="none" stroke="#63b8ff" d="M418.99,-252.94C413.02,-242.03 404.72,-226.85 398.32,-215.13"/>
<polygon fill="#63b8ff" stroke="#63b8ff" points="401.34,-213.36 393.47,-206.27 395.2,-216.72 401.34,-213.36"/>
</a>
</g>
</g>
<!-- Node12 -->
<g id="Node000012" class="node">
<title>Node12</title>
<g id="a_Node000012"><a xlink:title=" ">
<polygon fill="#e0e0e0" stroke="#999999" points="492.68,-206 436.68,-206 436.68,-187 492.68,-187 492.68,-206"/>
<text text-anchor="middle" x="464.68" y="-194" font-family="Helvetica,sans-Serif" font-size="10.00">sstream</text>
</a>
</g>
</g>
<!-- Node1&#45;&gt;Node12 -->
<g id="edge15_Node000001_Node000012" class="edge">
<title>Node1&#45;&gt;Node12</title>
<g id="a_edge15_Node000001_Node000012"><a xlink:title=" ">
<path fill="none" stroke="#63b8ff" d="M434.37,-252.94C440.33,-242.03 448.63,-226.85 455.04,-215.13"/>
<polygon fill="#63b8ff" stroke="#63b8ff" points="458.16,-216.72 459.88,-206.27 452.02,-213.36 458.16,-216.72"/>
</a>
</g>
</g>
<!-- Node13 -->
<g id="Node000013" class="node">
<title>Node13</title>
<g id="a_Node000013"><a xlink:title=" ">
<polygon fill="#e0e0e0" stroke="#999999" points="604.18,-206 511.18,-206 511.18,-187 604.18,-187 604.18,-206"/>
<text text-anchor="middle" x="557.68" y="-194" font-family="Helvetica,sans-Serif" font-size="10.00">unordered_map</text>
</a>
</g>
</g>
<!-- Node1&#45;&gt;Node13 -->
<g id="edge16_Node000001_Node000013" class="edge">
<title>Node1&#45;&gt;Node13</title>
<g id="a_edge16_Node000001_Node000013"><a xlink:title=" ">
<path fill="none" stroke="#63b8ff" d="M453.19,-252.94C476.35,-240.65 509.73,-222.94 532.49,-210.87"/>
<polygon fill="#63b8ff" stroke="#63b8ff" points="534.34,-213.85 541.53,-206.07 531.05,-207.66 534.34,-213.85"/>
</a>
</g>
</g>
<!-- Node14 -->
<g id="Node000014" class="node">
<title>Node14</title>
<g id="a_Node000014"><a xlink:title=" ">
<polygon fill="#e0e0e0" stroke="#999999" points="715.18,-206 622.18,-206 622.18,-187 715.18,-187 715.18,-206"/>
<text text-anchor="middle" x="668.68" y="-194" font-family="Helvetica,sans-Serif" font-size="10.00">spdlog/spdlog.h</text>
</a>
</g>
</g>
<!-- Node1&#45;&gt;Node14 -->
<g id="edge17_Node000001_Node000014" class="edge">
<title>Node1&#45;&gt;Node14</title>
<g id="a_edge17_Node000001_Node000014"><a xlink:title=" ">
<path fill="none" stroke="#63b8ff" d="M483.89,-252.96C521.08,-243.52 570.51,-230.4 613.68,-217 621,-214.73 628.79,-212.1 636.14,-209.52"/>
<polygon fill="#63b8ff" stroke="#63b8ff" points="637.56,-212.73 645.8,-206.07 635.21,-206.13 637.56,-212.73"/>
</a>
</g>
</g>
<!-- Node3 -->
<g id="Node000003" class="node">
<title>Node3</title>
<g id="a_Node000003"><a xlink:title=" ">
<polygon fill="#e0e0e0" stroke="#999999" points="99.68,-74 55.68,-74 55.68,-55 99.68,-55 99.68,-74"/>
<text text-anchor="middle" x="77.68" y="-62" font-family="Helvetica,sans-Serif" font-size="10.00">string</text>
</a>
</g>
</g>
<!-- Node2&#45;&gt;Node3 -->
<g id="edge2_Node000002_Node000003" class="edge">
<title>Node2&#45;&gt;Node3</title>
<g id="a_edge2_Node000002_Node000003"><a xlink:title=" ">
<path fill="none" stroke="#63b8ff" d="M153.59,-187.78C99.19,-179.22 23.64,-163.45 5.68,-140 -2.43,-129.42 -0.81,-121.65 5.68,-110 14.31,-94.52 30.78,-83.75 45.8,-76.69"/>
<polygon fill="#63b8ff" stroke="#63b8ff" points="47.56,-79.74 55.36,-72.57 44.79,-73.31 47.56,-79.74"/>
</a>
</g>
</g>
<!-- Node4 -->
<g id="Node000004" class="node">
<title>Node4</title>
<g id="a_Node000004"><a xlink:href="client__transport_8hpp.html" target="_top" xlink:title=" ">
<polygon fill="white" stroke="#666666" points="264.68,-140 158.68,-140 158.68,-110 264.68,-110 264.68,-140"/>
<text text-anchor="start" x="166.68" y="-128" font-family="Helvetica,sans-Serif" font-size="10.00">jsonrpc/core/client</text>
<text text-anchor="middle" x="211.68" y="-117" font-family="Helvetica,sans-Serif" font-size="10.00">_transport.hpp</text>
</a>
</g>
</g>
<!-- Node2&#45;&gt;Node4 -->
<g id="edge3_Node000002_Node000004" class="edge">
<title>Node2&#45;&gt;Node4</title>
<g id="a_edge3_Node000002_Node000004"><a xlink:title=" ">
<path fill="none" stroke="#63b8ff" d="M211.68,-175.77C211.68,-167.85 211.68,-158.63 211.68,-150.3"/>
<polygon fill="#63b8ff" stroke="#63b8ff" points="215.18,-150.04 211.68,-140.04 208.18,-150.04 215.18,-150.04"/>
</a>
</g>
</g>
<!-- Node5 -->
<g id="Node000005" class="node">
<title>Node5</title>
<g id="a_Node000005"><a xlink:href="types_8hpp.html" target="_top" xlink:title=" ">
<polygon fill="white" stroke="#666666" points="284.18,-74 157.18,-74 157.18,-55 284.18,-55 284.18,-74"/>
<text text-anchor="middle" x="220.68" y="-62" font-family="Helvetica,sans-Serif" font-size="10.00">jsonrpc/core/types.hpp</text>
</a>
</g>
</g>
<!-- Node2&#45;&gt;Node5 -->
<g id="edge10_Node000002_Node000005" class="edge">
<title>Node2&#45;&gt;Node5</title>
<g id="a_edge10_Node000002_Node000005"><a xlink:title=" ">
<path fill="none" stroke="#63b8ff" d="M243.17,-175.84C255.06,-166.57 267.25,-154.38 273.68,-140 279.12,-127.83 279.31,-122.08 273.68,-110 267.85,-97.49 256.58,-87.25 245.93,-79.76"/>
<polygon fill="#63b8ff" stroke="#63b8ff" points="247.55,-76.64 237.26,-74.13 243.74,-82.51 247.55,-76.64"/>
</a>
</g>
</g>
<!-- Node10 -->
<g id="Node000010" class="node">
<title>Node10</title>
<g id="a_Node000010"><a xlink:href="framed__transport_8hpp.html" target="_top" xlink:title=" ">
<polygon fill="white" stroke="#666666" points="140.18,-140 15.18,-140 15.18,-110 140.18,-110 140.18,-140"/>
<text text-anchor="start" x="23.18" y="-128" font-family="Helvetica,sans-Serif" font-size="10.00">jsonrpc/transports</text>
<text text-anchor="middle" x="77.68" y="-117" font-family="Helvetica,sans-Serif" font-size="10.00">/framed_transport.hpp</text>
</a>
</g>
</g>
<!-- Node2&#45;&gt;Node10 -->
<g id="edge11_Node000002_Node000010" class="edge">
<title>Node2&#45;&gt;Node10</title>
<g id="a_edge11_Node000002_Node000010"><a xlink:title=" ">
<path fill="none" stroke="#63b8ff" d="M173.99,-175.96C155.19,-166.2 132.54,-154.46 113.94,-144.81"/>
<polygon fill="#63b8ff" stroke="#63b8ff" points="115.38,-141.61 104.89,-140.11 112.15,-147.82 115.38,-141.61"/>
</a>
</g>
</g>
<!-- Node4&#45;&gt;Node3 -->
<g id="edge4_Node000004_Node000003" class="edge">
<title>Node4&#45;&gt;Node3</title>
<g id="a_edge4_Node000004_Node000003"><a xlink:title=" ">
<path fill="none" stroke="#63b8ff" d="M179.58,-109.99C157.42,-100.31 128.2,-87.56 106.73,-78.18"/>
<polygon fill="#63b8ff" stroke="#63b8ff" points="108.03,-74.93 97.47,-74.14 105.23,-81.35 108.03,-74.93"/>
</a>
</g>
</g>
<!-- Node4&#45;&gt;Node5 -->
<g id="edge5_Node000004_Node000005" class="edge">
<title>Node4&#45;&gt;Node5</title>
<g id="a_edge5_Node000004_Node000005"><a xlink:title=" ">
<path fill="none" stroke="#63b8ff" d="M213.86,-109.84C215.04,-102.13 216.53,-92.49 217.81,-84.17"/>
<polygon fill="#63b8ff" stroke="#63b8ff" points="221.27,-84.68 219.33,-74.27 214.35,-83.62 221.27,-84.68"/>
</a>
</g>
</g>
<!-- Node6 -->
<g id="Node000006" class="node">
<title>Node6</title>
<g id="a_Node000006"><a xlink:title=" ">
<polygon fill="#e0e0e0" stroke="#999999" points="87.18,-19 22.18,-19 22.18,0 87.18,0 87.18,-19"/>
<text text-anchor="middle" x="54.68" y="-7" font-family="Helvetica,sans-Serif" font-size="10.00">functional</text>
</a>
</g>
</g>
<!-- Node5&#45;&gt;Node6 -->
<g id="edge6_Node000005_Node000006" class="edge">
<title>Node5&#45;&gt;Node6</title>
<g id="a_edge6_Node000005_Node000006"><a xlink:title=" ">
<path fill="none" stroke="#63b8ff" d="M194.01,-54.98C166.14,-46.09 122.22,-32.07 91.16,-22.15"/>
<polygon fill="#63b8ff" stroke="#63b8ff" points="92.15,-18.79 81.56,-19.08 90.02,-25.46 92.15,-18.79"/>
</a>
</g>
</g>
<!-- Node5&#45;&gt;Node7 -->
<g id="edge7_Node000005_Node000007" class="edge">
<title>Node5&#45;&gt;Node7</title>
<g id="a_edge7_Node000005_Node000007"><a xlink:title=" ">
<path fill="none" stroke="#63b8ff" d="M238.35,-54.98C255.97,-46.5 283.26,-33.35 303.6,-23.54"/>
<polygon fill="#63b8ff" stroke="#63b8ff" points="305.19,-26.66 312.68,-19.17 302.15,-20.36 305.19,-26.66"/>
</a>
</g>
</g>
<!-- Node8 -->
<g id="Node000008" class="node">
<title>Node8</title>
<g id="a_Node000008"><a xlink:title=" ">
<polygon fill="#e0e0e0" stroke="#999999" points="156.18,-19 105.18,-19 105.18,0 156.18,0 156.18,-19"/>
<text text-anchor="middle" x="130.68" y="-7" font-family="Helvetica,sans-Serif" font-size="10.00">variant</text>
</a>
</g>
</g>
<!-- Node5&#45;&gt;Node8 -->
<g id="edge8_Node000005_Node000008" class="edge">
<title>Node5&#45;&gt;Node8</title>
<g id="a_edge8_Node000005_Node000008"><a xlink:title=" ">
<path fill="none" stroke="#63b8ff" d="M206.22,-54.98C192.26,-46.77 170.88,-34.18 154.43,-24.49"/>
<polygon fill="#63b8ff" stroke="#63b8ff" points="155.79,-21.23 145.4,-19.17 152.24,-27.26 155.79,-21.23"/>
</a>
</g>
</g>
<!-- Node9 -->
<g id="Node000009" class="node">
<title>Node9</title>
<g id="a_Node000009"><a xlink:title=" ">
<polygon fill="#e0e0e0" stroke="#999999" points="284.68,-19 174.68,-19 174.68,0 284.68,0 284.68,-19"/>
<text text-anchor="middle" x="229.68" y="-7" font-family="Helvetica,sans-Serif" font-size="10.00">nlohmann/json.hpp</text>
</a>
</g>
</g>
<!-- Node5&#45;&gt;Node9 -->
<g id="edge9_Node000005_Node000009" class="edge">
<title>Node5&#45;&gt;Node9</title>
<g id="a_edge9_Node000005_Node000009"><a xlink:title=" ">
<path fill="none" stroke="#63b8ff" d="M222.16,-54.75C223.34,-47.8 225.03,-37.85 226.51,-29.13"/>
<polygon fill="#63b8ff" stroke="#63b8ff" points="230,-29.53 228.22,-19.09 223.09,-28.36 230,-29.53"/>
</a>
</g>
</g>
<!-- Node10&#45;&gt;Node3 -->
<g id="edge12_Node000010_Node000003" class="edge">
<title>Node10&#45;&gt;Node3</title>
<g id="a_edge12_Node000010_Node000003"><a xlink:title=" ">
<path fill="none" stroke="#63b8ff" d="M77.68,-109.84C77.68,-102.21 77.68,-92.7 77.68,-84.45"/>
<polygon fill="#63b8ff" stroke="#63b8ff" points="81.18,-84.27 77.68,-74.27 74.18,-84.27 81.18,-84.27"/>
</a>
</g>
</g>
</g>
</svg>
