<?xml version="1.0" encoding="UTF-8" standalone="no"?>
<!DOCTYPE svg PUBLIC "-//W3C//DTD SVG 1.1//EN"
 "http://www.w3.org/Graphics/SVG/1.1/DTD/svg11.dtd">
<!-- Generated by graphviz version 2.43.0 (0)
 -->
<!-- Title: include/jsonrpc/transports/framed_stdio_client_transport.hpp Pages: 1 -->
<svg width="449pt" height="214pt"
 viewBox="0.00 0.00 449.46 214.00" xmlns="http://www.w3.org/2000/svg" xmlns:xlink="http://www.w3.org/1999/xlink">
<g id="graph0" class="graph" transform="scale(1 1) rotate(0) translate(4 210)">
<title>include/jsonrpc/transports/framed_stdio_client_transport.hpp</title>
<!-- Node1 -->
<g id="Node000001" class="node">
<title>Node1</title>
<g id="a_Node000001"><a xlink:title=" ">
<polygon fill="#999999" stroke="#666666" points="237.96,-206 50.96,-206 50.96,-176 237.96,-176 237.96,-206"/>
<text text-anchor="start" x="58.96" y="-194" font-family="Helvetica,sans-Serif" font-size="10.00">include/jsonrpc/transports</text>
<text text-anchor="middle" x="144.46" y="-183" font-family="Helvetica,sans-Serif" font-size="10.00">/framed_stdio_client_transport.hpp</text>
</a>
</g>
</g>
<!-- Node2 -->
<g id="Node000002" class="node">
<title>Node2</title>
<g id="a_Node000002"><a xlink:title=" ">
<polygon fill="#e0e0e0" stroke="#999999" points="99.46,-74 55.46,-74 55.46,-55 99.46,-55 99.46,-74"/>
<text text-anchor="middle" x="77.46" y="-62" font-family="Helvetica,sans-Serif" font-size="10.00">string</text>
</a>
</g>
</g>
<!-- Node1&#45;&gt;Node2 -->
<g id="edge1_Node000001_Node000002" class="edge">
<title>Node1&#45;&gt;Node2</title>
<g id="a_edge1_Node000001_Node000002"><a xlink:title=" ">
<path fill="none" stroke="#63b8ff" d="M55.87,-175.95C36.16,-168.52 17.55,-157.2 5.46,-140 -2.21,-129.09 -1.04,-121.65 5.46,-110 14.09,-94.52 30.56,-83.75 45.58,-76.69"/>
<polygon fill="#63b8ff" stroke="#63b8ff" points="47.34,-79.74 55.13,-72.57 44.57,-73.31 47.34,-79.74"/>
</a>
</g>
</g>
<!-- Node3 -->
<g id="Node000003" class="node">
<title>Node3</title>
<g id="a_Node000003"><a xlink:href="client__transport_8hpp.html" target="_top" xlink:title=" ">
<polygon fill="white" stroke="#666666" points="264.46,-140 158.46,-140 158.46,-110 264.46,-110 264.46,-140"/>
<text text-anchor="start" x="166.46" y="-128" font-family="Helvetica,sans-Serif" font-size="10.00">jsonrpc/core/client</text>
<text text-anchor="middle" x="211.46" y="-117" font-family="Helvetica,sans-Serif" font-size="10.00">_transport.hpp</text>
</a>
</g>
</g>
<!-- Node1&#45;&gt;Node3 -->
<g id="edge2_Node000001_Node000003" class="edge">
<title>Node1&#45;&gt;Node3</title>
<g id="a_edge2_Node000001_Node000003"><a xlink:title=" ">
<path fill="none" stroke="#63b8ff" d="M159.33,-175.8C168.09,-167.43 179.34,-156.68 189.15,-147.31"/>
<polygon fill="#63b8ff" stroke="#63b8ff" points="191.82,-149.6 196.63,-140.16 186.98,-144.54 191.82,-149.6"/>
</a>
</g>
</g>
<!-- Node4 -->
<g id="Node000004" class="node">
<title>Node4</title>
<g id="a_Node000004"><a xlink:href="types_8hpp.html" target="_top" xlink:title=" ">
<polygon fill="white" stroke="#666666" points="314.96,-74 187.96,-74 187.96,-55 314.96,-55 314.96,-74"/>
<text text-anchor="middle" x="251.46" y="-62" font-family="Helvetica,sans-Serif" font-size="10.00">jsonrpc/core/types.hpp</text>
</a>
</g>
</g>
<!-- Node1&#45;&gt;Node4 -->
<g id="edge9_Node000001_Node000004" class="edge">
<title>Node1&#45;&gt;Node4</title>
<g id="a_edge9_Node000001_Node000004"><a xlink:title=" ">
<path fill="none" stroke="#63b8ff" d="M223.45,-175.94C242.97,-168.54 261.65,-157.24 273.46,-140 285.43,-122.51 274.41,-98.42 264.12,-82.42"/>
<polygon fill="#63b8ff" stroke="#63b8ff" points="266.89,-80.28 258.32,-74.05 261.14,-84.26 266.89,-80.28"/>
</a>
</g>
</g>
<!-- Node9 -->
<g id="Node000009" class="node">
<title>Node9</title>
<g id="a_Node000009"><a xlink:href="framed__transport_8hpp.html" target="_top" xlink:title=" ">
<polygon fill="white" stroke="#666666" points="139.96,-140 14.96,-140 14.96,-110 139.96,-110 139.96,-140"/>
<text text-anchor="start" x="22.96" y="-128" font-family="Helvetica,sans-Serif" font-size="10.00">jsonrpc/transports</text>
<text text-anchor="middle" x="77.46" y="-117" font-family="Helvetica,sans-Serif" font-size="10.00">/framed_transport.hpp</text>
</a>
</g>
</g>
<!-- Node1&#45;&gt;Node9 -->
<g id="edge10_Node000001_Node000009" class="edge">
<title>Node1&#45;&gt;Node9</title>
<g id="a_edge10_Node000001_Node000009"><a xlink:title=" ">
<path fill="none" stroke="#63b8ff" d="M129.59,-175.8C120.83,-167.43 109.57,-156.68 99.77,-147.31"/>
<polygon fill="#63b8ff" stroke="#63b8ff" points="101.93,-144.54 92.29,-140.16 97.1,-149.6 101.93,-144.54"/>
</a>
</g>
</g>
<!-- Node3&#45;&gt;Node2 -->
<g id="edge3_Node000003_Node000002" class="edge">
<title>Node3&#45;&gt;Node2</title>
<g id="a_edge3_Node000003_Node000002"><a xlink:title=" ">
<path fill="none" stroke="#63b8ff" d="M179.36,-109.99C157.2,-100.31 127.98,-87.56 106.51,-78.18"/>
<polygon fill="#63b8ff" stroke="#63b8ff" points="107.81,-74.93 97.25,-74.14 105.01,-81.35 107.81,-74.93"/>
</a>
</g>
</g>
<!-- Node3&#45;&gt;Node4 -->
<g id="edge4_Node000003_Node000004" class="edge">
<title>Node3&#45;&gt;Node4</title>
<g id="a_edge4_Node000003_Node000004"><a xlink:title=" ">
<path fill="none" stroke="#63b8ff" d="M221.14,-109.84C226.71,-101.69 233.75,-91.4 239.64,-82.78"/>
<polygon fill="#63b8ff" stroke="#63b8ff" points="242.71,-84.5 245.46,-74.27 236.93,-80.55 242.71,-84.5"/>
</a>
</g>
</g>
<!-- Node5 -->
<g id="Node000005" class="node">
<title>Node5</title>
<g id="a_Node000005"><a xlink:title=" ">
<polygon fill="#e0e0e0" stroke="#999999" points="168.96,-19 103.96,-19 103.96,0 168.96,0 168.96,-19"/>
<text text-anchor="middle" x="136.46" y="-7" font-family="Helvetica,sans-Serif" font-size="10.00">functional</text>
</a>
</g>
</g>
<!-- Node4&#45;&gt;Node5 -->
<g id="edge5_Node000004_Node000005" class="edge">
<title>Node4&#45;&gt;Node5</title>
<g id="a_edge5_Node000004_Node000005"><a xlink:title=" ">
<path fill="none" stroke="#63b8ff" d="M232.98,-54.98C214.48,-46.46 185.78,-33.23 164.47,-23.41"/>
<polygon fill="#63b8ff" stroke="#63b8ff" points="165.82,-20.18 155.27,-19.17 162.89,-26.53 165.82,-20.18"/>
</a>
</g>
</g>
<!-- Node6 -->
<g id="Node000006" class="node">
<title>Node6</title>
<g id="a_Node000006"><a xlink:title=" ">
<polygon fill="#e0e0e0" stroke="#999999" points="243.46,-19 187.46,-19 187.46,0 243.46,0 243.46,-19"/>
<text text-anchor="middle" x="215.46" y="-7" font-family="Helvetica,sans-Serif" font-size="10.00">optional</text>
</a>
</g>
</g>
<!-- Node4&#45;&gt;Node6 -->
<g id="edge6_Node000004_Node000006" class="edge">
<title>Node4&#45;&gt;Node6</title>
<g id="a_edge6_Node000004_Node000006"><a xlink:title=" ">
<path fill="none" stroke="#63b8ff" d="M245.51,-54.75C240.48,-47.34 233.12,-36.5 226.94,-27.41"/>
<polygon fill="#63b8ff" stroke="#63b8ff" points="229.81,-25.39 221.29,-19.09 224.01,-29.33 229.81,-25.39"/>
</a>
</g>
</g>
<!-- Node7 -->
<g id="Node000007" class="node">
<title>Node7</title>
<g id="a_Node000007"><a xlink:title=" ">
<polygon fill="#e0e0e0" stroke="#999999" points="312.96,-19 261.96,-19 261.96,0 312.96,0 312.96,-19"/>
<text text-anchor="middle" x="287.46" y="-7" font-family="Helvetica,sans-Serif" font-size="10.00">variant</text>
</a>
</g>
</g>
<!-- Node4&#45;&gt;Node7 -->
<g id="edge7_Node000004_Node000007" class="edge">
<title>Node4&#45;&gt;Node7</title>
<g id="a_edge7_Node000004_Node000007"><a xlink:title=" ">
<path fill="none" stroke="#63b8ff" d="M257.4,-54.75C262.43,-47.34 269.79,-36.5 275.97,-27.41"/>
<polygon fill="#63b8ff" stroke="#63b8ff" points="278.9,-29.33 281.62,-19.09 273.11,-25.39 278.9,-29.33"/>
</a>
</g>
</g>
<!-- Node8 -->
<g id="Node000008" class="node">
<title>Node8</title>
<g id="a_Node000008"><a xlink:title=" ">
<polygon fill="#e0e0e0" stroke="#999999" points="441.46,-19 331.46,-19 331.46,0 441.46,0 441.46,-19"/>
<text text-anchor="middle" x="386.46" y="-7" font-family="Helvetica,sans-Serif" font-size="10.00">nlohmann/json.hpp</text>
</a>
</g>
</g>
<!-- Node4&#45;&gt;Node8 -->
<g id="edge8_Node000004_Node000008" class="edge">
<title>Node4&#45;&gt;Node8</title>
<g id="a_edge8_Node000004_Node000008"><a xlink:title=" ">
<path fill="none" stroke="#63b8ff" d="M273.15,-54.98C295.26,-46.3 329.78,-32.75 354.91,-22.88"/>
<polygon fill="#63b8ff" stroke="#63b8ff" points="356.34,-26.08 364.37,-19.17 353.79,-19.57 356.34,-26.08"/>
</a>
</g>
</g>
<!-- Node9&#45;&gt;Node2 -->
<g id="edge11_Node000009_Node000002" class="edge">
<title>Node9&#45;&gt;Node2</title>
<g id="a_edge11_Node000009_Node000002"><a xlink:title=" ">
<path fill="none" stroke="#63b8ff" d="M77.46,-109.84C77.46,-102.21 77.46,-92.7 77.46,-84.45"/>
<polygon fill="#63b8ff" stroke="#63b8ff" points="80.96,-84.27 77.46,-74.27 73.96,-84.27 80.96,-84.27"/>
</a>
</g>
</g>
</g>
</svg>
