<?xml version="1.0" encoding="UTF-8" standalone="no"?>
<!DOCTYPE svg PUBLIC "-//W3C//DTD SVG 1.1//EN"
 "http://www.w3.org/Graphics/SVG/1.1/DTD/svg11.dtd">
<!-- Generated by graphviz version 2.43.0 (0)
 -->
<!-- Title: src/transport/framed_pipe_transport.cpp Pages: 1 -->
<svg width="776pt" height="280pt"
 viewBox="0.00 0.00 776.44 280.00" xmlns="http://www.w3.org/2000/svg" xmlns:xlink="http://www.w3.org/1999/xlink">
<g id="graph0" class="graph" transform="scale(1 1) rotate(0) translate(4 276)">
<title>src/transport/framed_pipe_transport.cpp</title>
<!-- Node1 -->
<g id="Node000001" class="node">
<title>Node1</title>
<g id="a_Node000001"><a xlink:title=" ">
<polygon fill="#999999" stroke="#666666" points="646.94,-272 530.94,-272 530.94,-242 646.94,-242 646.94,-272"/>
<text text-anchor="start" x="538.94" y="-260" font-family="Helvetica,sans-Serif" font-size="10.00">src/transport/framed</text>
<text text-anchor="middle" x="588.94" y="-249" font-family="Helvetica,sans-Serif" font-size="10.00">_pipe_transport.cpp</text>
</a>
</g>
</g>
<!-- Node2 -->
<g id="Node000002" class="node">
<title>Node2</title>
<g id="a_Node000002"><a xlink:href="framed__pipe__transport_8hpp.html" target="_top" xlink:title=" ">
<polygon fill="white" stroke="#666666" points="499.44,-206 362.44,-206 362.44,-176 499.44,-176 499.44,-206"/>
<text text-anchor="start" x="370.44" y="-194" font-family="Helvetica,sans-Serif" font-size="10.00">jsonrpc/transport/framed</text>
<text text-anchor="middle" x="430.94" y="-183" font-family="Helvetica,sans-Serif" font-size="10.00">_pipe_transport.hpp</text>
</a>
</g>
</g>
<!-- Node1&#45;&gt;Node2 -->
<g id="edge1_Node000001_Node000002" class="edge">
<title>Node1&#45;&gt;Node2</title>
<g id="a_edge1_Node000001_Node000002"><a xlink:title=" ">
<path fill="none" stroke="#63b8ff" d="M554.26,-241.95C530.91,-232.49 499.9,-219.93 474.82,-209.78"/>
<polygon fill="#63b8ff" stroke="#63b8ff" points="476.11,-206.52 465.53,-206.01 473.49,-213.01 476.11,-206.52"/>
</a>
</g>
</g>
<!-- Node13 -->
<g id="Node000013" class="node">
<title>Node13</title>
<g id="a_Node000013"><a xlink:title=" ">
<polygon fill="#e0e0e0" stroke="#999999" points="582.44,-200.5 517.44,-200.5 517.44,-181.5 582.44,-181.5 582.44,-200.5"/>
<text text-anchor="middle" x="549.94" y="-188.5" font-family="Helvetica,sans-Serif" font-size="10.00">stdexcept</text>
</a>
</g>
</g>
<!-- Node1&#45;&gt;Node13 -->
<g id="edge16_Node000001_Node000013" class="edge">
<title>Node1&#45;&gt;Node13</title>
<g id="a_edge16_Node000001_Node000013"><a xlink:title=" ">
<path fill="none" stroke="#63b8ff" d="M580.28,-241.8C574.5,-232.31 566.85,-219.76 560.68,-209.63"/>
<polygon fill="#63b8ff" stroke="#63b8ff" points="563.52,-207.56 555.33,-200.84 557.54,-211.21 563.52,-207.56"/>
</a>
</g>
</g>
<!-- Node14 -->
<g id="Node000014" class="node">
<title>Node14</title>
<g id="a_Node000014"><a xlink:title=" ">
<polygon fill="#e0e0e0" stroke="#999999" points="656.94,-200.5 600.94,-200.5 600.94,-181.5 656.94,-181.5 656.94,-200.5"/>
<text text-anchor="middle" x="628.94" y="-188.5" font-family="Helvetica,sans-Serif" font-size="10.00">unistd.h</text>
</a>
</g>
</g>
<!-- Node1&#45;&gt;Node14 -->
<g id="edge17_Node000001_Node000014" class="edge">
<title>Node1&#45;&gt;Node14</title>
<g id="a_edge17_Node000001_Node000014"><a xlink:title=" ">
<path fill="none" stroke="#63b8ff" d="M597.82,-241.8C603.75,-232.31 611.59,-219.76 617.92,-209.63"/>
<polygon fill="#63b8ff" stroke="#63b8ff" points="621.08,-211.18 623.41,-200.84 615.14,-207.47 621.08,-211.18"/>
</a>
</g>
</g>
<!-- Node15 -->
<g id="Node000015" class="node">
<title>Node15</title>
<g id="a_Node000015"><a xlink:title=" ">
<polygon fill="#e0e0e0" stroke="#999999" points="768.44,-200.5 675.44,-200.5 675.44,-181.5 768.44,-181.5 768.44,-200.5"/>
<text text-anchor="middle" x="721.94" y="-188.5" font-family="Helvetica,sans-Serif" font-size="10.00">spdlog/spdlog.h</text>
</a>
</g>
</g>
<!-- Node1&#45;&gt;Node15 -->
<g id="edge18_Node000001_Node000015" class="edge">
<title>Node1&#45;&gt;Node15</title>
<g id="a_edge18_Node000001_Node000015"><a xlink:title=" ">
<path fill="none" stroke="#63b8ff" d="M618.13,-241.95C641.04,-230.93 672.69,-215.7 695,-204.96"/>
<polygon fill="#63b8ff" stroke="#63b8ff" points="696.74,-208.01 704.24,-200.52 693.71,-201.7 696.74,-208.01"/>
</a>
</g>
</g>
<!-- Node3 -->
<g id="Node000003" class="node">
<title>Node3</title>
<g id="a_Node000003"><a xlink:title=" ">
<polygon fill="#e0e0e0" stroke="#999999" points="414.94,-74 356.94,-74 356.94,-55 414.94,-55 414.94,-74"/>
<text text-anchor="middle" x="385.94" y="-62" font-family="Helvetica,sans-Serif" font-size="10.00">asio.hpp</text>
</a>
</g>
</g>
<!-- Node2&#45;&gt;Node3 -->
<g id="edge2_Node000002_Node000003" class="edge">
<title>Node2&#45;&gt;Node3</title>
<g id="a_edge2_Node000002_Node000003"><a xlink:title=" ">
<path fill="none" stroke="#63b8ff" d="M428.86,-175.74C426.19,-159.43 420.8,-132.13 411.94,-110 408.16,-100.57 402.62,-90.75 397.62,-82.74"/>
<polygon fill="#63b8ff" stroke="#63b8ff" points="400.52,-80.78 392.14,-74.3 394.65,-84.59 400.52,-80.78"/>
</a>
</g>
</g>
<!-- Node4 -->
<g id="Node000004" class="node">
<title>Node4</title>
<g id="a_Node000004"><a xlink:title=" ">
<polygon fill="#e0e0e0" stroke="#999999" points="403.44,-134.5 236.44,-134.5 236.44,-115.5 403.44,-115.5 403.44,-134.5"/>
<text text-anchor="middle" x="319.94" y="-122.5" font-family="Helvetica,sans-Serif" font-size="10.00">asio/local/stream_protocol.hpp</text>
</a>
</g>
</g>
<!-- Node2&#45;&gt;Node4 -->
<g id="edge3_Node000002_Node000004" class="edge">
<title>Node2&#45;&gt;Node4</title>
<g id="a_edge3_Node000002_Node000004"><a xlink:title=" ">
<path fill="none" stroke="#63b8ff" d="M406.58,-175.95C387.8,-165.13 361.98,-150.24 343.43,-139.54"/>
<polygon fill="#63b8ff" stroke="#63b8ff" points="345.12,-136.48 334.71,-134.52 341.63,-142.54 345.12,-136.48"/>
</a>
</g>
</g>
<!-- Node5 -->
<g id="Node000005" class="node">
<title>Node5</title>
<g id="a_Node000005"><a xlink:title=" ">
<polygon fill="#e0e0e0" stroke="#999999" points="593.94,-19 549.94,-19 549.94,0 593.94,0 593.94,-19"/>
<text text-anchor="middle" x="571.94" y="-7" font-family="Helvetica,sans-Serif" font-size="10.00">string</text>
</a>
</g>
</g>
<!-- Node2&#45;&gt;Node5 -->
<g id="edge4_Node000002_Node000005" class="edge">
<title>Node2&#45;&gt;Node5</title>
<g id="a_edge4_Node000002_Node000005"><a xlink:title=" ">
<path fill="none" stroke="#63b8ff" d="M492.62,-175.95C530.93,-166.24 575.68,-152.83 590.94,-140 622.08,-113.82 642.13,-91.88 624.94,-55 619.11,-42.49 607.84,-32.25 597.19,-24.76"/>
<polygon fill="#63b8ff" stroke="#63b8ff" points="598.81,-21.64 588.52,-19.13 595,-27.51 598.81,-21.64"/>
</a>
</g>
</g>
<!-- Node6 -->
<g id="Node000006" class="node">
<title>Node6</title>
<g id="a_Node000006"><a xlink:href="framed__transport_8hpp.html" target="_top" xlink:title=" ">
<polygon fill="white" stroke="#666666" points="218.44,-140 81.44,-140 81.44,-110 218.44,-110 218.44,-140"/>
<text text-anchor="start" x="89.44" y="-128" font-family="Helvetica,sans-Serif" font-size="10.00">jsonrpc/transport/framed</text>
<text text-anchor="middle" x="149.94" y="-117" font-family="Helvetica,sans-Serif" font-size="10.00">_transport.hpp</text>
</a>
</g>
</g>
<!-- Node2&#45;&gt;Node6 -->
<g id="edge5_Node000002_Node000006" class="edge">
<title>Node2&#45;&gt;Node6</title>
<g id="a_edge5_Node000002_Node000006"><a xlink:title=" ">
<path fill="none" stroke="#63b8ff" d="M369.27,-175.95C325.62,-166.01 266.97,-152.65 221.29,-142.25"/>
<polygon fill="#63b8ff" stroke="#63b8ff" points="221.99,-138.82 211.46,-140.01 220.43,-145.65 221.99,-138.82"/>
</a>
</g>
</g>
<!-- Node11 -->
<g id="Node000011" class="node">
<title>Node11</title>
<g id="a_Node000011"><a xlink:href="pipe__transport_8hpp.html" target="_top" xlink:title=" ">
<polygon fill="white" stroke="#666666" points="582.44,-140 459.44,-140 459.44,-110 582.44,-110 582.44,-140"/>
<text text-anchor="start" x="467.44" y="-128" font-family="Helvetica,sans-Serif" font-size="10.00">jsonrpc/transport/pipe</text>
<text text-anchor="middle" x="520.94" y="-117" font-family="Helvetica,sans-Serif" font-size="10.00">_transport.hpp</text>
</a>
</g>
</g>
<!-- Node2&#45;&gt;Node11 -->
<g id="edge11_Node000002_Node000011" class="edge">
<title>Node2&#45;&gt;Node11</title>
<g id="a_edge11_Node000002_Node000011"><a xlink:title=" ">
<path fill="none" stroke="#63b8ff" d="M450.91,-175.8C463.15,-167.1 479,-155.82 492.53,-146.2"/>
<polygon fill="#63b8ff" stroke="#63b8ff" points="494.9,-148.81 501.02,-140.16 490.84,-143.11 494.9,-148.81"/>
</a>
</g>
</g>
<!-- Node6&#45;&gt;Node5 -->
<g id="edge9_Node000006_Node000005" class="edge">
<title>Node6&#45;&gt;Node5</title>
<g id="a_edge9_Node000006_Node000005"><a xlink:title=" ">
<path fill="none" stroke="#63b8ff" d="M81.23,-113.53C32.52,-103.32 -19.69,-84.89 7.94,-55 44.14,-15.82 425.05,-11.09 539.56,-10.56"/>
<polygon fill="#63b8ff" stroke="#63b8ff" points="539.8,-14.06 549.79,-10.52 539.78,-7.06 539.8,-14.06"/>
</a>
</g>
</g>
<!-- Node7 -->
<g id="Node000007" class="node">
<title>Node7</title>
<g id="a_Node000007"><a xlink:title=" ">
<polygon fill="#e0e0e0" stroke="#999999" points="181.44,-74 128.44,-74 128.44,-55 181.44,-55 181.44,-74"/>
<text text-anchor="middle" x="154.94" y="-62" font-family="Helvetica,sans-Serif" font-size="10.00">cstddef</text>
</a>
</g>
</g>
<!-- Node6&#45;&gt;Node7 -->
<g id="edge6_Node000006_Node000007" class="edge">
<title>Node6&#45;&gt;Node7</title>
<g id="a_edge6_Node000006_Node000007"><a xlink:title=" ">
<path fill="none" stroke="#63b8ff" d="M151.15,-109.84C151.8,-102.21 152.61,-92.7 153.32,-84.45"/>
<polygon fill="#63b8ff" stroke="#63b8ff" points="156.82,-84.53 154.19,-74.27 149.85,-83.93 156.82,-84.53"/>
</a>
</g>
</g>
<!-- Node8 -->
<g id="Node000008" class="node">
<title>Node8</title>
<g id="a_Node000008"><a xlink:title=" ">
<polygon fill="#e0e0e0" stroke="#999999" points="253.94,-74 199.94,-74 199.94,-55 253.94,-55 253.94,-74"/>
<text text-anchor="middle" x="226.94" y="-62" font-family="Helvetica,sans-Serif" font-size="10.00">istream</text>
</a>
</g>
</g>
<!-- Node6&#45;&gt;Node8 -->
<g id="edge7_Node000006_Node000008" class="edge">
<title>Node6&#45;&gt;Node8</title>
<g id="a_edge7_Node000006_Node000008"><a xlink:title=" ">
<path fill="none" stroke="#63b8ff" d="M168.58,-109.84C180.33,-100.91 195.47,-89.41 207.39,-80.35"/>
<polygon fill="#63b8ff" stroke="#63b8ff" points="209.55,-83.1 215.4,-74.27 205.32,-77.53 209.55,-83.1"/>
</a>
</g>
</g>
<!-- Node9 -->
<g id="Node000009" class="node">
<title>Node9</title>
<g id="a_Node000009"><a xlink:title=" ">
<polygon fill="#e0e0e0" stroke="#999999" points="329.44,-74 272.44,-74 272.44,-55 329.44,-55 329.44,-74"/>
<text text-anchor="middle" x="300.94" y="-62" font-family="Helvetica,sans-Serif" font-size="10.00">ostream</text>
</a>
</g>
</g>
<!-- Node6&#45;&gt;Node9 -->
<g id="edge8_Node000006_Node000009" class="edge">
<title>Node6&#45;&gt;Node9</title>
<g id="a_edge8_Node000006_Node000009"><a xlink:title=" ">
<path fill="none" stroke="#63b8ff" d="M186.11,-109.99C211.41,-100.18 244.9,-87.21 269.17,-77.81"/>
<polygon fill="#63b8ff" stroke="#63b8ff" points="270.58,-81.02 278.64,-74.14 268.05,-74.49 270.58,-81.02"/>
</a>
</g>
</g>
<!-- Node10 -->
<g id="Node000010" class="node">
<title>Node10</title>
<g id="a_Node000010"><a xlink:title=" ">
<polygon fill="#e0e0e0" stroke="#999999" points="110.44,-74 17.44,-74 17.44,-55 110.44,-55 110.44,-74"/>
<text text-anchor="middle" x="63.94" y="-62" font-family="Helvetica,sans-Serif" font-size="10.00">unordered_map</text>
</a>
</g>
</g>
<!-- Node6&#45;&gt;Node10 -->
<g id="edge10_Node000006_Node000010" class="edge">
<title>Node6&#45;&gt;Node10</title>
<g id="a_edge10_Node000006_Node000010"><a xlink:title=" ">
<path fill="none" stroke="#63b8ff" d="M129.12,-109.84C115.79,-100.77 98.55,-89.04 85.14,-79.92"/>
<polygon fill="#63b8ff" stroke="#63b8ff" points="86.81,-76.83 76.57,-74.09 82.87,-82.61 86.81,-76.83"/>
</a>
</g>
</g>
<!-- Node11&#45;&gt;Node3 -->
<g id="edge12_Node000011_Node000003" class="edge">
<title>Node11&#45;&gt;Node3</title>
<g id="a_edge12_Node000011_Node000003"><a xlink:title=" ">
<path fill="none" stroke="#63b8ff" d="M488.6,-109.99C466.28,-100.31 436.84,-87.56 415.21,-78.18"/>
<polygon fill="#63b8ff" stroke="#63b8ff" points="416.44,-74.9 405.87,-74.14 413.66,-81.33 416.44,-74.9"/>
</a>
</g>
</g>
<!-- Node11&#45;&gt;Node5 -->
<g id="edge13_Node000011_Node000005" class="edge">
<title>Node11&#45;&gt;Node5</title>
<g id="a_edge13_Node000011_Node000005"><a xlink:title=" ">
<path fill="none" stroke="#63b8ff" d="M565.13,-109.85C581.92,-102.08 599.3,-90.55 608.94,-74 618.49,-57.59 604.44,-38.8 590.99,-25.95"/>
<polygon fill="#63b8ff" stroke="#63b8ff" points="593.13,-23.16 583.33,-19.13 588.47,-28.39 593.13,-23.16"/>
</a>
</g>
</g>
<!-- Node12 -->
<g id="Node000012" class="node">
<title>Node12</title>
<g id="a_Node000012"><a xlink:href="transport_8hpp.html" target="_top" xlink:title=" ">
<polygon fill="white" stroke="#666666" points="600.44,-74 433.44,-74 433.44,-55 600.44,-55 600.44,-74"/>
<text text-anchor="middle" x="516.94" y="-62" font-family="Helvetica,sans-Serif" font-size="10.00">jsonrpc/transport/transport.hpp</text>
</a>
</g>
</g>
<!-- Node11&#45;&gt;Node12 -->
<g id="edge14_Node000011_Node000012" class="edge">
<title>Node11&#45;&gt;Node12</title>
<g id="a_edge14_Node000011_Node000012"><a xlink:title=" ">
<path fill="none" stroke="#63b8ff" d="M519.97,-109.84C519.45,-102.21 518.8,-92.7 518.23,-84.45"/>
<polygon fill="#63b8ff" stroke="#63b8ff" points="521.71,-84 517.54,-74.27 514.73,-84.48 521.71,-84"/>
</a>
</g>
</g>
<!-- Node12&#45;&gt;Node5 -->
<g id="edge15_Node000012_Node000005" class="edge">
<title>Node12&#45;&gt;Node5</title>
<g id="a_edge15_Node000012_Node000005"><a xlink:title=" ">
<path fill="none" stroke="#63b8ff" d="M526.02,-54.75C534.03,-47.03 545.9,-35.6 555.56,-26.28"/>
<polygon fill="#63b8ff" stroke="#63b8ff" points="558.25,-28.55 563.03,-19.09 553.4,-23.51 558.25,-28.55"/>
</a>
</g>
</g>
</g>
</svg>
