<?xml version="1.0" encoding="UTF-8" standalone="no"?>
<!DOCTYPE svg PUBLIC "-//W3C//DTD SVG 1.1//EN"
 "http://www.w3.org/Graphics/SVG/1.1/DTD/svg11.dtd">
<!-- Generated by graphviz version 2.43.0 (0)
 -->
<!-- Title: src/transport/framed_transport.cpp Pages: 1 -->
<svg width="610pt" height="159pt"
 viewBox="0.00 0.00 610.00 159.00" xmlns="http://www.w3.org/2000/svg" xmlns:xlink="http://www.w3.org/1999/xlink">
<g id="graph0" class="graph" transform="scale(1 1) rotate(0) translate(4 155)">
<title>src/transport/framed_transport.cpp</title>
<!-- Node1 -->
<g id="Node000001" class="node">
<title>Node1</title>
<g id="a_Node000001"><a xlink:title=" ">
<polygon fill="#999999" stroke="#666666" points="366.5,-151 250.5,-151 250.5,-121 366.5,-121 366.5,-151"/>
<text text-anchor="start" x="258.5" y="-139" font-family="Helvetica,sans-Serif" font-size="10.00">src/transport/framed</text>
<text text-anchor="middle" x="308.5" y="-128" font-family="Helvetica,sans-Serif" font-size="10.00">_transport.cpp</text>
</a>
</g>
</g>
<!-- Node2 -->
<g id="Node000002" class="node">
<title>Node2</title>
<g id="a_Node000002"><a xlink:href="framed__transport_8hpp.html" target="_top" xlink:title=" ">
<polygon fill="white" stroke="#666666" points="247,-85 110,-85 110,-55 247,-55 247,-85"/>
<text text-anchor="start" x="118" y="-73" font-family="Helvetica,sans-Serif" font-size="10.00">jsonrpc/transport/framed</text>
<text text-anchor="middle" x="178.5" y="-62" font-family="Helvetica,sans-Serif" font-size="10.00">_transport.hpp</text>
</a>
</g>
</g>
<!-- Node1&#45;&gt;Node2 -->
<g id="edge1_Node000001_Node000002" class="edge">
<title>Node1&#45;&gt;Node2</title>
<g id="a_edge1_Node000001_Node000002"><a xlink:title=" ">
<path fill="none" stroke="#63b8ff" d="M279.97,-120.95C261.17,-111.7 236.36,-99.49 215.98,-89.45"/>
<polygon fill="#63b8ff" stroke="#63b8ff" points="217.48,-86.29 206.96,-85.01 214.39,-92.57 217.48,-86.29"/>
</a>
</g>
</g>
<!-- Node8 -->
<g id="Node000008" class="node">
<title>Node8</title>
<g id="a_Node000008"><a xlink:title=" ">
<polygon fill="#e0e0e0" stroke="#999999" points="341,-79.5 276,-79.5 276,-60.5 341,-60.5 341,-79.5"/>
<text text-anchor="middle" x="308.5" y="-67.5" font-family="Helvetica,sans-Serif" font-size="10.00">stdexcept</text>
</a>
</g>
</g>
<!-- Node1&#45;&gt;Node8 -->
<g id="edge7_Node000001_Node000008" class="edge">
<title>Node1&#45;&gt;Node8</title>
<g id="a_edge7_Node000001_Node000008"><a xlink:title=" ">
<path fill="none" stroke="#63b8ff" d="M308.5,-120.8C308.5,-111.7 308.5,-99.79 308.5,-89.9"/>
<polygon fill="#63b8ff" stroke="#63b8ff" points="312,-89.84 308.5,-79.84 305,-89.84 312,-89.84"/>
</a>
</g>
</g>
<!-- Node9 -->
<g id="Node000009" class="node">
<title>Node9</title>
<g id="a_Node000009"><a xlink:href="string__utils_8hpp.html" target="_top" xlink:title=" ">
<polygon fill="white" stroke="#666666" points="471,-85 364,-85 364,-55 471,-55 471,-85"/>
<text text-anchor="start" x="372" y="-73" font-family="Helvetica,sans-Serif" font-size="10.00">jsonrpc/utils/string</text>
<text text-anchor="middle" x="417.5" y="-62" font-family="Helvetica,sans-Serif" font-size="10.00">_utils.hpp</text>
</a>
</g>
</g>
<!-- Node1&#45;&gt;Node9 -->
<g id="edge8_Node000001_Node000009" class="edge">
<title>Node1&#45;&gt;Node9</title>
<g id="a_edge8_Node000001_Node000009"><a xlink:title=" ">
<path fill="none" stroke="#63b8ff" d="M332.42,-120.95C347.75,-111.95 367.86,-100.14 384.68,-90.27"/>
<polygon fill="#63b8ff" stroke="#63b8ff" points="386.78,-93.09 393.64,-85.01 383.24,-87.06 386.78,-93.09"/>
</a>
</g>
</g>
<!-- Node3 -->
<g id="Node000003" class="node">
<title>Node3</title>
<g id="a_Node000003"><a xlink:title=" ">
<polygon fill="#e0e0e0" stroke="#999999" points="53,-19 0,-19 0,0 53,0 53,-19"/>
<text text-anchor="middle" x="26.5" y="-7" font-family="Helvetica,sans-Serif" font-size="10.00">cstddef</text>
</a>
</g>
</g>
<!-- Node2&#45;&gt;Node3 -->
<g id="edge2_Node000002_Node000003" class="edge">
<title>Node2&#45;&gt;Node3</title>
<g id="a_edge2_Node000002_Node000003"><a xlink:title=" ">
<path fill="none" stroke="#63b8ff" d="M142.09,-54.99C116.62,-45.18 82.91,-32.21 58.47,-22.81"/>
<polygon fill="#63b8ff" stroke="#63b8ff" points="59.54,-19.46 48.95,-19.14 57.02,-26 59.54,-19.46"/>
</a>
</g>
</g>
<!-- Node4 -->
<g id="Node000004" class="node">
<title>Node4</title>
<g id="a_Node000004"><a xlink:title=" ">
<polygon fill="#e0e0e0" stroke="#999999" points="125.5,-19 71.5,-19 71.5,0 125.5,0 125.5,-19"/>
<text text-anchor="middle" x="98.5" y="-7" font-family="Helvetica,sans-Serif" font-size="10.00">istream</text>
</a>
</g>
</g>
<!-- Node2&#45;&gt;Node4 -->
<g id="edge3_Node000002_Node000004" class="edge">
<title>Node2&#45;&gt;Node4</title>
<g id="a_edge3_Node000002_Node000004"><a xlink:title=" ">
<path fill="none" stroke="#63b8ff" d="M159.13,-54.84C146.93,-45.91 131.19,-34.41 118.81,-25.35"/>
<polygon fill="#63b8ff" stroke="#63b8ff" points="120.63,-22.34 110.49,-19.27 116.49,-27.99 120.63,-22.34"/>
</a>
</g>
</g>
<!-- Node5 -->
<g id="Node000005" class="node">
<title>Node5</title>
<g id="a_Node000005"><a xlink:title=" ">
<polygon fill="#e0e0e0" stroke="#999999" points="201,-19 144,-19 144,0 201,0 201,-19"/>
<text text-anchor="middle" x="172.5" y="-7" font-family="Helvetica,sans-Serif" font-size="10.00">ostream</text>
</a>
</g>
</g>
<!-- Node2&#45;&gt;Node5 -->
<g id="edge4_Node000002_Node000005" class="edge">
<title>Node2&#45;&gt;Node5</title>
<g id="a_edge4_Node000002_Node000005"><a xlink:title=" ">
<path fill="none" stroke="#63b8ff" d="M177.05,-54.84C176.27,-47.21 175.29,-37.7 174.44,-29.45"/>
<polygon fill="#63b8ff" stroke="#63b8ff" points="177.9,-28.86 173.4,-19.27 170.94,-29.57 177.9,-28.86"/>
</a>
</g>
</g>
<!-- Node6 -->
<g id="Node000006" class="node">
<title>Node6</title>
<g id="a_Node000006"><a xlink:title=" ">
<polygon fill="#e0e0e0" stroke="#999999" points="374.5,-19 330.5,-19 330.5,0 374.5,0 374.5,-19"/>
<text text-anchor="middle" x="352.5" y="-7" font-family="Helvetica,sans-Serif" font-size="10.00">string</text>
</a>
</g>
</g>
<!-- Node2&#45;&gt;Node6 -->
<g id="edge5_Node000002_Node000006" class="edge">
<title>Node2&#45;&gt;Node6</title>
<g id="a_edge5_Node000002_Node000006"><a xlink:title=" ">
<path fill="none" stroke="#63b8ff" d="M220.18,-54.99C250.98,-44.63 292.3,-30.74 320.52,-21.25"/>
<polygon fill="#63b8ff" stroke="#63b8ff" points="321.92,-24.47 330.28,-17.97 319.69,-17.84 321.92,-24.47"/>
</a>
</g>
</g>
<!-- Node7 -->
<g id="Node000007" class="node">
<title>Node7</title>
<g id="a_Node000007"><a xlink:title=" ">
<polygon fill="#e0e0e0" stroke="#999999" points="312,-19 219,-19 219,0 312,0 312,-19"/>
<text text-anchor="middle" x="265.5" y="-7" font-family="Helvetica,sans-Serif" font-size="10.00">unordered_map</text>
</a>
</g>
</g>
<!-- Node2&#45;&gt;Node7 -->
<g id="edge6_Node000002_Node000007" class="edge">
<title>Node2&#45;&gt;Node7</title>
<g id="a_edge6_Node000002_Node000007"><a xlink:title=" ">
<path fill="none" stroke="#63b8ff" d="M199.56,-54.84C213.04,-45.77 230.49,-34.04 244.05,-24.92"/>
<polygon fill="#63b8ff" stroke="#63b8ff" points="246.37,-27.58 252.72,-19.09 242.47,-21.77 246.37,-27.58"/>
</a>
</g>
</g>
<!-- Node9&#45;&gt;Node6 -->
<g id="edge11_Node000009_Node000006" class="edge">
<title>Node9&#45;&gt;Node6</title>
<g id="a_edge11_Node000009_Node000006"><a xlink:title=" ">
<path fill="none" stroke="#63b8ff" d="M401.77,-54.84C392.14,-46.17 379.81,-35.08 369.89,-26.15"/>
<polygon fill="#63b8ff" stroke="#63b8ff" points="372.01,-23.35 362.24,-19.27 367.33,-28.56 372.01,-23.35"/>
</a>
</g>
</g>
<!-- Node10 -->
<g id="Node000010" class="node">
<title>Node10</title>
<g id="a_Node000010"><a xlink:title=" ">
<polygon fill="#e0e0e0" stroke="#999999" points="442,-19 393,-19 393,0 442,0 442,-19"/>
<text text-anchor="middle" x="417.5" y="-7" font-family="Helvetica,sans-Serif" font-size="10.00">cctype</text>
</a>
</g>
</g>
<!-- Node9&#45;&gt;Node10 -->
<g id="edge9_Node000009_Node000010" class="edge">
<title>Node9&#45;&gt;Node10</title>
<g id="a_edge9_Node000009_Node000010"><a xlink:title=" ">
<path fill="none" stroke="#63b8ff" d="M417.5,-54.84C417.5,-47.21 417.5,-37.7 417.5,-29.45"/>
<polygon fill="#63b8ff" stroke="#63b8ff" points="421,-29.27 417.5,-19.27 414,-29.27 421,-29.27"/>
</a>
</g>
</g>
<!-- Node11 -->
<g id="Node000011" class="node">
<title>Node11</title>
<g id="a_Node000011"><a xlink:title=" ">
<polygon fill="#e0e0e0" stroke="#999999" points="510.5,-19 460.5,-19 460.5,0 510.5,0 510.5,-19"/>
<text text-anchor="middle" x="485.5" y="-7" font-family="Helvetica,sans-Serif" font-size="10.00">ranges</text>
</a>
</g>
</g>
<!-- Node9&#45;&gt;Node11 -->
<g id="edge10_Node000009_Node000011" class="edge">
<title>Node9&#45;&gt;Node11</title>
<g id="a_edge10_Node000009_Node000011"><a xlink:title=" ">
<path fill="none" stroke="#63b8ff" d="M433.96,-54.84C444.13,-46.09 457.19,-34.85 467.62,-25.88"/>
<polygon fill="#63b8ff" stroke="#63b8ff" points="470.01,-28.44 475.31,-19.27 465.45,-23.13 470.01,-28.44"/>
</a>
</g>
</g>
<!-- Node12 -->
<g id="Node000012" class="node">
<title>Node12</title>
<g id="a_Node000012"><a xlink:title=" ">
<polygon fill="#e0e0e0" stroke="#999999" points="602,-19 529,-19 529,0 602,0 602,-19"/>
<text text-anchor="middle" x="565.5" y="-7" font-family="Helvetica,sans-Serif" font-size="10.00">string_view</text>
</a>
</g>
</g>
<!-- Node9&#45;&gt;Node12 -->
<g id="edge12_Node000009_Node000012" class="edge">
<title>Node9&#45;&gt;Node12</title>
<g id="a_edge12_Node000009_Node000012"><a xlink:title=" ">
<path fill="none" stroke="#63b8ff" d="M452.95,-54.99C477.64,-45.23 510.28,-32.33 534.05,-22.93"/>
<polygon fill="#63b8ff" stroke="#63b8ff" points="535.63,-26.07 543.64,-19.14 533.06,-19.56 535.63,-26.07"/>
</a>
</g>
</g>
</g>
</svg>
