<?xml version="1.0" encoding="UTF-8" standalone="no"?>
<!DOCTYPE svg PUBLIC "-//W3C//DTD SVG 1.1//EN"
 "http://www.w3.org/Graphics/SVG/1.1/DTD/svg11.dtd">
<!-- Generated by graphviz version 2.43.0 (0)
 -->
<!-- Title: src/transports/framed_stdio_server_transport.cpp Pages: 1 -->
<svg width="1213pt" height="401pt"
 viewBox="0.00 0.00 1213.24 401.00" xmlns="http://www.w3.org/2000/svg" xmlns:xlink="http://www.w3.org/1999/xlink">
<g id="graph0" class="graph" transform="scale(1 1) rotate(0) translate(4 397)">
<title>src/transports/framed_stdio_server_transport.cpp</title>
<!-- Node1 -->
<g id="Node000001" class="node">
<title>Node1</title>
<g id="a_Node000001"><a xlink:title=" ">
<polygon fill="#999999" stroke="#666666" points="1036.74,-393 884.74,-393 884.74,-363 1036.74,-363 1036.74,-393"/>
<text text-anchor="start" x="892.74" y="-381" font-family="Helvetica,sans-Serif" font-size="10.00">src/transports/framed</text>
<text text-anchor="middle" x="960.74" y="-370" font-family="Helvetica,sans-Serif" font-size="10.00">_stdio_server_transport.cpp</text>
</a>
</g>
</g>
<!-- Node2 -->
<g id="Node000002" class="node">
<title>Node2</title>
<g id="a_Node000002"><a xlink:href="framed__stdio__server__transport_8hpp.html" target="_top" xlink:title=" ">
<polygon fill="white" stroke="#666666" points="771.74,-327 651.74,-327 651.74,-286 771.74,-286 771.74,-327"/>
<text text-anchor="start" x="659.74" y="-315" font-family="Helvetica,sans-Serif" font-size="10.00">jsonrpc/transports</text>
<text text-anchor="start" x="659.74" y="-304" font-family="Helvetica,sans-Serif" font-size="10.00">/framed_stdio_server</text>
<text text-anchor="middle" x="711.74" y="-293" font-family="Helvetica,sans-Serif" font-size="10.00">_transport.hpp</text>
</a>
</g>
</g>
<!-- Node1&#45;&gt;Node2 -->
<g id="edge1_Node000001_Node000002" class="edge">
<title>Node1&#45;&gt;Node2</title>
<g id="a_edge1_Node000001_Node000002"><a xlink:title=" ">
<path fill="none" stroke="#63b8ff" d="M910.35,-362.94C873.38,-352.62 822.71,-338.47 781.8,-327.05"/>
<polygon fill="#63b8ff" stroke="#63b8ff" points="782.73,-323.68 772.16,-324.36 780.85,-330.42 782.73,-323.68"/>
</a>
</g>
</g>
<!-- Node8 -->
<g id="Node000008" class="node">
<title>Node8</title>
<g id="a_Node000008"><a xlink:title=" ">
<polygon fill="#e0e0e0" stroke="#999999" points="457.74,-19 401.74,-19 401.74,0 457.74,0 457.74,-19"/>
<text text-anchor="middle" x="429.74" y="-7" font-family="Helvetica,sans-Serif" font-size="10.00">optional</text>
</a>
</g>
</g>
<!-- Node1&#45;&gt;Node8 -->
<g id="edge31_Node000001_Node000008" class="edge">
<title>Node1&#45;&gt;Node8</title>
<g id="a_edge31_Node000001_Node000008"><a xlink:title=" ">
<path fill="none" stroke="#63b8ff" d="M955.82,-362.79C947.55,-337.58 931.74,-283.23 931.74,-236 931.74,-236 931.74,-236 931.74,-118.5 931.74,-23.73 585.48,-11.88 468.11,-10.59"/>
<polygon fill="#63b8ff" stroke="#63b8ff" points="467.84,-7.09 457.81,-10.5 467.77,-14.09 467.84,-7.09"/>
</a>
</g>
</g>
<!-- Node9 -->
<g id="Node000009" class="node">
<title>Node9</title>
<g id="a_Node000009"><a xlink:title=" ">
<polygon fill="#e0e0e0" stroke="#999999" points="797.24,-74 704.24,-74 704.24,-55 797.24,-55 797.24,-74"/>
<text text-anchor="middle" x="750.74" y="-62" font-family="Helvetica,sans-Serif" font-size="10.00">unordered_map</text>
</a>
</g>
</g>
<!-- Node1&#45;&gt;Node9 -->
<g id="edge33_Node000001_Node000009" class="edge">
<title>Node1&#45;&gt;Node9</title>
<g id="a_edge33_Node000001_Node000009"><a xlink:title=" ">
<path fill="none" stroke="#63b8ff" d="M945.2,-362.59C935.99,-353.25 924.77,-340.38 917.74,-327 898.27,-289.98 893.74,-277.83 893.74,-236 893.74,-236 893.74,-236 893.74,-173.5 893.74,-122.12 834.24,-92.09 792,-77.24"/>
<polygon fill="#63b8ff" stroke="#63b8ff" points="793.07,-73.91 782.48,-74.05 790.84,-80.55 793.07,-73.91"/>
</a>
</g>
</g>
<!-- Node19 -->
<g id="Node000019" class="node">
<title>Node19</title>
<g id="a_Node000019"><a xlink:title=" ">
<polygon fill="#e0e0e0" stroke="#999999" points="1019.74,-316 959.74,-316 959.74,-297 1019.74,-297 1019.74,-316"/>
<text text-anchor="middle" x="989.74" y="-304" font-family="Helvetica,sans-Serif" font-size="10.00">iostream</text>
</a>
</g>
</g>
<!-- Node1&#45;&gt;Node19 -->
<g id="edge30_Node000001_Node000019" class="edge">
<title>Node1&#45;&gt;Node19</title>
<g id="a_edge30_Node000001_Node000019"><a xlink:title=" ">
<path fill="none" stroke="#63b8ff" d="M966.61,-362.94C971.07,-352.25 977.24,-337.45 982.09,-325.83"/>
<polygon fill="#63b8ff" stroke="#63b8ff" points="985.46,-326.84 986.08,-316.27 979,-324.15 985.46,-326.84"/>
</a>
</g>
</g>
<!-- Node20 -->
<g id="Node000020" class="node">
<title>Node20</title>
<g id="a_Node000020"><a xlink:title=" ">
<polygon fill="#e0e0e0" stroke="#999999" points="1093.74,-316 1037.74,-316 1037.74,-297 1093.74,-297 1093.74,-316"/>
<text text-anchor="middle" x="1065.74" y="-304" font-family="Helvetica,sans-Serif" font-size="10.00">sstream</text>
</a>
</g>
</g>
<!-- Node1&#45;&gt;Node20 -->
<g id="edge32_Node000001_Node000020" class="edge">
<title>Node1&#45;&gt;Node20</title>
<g id="a_edge32_Node000001_Node000020"><a xlink:title=" ">
<path fill="none" stroke="#63b8ff" d="M981.99,-362.94C1000.05,-350.98 1025.88,-333.88 1044.06,-321.85"/>
<polygon fill="#63b8ff" stroke="#63b8ff" points="1046.39,-324.51 1052.8,-316.07 1042.53,-318.67 1046.39,-324.51"/>
</a>
</g>
</g>
<!-- Node21 -->
<g id="Node000021" class="node">
<title>Node21</title>
<g id="a_Node000021"><a xlink:title=" ">
<polygon fill="#e0e0e0" stroke="#999999" points="1205.24,-316 1112.24,-316 1112.24,-297 1205.24,-297 1205.24,-316"/>
<text text-anchor="middle" x="1158.74" y="-304" font-family="Helvetica,sans-Serif" font-size="10.00">spdlog/spdlog.h</text>
</a>
</g>
</g>
<!-- Node1&#45;&gt;Node21 -->
<g id="edge34_Node000001_Node000021" class="edge">
<title>Node1&#45;&gt;Node21</title>
<g id="a_edge34_Node000001_Node000021"><a xlink:title=" ">
<path fill="none" stroke="#63b8ff" d="M1000.81,-362.94C1037.22,-350.16 1090.34,-331.51 1124.73,-319.44"/>
<polygon fill="#63b8ff" stroke="#63b8ff" points="1126.06,-322.68 1134.33,-316.07 1123.74,-316.08 1126.06,-322.68"/>
</a>
</g>
</g>
<!-- Node3 -->
<g id="Node000003" class="node">
<title>Node3</title>
<g id="a_Node000003"><a xlink:title=" ">
<polygon fill="#e0e0e0" stroke="#999999" points="685.74,-74 641.74,-74 641.74,-55 685.74,-55 685.74,-74"/>
<text text-anchor="middle" x="663.74" y="-62" font-family="Helvetica,sans-Serif" font-size="10.00">string</text>
</a>
</g>
</g>
<!-- Node2&#45;&gt;Node3 -->
<g id="edge2_Node000002_Node000003" class="edge">
<title>Node2&#45;&gt;Node3</title>
<g id="a_edge2_Node000002_Node000003"><a xlink:title=" ">
<path fill="none" stroke="#63b8ff" d="M711.71,-285.84C711.15,-250.02 707.51,-172.07 687.74,-110 684.75,-100.61 679.76,-90.89 675.11,-82.94"/>
<polygon fill="#63b8ff" stroke="#63b8ff" points="677.98,-80.93 669.75,-74.26 672.02,-84.61 677.98,-80.93"/>
</a>
</g>
</g>
<!-- Node4 -->
<g id="Node000004" class="node">
<title>Node4</title>
<g id="a_Node000004"><a xlink:href="server__transport_8hpp.html" target="_top" xlink:title=" ">
<polygon fill="white" stroke="#666666" points="218.74,-250 108.74,-250 108.74,-220 218.74,-220 218.74,-250"/>
<text text-anchor="start" x="116.74" y="-238" font-family="Helvetica,sans-Serif" font-size="10.00">jsonrpc/core/server</text>
<text text-anchor="middle" x="163.74" y="-227" font-family="Helvetica,sans-Serif" font-size="10.00">_transport.hpp</text>
</a>
</g>
</g>
<!-- Node2&#45;&gt;Node4 -->
<g id="edge3_Node000002_Node000004" class="edge">
<title>Node2&#45;&gt;Node4</title>
<g id="a_edge3_Node000002_Node000004"><a xlink:title=" ">
<path fill="none" stroke="#63b8ff" d="M651.53,-297.86C547.83,-284.71 336.37,-257.89 229.17,-244.3"/>
<polygon fill="#63b8ff" stroke="#63b8ff" points="229.49,-240.81 219.13,-243.02 228.61,-247.76 229.49,-240.81"/>
</a>
</g>
</g>
<!-- Node13 -->
<g id="Node000013" class="node">
<title>Node13</title>
<g id="a_Node000013"><a xlink:href="types_8hpp.html" target="_top" xlink:title=" ">
<polygon fill="white" stroke="#666666" points="304.24,-74 177.24,-74 177.24,-55 304.24,-55 304.24,-74"/>
<text text-anchor="middle" x="240.74" y="-62" font-family="Helvetica,sans-Serif" font-size="10.00">jsonrpc/core/types.hpp</text>
</a>
</g>
</g>
<!-- Node2&#45;&gt;Node13 -->
<g id="edge27_Node000002_Node000013" class="edge">
<title>Node2&#45;&gt;Node13</title>
<g id="a_edge27_Node000002_Node000013"><a xlink:title=" ">
<path fill="none" stroke="#63b8ff" d="M651.57,-304.02C517.85,-300.08 199.94,-287.01 99.74,-250 52.2,-232.44 30,-229.03 6.74,-184 -28.73,-115.33 85.71,-85.62 166.86,-73.4"/>
<polygon fill="#63b8ff" stroke="#63b8ff" points="167.68,-76.82 177.07,-71.93 166.68,-69.89 167.68,-76.82"/>
</a>
</g>
</g>
<!-- Node18 -->
<g id="Node000018" class="node">
<title>Node18</title>
<g id="a_Node000018"><a xlink:href="framed__transport_8hpp.html" target="_top" xlink:title=" ">
<polygon fill="white" stroke="#666666" points="865.24,-250 740.24,-250 740.24,-220 865.24,-220 865.24,-250"/>
<text text-anchor="start" x="748.24" y="-238" font-family="Helvetica,sans-Serif" font-size="10.00">jsonrpc/transports</text>
<text text-anchor="middle" x="802.74" y="-227" font-family="Helvetica,sans-Serif" font-size="10.00">/framed_transport.hpp</text>
</a>
</g>
</g>
<!-- Node2&#45;&gt;Node18 -->
<g id="edge28_Node000002_Node000018" class="edge">
<title>Node2&#45;&gt;Node18</title>
<g id="a_edge28_Node000002_Node000018"><a xlink:title=" ">
<path fill="none" stroke="#63b8ff" d="M737.57,-285.77C749.7,-276.51 764.13,-265.49 776.33,-256.17"/>
<polygon fill="#63b8ff" stroke="#63b8ff" points="778.54,-258.89 784.36,-250.04 774.29,-253.33 778.54,-258.89"/>
</a>
</g>
</g>
<!-- Node5 -->
<g id="Node000005" class="node">
<title>Node5</title>
<g id="a_Node000005"><a xlink:title=" ">
<polygon fill="#e0e0e0" stroke="#999999" points="65.74,-184 15.74,-184 15.74,-165 65.74,-165 65.74,-184"/>
<text text-anchor="middle" x="40.74" y="-172" font-family="Helvetica,sans-Serif" font-size="10.00">atomic</text>
</a>
</g>
</g>
<!-- Node4&#45;&gt;Node5 -->
<g id="edge4_Node000004_Node000005" class="edge">
<title>Node4&#45;&gt;Node5</title>
<g id="a_edge4_Node000004_Node000005"><a xlink:title=" ">
<path fill="none" stroke="#63b8ff" d="M134.28,-219.99C114.12,-210.4 87.6,-197.79 67.94,-188.44"/>
<polygon fill="#63b8ff" stroke="#63b8ff" points="69.44,-185.27 58.9,-184.14 66.43,-191.6 69.44,-185.27"/>
</a>
</g>
</g>
<!-- Node6 -->
<g id="Node000006" class="node">
<title>Node6</title>
<g id="a_Node000006"><a xlink:title=" ">
<polygon fill="#e0e0e0" stroke="#999999" points="192.74,-184 134.74,-184 134.74,-165 192.74,-165 192.74,-184"/>
<text text-anchor="middle" x="163.74" y="-172" font-family="Helvetica,sans-Serif" font-size="10.00">memory</text>
</a>
</g>
</g>
<!-- Node4&#45;&gt;Node6 -->
<g id="edge5_Node000004_Node000006" class="edge">
<title>Node4&#45;&gt;Node6</title>
<g id="a_edge5_Node000004_Node000006"><a xlink:title=" ">
<path fill="none" stroke="#63b8ff" d="M163.74,-219.84C163.74,-212.21 163.74,-202.7 163.74,-194.45"/>
<polygon fill="#63b8ff" stroke="#63b8ff" points="167.24,-194.27 163.74,-184.27 160.24,-194.27 167.24,-194.27"/>
</a>
</g>
</g>
<!-- Node7 -->
<g id="Node000007" class="node">
<title>Node7</title>
<g id="a_Node000007"><a xlink:href="dispatcher_8hpp.html" target="_top" xlink:title=" ">
<polygon fill="white" stroke="#666666" points="407.74,-184 257.74,-184 257.74,-165 407.74,-165 407.74,-184"/>
<text text-anchor="middle" x="332.74" y="-172" font-family="Helvetica,sans-Serif" font-size="10.00">jsonrpc/core/dispatcher.hpp</text>
</a>
</g>
</g>
<!-- Node4&#45;&gt;Node7 -->
<g id="edge6_Node000004_Node000007" class="edge">
<title>Node4&#45;&gt;Node7</title>
<g id="a_edge6_Node000004_Node000007"><a xlink:title=" ">
<path fill="none" stroke="#63b8ff" d="M204.22,-219.99C232.92,-210.05 271.02,-196.86 298.27,-187.43"/>
<polygon fill="#63b8ff" stroke="#63b8ff" points="299.48,-190.72 307.78,-184.14 297.19,-184.1 299.48,-190.72"/>
</a>
</g>
</g>
<!-- Node4&#45;&gt;Node13 -->
<g id="edge26_Node000004_Node000013" class="edge">
<title>Node4&#45;&gt;Node13</title>
<g id="a_edge26_Node000004_Node000013"><a xlink:title=" ">
<path fill="none" stroke="#63b8ff" d="M141.55,-219.92C107.52,-196.57 49.31,-148.61 78.74,-110 90.43,-94.67 133.24,-83.31 171.92,-75.9"/>
<polygon fill="#63b8ff" stroke="#63b8ff" points="172.96,-79.27 182.16,-74.01 171.69,-72.38 172.96,-79.27"/>
</a>
</g>
</g>
<!-- Node7&#45;&gt;Node3 -->
<g id="edge8_Node000007_Node000003" class="edge">
<title>Node7&#45;&gt;Node3</title>
<g id="a_edge8_Node000007_Node000003"><a xlink:title=" ">
<path fill="none" stroke="#63b8ff" d="M407.9,-168.76C501.92,-162.04 652.74,-148.39 669.74,-129 680.44,-116.79 676.92,-97.74 671.95,-83.68"/>
<polygon fill="#63b8ff" stroke="#63b8ff" points="675.07,-82.07 668.08,-74.11 668.58,-84.69 675.07,-82.07"/>
</a>
</g>
</g>
<!-- Node7&#45;&gt;Node8 -->
<g id="edge7_Node000007_Node000008" class="edge">
<title>Node7&#45;&gt;Node8</title>
<g id="a_edge7_Node000007_Node000008"><a xlink:title=" ">
<path fill="none" stroke="#63b8ff" d="M334.25,-164.9C336.69,-152.31 342.22,-128.39 351.74,-110 368.62,-77.4 396.74,-44.93 414.2,-26.33"/>
<polygon fill="#63b8ff" stroke="#63b8ff" points="416.8,-28.68 421.19,-19.03 411.74,-23.84 416.8,-28.68"/>
</a>
</g>
</g>
<!-- Node7&#45;&gt;Node9 -->
<g id="edge9_Node000007_Node000009" class="edge">
<title>Node7&#45;&gt;Node9</title>
<g id="a_edge9_Node000007_Node000009"><a xlink:title=" ">
<path fill="none" stroke="#63b8ff" d="M408.01,-169.81C497.28,-164.45 640.01,-152.47 687.74,-129 709.21,-118.44 727.65,-97.6 738.93,-82.67"/>
<polygon fill="#63b8ff" stroke="#63b8ff" points="741.97,-84.44 745,-74.29 736.3,-80.34 741.97,-84.44"/>
</a>
</g>
</g>
<!-- Node10 -->
<g id="Node000010" class="node">
<title>Node10</title>
<g id="a_Node000010"><a xlink:title=" ">
<polygon fill="#e0e0e0" stroke="#999999" points="135.24,-129 88.24,-129 88.24,-110 135.24,-110 135.24,-129"/>
<text text-anchor="middle" x="111.74" y="-117" font-family="Helvetica,sans-Serif" font-size="10.00">vector</text>
</a>
</g>
</g>
<!-- Node7&#45;&gt;Node10 -->
<g id="edge10_Node000007_Node000010" class="edge">
<title>Node7&#45;&gt;Node10</title>
<g id="a_edge10_Node000007_Node000010"><a xlink:title=" ">
<path fill="none" stroke="#63b8ff" d="M295.01,-164.95C258.9,-156.69 202.64,-143.63 145.42,-129.37"/>
<polygon fill="#63b8ff" stroke="#63b8ff" points="146.04,-125.92 135.49,-126.89 144.34,-132.71 146.04,-125.92"/>
</a>
</g>
</g>
<!-- Node11 -->
<g id="Node000011" class="node">
<title>Node11</title>
<g id="a_Node000011"><a xlink:title=" ">
<polygon fill="#e0e0e0" stroke="#999999" points="266.24,-129 153.24,-129 153.24,-110 266.24,-110 266.24,-129"/>
<text text-anchor="middle" x="209.74" y="-117" font-family="Helvetica,sans-Serif" font-size="10.00">BS_thread_pool.hpp</text>
</a>
</g>
</g>
<!-- Node7&#45;&gt;Node11 -->
<g id="edge11_Node000007_Node000011" class="edge">
<title>Node7&#45;&gt;Node11</title>
<g id="a_edge11_Node000007_Node000011"><a xlink:title=" ">
<path fill="none" stroke="#63b8ff" d="M312.98,-164.98C293.01,-156.38 261.94,-142.99 239.09,-133.15"/>
<polygon fill="#63b8ff" stroke="#63b8ff" points="240.43,-129.91 229.86,-129.17 237.66,-136.34 240.43,-129.91"/>
</a>
</g>
</g>
<!-- Node12 -->
<g id="Node000012" class="node">
<title>Node12</title>
<g id="a_Node000012"><a xlink:href="core_2request_8hpp.html" target="_top" xlink:title=" ">
<polygon fill="white" stroke="#666666" points="498.24,-129 361.24,-129 361.24,-110 498.24,-110 498.24,-129"/>
<text text-anchor="middle" x="429.74" y="-117" font-family="Helvetica,sans-Serif" font-size="10.00">jsonrpc/core/request.hpp</text>
</a>
</g>
</g>
<!-- Node7&#45;&gt;Node12 -->
<g id="edge12_Node000007_Node000012" class="edge">
<title>Node7&#45;&gt;Node12</title>
<g id="a_edge12_Node000007_Node000012"><a xlink:title=" ">
<path fill="none" stroke="#63b8ff" d="M348.33,-164.98C363.51,-156.69 386.84,-143.94 404.64,-134.22"/>
<polygon fill="#63b8ff" stroke="#63b8ff" points="406.77,-137.04 413.87,-129.17 403.42,-130.89 406.77,-137.04"/>
</a>
</g>
</g>
<!-- Node7&#45;&gt;Node13 -->
<g id="edge25_Node000007_Node000013" class="edge">
<title>Node7&#45;&gt;Node13</title>
<g id="a_edge25_Node000007_Node000013"><a xlink:title=" ">
<path fill="none" stroke="#63b8ff" d="M325.21,-164.66C309.84,-146.61 274.62,-105.28 254.86,-82.08"/>
<polygon fill="#63b8ff" stroke="#63b8ff" points="257.27,-79.5 248.12,-74.16 251.94,-84.04 257.27,-79.5"/>
</a>
</g>
</g>
<!-- Node17 -->
<g id="Node000017" class="node">
<title>Node17</title>
<g id="a_Node000017"><a xlink:href="response_8hpp.html" target="_top" xlink:title=" ">
<polygon fill="white" stroke="#666666" points="660.74,-129 516.74,-129 516.74,-110 660.74,-110 660.74,-129"/>
<text text-anchor="middle" x="588.74" y="-117" font-family="Helvetica,sans-Serif" font-size="10.00">jsonrpc/core/response.hpp</text>
</a>
</g>
</g>
<!-- Node7&#45;&gt;Node17 -->
<g id="edge20_Node000007_Node000017" class="edge">
<title>Node7&#45;&gt;Node17</title>
<g id="a_edge20_Node000007_Node000017"><a xlink:title=" ">
<path fill="none" stroke="#63b8ff" d="M373.87,-164.98C418.34,-155.78 489.29,-141.09 537.39,-131.13"/>
<polygon fill="#63b8ff" stroke="#63b8ff" points="538.2,-134.54 547.29,-129.08 536.79,-127.68 538.2,-134.54"/>
</a>
</g>
</g>
<!-- Node12&#45;&gt;Node3 -->
<g id="edge14_Node000012_Node000003" class="edge">
<title>Node12&#45;&gt;Node3</title>
<g id="a_edge14_Node000012_Node000003"><a xlink:title=" ">
<path fill="none" stroke="#63b8ff" d="M467.34,-109.98C512.93,-99.66 588.98,-82.43 631.84,-72.73"/>
<polygon fill="#63b8ff" stroke="#63b8ff" points="632.75,-76.11 641.73,-70.49 631.2,-69.28 632.75,-76.11"/>
</a>
</g>
</g>
<!-- Node12&#45;&gt;Node8 -->
<g id="edge13_Node000012_Node000008" class="edge">
<title>Node12&#45;&gt;Node8</title>
<g id="a_edge13_Node000012_Node000008"><a xlink:title=" ">
<path fill="none" stroke="#63b8ff" d="M429.74,-109.66C429.74,-92.17 429.74,-52.8 429.74,-29.27"/>
<polygon fill="#63b8ff" stroke="#63b8ff" points="433.24,-29.16 429.74,-19.16 426.24,-29.16 433.24,-29.16"/>
</a>
</g>
</g>
<!-- Node12&#45;&gt;Node13 -->
<g id="edge15_Node000012_Node000013" class="edge">
<title>Node12&#45;&gt;Node13</title>
<g id="a_edge15_Node000012_Node000013"><a xlink:title=" ">
<path fill="none" stroke="#63b8ff" d="M399.37,-109.98C367.37,-101.01 316.78,-86.82 281.36,-76.89"/>
<polygon fill="#63b8ff" stroke="#63b8ff" points="281.92,-73.41 271.34,-74.08 280.03,-80.15 281.92,-73.41"/>
</a>
</g>
</g>
<!-- Node13&#45;&gt;Node8 -->
<g id="edge17_Node000013_Node000008" class="edge">
<title>Node13&#45;&gt;Node8</title>
<g id="a_edge17_Node000013_Node000008"><a xlink:title=" ">
<path fill="none" stroke="#63b8ff" d="M271.11,-54.98C303.87,-45.8 356.11,-31.15 391.62,-21.19"/>
<polygon fill="#63b8ff" stroke="#63b8ff" points="392.93,-24.46 401.61,-18.39 391.04,-17.72 392.93,-24.46"/>
</a>
</g>
</g>
<!-- Node14 -->
<g id="Node000014" class="node">
<title>Node14</title>
<g id="a_Node000014"><a xlink:title=" ">
<polygon fill="#e0e0e0" stroke="#999999" points="379.24,-19 314.24,-19 314.24,0 379.24,0 379.24,-19"/>
<text text-anchor="middle" x="346.74" y="-7" font-family="Helvetica,sans-Serif" font-size="10.00">functional</text>
</a>
</g>
</g>
<!-- Node13&#45;&gt;Node14 -->
<g id="edge16_Node000013_Node000014" class="edge">
<title>Node13&#45;&gt;Node14</title>
<g id="a_edge16_Node000013_Node000014"><a xlink:title=" ">
<path fill="none" stroke="#63b8ff" d="M257.77,-54.98C274.67,-46.54 300.81,-33.47 320.38,-23.68"/>
<polygon fill="#63b8ff" stroke="#63b8ff" points="322.02,-26.77 329.4,-19.17 318.89,-20.51 322.02,-26.77"/>
</a>
</g>
</g>
<!-- Node15 -->
<g id="Node000015" class="node">
<title>Node15</title>
<g id="a_Node000015"><a xlink:title=" ">
<polygon fill="#e0e0e0" stroke="#999999" points="167.24,-19 116.24,-19 116.24,0 167.24,0 167.24,-19"/>
<text text-anchor="middle" x="141.74" y="-7" font-family="Helvetica,sans-Serif" font-size="10.00">variant</text>
</a>
</g>
</g>
<!-- Node13&#45;&gt;Node15 -->
<g id="edge18_Node000013_Node000015" class="edge">
<title>Node13&#45;&gt;Node15</title>
<g id="a_edge18_Node000013_Node000015"><a xlink:title=" ">
<path fill="none" stroke="#63b8ff" d="M224.83,-54.98C209.2,-46.61 185.09,-33.7 166.86,-23.95"/>
<polygon fill="#63b8ff" stroke="#63b8ff" points="168.4,-20.8 157.94,-19.17 165.1,-26.98 168.4,-20.8"/>
</a>
</g>
</g>
<!-- Node16 -->
<g id="Node000016" class="node">
<title>Node16</title>
<g id="a_Node000016"><a xlink:title=" ">
<polygon fill="#e0e0e0" stroke="#999999" points="295.74,-19 185.74,-19 185.74,0 295.74,0 295.74,-19"/>
<text text-anchor="middle" x="240.74" y="-7" font-family="Helvetica,sans-Serif" font-size="10.00">nlohmann/json.hpp</text>
</a>
</g>
</g>
<!-- Node13&#45;&gt;Node16 -->
<g id="edge19_Node000013_Node000016" class="edge">
<title>Node13&#45;&gt;Node16</title>
<g id="a_edge19_Node000013_Node000016"><a xlink:title=" ">
<path fill="none" stroke="#63b8ff" d="M240.74,-54.75C240.74,-47.8 240.74,-37.85 240.74,-29.13"/>
<polygon fill="#63b8ff" stroke="#63b8ff" points="244.24,-29.09 240.74,-19.09 237.24,-29.09 244.24,-29.09"/>
</a>
</g>
</g>
<!-- Node17&#45;&gt;Node3 -->
<g id="edge22_Node000017_Node000003" class="edge">
<title>Node17&#45;&gt;Node3</title>
<g id="a_edge22_Node000017_Node000003"><a xlink:title=" ">
<path fill="none" stroke="#63b8ff" d="M600.79,-109.98C612.2,-101.92 629.57,-89.65 643.18,-80.03"/>
<polygon fill="#63b8ff" stroke="#63b8ff" points="645.32,-82.8 651.47,-74.17 641.28,-77.08 645.32,-82.8"/>
</a>
</g>
</g>
<!-- Node17&#45;&gt;Node8 -->
<g id="edge21_Node000017_Node000008" class="edge">
<title>Node17&#45;&gt;Node8</title>
<g id="a_edge21_Node000017_Node000008"><a xlink:title=" ">
<path fill="none" stroke="#63b8ff" d="M576,-109.84C548.78,-91.36 484.74,-47.86 451.15,-25.05"/>
<polygon fill="#63b8ff" stroke="#63b8ff" points="452.78,-21.92 442.54,-19.2 448.85,-27.71 452.78,-21.92"/>
</a>
</g>
</g>
<!-- Node17&#45;&gt;Node9 -->
<g id="edge23_Node000017_Node000009" class="edge">
<title>Node17&#45;&gt;Node9</title>
<g id="a_edge23_Node000017_Node000009"><a xlink:title=" ">
<path fill="none" stroke="#63b8ff" d="M614.77,-109.98C641.85,-101.13 684.45,-87.19 714.75,-77.28"/>
<polygon fill="#63b8ff" stroke="#63b8ff" points="716.09,-80.52 724.51,-74.08 713.92,-73.87 716.09,-80.52"/>
</a>
</g>
</g>
<!-- Node17&#45;&gt;Node13 -->
<g id="edge24_Node000017_Node000013" class="edge">
<title>Node17&#45;&gt;Node13</title>
<g id="a_edge24_Node000017_Node000013"><a xlink:title=" ">
<path fill="none" stroke="#63b8ff" d="M532.83,-109.98C471.28,-100.61 372.4,-85.55 307,-75.59"/>
<polygon fill="#63b8ff" stroke="#63b8ff" points="307.22,-72.08 296.8,-74.04 306.16,-79 307.22,-72.08"/>
</a>
</g>
</g>
<!-- Node18&#45;&gt;Node3 -->
<g id="edge29_Node000018_Node000003" class="edge">
<title>Node18&#45;&gt;Node3</title>
<g id="a_edge29_Node000018_Node000003"><a xlink:title=" ">
<path fill="none" stroke="#63b8ff" d="M804.11,-219.9C805.74,-194.78 805.46,-141.96 778.74,-110 773.13,-103.29 727.87,-87.03 695.84,-76.14"/>
<polygon fill="#63b8ff" stroke="#63b8ff" points="696.56,-72.69 685.97,-72.81 694.32,-79.32 696.56,-72.69"/>
</a>
</g>
</g>
</g>
</svg>
