<?xml version="1.0" encoding="UTF-8" standalone="no"?>
<!DOCTYPE svg PUBLIC "-//W3C//DTD SVG 1.1//EN"
 "http://www.w3.org/Graphics/SVG/1.1/DTD/svg11.dtd">
<!-- Generated by graphviz version 2.43.0 (0)
 -->
<!-- Title: src/transports/http_server_transport.cpp Pages: 1 -->
<svg width="728pt" height="390pt"
 viewBox="0.00 0.00 728.22 390.00" xmlns="http://www.w3.org/2000/svg" xmlns:xlink="http://www.w3.org/1999/xlink">
<g id="graph0" class="graph" transform="scale(1 1) rotate(0) translate(4 386)">
<title>src/transports/http_server_transport.cpp</title>
<!-- Node1 -->
<g id="Node000001" class="node">
<title>Node1</title>
<g id="a_Node000001"><a xlink:title=" ">
<polygon fill="#999999" stroke="#666666" points="503.05,-382 381.05,-382 381.05,-352 503.05,-352 503.05,-382"/>
<text text-anchor="start" x="389.05" y="-370" font-family="Helvetica,sans-Serif" font-size="10.00">src/transports/http</text>
<text text-anchor="middle" x="442.05" y="-359" font-family="Helvetica,sans-Serif" font-size="10.00">_server_transport.cpp</text>
</a>
</g>
</g>
<!-- Node2 -->
<g id="Node000002" class="node">
<title>Node2</title>
<g id="a_Node000002"><a xlink:href="http__server__transport_8hpp.html" target="_top" xlink:title=" ">
<polygon fill="white" stroke="#666666" points="446.05,-316 300.05,-316 300.05,-286 446.05,-286 446.05,-316"/>
<text text-anchor="start" x="308.05" y="-304" font-family="Helvetica,sans-Serif" font-size="10.00">jsonrpc/transports</text>
<text text-anchor="middle" x="373.05" y="-293" font-family="Helvetica,sans-Serif" font-size="10.00">/http_server_transport.hpp</text>
</a>
</g>
</g>
<!-- Node1&#45;&gt;Node2 -->
<g id="edge1_Node000001_Node000002" class="edge">
<title>Node1&#45;&gt;Node2</title>
<g id="a_edge1_Node000001_Node000002"><a xlink:title=" ">
<path fill="none" stroke="#63b8ff" d="M426.73,-351.8C417.62,-343.34 405.89,-332.46 395.72,-323.03"/>
<polygon fill="#63b8ff" stroke="#63b8ff" points="398.03,-320.4 388.32,-316.16 393.27,-325.53 398.03,-320.4"/>
</a>
</g>
</g>
<!-- Node19 -->
<g id="Node000019" class="node">
<title>Node19</title>
<g id="a_Node000019"><a xlink:title=" ">
<polygon fill="#e0e0e0" stroke="#999999" points="557.55,-310.5 464.55,-310.5 464.55,-291.5 557.55,-291.5 557.55,-310.5"/>
<text text-anchor="middle" x="511.05" y="-298.5" font-family="Helvetica,sans-Serif" font-size="10.00">spdlog/spdlog.h</text>
</a>
</g>
</g>
<!-- Node1&#45;&gt;Node19 -->
<g id="edge30_Node000001_Node000019" class="edge">
<title>Node1&#45;&gt;Node19</title>
<g id="a_edge30_Node000001_Node000019"><a xlink:title=" ">
<path fill="none" stroke="#63b8ff" d="M457.36,-351.8C468.22,-341.72 482.81,-328.19 494.03,-317.78"/>
<polygon fill="#63b8ff" stroke="#63b8ff" points="496.56,-320.21 501.51,-310.84 491.8,-315.08 496.56,-320.21"/>
</a>
</g>
</g>
<!-- Node3 -->
<g id="Node000003" class="node">
<title>Node3</title>
<g id="a_Node000003"><a xlink:title=" ">
<polygon fill="#e0e0e0" stroke="#999999" points="121.05,-74 77.05,-74 77.05,-55 121.05,-55 121.05,-74"/>
<text text-anchor="middle" x="99.05" y="-62" font-family="Helvetica,sans-Serif" font-size="10.00">string</text>
</a>
</g>
</g>
<!-- Node2&#45;&gt;Node3 -->
<g id="edge2_Node000002_Node000003" class="edge">
<title>Node2&#45;&gt;Node3</title>
<g id="a_edge2_Node000002_Node000003"><a xlink:title=" ">
<path fill="none" stroke="#63b8ff" d="M299.73,-290.11C211.57,-273.81 67.54,-232.11 4.05,-129 -13.44,-100.6 33.01,-82.12 66.96,-72.77"/>
<polygon fill="#63b8ff" stroke="#63b8ff" points="68.21,-76.06 77.01,-70.17 66.45,-69.29 68.21,-76.06"/>
</a>
</g>
</g>
<!-- Node4 -->
<g id="Node000004" class="node">
<title>Node4</title>
<g id="a_Node000004"><a xlink:title=" ">
<polygon fill="#e0e0e0" stroke="#999999" points="345.05,-244.5 253.05,-244.5 253.05,-225.5 345.05,-225.5 345.05,-244.5"/>
<text text-anchor="middle" x="299.05" y="-232.5" font-family="Helvetica,sans-Serif" font-size="10.00">httplib/httplib.h</text>
</a>
</g>
</g>
<!-- Node2&#45;&gt;Node4 -->
<g id="edge3_Node000002_Node000004" class="edge">
<title>Node2&#45;&gt;Node4</title>
<g id="a_edge3_Node000002_Node000004"><a xlink:title=" ">
<path fill="none" stroke="#63b8ff" d="M356.62,-285.8C344.86,-275.62 329.03,-261.93 316.95,-251.48"/>
<polygon fill="#63b8ff" stroke="#63b8ff" points="319.13,-248.74 309.27,-244.84 314.55,-254.03 319.13,-248.74"/>
</a>
</g>
</g>
<!-- Node5 -->
<g id="Node000005" class="node">
<title>Node5</title>
<g id="a_Node000005"><a xlink:href="dispatcher_8hpp.html" target="_top" xlink:title=" ">
<polygon fill="white" stroke="#666666" points="354.05,-184 204.05,-184 204.05,-165 354.05,-165 354.05,-184"/>
<text text-anchor="middle" x="279.05" y="-172" font-family="Helvetica,sans-Serif" font-size="10.00">jsonrpc/core/dispatcher.hpp</text>
</a>
</g>
</g>
<!-- Node2&#45;&gt;Node5 -->
<g id="edge4_Node000002_Node000005" class="edge">
<title>Node2&#45;&gt;Node5</title>
<g id="a_edge4_Node000002_Node000005"><a xlink:title=" ">
<path fill="none" stroke="#63b8ff" d="M372.94,-285.9C372.13,-268.75 368.51,-239.66 354.05,-220 343.74,-205.99 327.59,-195.6 312.91,-188.39"/>
<polygon fill="#63b8ff" stroke="#63b8ff" points="314.1,-185.09 303.55,-184.11 311.19,-191.46 314.1,-185.09"/>
</a>
</g>
</g>
<!-- Node11 -->
<g id="Node000011" class="node">
<title>Node11</title>
<g id="a_Node000011"><a xlink:href="types_8hpp.html" target="_top" xlink:title=" ">
<polygon fill="white" stroke="#666666" points="599.55,-74 472.55,-74 472.55,-55 599.55,-55 599.55,-74"/>
<text text-anchor="middle" x="536.05" y="-62" font-family="Helvetica,sans-Serif" font-size="10.00">jsonrpc/core/types.hpp</text>
</a>
</g>
</g>
<!-- Node2&#45;&gt;Node11 -->
<g id="edge29_Node000002_Node000011" class="edge">
<title>Node2&#45;&gt;Node11</title>
<g id="a_edge29_Node000002_Node000011"><a xlink:title=" ">
<path fill="none" stroke="#63b8ff" d="M446.35,-286.32C511.73,-273.88 599.49,-256.5 615.05,-250 663.84,-229.61 689.09,-230.62 714.05,-184 744.64,-126.83 650.64,-92.51 587.81,-76.47"/>
<polygon fill="#63b8ff" stroke="#63b8ff" points="588.56,-73.06 578.02,-74.06 586.89,-79.85 588.56,-73.06"/>
</a>
</g>
</g>
<!-- Node16 -->
<g id="Node000016" class="node">
<title>Node16</title>
<g id="a_Node000016"><a xlink:href="server__transport_8hpp.html" target="_top" xlink:title=" ">
<polygon fill="white" stroke="#666666" points="606.05,-250 496.05,-250 496.05,-220 606.05,-220 606.05,-250"/>
<text text-anchor="start" x="504.05" y="-238" font-family="Helvetica,sans-Serif" font-size="10.00">jsonrpc/core/server</text>
<text text-anchor="middle" x="551.05" y="-227" font-family="Helvetica,sans-Serif" font-size="10.00">_transport.hpp</text>
</a>
</g>
</g>
<!-- Node2&#45;&gt;Node16 -->
<g id="edge24_Node000002_Node000016" class="edge">
<title>Node2&#45;&gt;Node16</title>
<g id="a_edge24_Node000002_Node000016"><a xlink:title=" ">
<path fill="none" stroke="#63b8ff" d="M412.11,-285.95C438.66,-276.41 473.97,-263.71 502.35,-253.51"/>
<polygon fill="#63b8ff" stroke="#63b8ff" points="503.85,-256.69 512.08,-250.01 501.48,-250.1 503.85,-256.69"/>
</a>
</g>
</g>
<!-- Node5&#45;&gt;Node3 -->
<g id="edge6_Node000005_Node000003" class="edge">
<title>Node5&#45;&gt;Node3</title>
<g id="a_edge6_Node000005_Node000003"><a xlink:title=" ">
<path fill="none" stroke="#63b8ff" d="M203.78,-171.41C133.89,-167.7 37.1,-157.41 13.05,-129 -6.9,-105.44 35.36,-85.7 67.42,-74.75"/>
<polygon fill="#63b8ff" stroke="#63b8ff" points="68.54,-78.07 76.97,-71.64 66.37,-71.41 68.54,-78.07"/>
</a>
</g>
</g>
<!-- Node6 -->
<g id="Node000006" class="node">
<title>Node6</title>
<g id="a_Node000006"><a xlink:title=" ">
<polygon fill="#e0e0e0" stroke="#999999" points="407.05,-19 351.05,-19 351.05,0 407.05,0 407.05,-19"/>
<text text-anchor="middle" x="379.05" y="-7" font-family="Helvetica,sans-Serif" font-size="10.00">optional</text>
</a>
</g>
</g>
<!-- Node5&#45;&gt;Node6 -->
<g id="edge5_Node000005_Node000006" class="edge">
<title>Node5&#45;&gt;Node6</title>
<g id="a_edge5_Node000005_Node000006"><a xlink:title=" ">
<path fill="none" stroke="#63b8ff" d="M203.97,-171.91C131.55,-168.6 29.28,-158.65 4.05,-129 -1.43,-122.57 0.52,-117.67 4.05,-110 19.7,-75.92 33.89,-70.5 68.05,-55 115.98,-33.25 268.41,-19 340.53,-13.31"/>
<polygon fill="#63b8ff" stroke="#63b8ff" points="340.87,-16.79 350.56,-12.53 340.32,-9.81 340.87,-16.79"/>
</a>
</g>
</g>
<!-- Node7 -->
<g id="Node000007" class="node">
<title>Node7</title>
<g id="a_Node000007"><a xlink:title=" ">
<polygon fill="#e0e0e0" stroke="#999999" points="300.55,-74 207.55,-74 207.55,-55 300.55,-55 300.55,-74"/>
<text text-anchor="middle" x="254.05" y="-62" font-family="Helvetica,sans-Serif" font-size="10.00">unordered_map</text>
</a>
</g>
</g>
<!-- Node5&#45;&gt;Node7 -->
<g id="edge7_Node000005_Node000007" class="edge">
<title>Node5&#45;&gt;Node7</title>
<g id="a_edge7_Node000005_Node000007"><a xlink:title=" ">
<path fill="none" stroke="#63b8ff" d="M270.57,-164.85C263,-156.47 252.45,-143.01 248.05,-129 243.48,-114.46 245.56,-97.19 248.46,-84.34"/>
<polygon fill="#63b8ff" stroke="#63b8ff" points="251.93,-84.92 251.07,-74.36 245.15,-83.14 251.93,-84.92"/>
</a>
</g>
</g>
<!-- Node8 -->
<g id="Node000008" class="node">
<title>Node8</title>
<g id="a_Node000008"><a xlink:title=" ">
<polygon fill="#e0e0e0" stroke="#999999" points="69.55,-129 22.55,-129 22.55,-110 69.55,-110 69.55,-129"/>
<text text-anchor="middle" x="46.05" y="-117" font-family="Helvetica,sans-Serif" font-size="10.00">vector</text>
</a>
</g>
</g>
<!-- Node5&#45;&gt;Node8 -->
<g id="edge8_Node000005_Node000008" class="edge">
<title>Node5&#45;&gt;Node8</title>
<g id="a_edge8_Node000005_Node000008"><a xlink:title=" ">
<path fill="none" stroke="#63b8ff" d="M238.12,-164.96C199.57,-156.8 139.96,-143.89 79.83,-129.36"/>
<polygon fill="#63b8ff" stroke="#63b8ff" points="80.33,-125.88 69.78,-126.92 78.68,-132.69 80.33,-125.88"/>
</a>
</g>
</g>
<!-- Node9 -->
<g id="Node000009" class="node">
<title>Node9</title>
<g id="a_Node000009"><a xlink:title=" ">
<polygon fill="#e0e0e0" stroke="#999999" points="200.55,-129 87.55,-129 87.55,-110 200.55,-110 200.55,-129"/>
<text text-anchor="middle" x="144.05" y="-117" font-family="Helvetica,sans-Serif" font-size="10.00">BS_thread_pool.hpp</text>
</a>
</g>
</g>
<!-- Node5&#45;&gt;Node9 -->
<g id="edge9_Node000005_Node000009" class="edge">
<title>Node5&#45;&gt;Node9</title>
<g id="a_edge9_Node000005_Node000009"><a xlink:title=" ">
<path fill="none" stroke="#63b8ff" d="M257.36,-164.98C235.25,-156.3 200.73,-142.75 175.59,-132.88"/>
<polygon fill="#63b8ff" stroke="#63b8ff" points="176.72,-129.57 166.13,-129.17 174.16,-136.08 176.72,-129.57"/>
</a>
</g>
</g>
<!-- Node10 -->
<g id="Node000010" class="node">
<title>Node10</title>
<g id="a_Node000010"><a xlink:href="request_8hpp.html" target="_top" xlink:title=" ">
<polygon fill="white" stroke="#666666" points="556.55,-129 419.55,-129 419.55,-110 556.55,-110 556.55,-129"/>
<text text-anchor="middle" x="488.05" y="-117" font-family="Helvetica,sans-Serif" font-size="10.00">jsonrpc/core/request.hpp</text>
</a>
</g>
</g>
<!-- Node5&#45;&gt;Node10 -->
<g id="edge10_Node000005_Node000010" class="edge">
<title>Node5&#45;&gt;Node10</title>
<g id="a_edge10_Node000005_Node000010"><a xlink:title=" ">
<path fill="none" stroke="#63b8ff" d="M312.63,-164.98C348.4,-155.91 405.16,-141.52 444.39,-131.57"/>
<polygon fill="#63b8ff" stroke="#63b8ff" points="445.37,-134.93 454.2,-129.08 443.65,-128.15 445.37,-134.93"/>
</a>
</g>
</g>
<!-- Node5&#45;&gt;Node11 -->
<g id="edge23_Node000005_Node000011" class="edge">
<title>Node5&#45;&gt;Node11</title>
<g id="a_edge23_Node000005_Node000011"><a xlink:title=" ">
<path fill="none" stroke="#63b8ff" d="M354.22,-172.52C429.93,-169.74 539.27,-160.25 566.05,-129 578.12,-114.91 565.24,-95.14 552.81,-81.42"/>
<polygon fill="#63b8ff" stroke="#63b8ff" points="555.21,-78.87 545.74,-74.13 550.19,-83.74 555.21,-78.87"/>
</a>
</g>
</g>
<!-- Node15 -->
<g id="Node000015" class="node">
<title>Node15</title>
<g id="a_Node000015"><a xlink:href="response_8hpp.html" target="_top" xlink:title=" ">
<polygon fill="white" stroke="#666666" points="401.05,-129 257.05,-129 257.05,-110 401.05,-110 401.05,-129"/>
<text text-anchor="middle" x="329.05" y="-117" font-family="Helvetica,sans-Serif" font-size="10.00">jsonrpc/core/response.hpp</text>
</a>
</g>
</g>
<!-- Node5&#45;&gt;Node15 -->
<g id="edge18_Node000005_Node000015" class="edge">
<title>Node5&#45;&gt;Node15</title>
<g id="a_edge18_Node000005_Node000015"><a xlink:title=" ">
<path fill="none" stroke="#63b8ff" d="M287.3,-164.75C294.51,-157.11 305.16,-145.82 313.89,-136.56"/>
<polygon fill="#63b8ff" stroke="#63b8ff" points="316.63,-138.76 320.94,-129.09 311.54,-133.96 316.63,-138.76"/>
</a>
</g>
</g>
<!-- Node10&#45;&gt;Node3 -->
<g id="edge12_Node000010_Node000003" class="edge">
<title>Node10&#45;&gt;Node3</title>
<g id="a_edge12_Node000010_Node000003"><a xlink:title=" ">
<path fill="none" stroke="#63b8ff" d="M425.55,-109.98C341.73,-98.56 195.99,-78.71 131.42,-69.91"/>
<polygon fill="#63b8ff" stroke="#63b8ff" points="131.8,-66.43 121.42,-68.55 130.86,-73.37 131.8,-66.43"/>
</a>
</g>
</g>
<!-- Node10&#45;&gt;Node6 -->
<g id="edge11_Node000010_Node000006" class="edge">
<title>Node10&#45;&gt;Node6</title>
<g id="a_edge11_Node000010_Node000006"><a xlink:title=" ">
<path fill="none" stroke="#63b8ff" d="M479.13,-109.66C460.75,-91.46 418.46,-49.55 395.16,-26.47"/>
<polygon fill="#63b8ff" stroke="#63b8ff" points="397.35,-23.71 387.79,-19.16 392.43,-28.68 397.35,-23.71"/>
</a>
</g>
</g>
<!-- Node10&#45;&gt;Node11 -->
<g id="edge13_Node000010_Node000011" class="edge">
<title>Node10&#45;&gt;Node11</title>
<g id="a_edge13_Node000010_Node000011"><a xlink:title=" ">
<path fill="none" stroke="#63b8ff" d="M495.97,-109.75C502.89,-102.11 513.11,-90.82 521.5,-81.56"/>
<polygon fill="#63b8ff" stroke="#63b8ff" points="524.15,-83.85 528.27,-74.09 518.96,-79.15 524.15,-83.85"/>
</a>
</g>
</g>
<!-- Node11&#45;&gt;Node6 -->
<g id="edge15_Node000011_Node000006" class="edge">
<title>Node11&#45;&gt;Node6</title>
<g id="a_edge15_Node000011_Node000006"><a xlink:title=" ">
<path fill="none" stroke="#63b8ff" d="M510.82,-54.98C484.69,-46.16 443.65,-32.31 414.31,-22.41"/>
<polygon fill="#63b8ff" stroke="#63b8ff" points="415.06,-18.96 404.47,-19.08 412.82,-25.6 415.06,-18.96"/>
</a>
</g>
</g>
<!-- Node12 -->
<g id="Node000012" class="node">
<title>Node12</title>
<g id="a_Node000012"><a xlink:title=" ">
<polygon fill="#e0e0e0" stroke="#999999" points="492.55,-19 427.55,-19 427.55,0 492.55,0 492.55,-19"/>
<text text-anchor="middle" x="460.05" y="-7" font-family="Helvetica,sans-Serif" font-size="10.00">functional</text>
</a>
</g>
</g>
<!-- Node11&#45;&gt;Node12 -->
<g id="edge14_Node000011_Node000012" class="edge">
<title>Node11&#45;&gt;Node12</title>
<g id="a_edge14_Node000011_Node000012"><a xlink:title=" ">
<path fill="none" stroke="#63b8ff" d="M523.84,-54.98C512.27,-46.92 494.67,-34.65 480.89,-25.03"/>
<polygon fill="#63b8ff" stroke="#63b8ff" points="482.68,-22.02 472.48,-19.17 478.68,-27.76 482.68,-22.02"/>
</a>
</g>
</g>
<!-- Node13 -->
<g id="Node000013" class="node">
<title>Node13</title>
<g id="a_Node000013"><a xlink:title=" ">
<polygon fill="#e0e0e0" stroke="#999999" points="561.55,-19 510.55,-19 510.55,0 561.55,0 561.55,-19"/>
<text text-anchor="middle" x="536.05" y="-7" font-family="Helvetica,sans-Serif" font-size="10.00">variant</text>
</a>
</g>
</g>
<!-- Node11&#45;&gt;Node13 -->
<g id="edge16_Node000011_Node000013" class="edge">
<title>Node11&#45;&gt;Node13</title>
<g id="a_edge16_Node000011_Node000013"><a xlink:title=" ">
<path fill="none" stroke="#63b8ff" d="M536.05,-54.75C536.05,-47.8 536.05,-37.85 536.05,-29.13"/>
<polygon fill="#63b8ff" stroke="#63b8ff" points="539.55,-29.09 536.05,-19.09 532.55,-29.09 539.55,-29.09"/>
</a>
</g>
</g>
<!-- Node14 -->
<g id="Node000014" class="node">
<title>Node14</title>
<g id="a_Node000014"><a xlink:title=" ">
<polygon fill="#e0e0e0" stroke="#999999" points="690.05,-19 580.05,-19 580.05,0 690.05,0 690.05,-19"/>
<text text-anchor="middle" x="635.05" y="-7" font-family="Helvetica,sans-Serif" font-size="10.00">nlohmann/json.hpp</text>
</a>
</g>
</g>
<!-- Node11&#45;&gt;Node14 -->
<g id="edge17_Node000011_Node000014" class="edge">
<title>Node11&#45;&gt;Node14</title>
<g id="a_edge17_Node000011_Node000014"><a xlink:title=" ">
<path fill="none" stroke="#63b8ff" d="M551.95,-54.98C567.59,-46.61 591.7,-33.7 609.93,-23.95"/>
<polygon fill="#63b8ff" stroke="#63b8ff" points="611.69,-26.98 618.85,-19.17 608.38,-20.8 611.69,-26.98"/>
</a>
</g>
</g>
<!-- Node15&#45;&gt;Node3 -->
<g id="edge20_Node000015_Node000003" class="edge">
<title>Node15&#45;&gt;Node3</title>
<g id="a_edge20_Node000015_Node000003"><a xlink:title=" ">
<path fill="none" stroke="#63b8ff" d="M292.09,-109.98C247.52,-99.71 173.31,-82.61 131.07,-72.88"/>
<polygon fill="#63b8ff" stroke="#63b8ff" points="131.83,-69.46 121.3,-70.63 130.26,-76.28 131.83,-69.46"/>
</a>
</g>
</g>
<!-- Node15&#45;&gt;Node6 -->
<g id="edge19_Node000015_Node000006" class="edge">
<title>Node15&#45;&gt;Node6</title>
<g id="a_edge19_Node000015_Node000006"><a xlink:title=" ">
<path fill="none" stroke="#63b8ff" d="M333.14,-109.66C341.35,-91.93 359.96,-51.73 370.8,-28.32"/>
<polygon fill="#63b8ff" stroke="#63b8ff" points="374.01,-29.7 375.04,-19.16 367.66,-26.76 374.01,-29.7"/>
</a>
</g>
</g>
<!-- Node15&#45;&gt;Node7 -->
<g id="edge21_Node000015_Node000007" class="edge">
<title>Node15&#45;&gt;Node7</title>
<g id="a_edge21_Node000015_Node000007"><a xlink:title=" ">
<path fill="none" stroke="#63b8ff" d="M317,-109.98C305.58,-101.92 288.22,-89.65 274.61,-80.03"/>
<polygon fill="#63b8ff" stroke="#63b8ff" points="276.5,-77.08 266.32,-74.17 272.46,-82.8 276.5,-77.08"/>
</a>
</g>
</g>
<!-- Node15&#45;&gt;Node11 -->
<g id="edge22_Node000015_Node000011" class="edge">
<title>Node15&#45;&gt;Node11</title>
<g id="a_edge22_Node000015_Node000011"><a xlink:title=" ">
<path fill="none" stroke="#63b8ff" d="M362.3,-109.98C397.66,-100.93 453.72,-86.58 492.56,-76.64"/>
<polygon fill="#63b8ff" stroke="#63b8ff" points="493.71,-79.95 502.53,-74.08 491.97,-73.17 493.71,-79.95"/>
</a>
</g>
</g>
<!-- Node16&#45;&gt;Node5 -->
<g id="edge27_Node000016_Node000005" class="edge">
<title>Node16&#45;&gt;Node5</title>
<g id="a_edge27_Node000016_Node000005"><a xlink:title=" ">
<path fill="none" stroke="#63b8ff" d="M496,-222.16C446.98,-211.62 375.88,-196.33 328.6,-186.16"/>
<polygon fill="#63b8ff" stroke="#63b8ff" points="329.11,-182.69 318.59,-184.01 327.63,-189.53 329.11,-182.69"/>
</a>
</g>
</g>
<!-- Node16&#45;&gt;Node11 -->
<g id="edge28_Node000016_Node000011" class="edge">
<title>Node16&#45;&gt;Node11</title>
<g id="a_edge28_Node000016_Node000011"><a xlink:title=" ">
<path fill="none" stroke="#63b8ff" d="M554.69,-219.93C558.36,-205.94 564.3,-183.9 570.05,-165 574.95,-148.86 579.35,-145.65 582.05,-129 583.4,-120.66 585.34,-117.77 582.05,-110 577.07,-98.25 567.3,-88.09 558.04,-80.45"/>
<polygon fill="#63b8ff" stroke="#63b8ff" points="559.9,-77.47 549.83,-74.18 555.65,-83.03 559.9,-77.47"/>
</a>
</g>
</g>
<!-- Node17 -->
<g id="Node000017" class="node">
<title>Node17</title>
<g id="a_Node000017"><a xlink:title=" ">
<polygon fill="#e0e0e0" stroke="#999999" points="629.05,-184 579.05,-184 579.05,-165 629.05,-165 629.05,-184"/>
<text text-anchor="middle" x="604.05" y="-172" font-family="Helvetica,sans-Serif" font-size="10.00">atomic</text>
</a>
</g>
</g>
<!-- Node16&#45;&gt;Node17 -->
<g id="edge25_Node000016_Node000017" class="edge">
<title>Node16&#45;&gt;Node17</title>
<g id="a_edge25_Node000016_Node000017"><a xlink:title=" ">
<path fill="none" stroke="#63b8ff" d="M563.88,-219.84C571.57,-211.35 581.38,-200.52 589.38,-191.69"/>
<polygon fill="#63b8ff" stroke="#63b8ff" points="591.98,-194.03 596.11,-184.27 586.8,-189.33 591.98,-194.03"/>
</a>
</g>
</g>
<!-- Node18 -->
<g id="Node000018" class="node">
<title>Node18</title>
<g id="a_Node000018"><a xlink:title=" ">
<polygon fill="#e0e0e0" stroke="#999999" points="705.05,-184 647.05,-184 647.05,-165 705.05,-165 705.05,-184"/>
<text text-anchor="middle" x="676.05" y="-172" font-family="Helvetica,sans-Serif" font-size="10.00">memory</text>
</a>
</g>
</g>
<!-- Node16&#45;&gt;Node18 -->
<g id="edge26_Node000016_Node000018" class="edge">
<title>Node16&#45;&gt;Node18</title>
<g id="a_edge26_Node000016_Node000018"><a xlink:title=" ">
<path fill="none" stroke="#63b8ff" d="M580.99,-219.99C601.47,-210.4 628.43,-197.79 648.4,-188.44"/>
<polygon fill="#63b8ff" stroke="#63b8ff" points="650.01,-191.55 657.59,-184.14 647.05,-185.21 650.01,-191.55"/>
</a>
</g>
</g>
</g>
</svg>
