<?xml version="1.0" encoding="UTF-8" standalone="no"?>
<!DOCTYPE svg PUBLIC "-//W3C//DTD SVG 1.1//EN"
 "http://www.w3.org/Graphics/SVG/1.1/DTD/svg11.dtd">
<!-- Generated by graphviz version 2.43.0 (0)
 -->
<!-- Title: src/transports/http_client_transport.cpp Pages: 1 -->
<svg width="471pt" height="280pt"
 viewBox="0.00 0.00 470.50 280.00" xmlns="http://www.w3.org/2000/svg" xmlns:xlink="http://www.w3.org/1999/xlink">
<g id="graph0" class="graph" transform="scale(1 1) rotate(0) translate(4 276)">
<title>src/transports/http_client_transport.cpp</title>
<!-- Node1 -->
<g id="Node000001" class="node">
<title>Node1</title>
<g id="a_Node000001"><a xlink:title=" ">
<polygon fill="#999999" stroke="#666666" points="174,-272 55,-272 55,-242 174,-242 174,-272"/>
<text text-anchor="start" x="63" y="-260" font-family="Helvetica,sans-Serif" font-size="10.00">src/transports/http</text>
<text text-anchor="middle" x="114.5" y="-249" font-family="Helvetica,sans-Serif" font-size="10.00">_client_transport.cpp</text>
</a>
</g>
</g>
<!-- Node2 -->
<g id="Node000002" class="node">
<title>Node2</title>
<g id="a_Node000002"><a xlink:title=" ">
<polygon fill="#e0e0e0" stroke="#999999" points="93,-200.5 0,-200.5 0,-181.5 93,-181.5 93,-200.5"/>
<text text-anchor="middle" x="46.5" y="-188.5" font-family="Helvetica,sans-Serif" font-size="10.00">spdlog/spdlog.h</text>
</a>
</g>
</g>
<!-- Node1&#45;&gt;Node2 -->
<g id="edge1_Node000001_Node000002" class="edge">
<title>Node1&#45;&gt;Node2</title>
<g id="a_edge1_Node000001_Node000002"><a xlink:title=" ">
<path fill="none" stroke="#63b8ff" d="M99.41,-241.8C88.7,-231.72 74.33,-218.19 63.27,-207.78"/>
<polygon fill="#63b8ff" stroke="#63b8ff" points="65.58,-205.15 55.9,-200.84 60.78,-210.25 65.58,-205.15"/>
</a>
</g>
</g>
<!-- Node3 -->
<g id="Node000003" class="node">
<title>Node3</title>
<g id="a_Node000003"><a xlink:href="http__client__transport_8hpp.html" target="_top" xlink:title=" ">
<polygon fill="white" stroke="#666666" points="253.5,-206 111.5,-206 111.5,-176 253.5,-176 253.5,-206"/>
<text text-anchor="start" x="119.5" y="-194" font-family="Helvetica,sans-Serif" font-size="10.00">json_rpc/transports</text>
<text text-anchor="middle" x="182.5" y="-183" font-family="Helvetica,sans-Serif" font-size="10.00">/http_client_transport.hpp</text>
</a>
</g>
</g>
<!-- Node1&#45;&gt;Node3 -->
<g id="edge2_Node000001_Node000003" class="edge">
<title>Node1&#45;&gt;Node3</title>
<g id="a_edge2_Node000001_Node000003"><a xlink:title=" ">
<path fill="none" stroke="#63b8ff" d="M129.59,-241.8C138.57,-233.34 150.13,-222.46 160.15,-213.03"/>
<polygon fill="#63b8ff" stroke="#63b8ff" points="162.57,-215.57 167.45,-206.16 157.77,-210.47 162.57,-215.57"/>
</a>
</g>
</g>
<!-- Node4 -->
<g id="Node000004" class="node">
<title>Node4</title>
<g id="a_Node000004"><a xlink:title=" ">
<polygon fill="#e0e0e0" stroke="#999999" points="94,-134.5 37,-134.5 37,-115.5 94,-115.5 94,-134.5"/>
<text text-anchor="middle" x="65.5" y="-122.5" font-family="Helvetica,sans-Serif" font-size="10.00">httplib.h</text>
</a>
</g>
</g>
<!-- Node3&#45;&gt;Node4 -->
<g id="edge3_Node000003_Node000004" class="edge">
<title>Node3&#45;&gt;Node4</title>
<g id="a_edge3_Node000003_Node000004"><a xlink:title=" ">
<path fill="none" stroke="#63b8ff" d="M156.82,-175.95C136.94,-165.08 109.57,-150.11 89.99,-139.4"/>
<polygon fill="#63b8ff" stroke="#63b8ff" points="91.52,-136.25 81.07,-134.52 88.16,-142.39 91.52,-136.25"/>
</a>
</g>
</g>
<!-- Node5 -->
<g id="Node000005" class="node">
<title>Node5</title>
<g id="a_Node000005"><a xlink:title=" ">
<polygon fill="#e0e0e0" stroke="#999999" points="156.5,-134.5 112.5,-134.5 112.5,-115.5 156.5,-115.5 156.5,-134.5"/>
<text text-anchor="middle" x="134.5" y="-122.5" font-family="Helvetica,sans-Serif" font-size="10.00">string</text>
</a>
</g>
</g>
<!-- Node3&#45;&gt;Node5 -->
<g id="edge4_Node000003_Node000005" class="edge">
<title>Node3&#45;&gt;Node5</title>
<g id="a_edge4_Node000003_Node000005"><a xlink:title=" ">
<path fill="none" stroke="#63b8ff" d="M171.85,-175.8C164.58,-166.11 154.93,-153.24 147.26,-143.01"/>
<polygon fill="#63b8ff" stroke="#63b8ff" points="149.93,-140.74 141.13,-134.84 144.33,-144.94 149.93,-140.74"/>
</a>
</g>
</g>
<!-- Node6 -->
<g id="Node000006" class="node">
<title>Node6</title>
<g id="a_Node000006"><a xlink:href="client__transport_8hpp.html" target="_top" xlink:title=" ">
<polygon fill="white" stroke="#666666" points="286,-140 175,-140 175,-110 286,-110 286,-140"/>
<text text-anchor="start" x="183" y="-128" font-family="Helvetica,sans-Serif" font-size="10.00">json_rpc/core/client</text>
<text text-anchor="middle" x="230.5" y="-117" font-family="Helvetica,sans-Serif" font-size="10.00">_transport.hpp</text>
</a>
</g>
</g>
<!-- Node3&#45;&gt;Node6 -->
<g id="edge5_Node000003_Node000006" class="edge">
<title>Node3&#45;&gt;Node6</title>
<g id="a_edge5_Node000003_Node000006"><a xlink:title=" ">
<path fill="none" stroke="#63b8ff" d="M193.15,-175.8C199.18,-167.76 206.86,-157.53 213.68,-148.43"/>
<polygon fill="#63b8ff" stroke="#63b8ff" points="216.68,-150.26 219.88,-140.16 211.08,-146.06 216.68,-150.26"/>
</a>
</g>
</g>
<!-- Node7 -->
<g id="Node000007" class="node">
<title>Node7</title>
<g id="a_Node000007"><a xlink:href="types_8hpp.html" target="_top" xlink:title=" ">
<polygon fill="white" stroke="#666666" points="338.5,-74 206.5,-74 206.5,-55 338.5,-55 338.5,-74"/>
<text text-anchor="middle" x="272.5" y="-62" font-family="Helvetica,sans-Serif" font-size="10.00">json_rpc/core/types.hpp</text>
</a>
</g>
</g>
<!-- Node3&#45;&gt;Node7 -->
<g id="edge11_Node000003_Node000007" class="edge">
<title>Node3&#45;&gt;Node7</title>
<g id="a_edge11_Node000003_Node000007"><a xlink:title=" ">
<path fill="none" stroke="#63b8ff" d="M246.87,-175.93C265.76,-168.49 284.32,-157.17 295.5,-140 306.98,-122.36 296.03,-98.67 285.66,-82.78"/>
<polygon fill="#63b8ff" stroke="#63b8ff" points="288.41,-80.6 279.8,-74.43 282.68,-84.63 288.41,-80.6"/>
</a>
</g>
</g>
<!-- Node6&#45;&gt;Node7 -->
<g id="edge6_Node000006_Node000007" class="edge">
<title>Node6&#45;&gt;Node7</title>
<g id="a_edge6_Node000006_Node000007"><a xlink:title=" ">
<path fill="none" stroke="#63b8ff" d="M240.67,-109.84C246.58,-101.61 254.06,-91.18 260.29,-82.51"/>
<polygon fill="#63b8ff" stroke="#63b8ff" points="263.22,-84.43 266.21,-74.27 257.53,-80.35 263.22,-84.43"/>
</a>
</g>
</g>
<!-- Node8 -->
<g id="Node000008" class="node">
<title>Node8</title>
<g id="a_Node000008"><a xlink:title=" ">
<polygon fill="#e0e0e0" stroke="#999999" points="190,-19 125,-19 125,0 190,0 190,-19"/>
<text text-anchor="middle" x="157.5" y="-7" font-family="Helvetica,sans-Serif" font-size="10.00">functional</text>
</a>
</g>
</g>
<!-- Node7&#45;&gt;Node8 -->
<g id="edge7_Node000007_Node000008" class="edge">
<title>Node7&#45;&gt;Node8</title>
<g id="a_edge7_Node000007_Node000008"><a xlink:title=" ">
<path fill="none" stroke="#63b8ff" d="M254.02,-54.98C235.52,-46.46 206.82,-33.23 185.52,-23.41"/>
<polygon fill="#63b8ff" stroke="#63b8ff" points="186.86,-20.18 176.31,-19.17 183.93,-26.53 186.86,-20.18"/>
</a>
</g>
</g>
<!-- Node9 -->
<g id="Node000009" class="node">
<title>Node9</title>
<g id="a_Node000009"><a xlink:title=" ">
<polygon fill="#e0e0e0" stroke="#999999" points="264.5,-19 208.5,-19 208.5,0 264.5,0 264.5,-19"/>
<text text-anchor="middle" x="236.5" y="-7" font-family="Helvetica,sans-Serif" font-size="10.00">optional</text>
</a>
</g>
</g>
<!-- Node7&#45;&gt;Node9 -->
<g id="edge8_Node000007_Node000009" class="edge">
<title>Node7&#45;&gt;Node9</title>
<g id="a_edge8_Node000007_Node000009"><a xlink:title=" ">
<path fill="none" stroke="#63b8ff" d="M266.56,-54.75C261.52,-47.34 254.16,-36.5 247.99,-27.41"/>
<polygon fill="#63b8ff" stroke="#63b8ff" points="250.85,-25.39 242.33,-19.09 245.06,-29.33 250.85,-25.39"/>
</a>
</g>
</g>
<!-- Node10 -->
<g id="Node000010" class="node">
<title>Node10</title>
<g id="a_Node000010"><a xlink:title=" ">
<polygon fill="#e0e0e0" stroke="#999999" points="334,-19 283,-19 283,0 334,0 334,-19"/>
<text text-anchor="middle" x="308.5" y="-7" font-family="Helvetica,sans-Serif" font-size="10.00">variant</text>
</a>
</g>
</g>
<!-- Node7&#45;&gt;Node10 -->
<g id="edge9_Node000007_Node000010" class="edge">
<title>Node7&#45;&gt;Node10</title>
<g id="a_edge9_Node000007_Node000010"><a xlink:title=" ">
<path fill="none" stroke="#63b8ff" d="M278.44,-54.75C283.48,-47.34 290.84,-36.5 297.01,-27.41"/>
<polygon fill="#63b8ff" stroke="#63b8ff" points="299.94,-29.33 302.67,-19.09 294.15,-25.39 299.94,-29.33"/>
</a>
</g>
</g>
<!-- Node11 -->
<g id="Node000011" class="node">
<title>Node11</title>
<g id="a_Node000011"><a xlink:title=" ">
<polygon fill="#e0e0e0" stroke="#999999" points="462.5,-19 352.5,-19 352.5,0 462.5,0 462.5,-19"/>
<text text-anchor="middle" x="407.5" y="-7" font-family="Helvetica,sans-Serif" font-size="10.00">nlohmann/json.hpp</text>
</a>
</g>
</g>
<!-- Node7&#45;&gt;Node11 -->
<g id="edge10_Node000007_Node000011" class="edge">
<title>Node7&#45;&gt;Node11</title>
<g id="a_edge10_Node000007_Node000011"><a xlink:title=" ">
<path fill="none" stroke="#63b8ff" d="M294.19,-54.98C316.3,-46.3 350.82,-32.75 375.95,-22.88"/>
<polygon fill="#63b8ff" stroke="#63b8ff" points="377.39,-26.08 385.42,-19.17 374.83,-19.57 377.39,-26.08"/>
</a>
</g>
</g>
</g>
</svg>
