<?xml version="1.0" encoding="UTF-8" standalone="no"?>
<!DOCTYPE svg PUBLIC "-//W3C//DTD SVG 1.1//EN"
 "http://www.w3.org/Graphics/SVG/1.1/DTD/svg11.dtd">
<!-- Generated by graphviz version 2.43.0 (0)
 -->
<!-- Title: src/transports/http_server_transport.cpp Pages: 1 -->
<svg width="904pt" height="390pt"
 viewBox="0.00 0.00 904.02 390.00" xmlns="http://www.w3.org/2000/svg" xmlns:xlink="http://www.w3.org/1999/xlink">
<g id="graph0" class="graph" transform="scale(1 1) rotate(0) translate(4 386)">
<title>src/transports/http_server_transport.cpp</title>
<!-- Node1 -->
<g id="Node000001" class="node">
<title>Node1</title>
<g id="a_Node000001"><a xlink:title=" ">
<polygon fill="#999999" stroke="#666666" points="453.5,-382 331.5,-382 331.5,-352 453.5,-352 453.5,-382"/>
<text text-anchor="start" x="339.5" y="-370" font-family="Helvetica,sans-Serif" font-size="10.00">src/transports/http</text>
<text text-anchor="middle" x="392.5" y="-359" font-family="Helvetica,sans-Serif" font-size="10.00">_server_transport.cpp</text>
</a>
</g>
</g>
<!-- Node2 -->
<g id="Node000002" class="node">
<title>Node2</title>
<g id="a_Node000002"><a xlink:title=" ">
<polygon fill="#e0e0e0" stroke="#999999" points="370,-310.5 277,-310.5 277,-291.5 370,-291.5 370,-310.5"/>
<text text-anchor="middle" x="323.5" y="-298.5" font-family="Helvetica,sans-Serif" font-size="10.00">spdlog/spdlog.h</text>
</a>
</g>
</g>
<!-- Node1&#45;&gt;Node2 -->
<g id="edge1_Node000001_Node000002" class="edge">
<title>Node1&#45;&gt;Node2</title>
<g id="a_edge1_Node000001_Node000002"><a xlink:title=" ">
<path fill="none" stroke="#63b8ff" d="M377.19,-351.8C366.32,-341.72 351.74,-328.19 340.51,-317.78"/>
<polygon fill="#63b8ff" stroke="#63b8ff" points="342.75,-315.08 333.04,-310.84 337.99,-320.21 342.75,-315.08"/>
</a>
</g>
</g>
<!-- Node3 -->
<g id="Node000003" class="node">
<title>Node3</title>
<g id="a_Node000003"><a xlink:href="http__server__transport_8hpp.html" target="_top" xlink:title=" ">
<polygon fill="white" stroke="#666666" points="534.5,-316 388.5,-316 388.5,-286 534.5,-286 534.5,-316"/>
<text text-anchor="start" x="396.5" y="-304" font-family="Helvetica,sans-Serif" font-size="10.00">json_rpc/transports</text>
<text text-anchor="middle" x="461.5" y="-293" font-family="Helvetica,sans-Serif" font-size="10.00">/http_server_transport.hpp</text>
</a>
</g>
</g>
<!-- Node1&#45;&gt;Node3 -->
<g id="edge2_Node000001_Node000003" class="edge">
<title>Node1&#45;&gt;Node3</title>
<g id="a_edge2_Node000001_Node000003"><a xlink:title=" ">
<path fill="none" stroke="#63b8ff" d="M407.81,-351.8C416.93,-343.34 428.66,-332.46 438.83,-323.03"/>
<polygon fill="#63b8ff" stroke="#63b8ff" points="441.28,-325.53 446.23,-316.16 436.52,-320.4 441.28,-325.53"/>
</a>
</g>
</g>
<!-- Node4 -->
<g id="Node000004" class="node">
<title>Node4</title>
<g id="a_Node000004"><a xlink:title=" ">
<polygon fill="#e0e0e0" stroke="#999999" points="57,-244.5 0,-244.5 0,-225.5 57,-225.5 57,-244.5"/>
<text text-anchor="middle" x="28.5" y="-232.5" font-family="Helvetica,sans-Serif" font-size="10.00">httplib.h</text>
</a>
</g>
</g>
<!-- Node3&#45;&gt;Node4 -->
<g id="edge3_Node000003_Node000004" class="edge">
<title>Node3&#45;&gt;Node4</title>
<g id="a_edge3_Node000003_Node000004"><a xlink:title=" ">
<path fill="none" stroke="#63b8ff" d="M388.21,-287.43C384.93,-286.93 381.68,-286.45 378.5,-286 242.5,-266.57 205.69,-279.41 71.5,-250 68.28,-249.29 64.96,-248.44 61.66,-247.51"/>
<polygon fill="#63b8ff" stroke="#63b8ff" points="62.51,-244.12 51.93,-244.56 60.47,-250.81 62.51,-244.12"/>
</a>
</g>
</g>
<!-- Node5 -->
<g id="Node000005" class="node">
<title>Node5</title>
<g id="a_Node000005"><a xlink:title=" ">
<polygon fill="#e0e0e0" stroke="#999999" points="374.5,-74 330.5,-74 330.5,-55 374.5,-55 374.5,-74"/>
<text text-anchor="middle" x="352.5" y="-62" font-family="Helvetica,sans-Serif" font-size="10.00">string</text>
</a>
</g>
</g>
<!-- Node3&#45;&gt;Node5 -->
<g id="edge4_Node000003_Node000005" class="edge">
<title>Node3&#45;&gt;Node5</title>
<g id="a_edge4_Node000003_Node000005"><a xlink:title=" ">
<path fill="none" stroke="#63b8ff" d="M395.59,-285.93C319.31,-265.72 197.2,-220.39 142.5,-129 138.16,-121.75 137.18,-116.56 142.5,-110 164.51,-82.84 267.01,-71.59 320.23,-67.52"/>
<polygon fill="#63b8ff" stroke="#63b8ff" points="320.76,-70.99 330.49,-66.77 320.26,-64.01 320.76,-70.99"/>
</a>
</g>
</g>
<!-- Node6 -->
<g id="Node000006" class="node">
<title>Node6</title>
<g id="a_Node000006"><a xlink:href="dispatcher_8hpp.html" target="_top" xlink:title=" ">
<polygon fill="white" stroke="#666666" points="539,-184 384,-184 384,-165 539,-165 539,-184"/>
<text text-anchor="middle" x="461.5" y="-172" font-family="Helvetica,sans-Serif" font-size="10.00">json_rpc/core/dispatcher.hpp</text>
</a>
</g>
</g>
<!-- Node3&#45;&gt;Node6 -->
<g id="edge5_Node000003_Node000006" class="edge">
<title>Node3&#45;&gt;Node6</title>
<g id="a_edge5_Node000003_Node000006"><a xlink:title=" ">
<path fill="none" stroke="#63b8ff" d="M461.5,-285.72C461.5,-263.12 461.5,-219.12 461.5,-194.09"/>
<polygon fill="#63b8ff" stroke="#63b8ff" points="465,-194.07 461.5,-184.07 458,-194.07 465,-194.07"/>
</a>
</g>
</g>
<!-- Node11 -->
<g id="Node000011" class="node">
<title>Node11</title>
<g id="a_Node000011"><a xlink:href="types_8hpp.html" target="_top" xlink:title=" ">
<polygon fill="white" stroke="#666666" points="819.5,-74 687.5,-74 687.5,-55 819.5,-55 819.5,-74"/>
<text text-anchor="middle" x="753.5" y="-62" font-family="Helvetica,sans-Serif" font-size="10.00">json_rpc/core/types.hpp</text>
</a>
</g>
</g>
<!-- Node3&#45;&gt;Node11 -->
<g id="edge30_Node000003_Node000011" class="edge">
<title>Node3&#45;&gt;Node11</title>
<g id="a_edge30_Node000003_Node000011"><a xlink:title=" ">
<path fill="none" stroke="#63b8ff" d="M534.74,-298.42C603.89,-294.78 709.39,-283.57 794.5,-250 842.67,-231 866.4,-229.82 890.5,-184 916.73,-134.14 839.15,-96.03 790.21,-77.64"/>
<polygon fill="#63b8ff" stroke="#63b8ff" points="791.14,-74.26 780.55,-74.13 788.75,-80.84 791.14,-74.26"/>
</a>
</g>
</g>
<!-- Node17 -->
<g id="Node000017" class="node">
<title>Node17</title>
<g id="a_Node000017"><a xlink:href="server__transport_8hpp.html" target="_top" xlink:title=" ">
<polygon fill="white" stroke="#666666" points="785,-250 670,-250 670,-220 785,-220 785,-250"/>
<text text-anchor="start" x="678" y="-238" font-family="Helvetica,sans-Serif" font-size="10.00">json_rpc/core/server</text>
<text text-anchor="middle" x="727.5" y="-227" font-family="Helvetica,sans-Serif" font-size="10.00">_transport.hpp</text>
</a>
</g>
</g>
<!-- Node3&#45;&gt;Node17 -->
<g id="edge25_Node000003_Node000017" class="edge">
<title>Node3&#45;&gt;Node17</title>
<g id="a_edge25_Node000003_Node000017"><a xlink:title=" ">
<path fill="none" stroke="#63b8ff" d="M519.87,-285.95C561.16,-276.02 616.64,-262.67 659.85,-252.28"/>
<polygon fill="#63b8ff" stroke="#63b8ff" points="660.82,-255.64 669.72,-249.9 659.18,-248.84 660.82,-255.64"/>
</a>
</g>
</g>
<!-- Node6&#45;&gt;Node5 -->
<g id="edge7_Node000006_Node000005" class="edge">
<title>Node6&#45;&gt;Node5</title>
<g id="a_edge7_Node000006_Node000005"><a xlink:title=" ">
<path fill="none" stroke="#63b8ff" d="M383.64,-168.79C356.74,-162.97 329.19,-151.41 312.5,-129 300.74,-113.22 316.78,-93.96 331.91,-80.81"/>
<polygon fill="#63b8ff" stroke="#63b8ff" points="334.49,-83.23 340.04,-74.2 330.07,-77.8 334.49,-83.23"/>
</a>
</g>
</g>
<!-- Node7 -->
<g id="Node000007" class="node">
<title>Node7</title>
<g id="a_Node000007"><a xlink:title=" ">
<polygon fill="#e0e0e0" stroke="#999999" points="539.5,-19 483.5,-19 483.5,0 539.5,0 539.5,-19"/>
<text text-anchor="middle" x="511.5" y="-7" font-family="Helvetica,sans-Serif" font-size="10.00">optional</text>
</a>
</g>
</g>
<!-- Node6&#45;&gt;Node7 -->
<g id="edge6_Node000006_Node000007" class="edge">
<title>Node6&#45;&gt;Node7</title>
<g id="a_edge6_Node000006_Node000007"><a xlink:title=" ">
<path fill="none" stroke="#63b8ff" d="M383.75,-173.88C299.56,-172.43 173.15,-164.22 142.5,-129 136.96,-122.63 137.48,-116.79 142.5,-110 182.15,-56.34 387.23,-25.58 473.35,-14.86"/>
<polygon fill="#63b8ff" stroke="#63b8ff" points="473.99,-18.31 483.49,-13.62 473.14,-11.36 473.99,-18.31"/>
</a>
</g>
</g>
<!-- Node8 -->
<g id="Node000008" class="node">
<title>Node8</title>
<g id="a_Node000008"><a xlink:title=" ">
<polygon fill="#e0e0e0" stroke="#999999" points="603,-74 510,-74 510,-55 603,-55 603,-74"/>
<text text-anchor="middle" x="556.5" y="-62" font-family="Helvetica,sans-Serif" font-size="10.00">unordered_map</text>
</a>
</g>
</g>
<!-- Node6&#45;&gt;Node8 -->
<g id="edge8_Node000006_Node000008" class="edge">
<title>Node6&#45;&gt;Node8</title>
<g id="a_edge8_Node000006_Node000008"><a xlink:title=" ">
<path fill="none" stroke="#63b8ff" d="M491.26,-164.85C509.41,-158.03 531.54,-146.67 544.5,-129 553.93,-116.14 556.59,-97.97 557.09,-84.36"/>
<polygon fill="#63b8ff" stroke="#63b8ff" points="560.59,-84.23 557.1,-74.22 553.59,-84.22 560.59,-84.23"/>
</a>
</g>
</g>
<!-- Node9 -->
<g id="Node000009" class="node">
<title>Node9</title>
<g id="a_Node000009"><a xlink:title=" ">
<polygon fill="#e0e0e0" stroke="#999999" points="369,-129 322,-129 322,-110 369,-110 369,-129"/>
<text text-anchor="middle" x="345.5" y="-117" font-family="Helvetica,sans-Serif" font-size="10.00">vector</text>
</a>
</g>
</g>
<!-- Node6&#45;&gt;Node9 -->
<g id="edge9_Node000006_Node000009" class="edge">
<title>Node6&#45;&gt;Node9</title>
<g id="a_edge9_Node000006_Node000009"><a xlink:title=" ">
<path fill="none" stroke="#63b8ff" d="M442.86,-164.98C424.2,-156.46 395.25,-143.23 373.76,-133.41"/>
<polygon fill="#63b8ff" stroke="#63b8ff" points="375.03,-130.14 364.48,-129.17 372.12,-136.51 375.03,-130.14"/>
</a>
</g>
</g>
<!-- Node10 -->
<g id="Node000010" class="node">
<title>Node10</title>
<g id="a_Node000010"><a xlink:href="request_8hpp.html" target="_top" xlink:title=" ">
<polygon fill="white" stroke="#666666" points="733.5,-129 591.5,-129 591.5,-110 733.5,-110 733.5,-129"/>
<text text-anchor="middle" x="662.5" y="-117" font-family="Helvetica,sans-Serif" font-size="10.00">json_rpc/core/request.hpp</text>
</a>
</g>
</g>
<!-- Node6&#45;&gt;Node10 -->
<g id="edge10_Node000006_Node000010" class="edge">
<title>Node6&#45;&gt;Node10</title>
<g id="a_edge10_Node000006_Node000010"><a xlink:title=" ">
<path fill="none" stroke="#63b8ff" d="M493.79,-164.98C528.12,-155.93 582.56,-141.58 620.27,-131.64"/>
<polygon fill="#63b8ff" stroke="#63b8ff" points="621.18,-135.02 629.95,-129.08 619.39,-128.25 621.18,-135.02"/>
</a>
</g>
</g>
<!-- Node6&#45;&gt;Node11 -->
<g id="edge23_Node000006_Node000011" class="edge">
<title>Node6&#45;&gt;Node11</title>
<g id="a_edge23_Node000006_Node000011"><a xlink:title=" ">
<path fill="none" stroke="#63b8ff" d="M539.22,-171.08C612.27,-167.12 714.45,-156.65 742.5,-129 754.07,-117.6 756.05,-98.7 755.6,-84.48"/>
<polygon fill="#63b8ff" stroke="#63b8ff" points="759.08,-84.03 754.86,-74.31 752.1,-84.54 759.08,-84.03"/>
</a>
</g>
</g>
<!-- Node15 -->
<g id="Node000015" class="node">
<title>Node15</title>
<g id="a_Node000015"><a xlink:href="response_8hpp.html" target="_top" xlink:title=" ">
<polygon fill="white" stroke="#666666" points="536,-129 387,-129 387,-110 536,-110 536,-129"/>
<text text-anchor="middle" x="461.5" y="-117" font-family="Helvetica,sans-Serif" font-size="10.00">json_rpc/core/response.hpp</text>
</a>
</g>
</g>
<!-- Node6&#45;&gt;Node15 -->
<g id="edge18_Node000006_Node000015" class="edge">
<title>Node6&#45;&gt;Node15</title>
<g id="a_edge18_Node000006_Node000015"><a xlink:title=" ">
<path fill="none" stroke="#63b8ff" d="M461.5,-164.75C461.5,-157.8 461.5,-147.85 461.5,-139.13"/>
<polygon fill="#63b8ff" stroke="#63b8ff" points="465,-139.09 461.5,-129.09 458,-139.09 465,-139.09"/>
</a>
</g>
</g>
<!-- Node16 -->
<g id="Node000016" class="node">
<title>Node16</title>
<g id="a_Node000016"><a xlink:title=" ">
<polygon fill="#e0e0e0" stroke="#999999" points="265,-129 152,-129 152,-110 265,-110 265,-129"/>
<text text-anchor="middle" x="208.5" y="-117" font-family="Helvetica,sans-Serif" font-size="10.00">BS_thread_pool.hpp</text>
</a>
</g>
</g>
<!-- Node6&#45;&gt;Node16 -->
<g id="edge24_Node000006_Node000016" class="edge">
<title>Node6&#45;&gt;Node16</title>
<g id="a_edge24_Node000006_Node000016"><a xlink:title=" ">
<path fill="none" stroke="#63b8ff" d="M420.85,-164.98C377,-155.8 307.08,-141.15 259.55,-131.19"/>
<polygon fill="#63b8ff" stroke="#63b8ff" points="259.97,-127.71 249.47,-129.08 258.54,-134.56 259.97,-127.71"/>
</a>
</g>
</g>
<!-- Node10&#45;&gt;Node5 -->
<g id="edge12_Node000010_Node000005" class="edge">
<title>Node10&#45;&gt;Node5</title>
<g id="a_edge12_Node000010_Node000005"><a xlink:title=" ">
<path fill="none" stroke="#63b8ff" d="M612.69,-109.98C548.51,-99.01 438.77,-80.25 384.63,-70.99"/>
<polygon fill="#63b8ff" stroke="#63b8ff" points="385.02,-67.51 374.58,-69.27 383.84,-74.41 385.02,-67.51"/>
</a>
</g>
</g>
<!-- Node10&#45;&gt;Node7 -->
<g id="edge11_Node000010_Node000007" class="edge">
<title>Node10&#45;&gt;Node7</title>
<g id="a_edge11_Node000010_Node000007"><a xlink:title=" ">
<path fill="none" stroke="#63b8ff" d="M657.44,-109.57C649.44,-96.14 632.68,-70.65 612.5,-55 593.63,-40.37 569.2,-29.44 549.09,-22.07"/>
<polygon fill="#63b8ff" stroke="#63b8ff" points="550.21,-18.76 539.61,-18.74 547.89,-25.36 550.21,-18.76"/>
</a>
</g>
</g>
<!-- Node10&#45;&gt;Node11 -->
<g id="edge13_Node000010_Node000011" class="edge">
<title>Node10&#45;&gt;Node11</title>
<g id="a_edge13_Node000010_Node000011"><a xlink:title=" ">
<path fill="none" stroke="#63b8ff" d="M677.12,-109.98C691.36,-101.69 713.25,-88.94 729.95,-79.22"/>
<polygon fill="#63b8ff" stroke="#63b8ff" points="731.73,-82.23 738.61,-74.17 728.21,-76.18 731.73,-82.23"/>
</a>
</g>
</g>
<!-- Node11&#45;&gt;Node7 -->
<g id="edge15_Node000011_Node000007" class="edge">
<title>Node11&#45;&gt;Node7</title>
<g id="a_edge15_Node000011_Node000007"><a xlink:title=" ">
<path fill="none" stroke="#63b8ff" d="M714.62,-54.98C669.25,-45.05 594.72,-28.73 549.67,-18.86"/>
<polygon fill="#63b8ff" stroke="#63b8ff" points="550.22,-15.4 539.7,-16.68 548.72,-22.23 550.22,-15.4"/>
</a>
</g>
</g>
<!-- Node12 -->
<g id="Node000012" class="node">
<title>Node12</title>
<g id="a_Node000012"><a xlink:title=" ">
<polygon fill="#e0e0e0" stroke="#999999" points="786,-19 721,-19 721,0 786,0 786,-19"/>
<text text-anchor="middle" x="753.5" y="-7" font-family="Helvetica,sans-Serif" font-size="10.00">functional</text>
</a>
</g>
</g>
<!-- Node11&#45;&gt;Node12 -->
<g id="edge14_Node000011_Node000012" class="edge">
<title>Node11&#45;&gt;Node12</title>
<g id="a_edge14_Node000011_Node000012"><a xlink:title=" ">
<path fill="none" stroke="#63b8ff" d="M753.5,-54.75C753.5,-47.8 753.5,-37.85 753.5,-29.13"/>
<polygon fill="#63b8ff" stroke="#63b8ff" points="757,-29.09 753.5,-19.09 750,-29.09 757,-29.09"/>
</a>
</g>
</g>
<!-- Node13 -->
<g id="Node000013" class="node">
<title>Node13</title>
<g id="a_Node000013"><a xlink:title=" ">
<polygon fill="#e0e0e0" stroke="#999999" points="855,-19 804,-19 804,0 855,0 855,-19"/>
<text text-anchor="middle" x="829.5" y="-7" font-family="Helvetica,sans-Serif" font-size="10.00">variant</text>
</a>
</g>
</g>
<!-- Node11&#45;&gt;Node13 -->
<g id="edge16_Node000011_Node000013" class="edge">
<title>Node11&#45;&gt;Node13</title>
<g id="a_edge16_Node000011_Node000013"><a xlink:title=" ">
<path fill="none" stroke="#63b8ff" d="M765.71,-54.98C777.28,-46.92 794.88,-34.65 808.66,-25.03"/>
<polygon fill="#63b8ff" stroke="#63b8ff" points="810.87,-27.76 817.07,-19.17 806.86,-22.02 810.87,-27.76"/>
</a>
</g>
</g>
<!-- Node14 -->
<g id="Node000014" class="node">
<title>Node14</title>
<g id="a_Node000014"><a xlink:title=" ">
<polygon fill="#e0e0e0" stroke="#999999" points="702.5,-19 592.5,-19 592.5,0 702.5,0 702.5,-19"/>
<text text-anchor="middle" x="647.5" y="-7" font-family="Helvetica,sans-Serif" font-size="10.00">nlohmann/json.hpp</text>
</a>
</g>
</g>
<!-- Node11&#45;&gt;Node14 -->
<g id="edge17_Node000011_Node000014" class="edge">
<title>Node11&#45;&gt;Node14</title>
<g id="a_edge17_Node000011_Node000014"><a xlink:title=" ">
<path fill="none" stroke="#63b8ff" d="M736.47,-54.98C719.57,-46.54 693.44,-33.47 673.86,-23.68"/>
<polygon fill="#63b8ff" stroke="#63b8ff" points="675.35,-20.51 664.84,-19.17 672.22,-26.77 675.35,-20.51"/>
</a>
</g>
</g>
<!-- Node15&#45;&gt;Node5 -->
<g id="edge20_Node000015_Node000005" class="edge">
<title>Node15&#45;&gt;Node5</title>
<g id="a_edge20_Node000015_Node000005"><a xlink:title=" ">
<path fill="none" stroke="#63b8ff" d="M443.99,-109.98C426.53,-101.5 399.49,-88.35 379.33,-78.54"/>
<polygon fill="#63b8ff" stroke="#63b8ff" points="380.86,-75.4 370.33,-74.17 377.79,-81.69 380.86,-75.4"/>
</a>
</g>
</g>
<!-- Node15&#45;&gt;Node7 -->
<g id="edge19_Node000015_Node000007" class="edge">
<title>Node15&#45;&gt;Node7</title>
<g id="a_edge19_Node000015_Node000007"><a xlink:title=" ">
<path fill="none" stroke="#63b8ff" d="M465.59,-109.66C473.8,-91.93 492.41,-51.73 503.25,-28.32"/>
<polygon fill="#63b8ff" stroke="#63b8ff" points="506.47,-29.7 507.49,-19.16 500.11,-26.76 506.47,-29.7"/>
</a>
</g>
</g>
<!-- Node15&#45;&gt;Node8 -->
<g id="edge21_Node000015_Node000008" class="edge">
<title>Node15&#45;&gt;Node8</title>
<g id="a_edge21_Node000015_Node000008"><a xlink:title=" ">
<path fill="none" stroke="#63b8ff" d="M476.76,-109.98C491.63,-101.69 514.48,-88.94 531.92,-79.22"/>
<polygon fill="#63b8ff" stroke="#63b8ff" points="533.93,-82.1 540.96,-74.17 530.52,-75.99 533.93,-82.1"/>
</a>
</g>
</g>
<!-- Node15&#45;&gt;Node11 -->
<g id="edge22_Node000015_Node000011" class="edge">
<title>Node15&#45;&gt;Node11</title>
<g id="a_edge22_Node000015_Node000011"><a xlink:title=" ">
<path fill="none" stroke="#63b8ff" d="M508.41,-109.98C559.56,-100.7 641.42,-85.84 696.3,-75.88"/>
<polygon fill="#63b8ff" stroke="#63b8ff" points="697,-79.31 706.22,-74.08 695.75,-72.42 697,-79.31"/>
</a>
</g>
</g>
<!-- Node17&#45;&gt;Node6 -->
<g id="edge28_Node000017_Node000006" class="edge">
<title>Node17&#45;&gt;Node6</title>
<g id="a_edge28_Node000017_Node000006"><a xlink:title=" ">
<path fill="none" stroke="#63b8ff" d="M669.78,-221.31C622.05,-210.81 555.03,-196.07 510.03,-186.17"/>
<polygon fill="#63b8ff" stroke="#63b8ff" points="510.73,-182.74 500.21,-184.01 509.23,-189.58 510.73,-182.74"/>
</a>
</g>
</g>
<!-- Node17&#45;&gt;Node11 -->
<g id="edge29_Node000017_Node000011" class="edge">
<title>Node17&#45;&gt;Node11</title>
<g id="a_edge29_Node000017_Node000011"><a xlink:title=" ">
<path fill="none" stroke="#63b8ff" d="M730.84,-219.83C734.29,-205.77 740.07,-183.68 746.5,-165 752.15,-148.61 758.1,-146 761.5,-129 763.16,-120.72 762.25,-118.41 761.5,-110 760.74,-101.5 759.18,-92.19 757.64,-84.29"/>
<polygon fill="#63b8ff" stroke="#63b8ff" points="761.03,-83.38 755.56,-74.3 754.18,-84.81 761.03,-83.38"/>
</a>
</g>
</g>
<!-- Node18 -->
<g id="Node000018" class="node">
<title>Node18</title>
<g id="a_Node000018"><a xlink:title=" ">
<polygon fill="#e0e0e0" stroke="#999999" points="805.5,-184 755.5,-184 755.5,-165 805.5,-165 805.5,-184"/>
<text text-anchor="middle" x="780.5" y="-172" font-family="Helvetica,sans-Serif" font-size="10.00">atomic</text>
</a>
</g>
</g>
<!-- Node17&#45;&gt;Node18 -->
<g id="edge26_Node000017_Node000018" class="edge">
<title>Node17&#45;&gt;Node18</title>
<g id="a_edge26_Node000017_Node000018"><a xlink:title=" ">
<path fill="none" stroke="#63b8ff" d="M740.33,-219.84C748.02,-211.35 757.83,-200.52 765.83,-191.69"/>
<polygon fill="#63b8ff" stroke="#63b8ff" points="768.44,-194.03 772.56,-184.27 763.25,-189.33 768.44,-194.03"/>
</a>
</g>
</g>
<!-- Node19 -->
<g id="Node000019" class="node">
<title>Node19</title>
<g id="a_Node000019"><a xlink:title=" ">
<polygon fill="#e0e0e0" stroke="#999999" points="881.5,-184 823.5,-184 823.5,-165 881.5,-165 881.5,-184"/>
<text text-anchor="middle" x="852.5" y="-172" font-family="Helvetica,sans-Serif" font-size="10.00">memory</text>
</a>
</g>
</g>
<!-- Node17&#45;&gt;Node19 -->
<g id="edge27_Node000017_Node000019" class="edge">
<title>Node17&#45;&gt;Node19</title>
<g id="a_edge27_Node000017_Node000019"><a xlink:title=" ">
<path fill="none" stroke="#63b8ff" d="M757.44,-219.99C777.92,-210.4 804.88,-197.79 824.85,-188.44"/>
<polygon fill="#63b8ff" stroke="#63b8ff" points="826.47,-191.55 834.04,-184.14 823.5,-185.21 826.47,-191.55"/>
</a>
</g>
</g>
</g>
</svg>
