<?xml version="1.0" encoding="UTF-8" standalone="no"?>
<!DOCTYPE svg PUBLIC "-//W3C//DTD SVG 1.1//EN"
 "http://www.w3.org/Graphics/SVG/1.1/DTD/svg11.dtd">
<!-- Generated by graphviz version 2.43.0 (0)
 -->
<!-- Title: include/jsonrpc/transports/http_client_transport.hpp Pages: 1 -->
<svg width="429pt" height="214pt"
 viewBox="0.00 0.00 428.50 214.00" xmlns="http://www.w3.org/2000/svg" xmlns:xlink="http://www.w3.org/1999/xlink">
<g id="graph0" class="graph" transform="scale(1 1) rotate(0) translate(4 210)">
<title>include/jsonrpc/transports/http_client_transport.hpp</title>
<!-- Node1 -->
<g id="Node000001" class="node">
<title>Node1</title>
<g id="a_Node000001"><a xlink:title=" ">
<polygon fill="#999999" stroke="#666666" points="215,-206 72,-206 72,-176 215,-176 215,-206"/>
<text text-anchor="start" x="80" y="-194" font-family="Helvetica,sans-Serif" font-size="10.00">include/jsonrpc/transports</text>
<text text-anchor="middle" x="143.5" y="-183" font-family="Helvetica,sans-Serif" font-size="10.00">/http_client_transport.hpp</text>
</a>
</g>
</g>
<!-- Node2 -->
<g id="Node000002" class="node">
<title>Node2</title>
<g id="a_Node000002"><a xlink:title=" ">
<polygon fill="#e0e0e0" stroke="#999999" points="57,-134.5 0,-134.5 0,-115.5 57,-115.5 57,-134.5"/>
<text text-anchor="middle" x="28.5" y="-122.5" font-family="Helvetica,sans-Serif" font-size="10.00">httplib.h</text>
</a>
</g>
</g>
<!-- Node1&#45;&gt;Node2 -->
<g id="edge1_Node000001_Node000002" class="edge">
<title>Node1&#45;&gt;Node2</title>
<g id="a_edge1_Node000001_Node000002"><a xlink:title=" ">
<path fill="none" stroke="#63b8ff" d="M118.26,-175.95C98.72,-165.08 71.82,-150.11 52.57,-139.4"/>
<polygon fill="#63b8ff" stroke="#63b8ff" points="54.24,-136.32 43.8,-134.52 50.84,-142.44 54.24,-136.32"/>
</a>
</g>
</g>
<!-- Node3 -->
<g id="Node000003" class="node">
<title>Node3</title>
<g id="a_Node000003"><a xlink:title=" ">
<polygon fill="#e0e0e0" stroke="#999999" points="119.5,-134.5 75.5,-134.5 75.5,-115.5 119.5,-115.5 119.5,-134.5"/>
<text text-anchor="middle" x="97.5" y="-122.5" font-family="Helvetica,sans-Serif" font-size="10.00">string</text>
</a>
</g>
</g>
<!-- Node1&#45;&gt;Node3 -->
<g id="edge2_Node000001_Node000003" class="edge">
<title>Node1&#45;&gt;Node3</title>
<g id="a_edge2_Node000001_Node000003"><a xlink:title=" ">
<path fill="none" stroke="#63b8ff" d="M133.29,-175.8C126.33,-166.11 117.08,-153.24 109.73,-143.01"/>
<polygon fill="#63b8ff" stroke="#63b8ff" points="112.54,-140.92 103.86,-134.84 106.85,-145.01 112.54,-140.92"/>
</a>
</g>
</g>
<!-- Node4 -->
<g id="Node000004" class="node">
<title>Node4</title>
<g id="a_Node000004"><a xlink:href="client__transport_8hpp.html" target="_top" xlink:title=" ">
<polygon fill="white" stroke="#666666" points="243.5,-140 137.5,-140 137.5,-110 243.5,-110 243.5,-140"/>
<text text-anchor="start" x="145.5" y="-128" font-family="Helvetica,sans-Serif" font-size="10.00">jsonrpc/core/client</text>
<text text-anchor="middle" x="190.5" y="-117" font-family="Helvetica,sans-Serif" font-size="10.00">_transport.hpp</text>
</a>
</g>
</g>
<!-- Node1&#45;&gt;Node4 -->
<g id="edge3_Node000001_Node000004" class="edge">
<title>Node1&#45;&gt;Node4</title>
<g id="a_edge3_Node000001_Node000004"><a xlink:title=" ">
<path fill="none" stroke="#63b8ff" d="M153.93,-175.8C159.83,-167.76 167.35,-157.53 174.03,-148.43"/>
<polygon fill="#63b8ff" stroke="#63b8ff" points="177,-150.3 180.1,-140.16 171.36,-146.15 177,-150.3"/>
</a>
</g>
</g>
<!-- Node5 -->
<g id="Node000005" class="node">
<title>Node5</title>
<g id="a_Node000005"><a xlink:href="types_8hpp.html" target="_top" xlink:title=" ">
<polygon fill="white" stroke="#666666" points="294,-74 167,-74 167,-55 294,-55 294,-74"/>
<text text-anchor="middle" x="230.5" y="-62" font-family="Helvetica,sans-Serif" font-size="10.00">jsonrpc/core/types.hpp</text>
</a>
</g>
</g>
<!-- Node1&#45;&gt;Node5 -->
<g id="edge9_Node000001_Node000005" class="edge">
<title>Node1&#45;&gt;Node5</title>
<g id="a_edge9_Node000001_Node000005"><a xlink:title=" ">
<path fill="none" stroke="#63b8ff" d="M204.22,-176C222.93,-168.53 241.48,-157.17 252.5,-140 263.82,-122.35 253.28,-98.66 243.25,-82.77"/>
<polygon fill="#63b8ff" stroke="#63b8ff" points="246.09,-80.73 237.57,-74.43 240.3,-84.67 246.09,-80.73"/>
</a>
</g>
</g>
<!-- Node4&#45;&gt;Node5 -->
<g id="edge4_Node000004_Node000005" class="edge">
<title>Node4&#45;&gt;Node5</title>
<g id="a_edge4_Node000004_Node000005"><a xlink:title=" ">
<path fill="none" stroke="#63b8ff" d="M200.18,-109.84C205.75,-101.69 212.79,-91.4 218.68,-82.78"/>
<polygon fill="#63b8ff" stroke="#63b8ff" points="221.75,-84.5 224.51,-74.27 215.97,-80.55 221.75,-84.5"/>
</a>
</g>
</g>
<!-- Node6 -->
<g id="Node000006" class="node">
<title>Node6</title>
<g id="a_Node000006"><a xlink:title=" ">
<polygon fill="#e0e0e0" stroke="#999999" points="148,-19 83,-19 83,0 148,0 148,-19"/>
<text text-anchor="middle" x="115.5" y="-7" font-family="Helvetica,sans-Serif" font-size="10.00">functional</text>
</a>
</g>
</g>
<!-- Node5&#45;&gt;Node6 -->
<g id="edge5_Node000005_Node000006" class="edge">
<title>Node5&#45;&gt;Node6</title>
<g id="a_edge5_Node000005_Node000006"><a xlink:title=" ">
<path fill="none" stroke="#63b8ff" d="M212.02,-54.98C193.52,-46.46 164.82,-33.23 143.52,-23.41"/>
<polygon fill="#63b8ff" stroke="#63b8ff" points="144.86,-20.18 134.31,-19.17 141.93,-26.53 144.86,-20.18"/>
</a>
</g>
</g>
<!-- Node7 -->
<g id="Node000007" class="node">
<title>Node7</title>
<g id="a_Node000007"><a xlink:title=" ">
<polygon fill="#e0e0e0" stroke="#999999" points="222.5,-19 166.5,-19 166.5,0 222.5,0 222.5,-19"/>
<text text-anchor="middle" x="194.5" y="-7" font-family="Helvetica,sans-Serif" font-size="10.00">optional</text>
</a>
</g>
</g>
<!-- Node5&#45;&gt;Node7 -->
<g id="edge6_Node000005_Node000007" class="edge">
<title>Node5&#45;&gt;Node7</title>
<g id="a_edge6_Node000005_Node000007"><a xlink:title=" ">
<path fill="none" stroke="#63b8ff" d="M224.56,-54.75C219.52,-47.34 212.16,-36.5 205.99,-27.41"/>
<polygon fill="#63b8ff" stroke="#63b8ff" points="208.85,-25.39 200.33,-19.09 203.06,-29.33 208.85,-25.39"/>
</a>
</g>
</g>
<!-- Node8 -->
<g id="Node000008" class="node">
<title>Node8</title>
<g id="a_Node000008"><a xlink:title=" ">
<polygon fill="#e0e0e0" stroke="#999999" points="292,-19 241,-19 241,0 292,0 292,-19"/>
<text text-anchor="middle" x="266.5" y="-7" font-family="Helvetica,sans-Serif" font-size="10.00">variant</text>
</a>
</g>
</g>
<!-- Node5&#45;&gt;Node8 -->
<g id="edge7_Node000005_Node000008" class="edge">
<title>Node5&#45;&gt;Node8</title>
<g id="a_edge7_Node000005_Node000008"><a xlink:title=" ">
<path fill="none" stroke="#63b8ff" d="M236.44,-54.75C241.48,-47.34 248.84,-36.5 255.01,-27.41"/>
<polygon fill="#63b8ff" stroke="#63b8ff" points="257.94,-29.33 260.67,-19.09 252.15,-25.39 257.94,-29.33"/>
</a>
</g>
</g>
<!-- Node9 -->
<g id="Node000009" class="node">
<title>Node9</title>
<g id="a_Node000009"><a xlink:title=" ">
<polygon fill="#e0e0e0" stroke="#999999" points="420.5,-19 310.5,-19 310.5,0 420.5,0 420.5,-19"/>
<text text-anchor="middle" x="365.5" y="-7" font-family="Helvetica,sans-Serif" font-size="10.00">nlohmann/json.hpp</text>
</a>
</g>
</g>
<!-- Node5&#45;&gt;Node9 -->
<g id="edge8_Node000005_Node000009" class="edge">
<title>Node5&#45;&gt;Node9</title>
<g id="a_edge8_Node000005_Node000009"><a xlink:title=" ">
<path fill="none" stroke="#63b8ff" d="M252.19,-54.98C274.3,-46.3 308.82,-32.75 333.95,-22.88"/>
<polygon fill="#63b8ff" stroke="#63b8ff" points="335.39,-26.08 343.42,-19.17 332.83,-19.57 335.39,-26.08"/>
</a>
</g>
</g>
</g>
</svg>
