<?xml version="1.0" encoding="UTF-8" standalone="no"?>
<!DOCTYPE svg PUBLIC "-//W3C//DTD SVG 1.1//EN"
 "http://www.w3.org/Graphics/SVG/1.1/DTD/svg11.dtd">
<!-- Generated by graphviz version 2.43.0 (0)
 -->
<!-- Title: Graphical Class Hierarchy Pages: 1 -->
<svg width="361pt" height="182pt"
 viewBox="0.00 0.00 361.00 182.00" xmlns="http://www.w3.org/2000/svg" xmlns:xlink="http://www.w3.org/1999/xlink">
<g id="graph0" class="graph" transform="scale(1 1) rotate(0) translate(4 178)">
<title>Graphical Class Hierarchy</title>
<!-- Node0 -->
<g id="Node000000" class="node">
<title>Node0</title>
<g id="a_Node000000"><a xlink:href="classjsonrpc_1_1client_1_1transports_1_1ClientTransport.html" target="_top" xlink:title="Base class for JSON&#45;RPC client transport.">
<polygon fill="white" stroke="#666666" points="148,-150 8,-150 8,-120 148,-120 148,-150"/>
<text text-anchor="start" x="16" y="-138" font-family="Helvetica,sans-Serif" font-size="10.00">jsonrpc::client::transports</text>
<text text-anchor="middle" x="78" y="-127" font-family="Helvetica,sans-Serif" font-size="10.00">::ClientTransport</text>
</a>
</g>
</g>
<!-- Node1 -->
<g id="Node000001" class="node">
<title>Node1</title>
<g id="a_Node000001"><a xlink:href="classjsonrpc_1_1client_1_1transports_1_1FramedStdioClientTransport.html" target="_top" xlink:title="Transport layer using framed messaging over standard I/O for JSON&#45;RPC communication.">
<polygon fill="white" stroke="#666666" points="351.5,-126 193.5,-126 193.5,-96 351.5,-96 351.5,-126"/>
<text text-anchor="start" x="201.5" y="-114" font-family="Helvetica,sans-Serif" font-size="10.00">jsonrpc::client::transports</text>
<text text-anchor="middle" x="272.5" y="-103" font-family="Helvetica,sans-Serif" font-size="10.00">::FramedStdioClientTransport</text>
</a>
</g>
</g>
<!-- Node0&#45;&gt;Node1 -->
<g id="edge1_Node000000_Node000001" class="edge">
<title>Node0&#45;&gt;Node1</title>
<g id="a_edge1_Node000000_Node000001"><a xlink:title=" ">
<path fill="none" stroke="#63b8ff" d="M158.31,-125.11C169.91,-123.67 181.84,-122.18 193.42,-120.74"/>
<polygon fill="#63b8ff" stroke="#63b8ff" points="157.72,-121.66 148.22,-126.37 158.58,-128.61 157.72,-121.66"/>
</a>
</g>
</g>
<!-- Node6 -->
<g id="Node000006" class="node">
<title>Node6</title>
<g id="a_Node000006"><a xlink:href="classjsonrpc_1_1client_1_1transports_1_1StdioClientTransport.html" target="_top" xlink:title="Transport layer using standard I/O for JSON&#45;RPC communication.">
<polygon fill="white" stroke="#666666" points="342.5,-174 202.5,-174 202.5,-144 342.5,-144 342.5,-174"/>
<text text-anchor="start" x="210.5" y="-162" font-family="Helvetica,sans-Serif" font-size="10.00">jsonrpc::client::transports</text>
<text text-anchor="middle" x="272.5" y="-151" font-family="Helvetica,sans-Serif" font-size="10.00">::StdioClientTransport</text>
</a>
</g>
</g>
<!-- Node0&#45;&gt;Node6 -->
<g id="edge2_Node000000_Node000006" class="edge">
<title>Node0&#45;&gt;Node6</title>
<g id="a_edge2_Node000000_Node000006"><a xlink:title=" ">
<path fill="none" stroke="#63b8ff" d="M158.23,-144.88C172.83,-146.7 187.97,-148.59 202.24,-150.37"/>
<polygon fill="#63b8ff" stroke="#63b8ff" points="158.58,-141.39 148.22,-143.63 157.72,-148.34 158.58,-141.39"/>
</a>
</g>
</g>
<!-- Node2 -->
<g id="Node000002" class="node">
<title>Node2</title>
<g id="a_Node000002"><a xlink:href="classjsonrpc_1_1common_1_1transports_1_1FramedTransport.html" target="_top" xlink:title="Base class for framed transport mechanisms.">
<polygon fill="white" stroke="#666666" points="156,-78 0,-78 0,-48 156,-48 156,-78"/>
<text text-anchor="start" x="8" y="-66" font-family="Helvetica,sans-Serif" font-size="10.00">jsonrpc::common::transports</text>
<text text-anchor="middle" x="78" y="-55" font-family="Helvetica,sans-Serif" font-size="10.00">::FramedTransport</text>
</a>
</g>
</g>
<!-- Node2&#45;&gt;Node1 -->
<g id="edge3_Node000002_Node000001" class="edge">
<title>Node2&#45;&gt;Node1</title>
<g id="a_edge3_Node000002_Node000001"><a xlink:title=" ">
<path fill="none" stroke="darkgreen" d="M149.23,-80.51C169.59,-85.59 191.64,-91.09 211.33,-96"/>
<polygon fill="darkgreen" stroke="darkgreen" points="149.93,-77.08 139.38,-78.06 148.24,-83.87 149.93,-77.08"/>
</a>
</g>
</g>
<!-- Node3 -->
<g id="Node000003" class="node">
<title>Node3</title>
<g id="a_Node000003"><a xlink:href="classjsonrpc_1_1server_1_1transports_1_1FramedStdioServerTransport.html" target="_top" xlink:title="Server transport using framed stdio for communication.">
<polygon fill="white" stroke="#666666" points="353,-78 192,-78 192,-48 353,-48 353,-78"/>
<text text-anchor="start" x="200" y="-66" font-family="Helvetica,sans-Serif" font-size="10.00">jsonrpc::server::transports</text>
<text text-anchor="middle" x="272.5" y="-55" font-family="Helvetica,sans-Serif" font-size="10.00">::FramedStdioServerTransport</text>
</a>
</g>
</g>
<!-- Node2&#45;&gt;Node3 -->
<g id="edge4_Node000002_Node000003" class="edge">
<title>Node2&#45;&gt;Node3</title>
<g id="a_edge4_Node000002_Node000003"><a xlink:title=" ">
<path fill="none" stroke="darkgreen" d="M166.43,-63C174.87,-63 183.41,-63 191.78,-63"/>
<polygon fill="darkgreen" stroke="darkgreen" points="166.19,-59.5 156.19,-63 166.19,-66.5 166.19,-59.5"/>
</a>
</g>
</g>
<!-- Node4 -->
<g id="Node000004" class="node">
<title>Node4</title>
<g id="a_Node000004"><a xlink:href="classjsonrpc_1_1server_1_1transports_1_1ServerTransport.html" target="_top" xlink:title="Abstract base class for server transport mechanisms.">
<polygon fill="white" stroke="#666666" points="150,-30 6,-30 6,0 150,0 150,-30"/>
<text text-anchor="start" x="14" y="-18" font-family="Helvetica,sans-Serif" font-size="10.00">jsonrpc::server::transports</text>
<text text-anchor="middle" x="78" y="-7" font-family="Helvetica,sans-Serif" font-size="10.00">::ServerTransport</text>
</a>
</g>
</g>
<!-- Node4&#45;&gt;Node3 -->
<g id="edge5_Node000004_Node000003" class="edge">
<title>Node4&#45;&gt;Node3</title>
<g id="a_edge5_Node000004_Node000003"><a xlink:title=" ">
<path fill="none" stroke="#63b8ff" d="M149.23,-32.51C169.59,-37.59 191.64,-43.09 211.33,-48"/>
<polygon fill="#63b8ff" stroke="#63b8ff" points="149.93,-29.08 139.38,-30.06 148.24,-35.87 149.93,-29.08"/>
</a>
</g>
</g>
<!-- Node5 -->
<g id="Node000005" class="node">
<title>Node5</title>
<g id="a_Node000005"><a xlink:href="classjsonrpc_1_1server_1_1transports_1_1StdioServerTransport.html" target="_top" xlink:title="Server transport using stdio for communication.">
<polygon fill="white" stroke="#666666" points="344.5,-30 200.5,-30 200.5,0 344.5,0 344.5,-30"/>
<text text-anchor="start" x="208.5" y="-18" font-family="Helvetica,sans-Serif" font-size="10.00">jsonrpc::server::transports</text>
<text text-anchor="middle" x="272.5" y="-7" font-family="Helvetica,sans-Serif" font-size="10.00">::StdioServerTransport</text>
</a>
</g>
</g>
<!-- Node4&#45;&gt;Node5 -->
<g id="edge6_Node000004_Node000005" class="edge">
<title>Node4&#45;&gt;Node5</title>
<g id="a_edge6_Node000004_Node000005"><a xlink:title=" ">
<path fill="none" stroke="#63b8ff" d="M160.23,-15C173.56,-15 187.28,-15 200.34,-15"/>
<polygon fill="#63b8ff" stroke="#63b8ff" points="160.13,-11.5 150.13,-15 160.13,-18.5 160.13,-11.5"/>
</a>
</g>
</g>
</g>
</svg>
