<?xml version="1.0" encoding="UTF-8" standalone="no"?>
<!DOCTYPE svg PUBLIC "-//W3C//DTD SVG 1.1//EN"
 "http://www.w3.org/Graphics/SVG/1.1/DTD/svg11.dtd">
<!-- Generated by graphviz version 2.43.0 (0)
 -->
<!-- Title: Graphical Class Hierarchy Pages: 1 -->
<svg width="353pt" height="235pt"
 viewBox="0.00 0.00 353.00 235.00" xmlns="http://www.w3.org/2000/svg" xmlns:xlink="http://www.w3.org/1999/xlink">
<g id="graph0" class="graph" transform="scale(1 1) rotate(0) translate(4 231)">
<title>Graphical Class Hierarchy</title>
<!-- Node0 -->
<g id="Node000000" class="node">
<title>Node0</title>
<g id="a_Node000000"><a xlink:href="classjson__rpc_1_1ClientTransport.html" target="_top" xlink:title="An abstract class representing the transport mechanism for JSON&#45;RPC client.">
<polygon fill="white" stroke="#666666" points="141,-190 4,-190 4,-171 141,-171 141,-190"/>
<text text-anchor="middle" x="72.5" y="-178" font-family="Helvetica,sans-Serif" font-size="10.00">json_rpc::ClientTransport</text>
</a>
</g>
</g>
<!-- Node1 -->
<g id="Node000001" class="node">
<title>Node1</title>
<g id="a_Node000001"><a xlink:href="classjson__rpc_1_1FramedStdioClientTransport.html" target="_top" xlink:title="Client transport using framed stdio for communication.">
<polygon fill="white" stroke="#666666" points="339.5,-152.5 186.5,-152.5 186.5,-122.5 339.5,-122.5 339.5,-152.5"/>
<text text-anchor="start" x="194.5" y="-140.5" font-family="Helvetica,sans-Serif" font-size="10.00">json_rpc::FramedStdioClient</text>
<text text-anchor="middle" x="263" y="-129.5" font-family="Helvetica,sans-Serif" font-size="10.00">Transport</text>
</a>
</g>
</g>
<!-- Node0&#45;&gt;Node1 -->
<g id="edge1_Node000000_Node000001" class="edge">
<title>Node0&#45;&gt;Node1</title>
<g id="a_edge1_Node000000_Node000001"><a xlink:title=" ">
<path fill="none" stroke="#63b8ff" d="M125.12,-168.72C147.07,-163.72 172.92,-157.82 196.22,-152.51"/>
<polygon fill="#63b8ff" stroke="#63b8ff" points="124.31,-165.32 115.33,-170.96 125.86,-172.15 124.31,-165.32"/>
</a>
</g>
</g>
<!-- Node7 -->
<g id="Node000007" class="node">
<title>Node7</title>
<g id="a_Node000007"><a xlink:href="classjson__rpc_1_1HttpClientTransport.html" target="_top" xlink:title="Client transport using HTTP for communication.">
<polygon fill="white" stroke="#666666" points="342,-227 184,-227 184,-208 342,-208 342,-227"/>
<text text-anchor="middle" x="263" y="-215" font-family="Helvetica,sans-Serif" font-size="10.00">json_rpc::HttpClientTransport</text>
</a>
</g>
</g>
<!-- Node0&#45;&gt;Node7 -->
<g id="edge2_Node000000_Node000007" class="edge">
<title>Node0&#45;&gt;Node7</title>
<g id="a_edge2_Node000000_Node000007"><a xlink:title=" ">
<path fill="none" stroke="#63b8ff" d="M132.17,-192.02C158.22,-197.13 188.52,-203.08 213.29,-207.94"/>
<polygon fill="#63b8ff" stroke="#63b8ff" points="132.53,-188.52 122.04,-190.03 131.18,-195.39 132.53,-188.52"/>
</a>
</g>
</g>
<!-- Node8 -->
<g id="Node000008" class="node">
<title>Node8</title>
<g id="a_Node000008"><a xlink:href="classjson__rpc_1_1StdioClientTransport.html" target="_top" xlink:title="Client transport using stdio for communication.">
<polygon fill="white" stroke="#666666" points="343.5,-190 182.5,-190 182.5,-171 343.5,-171 343.5,-190"/>
<text text-anchor="middle" x="263" y="-178" font-family="Helvetica,sans-Serif" font-size="10.00">json_rpc::StdioClientTransport</text>
</a>
</g>
</g>
<!-- Node0&#45;&gt;Node8 -->
<g id="edge3_Node000000_Node000008" class="edge">
<title>Node0&#45;&gt;Node8</title>
<g id="a_edge3_Node000000_Node000008"><a xlink:title=" ">
<path fill="none" stroke="#63b8ff" d="M151.21,-180.5C161.51,-180.5 172.08,-180.5 182.42,-180.5"/>
<polygon fill="#63b8ff" stroke="#63b8ff" points="151.02,-177 141.02,-180.5 151.02,-184 151.02,-177"/>
</a>
</g>
</g>
<!-- Node2 -->
<g id="Node000002" class="node">
<title>Node2</title>
<g id="a_Node000002"><a xlink:href="classjson__rpc_1_1FramedTransport.html" target="_top" xlink:title="Base class for framed transport mechanisms.">
<polygon fill="white" stroke="#666666" points="145,-123 0,-123 0,-104 145,-104 145,-123"/>
<text text-anchor="middle" x="72.5" y="-111" font-family="Helvetica,sans-Serif" font-size="10.00">json_rpc::FramedTransport</text>
</a>
</g>
</g>
<!-- Node2&#45;&gt;Node1 -->
<g id="edge4_Node000002_Node000001" class="edge">
<title>Node2&#45;&gt;Node1</title>
<g id="a_edge4_Node000002_Node000001"><a xlink:title=" ">
<path fill="none" stroke="darkgreen" d="M154.97,-123.87C165.42,-125.2 176.08,-126.56 186.44,-127.88"/>
<polygon fill="darkgreen" stroke="darkgreen" points="155.39,-120.4 145.03,-122.61 154.51,-127.34 155.39,-120.4"/>
</a>
</g>
</g>
<!-- Node3 -->
<g id="Node000003" class="node">
<title>Node3</title>
<g id="a_Node000003"><a xlink:href="classjson__rpc_1_1FramedStdioServerTransport.html" target="_top" xlink:title="Server transport using framed stdio for communication.">
<polygon fill="white" stroke="#666666" points="341,-104.5 185,-104.5 185,-74.5 341,-74.5 341,-104.5"/>
<text text-anchor="start" x="193" y="-92.5" font-family="Helvetica,sans-Serif" font-size="10.00">json_rpc::FramedStdioServer</text>
<text text-anchor="middle" x="263" y="-81.5" font-family="Helvetica,sans-Serif" font-size="10.00">Transport</text>
</a>
</g>
</g>
<!-- Node2&#45;&gt;Node3 -->
<g id="edge5_Node000002_Node000003" class="edge">
<title>Node2&#45;&gt;Node3</title>
<g id="a_edge5_Node000002_Node000003"><a xlink:title=" ">
<path fill="none" stroke="darkgreen" d="M155.21,-103.1C165.05,-101.84 175.08,-100.57 184.86,-99.32"/>
<polygon fill="darkgreen" stroke="darkgreen" points="154.51,-99.66 145.03,-104.39 155.39,-106.6 154.51,-99.66"/>
</a>
</g>
</g>
<!-- Node4 -->
<g id="Node000004" class="node">
<title>Node4</title>
<g id="a_Node000004"><a xlink:href="classjson__rpc_1_1ServerTransport.html" target="_top" xlink:title="Abstract base class for server transport mechanisms.">
<polygon fill="white" stroke="#666666" points="142.5,-56 2.5,-56 2.5,-37 142.5,-37 142.5,-56"/>
<text text-anchor="middle" x="72.5" y="-44" font-family="Helvetica,sans-Serif" font-size="10.00">json_rpc::ServerTransport</text>
</a>
</g>
</g>
<!-- Node4&#45;&gt;Node3 -->
<g id="edge6_Node000004_Node000003" class="edge">
<title>Node4&#45;&gt;Node3</title>
<g id="a_edge6_Node000004_Node000003"><a xlink:title=" ">
<path fill="none" stroke="#63b8ff" d="M125.12,-58.28C147.07,-63.28 172.92,-69.18 196.22,-74.49"/>
<polygon fill="#63b8ff" stroke="#63b8ff" points="125.86,-54.85 115.33,-56.04 124.31,-61.68 125.86,-54.85"/>
</a>
</g>
</g>
<!-- Node5 -->
<g id="Node000005" class="node">
<title>Node5</title>
<g id="a_Node000005"><a xlink:href="classjson__rpc_1_1HttpServerTransport.html" target="_top" xlink:title="Server transport using HTTP for communication.">
<polygon fill="white" stroke="#666666" points="343.5,-56 182.5,-56 182.5,-37 343.5,-37 343.5,-56"/>
<text text-anchor="middle" x="263" y="-44" font-family="Helvetica,sans-Serif" font-size="10.00">json_rpc::HttpServerTransport</text>
</a>
</g>
</g>
<!-- Node4&#45;&gt;Node5 -->
<g id="edge7_Node000004_Node000005" class="edge">
<title>Node4&#45;&gt;Node5</title>
<g id="a_edge7_Node000004_Node000005"><a xlink:title=" ">
<path fill="none" stroke="#63b8ff" d="M152.73,-46.5C162.53,-46.5 172.55,-46.5 182.36,-46.5"/>
<polygon fill="#63b8ff" stroke="#63b8ff" points="152.62,-43 142.62,-46.5 152.62,-50 152.62,-43"/>
</a>
</g>
</g>
<!-- Node6 -->
<g id="Node000006" class="node">
<title>Node6</title>
<g id="a_Node000006"><a xlink:href="classjson__rpc_1_1StdioServerTransport.html" target="_top" xlink:title="Server transport using stdio for communication.">
<polygon fill="white" stroke="#666666" points="345,-19 181,-19 181,0 345,0 345,-19"/>
<text text-anchor="middle" x="263" y="-7" font-family="Helvetica,sans-Serif" font-size="10.00">json_rpc::StdioServerTransport</text>
</a>
</g>
</g>
<!-- Node4&#45;&gt;Node6 -->
<g id="edge8_Node000004_Node000006" class="edge">
<title>Node4&#45;&gt;Node6</title>
<g id="a_edge8_Node000004_Node000006"><a xlink:title=" ">
<path fill="none" stroke="#63b8ff" d="M132.17,-34.98C158.22,-29.87 188.52,-23.92 213.29,-19.06"/>
<polygon fill="#63b8ff" stroke="#63b8ff" points="131.18,-31.61 122.04,-36.97 132.53,-38.48 131.18,-31.61"/>
</a>
</g>
</g>
</g>
</svg>
