<?xml version="1.0" encoding="UTF-8" standalone="no"?>
<!DOCTYPE svg PUBLIC "-//W3C//DTD SVG 1.1//EN"
 "http://www.w3.org/Graphics/SVG/1.1/DTD/svg11.dtd">
<!-- Generated by graphviz version 2.43.0 (0)
 -->
<!-- Title: Graphical Class Hierarchy Pages: 1 -->
<svg width="438pt" height="155pt"
 viewBox="0.00 0.00 438.00 155.00" xmlns="http://www.w3.org/2000/svg" xmlns:xlink="http://www.w3.org/1999/xlink">
<g id="graph0" class="graph" transform="scale(1 1) rotate(0) translate(4 151)">
<title>Graphical Class Hierarchy</title>
<!-- Node0 -->
<g id="Node000000" class="node">
<title>Node0</title>
<g id="a_Node000000"><a xlink:href="classjsonrpc_1_1transport_1_1FramedTransport.html" target="_top" xlink:title="Base class for framed transport mechanisms.">
<polygon fill="white" stroke="#666666" points="104,-147 0,-147 0,-117 104,-117 104,-147"/>
<text text-anchor="start" x="8" y="-135" font-family="Helvetica,sans-Serif" font-size="10.00">jsonrpc::transport</text>
<text text-anchor="middle" x="52" y="-124" font-family="Helvetica,sans-Serif" font-size="10.00">::FramedTransport</text>
</a>
</g>
</g>
<!-- Node1 -->
<g id="Node000001" class="node">
<title>Node1</title>
<g id="a_Node000001"><a xlink:href="classjsonrpc_1_1transport_1_1FramedPipeTransport.html" target="_top" xlink:title="Transport layer using Asio Unix domain sockets for JSON&#45;RPC communication with framing.">
<polygon fill="white" stroke="#666666" points="430,-123 305,-123 305,-93 430,-93 430,-123"/>
<text text-anchor="start" x="313" y="-111" font-family="Helvetica,sans-Serif" font-size="10.00">jsonrpc::transport</text>
<text text-anchor="middle" x="367.5" y="-100" font-family="Helvetica,sans-Serif" font-size="10.00">::FramedPipeTransport</text>
</a>
</g>
</g>
<!-- Node0&#45;&gt;Node1 -->
<g id="edge2_Node000000_Node000001" class="edge">
<title>Node0&#45;&gt;Node1</title>
<g id="a_edge2_Node000000_Node000001"><a xlink:title=" ">
<path fill="none" stroke="darkgreen" d="M114.43,-137.69C157.82,-140.53 217.22,-142.04 269,-135 286.58,-132.61 305.46,-127.9 321.89,-123.08"/>
<polygon fill="darkgreen" stroke="darkgreen" points="114.54,-134.18 104.32,-136.98 114.05,-141.17 114.54,-134.18"/>
</a>
</g>
</g>
<!-- Node4 -->
<g id="Node000004" class="node">
<title>Node4</title>
<g id="a_Node000004"><a xlink:href="classjsonrpc_1_1transport_1_1FramedStdioTransport.html" target="_top" xlink:title="Transport layer using framed messaging over standard I/O for JSON&#45;RPC communication.">
<polygon fill="white" stroke="#666666" points="269,-126 140,-126 140,-96 269,-96 269,-126"/>
<text text-anchor="start" x="148" y="-114" font-family="Helvetica,sans-Serif" font-size="10.00">jsonrpc::transport</text>
<text text-anchor="middle" x="204.5" y="-103" font-family="Helvetica,sans-Serif" font-size="10.00">::FramedStdioTransport</text>
</a>
</g>
</g>
<!-- Node0&#45;&gt;Node4 -->
<g id="edge3_Node000000_Node000004" class="edge">
<title>Node0&#45;&gt;Node4</title>
<g id="a_edge3_Node000000_Node000004"><a xlink:title=" ">
<path fill="none" stroke="darkgreen" d="M114.44,-123.43C122.82,-122.26 131.43,-121.06 139.85,-119.88"/>
<polygon fill="darkgreen" stroke="darkgreen" points="113.79,-119.98 104.37,-124.83 114.76,-126.92 113.79,-119.98"/>
</a>
</g>
</g>
<!-- Node3 -->
<g id="Node000003" class="node">
<title>Node3</title>
<g id="a_Node000003"><a xlink:href="classjsonrpc_1_1transport_1_1Transport.html" target="_top" xlink:title="Base class for JSON&#45;RPC transport.">
<polygon fill="white" stroke="#666666" points="103,-78 1,-78 1,-48 103,-48 103,-78"/>
<text text-anchor="start" x="9" y="-66" font-family="Helvetica,sans-Serif" font-size="10.00">jsonrpc::transport</text>
<text text-anchor="middle" x="52" y="-55" font-family="Helvetica,sans-Serif" font-size="10.00">::Transport</text>
</a>
</g>
</g>
<!-- Node3&#45;&gt;Node4 -->
<g id="edge4_Node000003_Node000004" class="edge">
<title>Node3&#45;&gt;Node4</title>
<g id="a_edge4_Node000003_Node000004"><a xlink:title=" ">
<path fill="none" stroke="#63b8ff" d="M110.08,-81.21C125.39,-86.09 141.77,-91.31 156.46,-96"/>
<polygon fill="#63b8ff" stroke="#63b8ff" points="110.8,-77.76 100.21,-78.06 108.67,-84.43 110.8,-77.76"/>
</a>
</g>
</g>
<!-- Node2 -->
<g id="Node000002" class="node">
<title>Node2</title>
<g id="a_Node000002"><a xlink:href="classjsonrpc_1_1transport_1_1PipeTransport.html" target="_top" xlink:title="Transport implementation using Unix domain sockets.">
<polygon fill="white" stroke="#666666" points="255.5,-78 153.5,-78 153.5,-48 255.5,-48 255.5,-78"/>
<text text-anchor="start" x="161.5" y="-66" font-family="Helvetica,sans-Serif" font-size="10.00">jsonrpc::transport</text>
<text text-anchor="middle" x="204.5" y="-55" font-family="Helvetica,sans-Serif" font-size="10.00">::PipeTransport</text>
</a>
</g>
</g>
<!-- Node3&#45;&gt;Node2 -->
<g id="edge5_Node000003_Node000002" class="edge">
<title>Node3&#45;&gt;Node2</title>
<g id="a_edge5_Node000003_Node000002"><a xlink:title=" ">
<path fill="none" stroke="#63b8ff" d="M113.15,-63C126.48,-63 140.47,-63 153.35,-63"/>
<polygon fill="#63b8ff" stroke="#63b8ff" points="113.11,-59.5 103.11,-63 113.11,-66.5 113.11,-59.5"/>
</a>
</g>
</g>
<!-- Node5 -->
<g id="Node000005" class="node">
<title>Node5</title>
<g id="a_Node000005"><a xlink:href="classjsonrpc_1_1transport_1_1StdioTransport.html" target="_top" xlink:title="Transport layer using standard I/O for JSON&#45;RPC communication.">
<polygon fill="white" stroke="#666666" points="255.5,-30 153.5,-30 153.5,0 255.5,0 255.5,-30"/>
<text text-anchor="start" x="161.5" y="-18" font-family="Helvetica,sans-Serif" font-size="10.00">jsonrpc::transport</text>
<text text-anchor="middle" x="204.5" y="-7" font-family="Helvetica,sans-Serif" font-size="10.00">::StdioTransport</text>
</a>
</g>
</g>
<!-- Node3&#45;&gt;Node5 -->
<g id="edge7_Node000003_Node000005" class="edge">
<title>Node3&#45;&gt;Node5</title>
<g id="a_edge7_Node000003_Node000005"><a xlink:title=" ">
<path fill="none" stroke="#63b8ff" d="M110.08,-44.79C125.39,-39.91 141.77,-34.69 156.46,-30"/>
<polygon fill="#63b8ff" stroke="#63b8ff" points="108.67,-41.57 100.21,-47.94 110.8,-48.24 108.67,-41.57"/>
</a>
</g>
</g>
<!-- Node2&#45;&gt;Node1 -->
<g id="edge6_Node000002_Node000001" class="edge">
<title>Node2&#45;&gt;Node1</title>
<g id="a_edge6_Node000002_Node000001"><a xlink:title=" ">
<path fill="none" stroke="#63b8ff" d="M265.52,-79.78C280.95,-84.09 297.46,-88.7 312.56,-92.92"/>
<polygon fill="#63b8ff" stroke="#63b8ff" points="266.13,-76.31 255.56,-76.99 264.25,-83.05 266.13,-76.31"/>
</a>
</g>
</g>
</g>
</svg>
