<?xml version="1.0" encoding="UTF-8" standalone="no"?>
<!DOCTYPE svg PUBLIC "-//W3C//DTD SVG 1.1//EN"
 "http://www.w3.org/Graphics/SVG/1.1/DTD/svg11.dtd">
<!-- Generated by graphviz version 2.43.0 (0)
 -->
<!-- Title: Graphical Class Hierarchy Pages: 1 -->
<svg width="343pt" height="235pt"
 viewBox="0.00 0.00 343.00 235.00" xmlns="http://www.w3.org/2000/svg" xmlns:xlink="http://www.w3.org/1999/xlink">
<g id="graph0" class="graph" transform="scale(1 1) rotate(0) translate(4 231)">
<title>Graphical Class Hierarchy</title>
<!-- Node0 -->
<g id="Node000000" class="node">
<title>Node0</title>
<g id="a_Node000000"><a xlink:href="classjsonrpc_1_1ClientTransport.html" target="_top" xlink:title="An abstract class representing the transport mechanism for JSON&#45;RPC client.">
<polygon fill="white" stroke="#666666" points="135.5,-190 4.5,-190 4.5,-171 135.5,-171 135.5,-190"/>
<text text-anchor="middle" x="70" y="-178" font-family="Helvetica,sans-Serif" font-size="10.00">jsonrpc::ClientTransport</text>
</a>
</g>
</g>
<!-- Node1 -->
<g id="Node000001" class="node">
<title>Node1</title>
<g id="a_Node000001"><a xlink:href="classjsonrpc_1_1FramedStdioClientTransport.html" target="_top" xlink:title="Client transport using framed stdio for communication.">
<polygon fill="white" stroke="#666666" points="329.5,-152.5 181.5,-152.5 181.5,-122.5 329.5,-122.5 329.5,-152.5"/>
<text text-anchor="start" x="189.5" y="-140.5" font-family="Helvetica,sans-Serif" font-size="10.00">jsonrpc::FramedStdioClient</text>
<text text-anchor="middle" x="255.5" y="-129.5" font-family="Helvetica,sans-Serif" font-size="10.00">Transport</text>
</a>
</g>
</g>
<!-- Node0&#45;&gt;Node1 -->
<g id="edge1_Node000000_Node000001" class="edge">
<title>Node0&#45;&gt;Node1</title>
<g id="a_edge1_Node000000_Node000001"><a xlink:title=" ">
<path fill="none" stroke="#63b8ff" d="M121.54,-168.66C142.84,-163.66 167.89,-157.8 190.46,-152.51"/>
<polygon fill="#63b8ff" stroke="#63b8ff" points="120.66,-165.27 111.72,-170.96 122.26,-172.08 120.66,-165.27"/>
</a>
</g>
</g>
<!-- Node7 -->
<g id="Node000007" class="node">
<title>Node7</title>
<g id="a_Node000007"><a xlink:href="classjsonrpc_1_1HttpClientTransport.html" target="_top" xlink:title="Client transport using HTTP for communication.">
<polygon fill="white" stroke="#666666" points="331.5,-227 179.5,-227 179.5,-208 331.5,-208 331.5,-227"/>
<text text-anchor="middle" x="255.5" y="-215" font-family="Helvetica,sans-Serif" font-size="10.00">jsonrpc::HttpClientTransport</text>
</a>
</g>
</g>
<!-- Node0&#45;&gt;Node7 -->
<g id="edge2_Node000000_Node000007" class="edge">
<title>Node0&#45;&gt;Node7</title>
<g id="a_edge2_Node000000_Node000007"><a xlink:title=" ">
<path fill="none" stroke="#63b8ff" d="M128.11,-192.02C153.47,-197.13 182.97,-203.08 207.09,-207.94"/>
<polygon fill="#63b8ff" stroke="#63b8ff" points="128.75,-188.57 118.26,-190.03 127.37,-195.44 128.75,-188.57"/>
</a>
</g>
</g>
<!-- Node8 -->
<g id="Node000008" class="node">
<title>Node8</title>
<g id="a_Node000008"><a xlink:href="classjsonrpc_1_1StdioClientTransport.html" target="_top" xlink:title="Client transport using stdio for communication.">
<polygon fill="white" stroke="#666666" points="333.5,-190 177.5,-190 177.5,-171 333.5,-171 333.5,-190"/>
<text text-anchor="middle" x="255.5" y="-178" font-family="Helvetica,sans-Serif" font-size="10.00">jsonrpc::StdioClientTransport</text>
</a>
</g>
</g>
<!-- Node0&#45;&gt;Node8 -->
<g id="edge3_Node000000_Node000008" class="edge">
<title>Node0&#45;&gt;Node8</title>
<g id="a_edge3_Node000000_Node000008"><a xlink:title=" ">
<path fill="none" stroke="#63b8ff" d="M145.89,-180.5C156.21,-180.5 166.82,-180.5 177.18,-180.5"/>
<polygon fill="#63b8ff" stroke="#63b8ff" points="145.7,-177 135.7,-180.5 145.7,-184 145.7,-177"/>
</a>
</g>
</g>
<!-- Node2 -->
<g id="Node000002" class="node">
<title>Node2</title>
<g id="a_Node000002"><a xlink:href="classjsonrpc_1_1FramedTransport.html" target="_top" xlink:title="Base class for framed transport mechanisms.">
<polygon fill="white" stroke="#666666" points="140,-123 0,-123 0,-104 140,-104 140,-123"/>
<text text-anchor="middle" x="70" y="-111" font-family="Helvetica,sans-Serif" font-size="10.00">jsonrpc::FramedTransport</text>
</a>
</g>
</g>
<!-- Node2&#45;&gt;Node1 -->
<g id="edge4_Node000002_Node000001" class="edge">
<title>Node2&#45;&gt;Node1</title>
<g id="a_edge4_Node000002_Node000001"><a xlink:title=" ">
<path fill="none" stroke="darkgreen" d="M150.03,-123.84C160.47,-125.2 171.14,-126.6 181.47,-127.95"/>
<polygon fill="darkgreen" stroke="darkgreen" points="150.48,-120.37 140.11,-122.54 149.57,-127.31 150.48,-120.37"/>
</a>
</g>
</g>
<!-- Node3 -->
<g id="Node000003" class="node">
<title>Node3</title>
<g id="a_Node000003"><a xlink:href="classjsonrpc_1_1FramedStdioServerTransport.html" target="_top" xlink:title="Server transport using framed stdio for communication.">
<polygon fill="white" stroke="#666666" points="331,-104.5 180,-104.5 180,-74.5 331,-74.5 331,-104.5"/>
<text text-anchor="start" x="188" y="-92.5" font-family="Helvetica,sans-Serif" font-size="10.00">jsonrpc::FramedStdioServer</text>
<text text-anchor="middle" x="255.5" y="-81.5" font-family="Helvetica,sans-Serif" font-size="10.00">Transport</text>
</a>
</g>
</g>
<!-- Node2&#45;&gt;Node3 -->
<g id="edge5_Node000002_Node000003" class="edge">
<title>Node2&#45;&gt;Node3</title>
<g id="a_edge5_Node000002_Node000003"><a xlink:title=" ">
<path fill="none" stroke="darkgreen" d="M150.28,-103.13C160.12,-101.84 170.16,-100.53 179.93,-99.25"/>
<polygon fill="darkgreen" stroke="darkgreen" points="149.57,-99.69 140.11,-104.46 150.48,-106.63 149.57,-99.69"/>
</a>
</g>
</g>
<!-- Node4 -->
<g id="Node000004" class="node">
<title>Node4</title>
<g id="a_Node000004"><a xlink:href="classjsonrpc_1_1ServerTransport.html" target="_top" xlink:title="Abstract base class for server transport mechanisms.">
<polygon fill="white" stroke="#666666" points="137,-56 3,-56 3,-37 137,-37 137,-56"/>
<text text-anchor="middle" x="70" y="-44" font-family="Helvetica,sans-Serif" font-size="10.00">jsonrpc::ServerTransport</text>
</a>
</g>
</g>
<!-- Node4&#45;&gt;Node3 -->
<g id="edge6_Node000004_Node000003" class="edge">
<title>Node4&#45;&gt;Node3</title>
<g id="a_edge6_Node000004_Node000003"><a xlink:title=" ">
<path fill="none" stroke="#63b8ff" d="M121.54,-58.34C142.84,-63.34 167.89,-69.2 190.46,-74.49"/>
<polygon fill="#63b8ff" stroke="#63b8ff" points="122.26,-54.92 111.72,-56.04 120.66,-61.73 122.26,-54.92"/>
</a>
</g>
</g>
<!-- Node5 -->
<g id="Node000005" class="node">
<title>Node5</title>
<g id="a_Node000005"><a xlink:href="classjsonrpc_1_1HttpServerTransport.html" target="_top" xlink:title="Server transport using HTTP for communication.">
<polygon fill="white" stroke="#666666" points="333,-56 178,-56 178,-37 333,-37 333,-56"/>
<text text-anchor="middle" x="255.5" y="-44" font-family="Helvetica,sans-Serif" font-size="10.00">jsonrpc::HttpServerTransport</text>
</a>
</g>
</g>
<!-- Node4&#45;&gt;Node5 -->
<g id="edge7_Node000004_Node000005" class="edge">
<title>Node4&#45;&gt;Node5</title>
<g id="a_edge7_Node000004_Node000005"><a xlink:title=" ">
<path fill="none" stroke="#63b8ff" d="M147.54,-46.5C157.53,-46.5 167.76,-46.5 177.74,-46.5"/>
<polygon fill="#63b8ff" stroke="#63b8ff" points="147.25,-43 137.25,-46.5 147.25,-50 147.25,-43"/>
</a>
</g>
</g>
<!-- Node6 -->
<g id="Node000006" class="node">
<title>Node6</title>
<g id="a_Node000006"><a xlink:href="classjsonrpc_1_1StdioServerTransport.html" target="_top" xlink:title="Server transport using stdio for communication.">
<polygon fill="white" stroke="#666666" points="335,-19 176,-19 176,0 335,0 335,-19"/>
<text text-anchor="middle" x="255.5" y="-7" font-family="Helvetica,sans-Serif" font-size="10.00">jsonrpc::StdioServerTransport</text>
</a>
</g>
</g>
<!-- Node4&#45;&gt;Node6 -->
<g id="edge8_Node000004_Node000006" class="edge">
<title>Node4&#45;&gt;Node6</title>
<g id="a_edge8_Node000004_Node000006"><a xlink:title=" ">
<path fill="none" stroke="#63b8ff" d="M128.11,-34.98C153.47,-29.87 182.97,-23.92 207.09,-19.06"/>
<polygon fill="#63b8ff" stroke="#63b8ff" points="127.37,-31.56 118.26,-36.97 128.75,-38.43 127.37,-31.56"/>
</a>
</g>
</g>
</g>
</svg>
