<?xml version="1.0" encoding="UTF-8" standalone="no"?>
<!DOCTYPE svg PUBLIC "-//W3C//DTD SVG 1.1//EN"
 "http://www.w3.org/Graphics/SVG/1.1/DTD/svg11.dtd">
<!-- Generated by graphviz version 2.43.0 (0)
 -->
<!-- Title: Graphical Class Hierarchy Pages: 1 -->
<svg width="343pt" height="161pt"
 viewBox="0.00 0.00 343.00 161.00" xmlns="http://www.w3.org/2000/svg" xmlns:xlink="http://www.w3.org/1999/xlink">
<g id="graph0" class="graph" transform="scale(1 1) rotate(0) translate(4 157)">
<title>Graphical Class Hierarchy</title>
<!-- Node0 -->
<g id="Node000000" class="node">
<title>Node0</title>
<g id="a_Node000000"><a xlink:href="classjsonrpc_1_1ClientTransport.html" target="_top" xlink:title="Base class for JSON&#45;RPC client transport.">
<polygon fill="white" stroke="#666666" points="135.5,-131 4.5,-131 4.5,-112 135.5,-112 135.5,-131"/>
<text text-anchor="middle" x="70" y="-119" font-family="Helvetica,sans-Serif" font-size="10.00">jsonrpc::ClientTransport</text>
</a>
</g>
</g>
<!-- Node1 -->
<g id="Node000001" class="node">
<title>Node1</title>
<g id="a_Node000001"><a xlink:href="classjsonrpc_1_1FramedStdioClientTransport.html" target="_top" xlink:title="Transport layer using framed messaging over standard I/O for JSON&#45;RPC communication.">
<polygon fill="white" stroke="#666666" points="329.5,-115.5 181.5,-115.5 181.5,-85.5 329.5,-85.5 329.5,-115.5"/>
<text text-anchor="start" x="189.5" y="-103.5" font-family="Helvetica,sans-Serif" font-size="10.00">jsonrpc::FramedStdioClient</text>
<text text-anchor="middle" x="255.5" y="-92.5" font-family="Helvetica,sans-Serif" font-size="10.00">Transport</text>
</a>
</g>
</g>
<!-- Node0&#45;&gt;Node1 -->
<g id="edge1_Node000000_Node000001" class="edge">
<title>Node0&#45;&gt;Node1</title>
<g id="a_edge1_Node000000_Node000001"><a xlink:title=" ">
<path fill="none" stroke="#63b8ff" d="M145.86,-112.93C157.57,-111.59 169.65,-110.21 181.31,-108.88"/>
<polygon fill="#63b8ff" stroke="#63b8ff" points="145.23,-109.48 135.7,-114.1 146.03,-116.44 145.23,-109.48"/>
</a>
</g>
</g>
<!-- Node6 -->
<g id="Node000006" class="node">
<title>Node6</title>
<g id="a_Node000006"><a xlink:href="classjsonrpc_1_1StdioClientTransport.html" target="_top" xlink:title="Transport layer using standard I/O for JSON&#45;RPC communication.">
<polygon fill="white" stroke="#666666" points="333.5,-153 177.5,-153 177.5,-134 333.5,-134 333.5,-153"/>
<text text-anchor="middle" x="255.5" y="-141" font-family="Helvetica,sans-Serif" font-size="10.00">jsonrpc::StdioClientTransport</text>
</a>
</g>
</g>
<!-- Node0&#45;&gt;Node6 -->
<g id="edge2_Node000000_Node000006" class="edge">
<title>Node0&#45;&gt;Node6</title>
<g id="a_edge2_Node000000_Node000006"><a xlink:title=" ">
<path fill="none" stroke="#63b8ff" d="M145.89,-130.48C156.21,-131.72 166.82,-132.99 177.18,-134.23"/>
<polygon fill="#63b8ff" stroke="#63b8ff" points="146.04,-126.97 135.7,-129.26 145.21,-133.92 146.04,-126.97"/>
</a>
</g>
</g>
<!-- Node2 -->
<g id="Node000002" class="node">
<title>Node2</title>
<g id="a_Node000002"><a xlink:href="classjsonrpc_1_1FramedTransport.html" target="_top" xlink:title="Base class for framed transport mechanisms.">
<polygon fill="white" stroke="#666666" points="140,-78 0,-78 0,-59 140,-59 140,-78"/>
<text text-anchor="middle" x="70" y="-66" font-family="Helvetica,sans-Serif" font-size="10.00">jsonrpc::FramedTransport</text>
</a>
</g>
</g>
<!-- Node2&#45;&gt;Node1 -->
<g id="edge3_Node000002_Node000001" class="edge">
<title>Node2&#45;&gt;Node1</title>
<g id="a_edge3_Node000002_Node000001"><a xlink:title=" ">
<path fill="none" stroke="darkgreen" d="M135.63,-79.77C150.45,-82.36 166.31,-85.12 181.46,-87.76"/>
<polygon fill="darkgreen" stroke="darkgreen" points="136.01,-76.28 125.56,-78.01 134.81,-83.18 136.01,-76.28"/>
</a>
</g>
</g>
<!-- Node3 -->
<g id="Node000003" class="node">
<title>Node3</title>
<g id="a_Node000003"><a xlink:href="classjsonrpc_1_1FramedStdioServerTransport.html" target="_top" xlink:title="Server transport using framed stdio for communication.">
<polygon fill="white" stroke="#666666" points="331,-67.5 180,-67.5 180,-37.5 331,-37.5 331,-67.5"/>
<text text-anchor="start" x="188" y="-55.5" font-family="Helvetica,sans-Serif" font-size="10.00">jsonrpc::FramedStdioServer</text>
<text text-anchor="middle" x="255.5" y="-44.5" font-family="Helvetica,sans-Serif" font-size="10.00">Transport</text>
</a>
</g>
</g>
<!-- Node2&#45;&gt;Node3 -->
<g id="edge4_Node000002_Node000003" class="edge">
<title>Node2&#45;&gt;Node3</title>
<g id="a_edge4_Node000002_Node000003"><a xlink:title=" ">
<path fill="none" stroke="darkgreen" d="M150.28,-61.59C160.12,-60.73 170.16,-59.85 179.93,-59"/>
<polygon fill="darkgreen" stroke="darkgreen" points="149.77,-58.12 140.11,-62.47 150.38,-65.09 149.77,-58.12"/>
</a>
</g>
</g>
<!-- Node4 -->
<g id="Node000004" class="node">
<title>Node4</title>
<g id="a_Node000004"><a xlink:href="classjsonrpc_1_1ServerTransport.html" target="_top" xlink:title="Abstract base class for server transport mechanisms.">
<polygon fill="white" stroke="#666666" points="137,-38 3,-38 3,-19 137,-19 137,-38"/>
<text text-anchor="middle" x="70" y="-26" font-family="Helvetica,sans-Serif" font-size="10.00">jsonrpc::ServerTransport</text>
</a>
</g>
</g>
<!-- Node4&#45;&gt;Node3 -->
<g id="edge5_Node000004_Node000003" class="edge">
<title>Node4&#45;&gt;Node3</title>
<g id="a_edge5_Node000004_Node000003"><a xlink:title=" ">
<path fill="none" stroke="#63b8ff" d="M147.45,-38.5C158.19,-39.9 169.23,-41.35 179.95,-42.75"/>
<polygon fill="#63b8ff" stroke="#63b8ff" points="147.62,-34.99 137.25,-37.16 146.71,-41.93 147.62,-34.99"/>
</a>
</g>
</g>
<!-- Node5 -->
<g id="Node000005" class="node">
<title>Node5</title>
<g id="a_Node000005"><a xlink:href="classjsonrpc_1_1StdioServerTransport.html" target="_top" xlink:title="Server transport using stdio for communication.">
<polygon fill="white" stroke="#666666" points="335,-19 176,-19 176,0 335,0 335,-19"/>
<text text-anchor="middle" x="255.5" y="-7" font-family="Helvetica,sans-Serif" font-size="10.00">jsonrpc::StdioServerTransport</text>
</a>
</g>
</g>
<!-- Node4&#45;&gt;Node5 -->
<g id="edge6_Node000004_Node000005" class="edge">
<title>Node4&#45;&gt;Node5</title>
<g id="a_edge6_Node000004_Node000005"><a xlink:title=" ">
<path fill="none" stroke="#63b8ff" d="M147.35,-20.59C156.77,-19.62 166.4,-18.62 175.85,-17.64"/>
<polygon fill="#63b8ff" stroke="#63b8ff" points="146.83,-17.13 137.25,-21.64 147.56,-24.09 146.83,-17.13"/>
</a>
</g>
</g>
</g>
</svg>
