<?xml version="1.0" encoding="UTF-8" standalone="no"?>
<!DOCTYPE svg PUBLIC "-//W3C//DTD SVG 1.1//EN"
 "http://www.w3.org/Graphics/SVG/1.1/DTD/svg11.dtd">
<!-- Generated by graphviz version 2.43.0 (0)
 -->
<!-- Title: Graphical Class Hierarchy Pages: 1 -->
<svg width="423pt" height="207pt"
 viewBox="0.00 0.00 423.00 207.24" xmlns="http://www.w3.org/2000/svg" xmlns:xlink="http://www.w3.org/1999/xlink">
<g id="graph0" class="graph" transform="scale(1 1) rotate(0) translate(4 203.24)">
<title>Graphical Class Hierarchy</title>
<!-- Node0 -->
<g id="Node000000" class="node">
<title>Node0</title>
<g id="a_Node000000"><a xlink:href="classjsonrpc_1_1transport_1_1FramedTransport.html" target="_top" xlink:title="Base class for framed transport mechanisms.">
<polygon fill="white" stroke="#666666" points="242,-174 138,-174 138,-144 242,-144 242,-174"/>
<text text-anchor="start" x="146" y="-162" font-family="Helvetica,sans-Serif" font-size="10.00">jsonrpc::transport</text>
<text text-anchor="middle" x="190" y="-151" font-family="Helvetica,sans-Serif" font-size="10.00">::FramedTransport</text>
</a>
</g>
</g>
<!-- Node1 -->
<g id="Node000001" class="node">
<title>Node1</title>
<g id="a_Node000001"><a xlink:href="classjsonrpc_1_1transport_1_1FramedPipeTransport.html" target="_top" xlink:title="Transport layer using Asio Unix domain sockets for JSON&#45;RPC communication with framing.">
<polygon fill="white" stroke="#666666" points="409,-54 284,-54 284,-24 409,-24 409,-54"/>
<text text-anchor="start" x="292" y="-42" font-family="Helvetica,sans-Serif" font-size="10.00">jsonrpc::transport</text>
<text text-anchor="middle" x="346.5" y="-31" font-family="Helvetica,sans-Serif" font-size="10.00">::FramedPipeTransport</text>
</a>
</g>
</g>
<!-- Node0&#45;&gt;Node1 -->
<g id="edge2_Node000000_Node000001" class="edge">
<title>Node0&#45;&gt;Node1</title>
<g id="a_edge2_Node000000_Node000001"><a xlink:title=" ">
<path fill="none" stroke="darkgreen" d="M235.47,-139.11C237.72,-137.79 239.91,-136.41 242,-135 277.75,-110.86 313.26,-74.54 331.97,-54.19"/>
<polygon fill="darkgreen" stroke="darkgreen" points="233.7,-136.09 226.62,-143.98 237.07,-142.23 233.7,-136.09"/>
</a>
</g>
</g>
<!-- Node6 -->
<g id="Node000006" class="node">
<title>Node6</title>
<g id="a_Node000006"><a xlink:href="classjsonrpc_1_1transport_1_1FramedSocketTransport.html" target="_top" xlink:title="Transport layer using Asio sockets for JSON&#45;RPC communication with framing.">
<polygon fill="white" stroke="#666666" points="415,-147 278,-147 278,-117 415,-117 415,-147"/>
<text text-anchor="start" x="286" y="-135" font-family="Helvetica,sans-Serif" font-size="10.00">jsonrpc::transport</text>
<text text-anchor="middle" x="346.5" y="-124" font-family="Helvetica,sans-Serif" font-size="10.00">::FramedSocketTransport</text>
</a>
</g>
</g>
<!-- Node0&#45;&gt;Node6 -->
<g id="edge3_Node000000_Node000006" class="edge">
<title>Node0&#45;&gt;Node6</title>
<g id="a_edge3_Node000000_Node000006"><a xlink:title=" ">
<path fill="none" stroke="darkgreen" d="M252.12,-148.32C260.53,-146.85 269.2,-145.33 277.73,-143.84"/>
<polygon fill="darkgreen" stroke="darkgreen" points="251.27,-144.92 242.02,-150.08 252.47,-151.81 251.27,-144.92"/>
</a>
</g>
</g>
<!-- Node4 -->
<g id="Node000004" class="node">
<title>Node4</title>
<g id="a_Node000004"><a xlink:href="classjsonrpc_1_1transport_1_1FramedStdioTransport.html" target="_top" xlink:title="Transport layer using framed messaging over standard I/O for JSON&#45;RPC communication.">
<polygon fill="white" stroke="#666666" points="411,-195 282,-195 282,-165 411,-165 411,-195"/>
<text text-anchor="start" x="290" y="-183" font-family="Helvetica,sans-Serif" font-size="10.00">jsonrpc::transport</text>
<text text-anchor="middle" x="346.5" y="-172" font-family="Helvetica,sans-Serif" font-size="10.00">::FramedStdioTransport</text>
</a>
</g>
</g>
<!-- Node0&#45;&gt;Node4 -->
<g id="edge4_Node000000_Node000004" class="edge">
<title>Node0&#45;&gt;Node4</title>
<g id="a_edge4_Node000000_Node000004"><a xlink:title=" ">
<path fill="none" stroke="darkgreen" d="M252.06,-167.3C261.85,-168.63 272.01,-170.01 281.86,-171.35"/>
<polygon fill="darkgreen" stroke="darkgreen" points="252.4,-163.81 242.02,-165.93 251.45,-170.75 252.4,-163.81"/>
</a>
</g>
</g>
<!-- Node3 -->
<g id="Node000003" class="node">
<title>Node3</title>
<g id="a_Node000003"><a xlink:href="classjsonrpc_1_1transport_1_1Transport.html" target="_top" xlink:title="Base class for JSON&#45;RPC transport.">
<polygon fill="white" stroke="#666666" points="102,-102 0,-102 0,-72 102,-72 102,-102"/>
<text text-anchor="start" x="8" y="-90" font-family="Helvetica,sans-Serif" font-size="10.00">jsonrpc::transport</text>
<text text-anchor="middle" x="51" y="-79" font-family="Helvetica,sans-Serif" font-size="10.00">::Transport</text>
</a>
</g>
</g>
<!-- Node3&#45;&gt;Node4 -->
<g id="edge5_Node000003_Node000004" class="edge">
<title>Node3&#45;&gt;Node4</title>
<g id="a_edge5_Node000003_Node000004"><a xlink:title=" ">
<path fill="none" stroke="#63b8ff" d="M65.24,-110.92C79.68,-134.26 105.17,-168.34 138,-183 183.07,-203.13 239.32,-200.86 281.89,-194.39"/>
<polygon fill="#63b8ff" stroke="#63b8ff" points="68.21,-109.06 60.08,-102.26 62.19,-112.65 68.21,-109.06"/>
</a>
</g>
</g>
<!-- Node2 -->
<g id="Node000002" class="node">
<title>Node2</title>
<g id="a_Node000002"><a xlink:href="classjsonrpc_1_1transport_1_1PipeTransport.html" target="_top" xlink:title="Transport implementation using Unix domain sockets.">
<polygon fill="white" stroke="#666666" points="241,-30 139,-30 139,0 241,0 241,-30"/>
<text text-anchor="start" x="147" y="-18" font-family="Helvetica,sans-Serif" font-size="10.00">jsonrpc::transport</text>
<text text-anchor="middle" x="190" y="-7" font-family="Helvetica,sans-Serif" font-size="10.00">::PipeTransport</text>
</a>
</g>
</g>
<!-- Node3&#45;&gt;Node2 -->
<g id="edge6_Node000003_Node000002" class="edge">
<title>Node3&#45;&gt;Node2</title>
<g id="a_edge6_Node000003_Node000002"><a xlink:title=" ">
<path fill="none" stroke="#63b8ff" d="M86.84,-66.83C102.37,-58.03 120.96,-47.75 138,-39 143.83,-36 150.1,-32.93 156.19,-30.03"/>
<polygon fill="#63b8ff" stroke="#63b8ff" points="85.05,-63.83 78.09,-71.82 88.51,-69.91 85.05,-63.83"/>
</a>
</g>
</g>
<!-- Node5 -->
<g id="Node000005" class="node">
<title>Node5</title>
<g id="a_Node000005"><a xlink:href="classjsonrpc_1_1transport_1_1SocketTransport.html" target="_top" xlink:title="Transport implementation using TCP/IP sockets.">
<polygon fill="white" stroke="#666666" points="241,-126 139,-126 139,-96 241,-96 241,-126"/>
<text text-anchor="start" x="147" y="-114" font-family="Helvetica,sans-Serif" font-size="10.00">jsonrpc::transport</text>
<text text-anchor="middle" x="190" y="-103" font-family="Helvetica,sans-Serif" font-size="10.00">::SocketTransport</text>
</a>
</g>
</g>
<!-- Node3&#45;&gt;Node5 -->
<g id="edge8_Node000003_Node000005" class="edge">
<title>Node3&#45;&gt;Node5</title>
<g id="a_edge8_Node000003_Node000005"><a xlink:title=" ">
<path fill="none" stroke="#63b8ff" d="M112.15,-97.54C121.04,-99.09 130.11,-100.68 138.77,-102.2"/>
<polygon fill="#63b8ff" stroke="#63b8ff" points="112.69,-94.08 102.24,-95.8 111.48,-100.97 112.69,-94.08"/>
</a>
</g>
</g>
<!-- Node7 -->
<g id="Node000007" class="node">
<title>Node7</title>
<g id="a_Node000007"><a xlink:href="classjsonrpc_1_1transport_1_1StdioTransport.html" target="_top" xlink:title="Transport layer using standard I/O for JSON&#45;RPC communication.">
<polygon fill="white" stroke="#666666" points="241,-78 139,-78 139,-48 241,-48 241,-78"/>
<text text-anchor="start" x="147" y="-66" font-family="Helvetica,sans-Serif" font-size="10.00">jsonrpc::transport</text>
<text text-anchor="middle" x="190" y="-55" font-family="Helvetica,sans-Serif" font-size="10.00">::StdioTransport</text>
</a>
</g>
</g>
<!-- Node3&#45;&gt;Node7 -->
<g id="edge10_Node000003_Node000007" class="edge">
<title>Node3&#45;&gt;Node7</title>
<g id="a_edge10_Node000003_Node000007"><a xlink:title=" ">
<path fill="none" stroke="#63b8ff" d="M112.15,-76.46C121.04,-74.91 130.11,-73.32 138.77,-71.8"/>
<polygon fill="#63b8ff" stroke="#63b8ff" points="111.48,-73.03 102.24,-78.2 112.69,-79.92 111.48,-73.03"/>
</a>
</g>
</g>
<!-- Node2&#45;&gt;Node1 -->
<g id="edge7_Node000002_Node000001" class="edge">
<title>Node2&#45;&gt;Node1</title>
<g id="a_edge7_Node000002_Node000001"><a xlink:title=" ">
<path fill="none" stroke="#63b8ff" d="M251.28,-24.36C262.02,-26.03 273.21,-27.77 283.98,-29.44"/>
<polygon fill="#63b8ff" stroke="#63b8ff" points="251.58,-20.87 241.16,-22.79 250.51,-27.79 251.58,-20.87"/>
</a>
</g>
</g>
<!-- Node5&#45;&gt;Node6 -->
<g id="edge9_Node000005_Node000006" class="edge">
<title>Node5&#45;&gt;Node6</title>
<g id="a_edge9_Node000005_Node000006"><a xlink:title=" ">
<path fill="none" stroke="#63b8ff" d="M251.25,-119.19C259.98,-120.38 269.02,-121.6 277.89,-122.81"/>
<polygon fill="#63b8ff" stroke="#63b8ff" points="251.54,-115.7 241.16,-117.82 250.6,-122.63 251.54,-115.7"/>
</a>
</g>
</g>
</g>
</svg>
