<?xml version="1.0" encoding="UTF-8" standalone="no"?>
<!DOCTYPE svg PUBLIC "-//W3C//DTD SVG 1.1//EN"
 "http://www.w3.org/Graphics/SVG/1.1/DTD/svg11.dtd">
<!-- Generated by graphviz version 2.43.0 (0)
 -->
<!-- Title: include/json_rpc/json_rpc.hpp Pages: 1 -->
<svg width="1750pt" height="434pt"
 viewBox="0.00 0.00 1749.50 434.00" xmlns="http://www.w3.org/2000/svg" xmlns:xlink="http://www.w3.org/1999/xlink">
<g id="graph0" class="graph" transform="scale(1 1) rotate(0) translate(4 430)">
<title>include/json_rpc/json_rpc.hpp</title>
<!-- Node1 -->
<g id="Node000001" class="node">
<title>Node1</title>
<g id="a_Node000001"><a xlink:title=" ">
<polygon fill="#999999" stroke="#666666" points="1036,-426 917,-426 917,-396 1036,-396 1036,-426"/>
<text text-anchor="start" x="925" y="-414" font-family="Helvetica,sans-Serif" font-size="10.00">include/json_rpc/json</text>
<text text-anchor="middle" x="976.5" y="-403" font-family="Helvetica,sans-Serif" font-size="10.00">_rpc.hpp</text>
</a>
</g>
</g>
<!-- Node2 -->
<g id="Node000002" class="node">
<title>Node2</title>
<g id="a_Node000002"><a xlink:href="client__transport_8hpp.html" target="_top" xlink:title=" ">
<polygon fill="white" stroke="#666666" points="1463,-140 1352,-140 1352,-110 1463,-110 1463,-140"/>
<text text-anchor="start" x="1360" y="-128" font-family="Helvetica,sans-Serif" font-size="10.00">json_rpc/core/client</text>
<text text-anchor="middle" x="1407.5" y="-117" font-family="Helvetica,sans-Serif" font-size="10.00">_transport.hpp</text>
</a>
</g>
</g>
<!-- Node1&#45;&gt;Node2 -->
<g id="edge1_Node000001_Node000002" class="edge">
<title>Node1&#45;&gt;Node2</title>
<g id="a_edge1_Node000001_Node000002"><a xlink:title=" ">
<path fill="none" stroke="#63b8ff" d="M1036.18,-405.06C1107.88,-398.17 1222.96,-383.78 1258.5,-360 1337,-307.48 1382.67,-198.11 1399.74,-149.8"/>
<polygon fill="#63b8ff" stroke="#63b8ff" points="1403.1,-150.8 1403.04,-140.21 1396.48,-148.53 1403.1,-150.8"/>
</a>
</g>
</g>
<!-- Node3 -->
<g id="Node000003" class="node">
<title>Node3</title>
<g id="a_Node000003"><a xlink:href="types_8hpp.html" target="_top" xlink:title=" ">
<polygon fill="white" stroke="#666666" points="1112.5,-74 980.5,-74 980.5,-55 1112.5,-55 1112.5,-74"/>
<text text-anchor="middle" x="1046.5" y="-62" font-family="Helvetica,sans-Serif" font-size="10.00">json_rpc/core/types.hpp</text>
</a>
</g>
</g>
<!-- Node1&#45;&gt;Node3 -->
<g id="edge30_Node000001_Node000003" class="edge">
<title>Node1&#45;&gt;Node3</title>
<g id="a_edge30_Node000001_Node000003"><a xlink:title=" ">
<path fill="none" stroke="#63b8ff" d="M1036.23,-407.94C1128.55,-403.84 1311.07,-392.1 1462.5,-360 1590.09,-332.95 1741.5,-399.43 1741.5,-269 1741.5,-269 1741.5,-269 1741.5,-195.5 1741.5,-138.7 1698.74,-132.3 1646.5,-110 1554.24,-70.62 1262.68,-65.28 1122.81,-65.07"/>
<polygon fill="#63b8ff" stroke="#63b8ff" points="1122.6,-61.57 1112.6,-65.07 1122.6,-68.57 1122.6,-61.57"/>
</a>
</g>
</g>
<!-- Node8 -->
<g id="Node000008" class="node">
<title>Node8</title>
<g id="a_Node000008"><a xlink:href="dispatcher_8hpp.html" target="_top" xlink:title=" ">
<polygon fill="white" stroke="#666666" points="746,-206 591,-206 591,-187 746,-187 746,-206"/>
<text text-anchor="middle" x="668.5" y="-194" font-family="Helvetica,sans-Serif" font-size="10.00">json_rpc/core/dispatcher.hpp</text>
</a>
</g>
</g>
<!-- Node1&#45;&gt;Node8 -->
<g id="edge7_Node000001_Node000008" class="edge">
<title>Node1&#45;&gt;Node8</title>
<g id="a_edge7_Node000001_Node000008"><a xlink:title=" ">
<path fill="none" stroke="#63b8ff" d="M916.75,-405.56C849.59,-399.37 746.18,-385.89 717.5,-360 675.82,-322.38 669.04,-250.74 668.3,-216.56"/>
<polygon fill="#63b8ff" stroke="#63b8ff" points="671.8,-216.13 668.24,-206.15 664.8,-216.17 671.8,-216.13"/>
</a>
</g>
</g>
<!-- Node12 -->
<g id="Node000012" class="node">
<title>Node12</title>
<g id="a_Node000012"><a xlink:href="request_8hpp.html" target="_top" xlink:title=" ">
<polygon fill="white" stroke="#666666" points="536.5,-134.5 394.5,-134.5 394.5,-115.5 536.5,-115.5 536.5,-134.5"/>
<text text-anchor="middle" x="465.5" y="-122.5" font-family="Helvetica,sans-Serif" font-size="10.00">json_rpc/core/request.hpp</text>
</a>
</g>
</g>
<!-- Node1&#45;&gt;Node12 -->
<g id="edge23_Node000001_Node000012" class="edge">
<title>Node1&#45;&gt;Node12</title>
<g id="a_edge23_Node000001_Node000012"><a xlink:title=" ">
<path fill="none" stroke="#63b8ff" d="M916.97,-408.19C792.2,-403.81 512.28,-390.64 482.5,-360 424.92,-300.76 447.9,-188.52 459.94,-144.43"/>
<polygon fill="#63b8ff" stroke="#63b8ff" points="463.32,-145.35 462.71,-134.77 456.59,-143.42 463.32,-145.35"/>
</a>
</g>
</g>
<!-- Node13 -->
<g id="Node000013" class="node">
<title>Node13</title>
<g id="a_Node000013"><a xlink:href="response_8hpp.html" target="_top" xlink:title=" ">
<polygon fill="white" stroke="#666666" points="149,-134.5 0,-134.5 0,-115.5 149,-115.5 149,-134.5"/>
<text text-anchor="middle" x="74.5" y="-122.5" font-family="Helvetica,sans-Serif" font-size="10.00">json_rpc/core/response.hpp</text>
</a>
</g>
</g>
<!-- Node1&#45;&gt;Node13 -->
<g id="edge24_Node000001_Node000013" class="edge">
<title>Node1&#45;&gt;Node13</title>
<g id="a_edge24_Node000001_Node000013"><a xlink:title=" ">
<path fill="none" stroke="#63b8ff" d="M916.87,-408.29C788.3,-404.04 488.87,-391.06 392.5,-360 256.15,-316.06 130.49,-187.91 88.94,-142.33"/>
<polygon fill="#63b8ff" stroke="#63b8ff" points="91.47,-139.91 82.17,-134.82 86.26,-144.59 91.47,-139.91"/>
</a>
</g>
</g>
<!-- Node15 -->
<g id="Node000015" class="node">
<title>Node15</title>
<g id="a_Node000015"><a xlink:href="server__transport_8hpp.html" target="_top" xlink:title=" ">
<polygon fill="white" stroke="#666666" points="847,-283 732,-283 732,-253 847,-253 847,-283"/>
<text text-anchor="start" x="740" y="-271" font-family="Helvetica,sans-Serif" font-size="10.00">json_rpc/core/server</text>
<text text-anchor="middle" x="789.5" y="-260" font-family="Helvetica,sans-Serif" font-size="10.00">_transport.hpp</text>
</a>
</g>
</g>
<!-- Node1&#45;&gt;Node15 -->
<g id="edge25_Node000001_Node000015" class="edge">
<title>Node1&#45;&gt;Node15</title>
<g id="a_edge25_Node000001_Node000015"><a xlink:title=" ">
<path fill="none" stroke="#63b8ff" d="M916.72,-406.43C851.07,-401.12 751.83,-388.51 728.5,-360 716.96,-345.9 720.7,-335.47 728.5,-319 734.19,-306.99 744.33,-296.9 754.73,-289"/>
<polygon fill="#63b8ff" stroke="#63b8ff" points="756.89,-291.76 763.05,-283.14 752.86,-286.04 756.89,-291.76"/>
</a>
</g>
</g>
<!-- Node18 -->
<g id="Node000018" class="node">
<title>Node18</title>
<g id="a_Node000018"><a xlink:href="server_8hpp.html" target="_top" xlink:title=" ">
<polygon fill="white" stroke="#666666" points="637,-349 492,-349 492,-330 637,-330 637,-349"/>
<text text-anchor="middle" x="564.5" y="-337" font-family="Helvetica,sans-Serif" font-size="10.00">json_rpc/server/server.hpp</text>
</a>
</g>
</g>
<!-- Node1&#45;&gt;Node18 -->
<g id="edge31_Node000001_Node000018" class="edge">
<title>Node1&#45;&gt;Node18</title>
<g id="a_edge31_Node000001_Node000018"><a xlink:title=" ">
<path fill="none" stroke="#63b8ff" d="M916.99,-402.08C851.66,-393.1 743.78,-377.42 651.5,-360 637.92,-357.44 623.24,-354.29 609.87,-351.28"/>
<polygon fill="#63b8ff" stroke="#63b8ff" points="610.47,-347.83 599.94,-349.02 608.91,-354.65 610.47,-347.83"/>
</a>
</g>
</g>
<!-- Node19 -->
<g id="Node000019" class="node">
<title>Node19</title>
<g id="a_Node000019"><a xlink:href="client_8hpp.html" target="_top" xlink:title=" ">
<polygon fill="white" stroke="#666666" points="378.5,-206 240.5,-206 240.5,-187 378.5,-187 378.5,-206"/>
<text text-anchor="middle" x="309.5" y="-194" font-family="Helvetica,sans-Serif" font-size="10.00">json_rpc/client/client.hpp</text>
</a>
</g>
</g>
<!-- Node1&#45;&gt;Node19 -->
<g id="edge37_Node000001_Node000019" class="edge">
<title>Node1&#45;&gt;Node19</title>
<g id="a_edge37_Node000001_Node000019"><a xlink:title=" ">
<path fill="none" stroke="#63b8ff" d="M916.87,-409.87C796.6,-408.72 529.61,-401.41 449.5,-360 385.07,-326.69 337.64,-250 318.64,-215.22"/>
<polygon fill="#63b8ff" stroke="#63b8ff" points="321.64,-213.42 313.85,-206.23 315.46,-216.7 321.64,-213.42"/>
</a>
</g>
</g>
<!-- Node20 -->
<g id="Node000020" class="node">
<title>Node20</title>
<g id="a_Node000020"><a xlink:href="framed__stdio__client__transport_8hpp.html" target="_top" xlink:title=" ">
<polygon fill="white" stroke="#666666" points="1323.5,-217 1207.5,-217 1207.5,-176 1323.5,-176 1323.5,-217"/>
<text text-anchor="start" x="1215.5" y="-205" font-family="Helvetica,sans-Serif" font-size="10.00">json_rpc/transports</text>
<text text-anchor="start" x="1215.5" y="-194" font-family="Helvetica,sans-Serif" font-size="10.00">/framed_stdio_client</text>
<text text-anchor="middle" x="1265.5" y="-183" font-family="Helvetica,sans-Serif" font-size="10.00">_transport.hpp</text>
</a>
</g>
</g>
<!-- Node1&#45;&gt;Node20 -->
<g id="edge44_Node000001_Node000020" class="edge">
<title>Node1&#45;&gt;Node20</title>
<g id="a_edge44_Node000001_Node000020"><a xlink:title=" ">
<path fill="none" stroke="#63b8ff" d="M1036.03,-405.83C1102.54,-399.92 1204.45,-386.71 1231.5,-360 1266.78,-325.16 1270,-263.77 1268.31,-227.24"/>
<polygon fill="#63b8ff" stroke="#63b8ff" points="1271.8,-226.97 1267.7,-217.2 1264.82,-227.4 1271.8,-226.97"/>
</a>
</g>
</g>
<!-- Node21 -->
<g id="Node000021" class="node">
<title>Node21</title>
<g id="a_Node000021"><a xlink:href="framed__transport_8hpp.html" target="_top" xlink:title=" ">
<polygon fill="white" stroke="#666666" points="1257,-140 1132,-140 1132,-110 1257,-110 1257,-140"/>
<text text-anchor="start" x="1140" y="-128" font-family="Helvetica,sans-Serif" font-size="10.00">json_rpc/transports</text>
<text text-anchor="middle" x="1194.5" y="-117" font-family="Helvetica,sans-Serif" font-size="10.00">/framed_transport.hpp</text>
</a>
</g>
</g>
<!-- Node1&#45;&gt;Node21 -->
<g id="edge56_Node000001_Node000021" class="edge">
<title>Node1&#45;&gt;Node21</title>
<g id="a_edge56_Node000001_Node000021"><a xlink:title=" ">
<path fill="none" stroke="#63b8ff" d="M1036.23,-404.83C1094.92,-398.38 1178.51,-384.99 1198.5,-360 1201.73,-355.96 1197.28,-209.96 1195.33,-150.66"/>
<polygon fill="#63b8ff" stroke="#63b8ff" points="1198.82,-150.22 1194.99,-140.34 1191.82,-150.45 1198.82,-150.22"/>
</a>
</g>
</g>
<!-- Node22 -->
<g id="Node000022" class="node">
<title>Node22</title>
<g id="a_Node000022"><a xlink:href="framed__stdio__server__transport_8hpp.html" target="_top" xlink:title=" ">
<polygon fill="white" stroke="#666666" points="1189.5,-360 1069.5,-360 1069.5,-319 1189.5,-319 1189.5,-360"/>
<text text-anchor="start" x="1077.5" y="-348" font-family="Helvetica,sans-Serif" font-size="10.00">json_rpc/transports</text>
<text text-anchor="start" x="1077.5" y="-337" font-family="Helvetica,sans-Serif" font-size="10.00">/framed_stdio_server</text>
<text text-anchor="middle" x="1129.5" y="-326" font-family="Helvetica,sans-Serif" font-size="10.00">_transport.hpp</text>
</a>
</g>
</g>
<!-- Node1&#45;&gt;Node22 -->
<g id="edge51_Node000001_Node000022" class="edge">
<title>Node1&#45;&gt;Node22</title>
<g id="a_edge51_Node000001_Node000022"><a xlink:title=" ">
<path fill="none" stroke="#63b8ff" d="M1007.46,-395.94C1027.42,-386.87 1053.87,-374.86 1077.04,-364.33"/>
<polygon fill="#63b8ff" stroke="#63b8ff" points="1078.75,-367.4 1086.41,-360.07 1075.86,-361.02 1078.75,-367.4"/>
</a>
</g>
</g>
<!-- Node23 -->
<g id="Node000023" class="node">
<title>Node23</title>
<g id="a_Node000023"><a xlink:href="http__client__transport_8hpp.html" target="_top" xlink:title=" ">
<polygon fill="white" stroke="#666666" points="1675.5,-211.5 1533.5,-211.5 1533.5,-181.5 1675.5,-181.5 1675.5,-211.5"/>
<text text-anchor="start" x="1541.5" y="-199.5" font-family="Helvetica,sans-Serif" font-size="10.00">json_rpc/transports</text>
<text text-anchor="middle" x="1604.5" y="-188.5" font-family="Helvetica,sans-Serif" font-size="10.00">/http_client_transport.hpp</text>
</a>
</g>
</g>
<!-- Node1&#45;&gt;Node23 -->
<g id="edge57_Node000001_Node000023" class="edge">
<title>Node1&#45;&gt;Node23</title>
<g id="a_edge57_Node000001_Node000023"><a xlink:title=" ">
<path fill="none" stroke="#63b8ff" d="M1036.15,-410.85C1120.63,-410.32 1278.93,-402.94 1405.5,-360 1468.73,-338.55 1483.93,-326.6 1534.5,-283 1556.1,-264.38 1576.22,-238.55 1589.3,-220.16"/>
<polygon fill="#63b8ff" stroke="#63b8ff" points="1592.28,-222.01 1595.12,-211.8 1586.54,-218 1592.28,-222.01"/>
</a>
</g>
</g>
<!-- Node25 -->
<g id="Node000025" class="node">
<title>Node25</title>
<g id="a_Node000025"><a xlink:href="http__server__transport_8hpp.html" target="_top" xlink:title=" ">
<polygon fill="white" stroke="#666666" points="883.5,-354.5 737.5,-354.5 737.5,-324.5 883.5,-324.5 883.5,-354.5"/>
<text text-anchor="start" x="745.5" y="-342.5" font-family="Helvetica,sans-Serif" font-size="10.00">json_rpc/transports</text>
<text text-anchor="middle" x="810.5" y="-331.5" font-family="Helvetica,sans-Serif" font-size="10.00">/http_server_transport.hpp</text>
</a>
</g>
</g>
<!-- Node1&#45;&gt;Node25 -->
<g id="edge62_Node000001_Node000025" class="edge">
<title>Node1&#45;&gt;Node25</title>
<g id="a_edge62_Node000001_Node000025"><a xlink:title=" ">
<path fill="none" stroke="#63b8ff" d="M942.91,-395.94C917.14,-385.15 881.4,-370.18 853.54,-358.52"/>
<polygon fill="#63b8ff" stroke="#63b8ff" points="854.62,-355.18 844.04,-354.54 851.92,-361.63 854.62,-355.18"/>
</a>
</g>
</g>
<!-- Node26 -->
<g id="Node000026" class="node">
<title>Node26</title>
<g id="a_Node000026"><a xlink:href="stdio__client__transport_8hpp.html" target="_top" xlink:title=" ">
<polygon fill="white" stroke="#666666" points="1525.5,-283 1379.5,-283 1379.5,-253 1525.5,-253 1525.5,-283"/>
<text text-anchor="start" x="1387.5" y="-271" font-family="Helvetica,sans-Serif" font-size="10.00">json_rpc/transports</text>
<text text-anchor="middle" x="1452.5" y="-260" font-family="Helvetica,sans-Serif" font-size="10.00">/stdio_client_transport.hpp</text>
</a>
</g>
</g>
<!-- Node1&#45;&gt;Node26 -->
<g id="edge68_Node000001_Node000026" class="edge">
<title>Node1&#45;&gt;Node26</title>
<g id="a_edge68_Node000001_Node000026"><a xlink:title=" ">
<path fill="none" stroke="#63b8ff" d="M1036.31,-407.17C1130.69,-401.9 1309.21,-388.44 1365.5,-360 1396.53,-344.32 1422.59,-312.99 1437.88,-291.51"/>
<polygon fill="#63b8ff" stroke="#63b8ff" points="1440.77,-293.48 1443.57,-283.26 1435.01,-289.51 1440.77,-293.48"/>
</a>
</g>
</g>
<!-- Node28 -->
<g id="Node000028" class="node">
<title>Node28</title>
<g id="a_Node000028"><a xlink:href="stdio__server__transport_8hpp.html" target="_top" xlink:title=" ">
<polygon fill="white" stroke="#666666" points="1051.5,-354.5 901.5,-354.5 901.5,-324.5 1051.5,-324.5 1051.5,-354.5"/>
<text text-anchor="start" x="909.5" y="-342.5" font-family="Helvetica,sans-Serif" font-size="10.00">json_rpc/transports</text>
<text text-anchor="middle" x="976.5" y="-331.5" font-family="Helvetica,sans-Serif" font-size="10.00">/stdio_server_transport.hpp</text>
</a>
</g>
</g>
<!-- Node1&#45;&gt;Node28 -->
<g id="edge73_Node000001_Node000028" class="edge">
<title>Node1&#45;&gt;Node28</title>
<g id="a_edge73_Node000001_Node000028"><a xlink:title=" ">
<path fill="none" stroke="#63b8ff" d="M976.5,-395.94C976.5,-386.99 976.5,-375.16 976.5,-364.73"/>
<polygon fill="#63b8ff" stroke="#63b8ff" points="980,-364.54 976.5,-354.54 973,-364.54 980,-364.54"/>
</a>
</g>
</g>
<!-- Node2&#45;&gt;Node3 -->
<g id="edge2_Node000002_Node000003" class="edge">
<title>Node2&#45;&gt;Node3</title>
<g id="a_edge2_Node000002_Node000003"><a xlink:title=" ">
<path fill="none" stroke="#63b8ff" d="M1351.76,-112.61C1346.94,-111.7 1342.14,-110.82 1337.5,-110 1262.68,-96.8 1176.64,-83.93 1117.63,-75.45"/>
<polygon fill="#63b8ff" stroke="#63b8ff" points="1118.06,-71.98 1107.66,-74.03 1117.07,-78.91 1118.06,-71.98"/>
</a>
</g>
</g>
<!-- Node4 -->
<g id="Node000004" class="node">
<title>Node4</title>
<g id="a_Node000004"><a xlink:title=" ">
<polygon fill="#e0e0e0" stroke="#999999" points="1079,-19 1014,-19 1014,0 1079,0 1079,-19"/>
<text text-anchor="middle" x="1046.5" y="-7" font-family="Helvetica,sans-Serif" font-size="10.00">functional</text>
</a>
</g>
</g>
<!-- Node3&#45;&gt;Node4 -->
<g id="edge3_Node000003_Node000004" class="edge">
<title>Node3&#45;&gt;Node4</title>
<g id="a_edge3_Node000003_Node000004"><a xlink:title=" ">
<path fill="none" stroke="#63b8ff" d="M1046.5,-54.75C1046.5,-47.8 1046.5,-37.85 1046.5,-29.13"/>
<polygon fill="#63b8ff" stroke="#63b8ff" points="1050,-29.09 1046.5,-19.09 1043,-29.09 1050,-29.09"/>
</a>
</g>
</g>
<!-- Node5 -->
<g id="Node000005" class="node">
<title>Node5</title>
<g id="a_Node000005"><a xlink:title=" ">
<polygon fill="#e0e0e0" stroke="#999999" points="826.5,-19 770.5,-19 770.5,0 826.5,0 826.5,-19"/>
<text text-anchor="middle" x="798.5" y="-7" font-family="Helvetica,sans-Serif" font-size="10.00">optional</text>
</a>
</g>
</g>
<!-- Node3&#45;&gt;Node5 -->
<g id="edge4_Node000003_Node000005" class="edge">
<title>Node3&#45;&gt;Node5</title>
<g id="a_edge4_Node000003_Node000005"><a xlink:title=" ">
<path fill="none" stroke="#63b8ff" d="M1006.65,-54.98C959.81,-44.97 882.63,-28.48 836.57,-18.64"/>
<polygon fill="#63b8ff" stroke="#63b8ff" points="837.19,-15.19 826.68,-16.52 835.72,-22.03 837.19,-15.19"/>
</a>
</g>
</g>
<!-- Node6 -->
<g id="Node000006" class="node">
<title>Node6</title>
<g id="a_Node000006"><a xlink:title=" ">
<polygon fill="#e0e0e0" stroke="#999999" points="1148,-19 1097,-19 1097,0 1148,0 1148,-19"/>
<text text-anchor="middle" x="1122.5" y="-7" font-family="Helvetica,sans-Serif" font-size="10.00">variant</text>
</a>
</g>
</g>
<!-- Node3&#45;&gt;Node6 -->
<g id="edge5_Node000003_Node000006" class="edge">
<title>Node3&#45;&gt;Node6</title>
<g id="a_edge5_Node000003_Node000006"><a xlink:title=" ">
<path fill="none" stroke="#63b8ff" d="M1058.71,-54.98C1070.28,-46.92 1087.88,-34.65 1101.66,-25.03"/>
<polygon fill="#63b8ff" stroke="#63b8ff" points="1103.87,-27.76 1110.07,-19.17 1099.86,-22.02 1103.87,-27.76"/>
</a>
</g>
</g>
<!-- Node7 -->
<g id="Node000007" class="node">
<title>Node7</title>
<g id="a_Node000007"><a xlink:title=" ">
<polygon fill="#e0e0e0" stroke="#999999" points="995.5,-19 885.5,-19 885.5,0 995.5,0 995.5,-19"/>
<text text-anchor="middle" x="940.5" y="-7" font-family="Helvetica,sans-Serif" font-size="10.00">nlohmann/json.hpp</text>
</a>
</g>
</g>
<!-- Node3&#45;&gt;Node7 -->
<g id="edge6_Node000003_Node000007" class="edge">
<title>Node3&#45;&gt;Node7</title>
<g id="a_edge6_Node000003_Node000007"><a xlink:title=" ">
<path fill="none" stroke="#63b8ff" d="M1029.47,-54.98C1012.57,-46.54 986.44,-33.47 966.86,-23.68"/>
<polygon fill="#63b8ff" stroke="#63b8ff" points="968.35,-20.51 957.84,-19.17 965.22,-26.77 968.35,-20.51"/>
</a>
</g>
</g>
<!-- Node8&#45;&gt;Node3 -->
<g id="edge21_Node000008_Node000003" class="edge">
<title>Node8&#45;&gt;Node3</title>
<g id="a_edge21_Node000008_Node000003"><a xlink:title=" ">
<path fill="none" stroke="#63b8ff" d="M699.15,-186.92C735.67,-176.53 798.41,-158.17 851.5,-140 910.36,-119.86 977.96,-93.23 1016.12,-77.87"/>
<polygon fill="#63b8ff" stroke="#63b8ff" points="1017.65,-81.03 1025.61,-74.04 1015.03,-74.54 1017.65,-81.03"/>
</a>
</g>
</g>
<!-- Node8&#45;&gt;Node5 -->
<g id="edge8_Node000008_Node000005" class="edge">
<title>Node8&#45;&gt;Node5</title>
<g id="a_edge8_Node000008_Node000005"><a xlink:title=" ">
<path fill="none" stroke="#63b8ff" d="M704.88,-186.99C744.59,-176.89 804.31,-158.99 817.5,-140 841.07,-106.08 821.58,-55.04 808.31,-28.29"/>
<polygon fill="#63b8ff" stroke="#63b8ff" points="811.35,-26.56 803.63,-19.32 805.15,-29.8 811.35,-26.56"/>
</a>
</g>
</g>
<!-- Node9 -->
<g id="Node000009" class="node">
<title>Node9</title>
<g id="a_Node000009"><a xlink:title=" ">
<polygon fill="#e0e0e0" stroke="#999999" points="741.5,-74 697.5,-74 697.5,-55 741.5,-55 741.5,-74"/>
<text text-anchor="middle" x="719.5" y="-62" font-family="Helvetica,sans-Serif" font-size="10.00">string</text>
</a>
</g>
</g>
<!-- Node8&#45;&gt;Node9 -->
<g id="edge9_Node000008_Node000009" class="edge">
<title>Node8&#45;&gt;Node9</title>
<g id="a_edge9_Node000008_Node000009"><a xlink:title=" ">
<path fill="none" stroke="#63b8ff" d="M657.26,-186.78C638.4,-171.05 604.07,-137.06 621.5,-110 635.98,-87.52 664.89,-76.27 687.57,-70.72"/>
<polygon fill="#63b8ff" stroke="#63b8ff" points="688.46,-74.1 697.48,-68.55 686.97,-67.27 688.46,-74.1"/>
</a>
</g>
</g>
<!-- Node10 -->
<g id="Node000010" class="node">
<title>Node10</title>
<g id="a_Node000010"><a xlink:title=" ">
<polygon fill="#e0e0e0" stroke="#999999" points="359,-74 266,-74 266,-55 359,-55 359,-74"/>
<text text-anchor="middle" x="312.5" y="-62" font-family="Helvetica,sans-Serif" font-size="10.00">unordered_map</text>
</a>
</g>
</g>
<!-- Node8&#45;&gt;Node10 -->
<g id="edge10_Node000008_Node000010" class="edge">
<title>Node8&#45;&gt;Node10</title>
<g id="a_edge10_Node000008_Node000010"><a xlink:title=" ">
<path fill="none" stroke="#63b8ff" d="M601.08,-186.97C529.56,-177.1 421.97,-159.67 385.5,-140 359.68,-126.07 337.31,-99.94 324.36,-82.62"/>
<polygon fill="#63b8ff" stroke="#63b8ff" points="326.86,-80.11 318.17,-74.05 321.18,-84.2 326.86,-80.11"/>
</a>
</g>
</g>
<!-- Node11 -->
<g id="Node000011" class="node">
<title>Node11</title>
<g id="a_Node000011"><a xlink:title=" ">
<polygon fill="#e0e0e0" stroke="#999999" points="678,-134.5 631,-134.5 631,-115.5 678,-115.5 678,-134.5"/>
<text text-anchor="middle" x="654.5" y="-122.5" font-family="Helvetica,sans-Serif" font-size="10.00">vector</text>
</a>
</g>
</g>
<!-- Node8&#45;&gt;Node11 -->
<g id="edge11_Node000008_Node000011" class="edge">
<title>Node8&#45;&gt;Node11</title>
<g id="a_edge11_Node000008_Node000011"><a xlink:title=" ">
<path fill="none" stroke="#63b8ff" d="M666.78,-186.98C664.66,-176.45 661,-158.25 658.22,-144.47"/>
<polygon fill="#63b8ff" stroke="#63b8ff" points="661.64,-143.7 656.23,-134.59 654.77,-145.09 661.64,-143.7"/>
</a>
</g>
</g>
<!-- Node8&#45;&gt;Node12 -->
<g id="edge12_Node000008_Node000012" class="edge">
<title>Node8&#45;&gt;Node12</title>
<g id="a_edge12_Node000008_Node000012"><a xlink:title=" ">
<path fill="none" stroke="#63b8ff" d="M643.61,-186.98C607.61,-174.66 540.89,-151.81 500.12,-137.85"/>
<polygon fill="#63b8ff" stroke="#63b8ff" points="501.19,-134.52 490.6,-134.59 498.92,-141.14 501.19,-134.52"/>
</a>
</g>
</g>
<!-- Node8&#45;&gt;Node13 -->
<g id="edge16_Node000008_Node000013" class="edge">
<title>Node8&#45;&gt;Node13</title>
<g id="a_edge16_Node000008_Node000013"><a xlink:title=" ">
<path fill="none" stroke="#63b8ff" d="M595.66,-186.98C484.74,-174 274.07,-149.35 157.42,-135.7"/>
<polygon fill="#63b8ff" stroke="#63b8ff" points="157.81,-132.22 147.47,-134.54 156.99,-139.18 157.81,-132.22"/>
</a>
</g>
</g>
<!-- Node14 -->
<g id="Node000014" class="node">
<title>Node14</title>
<g id="a_Node000014"><a xlink:title=" ">
<polygon fill="#e0e0e0" stroke="#999999" points="809,-134.5 696,-134.5 696,-115.5 809,-115.5 809,-134.5"/>
<text text-anchor="middle" x="752.5" y="-122.5" font-family="Helvetica,sans-Serif" font-size="10.00">BS_thread_pool.hpp</text>
</a>
</g>
</g>
<!-- Node8&#45;&gt;Node14 -->
<g id="edge22_Node000008_Node000014" class="edge">
<title>Node8&#45;&gt;Node14</title>
<g id="a_edge22_Node000008_Node000014"><a xlink:title=" ">
<path fill="none" stroke="#63b8ff" d="M678.8,-186.98C692.53,-175.62 717.06,-155.32 734.03,-141.28"/>
<polygon fill="#63b8ff" stroke="#63b8ff" points="736.64,-143.66 742.12,-134.59 732.18,-138.27 736.64,-143.66"/>
</a>
</g>
</g>
<!-- Node12&#45;&gt;Node3 -->
<g id="edge15_Node000012_Node000003" class="edge">
<title>Node12&#45;&gt;Node3</title>
<g id="a_edge15_Node000012_Node000003"><a xlink:title=" ">
<path fill="none" stroke="#63b8ff" d="M536.7,-115.69C553.67,-113.77 571.72,-111.77 588.5,-110 722.76,-95.84 879.33,-80.98 970.26,-72.52"/>
<polygon fill="#63b8ff" stroke="#63b8ff" points="970.85,-75.98 980.48,-71.57 970.2,-69.01 970.85,-75.98"/>
</a>
</g>
</g>
<!-- Node12&#45;&gt;Node5 -->
<g id="edge13_Node000012_Node000005" class="edge">
<title>Node12&#45;&gt;Node5</title>
<g id="a_edge13_Node000012_Node000005"><a xlink:title=" ">
<path fill="none" stroke="#63b8ff" d="M490.53,-115.47C549.23,-95.46 695.88,-45.48 763.43,-22.45"/>
<polygon fill="#63b8ff" stroke="#63b8ff" points="764.84,-25.67 773.18,-19.13 762.59,-19.04 764.84,-25.67"/>
</a>
</g>
</g>
<!-- Node12&#45;&gt;Node9 -->
<g id="edge14_Node000012_Node000009" class="edge">
<title>Node12&#45;&gt;Node9</title>
<g id="a_edge14_Node000012_Node000009"><a xlink:title=" ">
<path fill="none" stroke="#63b8ff" d="M502.43,-115.49C552.19,-104.03 639.96,-83.82 687.21,-72.94"/>
<polygon fill="#63b8ff" stroke="#63b8ff" points="688.24,-76.29 697.2,-70.64 686.67,-69.47 688.24,-76.29"/>
</a>
</g>
</g>
<!-- Node13&#45;&gt;Node3 -->
<g id="edge20_Node000013_Node000003" class="edge">
<title>Node13&#45;&gt;Node3</title>
<g id="a_edge20_Node000013_Node000003"><a xlink:title=" ">
<path fill="none" stroke="#63b8ff" d="M149.17,-117.15C177.17,-114.7 209.28,-112.05 238.5,-110 507.43,-91.12 827.19,-75.54 970.47,-68.92"/>
<polygon fill="#63b8ff" stroke="#63b8ff" points="970.65,-72.42 980.47,-68.46 970.32,-65.43 970.65,-72.42"/>
</a>
</g>
</g>
<!-- Node13&#45;&gt;Node5 -->
<g id="edge17_Node000013_Node000005" class="edge">
<title>Node13&#45;&gt;Node5</title>
<g id="a_edge17_Node000013_Node000005"><a xlink:title=" ">
<path fill="none" stroke="#63b8ff" d="M92.07,-115.43C123.95,-100.3 193.87,-69.15 256.5,-55 441.9,-13.12 670.89,-9.59 760.25,-9.99"/>
<polygon fill="#63b8ff" stroke="#63b8ff" points="760.42,-13.49 770.45,-10.06 760.47,-6.49 760.42,-13.49"/>
</a>
</g>
</g>
<!-- Node13&#45;&gt;Node9 -->
<g id="edge18_Node000013_Node000009" class="edge">
<title>Node13&#45;&gt;Node9</title>
<g id="a_edge18_Node000013_Node000009"><a xlink:title=" ">
<path fill="none" stroke="#63b8ff" d="M123.74,-115.47C136.35,-113.48 149.9,-111.5 162.5,-110 361.34,-86.28 601.66,-71.88 687.29,-67.19"/>
<polygon fill="#63b8ff" stroke="#63b8ff" points="687.62,-70.68 697.41,-66.64 687.24,-63.69 687.62,-70.68"/>
</a>
</g>
</g>
<!-- Node13&#45;&gt;Node10 -->
<g id="edge19_Node000013_Node000010" class="edge">
<title>Node13&#45;&gt;Node10</title>
<g id="a_edge19_Node000013_Node000010"><a xlink:title=" ">
<path fill="none" stroke="#63b8ff" d="M109.11,-115.49C151.06,-105.18 221.84,-87.78 267.86,-76.47"/>
<polygon fill="#63b8ff" stroke="#63b8ff" points="268.98,-79.8 277.85,-74.02 267.3,-73 268.98,-79.8"/>
</a>
</g>
</g>
<!-- Node15&#45;&gt;Node3 -->
<g id="edge29_Node000015_Node000003" class="edge">
<title>Node15&#45;&gt;Node3</title>
<g id="a_edge29_Node000015_Node000003"><a xlink:title=" ">
<path fill="none" stroke="#63b8ff" d="M807.57,-252.83C854.47,-216.06 979.73,-117.85 1027.57,-80.34"/>
<polygon fill="#63b8ff" stroke="#63b8ff" points="1029.85,-83 1035.56,-74.08 1025.53,-77.49 1029.85,-83"/>
</a>
</g>
</g>
<!-- Node15&#45;&gt;Node8 -->
<g id="edge28_Node000015_Node000008" class="edge">
<title>Node15&#45;&gt;Node8</title>
<g id="a_edge28_Node000015_Node000008"><a xlink:title=" ">
<path fill="none" stroke="#63b8ff" d="M765.01,-252.94C743.81,-240.76 713.34,-223.26 692.33,-211.19"/>
<polygon fill="#63b8ff" stroke="#63b8ff" points="693.83,-208.01 683.42,-206.07 690.34,-214.08 693.83,-208.01"/>
</a>
</g>
</g>
<!-- Node16 -->
<g id="Node000016" class="node">
<title>Node16</title>
<g id="a_Node000016"><a xlink:title=" ">
<polygon fill="#e0e0e0" stroke="#999999" points="814.5,-206 764.5,-206 764.5,-187 814.5,-187 814.5,-206"/>
<text text-anchor="middle" x="789.5" y="-194" font-family="Helvetica,sans-Serif" font-size="10.00">atomic</text>
</a>
</g>
</g>
<!-- Node15&#45;&gt;Node16 -->
<g id="edge26_Node000015_Node000016" class="edge">
<title>Node15&#45;&gt;Node16</title>
<g id="a_edge26_Node000015_Node000016"><a xlink:title=" ">
<path fill="none" stroke="#63b8ff" d="M789.5,-252.94C789.5,-242.46 789.5,-228.05 789.5,-216.55"/>
<polygon fill="#63b8ff" stroke="#63b8ff" points="793,-216.27 789.5,-206.27 786,-216.27 793,-216.27"/>
</a>
</g>
</g>
<!-- Node17 -->
<g id="Node000017" class="node">
<title>Node17</title>
<g id="a_Node000017"><a xlink:title=" ">
<polygon fill="#e0e0e0" stroke="#999999" points="338.5,-134.5 280.5,-134.5 280.5,-115.5 338.5,-115.5 338.5,-134.5"/>
<text text-anchor="middle" x="309.5" y="-122.5" font-family="Helvetica,sans-Serif" font-size="10.00">memory</text>
</a>
</g>
</g>
<!-- Node15&#45;&gt;Node17 -->
<g id="edge27_Node000015_Node000017" class="edge">
<title>Node15&#45;&gt;Node17</title>
<g id="a_edge27_Node000015_Node000017"><a xlink:title=" ">
<path fill="none" stroke="#63b8ff" d="M731.8,-254.4C689.88,-244.94 631.9,-231.22 581.5,-217 474.91,-186.92 448.64,-177.7 344.5,-140 342.89,-139.42 341.25,-138.81 339.59,-138.18"/>
<polygon fill="#63b8ff" stroke="#63b8ff" points="340.73,-134.87 330.14,-134.52 338.2,-141.4 340.73,-134.87"/>
</a>
</g>
</g>
<!-- Node18&#45;&gt;Node3 -->
<g id="edge36_Node000018_Node000003" class="edge">
<title>Node18&#45;&gt;Node3</title>
<g id="a_edge36_Node000018_Node000003"><a xlink:title=" ">
<path fill="none" stroke="#63b8ff" d="M563.13,-329.57C558.15,-293.52 545.19,-158.39 621.5,-110 677.72,-74.35 863.97,-66.81 970.32,-65.49"/>
<polygon fill="#63b8ff" stroke="#63b8ff" points="970.4,-68.99 980.36,-65.39 970.32,-61.99 970.4,-68.99"/>
</a>
</g>
</g>
<!-- Node18&#45;&gt;Node8 -->
<g id="edge34_Node000018_Node000008" class="edge">
<title>Node18&#45;&gt;Node8</title>
<g id="a_edge34_Node000018_Node000008"><a xlink:title=" ">
<path fill="none" stroke="#63b8ff" d="M571.01,-329.68C587.93,-306.73 633.57,-244.85 655.88,-214.61"/>
<polygon fill="#63b8ff" stroke="#63b8ff" points="658.88,-216.44 662,-206.32 653.24,-212.29 658.88,-216.44"/>
</a>
</g>
</g>
<!-- Node18&#45;&gt;Node9 -->
<g id="edge33_Node000018_Node000009" class="edge">
<title>Node18&#45;&gt;Node9</title>
<g id="a_edge33_Node000018_Node000009"><a xlink:title=" ">
<path fill="none" stroke="#63b8ff" d="M491.93,-334.58C413.46,-326.05 291.59,-299.43 231.5,-217 203.47,-178.56 196.41,-145.13 228.5,-110 259.41,-76.16 582.25,-67.8 686.93,-65.97"/>
<polygon fill="#63b8ff" stroke="#63b8ff" points="687.26,-69.46 697.2,-65.8 687.15,-62.46 687.26,-69.46"/>
</a>
</g>
</g>
<!-- Node18&#45;&gt;Node15 -->
<g id="edge35_Node000018_Node000015" class="edge">
<title>Node18&#45;&gt;Node15</title>
<g id="a_edge35_Node000018_Node000015"><a xlink:title=" ">
<path fill="none" stroke="#63b8ff" d="M592.09,-329.98C627.4,-319.07 689.4,-299.92 734.51,-285.98"/>
<polygon fill="#63b8ff" stroke="#63b8ff" points="735.63,-289.3 744.15,-283.01 733.57,-282.61 735.63,-289.3"/>
</a>
</g>
</g>
<!-- Node18&#45;&gt;Node17 -->
<g id="edge32_Node000018_Node000017" class="edge">
<title>Node18&#45;&gt;Node17</title>
<g id="a_edge32_Node000018_Node000017"><a xlink:title=" ">
<path fill="none" stroke="#63b8ff" d="M556.13,-329.82C531.55,-304.56 456.9,-229.46 387.5,-176 370.14,-162.63 349.16,-149.32 333.33,-139.81"/>
<polygon fill="#63b8ff" stroke="#63b8ff" points="335.06,-136.76 324.68,-134.67 331.49,-142.78 335.06,-136.76"/>
</a>
</g>
</g>
<!-- Node19&#45;&gt;Node2 -->
<g id="edge40_Node000019_Node000002" class="edge">
<title>Node19&#45;&gt;Node2</title>
<g id="a_edge40_Node000019_Node000002"><a xlink:title=" ">
<path fill="none" stroke="#63b8ff" d="M378.51,-190.19C433.47,-186.05 512.39,-180.3 581.5,-176 885.33,-157.11 961.94,-162.94 1265.5,-140 1290.46,-138.11 1317.85,-135.53 1341.85,-133.1"/>
<polygon fill="#63b8ff" stroke="#63b8ff" points="1342.32,-136.57 1351.91,-132.07 1341.61,-129.61 1342.32,-136.57"/>
</a>
</g>
</g>
<!-- Node19&#45;&gt;Node3 -->
<g id="edge43_Node000019_Node000003" class="edge">
<title>Node19&#45;&gt;Node3</title>
<g id="a_edge43_Node000019_Node000003"><a xlink:title=" ">
<path fill="none" stroke="#63b8ff" d="M300.09,-186.92C282.84,-170.2 249.87,-132.91 271.5,-110 283.4,-97.39 777.11,-76.29 970.21,-68.51"/>
<polygon fill="#63b8ff" stroke="#63b8ff" points="970.43,-72 980.28,-68.1 970.15,-65.01 970.43,-72"/>
</a>
</g>
</g>
<!-- Node19&#45;&gt;Node9 -->
<g id="edge39_Node000019_Node000009" class="edge">
<title>Node19&#45;&gt;Node9</title>
<g id="a_edge39_Node000019_Node000009"><a xlink:title=" ">
<path fill="none" stroke="#63b8ff" d="M292.85,-186.78C264.87,-171.07 213.8,-137.09 238.5,-110 268.72,-76.86 584.33,-68.03 687.25,-66.03"/>
<polygon fill="#63b8ff" stroke="#63b8ff" points="687.42,-69.52 697.35,-65.84 687.29,-62.52 687.42,-69.52"/>
</a>
</g>
</g>
<!-- Node19&#45;&gt;Node12 -->
<g id="edge41_Node000019_Node000012" class="edge">
<title>Node19&#45;&gt;Node12</title>
<g id="a_edge41_Node000019_Node000012"><a xlink:title=" ">
<path fill="none" stroke="#63b8ff" d="M328.63,-186.98C355.65,-174.94 405.19,-152.87 436.68,-138.84"/>
<polygon fill="#63b8ff" stroke="#63b8ff" points="438.5,-141.86 446.21,-134.59 435.66,-135.46 438.5,-141.86"/>
</a>
</g>
</g>
<!-- Node19&#45;&gt;Node13 -->
<g id="edge42_Node000019_Node000013" class="edge">
<title>Node19&#45;&gt;Node13</title>
<g id="a_edge42_Node000019_Node000013"><a xlink:title=" ">
<path fill="none" stroke="#63b8ff" d="M280.68,-186.98C238.66,-174.55 160.47,-151.42 113.39,-137.5"/>
<polygon fill="#63b8ff" stroke="#63b8ff" points="114.13,-134.07 103.55,-134.59 112.15,-140.78 114.13,-134.07"/>
</a>
</g>
</g>
<!-- Node19&#45;&gt;Node17 -->
<g id="edge38_Node000019_Node000017" class="edge">
<title>Node19&#45;&gt;Node17</title>
<g id="a_edge38_Node000019_Node000017"><a xlink:title=" ">
<path fill="none" stroke="#63b8ff" d="M309.5,-186.98C309.5,-176.56 309.5,-158.61 309.5,-144.88"/>
<polygon fill="#63b8ff" stroke="#63b8ff" points="313,-144.59 309.5,-134.59 306,-144.59 313,-144.59"/>
</a>
</g>
</g>
<!-- Node20&#45;&gt;Node2 -->
<g id="edge46_Node000020_Node000002" class="edge">
<title>Node20&#45;&gt;Node2</title>
<g id="a_edge46_Node000020_Node000002"><a xlink:title=" ">
<path fill="none" stroke="#63b8ff" d="M1305.43,-175.96C1325.54,-166.11 1349.8,-154.24 1369.62,-144.54"/>
<polygon fill="#63b8ff" stroke="#63b8ff" points="1371.22,-147.65 1378.67,-140.11 1368.14,-141.37 1371.22,-147.65"/>
</a>
</g>
</g>
<!-- Node20&#45;&gt;Node3 -->
<g id="edge47_Node000020_Node000003" class="edge">
<title>Node20&#45;&gt;Node3</title>
<g id="a_edge47_Node000020_Node000003"><a xlink:title=" ">
<path fill="none" stroke="#63b8ff" d="M1284.06,-175.65C1299.18,-157.01 1315.63,-129.21 1299.5,-110 1277.2,-83.44 1188.63,-72.73 1122.53,-68.41"/>
<polygon fill="#63b8ff" stroke="#63b8ff" points="1122.74,-64.92 1112.54,-67.79 1122.31,-71.9 1122.74,-64.92"/>
</a>
</g>
</g>
<!-- Node20&#45;&gt;Node9 -->
<g id="edge45_Node000020_Node000009" class="edge">
<title>Node20&#45;&gt;Node9</title>
<g id="a_edge45_Node000020_Node000009"><a xlink:title=" ">
<path fill="none" stroke="#63b8ff" d="M1272.29,-175.81C1277.57,-156.5 1281.6,-127.46 1265.5,-110 1248,-91.01 867.01,-72.2 752.05,-66.95"/>
<polygon fill="#63b8ff" stroke="#63b8ff" points="751.93,-63.44 741.78,-66.48 751.61,-70.43 751.93,-63.44"/>
</a>
</g>
</g>
<!-- Node20&#45;&gt;Node21 -->
<g id="edge48_Node000020_Node000021" class="edge">
<title>Node20&#45;&gt;Node21</title>
<g id="a_edge48_Node000020_Node000021"><a xlink:title=" ">
<path fill="none" stroke="#63b8ff" d="M1245.34,-175.77C1236.25,-166.87 1225.49,-156.33 1216.21,-147.25"/>
<polygon fill="#63b8ff" stroke="#63b8ff" points="1218.44,-144.53 1208.84,-140.04 1213.54,-149.53 1218.44,-144.53"/>
</a>
</g>
</g>
<!-- Node21&#45;&gt;Node3 -->
<g id="edge50_Node000021_Node000003" class="edge">
<title>Node21&#45;&gt;Node3</title>
<g id="a_edge50_Node000021_Node000003"><a xlink:title=" ">
<path fill="none" stroke="#63b8ff" d="M1159.05,-109.99C1134.36,-100.23 1101.72,-87.33 1077.95,-77.93"/>
<polygon fill="#63b8ff" stroke="#63b8ff" points="1078.94,-74.56 1068.36,-74.14 1076.37,-81.07 1078.94,-74.56"/>
</a>
</g>
</g>
<!-- Node21&#45;&gt;Node9 -->
<g id="edge49_Node000021_Node000009" class="edge">
<title>Node21&#45;&gt;Node9</title>
<g id="a_edge49_Node000021_Node000009"><a xlink:title=" ">
<path fill="none" stroke="#63b8ff" d="M1131.91,-116.29C1029.66,-103.7 830.33,-79.15 752.11,-69.52"/>
<polygon fill="#63b8ff" stroke="#63b8ff" points="752.26,-66.01 741.9,-68.26 751.4,-72.96 752.26,-66.01"/>
</a>
</g>
</g>
<!-- Node22&#45;&gt;Node3 -->
<g id="edge54_Node000022_Node000003" class="edge">
<title>Node22&#45;&gt;Node3</title>
<g id="a_edge54_Node000022_Node000003"><a xlink:title=" ">
<path fill="none" stroke="#63b8ff" d="M1123.53,-318.87C1108.08,-268.06 1066.96,-132.81 1052.02,-83.67"/>
<polygon fill="#63b8ff" stroke="#63b8ff" points="1055.36,-82.62 1049.11,-74.07 1048.67,-84.66 1055.36,-82.62"/>
</a>
</g>
</g>
<!-- Node22&#45;&gt;Node9 -->
<g id="edge52_Node000022_Node000009" class="edge">
<title>Node22&#45;&gt;Node9</title>
<g id="a_edge52_Node000022_Node000009"><a xlink:title=" ">
<path fill="none" stroke="#63b8ff" d="M1109.6,-318.76C1065.19,-275.62 953.13,-171.85 842.5,-110 813.41,-93.74 777.24,-81.49 751.68,-74.01"/>
<polygon fill="#63b8ff" stroke="#63b8ff" points="752.34,-70.56 741.76,-71.19 750.42,-77.29 752.34,-70.56"/>
</a>
</g>
</g>
<!-- Node22&#45;&gt;Node15 -->
<g id="edge53_Node000022_Node000015" class="edge">
<title>Node22&#45;&gt;Node15</title>
<g id="a_edge53_Node000022_Node000015"><a xlink:title=" ">
<path fill="none" stroke="#63b8ff" d="M1069.37,-321.15C1066.38,-320.4 1063.41,-319.68 1060.5,-319 991.74,-302.98 912.21,-288.81 857.17,-279.69"/>
<polygon fill="#63b8ff" stroke="#63b8ff" points="857.62,-276.22 847.18,-278.04 856.48,-283.12 857.62,-276.22"/>
</a>
</g>
</g>
<!-- Node22&#45;&gt;Node21 -->
<g id="edge55_Node000022_Node000021" class="edge">
<title>Node22&#45;&gt;Node21</title>
<g id="a_edge55_Node000022_Node000021"><a xlink:title=" ">
<path fill="none" stroke="#63b8ff" d="M1131.86,-318.92C1136.04,-287.81 1146.18,-225.54 1165.5,-176 1169.1,-166.76 1174.24,-157.21 1179.2,-148.95"/>
<polygon fill="#63b8ff" stroke="#63b8ff" points="1182.29,-150.61 1184.63,-140.28 1176.36,-146.9 1182.29,-150.61"/>
</a>
</g>
</g>
<!-- Node23&#45;&gt;Node2 -->
<g id="edge60_Node000023_Node000002" class="edge">
<title>Node23&#45;&gt;Node2</title>
<g id="a_edge60_Node000023_Node000002"><a xlink:title=" ">
<path fill="none" stroke="#63b8ff" d="M1564.63,-181.44C1533.53,-170.46 1490.15,-155.16 1456.85,-143.41"/>
<polygon fill="#63b8ff" stroke="#63b8ff" points="1457.9,-140.07 1447.31,-140.04 1455.57,-146.67 1457.9,-140.07"/>
</a>
</g>
</g>
<!-- Node23&#45;&gt;Node3 -->
<g id="edge61_Node000023_Node000003" class="edge">
<title>Node23&#45;&gt;Node3</title>
<g id="a_edge61_Node000023_Node000003"><a xlink:title=" ">
<path fill="none" stroke="#63b8ff" d="M1605.07,-181.39C1605,-161.98 1601.66,-127.47 1580.5,-110 1546.01,-81.52 1261.99,-70.72 1122.8,-67.11"/>
<polygon fill="#63b8ff" stroke="#63b8ff" points="1122.72,-63.6 1112.63,-66.85 1122.54,-70.6 1122.72,-63.6"/>
</a>
</g>
</g>
<!-- Node23&#45;&gt;Node9 -->
<g id="edge59_Node000023_Node000009" class="edge">
<title>Node23&#45;&gt;Node9</title>
<g id="a_edge59_Node000023_Node000009"><a xlink:title=" ">
<path fill="none" stroke="#63b8ff" d="M1599.5,-181.23C1591.67,-161.3 1574.45,-125.79 1546.5,-110 1528.89,-100.05 902.75,-73.19 751.93,-66.85"/>
<polygon fill="#63b8ff" stroke="#63b8ff" points="751.66,-63.34 741.52,-66.42 751.37,-70.33 751.66,-63.34"/>
</a>
</g>
</g>
<!-- Node24 -->
<g id="Node000024" class="node">
<title>Node24</title>
<g id="a_Node000024"><a xlink:title=" ">
<polygon fill="#e0e0e0" stroke="#999999" points="1538,-134.5 1481,-134.5 1481,-115.5 1538,-115.5 1538,-134.5"/>
<text text-anchor="middle" x="1509.5" y="-122.5" font-family="Helvetica,sans-Serif" font-size="10.00">httplib.h</text>
</a>
</g>
</g>
<!-- Node23&#45;&gt;Node24 -->
<g id="edge58_Node000023_Node000024" class="edge">
<title>Node23&#45;&gt;Node24</title>
<g id="a_edge58_Node000023_Node000024"><a xlink:title=" ">
<path fill="none" stroke="#63b8ff" d="M1585.28,-181.44C1569.08,-169.59 1545.99,-152.7 1529.57,-140.68"/>
<polygon fill="#63b8ff" stroke="#63b8ff" points="1531.35,-137.65 1521.21,-134.57 1527.22,-143.3 1531.35,-137.65"/>
</a>
</g>
</g>
<!-- Node25&#45;&gt;Node3 -->
<g id="edge67_Node000025_Node000003" class="edge">
<title>Node25&#45;&gt;Node3</title>
<g id="a_edge67_Node000025_Node000003"><a xlink:title=" ">
<path fill="none" stroke="#63b8ff" d="M828.09,-324.43C841.16,-313.65 859.14,-298.1 873.5,-283 939.71,-213.38 1007.59,-120.47 1034.48,-82.63"/>
<polygon fill="#63b8ff" stroke="#63b8ff" points="1037.5,-84.43 1040.41,-74.24 1031.78,-80.39 1037.5,-84.43"/>
</a>
</g>
</g>
<!-- Node25&#45;&gt;Node8 -->
<g id="edge65_Node000025_Node000008" class="edge">
<title>Node25&#45;&gt;Node8</title>
<g id="a_edge65_Node000025_Node000008"><a xlink:title=" ">
<path fill="none" stroke="#63b8ff" d="M781.26,-324.36C762.93,-314.51 739.62,-300.11 722.5,-283 702.38,-262.9 686.1,-234 676.86,-215.49"/>
<polygon fill="#63b8ff" stroke="#63b8ff" points="679.97,-213.87 672.47,-206.39 673.66,-216.92 679.97,-213.87"/>
</a>
</g>
</g>
<!-- Node25&#45;&gt;Node9 -->
<g id="edge64_Node000025_Node000009" class="edge">
<title>Node25&#45;&gt;Node9</title>
<g id="a_edge64_Node000025_Node000009"><a xlink:title=" ">
<path fill="none" stroke="#63b8ff" d="M826.72,-324.28C837.15,-314 849.78,-299.13 855.5,-283 874.85,-228.42 858.84,-158.86 817.5,-110 800.62,-90.05 772.94,-78.62 751.29,-72.35"/>
<polygon fill="#63b8ff" stroke="#63b8ff" points="752.09,-68.94 741.53,-69.75 750.29,-75.7 752.09,-68.94"/>
</a>
</g>
</g>
<!-- Node25&#45;&gt;Node15 -->
<g id="edge66_Node000025_Node000015" class="edge">
<title>Node25&#45;&gt;Node15</title>
<g id="a_edge66_Node000025_Node000015"><a xlink:title=" ">
<path fill="none" stroke="#63b8ff" d="M806.25,-324.44C803.52,-315.39 799.9,-303.41 796.72,-292.9"/>
<polygon fill="#63b8ff" stroke="#63b8ff" points="799.99,-291.6 793.74,-283.04 793.29,-293.63 799.99,-291.6"/>
</a>
</g>
</g>
<!-- Node25&#45;&gt;Node24 -->
<g id="edge63_Node000025_Node000024" class="edge">
<title>Node25&#45;&gt;Node24</title>
<g id="a_edge63_Node000025_Node000024"><a xlink:title=" ">
<path fill="none" stroke="#63b8ff" d="M869.61,-324.4C877.31,-322.58 885.09,-320.74 892.5,-319 941.36,-307.53 1285.55,-234.74 1332.5,-217 1368.4,-203.43 1374.41,-193.63 1408.5,-176 1433.41,-163.12 1462.08,-148.99 1482.49,-139.05"/>
<polygon fill="#63b8ff" stroke="#63b8ff" points="1484.06,-142.18 1491.53,-134.66 1481,-135.88 1484.06,-142.18"/>
</a>
</g>
</g>
<!-- Node26&#45;&gt;Node2 -->
<g id="edge70_Node000026_Node000002" class="edge">
<title>Node26&#45;&gt;Node2</title>
<g id="a_edge70_Node000026_Node000002"><a xlink:title=" ">
<path fill="none" stroke="#63b8ff" d="M1465.09,-252.88C1479.86,-234.51 1500.65,-201.71 1486.5,-176 1479.25,-162.83 1466.9,-152.64 1454.1,-145.01"/>
<polygon fill="#63b8ff" stroke="#63b8ff" points="1455.67,-141.88 1445.22,-140.12 1452.29,-148.01 1455.67,-141.88"/>
</a>
</g>
</g>
<!-- Node26&#45;&gt;Node3 -->
<g id="edge72_Node000026_Node000003" class="edge">
<title>Node26&#45;&gt;Node3</title>
<g id="a_edge72_Node000026_Node000003"><a xlink:title=" ">
<path fill="none" stroke="#63b8ff" d="M1525.63,-261.11C1585.96,-254.55 1664.73,-241.48 1684.5,-217 1695.95,-202.82 1692.27,-192.48 1684.5,-176 1664.85,-134.31 1647.23,-127.3 1604.5,-110 1519.23,-75.48 1254.91,-67.68 1123,-65.96"/>
<polygon fill="#63b8ff" stroke="#63b8ff" points="1123.01,-62.46 1112.96,-65.84 1122.92,-69.46 1123.01,-62.46"/>
</a>
</g>
</g>
<!-- Node26&#45;&gt;Node8 -->
<g id="edge71_Node000026_Node000008" class="edge">
<title>Node26&#45;&gt;Node8</title>
<g id="a_edge71_Node000026_Node000008"><a xlink:title=" ">
<path fill="none" stroke="#63b8ff" d="M1379.36,-265.33C1251.99,-261.63 981.45,-250.24 755.5,-217 740.96,-214.86 725.24,-211.63 711.21,-208.4"/>
<polygon fill="#63b8ff" stroke="#63b8ff" points="711.87,-204.96 701.33,-206.07 710.26,-211.78 711.87,-204.96"/>
</a>
</g>
</g>
<!-- Node27 -->
<g id="Node000027" class="node">
<title>Node27</title>
<g id="a_Node000027"><a xlink:title=" ">
<polygon fill="#e0e0e0" stroke="#999999" points="1477.5,-206 1417.5,-206 1417.5,-187 1477.5,-187 1477.5,-206"/>
<text text-anchor="middle" x="1447.5" y="-194" font-family="Helvetica,sans-Serif" font-size="10.00">iostream</text>
</a>
</g>
</g>
<!-- Node26&#45;&gt;Node27 -->
<g id="edge69_Node000026_Node000027" class="edge">
<title>Node26&#45;&gt;Node27</title>
<g id="a_edge69_Node000026_Node000027"><a xlink:title=" ">
<path fill="none" stroke="#63b8ff" d="M1451.49,-252.94C1450.73,-242.46 1449.7,-228.05 1448.87,-216.55"/>
<polygon fill="#63b8ff" stroke="#63b8ff" points="1452.34,-215.99 1448.13,-206.27 1445.36,-216.49 1452.34,-215.99"/>
</a>
</g>
</g>
<!-- Node28&#45;&gt;Node3 -->
<g id="edge77_Node000028_Node000003" class="edge">
<title>Node28&#45;&gt;Node3</title>
<g id="a_edge77_Node000028_Node000003"><a xlink:title=" ">
<path fill="none" stroke="#63b8ff" d="M984.31,-324.2C990.12,-313.16 997.97,-297.4 1003.5,-283 1027.07,-221.61 1031.38,-204.98 1041.5,-140 1044.42,-121.22 1045.64,-99.51 1046.14,-84.39"/>
<polygon fill="#63b8ff" stroke="#63b8ff" points="1049.65,-84.36 1046.41,-74.27 1042.65,-84.18 1049.65,-84.36"/>
</a>
</g>
</g>
<!-- Node28&#45;&gt;Node8 -->
<g id="edge75_Node000028_Node000008" class="edge">
<title>Node28&#45;&gt;Node8</title>
<g id="a_edge75_Node000028_Node000008"><a xlink:title=" ">
<path fill="none" stroke="#63b8ff" d="M960.37,-324.46C938.15,-305.77 896.23,-272.77 855.5,-253 830.17,-240.71 758.84,-220.96 711.96,-208.64"/>
<polygon fill="#63b8ff" stroke="#63b8ff" points="712.62,-205.19 702.06,-206.05 710.85,-211.97 712.62,-205.19"/>
</a>
</g>
</g>
<!-- Node28&#45;&gt;Node15 -->
<g id="edge76_Node000028_Node000015" class="edge">
<title>Node28&#45;&gt;Node15</title>
<g id="a_edge76_Node000028_Node000015"><a xlink:title=" ">
<path fill="none" stroke="#63b8ff" d="M938.66,-324.44C909.26,-313.51 868.31,-298.29 836.75,-286.56"/>
<polygon fill="#63b8ff" stroke="#63b8ff" points="837.88,-283.25 827.29,-283.04 835.44,-289.81 837.88,-283.25"/>
</a>
</g>
</g>
<!-- Node28&#45;&gt;Node27 -->
<g id="edge74_Node000028_Node000027" class="edge">
<title>Node28&#45;&gt;Node27</title>
<g id="a_edge74_Node000028_Node000027"><a xlink:title=" ">
<path fill="none" stroke="#63b8ff" d="M1035.69,-324.45C1118.89,-304.07 1274.67,-263.62 1403.5,-217 1409,-215.01 1414.78,-212.65 1420.28,-210.27"/>
<polygon fill="#63b8ff" stroke="#63b8ff" points="1422.04,-213.32 1429.75,-206.05 1419.19,-206.93 1422.04,-213.32"/>
</a>
</g>
</g>
</g>
</svg>
