<?xml version="1.0" encoding="UTF-8" standalone="no"?>
<!DOCTYPE svg PUBLIC "-//W3C//DTD SVG 1.1//EN"
 "http://www.w3.org/Graphics/SVG/1.1/DTD/svg11.dtd">
<!-- Generated by graphviz version 2.43.0 (0)
 -->
<!-- Title: include/jsonrpc/jsonrpc.hpp Pages: 1 -->
<svg width="1921pt" height="423pt"
 viewBox="0.00 0.00 1920.81 423.00" xmlns="http://www.w3.org/2000/svg" xmlns:xlink="http://www.w3.org/1999/xlink">
<g id="graph0" class="graph" transform="scale(1 1) rotate(0) translate(4 419)">
<title>include/jsonrpc/jsonrpc.hpp</title>
<!-- Node1 -->
<g id="Node000001" class="node">
<title>Node1</title>
<g id="a_Node000001"><a xlink:title=" ">
<polygon fill="#999999" stroke="#666666" points="1158.5,-415 1009.5,-415 1009.5,-396 1158.5,-396 1158.5,-415"/>
<text text-anchor="middle" x="1084" y="-403" font-family="Helvetica,sans-Serif" font-size="10.00">include/jsonrpc/jsonrpc.hpp</text>
</a>
</g>
</g>
<!-- Node2 -->
<g id="Node000002" class="node">
<title>Node2</title>
<g id="a_Node000002"><a xlink:href="client__transport_8hpp.html" target="_top" xlink:title=" ">
<polygon fill="white" stroke="#666666" points="1590,-140 1484,-140 1484,-110 1590,-110 1590,-140"/>
<text text-anchor="start" x="1492" y="-128" font-family="Helvetica,sans-Serif" font-size="10.00">jsonrpc/core/client</text>
<text text-anchor="middle" x="1537" y="-117" font-family="Helvetica,sans-Serif" font-size="10.00">_transport.hpp</text>
</a>
</g>
</g>
<!-- Node1&#45;&gt;Node2 -->
<g id="edge1_Node000001_Node000002" class="edge">
<title>Node1&#45;&gt;Node2</title>
<g id="a_edge1_Node000001_Node000002"><a xlink:title=" ">
<path fill="none" stroke="#63b8ff" d="M1158.73,-400.86C1231.91,-395.91 1336.94,-384.65 1369,-360 1439.83,-305.54 1390.29,-242.47 1450,-176 1461.57,-163.12 1477.27,-152.71 1492.14,-144.78"/>
<polygon fill="#63b8ff" stroke="#63b8ff" points="1493.91,-147.81 1501.26,-140.17 1490.75,-141.57 1493.91,-147.81"/>
</a>
</g>
</g>
<!-- Node4 -->
<g id="Node000004" class="node">
<title>Node4</title>
<g id="a_Node000004"><a xlink:href="types_8hpp.html" target="_top" xlink:title=" ">
<polygon fill="white" stroke="#666666" points="1147.5,-74 1020.5,-74 1020.5,-55 1147.5,-55 1147.5,-74"/>
<text text-anchor="middle" x="1084" y="-62" font-family="Helvetica,sans-Serif" font-size="10.00">jsonrpc/core/types.hpp</text>
</a>
</g>
</g>
<!-- Node1&#45;&gt;Node4 -->
<g id="edge31_Node000001_Node000004" class="edge">
<title>Node1&#45;&gt;Node4</title>
<g id="a_edge31_Node000001_Node000004"><a xlink:title=" ">
<path fill="none" stroke="#63b8ff" d="M1104.03,-395.99C1182.71,-361.46 1461.5,-227.93 1361,-110 1335.35,-79.9 1230.82,-70.08 1157.77,-66.93"/>
<polygon fill="#63b8ff" stroke="#63b8ff" points="1157.82,-63.43 1147.69,-66.52 1157.54,-70.42 1157.82,-63.43"/>
</a>
</g>
</g>
<!-- Node9 -->
<g id="Node000009" class="node">
<title>Node9</title>
<g id="a_Node000009"><a xlink:href="dispatcher_8hpp.html" target="_top" xlink:title=" ">
<polygon fill="white" stroke="#666666" points="493,-206 343,-206 343,-187 493,-187 493,-206"/>
<text text-anchor="middle" x="418" y="-194" font-family="Helvetica,sans-Serif" font-size="10.00">jsonrpc/core/dispatcher.hpp</text>
</a>
</g>
</g>
<!-- Node1&#45;&gt;Node9 -->
<g id="edge8_Node000001_Node000009" class="edge">
<title>Node1&#45;&gt;Node9</title>
<g id="a_edge8_Node000001_Node000009"><a xlink:title=" ">
<path fill="none" stroke="#63b8ff" d="M1009.34,-402.41C834.74,-397.17 412.87,-382.26 392,-360 354.45,-319.96 387.91,-248.49 406.94,-215.32"/>
<polygon fill="#63b8ff" stroke="#63b8ff" points="410.18,-216.72 412.29,-206.34 404.17,-213.14 410.18,-216.72"/>
</a>
</g>
</g>
<!-- Node13 -->
<g id="Node000013" class="node">
<title>Node13</title>
<g id="a_Node000013"><a xlink:href="core_2request_8hpp.html" target="_top" xlink:title=" ">
<polygon fill="white" stroke="#666666" points="621.5,-134.5 484.5,-134.5 484.5,-115.5 621.5,-115.5 621.5,-134.5"/>
<text text-anchor="middle" x="553" y="-122.5" font-family="Helvetica,sans-Serif" font-size="10.00">jsonrpc/core/request.hpp</text>
</a>
</g>
</g>
<!-- Node1&#45;&gt;Node13 -->
<g id="edge24_Node000001_Node000013" class="edge">
<title>Node1&#45;&gt;Node13</title>
<g id="a_edge24_Node000001_Node000013"><a xlink:title=" ">
<path fill="none" stroke="#63b8ff" d="M1009.24,-402.74C906.24,-399.27 726.85,-389.12 669,-360 585.94,-318.19 561.51,-193.18 555.08,-145.12"/>
<polygon fill="#63b8ff" stroke="#63b8ff" points="558.52,-144.39 553.84,-134.89 551.57,-145.24 558.52,-144.39"/>
</a>
</g>
</g>
<!-- Node14 -->
<g id="Node000014" class="node">
<title>Node14</title>
<g id="a_Node000014"><a xlink:href="response_8hpp.html" target="_top" xlink:title=" ">
<polygon fill="white" stroke="#666666" points="144,-134.5 0,-134.5 0,-115.5 144,-115.5 144,-134.5"/>
<text text-anchor="middle" x="72" y="-122.5" font-family="Helvetica,sans-Serif" font-size="10.00">jsonrpc/core/response.hpp</text>
</a>
</g>
</g>
<!-- Node1&#45;&gt;Node14 -->
<g id="edge25_Node000001_Node000014" class="edge">
<title>Node1&#45;&gt;Node14</title>
<g id="a_edge25_Node000001_Node000014"><a xlink:title=" ">
<path fill="none" stroke="#63b8ff" d="M1009.5,-402.34C838.96,-397.02 430.41,-382.15 372,-360 243.19,-311.16 125.15,-186.59 85.82,-142.1"/>
<polygon fill="#63b8ff" stroke="#63b8ff" points="88.43,-139.77 79.21,-134.54 83.16,-144.37 88.43,-139.77"/>
</a>
</g>
</g>
<!-- Node15 -->
<g id="Node000015" class="node">
<title>Node15</title>
<g id="a_Node000015"><a xlink:href="server__transport_8hpp.html" target="_top" xlink:title=" ">
<polygon fill="white" stroke="#666666" points="717,-283 607,-283 607,-253 717,-253 717,-283"/>
<text text-anchor="start" x="615" y="-271" font-family="Helvetica,sans-Serif" font-size="10.00">jsonrpc/core/server</text>
<text text-anchor="middle" x="662" y="-260" font-family="Helvetica,sans-Serif" font-size="10.00">_transport.hpp</text>
</a>
</g>
</g>
<!-- Node1&#45;&gt;Node15 -->
<g id="edge26_Node000001_Node000015" class="edge">
<title>Node1&#45;&gt;Node15</title>
<g id="a_edge26_Node000001_Node000015"><a xlink:title=" ">
<path fill="none" stroke="#63b8ff" d="M1009.11,-404.77C910.82,-403.66 745.23,-396.24 698,-360 677.22,-344.06 668.42,-314.33 664.69,-293.19"/>
<polygon fill="#63b8ff" stroke="#63b8ff" points="668.12,-292.41 663.18,-283.04 661.19,-293.44 668.12,-292.41"/>
</a>
</g>
</g>
<!-- Node18 -->
<g id="Node000018" class="node">
<title>Node18</title>
<g id="a_Node000018"><a xlink:href="server_8hpp.html" target="_top" xlink:title=" ">
<polygon fill="white" stroke="#666666" points="847,-349 707,-349 707,-330 847,-330 847,-349"/>
<text text-anchor="middle" x="777" y="-337" font-family="Helvetica,sans-Serif" font-size="10.00">jsonrpc/server/server.hpp</text>
</a>
</g>
</g>
<!-- Node1&#45;&gt;Node18 -->
<g id="edge32_Node000001_Node000018" class="edge">
<title>Node1&#45;&gt;Node18</title>
<g id="a_edge32_Node000001_Node000018"><a xlink:title=" ">
<path fill="none" stroke="#63b8ff" d="M1042.92,-395.94C987.31,-384.34 888.15,-363.67 827.89,-351.11"/>
<polygon fill="#63b8ff" stroke="#63b8ff" points="828.35,-347.63 817.84,-349.01 826.92,-354.48 828.35,-347.63"/>
</a>
</g>
</g>
<!-- Node19 -->
<g id="Node000019" class="node">
<title>Node19</title>
<g id="a_Node000019"><a xlink:href="client_8hpp.html" target="_top" xlink:title=" ">
<polygon fill="white" stroke="#666666" points="1150.5,-206 1017.5,-206 1017.5,-187 1150.5,-187 1150.5,-206"/>
<text text-anchor="middle" x="1084" y="-194" font-family="Helvetica,sans-Serif" font-size="10.00">jsonrpc/client/client.hpp</text>
</a>
</g>
</g>
<!-- Node1&#45;&gt;Node19 -->
<g id="edge38_Node000001_Node000019" class="edge">
<title>Node1&#45;&gt;Node19</title>
<g id="a_edge38_Node000001_Node000019"><a xlink:title=" ">
<path fill="none" stroke="#63b8ff" d="M1084,-395.87C1084,-365.03 1084,-259.82 1084,-216.44"/>
<polygon fill="#63b8ff" stroke="#63b8ff" points="1087.5,-216.17 1084,-206.17 1080.5,-216.17 1087.5,-216.17"/>
</a>
</g>
</g>
<!-- Node24 -->
<g id="Node000024" class="node">
<title>Node24</title>
<g id="a_Node000024"><a xlink:href="framed__stdio__client__transport_8hpp.html" target="_top" xlink:title=" ">
<polygon fill="white" stroke="#666666" points="1739,-217 1623,-217 1623,-176 1739,-176 1739,-217"/>
<text text-anchor="start" x="1631" y="-205" font-family="Helvetica,sans-Serif" font-size="10.00">jsonrpc/transports</text>
<text text-anchor="start" x="1631" y="-194" font-family="Helvetica,sans-Serif" font-size="10.00">/framed_stdio_client</text>
<text text-anchor="middle" x="1681" y="-183" font-family="Helvetica,sans-Serif" font-size="10.00">_transport.hpp</text>
</a>
</g>
</g>
<!-- Node1&#45;&gt;Node24 -->
<g id="edge55_Node000001_Node000024" class="edge">
<title>Node1&#45;&gt;Node24</title>
<g id="a_edge55_Node000001_Node000024"><a xlink:title=" ">
<path fill="none" stroke="#63b8ff" d="M1158.77,-401.05C1256.79,-395.67 1422.86,-383.39 1479,-360 1553.08,-329.13 1621.97,-262.42 1656.95,-224.78"/>
<polygon fill="#63b8ff" stroke="#63b8ff" points="1659.71,-226.95 1663.89,-217.21 1654.55,-222.22 1659.71,-226.95"/>
</a>
</g>
</g>
<!-- Node25 -->
<g id="Node000025" class="node">
<title>Node25</title>
<g id="a_Node000025"><a xlink:href="framed__transport_8hpp.html" target="_top" xlink:title=" ">
<polygon fill="white" stroke="#666666" points="1885.5,-140 1760.5,-140 1760.5,-110 1885.5,-110 1885.5,-140"/>
<text text-anchor="start" x="1768.5" y="-128" font-family="Helvetica,sans-Serif" font-size="10.00">jsonrpc/transports</text>
<text text-anchor="middle" x="1823" y="-117" font-family="Helvetica,sans-Serif" font-size="10.00">/framed_transport.hpp</text>
</a>
</g>
</g>
<!-- Node1&#45;&gt;Node25 -->
<g id="edge66_Node000001_Node000025" class="edge">
<title>Node1&#45;&gt;Node25</title>
<g id="a_edge66_Node000001_Node000025"><a xlink:title=" ">
<path fill="none" stroke="#63b8ff" d="M1158.57,-402.82C1344.05,-398.27 1813,-384.4 1836,-360 1890.47,-302.21 1854.33,-196.52 1834.08,-149.56"/>
<polygon fill="#63b8ff" stroke="#63b8ff" points="1837.18,-147.93 1829.92,-140.22 1830.79,-150.78 1837.18,-147.93"/>
</a>
</g>
</g>
<!-- Node26 -->
<g id="Node000026" class="node">
<title>Node26</title>
<g id="a_Node000026"><a xlink:href="framed__stdio__server__transport_8hpp.html" target="_top" xlink:title=" ">
<polygon fill="white" stroke="#666666" points="1827,-360 1707,-360 1707,-319 1827,-319 1827,-360"/>
<text text-anchor="start" x="1715" y="-348" font-family="Helvetica,sans-Serif" font-size="10.00">jsonrpc/transports</text>
<text text-anchor="start" x="1715" y="-337" font-family="Helvetica,sans-Serif" font-size="10.00">/framed_stdio_server</text>
<text text-anchor="middle" x="1767" y="-326" font-family="Helvetica,sans-Serif" font-size="10.00">_transport.hpp</text>
</a>
</g>
</g>
<!-- Node1&#45;&gt;Node26 -->
<g id="edge61_Node000001_Node000026" class="edge">
<title>Node1&#45;&gt;Node26</title>
<g id="a_edge61_Node000001_Node000026"><a xlink:title=" ">
<path fill="none" stroke="#63b8ff" d="M1158.67,-400.21C1265.4,-393.68 1467.61,-379.9 1639,-360 1657.83,-357.81 1678.15,-354.95 1696.93,-352.1"/>
<polygon fill="#63b8ff" stroke="#63b8ff" points="1697.54,-355.54 1706.89,-350.56 1696.47,-348.62 1697.54,-355.54"/>
</a>
</g>
</g>
<!-- Node27 -->
<g id="Node000027" class="node">
<title>Node27</title>
<g id="a_Node000027"><a xlink:href="stdio__client__transport_8hpp.html" target="_top" xlink:title=" ">
<polygon fill="white" stroke="#666666" points="1605,-211.5 1459,-211.5 1459,-181.5 1605,-181.5 1605,-211.5"/>
<text text-anchor="start" x="1467" y="-199.5" font-family="Helvetica,sans-Serif" font-size="10.00">jsonrpc/transports</text>
<text text-anchor="middle" x="1532" y="-188.5" font-family="Helvetica,sans-Serif" font-size="10.00">/stdio_client_transport.hpp</text>
</a>
</g>
</g>
<!-- Node1&#45;&gt;Node27 -->
<g id="edge67_Node000001_Node000027" class="edge">
<title>Node1&#45;&gt;Node27</title>
<g id="a_edge67_Node000001_Node000027"><a xlink:title=" ">
<path fill="none" stroke="#63b8ff" d="M1158.63,-403.25C1250.49,-400.38 1399.88,-390.93 1445,-360 1493.29,-326.9 1516.99,-258.12 1526.59,-221.56"/>
<polygon fill="#63b8ff" stroke="#63b8ff" points="1530.01,-222.29 1529.02,-211.74 1523.22,-220.6 1530.01,-222.29"/>
</a>
</g>
</g>
<!-- Node28 -->
<g id="Node000028" class="node">
<title>Node28</title>
<g id="a_Node000028"><a xlink:href="stdio__server__transport_8hpp.html" target="_top" xlink:title=" ">
<polygon fill="white" stroke="#666666" points="551,-354.5 401,-354.5 401,-324.5 551,-324.5 551,-354.5"/>
<text text-anchor="start" x="409" y="-342.5" font-family="Helvetica,sans-Serif" font-size="10.00">jsonrpc/transports</text>
<text text-anchor="middle" x="476" y="-331.5" font-family="Helvetica,sans-Serif" font-size="10.00">/stdio_server_transport.hpp</text>
</a>
</g>
</g>
<!-- Node1&#45;&gt;Node28 -->
<g id="edge70_Node000001_Node000028" class="edge">
<title>Node1&#45;&gt;Node28</title>
<g id="a_edge70_Node000001_Node000028"><a xlink:title=" ">
<path fill="none" stroke="#63b8ff" d="M1009.3,-401.15C908.13,-395.92 722.14,-383.85 565,-360 558.49,-359.01 551.73,-357.83 545,-356.54"/>
<polygon fill="#63b8ff" stroke="#63b8ff" points="545.65,-353.1 535.16,-354.59 544.29,-359.97 545.65,-353.1"/>
</a>
</g>
</g>
<!-- Node3 -->
<g id="Node000003" class="node">
<title>Node3</title>
<g id="a_Node000003"><a xlink:title=" ">
<polygon fill="#e0e0e0" stroke="#999999" points="1478,-74 1434,-74 1434,-55 1478,-55 1478,-74"/>
<text text-anchor="middle" x="1456" y="-62" font-family="Helvetica,sans-Serif" font-size="10.00">string</text>
</a>
</g>
</g>
<!-- Node2&#45;&gt;Node3 -->
<g id="edge2_Node000002_Node000003" class="edge">
<title>Node2&#45;&gt;Node3</title>
<g id="a_edge2_Node000002_Node000003"><a xlink:title=" ">
<path fill="none" stroke="#63b8ff" d="M1517.39,-109.84C1505.03,-100.91 1489.1,-89.41 1476.57,-80.35"/>
<polygon fill="#63b8ff" stroke="#63b8ff" points="1478.29,-77.28 1468.14,-74.27 1474.2,-82.96 1478.29,-77.28"/>
</a>
</g>
</g>
<!-- Node2&#45;&gt;Node4 -->
<g id="edge3_Node000002_Node000004" class="edge">
<title>Node2&#45;&gt;Node4</title>
<g id="a_edge3_Node000002_Node000004"><a xlink:title=" ">
<path fill="none" stroke="#63b8ff" d="M1483.7,-117.12C1402.89,-106.68 1249.1,-86.82 1157.64,-75.01"/>
<polygon fill="#63b8ff" stroke="#63b8ff" points="1157.99,-71.53 1147.63,-73.72 1157.1,-78.47 1157.99,-71.53"/>
</a>
</g>
</g>
<!-- Node5 -->
<g id="Node000005" class="node">
<title>Node5</title>
<g id="a_Node000005"><a xlink:title=" ">
<polygon fill="#e0e0e0" stroke="#999999" points="1218.5,-19 1153.5,-19 1153.5,0 1218.5,0 1218.5,-19"/>
<text text-anchor="middle" x="1186" y="-7" font-family="Helvetica,sans-Serif" font-size="10.00">functional</text>
</a>
</g>
</g>
<!-- Node4&#45;&gt;Node5 -->
<g id="edge4_Node000004_Node000005" class="edge">
<title>Node4&#45;&gt;Node5</title>
<g id="a_edge4_Node000004_Node000005"><a xlink:title=" ">
<path fill="none" stroke="#63b8ff" d="M1100.39,-54.98C1116.57,-46.57 1141.57,-33.59 1160.38,-23.81"/>
<polygon fill="#63b8ff" stroke="#63b8ff" points="1162.05,-26.89 1169.31,-19.17 1158.83,-20.68 1162.05,-26.89"/>
</a>
</g>
</g>
<!-- Node6 -->
<g id="Node000006" class="node">
<title>Node6</title>
<g id="a_Node000006"><a xlink:title=" ">
<polygon fill="#e0e0e0" stroke="#999999" points="764,-19 708,-19 708,0 764,0 764,-19"/>
<text text-anchor="middle" x="736" y="-7" font-family="Helvetica,sans-Serif" font-size="10.00">optional</text>
</a>
</g>
</g>
<!-- Node4&#45;&gt;Node6 -->
<g id="edge5_Node000004_Node000006" class="edge">
<title>Node4&#45;&gt;Node6</title>
<g id="a_edge5_Node000004_Node000006"><a xlink:title=" ">
<path fill="none" stroke="#63b8ff" d="M1028.09,-54.98C956.89,-44.14 835.75,-25.69 774.25,-16.33"/>
<polygon fill="#63b8ff" stroke="#63b8ff" points="774.61,-12.84 764.2,-14.8 773.56,-19.76 774.61,-12.84"/>
</a>
</g>
</g>
<!-- Node7 -->
<g id="Node000007" class="node">
<title>Node7</title>
<g id="a_Node000007"><a xlink:title=" ">
<polygon fill="#e0e0e0" stroke="#999999" points="1006.5,-19 955.5,-19 955.5,0 1006.5,0 1006.5,-19"/>
<text text-anchor="middle" x="981" y="-7" font-family="Helvetica,sans-Serif" font-size="10.00">variant</text>
</a>
</g>
</g>
<!-- Node4&#45;&gt;Node7 -->
<g id="edge6_Node000004_Node000007" class="edge">
<title>Node4&#45;&gt;Node7</title>
<g id="a_edge6_Node000004_Node000007"><a xlink:title=" ">
<path fill="none" stroke="#63b8ff" d="M1067.45,-54.98C1051.11,-46.57 1025.87,-33.59 1006.87,-23.81"/>
<polygon fill="#63b8ff" stroke="#63b8ff" points="1008.34,-20.63 997.85,-19.17 1005.14,-26.86 1008.34,-20.63"/>
</a>
</g>
</g>
<!-- Node8 -->
<g id="Node000008" class="node">
<title>Node8</title>
<g id="a_Node000008"><a xlink:title=" ">
<polygon fill="#e0e0e0" stroke="#999999" points="1135,-19 1025,-19 1025,0 1135,0 1135,-19"/>
<text text-anchor="middle" x="1080" y="-7" font-family="Helvetica,sans-Serif" font-size="10.00">nlohmann/json.hpp</text>
</a>
</g>
</g>
<!-- Node4&#45;&gt;Node8 -->
<g id="edge7_Node000004_Node000008" class="edge">
<title>Node4&#45;&gt;Node8</title>
<g id="a_edge7_Node000004_Node000008"><a xlink:title=" ">
<path fill="none" stroke="#63b8ff" d="M1083.34,-54.75C1082.82,-47.8 1082.06,-37.85 1081.41,-29.13"/>
<polygon fill="#63b8ff" stroke="#63b8ff" points="1084.89,-28.8 1080.65,-19.09 1077.91,-29.32 1084.89,-28.8"/>
</a>
</g>
</g>
<!-- Node9&#45;&gt;Node3 -->
<g id="edge10_Node000009_Node000003" class="edge">
<title>Node9&#45;&gt;Node3</title>
<g id="a_edge10_Node000009_Node000003"><a xlink:title=" ">
<path fill="none" stroke="#63b8ff" d="M450.74,-186.93C533.41,-165.29 744.07,-110.15 745,-110 878.65,-88.55 1303.57,-71.25 1423.94,-66.68"/>
<polygon fill="#63b8ff" stroke="#63b8ff" points="1424.13,-70.18 1433.99,-66.3 1423.87,-63.18 1424.13,-70.18"/>
</a>
</g>
</g>
<!-- Node9&#45;&gt;Node4 -->
<g id="edge23_Node000009_Node000004" class="edge">
<title>Node9&#45;&gt;Node4</title>
<g id="a_edge23_Node000009_Node000004"><a xlink:title=" ">
<path fill="none" stroke="#63b8ff" d="M420.85,-186.79C427.25,-168.79 444.64,-127.7 475,-110 486.43,-103.34 850.32,-80.01 1010.05,-70.06"/>
<polygon fill="#63b8ff" stroke="#63b8ff" points="1010.51,-73.53 1020.27,-69.42 1010.07,-66.55 1010.51,-73.53"/>
</a>
</g>
</g>
<!-- Node9&#45;&gt;Node6 -->
<g id="edge9_Node000009_Node000006" class="edge">
<title>Node9&#45;&gt;Node6</title>
<g id="a_edge9_Node000009_Node000006"><a xlink:title=" ">
<path fill="none" stroke="#63b8ff" d="M369.36,-186.93C313.76,-175.02 234.38,-150.26 267,-110 321.34,-42.93 595.49,-19.23 697.6,-12.64"/>
<polygon fill="#63b8ff" stroke="#63b8ff" points="698.01,-16.12 707.78,-12.01 697.58,-9.14 698.01,-16.12"/>
</a>
</g>
</g>
<!-- Node10 -->
<g id="Node000010" class="node">
<title>Node10</title>
<g id="a_Node000010"><a xlink:title=" ">
<polygon fill="#e0e0e0" stroke="#999999" points="218.5,-74 125.5,-74 125.5,-55 218.5,-55 218.5,-74"/>
<text text-anchor="middle" x="172" y="-62" font-family="Helvetica,sans-Serif" font-size="10.00">unordered_map</text>
</a>
</g>
</g>
<!-- Node9&#45;&gt;Node10 -->
<g id="edge11_Node000009_Node000010" class="edge">
<title>Node9&#45;&gt;Node10</title>
<g id="a_edge11_Node000009_Node000010"><a xlink:title=" ">
<path fill="none" stroke="#63b8ff" d="M359.97,-186.95C321.77,-179.25 271.98,-165.14 234,-140 211.72,-125.25 193.22,-100.12 182.39,-83.18"/>
<polygon fill="#63b8ff" stroke="#63b8ff" points="185.14,-80.97 176.92,-74.28 179.17,-84.64 185.14,-80.97"/>
</a>
</g>
</g>
<!-- Node11 -->
<g id="Node000011" class="node">
<title>Node11</title>
<g id="a_Node000011"><a xlink:title=" ">
<polygon fill="#e0e0e0" stroke="#999999" points="925.5,-74 878.5,-74 878.5,-55 925.5,-55 925.5,-74"/>
<text text-anchor="middle" x="902" y="-62" font-family="Helvetica,sans-Serif" font-size="10.00">vector</text>
</a>
</g>
</g>
<!-- Node9&#45;&gt;Node11 -->
<g id="edge12_Node000009_Node000011" class="edge">
<title>Node9&#45;&gt;Node11</title>
<g id="a_edge12_Node000009_Node000011"><a xlink:title=" ">
<path fill="none" stroke="#63b8ff" d="M417.52,-186.81C417.07,-169.21 418.83,-129.39 442,-110 474.54,-82.77 767.4,-70.16 868.14,-66.6"/>
<polygon fill="#63b8ff" stroke="#63b8ff" points="868.49,-70.09 878.37,-66.24 868.25,-63.09 868.49,-70.09"/>
</a>
</g>
</g>
<!-- Node12 -->
<g id="Node000012" class="node">
<title>Node12</title>
<g id="a_Node000012"><a xlink:title=" ">
<polygon fill="#e0e0e0" stroke="#999999" points="389.5,-134.5 276.5,-134.5 276.5,-115.5 389.5,-115.5 389.5,-134.5"/>
<text text-anchor="middle" x="333" y="-122.5" font-family="Helvetica,sans-Serif" font-size="10.00">BS_thread_pool.hpp</text>
</a>
</g>
</g>
<!-- Node9&#45;&gt;Node12 -->
<g id="edge13_Node000009_Node000012" class="edge">
<title>Node9&#45;&gt;Node12</title>
<g id="a_edge13_Node000009_Node000012"><a xlink:title=" ">
<path fill="none" stroke="#63b8ff" d="M407.58,-186.98C393.69,-175.62 368.86,-155.32 351.69,-141.28"/>
<polygon fill="#63b8ff" stroke="#63b8ff" points="353.47,-138.21 343.51,-134.59 349.03,-143.63 353.47,-138.21"/>
</a>
</g>
</g>
<!-- Node9&#45;&gt;Node13 -->
<g id="edge14_Node000009_Node000013" class="edge">
<title>Node9&#45;&gt;Node13</title>
<g id="a_edge14_Node000009_Node000013"><a xlink:title=" ">
<path fill="none" stroke="#63b8ff" d="M434.55,-186.98C457.73,-175.05 500.07,-153.25 527.35,-139.21"/>
<polygon fill="#63b8ff" stroke="#63b8ff" points="529.02,-142.28 536.31,-134.59 525.82,-136.06 529.02,-142.28"/>
</a>
</g>
</g>
<!-- Node9&#45;&gt;Node14 -->
<g id="edge18_Node000009_Node000014" class="edge">
<title>Node9&#45;&gt;Node14</title>
<g id="a_edge18_Node000009_Node000014"><a xlink:title=" ">
<path fill="none" stroke="#63b8ff" d="M375.57,-186.98C312.32,-174.27 193.4,-150.39 124.68,-136.58"/>
<polygon fill="#63b8ff" stroke="#63b8ff" points="125,-133.08 114.5,-134.54 123.62,-139.94 125,-133.08"/>
</a>
</g>
</g>
<!-- Node13&#45;&gt;Node3 -->
<g id="edge16_Node000013_Node000003" class="edge">
<title>Node13&#45;&gt;Node3</title>
<g id="a_edge16_Node000013_Node000003"><a xlink:title=" ">
<path fill="none" stroke="#63b8ff" d="M621.84,-117.51C649.8,-114.99 682.43,-112.19 712,-110 987.13,-89.66 1320.03,-72.34 1423.64,-67.11"/>
<polygon fill="#63b8ff" stroke="#63b8ff" points="1423.96,-70.6 1433.77,-66.6 1423.61,-63.61 1423.96,-70.6"/>
</a>
</g>
</g>
<!-- Node13&#45;&gt;Node4 -->
<g id="edge17_Node000013_Node000004" class="edge">
<title>Node13&#45;&gt;Node4</title>
<g id="a_edge17_Node000013_Node000004"><a xlink:title=" ">
<path fill="none" stroke="#63b8ff" d="M600.32,-115.45C611.96,-113.5 624.41,-111.55 636,-110 767.47,-92.4 921.52,-78.58 1010.43,-71.26"/>
<polygon fill="#63b8ff" stroke="#63b8ff" points="1010.73,-74.75 1020.41,-70.44 1010.16,-67.77 1010.73,-74.75"/>
</a>
</g>
</g>
<!-- Node13&#45;&gt;Node6 -->
<g id="edge15_Node000013_Node000006" class="edge">
<title>Node13&#45;&gt;Node6</title>
<g id="a_edge15_Node000013_Node000006"><a xlink:title=" ">
<path fill="none" stroke="#63b8ff" d="M566.75,-115.47C598.02,-96.08 674.68,-48.53 713.17,-24.66"/>
<polygon fill="#63b8ff" stroke="#63b8ff" points="715.43,-27.38 722.09,-19.13 711.74,-21.43 715.43,-27.38"/>
</a>
</g>
</g>
<!-- Node14&#45;&gt;Node3 -->
<g id="edge20_Node000014_Node000003" class="edge">
<title>Node14&#45;&gt;Node3</title>
<g id="a_edge20_Node000014_Node000003"><a xlink:title=" ">
<path fill="none" stroke="#63b8ff" d="M144.2,-118.22C180.94,-115.44 226.33,-112.22 267,-110 501.63,-97.19 1258.27,-72 1423.81,-66.56"/>
<polygon fill="#63b8ff" stroke="#63b8ff" points="1423.96,-70.05 1433.84,-66.23 1423.73,-63.06 1423.96,-70.05"/>
</a>
</g>
</g>
<!-- Node14&#45;&gt;Node4 -->
<g id="edge22_Node000014_Node000004" class="edge">
<title>Node14&#45;&gt;Node4</title>
<g id="a_edge22_Node000014_Node000004"><a xlink:title=" ">
<path fill="none" stroke="#63b8ff" d="M140.47,-115.48C158.51,-113.45 177.97,-111.46 196,-110 523.32,-83.57 606.07,-91.29 934,-74 958.73,-72.7 985.75,-71.19 1009.95,-69.81"/>
<polygon fill="#63b8ff" stroke="#63b8ff" points="1010.36,-73.29 1020.14,-69.23 1009.96,-66.31 1010.36,-73.29"/>
</a>
</g>
</g>
<!-- Node14&#45;&gt;Node6 -->
<g id="edge19_Node000014_Node000006" class="edge">
<title>Node14&#45;&gt;Node6</title>
<g id="a_edge19_Node000014_Node000006"><a xlink:title=" ">
<path fill="none" stroke="#63b8ff" d="M74.64,-115.36C79.81,-100.13 92.81,-68.82 116,-55 165.88,-25.28 570.02,-14.08 697.58,-11.27"/>
<polygon fill="#63b8ff" stroke="#63b8ff" points="697.74,-14.76 707.66,-11.05 697.59,-7.76 697.74,-14.76"/>
</a>
</g>
</g>
<!-- Node14&#45;&gt;Node10 -->
<g id="edge21_Node000014_Node000010" class="edge">
<title>Node14&#45;&gt;Node10</title>
<g id="a_edge21_Node000014_Node000010"><a xlink:title=" ">
<path fill="none" stroke="#63b8ff" d="M86.76,-115.37C103,-105.86 129.35,-90.45 148.46,-79.27"/>
<polygon fill="#63b8ff" stroke="#63b8ff" points="150.32,-82.24 157.18,-74.17 146.79,-76.2 150.32,-82.24"/>
</a>
</g>
</g>
<!-- Node15&#45;&gt;Node4 -->
<g id="edge30_Node000015_Node000004" class="edge">
<title>Node15&#45;&gt;Node4</title>
<g id="a_edge30_Node000015_Node000004"><a xlink:title=" ">
<path fill="none" stroke="#63b8ff" d="M657.89,-252.93C649.89,-222.27 636.15,-149.07 674,-110 685.55,-98.08 895.42,-80.09 1010.29,-71.07"/>
<polygon fill="#63b8ff" stroke="#63b8ff" points="1010.73,-74.54 1020.43,-70.28 1010.18,-67.56 1010.73,-74.54"/>
</a>
</g>
</g>
<!-- Node15&#45;&gt;Node9 -->
<g id="edge29_Node000015_Node000009" class="edge">
<title>Node15&#45;&gt;Node9</title>
<g id="a_edge29_Node000015_Node000009"><a xlink:title=" ">
<path fill="none" stroke="#63b8ff" d="M612.62,-252.94C566.99,-239.94 500.03,-220.87 457.75,-208.82"/>
<polygon fill="#63b8ff" stroke="#63b8ff" points="458.66,-205.44 448.08,-206.07 456.74,-212.17 458.66,-205.44"/>
</a>
</g>
</g>
<!-- Node16 -->
<g id="Node000016" class="node">
<title>Node16</title>
<g id="a_Node000016"><a xlink:title=" ">
<polygon fill="#e0e0e0" stroke="#999999" points="880,-134.5 830,-134.5 830,-115.5 880,-115.5 880,-134.5"/>
<text text-anchor="middle" x="855" y="-122.5" font-family="Helvetica,sans-Serif" font-size="10.00">atomic</text>
</a>
</g>
</g>
<!-- Node15&#45;&gt;Node16 -->
<g id="edge27_Node000015_Node000016" class="edge">
<title>Node15&#45;&gt;Node16</title>
<g id="a_edge27_Node000015_Node000016"><a xlink:title=" ">
<path fill="none" stroke="#63b8ff" d="M683.93,-252.95C699.03,-243.14 719.45,-229.59 737,-217 772.97,-191.19 813.58,-159.22 836.55,-140.86"/>
<polygon fill="#63b8ff" stroke="#63b8ff" points="838.84,-143.52 844.45,-134.53 834.46,-138.06 838.84,-143.52"/>
</a>
</g>
</g>
<!-- Node17 -->
<g id="Node000017" class="node">
<title>Node17</title>
<g id="a_Node000017"><a xlink:title=" ">
<polygon fill="#e0e0e0" stroke="#999999" points="812,-134.5 754,-134.5 754,-115.5 812,-115.5 812,-134.5"/>
<text text-anchor="middle" x="783" y="-122.5" font-family="Helvetica,sans-Serif" font-size="10.00">memory</text>
</a>
</g>
</g>
<!-- Node15&#45;&gt;Node17 -->
<g id="edge28_Node000015_Node000017" class="edge">
<title>Node15&#45;&gt;Node17</title>
<g id="a_edge28_Node000015_Node000017"><a xlink:title=" ">
<path fill="none" stroke="#63b8ff" d="M674.04,-252.96C696.58,-226.7 745,-170.28 768.97,-142.35"/>
<polygon fill="#63b8ff" stroke="#63b8ff" points="771.71,-144.53 775.57,-134.66 766.4,-139.97 771.71,-144.53"/>
</a>
</g>
</g>
<!-- Node18&#45;&gt;Node3 -->
<g id="edge34_Node000018_Node000003" class="edge">
<title>Node18&#45;&gt;Node3</title>
<g id="a_edge34_Node000018_Node000003"><a xlink:title=" ">
<path fill="none" stroke="#63b8ff" d="M847.02,-330.12C969,-312.68 1224.14,-263.28 1399,-140 1420.14,-125.1 1436.99,-100.01 1446.73,-83.11"/>
<polygon fill="#63b8ff" stroke="#63b8ff" points="1449.86,-84.69 1451.63,-74.25 1443.73,-81.31 1449.86,-84.69"/>
</a>
</g>
</g>
<!-- Node18&#45;&gt;Node4 -->
<g id="edge37_Node000018_Node000004" class="edge">
<title>Node18&#45;&gt;Node4</title>
<g id="a_edge37_Node000018_Node000004"><a xlink:title=" ">
<path fill="none" stroke="#63b8ff" d="M771.56,-329.69C751.7,-296.28 687.15,-175.94 745,-110 762.21,-90.38 915.72,-76.72 1010.17,-70.09"/>
<polygon fill="#63b8ff" stroke="#63b8ff" points="1010.51,-73.57 1020.25,-69.39 1010.03,-66.59 1010.51,-73.57"/>
</a>
</g>
</g>
<!-- Node18&#45;&gt;Node9 -->
<g id="edge35_Node000018_Node000009" class="edge">
<title>Node18&#45;&gt;Node9</title>
<g id="a_edge35_Node000018_Node000009"><a xlink:title=" ">
<path fill="none" stroke="#63b8ff" d="M744.51,-329.93C708.28,-320.04 648.16,-302.57 598,-283 541.39,-260.91 477.72,-228.88 443.33,-210.95"/>
<polygon fill="#63b8ff" stroke="#63b8ff" points="444.52,-207.62 434.04,-206.08 441.27,-213.82 444.52,-207.62"/>
</a>
</g>
</g>
<!-- Node18&#45;&gt;Node15 -->
<g id="edge36_Node000018_Node000015" class="edge">
<title>Node18&#45;&gt;Node15</title>
<g id="a_edge36_Node000018_Node000015"><a xlink:title=" ">
<path fill="none" stroke="#63b8ff" d="M762.9,-329.98C745.85,-319.67 716.63,-302.02 694.01,-288.34"/>
<polygon fill="#63b8ff" stroke="#63b8ff" points="695.76,-285.31 685.39,-283.14 692.14,-291.31 695.76,-285.31"/>
</a>
</g>
</g>
<!-- Node18&#45;&gt;Node17 -->
<g id="edge33_Node000018_Node000017" class="edge">
<title>Node18&#45;&gt;Node17</title>
<g id="a_edge33_Node000018_Node000017"><a xlink:title=" ">
<path fill="none" stroke="#63b8ff" d="M777.24,-329.91C778.13,-298.48 781.21,-189.3 782.46,-144.95"/>
<polygon fill="#63b8ff" stroke="#63b8ff" points="785.96,-145.03 782.75,-134.94 778.97,-144.83 785.96,-145.03"/>
</a>
</g>
</g>
<!-- Node19&#45;&gt;Node2 -->
<g id="edge54_Node000019_Node000002" class="edge">
<title>Node19&#45;&gt;Node2</title>
<g id="a_edge54_Node000019_Node000002"><a xlink:title=" ">
<path fill="none" stroke="#63b8ff" d="M1139.55,-186.98C1224.17,-173.99 1384.92,-149.33 1473.86,-135.69"/>
<polygon fill="#63b8ff" stroke="#63b8ff" points="1474.46,-139.14 1483.81,-134.16 1473.4,-132.22 1474.46,-139.14"/>
</a>
</g>
</g>
<!-- Node19&#45;&gt;Node3 -->
<g id="edge44_Node000019_Node000003" class="edge">
<title>Node19&#45;&gt;Node3</title>
<g id="a_edge44_Node000019_Node000003"><a xlink:title=" ">
<path fill="none" stroke="#63b8ff" d="M1150.76,-190.87C1208.6,-184.85 1293.39,-171.12 1361,-140 1392.54,-125.48 1423.03,-98.57 1440.63,-81.37"/>
<polygon fill="#63b8ff" stroke="#63b8ff" points="1443.17,-83.78 1447.77,-74.23 1438.22,-78.83 1443.17,-83.78"/>
</a>
</g>
</g>
<!-- Node19&#45;&gt;Node6 -->
<g id="edge43_Node000019_Node000006" class="edge">
<title>Node19&#45;&gt;Node6</title>
<g id="a_edge43_Node000019_Node000006"><a xlink:title=" ">
<path fill="none" stroke="#63b8ff" d="M1068.72,-186.86C1051.69,-176.82 1023.8,-159.18 1003,-140 967.23,-107.02 975.35,-80.64 934,-55 884.45,-24.28 816.23,-14.68 774.18,-11.73"/>
<polygon fill="#63b8ff" stroke="#63b8ff" points="774.27,-8.23 764.08,-11.12 773.85,-15.22 774.27,-8.23"/>
</a>
</g>
</g>
<!-- Node19&#45;&gt;Node10 -->
<g id="edge46_Node000019_Node000010" class="edge">
<title>Node19&#45;&gt;Node10</title>
<g id="a_edge46_Node000019_Node000010"><a xlink:title=" ">
<path fill="none" stroke="#63b8ff" d="M1054.96,-186.98C1024.11,-177.43 974.33,-160.55 934,-140 912.58,-129.09 911.78,-117.68 889,-110 767.09,-68.92 376.04,-65.15 228.8,-65.24"/>
<polygon fill="#63b8ff" stroke="#63b8ff" points="228.62,-61.74 218.62,-65.25 228.63,-68.74 228.62,-61.74"/>
</a>
</g>
</g>
<!-- Node19&#45;&gt;Node11 -->
<g id="edge47_Node000019_Node000011" class="edge">
<title>Node19&#45;&gt;Node11</title>
<g id="a_edge47_Node000019_Node000011"><a xlink:title=" ">
<path fill="none" stroke="#63b8ff" d="M1059.83,-186.84C1035.69,-177.5 998.21,-161.09 970,-140 947.75,-123.37 926.97,-98.74 914.37,-82.42"/>
<polygon fill="#63b8ff" stroke="#63b8ff" points="917.08,-80.19 908.26,-74.3 911.48,-84.4 917.08,-80.19"/>
</a>
</g>
</g>
<!-- Node19&#45;&gt;Node16 -->
<g id="edge39_Node000019_Node000016" class="edge">
<title>Node19&#45;&gt;Node16</title>
<g id="a_edge39_Node000019_Node000016"><a xlink:title=" ">
<path fill="none" stroke="#63b8ff" d="M1052.55,-186.94C1014.73,-176.5 949.39,-158.01 894,-140 891.89,-139.31 889.72,-138.59 887.53,-137.84"/>
<polygon fill="#63b8ff" stroke="#63b8ff" points="888.61,-134.51 878.02,-134.52 886.31,-141.12 888.61,-134.51"/>
</a>
</g>
</g>
<!-- Node19&#45;&gt;Node17 -->
<g id="edge41_Node000019_Node000017" class="edge">
<title>Node19&#45;&gt;Node17</title>
<g id="a_edge41_Node000019_Node000017"><a xlink:title=" ">
<path fill="none" stroke="#63b8ff" d="M1032.55,-186.92C979.14,-177.49 893.42,-160.86 821,-140 818.72,-139.34 816.38,-138.62 814.04,-137.85"/>
<polygon fill="#63b8ff" stroke="#63b8ff" points="815.12,-134.52 804.52,-134.55 812.82,-141.13 815.12,-134.52"/>
</a>
</g>
</g>
<!-- Node20 -->
<g id="Node000020" class="node">
<title>Node20</title>
<g id="a_Node000020"><a xlink:title=" ">
<polygon fill="#e0e0e0" stroke="#999999" points="1220,-134.5 1174,-134.5 1174,-115.5 1220,-115.5 1220,-134.5"/>
<text text-anchor="middle" x="1197" y="-122.5" font-family="Helvetica,sans-Serif" font-size="10.00">future</text>
</a>
</g>
</g>
<!-- Node19&#45;&gt;Node20 -->
<g id="edge40_Node000019_Node000020" class="edge">
<title>Node19&#45;&gt;Node20</title>
<g id="a_edge40_Node000019_Node000020"><a xlink:title=" ">
<path fill="none" stroke="#63b8ff" d="M1097.86,-186.98C1116.92,-175.25 1151.46,-154.01 1174.32,-139.95"/>
<polygon fill="#63b8ff" stroke="#63b8ff" points="1176.35,-142.81 1183.03,-134.59 1172.68,-136.85 1176.35,-142.81"/>
</a>
</g>
</g>
<!-- Node21 -->
<g id="Node000021" class="node">
<title>Node21</title>
<g id="a_Node000021"><a xlink:title=" ">
<polygon fill="#e0e0e0" stroke="#999999" points="1286,-134.5 1238,-134.5 1238,-115.5 1286,-115.5 1286,-134.5"/>
<text text-anchor="middle" x="1262" y="-122.5" font-family="Helvetica,sans-Serif" font-size="10.00">mutex</text>
</a>
</g>
</g>
<!-- Node19&#45;&gt;Node21 -->
<g id="edge42_Node000019_Node000021" class="edge">
<title>Node19&#45;&gt;Node21</title>
<g id="a_edge42_Node000019_Node000021"><a xlink:title=" ">
<path fill="none" stroke="#63b8ff" d="M1107.2,-186.91C1135.92,-176.21 1186.25,-157.24 1229,-140 1230.2,-139.52 1231.43,-139.02 1232.66,-138.51"/>
<polygon fill="#63b8ff" stroke="#63b8ff" points="1234.27,-141.63 1242.15,-134.55 1231.58,-135.17 1234.27,-141.63"/>
</a>
</g>
</g>
<!-- Node22 -->
<g id="Node000022" class="node">
<title>Node22</title>
<g id="a_Node000022"><a xlink:title=" ">
<polygon fill="#e0e0e0" stroke="#999999" points="1352,-134.5 1304,-134.5 1304,-115.5 1352,-115.5 1352,-134.5"/>
<text text-anchor="middle" x="1328" y="-122.5" font-family="Helvetica,sans-Serif" font-size="10.00">thread</text>
</a>
</g>
</g>
<!-- Node19&#45;&gt;Node22 -->
<g id="edge45_Node000019_Node000022" class="edge">
<title>Node19&#45;&gt;Node22</title>
<g id="a_edge45_Node000019_Node000022"><a xlink:title=" ">
<path fill="none" stroke="#63b8ff" d="M1123.39,-186.93C1166.15,-177.21 1236.22,-160.08 1295,-140 1296.44,-139.51 1297.9,-138.99 1299.37,-138.44"/>
<polygon fill="#63b8ff" stroke="#63b8ff" points="1300.99,-141.56 1308.99,-134.62 1298.4,-135.06 1300.99,-141.56"/>
</a>
</g>
</g>
<!-- Node23 -->
<g id="Node000023" class="node">
<title>Node23</title>
<g id="a_Node000023"><a xlink:href="client_2request_8hpp.html" target="_top" xlink:title=" ">
<polygon fill="white" stroke="#666666" points="1155.5,-134.5 1012.5,-134.5 1012.5,-115.5 1155.5,-115.5 1155.5,-134.5"/>
<text text-anchor="middle" x="1084" y="-122.5" font-family="Helvetica,sans-Serif" font-size="10.00">jsonrpc/client/request.hpp</text>
</a>
</g>
</g>
<!-- Node19&#45;&gt;Node23 -->
<g id="edge48_Node000019_Node000023" class="edge">
<title>Node19&#45;&gt;Node23</title>
<g id="a_edge48_Node000019_Node000023"><a xlink:title=" ">
<path fill="none" stroke="#63b8ff" d="M1084,-186.98C1084,-176.56 1084,-158.61 1084,-144.88"/>
<polygon fill="#63b8ff" stroke="#63b8ff" points="1087.5,-144.59 1084,-134.59 1080.5,-144.59 1087.5,-144.59"/>
</a>
</g>
</g>
<!-- Node23&#45;&gt;Node3 -->
<g id="edge51_Node000023_Node000003" class="edge">
<title>Node23&#45;&gt;Node3</title>
<g id="a_edge51_Node000023_Node000003"><a xlink:title=" ">
<path fill="none" stroke="#63b8ff" d="M1132.37,-115.48C1143.11,-113.63 1154.44,-111.72 1165,-110 1258.87,-94.71 1370.04,-78.14 1423.75,-70.22"/>
<polygon fill="#63b8ff" stroke="#63b8ff" points="1424.32,-73.68 1433.71,-68.76 1423.3,-66.75 1424.32,-73.68"/>
</a>
</g>
</g>
<!-- Node23&#45;&gt;Node4 -->
<g id="edge53_Node000023_Node000004" class="edge">
<title>Node23&#45;&gt;Node4</title>
<g id="a_edge53_Node000023_Node000004"><a xlink:title=" ">
<path fill="none" stroke="#63b8ff" d="M1084,-115.37C1084,-107.25 1084,-94.81 1084,-84.39"/>
<polygon fill="#63b8ff" stroke="#63b8ff" points="1087.5,-84.17 1084,-74.17 1080.5,-84.17 1087.5,-84.17"/>
</a>
</g>
</g>
<!-- Node23&#45;&gt;Node5 -->
<g id="edge49_Node000023_Node000005" class="edge">
<title>Node23&#45;&gt;Node5</title>
<g id="a_edge49_Node000023_Node000005"><a xlink:title=" ">
<path fill="none" stroke="#63b8ff" d="M1101.35,-115.37C1117.28,-106.72 1140.66,-92.12 1156,-74 1167.31,-60.64 1175.38,-42.28 1180.27,-28.74"/>
<polygon fill="#63b8ff" stroke="#63b8ff" points="1183.64,-29.7 1183.52,-19.1 1177.01,-27.46 1183.64,-29.7"/>
</a>
</g>
</g>
<!-- Node23&#45;&gt;Node6 -->
<g id="edge50_Node000023_Node000006" class="edge">
<title>Node23&#45;&gt;Node6</title>
<g id="a_edge50_Node000023_Node000006"><a xlink:title=" ">
<path fill="none" stroke="#63b8ff" d="M1072.51,-115.29C1052.44,-100.52 1009.18,-70.64 968,-55 902.6,-30.15 821.33,-18.66 774.39,-13.76"/>
<polygon fill="#63b8ff" stroke="#63b8ff" points="774.65,-10.27 764.36,-12.75 773.96,-17.23 774.65,-10.27"/>
</a>
</g>
</g>
<!-- Node23&#45;&gt;Node11 -->
<g id="edge52_Node000023_Node000011" class="edge">
<title>Node23&#45;&gt;Node11</title>
<g id="a_edge52_Node000023_Node000011"><a xlink:title=" ">
<path fill="none" stroke="#63b8ff" d="M1057.54,-115.49C1025.23,-105.11 970.58,-87.54 935.41,-76.24"/>
<polygon fill="#63b8ff" stroke="#63b8ff" points="936.19,-72.81 925.6,-73.09 934.05,-79.48 936.19,-72.81"/>
</a>
</g>
</g>
<!-- Node24&#45;&gt;Node2 -->
<g id="edge57_Node000024_Node000002" class="edge">
<title>Node24&#45;&gt;Node2</title>
<g id="a_edge57_Node000024_Node000002"><a xlink:title=" ">
<path fill="none" stroke="#63b8ff" d="M1640.5,-175.96C1620.11,-166.11 1595.51,-154.24 1575.42,-144.54"/>
<polygon fill="#63b8ff" stroke="#63b8ff" points="1576.77,-141.31 1566.24,-140.11 1573.73,-147.61 1576.77,-141.31"/>
</a>
</g>
</g>
<!-- Node24&#45;&gt;Node3 -->
<g id="edge56_Node000024_Node000003" class="edge">
<title>Node24&#45;&gt;Node3</title>
<g id="a_edge56_Node000024_Node000003"><a xlink:title=" ">
<path fill="none" stroke="#63b8ff" d="M1684.38,-175.86C1686.5,-156.58 1686.27,-127.57 1670,-110 1645.77,-83.83 1541.75,-72.1 1488.17,-67.71"/>
<polygon fill="#63b8ff" stroke="#63b8ff" points="1488.41,-64.22 1478.17,-66.93 1487.87,-71.2 1488.41,-64.22"/>
</a>
</g>
</g>
<!-- Node24&#45;&gt;Node4 -->
<g id="edge58_Node000024_Node000004" class="edge">
<title>Node24&#45;&gt;Node4</title>
<g id="a_edge58_Node000024_Node000004"><a xlink:title=" ">
<path fill="none" stroke="#63b8ff" d="M1668.63,-175.95C1654.52,-155.55 1629.43,-124.56 1599,-110 1522.92,-73.6 1280.92,-66.66 1157.67,-65.55"/>
<polygon fill="#63b8ff" stroke="#63b8ff" points="1157.59,-62.04 1147.56,-65.46 1157.53,-69.04 1157.59,-62.04"/>
</a>
</g>
</g>
<!-- Node24&#45;&gt;Node25 -->
<g id="edge59_Node000024_Node000025" class="edge">
<title>Node24&#45;&gt;Node25</title>
<g id="a_edge59_Node000024_Node000025"><a xlink:title=" ">
<path fill="none" stroke="#63b8ff" d="M1720.93,-175.96C1741.04,-166.11 1765.3,-154.24 1785.12,-144.54"/>
<polygon fill="#63b8ff" stroke="#63b8ff" points="1786.72,-147.65 1794.17,-140.11 1783.64,-141.37 1786.72,-147.65"/>
</a>
</g>
</g>
<!-- Node25&#45;&gt;Node3 -->
<g id="edge60_Node000025_Node000003" class="edge">
<title>Node25&#45;&gt;Node3</title>
<g id="a_edge60_Node000025_Node000003"><a xlink:title=" ">
<path fill="none" stroke="#63b8ff" d="M1760.41,-112.47C1755.54,-111.62 1750.69,-110.79 1746,-110 1652.51,-94.33 1541.7,-77.93 1488.15,-70.14"/>
<polygon fill="#63b8ff" stroke="#63b8ff" points="1488.63,-66.67 1478.23,-68.7 1487.62,-73.6 1488.63,-66.67"/>
</a>
</g>
</g>
<!-- Node26&#45;&gt;Node3 -->
<g id="edge62_Node000026_Node000003" class="edge">
<title>Node26&#45;&gt;Node3</title>
<g id="a_edge62_Node000026_Node000003"><a xlink:title=" ">
<path fill="none" stroke="#63b8ff" d="M1793.03,-318.91C1845.78,-276.96 1955.37,-176.79 1895,-110 1867.8,-79.9 1585.09,-69.15 1488.3,-66.33"/>
<polygon fill="#63b8ff" stroke="#63b8ff" points="1488.31,-62.83 1478.22,-66.05 1488.11,-69.83 1488.31,-62.83"/>
</a>
</g>
</g>
<!-- Node26&#45;&gt;Node4 -->
<g id="edge64_Node000026_Node000004" class="edge">
<title>Node26&#45;&gt;Node4</title>
<g id="a_edge64_Node000026_Node000004"><a xlink:title=" ">
<path fill="none" stroke="#63b8ff" d="M1770.03,-318.84C1773.97,-286.23 1777.25,-220.17 1748,-176 1715.25,-126.55 1688.68,-127.48 1632,-110 1545.52,-83.33 1286.51,-71.75 1157.99,-67.54"/>
<polygon fill="#63b8ff" stroke="#63b8ff" points="1157.95,-64.04 1147.85,-67.22 1157.73,-71.04 1157.95,-64.04"/>
</a>
</g>
</g>
<!-- Node26&#45;&gt;Node15 -->
<g id="edge63_Node000026_Node000015" class="edge">
<title>Node26&#45;&gt;Node15</title>
<g id="a_edge63_Node000026_Node000015"><a xlink:title=" ">
<path fill="none" stroke="#63b8ff" d="M1706.81,-334.71C1516,-322.71 925.57,-285.58 727.52,-273.12"/>
<polygon fill="#63b8ff" stroke="#63b8ff" points="727.47,-269.61 717.27,-272.48 727.04,-276.6 727.47,-269.61"/>
</a>
</g>
</g>
<!-- Node26&#45;&gt;Node25 -->
<g id="edge65_Node000026_Node000025" class="edge">
<title>Node26&#45;&gt;Node25</title>
<g id="a_edge65_Node000026_Node000025"><a xlink:title=" ">
<path fill="none" stroke="#63b8ff" d="M1772.17,-318.89C1782.48,-279.77 1805.56,-192.17 1816.72,-149.82"/>
<polygon fill="#63b8ff" stroke="#63b8ff" points="1820.12,-150.65 1819.29,-140.09 1813.35,-148.86 1820.12,-150.65"/>
</a>
</g>
</g>
<!-- Node27&#45;&gt;Node2 -->
<g id="edge69_Node000027_Node000002" class="edge">
<title>Node27&#45;&gt;Node2</title>
<g id="a_edge69_Node000027_Node000002"><a xlink:title=" ">
<path fill="none" stroke="#63b8ff" d="M1533.01,-181.44C1533.66,-172.49 1534.51,-160.66 1535.26,-150.23"/>
<polygon fill="#63b8ff" stroke="#63b8ff" points="1538.76,-150.27 1535.99,-140.04 1531.78,-149.77 1538.76,-150.27"/>
</a>
</g>
</g>
<!-- Node27&#45;&gt;Node3 -->
<g id="edge68_Node000027_Node000003" class="edge">
<title>Node27&#45;&gt;Node3</title>
<g id="a_edge68_Node000027_Node000003"><a xlink:title=" ">
<path fill="none" stroke="#63b8ff" d="M1556.5,-181.48C1582.64,-164.71 1617.89,-135.67 1599,-110 1573.76,-75.71 1522.29,-67.08 1488.48,-65.31"/>
<polygon fill="#63b8ff" stroke="#63b8ff" points="1488.29,-61.8 1478.18,-64.96 1488.05,-68.8 1488.29,-61.8"/>
</a>
</g>
</g>
<!-- Node28&#45;&gt;Node4 -->
<g id="edge74_Node000028_Node000004" class="edge">
<title>Node28&#45;&gt;Node4</title>
<g id="a_edge74_Node000028_Node000004"><a xlink:title=" ">
<path fill="none" stroke="#63b8ff" d="M445.4,-324.43C370.82,-288.4 191.2,-190 267,-110 292.52,-83.06 896.95,-76.05 934,-74 958.73,-72.63 985.74,-71.11 1009.95,-69.74"/>
<polygon fill="#63b8ff" stroke="#63b8ff" points="1010.35,-73.22 1020.14,-69.16 1009.95,-66.23 1010.35,-73.22"/>
</a>
</g>
</g>
<!-- Node28&#45;&gt;Node9 -->
<g id="edge72_Node000028_Node000009" class="edge">
<title>Node28&#45;&gt;Node9</title>
<g id="a_edge72_Node000028_Node000009"><a xlink:title=" ">
<path fill="none" stroke="#63b8ff" d="M463.7,-324.39C455.01,-313.7 443.75,-298.3 437,-283 427.34,-261.1 422.37,-233.8 419.98,-216.03"/>
<polygon fill="#63b8ff" stroke="#63b8ff" points="423.46,-215.61 418.78,-206.1 416.51,-216.45 423.46,-215.61"/>
</a>
</g>
</g>
<!-- Node28&#45;&gt;Node15 -->
<g id="edge73_Node000028_Node000015" class="edge">
<title>Node28&#45;&gt;Node15</title>
<g id="a_edge73_Node000028_Node000015"><a xlink:title=" ">
<path fill="none" stroke="#63b8ff" d="M513.64,-324.44C542.88,-313.51 583.61,-298.29 615,-286.56"/>
<polygon fill="#63b8ff" stroke="#63b8ff" points="616.27,-289.82 624.42,-283.04 613.82,-283.27 616.27,-289.82"/>
</a>
</g>
</g>
<!-- Node29 -->
<g id="Node000029" class="node">
<title>Node29</title>
<g id="a_Node000029"><a xlink:title=" ">
<polygon fill="#e0e0e0" stroke="#999999" points="506,-277.5 446,-277.5 446,-258.5 506,-258.5 506,-277.5"/>
<text text-anchor="middle" x="476" y="-265.5" font-family="Helvetica,sans-Serif" font-size="10.00">iostream</text>
</a>
</g>
</g>
<!-- Node28&#45;&gt;Node29 -->
<g id="edge71_Node000028_Node000029" class="edge">
<title>Node28&#45;&gt;Node29</title>
<g id="a_edge71_Node000028_Node000029"><a xlink:title=" ">
<path fill="none" stroke="#63b8ff" d="M476,-324.44C476,-313.96 476,-299.55 476,-288.05"/>
<polygon fill="#63b8ff" stroke="#63b8ff" points="479.5,-287.77 476,-277.77 472.5,-287.77 479.5,-287.77"/>
</a>
</g>
</g>
</g>
</svg>
