<?xml version="1.0" encoding="UTF-8" standalone="no"?>
<!DOCTYPE svg PUBLIC "-//W3C//DTD SVG 1.1//EN"
 "http://www.w3.org/Graphics/SVG/1.1/DTD/svg11.dtd">
<!-- Generated by graphviz version 2.43.0 (0)
 -->
<!-- Title: include/jsonrpc/jsonrpc.hpp Pages: 1 -->
<svg width="1670pt" height="423pt"
 viewBox="0.00 0.00 1670.16 423.00" xmlns="http://www.w3.org/2000/svg" xmlns:xlink="http://www.w3.org/1999/xlink">
<g id="graph0" class="graph" transform="scale(1 1) rotate(0) translate(4 419)">
<title>include/jsonrpc/jsonrpc.hpp</title>
<!-- Node1 -->
<g id="Node000001" class="node">
<title>Node1</title>
<g id="a_Node000001"><a xlink:title=" ">
<polygon fill="#999999" stroke="#666666" points="774.5,-415 625.5,-415 625.5,-396 774.5,-396 774.5,-415"/>
<text text-anchor="middle" x="700" y="-403" font-family="Helvetica,sans-Serif" font-size="10.00">include/jsonrpc/jsonrpc.hpp</text>
</a>
</g>
</g>
<!-- Node2 -->
<g id="Node000002" class="node">
<title>Node2</title>
<g id="a_Node000002"><a xlink:href="client__transport_8hpp.html" target="_top" xlink:title=" ">
<polygon fill="white" stroke="#666666" points="328,-140 222,-140 222,-110 328,-110 328,-140"/>
<text text-anchor="start" x="230" y="-128" font-family="Helvetica,sans-Serif" font-size="10.00">jsonrpc/core/client</text>
<text text-anchor="middle" x="275" y="-117" font-family="Helvetica,sans-Serif" font-size="10.00">_transport.hpp</text>
</a>
</g>
</g>
<!-- Node1&#45;&gt;Node2 -->
<g id="edge1_Node000001_Node000002" class="edge">
<title>Node1&#45;&gt;Node2</title>
<g id="a_edge1_Node000001_Node000002"><a xlink:title=" ">
<path fill="none" stroke="#63b8ff" d="M625.31,-404.53C538.09,-402.91 401.12,-394.7 365,-360 305.14,-302.5 373.94,-248.21 333,-176 326.43,-164.41 316.12,-154.23 306,-146.14"/>
<polygon fill="#63b8ff" stroke="#63b8ff" points="308.09,-143.33 298,-140.1 303.87,-148.92 308.09,-143.33"/>
</a>
</g>
</g>
<!-- Node3 -->
<g id="Node000003" class="node">
<title>Node3</title>
<g id="a_Node000003"><a xlink:href="types_8hpp.html" target="_top" xlink:title=" ">
<polygon fill="white" stroke="#666666" points="707.5,-74 580.5,-74 580.5,-55 707.5,-55 707.5,-74"/>
<text text-anchor="middle" x="644" y="-62" font-family="Helvetica,sans-Serif" font-size="10.00">jsonrpc/core/types.hpp</text>
</a>
</g>
</g>
<!-- Node1&#45;&gt;Node3 -->
<g id="edge30_Node000001_Node000003" class="edge">
<title>Node1&#45;&gt;Node3</title>
<g id="a_edge30_Node000001_Node000003"><a xlink:title=" ">
<path fill="none" stroke="#63b8ff" d="M625.14,-401.2C504.25,-395.32 271.57,-381.59 192,-360 100.86,-335.27 0,-363.43 0,-269 0,-269 0,-269 0,-195.5 0,-149.33 18.96,-132.99 59,-110 102.32,-85.12 422.75,-72.24 570.17,-67.58"/>
<polygon fill="#63b8ff" stroke="#63b8ff" points="570.59,-71.07 580.48,-67.26 570.37,-64.07 570.59,-71.07"/>
</a>
</g>
</g>
<!-- Node8 -->
<g id="Node000008" class="node">
<title>Node8</title>
<g id="a_Node000008"><a xlink:href="dispatcher_8hpp.html" target="_top" xlink:title=" ">
<polygon fill="white" stroke="#666666" points="1314,-206 1164,-206 1164,-187 1314,-187 1314,-206"/>
<text text-anchor="middle" x="1239" y="-194" font-family="Helvetica,sans-Serif" font-size="10.00">jsonrpc/core/dispatcher.hpp</text>
</a>
</g>
</g>
<!-- Node1&#45;&gt;Node8 -->
<g id="edge7_Node000001_Node000008" class="edge">
<title>Node1&#45;&gt;Node8</title>
<g id="a_edge7_Node000001_Node000008"><a xlink:title=" ">
<path fill="none" stroke="#63b8ff" d="M774.52,-403.46C915.37,-400.78 1209.62,-391.43 1243,-360 1282.49,-322.82 1260.43,-249.87 1246.98,-215.82"/>
<polygon fill="#63b8ff" stroke="#63b8ff" points="1250.07,-214.12 1243,-206.23 1243.6,-216.8 1250.07,-214.12"/>
</a>
</g>
</g>
<!-- Node13 -->
<g id="Node000013" class="node">
<title>Node13</title>
<g id="a_Node000013"><a xlink:href="request_8hpp.html" target="_top" xlink:title=" ">
<polygon fill="white" stroke="#666666" points="1197.5,-134.5 1060.5,-134.5 1060.5,-115.5 1197.5,-115.5 1197.5,-134.5"/>
<text text-anchor="middle" x="1129" y="-122.5" font-family="Helvetica,sans-Serif" font-size="10.00">jsonrpc/core/request.hpp</text>
</a>
</g>
</g>
<!-- Node1&#45;&gt;Node13 -->
<g id="edge23_Node000001_Node000013" class="edge">
<title>Node1&#45;&gt;Node13</title>
<g id="a_edge23_Node000001_Node000013"><a xlink:title=" ">
<path fill="none" stroke="#63b8ff" d="M774.65,-403.01C919.59,-399.48 1228.33,-388.67 1267,-360 1335.67,-309.09 1375.36,-243.57 1323,-176 1314.3,-164.77 1237.73,-147.52 1183.44,-136.5"/>
<polygon fill="#63b8ff" stroke="#63b8ff" points="1184.07,-133.06 1173.58,-134.52 1182.69,-139.92 1184.07,-133.06"/>
</a>
</g>
</g>
<!-- Node14 -->
<g id="Node000014" class="node">
<title>Node14</title>
<g id="a_Node000014"><a xlink:href="response_8hpp.html" target="_top" xlink:title=" ">
<polygon fill="white" stroke="#666666" points="1632,-134.5 1488,-134.5 1488,-115.5 1632,-115.5 1632,-134.5"/>
<text text-anchor="middle" x="1560" y="-122.5" font-family="Helvetica,sans-Serif" font-size="10.00">jsonrpc/core/response.hpp</text>
</a>
</g>
</g>
<!-- Node1&#45;&gt;Node14 -->
<g id="edge24_Node000001_Node000014" class="edge">
<title>Node1&#45;&gt;Node14</title>
<g id="a_edge24_Node000001_Node000014"><a xlink:title=" ">
<path fill="none" stroke="#63b8ff" d="M774.68,-405.01C914.47,-404.99 1209.94,-400.02 1303,-360 1417.61,-310.71 1514.73,-188.4 1547.85,-143.17"/>
<polygon fill="#63b8ff" stroke="#63b8ff" points="1550.76,-145.13 1553.77,-134.97 1545.08,-141.03 1550.76,-145.13"/>
</a>
</g>
</g>
<!-- Node15 -->
<g id="Node000015" class="node">
<title>Node15</title>
<g id="a_Node000015"><a xlink:href="server__transport_8hpp.html" target="_top" xlink:title=" ">
<polygon fill="white" stroke="#666666" points="880,-283 770,-283 770,-253 880,-253 880,-283"/>
<text text-anchor="start" x="778" y="-271" font-family="Helvetica,sans-Serif" font-size="10.00">jsonrpc/core/server</text>
<text text-anchor="middle" x="825" y="-260" font-family="Helvetica,sans-Serif" font-size="10.00">_transport.hpp</text>
</a>
</g>
</g>
<!-- Node1&#45;&gt;Node15 -->
<g id="edge25_Node000001_Node000015" class="edge">
<title>Node1&#45;&gt;Node15</title>
<g id="a_edge25_Node000001_Node000015"><a xlink:title=" ">
<path fill="none" stroke="#63b8ff" d="M717.7,-395.94C732.64,-388.1 753.94,-375.38 769,-360 788.54,-340.04 804.47,-312.08 814.27,-292.44"/>
<polygon fill="#63b8ff" stroke="#63b8ff" points="817.5,-293.8 818.7,-283.27 811.2,-290.75 817.5,-293.8"/>
</a>
</g>
</g>
<!-- Node18 -->
<g id="Node000018" class="node">
<title>Node18</title>
<g id="a_Node000018"><a xlink:href="server_8hpp.html" target="_top" xlink:title=" ">
<polygon fill="white" stroke="#666666" points="972,-349 832,-349 832,-330 972,-330 972,-349"/>
<text text-anchor="middle" x="902" y="-337" font-family="Helvetica,sans-Serif" font-size="10.00">jsonrpc/server/server.hpp</text>
</a>
</g>
</g>
<!-- Node1&#45;&gt;Node18 -->
<g id="edge31_Node000001_Node000018" class="edge">
<title>Node1&#45;&gt;Node18</title>
<g id="a_edge31_Node000001_Node000018"><a xlink:title=" ">
<path fill="none" stroke="#63b8ff" d="M727.24,-395.87C762.88,-384.58 825.47,-364.75 865.27,-352.14"/>
<polygon fill="#63b8ff" stroke="#63b8ff" points="866.39,-355.45 874.87,-349.1 864.28,-348.78 866.39,-355.45"/>
</a>
</g>
</g>
<!-- Node19 -->
<g id="Node000019" class="node">
<title>Node19</title>
<g id="a_Node000019"><a xlink:href="client_8hpp.html" target="_top" xlink:title=" ">
<polygon fill="white" stroke="#666666" points="1145.5,-206 1012.5,-206 1012.5,-187 1145.5,-187 1145.5,-206"/>
<text text-anchor="middle" x="1079" y="-194" font-family="Helvetica,sans-Serif" font-size="10.00">jsonrpc/client/client.hpp</text>
</a>
</g>
</g>
<!-- Node1&#45;&gt;Node19 -->
<g id="edge37_Node000001_Node000019" class="edge">
<title>Node1&#45;&gt;Node19</title>
<g id="a_edge37_Node000001_Node000019"><a xlink:title=" ">
<path fill="none" stroke="#63b8ff" d="M774.75,-399.76C846.33,-393.97 948.17,-382.1 981,-360 1033.77,-324.47 1062.69,-250.08 1073.72,-215.67"/>
<polygon fill="#63b8ff" stroke="#63b8ff" points="1077.09,-216.59 1076.67,-206.01 1070.4,-214.54 1077.09,-216.59"/>
</a>
</g>
</g>
<!-- Node20 -->
<g id="Node000020" class="node">
<title>Node20</title>
<g id="a_Node000020"><a xlink:href="framed__stdio__client__transport_8hpp.html" target="_top" xlink:title=" ">
<polygon fill="white" stroke="#666666" points="572,-217 456,-217 456,-176 572,-176 572,-217"/>
<text text-anchor="start" x="464" y="-205" font-family="Helvetica,sans-Serif" font-size="10.00">jsonrpc/transports</text>
<text text-anchor="start" x="464" y="-194" font-family="Helvetica,sans-Serif" font-size="10.00">/framed_stdio_client</text>
<text text-anchor="middle" x="514" y="-183" font-family="Helvetica,sans-Serif" font-size="10.00">_transport.hpp</text>
</a>
</g>
</g>
<!-- Node1&#45;&gt;Node20 -->
<g id="edge44_Node000001_Node000020" class="edge">
<title>Node1&#45;&gt;Node20</title>
<g id="a_edge44_Node000001_Node000020"><a xlink:title=" ">
<path fill="none" stroke="#63b8ff" d="M646.93,-395.96C622.65,-389.64 595.11,-378.73 576,-360 539.01,-323.74 523.75,-263.09 517.71,-227.04"/>
<polygon fill="#63b8ff" stroke="#63b8ff" points="521.17,-226.47 516.18,-217.12 514.25,-227.54 521.17,-226.47"/>
</a>
</g>
</g>
<!-- Node21 -->
<g id="Node000021" class="node">
<title>Node21</title>
<g id="a_Node000021"><a xlink:href="framed__transport_8hpp.html" target="_top" xlink:title=" ">
<polygon fill="white" stroke="#666666" points="661.5,-140 536.5,-140 536.5,-110 661.5,-110 661.5,-140"/>
<text text-anchor="start" x="544.5" y="-128" font-family="Helvetica,sans-Serif" font-size="10.00">jsonrpc/transports</text>
<text text-anchor="middle" x="599" y="-117" font-family="Helvetica,sans-Serif" font-size="10.00">/framed_transport.hpp</text>
</a>
</g>
</g>
<!-- Node1&#45;&gt;Node21 -->
<g id="edge56_Node000001_Node000021" class="edge">
<title>Node1&#45;&gt;Node21</title>
<g id="a_edge56_Node000001_Node000021"><a xlink:title=" ">
<path fill="none" stroke="#63b8ff" d="M677.27,-395.89C661.63,-388.73 641.79,-376.95 631,-360 588.68,-293.54 591.86,-195.01 596.08,-150"/>
<polygon fill="#63b8ff" stroke="#63b8ff" points="599.57,-150.32 597.12,-140.01 592.61,-149.59 599.57,-150.32"/>
</a>
</g>
</g>
<!-- Node22 -->
<g id="Node000022" class="node">
<title>Node22</title>
<g id="a_Node000022"><a xlink:href="framed__stdio__server__transport_8hpp.html" target="_top" xlink:title=" ">
<polygon fill="white" stroke="#666666" points="760,-360 640,-360 640,-319 760,-319 760,-360"/>
<text text-anchor="start" x="648" y="-348" font-family="Helvetica,sans-Serif" font-size="10.00">jsonrpc/transports</text>
<text text-anchor="start" x="648" y="-337" font-family="Helvetica,sans-Serif" font-size="10.00">/framed_stdio_server</text>
<text text-anchor="middle" x="700" y="-326" font-family="Helvetica,sans-Serif" font-size="10.00">_transport.hpp</text>
</a>
</g>
</g>
<!-- Node1&#45;&gt;Node22 -->
<g id="edge51_Node000001_Node000022" class="edge">
<title>Node1&#45;&gt;Node22</title>
<g id="a_edge51_Node000001_Node000022"><a xlink:title=" ">
<path fill="none" stroke="#63b8ff" d="M700,-395.87C700,-389.22 700,-379.63 700,-370.28"/>
<polygon fill="#63b8ff" stroke="#63b8ff" points="703.5,-370.01 700,-360.01 696.5,-370.01 703.5,-370.01"/>
</a>
</g>
</g>
<!-- Node23 -->
<g id="Node000023" class="node">
<title>Node23</title>
<g id="a_Node000023"><a xlink:href="http__client__transport_8hpp.html" target="_top" xlink:title=" ">
<polygon fill="white" stroke="#666666" points="208,-211.5 66,-211.5 66,-181.5 208,-181.5 208,-211.5"/>
<text text-anchor="start" x="74" y="-199.5" font-family="Helvetica,sans-Serif" font-size="10.00">jsonrpc/transports</text>
<text text-anchor="middle" x="137" y="-188.5" font-family="Helvetica,sans-Serif" font-size="10.00">/http_client_transport.hpp</text>
</a>
</g>
</g>
<!-- Node1&#45;&gt;Node23 -->
<g id="edge57_Node000001_Node000023" class="edge">
<title>Node1&#45;&gt;Node23</title>
<g id="a_edge57_Node000001_Node000023"><a xlink:title=" ">
<path fill="none" stroke="#63b8ff" d="M625.26,-400.94C521.61,-395.27 339.99,-382.46 278,-360 220.17,-339.05 199.63,-332.41 163,-283 149.56,-264.87 143,-239.74 139.84,-221.42"/>
<polygon fill="#63b8ff" stroke="#63b8ff" points="143.3,-220.89 138.34,-211.52 136.38,-221.93 143.3,-220.89"/>
</a>
</g>
</g>
<!-- Node25 -->
<g id="Node000025" class="node">
<title>Node25</title>
<g id="a_Node000025"><a xlink:href="http__server__transport_8hpp.html" target="_top" xlink:title=" ">
<polygon fill="white" stroke="#666666" points="1234,-354.5 1088,-354.5 1088,-324.5 1234,-324.5 1234,-354.5"/>
<text text-anchor="start" x="1096" y="-342.5" font-family="Helvetica,sans-Serif" font-size="10.00">jsonrpc/transports</text>
<text text-anchor="middle" x="1161" y="-331.5" font-family="Helvetica,sans-Serif" font-size="10.00">/http_server_transport.hpp</text>
</a>
</g>
</g>
<!-- Node1&#45;&gt;Node25 -->
<g id="edge62_Node000001_Node000025" class="edge">
<title>Node1&#45;&gt;Node25</title>
<g id="a_edge62_Node000001_Node000025"><a xlink:title=" ">
<path fill="none" stroke="#63b8ff" d="M774.83,-397.86C850.56,-390.62 970.88,-377.64 1074,-360 1079.86,-359 1085.93,-357.85 1092,-356.64"/>
<polygon fill="#63b8ff" stroke="#63b8ff" points="1093.11,-359.98 1102.2,-354.53 1091.69,-353.13 1093.11,-359.98"/>
</a>
</g>
</g>
<!-- Node27 -->
<g id="Node000027" class="node">
<title>Node27</title>
<g id="a_Node000027"><a xlink:href="stdio__client__transport_8hpp.html" target="_top" xlink:title=" ">
<polygon fill="white" stroke="#666666" points="318,-283 172,-283 172,-253 318,-253 318,-283"/>
<text text-anchor="start" x="180" y="-271" font-family="Helvetica,sans-Serif" font-size="10.00">jsonrpc/transports</text>
<text text-anchor="middle" x="245" y="-260" font-family="Helvetica,sans-Serif" font-size="10.00">/stdio_client_transport.hpp</text>
</a>
</g>
</g>
<!-- Node1&#45;&gt;Node27 -->
<g id="edge68_Node000001_Node000027" class="edge">
<title>Node1&#45;&gt;Node27</title>
<g id="a_edge68_Node000001_Node000027"><a xlink:title=" ">
<path fill="none" stroke="#63b8ff" d="M625.13,-401.38C532.77,-396.51 381.85,-384.95 332,-360 300.91,-344.44 274.86,-313.08 259.6,-291.56"/>
<polygon fill="#63b8ff" stroke="#63b8ff" points="262.47,-289.55 253.92,-283.3 256.7,-293.52 262.47,-289.55"/>
</a>
</g>
</g>
<!-- Node29 -->
<g id="Node000029" class="node">
<title>Node29</title>
<g id="a_Node000029"><a xlink:href="stdio__server__transport_8hpp.html" target="_top" xlink:title=" ">
<polygon fill="white" stroke="#666666" points="524,-354.5 374,-354.5 374,-324.5 524,-324.5 524,-354.5"/>
<text text-anchor="start" x="382" y="-342.5" font-family="Helvetica,sans-Serif" font-size="10.00">jsonrpc/transports</text>
<text text-anchor="middle" x="449" y="-331.5" font-family="Helvetica,sans-Serif" font-size="10.00">/stdio_server_transport.hpp</text>
</a>
</g>
</g>
<!-- Node1&#45;&gt;Node29 -->
<g id="edge73_Node000001_Node000029" class="edge">
<title>Node1&#45;&gt;Node29</title>
<g id="a_edge73_Node000001_Node000029"><a xlink:title=" ">
<path fill="none" stroke="#63b8ff" d="M666.41,-395.94C627.54,-386.02 562.64,-369.48 513.85,-357.03"/>
<polygon fill="#63b8ff" stroke="#63b8ff" points="514.56,-353.6 504,-354.52 512.83,-360.39 514.56,-353.6"/>
</a>
</g>
</g>
<!-- Node2&#45;&gt;Node3 -->
<g id="edge2_Node000002_Node000003" class="edge">
<title>Node2&#45;&gt;Node3</title>
<g id="a_edge2_Node000002_Node000003"><a xlink:title=" ">
<path fill="none" stroke="#63b8ff" d="M328.34,-112.56C332.95,-111.66 337.55,-110.79 342,-110 419.72,-96.17 509.24,-83.37 570.52,-75.08"/>
<polygon fill="#63b8ff" stroke="#63b8ff" points="571.04,-78.54 580.48,-73.74 570.11,-71.6 571.04,-78.54"/>
</a>
</g>
</g>
<!-- Node4 -->
<g id="Node000004" class="node">
<title>Node4</title>
<g id="a_Node000004"><a xlink:title=" ">
<polygon fill="#e0e0e0" stroke="#999999" points="676.5,-19 611.5,-19 611.5,0 676.5,0 676.5,-19"/>
<text text-anchor="middle" x="644" y="-7" font-family="Helvetica,sans-Serif" font-size="10.00">functional</text>
</a>
</g>
</g>
<!-- Node3&#45;&gt;Node4 -->
<g id="edge3_Node000003_Node000004" class="edge">
<title>Node3&#45;&gt;Node4</title>
<g id="a_edge3_Node000003_Node000004"><a xlink:title=" ">
<path fill="none" stroke="#63b8ff" d="M644,-54.75C644,-47.8 644,-37.85 644,-29.13"/>
<polygon fill="#63b8ff" stroke="#63b8ff" points="647.5,-29.09 644,-19.09 640.5,-29.09 647.5,-29.09"/>
</a>
</g>
</g>
<!-- Node5 -->
<g id="Node000005" class="node">
<title>Node5</title>
<g id="a_Node000005"><a xlink:title=" ">
<polygon fill="#e0e0e0" stroke="#999999" points="1311,-19 1255,-19 1255,0 1311,0 1311,-19"/>
<text text-anchor="middle" x="1283" y="-7" font-family="Helvetica,sans-Serif" font-size="10.00">optional</text>
</a>
</g>
</g>
<!-- Node3&#45;&gt;Node5 -->
<g id="edge4_Node000003_Node000005" class="edge">
<title>Node3&#45;&gt;Node5</title>
<g id="a_edge4_Node000003_Node000005"><a xlink:title=" ">
<path fill="none" stroke="#63b8ff" d="M707.61,-58.22C839.3,-47.3 1138.38,-22.49 1244.65,-13.68"/>
<polygon fill="#63b8ff" stroke="#63b8ff" points="1245.23,-17.15 1254.9,-12.83 1244.65,-10.17 1245.23,-17.15"/>
</a>
</g>
</g>
<!-- Node6 -->
<g id="Node000006" class="node">
<title>Node6</title>
<g id="a_Node000006"><a xlink:title=" ">
<polygon fill="#e0e0e0" stroke="#999999" points="745.5,-19 694.5,-19 694.5,0 745.5,0 745.5,-19"/>
<text text-anchor="middle" x="720" y="-7" font-family="Helvetica,sans-Serif" font-size="10.00">variant</text>
</a>
</g>
</g>
<!-- Node3&#45;&gt;Node6 -->
<g id="edge5_Node000003_Node000006" class="edge">
<title>Node3&#45;&gt;Node6</title>
<g id="a_edge5_Node000003_Node000006"><a xlink:title=" ">
<path fill="none" stroke="#63b8ff" d="M656.21,-54.98C667.78,-46.92 685.38,-34.65 699.16,-25.03"/>
<polygon fill="#63b8ff" stroke="#63b8ff" points="701.37,-27.76 707.57,-19.17 697.36,-22.02 701.37,-27.76"/>
</a>
</g>
</g>
<!-- Node7 -->
<g id="Node000007" class="node">
<title>Node7</title>
<g id="a_Node000007"><a xlink:title=" ">
<polygon fill="#e0e0e0" stroke="#999999" points="593,-19 483,-19 483,0 593,0 593,-19"/>
<text text-anchor="middle" x="538" y="-7" font-family="Helvetica,sans-Serif" font-size="10.00">nlohmann/json.hpp</text>
</a>
</g>
</g>
<!-- Node3&#45;&gt;Node7 -->
<g id="edge6_Node000003_Node000007" class="edge">
<title>Node3&#45;&gt;Node7</title>
<g id="a_edge6_Node000003_Node000007"><a xlink:title=" ">
<path fill="none" stroke="#63b8ff" d="M626.97,-54.98C610.07,-46.54 583.94,-33.47 564.36,-23.68"/>
<polygon fill="#63b8ff" stroke="#63b8ff" points="565.85,-20.51 555.34,-19.17 562.72,-26.77 565.85,-20.51"/>
</a>
</g>
</g>
<!-- Node8&#45;&gt;Node3 -->
<g id="edge22_Node000008_Node000003" class="edge">
<title>Node8&#45;&gt;Node3</title>
<g id="a_edge22_Node000008_Node000003"><a xlink:title=" ">
<path fill="none" stroke="#63b8ff" d="M1210.56,-186.99C1142.03,-166.52 971.45,-115.77 945,-110 868.12,-93.22 778.8,-80.9 717.55,-73.53"/>
<polygon fill="#63b8ff" stroke="#63b8ff" points="717.93,-70.05 707.58,-72.35 717.1,-77.01 717.93,-70.05"/>
</a>
</g>
</g>
<!-- Node8&#45;&gt;Node5 -->
<g id="edge8_Node000008_Node000005" class="edge">
<title>Node8&#45;&gt;Node5</title>
<g id="a_edge8_Node000008_Node000005"><a xlink:title=" ">
<path fill="none" stroke="#63b8ff" d="M1314.33,-190.81C1428.58,-182.92 1634.81,-165.33 1657,-140 1669.67,-125.54 1654.88,-62.44 1647,-55 1600.76,-11.37 1405.14,-8.73 1321.35,-9.68"/>
<polygon fill="#63b8ff" stroke="#63b8ff" points="1321.19,-6.18 1311.23,-9.82 1321.28,-13.18 1321.19,-6.18"/>
</a>
</g>
</g>
<!-- Node9 -->
<g id="Node000009" class="node">
<title>Node9</title>
<g id="a_Node000009"><a xlink:title=" ">
<polygon fill="#e0e0e0" stroke="#999999" points="997,-74 953,-74 953,-55 997,-55 997,-74"/>
<text text-anchor="middle" x="975" y="-62" font-family="Helvetica,sans-Serif" font-size="10.00">string</text>
</a>
</g>
</g>
<!-- Node8&#45;&gt;Node9 -->
<g id="edge9_Node000008_Node000009" class="edge">
<title>Node8&#45;&gt;Node9</title>
<g id="a_edge9_Node000008_Node000009"><a xlink:title=" ">
<path fill="none" stroke="#63b8ff" d="M1293.39,-186.97C1354.24,-175.23 1439.76,-150.78 1403,-110 1376.6,-80.71 1102.67,-69.47 1007.43,-66.42"/>
<polygon fill="#63b8ff" stroke="#63b8ff" points="1007.34,-62.92 997.23,-66.11 1007.12,-69.92 1007.34,-62.92"/>
</a>
</g>
</g>
<!-- Node10 -->
<g id="Node000010" class="node">
<title>Node10</title>
<g id="a_Node000010"><a xlink:title=" ">
<polygon fill="#e0e0e0" stroke="#999999" points="1637.5,-74 1544.5,-74 1544.5,-55 1637.5,-55 1637.5,-74"/>
<text text-anchor="middle" x="1591" y="-62" font-family="Helvetica,sans-Serif" font-size="10.00">unordered_map</text>
</a>
</g>
</g>
<!-- Node8&#45;&gt;Node10 -->
<g id="edge10_Node000008_Node000010" class="edge">
<title>Node8&#45;&gt;Node10</title>
<g id="a_edge10_Node000008_Node000010"><a xlink:title=" ">
<path fill="none" stroke="#63b8ff" d="M1314.11,-196.36C1418.53,-195.78 1599.46,-187.67 1641,-140 1657.74,-120.78 1632.66,-95.7 1612.37,-80.09"/>
<polygon fill="#63b8ff" stroke="#63b8ff" points="1614.24,-77.13 1604.11,-74.03 1610.1,-82.77 1614.24,-77.13"/>
</a>
</g>
</g>
<!-- Node11 -->
<g id="Node000011" class="node">
<title>Node11</title>
<g id="a_Node000011"><a xlink:title=" ">
<polygon fill="#e0e0e0" stroke="#999999" points="1262.5,-134.5 1215.5,-134.5 1215.5,-115.5 1262.5,-115.5 1262.5,-134.5"/>
<text text-anchor="middle" x="1239" y="-122.5" font-family="Helvetica,sans-Serif" font-size="10.00">vector</text>
</a>
</g>
</g>
<!-- Node8&#45;&gt;Node11 -->
<g id="edge11_Node000008_Node000011" class="edge">
<title>Node8&#45;&gt;Node11</title>
<g id="a_edge11_Node000008_Node000011"><a xlink:title=" ">
<path fill="none" stroke="#63b8ff" d="M1239,-186.98C1239,-176.56 1239,-158.61 1239,-144.88"/>
<polygon fill="#63b8ff" stroke="#63b8ff" points="1242.5,-144.59 1239,-134.59 1235.5,-144.59 1242.5,-144.59"/>
</a>
</g>
</g>
<!-- Node12 -->
<g id="Node000012" class="node">
<title>Node12</title>
<g id="a_Node000012"><a xlink:title=" ">
<polygon fill="#e0e0e0" stroke="#999999" points="1393.5,-134.5 1280.5,-134.5 1280.5,-115.5 1393.5,-115.5 1393.5,-134.5"/>
<text text-anchor="middle" x="1337" y="-122.5" font-family="Helvetica,sans-Serif" font-size="10.00">BS_thread_pool.hpp</text>
</a>
</g>
</g>
<!-- Node8&#45;&gt;Node12 -->
<g id="edge12_Node000008_Node000012" class="edge">
<title>Node8&#45;&gt;Node12</title>
<g id="a_edge12_Node000008_Node000012"><a xlink:title=" ">
<path fill="none" stroke="#63b8ff" d="M1251.02,-186.98C1267.33,-175.41 1296.71,-154.57 1316.53,-140.52"/>
<polygon fill="#63b8ff" stroke="#63b8ff" points="1318.75,-143.23 1324.88,-134.59 1314.7,-137.52 1318.75,-143.23"/>
</a>
</g>
</g>
<!-- Node8&#45;&gt;Node13 -->
<g id="edge13_Node000008_Node000013" class="edge">
<title>Node8&#45;&gt;Node13</title>
<g id="a_edge13_Node000008_Node000013"><a xlink:title=" ">
<path fill="none" stroke="#63b8ff" d="M1225.51,-186.98C1206.96,-175.25 1173.33,-154.01 1151.08,-139.95"/>
<polygon fill="#63b8ff" stroke="#63b8ff" points="1152.92,-136.97 1142.6,-134.59 1149.18,-142.89 1152.92,-136.97"/>
</a>
</g>
</g>
<!-- Node8&#45;&gt;Node14 -->
<g id="edge17_Node000008_Node000014" class="edge">
<title>Node8&#45;&gt;Node14</title>
<g id="a_edge17_Node000008_Node000014"><a xlink:title=" ">
<path fill="none" stroke="#63b8ff" d="M1278.36,-186.98C1336.92,-174.3 1446.92,-150.48 1510.74,-136.67"/>
<polygon fill="#63b8ff" stroke="#63b8ff" points="1511.54,-140.07 1520.57,-134.54 1510.05,-133.23 1511.54,-140.07"/>
</a>
</g>
</g>
<!-- Node13&#45;&gt;Node3 -->
<g id="edge16_Node000013_Node000003" class="edge">
<title>Node13&#45;&gt;Node3</title>
<g id="a_edge16_Node000013_Node000003"><a xlink:title=" ">
<path fill="none" stroke="#63b8ff" d="M1060.28,-115.71C969.73,-104.79 811.08,-85.65 717.98,-74.42"/>
<polygon fill="#63b8ff" stroke="#63b8ff" points="718.14,-70.92 707.79,-73.19 717.3,-77.87 718.14,-70.92"/>
</a>
</g>
</g>
<!-- Node13&#45;&gt;Node5 -->
<g id="edge14_Node000013_Node000005" class="edge">
<title>Node13&#45;&gt;Node5</title>
<g id="a_edge14_Node000013_Node000005"><a xlink:title=" ">
<path fill="none" stroke="#63b8ff" d="M1140.58,-115.47C1166.66,-96.24 1230.31,-49.33 1262.96,-25.27"/>
<polygon fill="#63b8ff" stroke="#63b8ff" points="1265.32,-27.88 1271.29,-19.13 1261.16,-22.25 1265.32,-27.88"/>
</a>
</g>
</g>
<!-- Node13&#45;&gt;Node9 -->
<g id="edge15_Node000013_Node000009" class="edge">
<title>Node13&#45;&gt;Node9</title>
<g id="a_edge15_Node000013_Node000009"><a xlink:title=" ">
<path fill="none" stroke="#63b8ff" d="M1106.61,-115.49C1080.3,-105.5 1036.47,-88.85 1006.69,-77.54"/>
<polygon fill="#63b8ff" stroke="#63b8ff" points="1007.76,-74.2 997.17,-73.92 1005.28,-80.74 1007.76,-74.2"/>
</a>
</g>
</g>
<!-- Node14&#45;&gt;Node3 -->
<g id="edge21_Node000014_Node000003" class="edge">
<title>Node14&#45;&gt;Node3</title>
<g id="a_edge21_Node000014_Node000003"><a xlink:title=" ">
<path fill="none" stroke="#63b8ff" d="M1487.74,-117.09C1461.12,-114.67 1430.7,-112.05 1403,-110 1151.86,-91.44 853.51,-75.83 717.79,-69.08"/>
<polygon fill="#63b8ff" stroke="#63b8ff" points="717.68,-65.57 707.52,-68.57 717.33,-72.56 717.68,-65.57"/>
</a>
</g>
</g>
<!-- Node14&#45;&gt;Node5 -->
<g id="edge18_Node000014_Node000005" class="edge">
<title>Node14&#45;&gt;Node5</title>
<g id="a_edge18_Node000014_Node000005"><a xlink:title=" ">
<path fill="none" stroke="#63b8ff" d="M1539.18,-115.47C1490.75,-95.63 1370.36,-46.3 1313.57,-23.03"/>
<polygon fill="#63b8ff" stroke="#63b8ff" points="1314.64,-19.68 1304.06,-19.13 1311.99,-26.16 1314.64,-19.68"/>
</a>
</g>
</g>
<!-- Node14&#45;&gt;Node9 -->
<g id="edge19_Node000014_Node000009" class="edge">
<title>Node14&#45;&gt;Node9</title>
<g id="a_edge19_Node000014_Node000009"><a xlink:title=" ">
<path fill="none" stroke="#63b8ff" d="M1511.42,-115.46C1499.23,-113.49 1486.16,-111.53 1474,-110 1298.86,-87.96 1087.79,-72.9 1007.84,-67.6"/>
<polygon fill="#63b8ff" stroke="#63b8ff" points="1007.65,-64.08 997.44,-66.92 1007.19,-71.07 1007.65,-64.08"/>
</a>
</g>
</g>
<!-- Node14&#45;&gt;Node10 -->
<g id="edge20_Node000014_Node000010" class="edge">
<title>Node14&#45;&gt;Node10</title>
<g id="a_edge20_Node000014_Node000010"><a xlink:title=" ">
<path fill="none" stroke="#63b8ff" d="M1564.57,-115.37C1569.06,-106.9 1576.03,-93.74 1581.69,-83.07"/>
<polygon fill="#63b8ff" stroke="#63b8ff" points="1584.82,-84.64 1586.41,-74.17 1578.63,-81.36 1584.82,-84.64"/>
</a>
</g>
</g>
<!-- Node15&#45;&gt;Node3 -->
<g id="edge29_Node000015_Node000003" class="edge">
<title>Node15&#45;&gt;Node3</title>
<g id="a_edge29_Node000015_Node000003"><a xlink:title=" ">
<path fill="none" stroke="#63b8ff" d="M812.63,-252.76C804.13,-242.86 792.68,-229.29 783,-217 746.42,-170.57 745.75,-151.84 704,-110 692.61,-98.59 678.14,-87.77 666.26,-79.65"/>
<polygon fill="#63b8ff" stroke="#63b8ff" points="668.04,-76.63 657.77,-74.01 664.16,-82.46 668.04,-76.63"/>
</a>
</g>
</g>
<!-- Node15&#45;&gt;Node8 -->
<g id="edge28_Node000015_Node000008" class="edge">
<title>Node15&#45;&gt;Node8</title>
<g id="a_edge28_Node000015_Node000008"><a xlink:title=" ">
<path fill="none" stroke="#63b8ff" d="M880.11,-259.98C945.81,-251.31 1058.82,-235.42 1155,-217 1167.99,-214.51 1182.03,-211.42 1194.83,-208.43"/>
<polygon fill="#63b8ff" stroke="#63b8ff" points="1195.87,-211.78 1204.8,-206.07 1194.26,-204.97 1195.87,-211.78"/>
</a>
</g>
</g>
<!-- Node16 -->
<g id="Node000016" class="node">
<title>Node16</title>
<g id="a_Node000016"><a xlink:title=" ">
<polygon fill="#e0e0e0" stroke="#999999" points="842,-206 792,-206 792,-187 842,-187 842,-206"/>
<text text-anchor="middle" x="817" y="-194" font-family="Helvetica,sans-Serif" font-size="10.00">atomic</text>
</a>
</g>
</g>
<!-- Node15&#45;&gt;Node16 -->
<g id="edge26_Node000015_Node000016" class="edge">
<title>Node15&#45;&gt;Node16</title>
<g id="a_edge26_Node000015_Node000016"><a xlink:title=" ">
<path fill="none" stroke="#63b8ff" d="M823.38,-252.94C822.18,-242.46 820.52,-228.05 819.19,-216.55"/>
<polygon fill="#63b8ff" stroke="#63b8ff" points="822.63,-215.8 818.01,-206.27 815.68,-216.6 822.63,-215.8"/>
</a>
</g>
</g>
<!-- Node17 -->
<g id="Node000017" class="node">
<title>Node17</title>
<g id="a_Node000017"><a xlink:title=" ">
<polygon fill="#e0e0e0" stroke="#999999" points="852,-134.5 794,-134.5 794,-115.5 852,-115.5 852,-134.5"/>
<text text-anchor="middle" x="823" y="-122.5" font-family="Helvetica,sans-Serif" font-size="10.00">memory</text>
</a>
</g>
</g>
<!-- Node15&#45;&gt;Node17 -->
<g id="edge27_Node000015_Node000017" class="edge">
<title>Node15&#45;&gt;Node17</title>
<g id="a_edge27_Node000015_Node000017"><a xlink:title=" ">
<path fill="none" stroke="#63b8ff" d="M834.7,-252.86C840.7,-243.23 847.84,-229.93 851,-217 855.33,-199.3 855.6,-193.63 851,-176 847.91,-164.16 841.33,-152.15 835.32,-142.88"/>
<polygon fill="#63b8ff" stroke="#63b8ff" points="838.19,-140.88 829.65,-134.61 832.42,-144.84 838.19,-140.88"/>
</a>
</g>
</g>
<!-- Node18&#45;&gt;Node3 -->
<g id="edge36_Node000018_Node000003" class="edge">
<title>Node18&#45;&gt;Node3</title>
<g id="a_edge36_Node000018_Node000003"><a xlink:title=" ">
<path fill="none" stroke="#63b8ff" d="M858.93,-329.95C828.59,-322.08 788.62,-307.76 761,-283 696.31,-225.01 712.15,-185.97 670,-110 665.01,-101 659.25,-91.11 654.43,-82.94"/>
<polygon fill="#63b8ff" stroke="#63b8ff" points="657.41,-81.11 649.3,-74.3 651.4,-84.68 657.41,-81.11"/>
</a>
</g>
</g>
<!-- Node18&#45;&gt;Node8 -->
<g id="edge34_Node000018_Node000008" class="edge">
<title>Node18&#45;&gt;Node8</title>
<g id="a_edge34_Node000018_Node000008"><a xlink:title=" ">
<path fill="none" stroke="#63b8ff" d="M920.39,-329.92C954.42,-314.12 1029.6,-279.64 1094,-253 1132.15,-237.22 1176.56,-220.45 1206.08,-209.53"/>
<polygon fill="#63b8ff" stroke="#63b8ff" points="1207.32,-212.8 1215.49,-206.06 1204.9,-206.23 1207.32,-212.8"/>
</a>
</g>
</g>
<!-- Node18&#45;&gt;Node9 -->
<g id="edge33_Node000018_Node000009" class="edge">
<title>Node18&#45;&gt;Node9</title>
<g id="a_edge33_Node000018_Node000009"><a xlink:title=" ">
<path fill="none" stroke="#63b8ff" d="M904.35,-329.73C914.62,-291.3 955.78,-137.38 970.08,-83.91"/>
<polygon fill="#63b8ff" stroke="#63b8ff" points="973.5,-84.67 972.7,-74.11 966.73,-82.86 973.5,-84.67"/>
</a>
</g>
</g>
<!-- Node18&#45;&gt;Node15 -->
<g id="edge35_Node000018_Node000015" class="edge">
<title>Node18&#45;&gt;Node15</title>
<g id="a_edge35_Node000018_Node000015"><a xlink:title=" ">
<path fill="none" stroke="#63b8ff" d="M892.56,-329.98C881.65,-320.13 863.29,-303.56 848.47,-290.18"/>
<polygon fill="#63b8ff" stroke="#63b8ff" points="850.43,-287.24 840.66,-283.14 845.74,-292.44 850.43,-287.24"/>
</a>
</g>
</g>
<!-- Node18&#45;&gt;Node17 -->
<g id="edge32_Node000018_Node000017" class="edge">
<title>Node18&#45;&gt;Node17</title>
<g id="a_edge32_Node000018_Node000017"><a xlink:title=" ">
<path fill="none" stroke="#63b8ff" d="M901.83,-329.8C900.99,-304.46 896.05,-229.19 867,-176 860.05,-163.29 849.37,-151.04 840.27,-141.85"/>
<polygon fill="#63b8ff" stroke="#63b8ff" points="842.43,-139.07 832.81,-134.62 837.55,-144.1 842.43,-139.07"/>
</a>
</g>
</g>
<!-- Node19&#45;&gt;Node2 -->
<g id="edge40_Node000019_Node000002" class="edge">
<title>Node19&#45;&gt;Node2</title>
<g id="a_edge40_Node000019_Node000002"><a xlink:title=" ">
<path fill="none" stroke="#63b8ff" d="M1012.18,-189.72C859.65,-176.54 487.53,-144.37 338.37,-131.48"/>
<polygon fill="#63b8ff" stroke="#63b8ff" points="338.29,-127.96 328.02,-130.58 337.69,-134.93 338.29,-127.96"/>
</a>
</g>
</g>
<!-- Node19&#45;&gt;Node3 -->
<g id="edge43_Node000019_Node000003" class="edge">
<title>Node19&#45;&gt;Node3</title>
<g id="a_edge43_Node000019_Node000003"><a xlink:title=" ">
<path fill="none" stroke="#63b8ff" d="M1063.71,-186.77C1032.71,-169.47 959.82,-130.69 894,-110 836.16,-91.82 768.32,-80.33 717.91,-73.59"/>
<polygon fill="#63b8ff" stroke="#63b8ff" points="718.12,-70.09 707.75,-72.26 717.21,-77.03 718.12,-70.09"/>
</a>
</g>
</g>
<!-- Node19&#45;&gt;Node9 -->
<g id="edge39_Node000019_Node000009" class="edge">
<title>Node19&#45;&gt;Node9</title>
<g id="a_edge39_Node000019_Node000009"><a xlink:title=" ">
<path fill="none" stroke="#63b8ff" d="M1072.18,-186.97C1055.21,-165.77 1010.89,-110.36 988.44,-82.3"/>
<polygon fill="#63b8ff" stroke="#63b8ff" points="990.97,-79.85 981.99,-74.23 985.5,-84.23 990.97,-79.85"/>
</a>
</g>
</g>
<!-- Node19&#45;&gt;Node13 -->
<g id="edge41_Node000019_Node000013" class="edge">
<title>Node19&#45;&gt;Node13</title>
<g id="a_edge41_Node000019_Node000013"><a xlink:title=" ">
<path fill="none" stroke="#63b8ff" d="M1085.13,-186.98C1093,-176.04 1106.84,-156.8 1116.88,-142.85"/>
<polygon fill="#63b8ff" stroke="#63b8ff" points="1119.82,-144.75 1122.82,-134.59 1114.14,-140.67 1119.82,-144.75"/>
</a>
</g>
</g>
<!-- Node19&#45;&gt;Node14 -->
<g id="edge42_Node000019_Node000014" class="edge">
<title>Node19&#45;&gt;Node14</title>
<g id="a_edge42_Node000019_Node000014"><a xlink:title=" ">
<path fill="none" stroke="#63b8ff" d="M1108.76,-186.92C1122.71,-183.14 1139.61,-178.91 1155,-176 1265.93,-155.01 1395.68,-140.78 1477.85,-133.02"/>
<polygon fill="#63b8ff" stroke="#63b8ff" points="1478.24,-136.5 1487.87,-132.09 1477.59,-129.53 1478.24,-136.5"/>
</a>
</g>
</g>
<!-- Node19&#45;&gt;Node17 -->
<g id="edge38_Node000019_Node000017" class="edge">
<title>Node19&#45;&gt;Node17</title>
<g id="a_edge38_Node000019_Node000017"><a xlink:title=" ">
<path fill="none" stroke="#63b8ff" d="M1047.61,-186.98C1000.89,-174.3 913.13,-150.47 862.24,-136.65"/>
<polygon fill="#63b8ff" stroke="#63b8ff" points="862.84,-133.19 852.27,-133.95 861.01,-139.94 862.84,-133.19"/>
</a>
</g>
</g>
<!-- Node20&#45;&gt;Node2 -->
<g id="edge46_Node000020_Node000002" class="edge">
<title>Node20&#45;&gt;Node2</title>
<g id="a_edge46_Node000020_Node000002"><a xlink:title=" ">
<path fill="none" stroke="#63b8ff" d="M455.84,-178.59C418.55,-167.74 370.33,-153.72 333.06,-142.88"/>
<polygon fill="#63b8ff" stroke="#63b8ff" points="333.92,-139.49 323.34,-140.06 331.97,-146.21 333.92,-139.49"/>
</a>
</g>
</g>
<!-- Node20&#45;&gt;Node3 -->
<g id="edge47_Node000020_Node000003" class="edge">
<title>Node20&#45;&gt;Node3</title>
<g id="a_edge47_Node000020_Node000003"><a xlink:title=" ">
<path fill="none" stroke="#63b8ff" d="M501.12,-175.99C490.59,-157.35 479.59,-129.3 494,-110 511.8,-86.15 541.85,-74.56 570.4,-69.11"/>
<polygon fill="#63b8ff" stroke="#63b8ff" points="571.13,-72.54 580.41,-67.43 569.97,-65.63 571.13,-72.54"/>
</a>
</g>
</g>
<!-- Node20&#45;&gt;Node9 -->
<g id="edge45_Node000020_Node000009" class="edge">
<title>Node20&#45;&gt;Node9</title>
<g id="a_edge45_Node000020_Node000009"><a xlink:title=" ">
<path fill="none" stroke="#63b8ff" d="M510.8,-175.79C508.85,-156.17 509.47,-126.64 527,-110 557.05,-81.47 844.7,-69.67 942.58,-66.46"/>
<polygon fill="#63b8ff" stroke="#63b8ff" points="942.88,-69.95 952.76,-66.14 942.66,-62.96 942.88,-69.95"/>
</a>
</g>
</g>
<!-- Node20&#45;&gt;Node21 -->
<g id="edge48_Node000020_Node000021" class="edge">
<title>Node20&#45;&gt;Node21</title>
<g id="a_edge48_Node000020_Node000021"><a xlink:title=" ">
<path fill="none" stroke="#63b8ff" d="M538.13,-175.77C549.35,-166.6 562.68,-155.7 574,-146.44"/>
<polygon fill="#63b8ff" stroke="#63b8ff" points="576.3,-149.08 581.83,-140.04 571.87,-143.66 576.3,-149.08"/>
</a>
</g>
</g>
<!-- Node21&#45;&gt;Node3 -->
<g id="edge50_Node000021_Node000003" class="edge">
<title>Node21&#45;&gt;Node3</title>
<g id="a_edge50_Node000021_Node000003"><a xlink:title=" ">
<path fill="none" stroke="#63b8ff" d="M609.89,-109.84C616.29,-101.52 624.42,-90.96 631.13,-82.23"/>
<polygon fill="#63b8ff" stroke="#63b8ff" points="633.93,-84.33 637.26,-74.27 628.39,-80.06 633.93,-84.33"/>
</a>
</g>
</g>
<!-- Node21&#45;&gt;Node9 -->
<g id="edge49_Node000021_Node000009" class="edge">
<title>Node21&#45;&gt;Node9</title>
<g id="a_edge49_Node000021_Node000009"><a xlink:title=" ">
<path fill="none" stroke="#63b8ff" d="M661.51,-114.27C742.45,-101.68 880.49,-80.2 942.8,-70.51"/>
<polygon fill="#63b8ff" stroke="#63b8ff" points="943.48,-73.95 952.83,-68.95 942.41,-67.03 943.48,-73.95"/>
</a>
</g>
</g>
<!-- Node22&#45;&gt;Node3 -->
<g id="edge54_Node000022_Node000003" class="edge">
<title>Node22&#45;&gt;Node3</title>
<g id="a_edge54_Node000022_Node000003"><a xlink:title=" ">
<path fill="none" stroke="#63b8ff" d="M640,-328.47C579.46,-314.82 489.1,-283.92 447,-217 420.21,-174.41 444.42,-141.07 484,-110 508.55,-90.73 540.94,-79.8 570.15,-73.6"/>
<polygon fill="#63b8ff" stroke="#63b8ff" points="571.2,-76.96 580.34,-71.6 569.85,-70.09 571.2,-76.96"/>
</a>
</g>
</g>
<!-- Node22&#45;&gt;Node9 -->
<g id="edge52_Node000022_Node000009" class="edge">
<title>Node22&#45;&gt;Node9</title>
<g id="a_edge52_Node000022_Node000009"><a xlink:title=" ">
<path fill="none" stroke="#63b8ff" d="M701.28,-318.85C705.25,-274.49 721.33,-166.11 785,-110 808.16,-89.59 894.61,-75.69 942.52,-69.37"/>
<polygon fill="#63b8ff" stroke="#63b8ff" points="943.21,-72.81 952.69,-68.07 942.32,-65.87 943.21,-72.81"/>
</a>
</g>
</g>
<!-- Node22&#45;&gt;Node15 -->
<g id="edge53_Node000022_Node000015" class="edge">
<title>Node22&#45;&gt;Node15</title>
<g id="a_edge53_Node000022_Node000015"><a xlink:title=" ">
<path fill="none" stroke="#63b8ff" d="M735.15,-318.96C752.46,-309.33 773.24,-297.78 790.46,-288.2"/>
<polygon fill="#63b8ff" stroke="#63b8ff" points="792.58,-291.03 799.62,-283.11 789.18,-284.91 792.58,-291.03"/>
</a>
</g>
</g>
<!-- Node22&#45;&gt;Node21 -->
<g id="edge55_Node000022_Node000021" class="edge">
<title>Node22&#45;&gt;Node21</title>
<g id="a_edge55_Node000022_Node000021"><a xlink:title=" ">
<path fill="none" stroke="#63b8ff" d="M690.68,-318.89C672.01,-279.6 630.1,-191.42 610.07,-149.28"/>
<polygon fill="#63b8ff" stroke="#63b8ff" points="613.15,-147.62 605.7,-140.09 606.83,-150.62 613.15,-147.62"/>
</a>
</g>
</g>
<!-- Node23&#45;&gt;Node2 -->
<g id="edge60_Node000023_Node000002" class="edge">
<title>Node23&#45;&gt;Node2</title>
<g id="a_edge60_Node000023_Node000002"><a xlink:title=" ">
<path fill="none" stroke="#63b8ff" d="M164.93,-181.44C185.97,-170.84 215.03,-156.2 238,-144.63"/>
<polygon fill="#63b8ff" stroke="#63b8ff" points="239.76,-147.67 247.12,-140.04 236.61,-141.42 239.76,-147.67"/>
</a>
</g>
</g>
<!-- Node23&#45;&gt;Node3 -->
<g id="edge61_Node000023_Node000003" class="edge">
<title>Node23&#45;&gt;Node3</title>
<g id="a_edge61_Node000023_Node000003"><a xlink:title=" ">
<path fill="none" stroke="#63b8ff" d="M144.9,-181.35C156.81,-161.55 181.36,-126.21 213,-110 273.56,-78.97 463.77,-69.57 570.15,-66.73"/>
<polygon fill="#63b8ff" stroke="#63b8ff" points="570.26,-70.23 580.17,-66.48 570.09,-63.23 570.26,-70.23"/>
</a>
</g>
</g>
<!-- Node23&#45;&gt;Node9 -->
<g id="edge59_Node000023_Node000009" class="edge">
<title>Node23&#45;&gt;Node9</title>
<g id="a_edge59_Node000023_Node000009"><a xlink:title=" ">
<path fill="none" stroke="#63b8ff" d="M188.33,-181.46C259.71,-162.45 393.22,-128.75 509,-110 670.34,-83.87 865.78,-71.33 942.17,-67.16"/>
<polygon fill="#63b8ff" stroke="#63b8ff" points="942.76,-70.63 952.56,-66.6 942.38,-63.64 942.76,-70.63"/>
</a>
</g>
</g>
<!-- Node24 -->
<g id="Node000024" class="node">
<title>Node24</title>
<g id="a_Node000024"><a xlink:title=" ">
<polygon fill="#e0e0e0" stroke="#999999" points="165.5,-134.5 108.5,-134.5 108.5,-115.5 165.5,-115.5 165.5,-134.5"/>
<text text-anchor="middle" x="137" y="-122.5" font-family="Helvetica,sans-Serif" font-size="10.00">httplib.h</text>
</a>
</g>
</g>
<!-- Node23&#45;&gt;Node24 -->
<g id="edge58_Node000023_Node000024" class="edge">
<title>Node23&#45;&gt;Node24</title>
<g id="a_edge58_Node000023_Node000024"><a xlink:title=" ">
<path fill="none" stroke="#63b8ff" d="M137,-181.44C137,-170.96 137,-156.55 137,-145.05"/>
<polygon fill="#63b8ff" stroke="#63b8ff" points="140.5,-144.77 137,-134.77 133.5,-144.77 140.5,-144.77"/>
</a>
</g>
</g>
<!-- Node25&#45;&gt;Node3 -->
<g id="edge67_Node000025_Node000003" class="edge">
<title>Node25&#45;&gt;Node3</title>
<g id="a_edge67_Node000025_Node000003"><a xlink:title=" ">
<path fill="none" stroke="#63b8ff" d="M1142.8,-324.46C1079.02,-275.3 869.08,-113.67 861,-110 815.78,-89.45 760.96,-78.31 717.74,-72.31"/>
<polygon fill="#63b8ff" stroke="#63b8ff" points="717.95,-68.81 707.57,-70.97 717.03,-75.75 717.95,-68.81"/>
</a>
</g>
</g>
<!-- Node25&#45;&gt;Node8 -->
<g id="edge65_Node000025_Node000008" class="edge">
<title>Node25&#45;&gt;Node8</title>
<g id="a_edge65_Node000025_Node000008"><a xlink:title=" ">
<path fill="none" stroke="#63b8ff" d="M1192.12,-324.43C1208.61,-315.19 1227.39,-301.39 1237,-283 1247.94,-262.08 1246.06,-234.16 1243.07,-216.01"/>
<polygon fill="#63b8ff" stroke="#63b8ff" points="1246.49,-215.28 1241.16,-206.12 1239.62,-216.6 1246.49,-215.28"/>
</a>
</g>
</g>
<!-- Node25&#45;&gt;Node9 -->
<g id="edge63_Node000025_Node000009" class="edge">
<title>Node25&#45;&gt;Node9</title>
<g id="a_edge63_Node000025_Node000009"><a xlink:title=" ">
<path fill="none" stroke="#63b8ff" d="M1147.29,-324.38C1131.31,-306.18 1109.21,-274.36 1127,-253 1183.69,-184.95 1242.27,-253.42 1323,-217 1381.78,-190.48 1464.28,-157.81 1421,-110 1393.32,-79.42 1105.49,-68.97 1007.47,-66.28"/>
<polygon fill="#63b8ff" stroke="#63b8ff" points="1007.36,-62.78 997.27,-66.01 1007.18,-69.77 1007.36,-62.78"/>
</a>
</g>
</g>
<!-- Node25&#45;&gt;Node15 -->
<g id="edge66_Node000025_Node000015" class="edge">
<title>Node25&#45;&gt;Node15</title>
<g id="a_edge66_Node000025_Node000015"><a xlink:title=" ">
<path fill="none" stroke="#63b8ff" d="M1093.01,-324.44C1033.73,-312.17 948.34,-294.51 889.97,-282.44"/>
<polygon fill="#63b8ff" stroke="#63b8ff" points="890.63,-279 880.12,-280.4 889.21,-285.86 890.63,-279"/>
</a>
</g>
</g>
<!-- Node26 -->
<g id="Node000026" class="node">
<title>Node26</title>
<g id="a_Node000026"><a xlink:title=" ">
<polygon fill="#e0e0e0" stroke="#999999" points="1228,-277.5 1136,-277.5 1136,-258.5 1228,-258.5 1228,-277.5"/>
<text text-anchor="middle" x="1182" y="-265.5" font-family="Helvetica,sans-Serif" font-size="10.00">httplib/httplib.h</text>
</a>
</g>
</g>
<!-- Node25&#45;&gt;Node26 -->
<g id="edge64_Node000025_Node000026" class="edge">
<title>Node25&#45;&gt;Node26</title>
<g id="a_edge64_Node000025_Node000026"><a xlink:title=" ">
<path fill="none" stroke="#63b8ff" d="M1165.25,-324.44C1168.45,-313.86 1172.86,-299.25 1176.35,-287.69"/>
<polygon fill="#63b8ff" stroke="#63b8ff" points="1179.81,-288.35 1179.35,-277.77 1173.11,-286.33 1179.81,-288.35"/>
</a>
</g>
</g>
<!-- Node27&#45;&gt;Node2 -->
<g id="edge70_Node000027_Node000002" class="edge">
<title>Node27&#45;&gt;Node2</title>
<g id="a_edge70_Node000027_Node000002"><a xlink:title=" ">
<path fill="none" stroke="#63b8ff" d="M245.37,-252.92C246.11,-234.86 248.33,-202.68 255,-176 257.22,-167.1 260.68,-157.68 264.1,-149.44"/>
<polygon fill="#63b8ff" stroke="#63b8ff" points="267.39,-150.66 268.16,-140.1 260.97,-147.87 267.39,-150.66"/>
</a>
</g>
</g>
<!-- Node27&#45;&gt;Node3 -->
<g id="edge72_Node000027_Node000003" class="edge">
<title>Node27&#45;&gt;Node3</title>
<g id="a_edge72_Node000027_Node000003"><a xlink:title=" ">
<path fill="none" stroke="#63b8ff" d="M171.8,-256.83C125.31,-248.7 71.28,-235.58 57,-217 25.86,-176.5 55.25,-136.39 99,-110 138.4,-86.23 430.77,-72.94 570.3,-67.89"/>
<polygon fill="#63b8ff" stroke="#63b8ff" points="570.61,-71.38 580.48,-67.53 570.36,-64.39 570.61,-71.38"/>
</a>
</g>
</g>
<!-- Node27&#45;&gt;Node8 -->
<g id="edge71_Node000027_Node000008" class="edge">
<title>Node27&#45;&gt;Node8</title>
<g id="a_edge71_Node000027_Node000008"><a xlink:title=" ">
<path fill="none" stroke="#63b8ff" d="M318.13,-264.62C504.52,-258.29 993.95,-239.94 1155,-217 1169.17,-214.98 1184.48,-211.75 1198.09,-208.49"/>
<polygon fill="#63b8ff" stroke="#63b8ff" points="1199.26,-211.81 1208.13,-206.02 1197.58,-205.01 1199.26,-211.81"/>
</a>
</g>
</g>
<!-- Node28 -->
<g id="Node000028" class="node">
<title>Node28</title>
<g id="a_Node000028"><a xlink:title=" ">
<polygon fill="#e0e0e0" stroke="#999999" points="324,-206 264,-206 264,-187 324,-187 324,-206"/>
<text text-anchor="middle" x="294" y="-194" font-family="Helvetica,sans-Serif" font-size="10.00">iostream</text>
</a>
</g>
</g>
<!-- Node27&#45;&gt;Node28 -->
<g id="edge69_Node000027_Node000028" class="edge">
<title>Node27&#45;&gt;Node28</title>
<g id="a_edge69_Node000027_Node000028"><a xlink:title=" ">
<path fill="none" stroke="#63b8ff" d="M254.92,-252.94C262.68,-241.92 273.53,-226.54 281.82,-214.78"/>
<polygon fill="#63b8ff" stroke="#63b8ff" points="284.92,-216.46 287.82,-206.27 279.2,-212.42 284.92,-216.46"/>
</a>
</g>
</g>
<!-- Node29&#45;&gt;Node3 -->
<g id="edge77_Node000029_Node000003" class="edge">
<title>Node29&#45;&gt;Node3</title>
<g id="a_edge77_Node000029_Node000003"><a xlink:title=" ">
<path fill="none" stroke="#63b8ff" d="M443.1,-324.36C427.36,-284.08 389.42,-167.95 449,-110 466.37,-93.1 522.76,-81.4 570.47,-74.26"/>
<polygon fill="#63b8ff" stroke="#63b8ff" points="571.1,-77.7 580.5,-72.8 570.1,-70.77 571.1,-77.7"/>
</a>
</g>
</g>
<!-- Node29&#45;&gt;Node8 -->
<g id="edge75_Node000029_Node000008" class="edge">
<title>Node29&#45;&gt;Node8</title>
<g id="a_edge75_Node000029_Node000008"><a xlink:title=" ">
<path fill="none" stroke="#63b8ff" d="M490.85,-324.49C550.22,-305.2 662.63,-270.83 761,-253 934.02,-221.64 981.39,-244.95 1155,-217 1168.78,-214.78 1183.67,-211.59 1197.02,-208.43"/>
<polygon fill="#63b8ff" stroke="#63b8ff" points="1198,-211.8 1206.89,-206.04 1196.35,-205 1198,-211.8"/>
</a>
</g>
</g>
<!-- Node29&#45;&gt;Node15 -->
<g id="edge76_Node000029_Node000015" class="edge">
<title>Node29&#45;&gt;Node15</title>
<g id="a_edge76_Node000029_Node000015"><a xlink:title=" ">
<path fill="none" stroke="#63b8ff" d="M524.19,-324.6C593.05,-311.87 693.95,-293.22 759.56,-281.1"/>
<polygon fill="#63b8ff" stroke="#63b8ff" points="760.58,-284.47 769.77,-279.21 759.3,-277.58 760.58,-284.47"/>
</a>
</g>
</g>
<!-- Node29&#45;&gt;Node28 -->
<g id="edge74_Node000029_Node000028" class="edge">
<title>Node29&#45;&gt;Node28</title>
<g id="a_edge74_Node000029_Node000028"><a xlink:title=" ">
<path fill="none" stroke="#63b8ff" d="M433.57,-324.46C404.45,-297.98 341.6,-240.8 311.19,-213.13"/>
<polygon fill="#63b8ff" stroke="#63b8ff" points="313.27,-210.3 303.52,-206.16 308.56,-215.48 313.27,-210.3"/>
</a>
</g>
</g>
</g>
</svg>
