<?xml version="1.0" encoding="UTF-8" standalone="no"?>
<!DOCTYPE svg PUBLIC "-//W3C//DTD SVG 1.1//EN"
 "http://www.w3.org/Graphics/SVG/1.1/DTD/svg11.dtd">
<!-- Generated by graphviz version 2.43.0 (0)
 -->
<!-- Title: jsonrpc::utils::trim Pages: 1 -->
<svg width="884pt" height="108pt"
 viewBox="0.00 0.00 884.00 108.00" xmlns="http://www.w3.org/2000/svg" xmlns:xlink="http://www.w3.org/1999/xlink">
<g id="graph0" class="graph" transform="scale(1 1) rotate(0) translate(4 104)">
<title>jsonrpc::utils::trim</title>
<!-- Node1 -->
<g id="Node000001" class="node">
<title>Node1</title>
<g id="a_Node000001"><a xlink:title=" ">
<polygon fill="#999999" stroke="#666666" points="876,-59 771,-59 771,-40 876,-40 876,-59"/>
<text text-anchor="middle" x="823.5" y="-47" font-family="Helvetica,sans-Serif" font-size="10.00">jsonrpc::utils::trim</text>
</a>
</g>
</g>
<!-- Node2 -->
<g id="Node000002" class="node">
<title>Node2</title>
<g id="a_Node000002"><a xlink:href="classjsonrpc_1_1transport_1_1FramedTransport.html#adcfc8964bb8112eea2daaff3ac23d9cc" target="_top" xlink:title=" ">
<polygon fill="white" stroke="#666666" points="735,-70 559,-70 559,-29 735,-29 735,-70"/>
<text text-anchor="start" x="567" y="-58" font-family="Helvetica,sans-Serif" font-size="10.00">jsonrpc::transport</text>
<text text-anchor="start" x="567" y="-47" font-family="Helvetica,sans-Serif" font-size="10.00">::FramedTransport::ReadHeaders</text>
<text text-anchor="middle" x="647" y="-36" font-family="Helvetica,sans-Serif" font-size="10.00">FromStream</text>
</a>
</g>
</g>
<!-- Node1&#45;&gt;Node2 -->
<g id="edge1_Node000001_Node000002" class="edge">
<title>Node1&#45;&gt;Node2</title>
<g id="a_edge1_Node000001_Node000002"><a xlink:title=" ">
<path fill="none" stroke="#63b8ff" d="M760.46,-49.5C752.29,-49.5 743.8,-49.5 735.3,-49.5"/>
<polygon fill="#63b8ff" stroke="#63b8ff" points="760.62,-53 770.62,-49.5 760.62,-46 760.62,-53"/>
</a>
</g>
</g>
<!-- Node3 -->
<g id="Node000003" class="node">
<title>Node3</title>
<g id="a_Node000003"><a xlink:href="classjsonrpc_1_1transport_1_1FramedTransport.html#abc9bb6673778ecab6c5b9f8d50d44574" target="_top" xlink:title=" ">
<polygon fill="white" stroke="#666666" points="523,-70 350,-70 350,-29 523,-29 523,-70"/>
<text text-anchor="start" x="358" y="-58" font-family="Helvetica,sans-Serif" font-size="10.00">jsonrpc::transport</text>
<text text-anchor="start" x="358" y="-47" font-family="Helvetica,sans-Serif" font-size="10.00">::FramedTransport::ReadContent</text>
<text text-anchor="middle" x="436.5" y="-36" font-family="Helvetica,sans-Serif" font-size="10.00">LengthFromStream</text>
</a>
</g>
</g>
<!-- Node2&#45;&gt;Node3 -->
<g id="edge2_Node000002_Node000003" class="edge">
<title>Node2&#45;&gt;Node3</title>
<g id="a_edge2_Node000002_Node000003"><a xlink:title=" ">
<path fill="none" stroke="#63b8ff" d="M548.75,-49.5C540.16,-49.5 531.51,-49.5 523.03,-49.5"/>
<polygon fill="#63b8ff" stroke="#63b8ff" points="548.79,-53 558.79,-49.5 548.79,-46 548.79,-53"/>
</a>
</g>
</g>
<!-- Node4 -->
<g id="Node000004" class="node">
<title>Node4</title>
<g id="a_Node000004"><a xlink:href="classjsonrpc_1_1transport_1_1FramedTransport.html#a0b49a8a146fa2d225751c4e97cdf3617" target="_top" xlink:title="Receives a framed message.">
<polygon fill="white" stroke="#666666" points="314,-100 165,-100 165,-59 314,-59 314,-100"/>
<text text-anchor="start" x="173" y="-88" font-family="Helvetica,sans-Serif" font-size="10.00">jsonrpc::transport</text>
<text text-anchor="start" x="173" y="-77" font-family="Helvetica,sans-Serif" font-size="10.00">::FramedTransport::Receive</text>
<text text-anchor="middle" x="239.5" y="-66" font-family="Helvetica,sans-Serif" font-size="10.00">FramedMessage</text>
</a>
</g>
</g>
<!-- Node3&#45;&gt;Node4 -->
<g id="edge3_Node000003_Node000004" class="edge">
<title>Node3&#45;&gt;Node4</title>
<g id="a_edge3_Node000003_Node000004"><a xlink:title=" ">
<path fill="none" stroke="#63b8ff" d="M339.83,-64.22C331.16,-65.55 322.48,-66.89 314.06,-68.18"/>
<polygon fill="#63b8ff" stroke="#63b8ff" points="340.62,-67.64 349.97,-62.66 339.55,-60.72 340.62,-67.64"/>
</a>
</g>
</g>
<!-- Node6 -->
<g id="Node000006" class="node">
<title>Node6</title>
<g id="a_Node000006"><a xlink:href="classjsonrpc_1_1transport_1_1FramedPipeTransport.html#aa90a2b497357b34bfdac1f0f66302161" target="_top" xlink:title="Receives a message from the transport layer.">
<polygon fill="white" stroke="#666666" points="302,-41 177,-41 177,0 302,0 302,-41"/>
<text text-anchor="start" x="185" y="-29" font-family="Helvetica,sans-Serif" font-size="10.00">jsonrpc::transport</text>
<text text-anchor="start" x="185" y="-18" font-family="Helvetica,sans-Serif" font-size="10.00">::FramedPipeTransport</text>
<text text-anchor="middle" x="239.5" y="-7" font-family="Helvetica,sans-Serif" font-size="10.00">::ReceiveMessage</text>
</a>
</g>
</g>
<!-- Node3&#45;&gt;Node6 -->
<g id="edge5_Node000003_Node000006" class="edge">
<title>Node3&#45;&gt;Node6</title>
<g id="a_edge5_Node000003_Node000006"><a xlink:title=" ">
<path fill="none" stroke="#63b8ff" d="M339.76,-35.26C327,-33.36 314.2,-31.46 302.23,-29.68"/>
<polygon fill="#63b8ff" stroke="#63b8ff" points="339.56,-38.77 349.97,-36.78 340.59,-31.85 339.56,-38.77"/>
</a>
</g>
</g>
<!-- Node5 -->
<g id="Node000005" class="node">
<title>Node5</title>
<g id="a_Node000005"><a xlink:href="classjsonrpc_1_1transport_1_1FramedStdioTransport.html#ab895abe72713d7016b4cc59ba96c9ecc" target="_top" xlink:title="Receives a message from the transport layer.">
<polygon fill="white" stroke="#666666" points="129,-100 0,-100 0,-59 129,-59 129,-100"/>
<text text-anchor="start" x="8" y="-88" font-family="Helvetica,sans-Serif" font-size="10.00">jsonrpc::transport</text>
<text text-anchor="start" x="8" y="-77" font-family="Helvetica,sans-Serif" font-size="10.00">::FramedStdioTransport</text>
<text text-anchor="middle" x="64.5" y="-66" font-family="Helvetica,sans-Serif" font-size="10.00">::ReceiveMessage</text>
</a>
</g>
</g>
<!-- Node4&#45;&gt;Node5 -->
<g id="edge4_Node000004_Node000005" class="edge">
<title>Node4&#45;&gt;Node5</title>
<g id="a_edge4_Node000004_Node000005"><a xlink:title=" ">
<path fill="none" stroke="#63b8ff" d="M154.81,-79.5C146.21,-79.5 137.56,-79.5 129.22,-79.5"/>
<polygon fill="#63b8ff" stroke="#63b8ff" points="154.88,-83 164.88,-79.5 154.88,-76 154.88,-83"/>
</a>
</g>
</g>
</g>
</svg>
