<?xml version="1.0" encoding="UTF-8" standalone="no"?>
<!DOCTYPE svg PUBLIC "-//W3C//DTD SVG 1.1//EN"
 "http://www.w3.org/Graphics/SVG/1.1/DTD/svg11.dtd">
<!-- Generated by graphviz version 2.43.0 (0)
 -->
<!-- Title: src/transport/pipe_transport.cpp Pages: 1 -->
<svg width="425pt" height="214pt"
 viewBox="0.00 0.00 424.50 214.00" xmlns="http://www.w3.org/2000/svg" xmlns:xlink="http://www.w3.org/1999/xlink">
<g id="graph0" class="graph" transform="scale(1 1) rotate(0) translate(4 210)">
<title>src/transport/pipe_transport.cpp</title>
<!-- Node1 -->
<g id="Node000001" class="node">
<title>Node1</title>
<g id="a_Node000001"><a xlink:title=" ">
<polygon fill="#999999" stroke="#666666" points="288,-206 186,-206 186,-176 288,-176 288,-206"/>
<text text-anchor="start" x="194" y="-194" font-family="Helvetica,sans-Serif" font-size="10.00">src/transport/pipe</text>
<text text-anchor="middle" x="237" y="-183" font-family="Helvetica,sans-Serif" font-size="10.00">_transport.cpp</text>
</a>
</g>
</g>
<!-- Node2 -->
<g id="Node000002" class="node">
<title>Node2</title>
<g id="a_Node000002"><a xlink:href="pipe__transport_8hpp.html" target="_top" xlink:title=" ">
<polygon fill="white" stroke="#666666" points="147.5,-140 24.5,-140 24.5,-110 147.5,-110 147.5,-140"/>
<text text-anchor="start" x="32.5" y="-128" font-family="Helvetica,sans-Serif" font-size="10.00">jsonrpc/transport/pipe</text>
<text text-anchor="middle" x="86" y="-117" font-family="Helvetica,sans-Serif" font-size="10.00">_transport.hpp</text>
</a>
</g>
</g>
<!-- Node1&#45;&gt;Node2 -->
<g id="edge1_Node000001_Node000002" class="edge">
<title>Node1&#45;&gt;Node2</title>
<g id="a_edge1_Node000001_Node000002"><a xlink:title=" ">
<path fill="none" stroke="#63b8ff" d="M203.86,-175.95C181.73,-166.58 152.43,-154.16 128.58,-144.05"/>
<polygon fill="#63b8ff" stroke="#63b8ff" points="129.63,-140.69 119.06,-140.01 126.9,-147.14 129.63,-140.69"/>
</a>
</g>
</g>
<!-- Node6 -->
<g id="Node000006" class="node">
<title>Node6</title>
<g id="a_Node000006"><a xlink:title=" ">
<polygon fill="#e0e0e0" stroke="#999999" points="230.5,-134.5 165.5,-134.5 165.5,-115.5 230.5,-115.5 230.5,-134.5"/>
<text text-anchor="middle" x="198" y="-122.5" font-family="Helvetica,sans-Serif" font-size="10.00">stdexcept</text>
</a>
</g>
</g>
<!-- Node1&#45;&gt;Node6 -->
<g id="edge6_Node000001_Node000006" class="edge">
<title>Node1&#45;&gt;Node6</title>
<g id="a_edge6_Node000001_Node000006"><a xlink:title=" ">
<path fill="none" stroke="#63b8ff" d="M228.34,-175.8C222.56,-166.31 214.92,-153.76 208.74,-143.63"/>
<polygon fill="#63b8ff" stroke="#63b8ff" points="211.58,-141.56 203.39,-134.84 205.6,-145.21 211.58,-141.56"/>
</a>
</g>
</g>
<!-- Node7 -->
<g id="Node000007" class="node">
<title>Node7</title>
<g id="a_Node000007"><a xlink:title=" ">
<polygon fill="#e0e0e0" stroke="#999999" points="305,-134.5 249,-134.5 249,-115.5 305,-115.5 305,-134.5"/>
<text text-anchor="middle" x="277" y="-122.5" font-family="Helvetica,sans-Serif" font-size="10.00">unistd.h</text>
</a>
</g>
</g>
<!-- Node1&#45;&gt;Node7 -->
<g id="edge7_Node000001_Node000007" class="edge">
<title>Node1&#45;&gt;Node7</title>
<g id="a_edge7_Node000001_Node000007"><a xlink:title=" ">
<path fill="none" stroke="#63b8ff" d="M245.88,-175.8C251.81,-166.31 259.65,-153.76 265.98,-143.63"/>
<polygon fill="#63b8ff" stroke="#63b8ff" points="269.14,-145.18 271.47,-134.84 263.2,-141.47 269.14,-145.18"/>
</a>
</g>
</g>
<!-- Node8 -->
<g id="Node000008" class="node">
<title>Node8</title>
<g id="a_Node000008"><a xlink:title=" ">
<polygon fill="#e0e0e0" stroke="#999999" points="416.5,-134.5 323.5,-134.5 323.5,-115.5 416.5,-115.5 416.5,-134.5"/>
<text text-anchor="middle" x="370" y="-122.5" font-family="Helvetica,sans-Serif" font-size="10.00">spdlog/spdlog.h</text>
</a>
</g>
</g>
<!-- Node1&#45;&gt;Node8 -->
<g id="edge8_Node000001_Node000008" class="edge">
<title>Node1&#45;&gt;Node8</title>
<g id="a_edge8_Node000001_Node000008"><a xlink:title=" ">
<path fill="none" stroke="#63b8ff" d="M266.19,-175.95C289.1,-164.93 320.75,-149.7 343.07,-138.96"/>
<polygon fill="#63b8ff" stroke="#63b8ff" points="344.81,-142.01 352.3,-134.52 341.77,-135.7 344.81,-142.01"/>
</a>
</g>
</g>
<!-- Node3 -->
<g id="Node000003" class="node">
<title>Node3</title>
<g id="a_Node000003"><a xlink:title=" ">
<polygon fill="#e0e0e0" stroke="#999999" points="58,-74 0,-74 0,-55 58,-55 58,-74"/>
<text text-anchor="middle" x="29" y="-62" font-family="Helvetica,sans-Serif" font-size="10.00">asio.hpp</text>
</a>
</g>
</g>
<!-- Node2&#45;&gt;Node3 -->
<g id="edge2_Node000002_Node000003" class="edge">
<title>Node2&#45;&gt;Node3</title>
<g id="a_edge2_Node000002_Node000003"><a xlink:title=" ">
<path fill="none" stroke="#63b8ff" d="M72.2,-109.84C63.93,-101.35 53.38,-90.52 44.77,-81.69"/>
<polygon fill="#63b8ff" stroke="#63b8ff" points="47.03,-78.99 37.54,-74.27 42.01,-83.87 47.03,-78.99"/>
</a>
</g>
</g>
<!-- Node4 -->
<g id="Node000004" class="node">
<title>Node4</title>
<g id="a_Node000004"><a xlink:title=" ">
<polygon fill="#e0e0e0" stroke="#999999" points="163,-19 119,-19 119,0 163,0 163,-19"/>
<text text-anchor="middle" x="141" y="-7" font-family="Helvetica,sans-Serif" font-size="10.00">string</text>
</a>
</g>
</g>
<!-- Node2&#45;&gt;Node4 -->
<g id="edge3_Node000002_Node000004" class="edge">
<title>Node2&#45;&gt;Node4</title>
<g id="a_edge3_Node000002_Node000004"><a xlink:title=" ">
<path fill="none" stroke="#63b8ff" d="M88.13,-109.9C90.7,-95.5 95.86,-72.79 105,-55 110.26,-44.77 118.12,-34.69 125.16,-26.71"/>
<polygon fill="#63b8ff" stroke="#63b8ff" points="127.84,-28.97 132.05,-19.25 122.7,-24.22 127.84,-28.97"/>
</a>
</g>
</g>
<!-- Node5 -->
<g id="Node000005" class="node">
<title>Node5</title>
<g id="a_Node000005"><a xlink:href="transport_8hpp.html" target="_top" xlink:title=" ">
<polygon fill="white" stroke="#666666" points="280.5,-74 113.5,-74 113.5,-55 280.5,-55 280.5,-74"/>
<text text-anchor="middle" x="197" y="-62" font-family="Helvetica,sans-Serif" font-size="10.00">jsonrpc/transport/transport.hpp</text>
</a>
</g>
</g>
<!-- Node2&#45;&gt;Node5 -->
<g id="edge4_Node000002_Node000005" class="edge">
<title>Node2&#45;&gt;Node5</title>
<g id="a_edge4_Node000002_Node000005"><a xlink:title=" ">
<path fill="none" stroke="#63b8ff" d="M112.59,-109.99C130.45,-100.58 153.84,-88.24 171.48,-78.95"/>
<polygon fill="#63b8ff" stroke="#63b8ff" points="173.39,-81.9 180.61,-74.14 170.13,-75.71 173.39,-81.9"/>
</a>
</g>
</g>
<!-- Node5&#45;&gt;Node4 -->
<g id="edge5_Node000005_Node000004" class="edge">
<title>Node5&#45;&gt;Node4</title>
<g id="a_edge5_Node000005_Node000004"><a xlink:title=" ">
<path fill="none" stroke="#63b8ff" d="M188,-54.98C179.81,-47.23 167.49,-35.58 157.53,-26.14"/>
<polygon fill="#63b8ff" stroke="#63b8ff" points="159.83,-23.5 150.16,-19.17 155.02,-28.59 159.83,-23.5"/>
</a>
</g>
</g>
</g>
</svg>
