<?xml version="1.0" encoding="UTF-8" standalone="no"?>
<!DOCTYPE svg PUBLIC "-//W3C//DTD SVG 1.1//EN"
 "http://www.w3.org/Graphics/SVG/1.1/DTD/svg11.dtd">
<!-- Generated by graphviz version 2.43.0 (0)
 -->
<!-- Title: include/jsonrpc/transport/pipe_transport.hpp Pages: 1 -->
<svg width="289pt" height="148pt"
 viewBox="0.00 0.00 288.50 148.00" xmlns="http://www.w3.org/2000/svg" xmlns:xlink="http://www.w3.org/1999/xlink">
<g id="graph0" class="graph" transform="scale(1 1) rotate(0) translate(4 144)">
<title>include/jsonrpc/transport/pipe_transport.hpp</title>
<!-- Node1 -->
<g id="Node000001" class="node">
<title>Node1</title>
<g id="a_Node000001"><a xlink:title=" ">
<polygon fill="#999999" stroke="#666666" points="154.5,-140 17.5,-140 17.5,-110 154.5,-110 154.5,-140"/>
<text text-anchor="start" x="25.5" y="-128" font-family="Helvetica,sans-Serif" font-size="10.00">include/jsonrpc/transport</text>
<text text-anchor="middle" x="86" y="-117" font-family="Helvetica,sans-Serif" font-size="10.00">/pipe_transport.hpp</text>
</a>
</g>
</g>
<!-- Node2 -->
<g id="Node000002" class="node">
<title>Node2</title>
<g id="a_Node000002"><a xlink:title=" ">
<polygon fill="#e0e0e0" stroke="#999999" points="58,-74 0,-74 0,-55 58,-55 58,-74"/>
<text text-anchor="middle" x="29" y="-62" font-family="Helvetica,sans-Serif" font-size="10.00">asio.hpp</text>
</a>
</g>
</g>
<!-- Node1&#45;&gt;Node2 -->
<g id="edge1_Node000001_Node000002" class="edge">
<title>Node1&#45;&gt;Node2</title>
<g id="a_edge1_Node000001_Node000002"><a xlink:title=" ">
<path fill="none" stroke="#63b8ff" d="M72.2,-109.84C63.93,-101.35 53.38,-90.52 44.77,-81.69"/>
<polygon fill="#63b8ff" stroke="#63b8ff" points="47.03,-78.99 37.54,-74.27 42.01,-83.87 47.03,-78.99"/>
</a>
</g>
</g>
<!-- Node3 -->
<g id="Node000003" class="node">
<title>Node3</title>
<g id="a_Node000003"><a xlink:title=" ">
<polygon fill="#e0e0e0" stroke="#999999" points="163,-19 119,-19 119,0 163,0 163,-19"/>
<text text-anchor="middle" x="141" y="-7" font-family="Helvetica,sans-Serif" font-size="10.00">string</text>
</a>
</g>
</g>
<!-- Node1&#45;&gt;Node3 -->
<g id="edge2_Node000001_Node000003" class="edge">
<title>Node1&#45;&gt;Node3</title>
<g id="a_edge2_Node000001_Node000003"><a xlink:title=" ">
<path fill="none" stroke="#63b8ff" d="M88.13,-109.9C90.7,-95.5 95.86,-72.79 105,-55 110.26,-44.77 118.12,-34.69 125.16,-26.71"/>
<polygon fill="#63b8ff" stroke="#63b8ff" points="127.84,-28.97 132.05,-19.25 122.7,-24.22 127.84,-28.97"/>
</a>
</g>
</g>
<!-- Node4 -->
<g id="Node000004" class="node">
<title>Node4</title>
<g id="a_Node000004"><a xlink:href="transport_8hpp.html" target="_top" xlink:title=" ">
<polygon fill="white" stroke="#666666" points="280.5,-74 113.5,-74 113.5,-55 280.5,-55 280.5,-74"/>
<text text-anchor="middle" x="197" y="-62" font-family="Helvetica,sans-Serif" font-size="10.00">jsonrpc/transport/transport.hpp</text>
</a>
</g>
</g>
<!-- Node1&#45;&gt;Node4 -->
<g id="edge3_Node000001_Node000004" class="edge">
<title>Node1&#45;&gt;Node4</title>
<g id="a_edge3_Node000001_Node000004"><a xlink:title=" ">
<path fill="none" stroke="#63b8ff" d="M112.59,-109.99C130.45,-100.58 153.84,-88.24 171.48,-78.95"/>
<polygon fill="#63b8ff" stroke="#63b8ff" points="173.39,-81.9 180.61,-74.14 170.13,-75.71 173.39,-81.9"/>
</a>
</g>
</g>
<!-- Node4&#45;&gt;Node3 -->
<g id="edge4_Node000004_Node000003" class="edge">
<title>Node4&#45;&gt;Node3</title>
<g id="a_edge4_Node000004_Node000003"><a xlink:title=" ">
<path fill="none" stroke="#63b8ff" d="M188,-54.98C179.81,-47.23 167.49,-35.58 157.53,-26.14"/>
<polygon fill="#63b8ff" stroke="#63b8ff" points="159.83,-23.5 150.16,-19.17 155.02,-28.59 159.83,-23.5"/>
</a>
</g>
</g>
</g>
</svg>
