<?xml version="1.0" encoding="UTF-8" standalone="no"?>
<!DOCTYPE svg PUBLIC "-//W3C//DTD SVG 1.1//EN"
 "http://www.w3.org/Graphics/SVG/1.1/DTD/svg11.dtd">
<!-- Generated by graphviz version 2.43.0 (0)
 -->
<!-- Title: include/jsonrpc/core/request.hpp Pages: 1 -->
<svg width="1236pt" height="302pt"
 viewBox="0.00 0.00 1235.50 302.00" xmlns="http://www.w3.org/2000/svg" xmlns:xlink="http://www.w3.org/1999/xlink">
<g id="graph0" class="graph" transform="scale(1 1) rotate(0) translate(4 298)">
<title>include/jsonrpc/core/request.hpp</title>
<!-- Node1 -->
<g id="Node000001" class="node">
<title>Node1</title>
<g id="a_Node000001"><a xlink:title=" ">
<polygon fill="#999999" stroke="#666666" points="1047,-294 933,-294 933,-264 1047,-264 1047,-294"/>
<text text-anchor="start" x="941" y="-282" font-family="Helvetica,sans-Serif" font-size="10.00">include/jsonrpc/core</text>
<text text-anchor="middle" x="990" y="-271" font-family="Helvetica,sans-Serif" font-size="10.00">/request.hpp</text>
</a>
</g>
</g>
<!-- Node2 -->
<g id="Node000002" class="node">
<title>Node2</title>
<g id="a_Node000002"><a xlink:href="client_8hpp.html" target="_top" xlink:title=" ">
<polygon fill="white" stroke="#666666" points="1094,-228 974,-228 974,-198 1094,-198 1094,-228"/>
<text text-anchor="start" x="982" y="-216" font-family="Helvetica,sans-Serif" font-size="10.00">include/jsonrpc/client</text>
<text text-anchor="middle" x="1034" y="-205" font-family="Helvetica,sans-Serif" font-size="10.00">/client.hpp</text>
</a>
</g>
</g>
<!-- Node1&#45;&gt;Node2 -->
<g id="edge1_Node000001_Node000002" class="edge">
<title>Node1&#45;&gt;Node2</title>
<g id="a_edge1_Node000001_Node000002"><a xlink:title=" ">
<path fill="none" stroke="#63b8ff" d="M1005.45,-255.53C1011.71,-246.43 1018.74,-236.19 1024.26,-228.16"/>
<polygon fill="#63b8ff" stroke="#63b8ff" points="1002.55,-253.57 999.77,-263.8 1008.31,-257.54 1002.55,-253.57"/>
</a>
</g>
</g>
<!-- Node3 -->
<g id="Node000003" class="node">
<title>Node3</title>
<g id="a_Node000003"><a xlink:href="jsonrpc_8hpp.html" target="_top" xlink:title=" ">
<polygon fill="white" stroke="#666666" points="772.5,-24.5 623.5,-24.5 623.5,-5.5 772.5,-5.5 772.5,-24.5"/>
<text text-anchor="middle" x="698" y="-12.5" font-family="Helvetica,sans-Serif" font-size="10.00">include/jsonrpc/jsonrpc.hpp</text>
</a>
</g>
</g>
<!-- Node1&#45;&gt;Node3 -->
<g id="edge27_Node000001_Node000003" class="edge">
<title>Node1&#45;&gt;Node3</title>
<g id="a_edge27_Node000001_Node000003"><a xlink:title=" ">
<path fill="none" stroke="#63b8ff" d="M977.04,-254.89C972.76,-246.6 968.27,-237.05 965,-228 939.85,-158.45 979.7,-117.89 927,-66 920.41,-59.51 807.75,-37.04 742.96,-24.54"/>
<polygon fill="#63b8ff" stroke="#63b8ff" points="974.07,-256.77 981.87,-263.95 980.25,-253.48 974.07,-256.77"/>
</a>
</g>
</g>
<!-- Node5 -->
<g id="Node000005" class="node">
<title>Node5</title>
<g id="a_Node000005"><a xlink:href="dispatcher_8hpp.html" target="_top" xlink:title=" ">
<polygon fill="white" stroke="#666666" points="632,-228 518,-228 518,-198 632,-198 632,-228"/>
<text text-anchor="start" x="526" y="-216" font-family="Helvetica,sans-Serif" font-size="10.00">include/jsonrpc/core</text>
<text text-anchor="middle" x="575" y="-205" font-family="Helvetica,sans-Serif" font-size="10.00">/dispatcher.hpp</text>
</a>
</g>
</g>
<!-- Node1&#45;&gt;Node5 -->
<g id="edge4_Node000001_Node000005" class="edge">
<title>Node1&#45;&gt;Node5</title>
<g id="a_edge4_Node000001_Node000005"><a xlink:title=" ">
<path fill="none" stroke="#63b8ff" d="M922.67,-267.62C841.89,-255.16 707.9,-234.5 632.01,-222.79"/>
<polygon fill="#63b8ff" stroke="#63b8ff" points="922.32,-271.1 932.73,-269.17 923.38,-264.18 922.32,-271.1"/>
</a>
</g>
</g>
<!-- Node18 -->
<g id="Node000018" class="node">
<title>Node18</title>
<g id="a_Node000018"><a xlink:href="request_8cpp.html" target="_top" xlink:title=" ">
<polygon fill="white" stroke="#666666" points="1227.5,-222.5 1112.5,-222.5 1112.5,-203.5 1227.5,-203.5 1227.5,-222.5"/>
<text text-anchor="middle" x="1170" y="-210.5" font-family="Helvetica,sans-Serif" font-size="10.00">src/core/request.cpp</text>
</a>
</g>
</g>
<!-- Node1&#45;&gt;Node18 -->
<g id="edge28_Node000001_Node000018" class="edge">
<title>Node1&#45;&gt;Node18</title>
<g id="a_edge28_Node000001_Node000018"><a xlink:title=" ">
<path fill="none" stroke="#63b8ff" d="M1039,-260.58C1073.74,-248.23 1118.84,-232.19 1146.05,-222.52"/>
<polygon fill="#63b8ff" stroke="#63b8ff" points="1037.75,-257.31 1029.5,-263.95 1040.1,-263.9 1037.75,-257.31"/>
</a>
</g>
</g>
<!-- Node2&#45;&gt;Node3 -->
<g id="edge2_Node000002_Node000003" class="edge">
<title>Node2&#45;&gt;Node3</title>
<g id="a_edge2_Node000002_Node000003"><a xlink:title=" ">
<path fill="none" stroke="#63b8ff" d="M1019.62,-189.24C1014.48,-180.8 1008.78,-171.08 1004,-162 982.11,-120.48 996.94,-94.95 960,-66 951.72,-59.51 823.14,-37.03 749.25,-24.54"/>
<polygon fill="#63b8ff" stroke="#63b8ff" points="1016.67,-191.13 1024.91,-197.8 1022.63,-187.45 1016.67,-191.13"/>
</a>
</g>
</g>
<!-- Node4 -->
<g id="Node000004" class="node">
<title>Node4</title>
<g id="a_Node000004"><a xlink:href="client_8cpp.html" target="_top" xlink:title=" ">
<polygon fill="white" stroke="#666666" points="1123.5,-156.5 1012.5,-156.5 1012.5,-137.5 1123.5,-137.5 1123.5,-156.5"/>
<text text-anchor="middle" x="1068" y="-144.5" font-family="Helvetica,sans-Serif" font-size="10.00">src/client/client.cpp</text>
</a>
</g>
</g>
<!-- Node2&#45;&gt;Node4 -->
<g id="edge3_Node000002_Node000004" class="edge">
<title>Node2&#45;&gt;Node4</title>
<g id="a_edge3_Node000002_Node000004"><a xlink:title=" ">
<path fill="none" stroke="#63b8ff" d="M1046.25,-188.95C1052.16,-177.81 1058.91,-165.11 1063.3,-156.84"/>
<polygon fill="#63b8ff" stroke="#63b8ff" points="1043.15,-187.32 1041.55,-197.8 1049.33,-190.61 1043.15,-187.32"/>
</a>
</g>
</g>
<!-- Node5&#45;&gt;Node3 -->
<g id="edge19_Node000005_Node000003" class="edge">
<title>Node5&#45;&gt;Node3</title>
<g id="a_edge19_Node000005_Node000003"><a xlink:title=" ">
<path fill="none" stroke="#63b8ff" d="M642.5,-206.94C672.88,-200.89 706.11,-188.21 725,-162 756.5,-118.3 718.57,-48.64 703.58,-24.54"/>
<polygon fill="#63b8ff" stroke="#63b8ff" points="641.56,-203.55 632.32,-208.74 642.78,-210.44 641.56,-203.55"/>
</a>
</g>
</g>
<!-- Node6 -->
<g id="Node000006" class="node">
<title>Node6</title>
<g id="a_Node000006"><a xlink:href="server__transport_8hpp.html" target="_top" xlink:title=" ">
<polygon fill="white" stroke="#666666" points="405.5,-162 284.5,-162 284.5,-132 405.5,-132 405.5,-162"/>
<text text-anchor="start" x="292.5" y="-150" font-family="Helvetica,sans-Serif" font-size="10.00">include/jsonrpc/core</text>
<text text-anchor="middle" x="345" y="-139" font-family="Helvetica,sans-Serif" font-size="10.00">/server_transport.hpp</text>
</a>
</g>
</g>
<!-- Node5&#45;&gt;Node6 -->
<g id="edge5_Node000005_Node000006" class="edge">
<title>Node5&#45;&gt;Node6</title>
<g id="a_edge5_Node000005_Node000006"><a xlink:title=" ">
<path fill="none" stroke="#63b8ff" d="M514.82,-195.25C477.66,-184.91 430.53,-171.8 395.36,-162.01"/>
<polygon fill="#63b8ff" stroke="#63b8ff" points="513.95,-198.65 524.53,-197.95 515.83,-191.9 513.95,-198.65"/>
</a>
</g>
</g>
<!-- Node7 -->
<g id="Node000007" class="node">
<title>Node7</title>
<g id="a_Node000007"><a xlink:href="server_8hpp.html" target="_top" xlink:title=" ">
<polygon fill="white" stroke="#666666" points="292,-96 168,-96 168,-66 292,-66 292,-96"/>
<text text-anchor="start" x="176" y="-84" font-family="Helvetica,sans-Serif" font-size="10.00">include/jsonrpc/server</text>
<text text-anchor="middle" x="230" y="-73" font-family="Helvetica,sans-Serif" font-size="10.00">/server.hpp</text>
</a>
</g>
</g>
<!-- Node5&#45;&gt;Node7 -->
<g id="edge20_Node000005_Node000007" class="edge">
<title>Node5&#45;&gt;Node7</title>
<g id="a_edge20_Node000005_Node000007"><a xlink:title=" ">
<path fill="none" stroke="#63b8ff" d="M507.8,-207.52C431.12,-201.27 311.61,-187.68 275,-162 252.17,-145.98 239.52,-114.48 233.81,-96.15"/>
<polygon fill="#63b8ff" stroke="#63b8ff" points="507.61,-211.02 517.85,-208.32 508.16,-204.04 507.61,-211.02"/>
</a>
</g>
</g>
<!-- Node11 -->
<g id="Node000011" class="node">
<title>Node11</title>
<g id="a_Node000011"><a xlink:href="http__server__transport_8hpp.html" target="_top" xlink:title=" ">
<polygon fill="white" stroke="#666666" points="918,-96 772,-96 772,-66 918,-66 918,-96"/>
<text text-anchor="start" x="780" y="-84" font-family="Helvetica,sans-Serif" font-size="10.00">include/jsonrpc/transports</text>
<text text-anchor="middle" x="845" y="-73" font-family="Helvetica,sans-Serif" font-size="10.00">/http_server_transport.hpp</text>
</a>
</g>
</g>
<!-- Node5&#45;&gt;Node11 -->
<g id="edge21_Node000005_Node000011" class="edge">
<title>Node5&#45;&gt;Node11</title>
<g id="a_edge21_Node000005_Node000011"><a xlink:title=" ">
<path fill="none" stroke="#63b8ff" d="M642.01,-201.65C677.99,-194.17 722.17,-181.81 758,-162 789.24,-144.72 818.21,-113.97 833.56,-96.05"/>
<polygon fill="#63b8ff" stroke="#63b8ff" points="641.21,-198.24 632.09,-203.63 642.59,-205.1 641.21,-198.24"/>
</a>
</g>
</g>
<!-- Node13 -->
<g id="Node000013" class="node">
<title>Node13</title>
<g id="a_Node000013"><a xlink:href="stdio__server__transport_8hpp.html" target="_top" xlink:title=" ">
<polygon fill="white" stroke="#666666" points="150,-96 0,-96 0,-66 150,-66 150,-96"/>
<text text-anchor="start" x="8" y="-84" font-family="Helvetica,sans-Serif" font-size="10.00">include/jsonrpc/transports</text>
<text text-anchor="middle" x="75" y="-73" font-family="Helvetica,sans-Serif" font-size="10.00">/stdio_server_transport.hpp</text>
</a>
</g>
</g>
<!-- Node5&#45;&gt;Node13 -->
<g id="edge25_Node000005_Node000013" class="edge">
<title>Node5&#45;&gt;Node13</title>
<g id="a_edge25_Node000005_Node000013"><a xlink:title=" ">
<path fill="none" stroke="#63b8ff" d="M507.67,-207.44C440.28,-201.56 334.22,-188.73 246,-162 191.26,-145.42 131.7,-114.27 99.32,-96.12"/>
<polygon fill="#63b8ff" stroke="#63b8ff" points="507.47,-210.94 517.73,-208.29 508.06,-203.96 507.47,-210.94"/>
</a>
</g>
</g>
<!-- Node15 -->
<g id="Node000015" class="node">
<title>Node15</title>
<g id="a_Node000015"><a xlink:href="stdio__client__transport_8hpp.html" target="_top" xlink:title=" ">
<polygon fill="white" stroke="#666666" points="570,-162 424,-162 424,-132 570,-132 570,-162"/>
<text text-anchor="start" x="432" y="-150" font-family="Helvetica,sans-Serif" font-size="10.00">include/jsonrpc/transports</text>
<text text-anchor="middle" x="497" y="-139" font-family="Helvetica,sans-Serif" font-size="10.00">/stdio_client_transport.hpp</text>
</a>
</g>
</g>
<!-- Node5&#45;&gt;Node15 -->
<g id="edge22_Node000005_Node000015" class="edge">
<title>Node5&#45;&gt;Node15</title>
<g id="a_edge22_Node000005_Node000015"><a xlink:title=" ">
<path fill="none" stroke="#63b8ff" d="M549.65,-191.2C538.07,-181.7 524.65,-170.69 514.26,-162.16"/>
<polygon fill="#63b8ff" stroke="#63b8ff" points="547.74,-194.16 557.69,-197.8 552.18,-188.75 547.74,-194.16"/>
</a>
</g>
</g>
<!-- Node17 -->
<g id="Node000017" class="node">
<title>Node17</title>
<g id="a_Node000017"><a xlink:href="dispatcher_8cpp.html" target="_top" xlink:title=" ">
<polygon fill="white" stroke="#666666" points="716,-156.5 588,-156.5 588,-137.5 716,-137.5 716,-156.5"/>
<text text-anchor="middle" x="652" y="-144.5" font-family="Helvetica,sans-Serif" font-size="10.00">src/core/dispatcher.cpp</text>
</a>
</g>
</g>
<!-- Node5&#45;&gt;Node17 -->
<g id="edge26_Node000005_Node000017" class="edge">
<title>Node5&#45;&gt;Node17</title>
<g id="a_edge26_Node000005_Node000017"><a xlink:title=" ">
<path fill="none" stroke="#63b8ff" d="M599.95,-191.26C613.96,-179.61 630.72,-165.69 641.36,-156.84"/>
<polygon fill="#63b8ff" stroke="#63b8ff" points="597.54,-188.71 592.09,-197.8 602.02,-194.1 597.54,-188.71"/>
</a>
</g>
</g>
<!-- Node6&#45;&gt;Node3 -->
<g id="edge6_Node000006_Node000003" class="edge">
<title>Node6&#45;&gt;Node3</title>
<g id="a_edge6_Node000006_Node000003"><a xlink:title=" ">
<path fill="none" stroke="#63b8ff" d="M415.71,-130.39C445.71,-122.31 480.49,-110.95 510,-96 529.82,-85.96 530.34,-76.35 550,-66 586.48,-46.79 631.81,-32.77 662.63,-24.54"/>
<polygon fill="#63b8ff" stroke="#63b8ff" points="414.52,-127.08 405.74,-133.01 416.3,-133.86 414.52,-127.08"/>
</a>
</g>
</g>
<!-- Node6&#45;&gt;Node7 -->
<g id="edge7_Node000006_Node000007" class="edge">
<title>Node6&#45;&gt;Node7</title>
<g id="a_edge7_Node000006_Node000007"><a xlink:title=" ">
<path fill="none" stroke="#63b8ff" d="M310.8,-126.97C292.95,-117.03 271.49,-105.09 255.18,-96.01"/>
<polygon fill="#63b8ff" stroke="#63b8ff" points="309.32,-130.15 319.76,-131.95 312.73,-124.03 309.32,-130.15"/>
</a>
</g>
</g>
<!-- Node9 -->
<g id="Node000009" class="node">
<title>Node9</title>
<g id="a_Node000009"><a xlink:href="framed__stdio__server__transport_8hpp.html" target="_top" xlink:title=" ">
<polygon fill="white" stroke="#666666" points="501.5,-96 310.5,-96 310.5,-66 501.5,-66 501.5,-96"/>
<text text-anchor="start" x="318.5" y="-84" font-family="Helvetica,sans-Serif" font-size="10.00">include/jsonrpc/transports</text>
<text text-anchor="middle" x="406" y="-73" font-family="Helvetica,sans-Serif" font-size="10.00">/framed_stdio_server_transport.hpp</text>
</a>
</g>
</g>
<!-- Node6&#45;&gt;Node9 -->
<g id="edge10_Node000006_Node000009" class="edge">
<title>Node6&#45;&gt;Node9</title>
<g id="a_edge10_Node000006_Node000009"><a xlink:title=" ">
<path fill="none" stroke="#63b8ff" d="M365.62,-124.37C374.49,-115.06 384.61,-104.44 392.5,-96.16"/>
<polygon fill="#63b8ff" stroke="#63b8ff" points="362.9,-122.14 358.54,-131.8 367.97,-126.97 362.9,-122.14"/>
</a>
</g>
</g>
<!-- Node6&#45;&gt;Node11 -->
<g id="edge13_Node000006_Node000011" class="edge">
<title>Node6&#45;&gt;Node11</title>
<g id="a_edge13_Node000006_Node000011"><a xlink:title=" ">
<path fill="none" stroke="#63b8ff" d="M415.89,-131.95C547.1,-111.53 688.11,-96.72 771.71,-88.68"/>
<polygon fill="#63b8ff" stroke="#63b8ff" points="414.99,-128.55 405.65,-133.55 416.07,-135.46 414.99,-128.55"/>
</a>
</g>
</g>
<!-- Node6&#45;&gt;Node13 -->
<g id="edge16_Node000006_Node000013" class="edge">
<title>Node6&#45;&gt;Node13</title>
<g id="a_edge16_Node000006_Node000013"><a xlink:title=" ">
<path fill="none" stroke="#63b8ff" d="M276.02,-129.65C232.15,-119.25 175.93,-105.93 134.11,-96.01"/>
<polygon fill="#63b8ff" stroke="#63b8ff" points="275.21,-133.05 285.75,-131.95 276.82,-126.24 275.21,-133.05"/>
</a>
</g>
</g>
<!-- Node7&#45;&gt;Node3 -->
<g id="edge8_Node000007_Node000003" class="edge">
<title>Node7&#45;&gt;Node3</title>
<g id="a_edge8_Node000007_Node000003"><a xlink:title=" ">
<path fill="none" stroke="#63b8ff" d="M302.2,-65.87C419.88,-47.13 545.36,-32.38 623.15,-23.86"/>
<polygon fill="#63b8ff" stroke="#63b8ff" points="301.61,-62.42 292.29,-67.46 302.72,-69.33 301.61,-62.42"/>
</a>
</g>
</g>
<!-- Node8 -->
<g id="Node000008" class="node">
<title>Node8</title>
<g id="a_Node000008"><a xlink:href="server_8cpp.html" target="_top" xlink:title=" ">
<polygon fill="white" stroke="#666666" points="289,-24.5 171,-24.5 171,-5.5 289,-5.5 289,-24.5"/>
<text text-anchor="middle" x="230" y="-12.5" font-family="Helvetica,sans-Serif" font-size="10.00">src/server/server.cpp</text>
</a>
</g>
</g>
<!-- Node7&#45;&gt;Node8 -->
<g id="edge9_Node000007_Node000008" class="edge">
<title>Node7&#45;&gt;Node8</title>
<g id="a_edge9_Node000007_Node000008"><a xlink:title=" ">
<path fill="none" stroke="#63b8ff" d="M230,-55.6C230,-44.8 230,-32.78 230,-24.84"/>
<polygon fill="#63b8ff" stroke="#63b8ff" points="226.5,-55.8 230,-65.8 233.5,-55.8 226.5,-55.8"/>
</a>
</g>
</g>
<!-- Node9&#45;&gt;Node3 -->
<g id="edge11_Node000009_Node000003" class="edge">
<title>Node9&#45;&gt;Node3</title>
<g id="a_edge11_Node000009_Node000003"><a xlink:title=" ">
<path fill="none" stroke="#63b8ff" d="M480.13,-63.75C537.13,-51.26 613.6,-34.5 659.14,-24.52"/>
<polygon fill="#63b8ff" stroke="#63b8ff" points="479.1,-60.4 470.08,-65.95 480.6,-67.23 479.1,-60.4"/>
</a>
</g>
</g>
<!-- Node10 -->
<g id="Node000010" class="node">
<title>Node10</title>
<g id="a_Node000010"><a xlink:href="framed__stdio__server__transport_8cpp.html" target="_top" xlink:title=" ">
<polygon fill="white" stroke="#666666" points="482,-30 330,-30 330,0 482,0 482,-30"/>
<text text-anchor="start" x="338" y="-18" font-family="Helvetica,sans-Serif" font-size="10.00">src/transports/framed</text>
<text text-anchor="middle" x="406" y="-7" font-family="Helvetica,sans-Serif" font-size="10.00">_stdio_server_transport.cpp</text>
</a>
</g>
</g>
<!-- Node9&#45;&gt;Node10 -->
<g id="edge12_Node000009_Node000010" class="edge">
<title>Node9&#45;&gt;Node10</title>
<g id="a_edge12_Node000009_Node000010"><a xlink:title=" ">
<path fill="none" stroke="#63b8ff" d="M406,-55.54C406,-46.96 406,-37.61 406,-30.16"/>
<polygon fill="#63b8ff" stroke="#63b8ff" points="402.5,-55.8 406,-65.8 409.5,-55.8 402.5,-55.8"/>
</a>
</g>
</g>
<!-- Node11&#45;&gt;Node3 -->
<g id="edge14_Node000011_Node000003" class="edge">
<title>Node11&#45;&gt;Node3</title>
<g id="a_edge14_Node000011_Node000003"><a xlink:title=" ">
<path fill="none" stroke="#63b8ff" d="M803.52,-61.94C775.36,-49.68 739.4,-34.02 717.56,-24.52"/>
<polygon fill="#63b8ff" stroke="#63b8ff" points="802.17,-65.17 812.74,-65.95 804.97,-58.75 802.17,-65.17"/>
</a>
</g>
</g>
<!-- Node12 -->
<g id="Node000012" class="node">
<title>Node12</title>
<g id="a_Node000012"><a xlink:href="http__server__transport_8cpp.html" target="_top" xlink:title=" ">
<polygon fill="white" stroke="#666666" points="913,-30 791,-30 791,0 913,0 913,-30"/>
<text text-anchor="start" x="799" y="-18" font-family="Helvetica,sans-Serif" font-size="10.00">src/transports/http</text>
<text text-anchor="middle" x="852" y="-7" font-family="Helvetica,sans-Serif" font-size="10.00">_server_transport.cpp</text>
</a>
</g>
</g>
<!-- Node11&#45;&gt;Node12 -->
<g id="edge15_Node000011_Node000012" class="edge">
<title>Node11&#45;&gt;Node12</title>
<g id="a_edge15_Node000011_Node000012"><a xlink:title=" ">
<path fill="none" stroke="#63b8ff" d="M847.64,-55.83C848.59,-47.17 849.63,-37.7 850.45,-30.16"/>
<polygon fill="#63b8ff" stroke="#63b8ff" points="844.16,-55.48 846.55,-65.8 851.12,-56.24 844.16,-55.48"/>
</a>
</g>
</g>
<!-- Node13&#45;&gt;Node3 -->
<g id="edge17_Node000013_Node000003" class="edge">
<title>Node13&#45;&gt;Node3</title>
<g id="a_edge17_Node000013_Node000003"><a xlink:title=" ">
<path fill="none" stroke="#63b8ff" d="M160.04,-65.93C331.58,-44 521.01,-28.72 623.26,-21.21"/>
<polygon fill="#63b8ff" stroke="#63b8ff" points="159.54,-62.46 150.07,-67.21 160.43,-69.41 159.54,-62.46"/>
</a>
</g>
</g>
<!-- Node14 -->
<g id="Node000014" class="node">
<title>Node14</title>
<g id="a_Node000014"><a xlink:href="stdio__server__transport_8cpp.html" target="_top" xlink:title=" ">
<polygon fill="white" stroke="#666666" points="136,-30 14,-30 14,0 136,0 136,-30"/>
<text text-anchor="start" x="22" y="-18" font-family="Helvetica,sans-Serif" font-size="10.00">src/transports/stdio</text>
<text text-anchor="middle" x="75" y="-7" font-family="Helvetica,sans-Serif" font-size="10.00">_server_transport.cpp</text>
</a>
</g>
</g>
<!-- Node13&#45;&gt;Node14 -->
<g id="edge18_Node000013_Node000014" class="edge">
<title>Node13&#45;&gt;Node14</title>
<g id="a_edge18_Node000013_Node000014"><a xlink:title=" ">
<path fill="none" stroke="#63b8ff" d="M75,-55.54C75,-46.96 75,-37.61 75,-30.16"/>
<polygon fill="#63b8ff" stroke="#63b8ff" points="71.5,-55.8 75,-65.8 78.5,-55.8 71.5,-55.8"/>
</a>
</g>
</g>
<!-- Node15&#45;&gt;Node3 -->
<g id="edge23_Node000015_Node000003" class="edge">
<title>Node15&#45;&gt;Node3</title>
<g id="a_edge23_Node000015_Node000003"><a xlink:title=" ">
<path fill="none" stroke="#63b8ff" d="M574.93,-129.76C623.86,-118.84 679.14,-104.87 687,-96 704.85,-75.85 702.11,-40.93 699.63,-24.72"/>
<polygon fill="#63b8ff" stroke="#63b8ff" points="573.94,-126.39 564.93,-131.97 575.45,-133.23 573.94,-126.39"/>
</a>
</g>
</g>
<!-- Node16 -->
<g id="Node000016" class="node">
<title>Node16</title>
<g id="a_Node000016"><a xlink:href="stdio__client__transport_8cpp.html" target="_top" xlink:title=" ">
<polygon fill="white" stroke="#666666" points="677.5,-96 558.5,-96 558.5,-66 677.5,-66 677.5,-96"/>
<text text-anchor="start" x="566.5" y="-84" font-family="Helvetica,sans-Serif" font-size="10.00">src/transports/stdio</text>
<text text-anchor="middle" x="618" y="-73" font-family="Helvetica,sans-Serif" font-size="10.00">_client_transport.cpp</text>
</a>
</g>
</g>
<!-- Node15&#45;&gt;Node16 -->
<g id="edge24_Node000015_Node000016" class="edge">
<title>Node15&#45;&gt;Node16</title>
<g id="a_edge24_Node000015_Node000016"><a xlink:title=" ">
<path fill="none" stroke="#63b8ff" d="M532.47,-127.24C551.35,-117.25 574.18,-105.18 591.51,-96.01"/>
<polygon fill="#63b8ff" stroke="#63b8ff" points="530.76,-124.19 523.55,-131.95 534.03,-130.37 530.76,-124.19"/>
</a>
</g>
</g>
</g>
</svg>
