<?xml version="1.0" encoding="UTF-8" standalone="no"?>
<!DOCTYPE svg PUBLIC "-//W3C//DTD SVG 1.1//EN"
 "http://www.w3.org/Graphics/SVG/1.1/DTD/svg11.dtd">
<!-- Generated by graphviz version 2.43.0 (0)
 -->
<!-- Title: include/json_rpc/core/request.hpp Pages: 1 -->
<svg width="1248pt" height="302pt"
 viewBox="0.00 0.00 1247.50 302.00" xmlns="http://www.w3.org/2000/svg" xmlns:xlink="http://www.w3.org/1999/xlink">
<g id="graph0" class="graph" transform="scale(1 1) rotate(0) translate(4 298)">
<title>include/json_rpc/core/request.hpp</title>
<!-- Node1 -->
<g id="Node000001" class="node">
<title>Node1</title>
<g id="a_Node000001"><a xlink:title=" ">
<polygon fill="#999999" stroke="#666666" points="1057.5,-294 938.5,-294 938.5,-264 1057.5,-264 1057.5,-294"/>
<text text-anchor="start" x="946.5" y="-282" font-family="Helvetica,sans-Serif" font-size="10.00">include/json_rpc/core</text>
<text text-anchor="middle" x="998" y="-271" font-family="Helvetica,sans-Serif" font-size="10.00">/request.hpp</text>
</a>
</g>
</g>
<!-- Node2 -->
<g id="Node000002" class="node">
<title>Node2</title>
<g id="a_Node000002"><a xlink:href="client_8hpp.html" target="_top" xlink:title=" ">
<polygon fill="white" stroke="#666666" points="1106.5,-228 981.5,-228 981.5,-198 1106.5,-198 1106.5,-228"/>
<text text-anchor="start" x="989.5" y="-216" font-family="Helvetica,sans-Serif" font-size="10.00">include/json_rpc/client</text>
<text text-anchor="middle" x="1044" y="-205" font-family="Helvetica,sans-Serif" font-size="10.00">/client.hpp</text>
</a>
</g>
</g>
<!-- Node1&#45;&gt;Node2 -->
<g id="edge1_Node000001_Node000002" class="edge">
<title>Node1&#45;&gt;Node2</title>
<g id="a_edge1_Node000001_Node000002"><a xlink:title=" ">
<path fill="none" stroke="#63b8ff" d="M1014.15,-255.53C1020.69,-246.43 1028.05,-236.19 1033.82,-228.16"/>
<polygon fill="#63b8ff" stroke="#63b8ff" points="1011.2,-253.63 1008.21,-263.8 1016.89,-257.72 1011.2,-253.63"/>
</a>
</g>
</g>
<!-- Node3 -->
<g id="Node000003" class="node">
<title>Node3</title>
<g id="a_Node000003"><a xlink:href="json__rpc_8hpp.html" target="_top" xlink:title=" ">
<polygon fill="white" stroke="#666666" points="770.5,-30 651.5,-30 651.5,0 770.5,0 770.5,-30"/>
<text text-anchor="start" x="659.5" y="-18" font-family="Helvetica,sans-Serif" font-size="10.00">include/json_rpc/json</text>
<text text-anchor="middle" x="711" y="-7" font-family="Helvetica,sans-Serif" font-size="10.00">_rpc.hpp</text>
</a>
</g>
</g>
<!-- Node1&#45;&gt;Node3 -->
<g id="edge27_Node000001_Node000003" class="edge">
<title>Node1&#45;&gt;Node3</title>
<g id="a_edge27_Node000001_Node000003"><a xlink:title=" ">
<path fill="none" stroke="#63b8ff" d="M985.07,-254.88C980.8,-246.58 976.3,-237.04 973,-228 947.61,-158.43 986.78,-117.95 934,-66 931.03,-63.07 835.64,-42.4 770.59,-28.56"/>
<polygon fill="#63b8ff" stroke="#63b8ff" points="982.1,-256.76 989.89,-263.94 988.28,-253.47 982.1,-256.76"/>
</a>
</g>
</g>
<!-- Node5 -->
<g id="Node000005" class="node">
<title>Node5</title>
<g id="a_Node000005"><a xlink:href="dispatcher_8hpp.html" target="_top" xlink:title=" ">
<polygon fill="white" stroke="#666666" points="638.5,-228 519.5,-228 519.5,-198 638.5,-198 638.5,-228"/>
<text text-anchor="start" x="527.5" y="-216" font-family="Helvetica,sans-Serif" font-size="10.00">include/json_rpc/core</text>
<text text-anchor="middle" x="579" y="-205" font-family="Helvetica,sans-Serif" font-size="10.00">/dispatcher.hpp</text>
</a>
</g>
</g>
<!-- Node1&#45;&gt;Node5 -->
<g id="edge4_Node000001_Node000005" class="edge">
<title>Node1&#45;&gt;Node5</title>
<g id="a_edge4_Node000001_Node000005"><a xlink:title=" ">
<path fill="none" stroke="#63b8ff" d="M928.31,-267.36C847.36,-254.99 715.16,-234.8 638.72,-223.12"/>
<polygon fill="#63b8ff" stroke="#63b8ff" points="928,-270.85 938.41,-268.9 929.06,-263.93 928,-270.85"/>
</a>
</g>
</g>
<!-- Node18 -->
<g id="Node000018" class="node">
<title>Node18</title>
<g id="a_Node000018"><a xlink:href="request_8cpp.html" target="_top" xlink:title=" ">
<polygon fill="white" stroke="#666666" points="1239.5,-222.5 1124.5,-222.5 1124.5,-203.5 1239.5,-203.5 1239.5,-222.5"/>
<text text-anchor="middle" x="1182" y="-210.5" font-family="Helvetica,sans-Serif" font-size="10.00">src/core/request.cpp</text>
</a>
</g>
</g>
<!-- Node1&#45;&gt;Node18 -->
<g id="edge28_Node000001_Node000018" class="edge">
<title>Node1&#45;&gt;Node18</title>
<g id="a_edge28_Node000001_Node000018"><a xlink:title=" ">
<path fill="none" stroke="#63b8ff" d="M1048.09,-260.58C1083.6,-248.23 1129.71,-232.19 1157.51,-222.52"/>
<polygon fill="#63b8ff" stroke="#63b8ff" points="1046.67,-257.36 1038.38,-263.95 1048.97,-263.98 1046.67,-257.36"/>
</a>
</g>
</g>
<!-- Node2&#45;&gt;Node3 -->
<g id="edge2_Node000002_Node000003" class="edge">
<title>Node2&#45;&gt;Node3</title>
<g id="a_edge2_Node000002_Node000003"><a xlink:title=" ">
<path fill="none" stroke="#63b8ff" d="M1028.2,-189.66C1022.48,-181.18 1016.17,-171.31 1011,-162 988.23,-120.96 1003.9,-95 967,-66 900.8,-13.97 863.62,-46.26 781,-30 777.6,-29.33 774.1,-28.64 770.57,-27.94"/>
<polygon fill="#63b8ff" stroke="#63b8ff" points="1025.32,-191.66 1033.87,-197.92 1031.1,-187.7 1025.32,-191.66"/>
</a>
</g>
</g>
<!-- Node4 -->
<g id="Node000004" class="node">
<title>Node4</title>
<g id="a_Node000004"><a xlink:href="client_8cpp.html" target="_top" xlink:title=" ">
<polygon fill="white" stroke="#666666" points="1130.5,-156.5 1019.5,-156.5 1019.5,-137.5 1130.5,-137.5 1130.5,-156.5"/>
<text text-anchor="middle" x="1075" y="-144.5" font-family="Helvetica,sans-Serif" font-size="10.00">src/client/client.cpp</text>
</a>
</g>
</g>
<!-- Node2&#45;&gt;Node4 -->
<g id="edge3_Node000002_Node000004" class="edge">
<title>Node2&#45;&gt;Node4</title>
<g id="a_edge3_Node000002_Node000004"><a xlink:title=" ">
<path fill="none" stroke="#63b8ff" d="M1055.33,-188.61C1060.68,-177.56 1066.75,-165.03 1070.72,-156.84"/>
<polygon fill="#63b8ff" stroke="#63b8ff" points="1052.09,-187.27 1050.88,-197.8 1058.39,-190.32 1052.09,-187.27"/>
</a>
</g>
</g>
<!-- Node5&#45;&gt;Node3 -->
<g id="edge19_Node000005_Node000003" class="edge">
<title>Node5&#45;&gt;Node3</title>
<g id="a_edge19_Node000005_Node000003"><a xlink:title=" ">
<path fill="none" stroke="#63b8ff" d="M648.69,-206.71C678.79,-200.55 711.33,-187.84 730,-162 759.18,-121.59 732.88,-58.03 718.69,-30.04"/>
<polygon fill="#63b8ff" stroke="#63b8ff" points="647.8,-203.31 638.6,-208.55 649.06,-210.2 647.8,-203.31"/>
</a>
</g>
</g>
<!-- Node6 -->
<g id="Node000006" class="node">
<title>Node6</title>
<g id="a_Node000006"><a xlink:href="server__transport_8hpp.html" target="_top" xlink:title=" ">
<polygon fill="white" stroke="#666666" points="408.5,-162 287.5,-162 287.5,-132 408.5,-132 408.5,-162"/>
<text text-anchor="start" x="295.5" y="-150" font-family="Helvetica,sans-Serif" font-size="10.00">include/json_rpc/core</text>
<text text-anchor="middle" x="348" y="-139" font-family="Helvetica,sans-Serif" font-size="10.00">/server_transport.hpp</text>
</a>
</g>
</g>
<!-- Node5&#45;&gt;Node6 -->
<g id="edge5_Node000005_Node000006" class="edge">
<title>Node5&#45;&gt;Node6</title>
<g id="a_edge5_Node000005_Node000006"><a xlink:title=" ">
<path fill="none" stroke="#63b8ff" d="M518.56,-195.25C481.24,-184.91 433.9,-171.8 398.58,-162.01"/>
<polygon fill="#63b8ff" stroke="#63b8ff" points="517.73,-198.66 528.31,-197.95 519.6,-191.91 517.73,-198.66"/>
</a>
</g>
</g>
<!-- Node7 -->
<g id="Node000007" class="node">
<title>Node7</title>
<g id="a_Node000007"><a xlink:href="server_8hpp.html" target="_top" xlink:title=" ">
<polygon fill="white" stroke="#666666" points="297.5,-96 168.5,-96 168.5,-66 297.5,-66 297.5,-96"/>
<text text-anchor="start" x="176.5" y="-84" font-family="Helvetica,sans-Serif" font-size="10.00">include/json_rpc/server</text>
<text text-anchor="middle" x="233" y="-73" font-family="Helvetica,sans-Serif" font-size="10.00">/server.hpp</text>
</a>
</g>
</g>
<!-- Node5&#45;&gt;Node7 -->
<g id="edge20_Node000005_Node000007" class="edge">
<title>Node5&#45;&gt;Node7</title>
<g id="a_edge20_Node000005_Node000007"><a xlink:title=" ">
<path fill="none" stroke="#63b8ff" d="M509.28,-207.36C432.28,-201.05 314.37,-187.5 278,-162 255.17,-145.99 242.52,-114.48 236.81,-96.15"/>
<polygon fill="#63b8ff" stroke="#63b8ff" points="509.15,-210.86 519.39,-208.17 509.7,-203.88 509.15,-210.86"/>
</a>
</g>
</g>
<!-- Node11 -->
<g id="Node000011" class="node">
<title>Node11</title>
<g id="a_Node000011"><a xlink:href="http__server__transport_8hpp.html" target="_top" xlink:title=" ">
<polygon fill="white" stroke="#666666" points="925,-96 777,-96 777,-66 925,-66 925,-96"/>
<text text-anchor="start" x="785" y="-84" font-family="Helvetica,sans-Serif" font-size="10.00">include/json_rpc/transports</text>
<text text-anchor="middle" x="851" y="-73" font-family="Helvetica,sans-Serif" font-size="10.00">/http_server_transport.hpp</text>
</a>
</g>
</g>
<!-- Node5&#45;&gt;Node11 -->
<g id="edge21_Node000005_Node000011" class="edge">
<title>Node5&#45;&gt;Node11</title>
<g id="a_edge21_Node000005_Node000011"><a xlink:title=" ">
<path fill="none" stroke="#63b8ff" d="M648.74,-201.12C684.45,-193.6 727.71,-181.35 763,-162 794.5,-144.73 823.83,-113.98 839.39,-96.05"/>
<polygon fill="#63b8ff" stroke="#63b8ff" points="647.98,-197.71 638.88,-203.12 649.37,-204.57 647.98,-197.71"/>
</a>
</g>
</g>
<!-- Node13 -->
<g id="Node000013" class="node">
<title>Node13</title>
<g id="a_Node000013"><a xlink:href="stdio__server__transport_8hpp.html" target="_top" xlink:title=" ">
<polygon fill="white" stroke="#666666" points="150,-96 0,-96 0,-66 150,-66 150,-96"/>
<text text-anchor="start" x="8" y="-84" font-family="Helvetica,sans-Serif" font-size="10.00">include/json_rpc/transports</text>
<text text-anchor="middle" x="75" y="-73" font-family="Helvetica,sans-Serif" font-size="10.00">/stdio_server_transport.hpp</text>
</a>
</g>
</g>
<!-- Node5&#45;&gt;Node13 -->
<g id="edge25_Node000005_Node000013" class="edge">
<title>Node5&#45;&gt;Node13</title>
<g id="a_edge25_Node000005_Node000013"><a xlink:title=" ">
<path fill="none" stroke="#63b8ff" d="M509.37,-207.15C441.72,-201.12 336.66,-188.22 249,-162 193.42,-145.37 132.76,-114.24 99.78,-96.11"/>
<polygon fill="#63b8ff" stroke="#63b8ff" points="509.22,-210.65 519.49,-208.03 509.83,-203.68 509.22,-210.65"/>
</a>
</g>
</g>
<!-- Node15 -->
<g id="Node000015" class="node">
<title>Node15</title>
<g id="a_Node000015"><a xlink:href="stdio__client__transport_8hpp.html" target="_top" xlink:title=" ">
<polygon fill="white" stroke="#666666" points="575,-162 427,-162 427,-132 575,-132 575,-162"/>
<text text-anchor="start" x="435" y="-150" font-family="Helvetica,sans-Serif" font-size="10.00">include/json_rpc/transports</text>
<text text-anchor="middle" x="501" y="-139" font-family="Helvetica,sans-Serif" font-size="10.00">/stdio_client_transport.hpp</text>
</a>
</g>
</g>
<!-- Node5&#45;&gt;Node15 -->
<g id="edge22_Node000005_Node000015" class="edge">
<title>Node5&#45;&gt;Node15</title>
<g id="a_edge22_Node000005_Node000015"><a xlink:title=" ">
<path fill="none" stroke="#63b8ff" d="M553.65,-191.2C542.07,-181.7 528.65,-170.69 518.26,-162.16"/>
<polygon fill="#63b8ff" stroke="#63b8ff" points="551.74,-194.16 561.69,-197.8 556.18,-188.75 551.74,-194.16"/>
</a>
</g>
</g>
<!-- Node17 -->
<g id="Node000017" class="node">
<title>Node17</title>
<g id="a_Node000017"><a xlink:href="dispatcher_8cpp.html" target="_top" xlink:title=" ">
<polygon fill="white" stroke="#666666" points="721,-156.5 593,-156.5 593,-137.5 721,-137.5 721,-156.5"/>
<text text-anchor="middle" x="657" y="-144.5" font-family="Helvetica,sans-Serif" font-size="10.00">src/core/dispatcher.cpp</text>
</a>
</g>
</g>
<!-- Node5&#45;&gt;Node17 -->
<g id="edge26_Node000005_Node000017" class="edge">
<title>Node5&#45;&gt;Node17</title>
<g id="a_edge26_Node000005_Node000017"><a xlink:title=" ">
<path fill="none" stroke="#63b8ff" d="M604.28,-191.26C618.47,-179.61 635.44,-165.69 646.22,-156.84"/>
<polygon fill="#63b8ff" stroke="#63b8ff" points="601.82,-188.75 596.31,-197.8 606.26,-194.16 601.82,-188.75"/>
</a>
</g>
</g>
<!-- Node6&#45;&gt;Node3 -->
<g id="edge6_Node000006_Node000003" class="edge">
<title>Node6&#45;&gt;Node3</title>
<g id="a_edge6_Node000006_Node000003"><a xlink:title=" ">
<path fill="none" stroke="#63b8ff" d="M418.44,-130.8C449.06,-122.72 484.77,-111.25 515,-96 534.84,-85.99 535.26,-76.2 555,-66 585.32,-50.34 621.49,-38.37 651.37,-30.08"/>
<polygon fill="#63b8ff" stroke="#63b8ff" points="417.5,-127.43 408.69,-133.31 419.24,-134.21 417.5,-127.43"/>
</a>
</g>
</g>
<!-- Node6&#45;&gt;Node7 -->
<g id="edge7_Node000006_Node000007" class="edge">
<title>Node6&#45;&gt;Node7</title>
<g id="a_edge7_Node000006_Node000007"><a xlink:title=" ">
<path fill="none" stroke="#63b8ff" d="M313.8,-126.97C295.95,-117.03 274.49,-105.09 258.18,-96.01"/>
<polygon fill="#63b8ff" stroke="#63b8ff" points="312.32,-130.15 322.76,-131.95 315.73,-124.03 312.32,-130.15"/>
</a>
</g>
</g>
<!-- Node9 -->
<g id="Node000009" class="node">
<title>Node9</title>
<g id="a_Node000009"><a xlink:href="framed__stdio__server__transport_8hpp.html" target="_top" xlink:title=" ">
<polygon fill="white" stroke="#666666" points="506.5,-96 315.5,-96 315.5,-66 506.5,-66 506.5,-96"/>
<text text-anchor="start" x="323.5" y="-84" font-family="Helvetica,sans-Serif" font-size="10.00">include/json_rpc/transports</text>
<text text-anchor="middle" x="411" y="-73" font-family="Helvetica,sans-Serif" font-size="10.00">/framed_stdio_server_transport.hpp</text>
</a>
</g>
</g>
<!-- Node6&#45;&gt;Node9 -->
<g id="edge10_Node000006_Node000009" class="edge">
<title>Node6&#45;&gt;Node9</title>
<g id="a_edge10_Node000006_Node000009"><a xlink:title=" ">
<path fill="none" stroke="#63b8ff" d="M369.02,-124.65C378.25,-115.27 388.83,-104.53 397.06,-96.16"/>
<polygon fill="#63b8ff" stroke="#63b8ff" points="366.5,-122.21 361.98,-131.8 371.49,-127.13 366.5,-122.21"/>
</a>
</g>
</g>
<!-- Node6&#45;&gt;Node11 -->
<g id="edge13_Node000006_Node000011" class="edge">
<title>Node6&#45;&gt;Node11</title>
<g id="a_edge13_Node000006_Node000011"><a xlink:title=" ">
<path fill="none" stroke="#63b8ff" d="M418.54,-132C550.54,-111.51 692.49,-96.72 776.81,-88.69"/>
<polygon fill="#63b8ff" stroke="#63b8ff" points="417.99,-128.55 408.65,-133.55 419.07,-135.46 417.99,-128.55"/>
</a>
</g>
</g>
<!-- Node6&#45;&gt;Node13 -->
<g id="edge16_Node000006_Node000013" class="edge">
<title>Node6&#45;&gt;Node13</title>
<g id="a_edge16_Node000006_Node000013"><a xlink:title=" ">
<path fill="none" stroke="#63b8ff" d="M278.25,-129.65C233.89,-119.25 177.06,-105.93 134.77,-96.01"/>
<polygon fill="#63b8ff" stroke="#63b8ff" points="277.55,-133.08 288.09,-131.95 279.15,-126.26 277.55,-133.08"/>
</a>
</g>
</g>
<!-- Node7&#45;&gt;Node3 -->
<g id="edge8_Node000007_Node000003" class="edge">
<title>Node7&#45;&gt;Node3</title>
<g id="a_edge8_Node000007_Node000003"><a xlink:title=" ">
<path fill="none" stroke="#63b8ff" d="M307.8,-65.77C435.57,-45.92 574.36,-30.27 651.46,-22.09"/>
<polygon fill="#63b8ff" stroke="#63b8ff" points="307.18,-62.33 297.84,-67.33 308.26,-69.24 307.18,-62.33"/>
</a>
</g>
</g>
<!-- Node8 -->
<g id="Node000008" class="node">
<title>Node8</title>
<g id="a_Node000008"><a xlink:href="server_8cpp.html" target="_top" xlink:title=" ">
<polygon fill="white" stroke="#666666" points="292,-24.5 174,-24.5 174,-5.5 292,-5.5 292,-24.5"/>
<text text-anchor="middle" x="233" y="-12.5" font-family="Helvetica,sans-Serif" font-size="10.00">src/server/server.cpp</text>
</a>
</g>
</g>
<!-- Node7&#45;&gt;Node8 -->
<g id="edge9_Node000007_Node000008" class="edge">
<title>Node7&#45;&gt;Node8</title>
<g id="a_edge9_Node000007_Node000008"><a xlink:title=" ">
<path fill="none" stroke="#63b8ff" d="M233,-55.6C233,-44.8 233,-32.78 233,-24.84"/>
<polygon fill="#63b8ff" stroke="#63b8ff" points="229.5,-55.8 233,-65.8 236.5,-55.8 229.5,-55.8"/>
</a>
</g>
</g>
<!-- Node9&#45;&gt;Node3 -->
<g id="edge11_Node000009_Node000003" class="edge">
<title>Node9&#45;&gt;Node3</title>
<g id="a_edge11_Node000009_Node000003"><a xlink:title=" ">
<path fill="none" stroke="#63b8ff" d="M486.83,-63.82C537.85,-52.94 604.18,-38.79 651.42,-28.71"/>
<polygon fill="#63b8ff" stroke="#63b8ff" points="485.89,-60.45 476.84,-65.95 487.35,-67.29 485.89,-60.45"/>
</a>
</g>
</g>
<!-- Node10 -->
<g id="Node000010" class="node">
<title>Node10</title>
<g id="a_Node000010"><a xlink:href="framed__stdio__server__transport_8cpp.html" target="_top" xlink:title=" ">
<polygon fill="white" stroke="#666666" points="487,-30 335,-30 335,0 487,0 487,-30"/>
<text text-anchor="start" x="343" y="-18" font-family="Helvetica,sans-Serif" font-size="10.00">src/transports/framed</text>
<text text-anchor="middle" x="411" y="-7" font-family="Helvetica,sans-Serif" font-size="10.00">_stdio_server_transport.cpp</text>
</a>
</g>
</g>
<!-- Node9&#45;&gt;Node10 -->
<g id="edge12_Node000009_Node000010" class="edge">
<title>Node9&#45;&gt;Node10</title>
<g id="a_edge12_Node000009_Node000010"><a xlink:title=" ">
<path fill="none" stroke="#63b8ff" d="M411,-55.54C411,-46.96 411,-37.61 411,-30.16"/>
<polygon fill="#63b8ff" stroke="#63b8ff" points="407.5,-55.8 411,-65.8 414.5,-55.8 407.5,-55.8"/>
</a>
</g>
</g>
<!-- Node11&#45;&gt;Node3 -->
<g id="edge14_Node000011_Node000003" class="edge">
<title>Node11&#45;&gt;Node3</title>
<g id="a_edge14_Node000011_Node000003"><a xlink:title=" ">
<path fill="none" stroke="#63b8ff" d="M811.15,-61.78C789.08,-51.69 762.06,-39.34 741.65,-30.01"/>
<polygon fill="#63b8ff" stroke="#63b8ff" points="809.73,-64.98 820.28,-65.95 812.64,-58.61 809.73,-64.98"/>
</a>
</g>
</g>
<!-- Node12 -->
<g id="Node000012" class="node">
<title>Node12</title>
<g id="a_Node000012"><a xlink:href="http__server__transport_8cpp.html" target="_top" xlink:title=" ">
<polygon fill="white" stroke="#666666" points="912,-30 790,-30 790,0 912,0 912,-30"/>
<text text-anchor="start" x="798" y="-18" font-family="Helvetica,sans-Serif" font-size="10.00">src/transports/http</text>
<text text-anchor="middle" x="851" y="-7" font-family="Helvetica,sans-Serif" font-size="10.00">_server_transport.cpp</text>
</a>
</g>
</g>
<!-- Node11&#45;&gt;Node12 -->
<g id="edge15_Node000011_Node000012" class="edge">
<title>Node11&#45;&gt;Node12</title>
<g id="a_edge15_Node000011_Node000012"><a xlink:title=" ">
<path fill="none" stroke="#63b8ff" d="M851,-55.54C851,-46.96 851,-37.61 851,-30.16"/>
<polygon fill="#63b8ff" stroke="#63b8ff" points="847.5,-55.8 851,-65.8 854.5,-55.8 847.5,-55.8"/>
</a>
</g>
</g>
<!-- Node13&#45;&gt;Node3 -->
<g id="edge17_Node000013_Node000003" class="edge">
<title>Node13&#45;&gt;Node3</title>
<g id="a_edge17_Node000013_Node000003"><a xlink:title=" ">
<path fill="none" stroke="#63b8ff" d="M160.25,-65.9C345.11,-42.5 551.58,-26.84 651.21,-19.94"/>
<polygon fill="#63b8ff" stroke="#63b8ff" points="159.54,-62.47 150.06,-67.2 160.43,-69.41 159.54,-62.47"/>
</a>
</g>
</g>
<!-- Node14 -->
<g id="Node000014" class="node">
<title>Node14</title>
<g id="a_Node000014"><a xlink:href="stdio__server__transport_8cpp.html" target="_top" xlink:title=" ">
<polygon fill="white" stroke="#666666" points="136,-30 14,-30 14,0 136,0 136,-30"/>
<text text-anchor="start" x="22" y="-18" font-family="Helvetica,sans-Serif" font-size="10.00">src/transports/stdio</text>
<text text-anchor="middle" x="75" y="-7" font-family="Helvetica,sans-Serif" font-size="10.00">_server_transport.cpp</text>
</a>
</g>
</g>
<!-- Node13&#45;&gt;Node14 -->
<g id="edge18_Node000013_Node000014" class="edge">
<title>Node13&#45;&gt;Node14</title>
<g id="a_edge18_Node000013_Node000014"><a xlink:title=" ">
<path fill="none" stroke="#63b8ff" d="M75,-55.54C75,-46.96 75,-37.61 75,-30.16"/>
<polygon fill="#63b8ff" stroke="#63b8ff" points="71.5,-55.8 75,-65.8 78.5,-55.8 71.5,-55.8"/>
</a>
</g>
</g>
<!-- Node15&#45;&gt;Node3 -->
<g id="edge23_Node000015_Node000003" class="edge">
<title>Node15&#45;&gt;Node3</title>
<g id="a_edge23_Node000015_Node000003"><a xlink:title=" ">
<path fill="none" stroke="#63b8ff" d="M577.78,-129.83C627.15,-118.76 683.6,-104.59 692,-96 709.26,-78.34 711.87,-48.01 711.75,-30.21"/>
<polygon fill="#63b8ff" stroke="#63b8ff" points="577.02,-126.41 568.02,-132 578.54,-133.24 577.02,-126.41"/>
</a>
</g>
</g>
<!-- Node16 -->
<g id="Node000016" class="node">
<title>Node16</title>
<g id="a_Node000016"><a xlink:href="stdio__client__transport_8cpp.html" target="_top" xlink:title=" ">
<polygon fill="white" stroke="#666666" points="682.5,-96 563.5,-96 563.5,-66 682.5,-66 682.5,-96"/>
<text text-anchor="start" x="571.5" y="-84" font-family="Helvetica,sans-Serif" font-size="10.00">src/transports/stdio</text>
<text text-anchor="middle" x="623" y="-73" font-family="Helvetica,sans-Serif" font-size="10.00">_client_transport.cpp</text>
</a>
</g>
</g>
<!-- Node15&#45;&gt;Node16 -->
<g id="edge24_Node000015_Node000016" class="edge">
<title>Node15&#45;&gt;Node16</title>
<g id="a_edge24_Node000015_Node000016"><a xlink:title=" ">
<path fill="none" stroke="#63b8ff" d="M536.76,-127.24C555.8,-117.25 578.82,-105.18 596.29,-96.01"/>
<polygon fill="#63b8ff" stroke="#63b8ff" points="535,-124.21 527.77,-131.95 538.25,-130.41 535,-124.21"/>
</a>
</g>
</g>
</g>
</svg>
