<?xml version="1.0" encoding="UTF-8" standalone="no"?>
<!DOCTYPE svg PUBLIC "-//W3C//DTD SVG 1.1//EN"
 "http://www.w3.org/Graphics/SVG/1.1/DTD/svg11.dtd">
<!-- Generated by graphviz version 2.43.0 (0)
 -->
<!-- Title: include/jsonrpc/core/response.hpp Pages: 1 -->
<svg width="411pt" height="148pt"
 viewBox="0.00 0.00 411.02 148.00" xmlns="http://www.w3.org/2000/svg" xmlns:xlink="http://www.w3.org/1999/xlink">
<g id="graph0" class="graph" transform="scale(1 1) rotate(0) translate(4 144)">
<title>include/jsonrpc/core/response.hpp</title>
<!-- Node1 -->
<g id="Node000001" class="node">
<title>Node1</title>
<g id="a_Node000001"><a xlink:title=" ">
<polygon fill="#999999" stroke="#666666" points="134.02,-140 20.02,-140 20.02,-110 134.02,-110 134.02,-140"/>
<text text-anchor="start" x="28.02" y="-128" font-family="Helvetica,sans-Serif" font-size="10.00">include/jsonrpc/core</text>
<text text-anchor="middle" x="77.02" y="-117" font-family="Helvetica,sans-Serif" font-size="10.00">/response.hpp</text>
</a>
</g>
</g>
<!-- Node2 -->
<g id="Node000002" class="node">
<title>Node2</title>
<g id="a_Node000002"><a xlink:title=" ">
<polygon fill="#e0e0e0" stroke="#999999" points="67.02,-19 11.02,-19 11.02,0 67.02,0 67.02,-19"/>
<text text-anchor="middle" x="39.02" y="-7" font-family="Helvetica,sans-Serif" font-size="10.00">optional</text>
</a>
</g>
</g>
<!-- Node1&#45;&gt;Node2 -->
<g id="edge1_Node000001_Node000002" class="edge">
<title>Node1&#45;&gt;Node2</title>
<g id="a_edge1_Node000001_Node000002"><a xlink:title=" ">
<path fill="none" stroke="#63b8ff" d="M42.79,-109.95C27.72,-101.84 11.53,-90.02 3.02,-74 -5.83,-57.35 7.77,-38.6 20.71,-25.82"/>
<polygon fill="#63b8ff" stroke="#63b8ff" points="23.09,-28.39 28.08,-19.04 18.35,-23.24 23.09,-28.39"/>
</a>
</g>
</g>
<!-- Node3 -->
<g id="Node000003" class="node">
<title>Node3</title>
<g id="a_Node000003"><a xlink:title=" ">
<polygon fill="#e0e0e0" stroke="#999999" points="56.02,-74 12.02,-74 12.02,-55 56.02,-55 56.02,-74"/>
<text text-anchor="middle" x="34.02" y="-62" font-family="Helvetica,sans-Serif" font-size="10.00">string</text>
</a>
</g>
</g>
<!-- Node1&#45;&gt;Node3 -->
<g id="edge2_Node000001_Node000003" class="edge">
<title>Node1&#45;&gt;Node3</title>
<g id="a_edge2_Node000001_Node000003"><a xlink:title=" ">
<path fill="none" stroke="#63b8ff" d="M66.61,-109.84C60.56,-101.61 52.9,-91.18 46.52,-82.51"/>
<polygon fill="#63b8ff" stroke="#63b8ff" points="49.21,-80.25 40.46,-74.27 43.57,-84.4 49.21,-80.25"/>
</a>
</g>
</g>
<!-- Node4 -->
<g id="Node000004" class="node">
<title>Node4</title>
<g id="a_Node000004"><a xlink:title=" ">
<polygon fill="#e0e0e0" stroke="#999999" points="167.52,-74 74.52,-74 74.52,-55 167.52,-55 167.52,-74"/>
<text text-anchor="middle" x="121.02" y="-62" font-family="Helvetica,sans-Serif" font-size="10.00">unordered_map</text>
</a>
</g>
</g>
<!-- Node1&#45;&gt;Node4 -->
<g id="edge3_Node000001_Node000004" class="edge">
<title>Node1&#45;&gt;Node4</title>
<g id="a_edge3_Node000001_Node000004"><a xlink:title=" ">
<path fill="none" stroke="#63b8ff" d="M87.67,-109.84C93.86,-101.61 101.71,-91.18 108.23,-82.51"/>
<polygon fill="#63b8ff" stroke="#63b8ff" points="111.21,-84.36 114.43,-74.27 105.62,-80.15 111.21,-84.36"/>
</a>
</g>
</g>
<!-- Node5 -->
<g id="Node000005" class="node">
<title>Node5</title>
<g id="a_Node000005"><a xlink:href="types_8hpp.html" target="_top" xlink:title=" ">
<polygon fill="white" stroke="#666666" points="312.52,-74 185.52,-74 185.52,-55 312.52,-55 312.52,-74"/>
<text text-anchor="middle" x="249.02" y="-62" font-family="Helvetica,sans-Serif" font-size="10.00">jsonrpc/core/types.hpp</text>
</a>
</g>
</g>
<!-- Node1&#45;&gt;Node5 -->
<g id="edge4_Node000001_Node000005" class="edge">
<title>Node1&#45;&gt;Node5</title>
<g id="a_edge4_Node000001_Node000005"><a xlink:title=" ">
<path fill="none" stroke="#63b8ff" d="M118.22,-109.99C147.52,-100.02 186.44,-86.78 214.19,-77.35"/>
<polygon fill="#63b8ff" stroke="#63b8ff" points="215.53,-80.59 223.87,-74.05 213.28,-73.96 215.53,-80.59"/>
</a>
</g>
</g>
<!-- Node5&#45;&gt;Node2 -->
<g id="edge6_Node000005_Node000002" class="edge">
<title>Node5&#45;&gt;Node2</title>
<g id="a_edge6_Node000005_Node000002"><a xlink:title=" ">
<path fill="none" stroke="#63b8ff" d="M215.28,-54.98C177.52,-45.46 116.49,-30.05 77.07,-20.1"/>
<polygon fill="#63b8ff" stroke="#63b8ff" points="77.84,-16.69 67.29,-17.63 76.13,-23.48 77.84,-16.69"/>
</a>
</g>
</g>
<!-- Node6 -->
<g id="Node000006" class="node">
<title>Node6</title>
<g id="a_Node000006"><a xlink:title=" ">
<polygon fill="#e0e0e0" stroke="#999999" points="205.52,-19 140.52,-19 140.52,0 205.52,0 205.52,-19"/>
<text text-anchor="middle" x="173.02" y="-7" font-family="Helvetica,sans-Serif" font-size="10.00">functional</text>
</a>
</g>
</g>
<!-- Node5&#45;&gt;Node6 -->
<g id="edge5_Node000005_Node000006" class="edge">
<title>Node5&#45;&gt;Node6</title>
<g id="a_edge5_Node000005_Node000006"><a xlink:title=" ">
<path fill="none" stroke="#63b8ff" d="M236.81,-54.98C225.24,-46.92 207.64,-34.65 193.86,-25.03"/>
<polygon fill="#63b8ff" stroke="#63b8ff" points="195.66,-22.02 185.45,-19.17 191.65,-27.76 195.66,-22.02"/>
</a>
</g>
</g>
<!-- Node7 -->
<g id="Node000007" class="node">
<title>Node7</title>
<g id="a_Node000007"><a xlink:title=" ">
<polygon fill="#e0e0e0" stroke="#999999" points="274.52,-19 223.52,-19 223.52,0 274.52,0 274.52,-19"/>
<text text-anchor="middle" x="249.02" y="-7" font-family="Helvetica,sans-Serif" font-size="10.00">variant</text>
</a>
</g>
</g>
<!-- Node5&#45;&gt;Node7 -->
<g id="edge7_Node000005_Node000007" class="edge">
<title>Node5&#45;&gt;Node7</title>
<g id="a_edge7_Node000005_Node000007"><a xlink:title=" ">
<path fill="none" stroke="#63b8ff" d="M249.02,-54.75C249.02,-47.8 249.02,-37.85 249.02,-29.13"/>
<polygon fill="#63b8ff" stroke="#63b8ff" points="252.52,-29.09 249.02,-19.09 245.52,-29.09 252.52,-29.09"/>
</a>
</g>
</g>
<!-- Node8 -->
<g id="Node000008" class="node">
<title>Node8</title>
<g id="a_Node000008"><a xlink:title=" ">
<polygon fill="#e0e0e0" stroke="#999999" points="403.02,-19 293.02,-19 293.02,0 403.02,0 403.02,-19"/>
<text text-anchor="middle" x="348.02" y="-7" font-family="Helvetica,sans-Serif" font-size="10.00">nlohmann/json.hpp</text>
</a>
</g>
</g>
<!-- Node5&#45;&gt;Node8 -->
<g id="edge8_Node000005_Node000008" class="edge">
<title>Node5&#45;&gt;Node8</title>
<g id="a_edge8_Node000005_Node000008"><a xlink:title=" ">
<path fill="none" stroke="#63b8ff" d="M264.93,-54.98C280.57,-46.61 304.68,-33.7 322.9,-23.95"/>
<polygon fill="#63b8ff" stroke="#63b8ff" points="324.66,-26.98 331.82,-19.17 321.36,-20.8 324.66,-26.98"/>
</a>
</g>
</g>
</g>
</svg>
