<?xml version="1.0" encoding="UTF-8" standalone="no"?>
<!DOCTYPE svg PUBLIC "-//W3C//DTD SVG 1.1//EN"
 "http://www.w3.org/Graphics/SVG/1.1/DTD/svg11.dtd">
<!-- Generated by graphviz version 2.43.0 (0)
 -->
<!-- Title: include/json_rpc/core/response.hpp Pages: 1 -->
<svg width="414pt" height="148pt"
 viewBox="0.00 0.00 414.01 148.00" xmlns="http://www.w3.org/2000/svg" xmlns:xlink="http://www.w3.org/1999/xlink">
<g id="graph0" class="graph" transform="scale(1 1) rotate(0) translate(4 144)">
<title>include/json_rpc/core/response.hpp</title>
<!-- Node1 -->
<g id="Node000001" class="node">
<title>Node1</title>
<g id="a_Node000001"><a xlink:title=" ">
<polygon fill="#999999" stroke="#666666" points="136.51,-140 17.51,-140 17.51,-110 136.51,-110 136.51,-140"/>
<text text-anchor="start" x="25.51" y="-128" font-family="Helvetica,sans-Serif" font-size="10.00">include/json_rpc/core</text>
<text text-anchor="middle" x="77.01" y="-117" font-family="Helvetica,sans-Serif" font-size="10.00">/response.hpp</text>
</a>
</g>
</g>
<!-- Node2 -->
<g id="Node000002" class="node">
<title>Node2</title>
<g id="a_Node000002"><a xlink:title=" ">
<polygon fill="#e0e0e0" stroke="#999999" points="69.01,-19 13.01,-19 13.01,0 69.01,0 69.01,-19"/>
<text text-anchor="middle" x="41.01" y="-7" font-family="Helvetica,sans-Serif" font-size="10.00">optional</text>
</a>
</g>
</g>
<!-- Node1&#45;&gt;Node2 -->
<g id="edge1_Node000001_Node000002" class="edge">
<title>Node1&#45;&gt;Node2</title>
<g id="a_edge1_Node000001_Node000002"><a xlink:title=" ">
<path fill="none" stroke="#63b8ff" d="M42.78,-109.95C27.71,-101.84 11.52,-90.02 3.01,-74 -5.86,-57.31 8.02,-38.83 21.43,-26.13"/>
<polygon fill="#63b8ff" stroke="#63b8ff" points="23.9,-28.61 29.09,-19.38 19.27,-23.36 23.9,-28.61"/>
</a>
</g>
</g>
<!-- Node3 -->
<g id="Node000003" class="node">
<title>Node3</title>
<g id="a_Node000003"><a xlink:title=" ">
<polygon fill="#e0e0e0" stroke="#999999" points="56.01,-74 12.01,-74 12.01,-55 56.01,-55 56.01,-74"/>
<text text-anchor="middle" x="34.01" y="-62" font-family="Helvetica,sans-Serif" font-size="10.00">string</text>
</a>
</g>
</g>
<!-- Node1&#45;&gt;Node3 -->
<g id="edge2_Node000001_Node000003" class="edge">
<title>Node1&#45;&gt;Node3</title>
<g id="a_edge2_Node000001_Node000003"><a xlink:title=" ">
<path fill="none" stroke="#63b8ff" d="M66.6,-109.84C60.55,-101.61 52.89,-91.18 46.51,-82.51"/>
<polygon fill="#63b8ff" stroke="#63b8ff" points="49.2,-80.25 40.46,-74.27 43.56,-84.4 49.2,-80.25"/>
</a>
</g>
</g>
<!-- Node4 -->
<g id="Node000004" class="node">
<title>Node4</title>
<g id="a_Node000004"><a xlink:title=" ">
<polygon fill="#e0e0e0" stroke="#999999" points="167.51,-74 74.51,-74 74.51,-55 167.51,-55 167.51,-74"/>
<text text-anchor="middle" x="121.01" y="-62" font-family="Helvetica,sans-Serif" font-size="10.00">unordered_map</text>
</a>
</g>
</g>
<!-- Node1&#45;&gt;Node4 -->
<g id="edge3_Node000001_Node000004" class="edge">
<title>Node1&#45;&gt;Node4</title>
<g id="a_edge3_Node000001_Node000004"><a xlink:title=" ">
<path fill="none" stroke="#63b8ff" d="M87.66,-109.84C93.85,-101.61 101.7,-91.18 108.22,-82.51"/>
<polygon fill="#63b8ff" stroke="#63b8ff" points="111.21,-84.36 114.42,-74.27 105.61,-80.15 111.21,-84.36"/>
</a>
</g>
</g>
<!-- Node5 -->
<g id="Node000005" class="node">
<title>Node5</title>
<g id="a_Node000005"><a xlink:href="types_8hpp.html" target="_top" xlink:title=" ">
<polygon fill="white" stroke="#666666" points="318.01,-74 186.01,-74 186.01,-55 318.01,-55 318.01,-74"/>
<text text-anchor="middle" x="252.01" y="-62" font-family="Helvetica,sans-Serif" font-size="10.00">json_rpc/core/types.hpp</text>
</a>
</g>
</g>
<!-- Node1&#45;&gt;Node5 -->
<g id="edge4_Node000001_Node000005" class="edge">
<title>Node1&#45;&gt;Node5</title>
<g id="a_edge4_Node000001_Node000005"><a xlink:title=" ">
<path fill="none" stroke="#63b8ff" d="M118.93,-109.99C148.74,-100.02 188.34,-86.78 216.58,-77.35"/>
<polygon fill="#63b8ff" stroke="#63b8ff" points="218.05,-80.54 226.42,-74.05 215.83,-73.9 218.05,-80.54"/>
</a>
</g>
</g>
<!-- Node5&#45;&gt;Node2 -->
<g id="edge6_Node000005_Node000002" class="edge">
<title>Node5&#45;&gt;Node2</title>
<g id="a_edge6_Node000005_Node000002"><a xlink:title=" ">
<path fill="none" stroke="#63b8ff" d="M218.11,-54.98C180.07,-45.43 118.51,-29.97 78.9,-20.02"/>
<polygon fill="#63b8ff" stroke="#63b8ff" points="79.64,-16.59 69.09,-17.55 77.94,-23.38 79.64,-16.59"/>
</a>
</g>
</g>
<!-- Node6 -->
<g id="Node000006" class="node">
<title>Node6</title>
<g id="a_Node000006"><a xlink:title=" ">
<polygon fill="#e0e0e0" stroke="#999999" points="208.51,-19 143.51,-19 143.51,0 208.51,0 208.51,-19"/>
<text text-anchor="middle" x="176.01" y="-7" font-family="Helvetica,sans-Serif" font-size="10.00">functional</text>
</a>
</g>
</g>
<!-- Node5&#45;&gt;Node6 -->
<g id="edge5_Node000005_Node000006" class="edge">
<title>Node5&#45;&gt;Node6</title>
<g id="a_edge5_Node000005_Node000006"><a xlink:title=" ">
<path fill="none" stroke="#63b8ff" d="M239.8,-54.98C228.24,-46.92 210.64,-34.65 196.85,-25.03"/>
<polygon fill="#63b8ff" stroke="#63b8ff" points="198.65,-22.02 188.45,-19.17 194.65,-27.76 198.65,-22.02"/>
</a>
</g>
</g>
<!-- Node7 -->
<g id="Node000007" class="node">
<title>Node7</title>
<g id="a_Node000007"><a xlink:title=" ">
<polygon fill="#e0e0e0" stroke="#999999" points="277.51,-19 226.51,-19 226.51,0 277.51,0 277.51,-19"/>
<text text-anchor="middle" x="252.01" y="-7" font-family="Helvetica,sans-Serif" font-size="10.00">variant</text>
</a>
</g>
</g>
<!-- Node5&#45;&gt;Node7 -->
<g id="edge7_Node000005_Node000007" class="edge">
<title>Node5&#45;&gt;Node7</title>
<g id="a_edge7_Node000005_Node000007"><a xlink:title=" ">
<path fill="none" stroke="#63b8ff" d="M252.01,-54.75C252.01,-47.8 252.01,-37.85 252.01,-29.13"/>
<polygon fill="#63b8ff" stroke="#63b8ff" points="255.51,-29.09 252.01,-19.09 248.51,-29.09 255.51,-29.09"/>
</a>
</g>
</g>
<!-- Node8 -->
<g id="Node000008" class="node">
<title>Node8</title>
<g id="a_Node000008"><a xlink:title=" ">
<polygon fill="#e0e0e0" stroke="#999999" points="406.01,-19 296.01,-19 296.01,0 406.01,0 406.01,-19"/>
<text text-anchor="middle" x="351.01" y="-7" font-family="Helvetica,sans-Serif" font-size="10.00">nlohmann/json.hpp</text>
</a>
</g>
</g>
<!-- Node5&#45;&gt;Node8 -->
<g id="edge8_Node000005_Node000008" class="edge">
<title>Node5&#45;&gt;Node8</title>
<g id="a_edge8_Node000005_Node000008"><a xlink:title=" ">
<path fill="none" stroke="#63b8ff" d="M267.92,-54.98C283.56,-46.61 307.67,-33.7 325.9,-23.95"/>
<polygon fill="#63b8ff" stroke="#63b8ff" points="327.65,-26.98 334.82,-19.17 324.35,-20.8 327.65,-26.98"/>
</a>
</g>
</g>
</g>
</svg>
