<?xml version="1.0" encoding="UTF-8" standalone="no"?>
<!DOCTYPE svg PUBLIC "-//W3C//DTD SVG 1.1//EN"
 "http://www.w3.org/Graphics/SVG/1.1/DTD/svg11.dtd">
<!-- Generated by graphviz version 2.43.0 (0)
 -->
<!-- Title: src/core/response.cpp Pages: 1 -->
<svg width="411pt" height="192pt"
 viewBox="0.00 0.00 411.21 192.00" xmlns="http://www.w3.org/2000/svg" xmlns:xlink="http://www.w3.org/1999/xlink">
<g id="graph0" class="graph" transform="scale(1 1) rotate(0) translate(4 188)">
<title>src/core/response.cpp</title>
<!-- Node1 -->
<g id="Node000001" class="node">
<title>Node1</title>
<g id="a_Node000001"><a xlink:title=" ">
<polygon fill="#999999" stroke="#666666" points="206.21,-184 84.21,-184 84.21,-165 206.21,-165 206.21,-184"/>
<text text-anchor="middle" x="145.21" y="-172" font-family="Helvetica,sans-Serif" font-size="10.00">src/core/response.cpp</text>
</a>
</g>
</g>
<!-- Node2 -->
<g id="Node000002" class="node">
<title>Node2</title>
<g id="a_Node000002"><a xlink:href="response_8hpp.html" target="_top" xlink:title=" ">
<polygon fill="white" stroke="#666666" points="149.21,-129 5.21,-129 5.21,-110 149.21,-110 149.21,-129"/>
<text text-anchor="middle" x="77.21" y="-117" font-family="Helvetica,sans-Serif" font-size="10.00">jsonrpc/core/response.hpp</text>
</a>
</g>
</g>
<!-- Node1&#45;&gt;Node2 -->
<g id="edge1_Node000001_Node000002" class="edge">
<title>Node1&#45;&gt;Node2</title>
<g id="a_edge1_Node000001_Node000002"><a xlink:title=" ">
<path fill="none" stroke="#63b8ff" d="M134.28,-164.98C124.13,-157.07 108.78,-145.11 96.56,-135.58"/>
<polygon fill="#63b8ff" stroke="#63b8ff" points="98.37,-132.56 88.33,-129.17 94.07,-138.08 98.37,-132.56"/>
</a>
</g>
</g>
<!-- Node10 -->
<g id="Node000010" class="node">
<title>Node10</title>
<g id="a_Node000010"><a xlink:title=" ">
<polygon fill="#e0e0e0" stroke="#999999" points="260.71,-129 167.71,-129 167.71,-110 260.71,-110 260.71,-129"/>
<text text-anchor="middle" x="214.21" y="-117" font-family="Helvetica,sans-Serif" font-size="10.00">spdlog/spdlog.h</text>
</a>
</g>
</g>
<!-- Node1&#45;&gt;Node10 -->
<g id="edge10_Node000001_Node000010" class="edge">
<title>Node1&#45;&gt;Node10</title>
<g id="a_edge10_Node000001_Node000010"><a xlink:title=" ">
<path fill="none" stroke="#63b8ff" d="M156.29,-164.98C166.69,-157 182.47,-144.88 194.93,-135.31"/>
<polygon fill="#63b8ff" stroke="#63b8ff" points="197.12,-138.04 202.92,-129.17 192.86,-132.49 197.12,-138.04"/>
</a>
</g>
</g>
<!-- Node3 -->
<g id="Node000003" class="node">
<title>Node3</title>
<g id="a_Node000003"><a xlink:title=" ">
<polygon fill="#e0e0e0" stroke="#999999" points="67.21,-19 11.21,-19 11.21,0 67.21,0 67.21,-19"/>
<text text-anchor="middle" x="39.21" y="-7" font-family="Helvetica,sans-Serif" font-size="10.00">optional</text>
</a>
</g>
</g>
<!-- Node2&#45;&gt;Node3 -->
<g id="edge2_Node000002_Node000003" class="edge">
<title>Node2&#45;&gt;Node3</title>
<g id="a_edge2_Node000002_Node000003"><a xlink:title=" ">
<path fill="none" stroke="#63b8ff" d="M49.92,-109.88C33.2,-103.03 13.17,-91.62 3.21,-74 -6.08,-57.59 7.59,-38.8 20.67,-25.95"/>
<polygon fill="#63b8ff" stroke="#63b8ff" points="23.11,-28.46 28.12,-19.12 18.38,-23.29 23.11,-28.46"/>
</a>
</g>
</g>
<!-- Node4 -->
<g id="Node000004" class="node">
<title>Node4</title>
<g id="a_Node000004"><a xlink:title=" ">
<polygon fill="#e0e0e0" stroke="#999999" points="56.21,-74 12.21,-74 12.21,-55 56.21,-55 56.21,-74"/>
<text text-anchor="middle" x="34.21" y="-62" font-family="Helvetica,sans-Serif" font-size="10.00">string</text>
</a>
</g>
</g>
<!-- Node2&#45;&gt;Node4 -->
<g id="edge3_Node000002_Node000004" class="edge">
<title>Node2&#45;&gt;Node4</title>
<g id="a_edge3_Node000002_Node000004"><a xlink:title=" ">
<path fill="none" stroke="#63b8ff" d="M70.11,-109.75C64.03,-102.26 55.12,-91.28 47.7,-82.13"/>
<polygon fill="#63b8ff" stroke="#63b8ff" points="50.19,-79.65 41.18,-74.09 44.76,-84.06 50.19,-79.65"/>
</a>
</g>
</g>
<!-- Node5 -->
<g id="Node000005" class="node">
<title>Node5</title>
<g id="a_Node000005"><a xlink:title=" ">
<polygon fill="#e0e0e0" stroke="#999999" points="167.71,-74 74.71,-74 74.71,-55 167.71,-55 167.71,-74"/>
<text text-anchor="middle" x="121.21" y="-62" font-family="Helvetica,sans-Serif" font-size="10.00">unordered_map</text>
</a>
</g>
</g>
<!-- Node2&#45;&gt;Node5 -->
<g id="edge4_Node000002_Node000005" class="edge">
<title>Node2&#45;&gt;Node5</title>
<g id="a_edge4_Node000002_Node000005"><a xlink:title=" ">
<path fill="none" stroke="#63b8ff" d="M84.47,-109.75C90.75,-102.18 99.99,-91.05 107.64,-81.84"/>
<polygon fill="#63b8ff" stroke="#63b8ff" points="110.38,-84.02 114.08,-74.09 105,-79.55 110.38,-84.02"/>
</a>
</g>
</g>
<!-- Node6 -->
<g id="Node000006" class="node">
<title>Node6</title>
<g id="a_Node000006"><a xlink:href="types_8hpp.html" target="_top" xlink:title=" ">
<polygon fill="white" stroke="#666666" points="312.71,-74 185.71,-74 185.71,-55 312.71,-55 312.71,-74"/>
<text text-anchor="middle" x="249.21" y="-62" font-family="Helvetica,sans-Serif" font-size="10.00">jsonrpc/core/types.hpp</text>
</a>
</g>
</g>
<!-- Node2&#45;&gt;Node6 -->
<g id="edge5_Node000002_Node000006" class="edge">
<title>Node2&#45;&gt;Node6</title>
<g id="a_edge5_Node000002_Node000006"><a xlink:title=" ">
<path fill="none" stroke="#63b8ff" d="M104.84,-109.98C133.72,-101.09 179.22,-87.07 211.41,-77.15"/>
<polygon fill="#63b8ff" stroke="#63b8ff" points="212.83,-80.37 221.36,-74.08 210.77,-73.68 212.83,-80.37"/>
</a>
</g>
</g>
<!-- Node6&#45;&gt;Node3 -->
<g id="edge7_Node000006_Node000003" class="edge">
<title>Node6&#45;&gt;Node3</title>
<g id="a_edge7_Node000006_Node000003"><a xlink:title=" ">
<path fill="none" stroke="#63b8ff" d="M215.47,-54.98C177.71,-45.46 116.68,-30.05 77.25,-20.1"/>
<polygon fill="#63b8ff" stroke="#63b8ff" points="78.03,-16.69 67.48,-17.63 76.32,-23.48 78.03,-16.69"/>
</a>
</g>
</g>
<!-- Node7 -->
<g id="Node000007" class="node">
<title>Node7</title>
<g id="a_Node000007"><a xlink:title=" ">
<polygon fill="#e0e0e0" stroke="#999999" points="205.71,-19 140.71,-19 140.71,0 205.71,0 205.71,-19"/>
<text text-anchor="middle" x="173.21" y="-7" font-family="Helvetica,sans-Serif" font-size="10.00">functional</text>
</a>
</g>
</g>
<!-- Node6&#45;&gt;Node7 -->
<g id="edge6_Node000006_Node000007" class="edge">
<title>Node6&#45;&gt;Node7</title>
<g id="a_edge6_Node000006_Node000007"><a xlink:title=" ">
<path fill="none" stroke="#63b8ff" d="M237,-54.98C225.43,-46.92 207.83,-34.65 194.05,-25.03"/>
<polygon fill="#63b8ff" stroke="#63b8ff" points="195.84,-22.02 185.64,-19.17 191.84,-27.76 195.84,-22.02"/>
</a>
</g>
</g>
<!-- Node8 -->
<g id="Node000008" class="node">
<title>Node8</title>
<g id="a_Node000008"><a xlink:title=" ">
<polygon fill="#e0e0e0" stroke="#999999" points="274.71,-19 223.71,-19 223.71,0 274.71,0 274.71,-19"/>
<text text-anchor="middle" x="249.21" y="-7" font-family="Helvetica,sans-Serif" font-size="10.00">variant</text>
</a>
</g>
</g>
<!-- Node6&#45;&gt;Node8 -->
<g id="edge8_Node000006_Node000008" class="edge">
<title>Node6&#45;&gt;Node8</title>
<g id="a_edge8_Node000006_Node000008"><a xlink:title=" ">
<path fill="none" stroke="#63b8ff" d="M249.21,-54.75C249.21,-47.8 249.21,-37.85 249.21,-29.13"/>
<polygon fill="#63b8ff" stroke="#63b8ff" points="252.71,-29.09 249.21,-19.09 245.71,-29.09 252.71,-29.09"/>
</a>
</g>
</g>
<!-- Node9 -->
<g id="Node000009" class="node">
<title>Node9</title>
<g id="a_Node000009"><a xlink:title=" ">
<polygon fill="#e0e0e0" stroke="#999999" points="403.21,-19 293.21,-19 293.21,0 403.21,0 403.21,-19"/>
<text text-anchor="middle" x="348.21" y="-7" font-family="Helvetica,sans-Serif" font-size="10.00">nlohmann/json.hpp</text>
</a>
</g>
</g>
<!-- Node6&#45;&gt;Node9 -->
<g id="edge9_Node000006_Node000009" class="edge">
<title>Node6&#45;&gt;Node9</title>
<g id="a_edge9_Node000006_Node000009"><a xlink:title=" ">
<path fill="none" stroke="#63b8ff" d="M265.11,-54.98C280.75,-46.61 304.86,-33.7 323.09,-23.95"/>
<polygon fill="#63b8ff" stroke="#63b8ff" points="324.85,-26.98 332.01,-19.17 321.54,-20.8 324.85,-26.98"/>
</a>
</g>
</g>
</g>
</svg>
