<?xml version="1.0" encoding="UTF-8" standalone="no"?>
<!DOCTYPE svg PUBLIC "-//W3C//DTD SVG 1.1//EN"
 "http://www.w3.org/Graphics/SVG/1.1/DTD/svg11.dtd">
<!-- Generated by graphviz version 2.43.0 (0)
 -->
<!-- Title: include/jsonrpc/core/server_transport.hpp Pages: 1 -->
<svg width="797pt" height="258pt"
 viewBox="0.00 0.00 797.13 258.00" xmlns="http://www.w3.org/2000/svg" xmlns:xlink="http://www.w3.org/1999/xlink">
<g id="graph0" class="graph" transform="scale(1 1) rotate(0) translate(4 254)">
<title>include/jsonrpc/core/server_transport.hpp</title>
<!-- Node1 -->
<g id="Node000001" class="node">
<title>Node1</title>
<g id="a_Node000001"><a xlink:title=" ">
<polygon fill="#999999" stroke="#666666" points="185.5,-250 64.5,-250 64.5,-220 185.5,-220 185.5,-250"/>
<text text-anchor="start" x="72.5" y="-238" font-family="Helvetica,sans-Serif" font-size="10.00">include/jsonrpc/core</text>
<text text-anchor="middle" x="125" y="-227" font-family="Helvetica,sans-Serif" font-size="10.00">/server_transport.hpp</text>
</a>
</g>
</g>
<!-- Node2 -->
<g id="Node000002" class="node">
<title>Node2</title>
<g id="a_Node000002"><a xlink:title=" ">
<polygon fill="#e0e0e0" stroke="#999999" points="50,-184 0,-184 0,-165 50,-165 50,-184"/>
<text text-anchor="middle" x="25" y="-172" font-family="Helvetica,sans-Serif" font-size="10.00">atomic</text>
</a>
</g>
</g>
<!-- Node1&#45;&gt;Node2 -->
<g id="edge1_Node000001_Node000002" class="edge">
<title>Node1&#45;&gt;Node2</title>
<g id="a_edge1_Node000001_Node000002"><a xlink:title=" ">
<path fill="none" stroke="#63b8ff" d="M101.05,-219.99C85.11,-210.66 64.27,-198.47 48.44,-189.21"/>
<polygon fill="#63b8ff" stroke="#63b8ff" points="50.17,-186.17 39.77,-184.14 46.63,-192.21 50.17,-186.17"/>
</a>
</g>
</g>
<!-- Node3 -->
<g id="Node000003" class="node">
<title>Node3</title>
<g id="a_Node000003"><a xlink:title=" ">
<polygon fill="#e0e0e0" stroke="#999999" points="126,-184 68,-184 68,-165 126,-165 126,-184"/>
<text text-anchor="middle" x="97" y="-172" font-family="Helvetica,sans-Serif" font-size="10.00">memory</text>
</a>
</g>
</g>
<!-- Node1&#45;&gt;Node3 -->
<g id="edge2_Node000001_Node000003" class="edge">
<title>Node1&#45;&gt;Node3</title>
<g id="a_edge2_Node000001_Node000003"><a xlink:title=" ">
<path fill="none" stroke="#63b8ff" d="M118.22,-219.84C114.41,-211.87 109.61,-201.84 105.54,-193.33"/>
<polygon fill="#63b8ff" stroke="#63b8ff" points="108.67,-191.77 101.2,-184.27 102.36,-194.8 108.67,-191.77"/>
</a>
</g>
</g>
<!-- Node4 -->
<g id="Node000004" class="node">
<title>Node4</title>
<g id="a_Node000004"><a xlink:href="dispatcher_8hpp.html" target="_top" xlink:title=" ">
<polygon fill="white" stroke="#666666" points="513,-184 363,-184 363,-165 513,-165 513,-184"/>
<text text-anchor="middle" x="438" y="-172" font-family="Helvetica,sans-Serif" font-size="10.00">jsonrpc/core/dispatcher.hpp</text>
</a>
</g>
</g>
<!-- Node1&#45;&gt;Node4 -->
<g id="edge3_Node000001_Node000004" class="edge">
<title>Node1&#45;&gt;Node4</title>
<g id="a_edge3_Node000001_Node000004"><a xlink:title=" ">
<path fill="none" stroke="#63b8ff" d="M185.72,-222.65C242.62,-212.02 326.98,-196.25 382.22,-185.93"/>
<polygon fill="#63b8ff" stroke="#63b8ff" points="382.99,-189.34 392.18,-184.06 381.71,-182.46 382.99,-189.34"/>
</a>
</g>
</g>
<!-- Node11 -->
<g id="Node000011" class="node">
<title>Node11</title>
<g id="a_Node000011"><a xlink:href="types_8hpp.html" target="_top" xlink:title=" ">
<polygon fill="white" stroke="#666666" points="329.5,-74 202.5,-74 202.5,-55 329.5,-55 329.5,-74"/>
<text text-anchor="middle" x="266" y="-62" font-family="Helvetica,sans-Serif" font-size="10.00">jsonrpc/core/types.hpp</text>
</a>
</g>
</g>
<!-- Node1&#45;&gt;Node11 -->
<g id="edge23_Node000001_Node000011" class="edge">
<title>Node1&#45;&gt;Node11</title>
<g id="a_edge23_Node000001_Node000011"><a xlink:title=" ">
<path fill="none" stroke="#63b8ff" d="M131.62,-219.75C143.46,-195.31 170.11,-144.7 203,-110 214.34,-98.03 229.35,-87.29 241.87,-79.35"/>
<polygon fill="#63b8ff" stroke="#63b8ff" points="243.75,-82.3 250.46,-74.09 240.1,-76.33 243.75,-82.3"/>
</a>
</g>
</g>
<!-- Node5 -->
<g id="Node000005" class="node">
<title>Node5</title>
<g id="a_Node000005"><a xlink:title=" ">
<polygon fill="#e0e0e0" stroke="#999999" points="527,-19 471,-19 471,0 527,0 527,-19"/>
<text text-anchor="middle" x="499" y="-7" font-family="Helvetica,sans-Serif" font-size="10.00">optional</text>
</a>
</g>
</g>
<!-- Node4&#45;&gt;Node5 -->
<g id="edge4_Node000004_Node000005" class="edge">
<title>Node4&#45;&gt;Node5</title>
<g id="a_edge4_Node000004_Node000005"><a xlink:title=" ">
<path fill="none" stroke="#63b8ff" d="M513.04,-168.92C608.37,-162.33 762.66,-148.74 780,-129 792.91,-114.3 793.14,-77.75 770,-55 737.73,-23.27 604.29,-14.13 537.47,-11.52"/>
<polygon fill="#63b8ff" stroke="#63b8ff" points="537.47,-8.02 527.35,-11.16 537.22,-15.02 537.47,-8.02"/>
</a>
</g>
</g>
<!-- Node6 -->
<g id="Node000006" class="node">
<title>Node6</title>
<g id="a_Node000006"><a xlink:title=" ">
<polygon fill="#e0e0e0" stroke="#999999" points="430,-74 386,-74 386,-55 430,-55 430,-74"/>
<text text-anchor="middle" x="408" y="-62" font-family="Helvetica,sans-Serif" font-size="10.00">string</text>
</a>
</g>
</g>
<!-- Node4&#45;&gt;Node6 -->
<g id="edge5_Node000004_Node000006" class="edge">
<title>Node4&#45;&gt;Node6</title>
<g id="a_edge5_Node000004_Node000006"><a xlink:title=" ">
<path fill="none" stroke="#63b8ff" d="M428.98,-164.96C420.93,-156.66 409.71,-143.25 405,-129 400.23,-114.57 401.46,-97.3 403.62,-84.41"/>
<polygon fill="#63b8ff" stroke="#63b8ff" points="407.09,-84.89 405.62,-74.4 400.22,-83.52 407.09,-84.89"/>
</a>
</g>
</g>
<!-- Node7 -->
<g id="Node000007" class="node">
<title>Node7</title>
<g id="a_Node000007"><a xlink:title=" ">
<polygon fill="#e0e0e0" stroke="#999999" points="760.5,-74 667.5,-74 667.5,-55 760.5,-55 760.5,-74"/>
<text text-anchor="middle" x="714" y="-62" font-family="Helvetica,sans-Serif" font-size="10.00">unordered_map</text>
</a>
</g>
</g>
<!-- Node4&#45;&gt;Node7 -->
<g id="edge6_Node000004_Node000007" class="edge">
<title>Node4&#45;&gt;Node7</title>
<g id="a_edge6_Node000004_Node000007"><a xlink:title=" ">
<path fill="none" stroke="#63b8ff" d="M513.22,-174.19C599.18,-173.18 732.12,-165.53 764,-129 778.32,-112.59 756.89,-92.73 737.8,-79.64"/>
<polygon fill="#63b8ff" stroke="#63b8ff" points="739.62,-76.65 729.33,-74.14 735.81,-82.52 739.62,-76.65"/>
</a>
</g>
</g>
<!-- Node8 -->
<g id="Node000008" class="node">
<title>Node8</title>
<g id="a_Node000008"><a xlink:title=" ">
<polygon fill="#e0e0e0" stroke="#999999" points="461.5,-129 414.5,-129 414.5,-110 461.5,-110 461.5,-129"/>
<text text-anchor="middle" x="438" y="-117" font-family="Helvetica,sans-Serif" font-size="10.00">vector</text>
</a>
</g>
</g>
<!-- Node4&#45;&gt;Node8 -->
<g id="edge7_Node000004_Node000008" class="edge">
<title>Node4&#45;&gt;Node8</title>
<g id="a_edge7_Node000004_Node000008"><a xlink:title=" ">
<path fill="none" stroke="#63b8ff" d="M438,-164.75C438,-157.8 438,-147.85 438,-139.13"/>
<polygon fill="#63b8ff" stroke="#63b8ff" points="441.5,-139.09 438,-129.09 434.5,-139.09 441.5,-139.09"/>
</a>
</g>
</g>
<!-- Node9 -->
<g id="Node000009" class="node">
<title>Node9</title>
<g id="a_Node000009"><a xlink:title=" ">
<polygon fill="#e0e0e0" stroke="#999999" points="592.5,-129 479.5,-129 479.5,-110 592.5,-110 592.5,-129"/>
<text text-anchor="middle" x="536" y="-117" font-family="Helvetica,sans-Serif" font-size="10.00">BS_thread_pool.hpp</text>
</a>
</g>
</g>
<!-- Node4&#45;&gt;Node9 -->
<g id="edge8_Node000004_Node000009" class="edge">
<title>Node4&#45;&gt;Node9</title>
<g id="a_edge8_Node000004_Node000009"><a xlink:title=" ">
<path fill="none" stroke="#63b8ff" d="M453.75,-164.98C469.23,-156.61 493.09,-143.7 511.14,-133.95"/>
<polygon fill="#63b8ff" stroke="#63b8ff" points="512.84,-137.01 519.97,-129.17 509.51,-130.85 512.84,-137.01"/>
</a>
</g>
</g>
<!-- Node10 -->
<g id="Node000010" class="node">
<title>Node10</title>
<g id="a_Node000010"><a xlink:href="core_2request_8hpp.html" target="_top" xlink:title=" ">
<polygon fill="white" stroke="#666666" points="357.5,-129 220.5,-129 220.5,-110 357.5,-110 357.5,-129"/>
<text text-anchor="middle" x="289" y="-117" font-family="Helvetica,sans-Serif" font-size="10.00">jsonrpc/core/request.hpp</text>
</a>
</g>
</g>
<!-- Node4&#45;&gt;Node10 -->
<g id="edge9_Node000004_Node000010" class="edge">
<title>Node4&#45;&gt;Node10</title>
<g id="a_edge9_Node000004_Node000010"><a xlink:title=" ">
<path fill="none" stroke="#63b8ff" d="M414.06,-164.98C389.44,-156.23 350.88,-142.51 323.08,-132.62"/>
<polygon fill="#63b8ff" stroke="#63b8ff" points="323.97,-129.22 313.38,-129.17 321.62,-135.82 323.97,-129.22"/>
</a>
</g>
</g>
<!-- Node4&#45;&gt;Node11 -->
<g id="edge22_Node000004_Node000011" class="edge">
<title>Node4&#45;&gt;Node11</title>
<g id="a_edge22_Node000004_Node000011"><a xlink:title=" ">
<path fill="none" stroke="#63b8ff" d="M362.73,-168.84C304.29,-163.46 230.08,-152.18 211,-129 196.63,-111.54 219.84,-91.93 240.39,-79.19"/>
<polygon fill="#63b8ff" stroke="#63b8ff" points="242.35,-82.09 249.2,-74.01 238.8,-76.06 242.35,-82.09"/>
</a>
</g>
</g>
<!-- Node15 -->
<g id="Node000015" class="node">
<title>Node15</title>
<g id="a_Node000015"><a xlink:href="response_8hpp.html" target="_top" xlink:title=" ">
<polygon fill="white" stroke="#666666" points="755,-129 611,-129 611,-110 755,-110 755,-129"/>
<text text-anchor="middle" x="683" y="-117" font-family="Helvetica,sans-Serif" font-size="10.00">jsonrpc/core/response.hpp</text>
</a>
</g>
</g>
<!-- Node4&#45;&gt;Node15 -->
<g id="edge17_Node000004_Node000015" class="edge">
<title>Node4&#45;&gt;Node15</title>
<g id="a_edge17_Node000004_Node000015"><a xlink:title=" ">
<path fill="none" stroke="#63b8ff" d="M477.36,-164.98C519.74,-155.82 587.26,-141.21 633.28,-131.26"/>
<polygon fill="#63b8ff" stroke="#63b8ff" points="634.29,-134.62 643.33,-129.08 632.81,-127.78 634.29,-134.62"/>
</a>
</g>
</g>
<!-- Node10&#45;&gt;Node5 -->
<g id="edge10_Node000010_Node000005" class="edge">
<title>Node10&#45;&gt;Node5</title>
<g id="a_edge10_Node000010_Node000005"><a xlink:title=" ">
<path fill="none" stroke="#63b8ff" d="M298.95,-109.89C314.66,-96.66 346.54,-71.15 377,-55 403.96,-40.71 436.52,-29.09 461.21,-21.31"/>
<polygon fill="#63b8ff" stroke="#63b8ff" points="462.41,-24.61 470.94,-18.32 460.35,-17.92 462.41,-24.61"/>
</a>
</g>
</g>
<!-- Node10&#45;&gt;Node6 -->
<g id="edge11_Node000010_Node000006" class="edge">
<title>Node10&#45;&gt;Node6</title>
<g id="a_edge11_Node000010_Node000006"><a xlink:title=" ">
<path fill="none" stroke="#63b8ff" d="M308.12,-109.98C327.35,-101.42 357.23,-88.11 379.31,-78.28"/>
<polygon fill="#63b8ff" stroke="#63b8ff" points="380.82,-81.44 388.53,-74.17 377.97,-75.04 380.82,-81.44"/>
</a>
</g>
</g>
<!-- Node10&#45;&gt;Node11 -->
<g id="edge12_Node000010_Node000011" class="edge">
<title>Node10&#45;&gt;Node11</title>
<g id="a_edge12_Node000010_Node000011"><a xlink:title=" ">
<path fill="none" stroke="#63b8ff" d="M285.2,-109.75C282.09,-102.57 277.58,-92.18 273.71,-83.27"/>
<polygon fill="#63b8ff" stroke="#63b8ff" points="276.92,-81.87 269.73,-74.09 270.5,-84.66 276.92,-81.87"/>
</a>
</g>
</g>
<!-- Node11&#45;&gt;Node5 -->
<g id="edge14_Node000011_Node000005" class="edge">
<title>Node11&#45;&gt;Node5</title>
<g id="a_edge14_Node000011_Node000005"><a xlink:title=" ">
<path fill="none" stroke="#63b8ff" d="M303.44,-54.98C346.67,-45.15 417.4,-29.06 460.91,-19.17"/>
<polygon fill="#63b8ff" stroke="#63b8ff" points="461.84,-22.54 470.82,-16.91 460.29,-15.72 461.84,-22.54"/>
</a>
</g>
</g>
<!-- Node12 -->
<g id="Node000012" class="node">
<title>Node12</title>
<g id="a_Node000012"><a xlink:title=" ">
<polygon fill="#e0e0e0" stroke="#999999" points="298.5,-19 233.5,-19 233.5,0 298.5,0 298.5,-19"/>
<text text-anchor="middle" x="266" y="-7" font-family="Helvetica,sans-Serif" font-size="10.00">functional</text>
</a>
</g>
</g>
<!-- Node11&#45;&gt;Node12 -->
<g id="edge13_Node000011_Node000012" class="edge">
<title>Node11&#45;&gt;Node12</title>
<g id="a_edge13_Node000011_Node000012"><a xlink:title=" ">
<path fill="none" stroke="#63b8ff" d="M266,-54.75C266,-47.8 266,-37.85 266,-29.13"/>
<polygon fill="#63b8ff" stroke="#63b8ff" points="269.5,-29.09 266,-19.09 262.5,-29.09 269.5,-29.09"/>
</a>
</g>
</g>
<!-- Node13 -->
<g id="Node000013" class="node">
<title>Node13</title>
<g id="a_Node000013"><a xlink:title=" ">
<polygon fill="#e0e0e0" stroke="#999999" points="367.5,-19 316.5,-19 316.5,0 367.5,0 367.5,-19"/>
<text text-anchor="middle" x="342" y="-7" font-family="Helvetica,sans-Serif" font-size="10.00">variant</text>
</a>
</g>
</g>
<!-- Node11&#45;&gt;Node13 -->
<g id="edge15_Node000011_Node000013" class="edge">
<title>Node11&#45;&gt;Node13</title>
<g id="a_edge15_Node000011_Node000013"><a xlink:title=" ">
<path fill="none" stroke="#63b8ff" d="M278.21,-54.98C289.78,-46.92 307.38,-34.65 321.16,-25.03"/>
<polygon fill="#63b8ff" stroke="#63b8ff" points="323.37,-27.76 329.57,-19.17 319.36,-22.02 323.37,-27.76"/>
</a>
</g>
</g>
<!-- Node14 -->
<g id="Node000014" class="node">
<title>Node14</title>
<g id="a_Node000014"><a xlink:title=" ">
<polygon fill="#e0e0e0" stroke="#999999" points="215,-19 105,-19 105,0 215,0 215,-19"/>
<text text-anchor="middle" x="160" y="-7" font-family="Helvetica,sans-Serif" font-size="10.00">nlohmann/json.hpp</text>
</a>
</g>
</g>
<!-- Node11&#45;&gt;Node14 -->
<g id="edge16_Node000011_Node000014" class="edge">
<title>Node11&#45;&gt;Node14</title>
<g id="a_edge16_Node000011_Node000014"><a xlink:title=" ">
<path fill="none" stroke="#63b8ff" d="M248.97,-54.98C232.07,-46.54 205.94,-33.47 186.36,-23.68"/>
<polygon fill="#63b8ff" stroke="#63b8ff" points="187.85,-20.51 177.34,-19.17 184.72,-26.77 187.85,-20.51"/>
</a>
</g>
</g>
<!-- Node15&#45;&gt;Node5 -->
<g id="edge18_Node000015_Node000005" class="edge">
<title>Node15&#45;&gt;Node5</title>
<g id="a_edge18_Node000015_Node000005"><a xlink:title=" ">
<path fill="none" stroke="#63b8ff" d="M668.25,-109.84C636.41,-91.16 561.01,-46.9 522.51,-24.3"/>
<polygon fill="#63b8ff" stroke="#63b8ff" points="523.96,-21.09 513.56,-19.05 520.41,-27.13 523.96,-21.09"/>
</a>
</g>
</g>
<!-- Node15&#45;&gt;Node6 -->
<g id="edge19_Node000015_Node000006" class="edge">
<title>Node15&#45;&gt;Node6</title>
<g id="a_edge19_Node000015_Node000006"><a xlink:title=" ">
<path fill="none" stroke="#63b8ff" d="M638.82,-109.98C583.37,-99.3 489.59,-81.22 440.37,-71.74"/>
<polygon fill="#63b8ff" stroke="#63b8ff" points="440.77,-68.25 430.29,-69.8 439.44,-75.12 440.77,-68.25"/>
</a>
</g>
</g>
<!-- Node15&#45;&gt;Node7 -->
<g id="edge20_Node000015_Node000007" class="edge">
<title>Node15&#45;&gt;Node7</title>
<g id="a_edge20_Node000015_Node000007"><a xlink:title=" ">
<path fill="none" stroke="#63b8ff" d="M688.12,-109.75C692.36,-102.49 698.53,-91.95 703.78,-82.98"/>
<polygon fill="#63b8ff" stroke="#63b8ff" points="706.95,-84.49 708.98,-74.09 700.91,-80.95 706.95,-84.49"/>
</a>
</g>
</g>
<!-- Node15&#45;&gt;Node11 -->
<g id="edge21_Node000015_Node000011" class="edge">
<title>Node15&#45;&gt;Node11</title>
<g id="a_edge21_Node000015_Node000011"><a xlink:title=" ">
<path fill="none" stroke="#63b8ff" d="M616,-109.98C540.54,-100.39 418.25,-84.85 340.02,-74.91"/>
<polygon fill="#63b8ff" stroke="#63b8ff" points="340.12,-71.39 329.75,-73.6 339.23,-78.34 340.12,-71.39"/>
</a>
</g>
</g>
</g>
</svg>
