<?xml version="1.0" encoding="UTF-8" standalone="no"?>
<!DOCTYPE svg PUBLIC "-//W3C//DTD SVG 1.1//EN"
 "http://www.w3.org/Graphics/SVG/1.1/DTD/svg11.dtd">
<!-- Generated by graphviz version 2.43.0 (0)
 -->
<!-- Title: include/jsonrpc/server/server.hpp Pages: 1 -->
<svg width="697pt" height="324pt"
 viewBox="0.00 0.00 696.55 324.00" xmlns="http://www.w3.org/2000/svg" xmlns:xlink="http://www.w3.org/1999/xlink">
<g id="graph0" class="graph" transform="scale(1 1) rotate(0) translate(4 320)">
<title>include/jsonrpc/server/server.hpp</title>
<!-- Node1 -->
<g id="Node000001" class="node">
<title>Node1</title>
<g id="a_Node000001"><a xlink:title=" ">
<polygon fill="#999999" stroke="#666666" points="247.55,-316 123.55,-316 123.55,-286 247.55,-286 247.55,-316"/>
<text text-anchor="start" x="131.55" y="-304" font-family="Helvetica,sans-Serif" font-size="10.00">include/jsonrpc/server</text>
<text text-anchor="middle" x="185.55" y="-293" font-family="Helvetica,sans-Serif" font-size="10.00">/server.hpp</text>
</a>
</g>
</g>
<!-- Node2 -->
<g id="Node000002" class="node">
<title>Node2</title>
<g id="a_Node000002"><a xlink:title=" ">
<polygon fill="#e0e0e0" stroke="#999999" points="134.55,-184 76.55,-184 76.55,-165 134.55,-165 134.55,-184"/>
<text text-anchor="middle" x="105.55" y="-172" font-family="Helvetica,sans-Serif" font-size="10.00">memory</text>
</a>
</g>
</g>
<!-- Node1&#45;&gt;Node2 -->
<g id="edge1_Node000001_Node000002" class="edge">
<title>Node1&#45;&gt;Node2</title>
<g id="a_edge1_Node000001_Node000002"><a xlink:title=" ">
<path fill="none" stroke="#63b8ff" d="M176.38,-285.72C161.59,-262.71 132.56,-217.53 116.64,-192.76"/>
<polygon fill="#63b8ff" stroke="#63b8ff" points="119.41,-190.59 111.06,-184.07 113.52,-194.37 119.41,-190.59"/>
</a>
</g>
</g>
<!-- Node3 -->
<g id="Node000003" class="node">
<title>Node3</title>
<g id="a_Node000003"><a xlink:title=" ">
<polygon fill="#e0e0e0" stroke="#999999" points="119.55,-74 75.55,-74 75.55,-55 119.55,-55 119.55,-74"/>
<text text-anchor="middle" x="97.55" y="-62" font-family="Helvetica,sans-Serif" font-size="10.00">string</text>
</a>
</g>
</g>
<!-- Node1&#45;&gt;Node3 -->
<g id="edge2_Node000001_Node000003" class="edge">
<title>Node1&#45;&gt;Node3</title>
<g id="a_edge2_Node000001_Node000003"><a xlink:title=" ">
<path fill="none" stroke="#63b8ff" d="M160.37,-285.85C118.46,-260.66 35.83,-203.61 3.55,-129 -9.36,-99.15 33.5,-81.39 65.55,-72.54"/>
<polygon fill="#63b8ff" stroke="#63b8ff" points="66.68,-75.86 75.49,-69.98 64.93,-69.08 66.68,-75.86"/>
</a>
</g>
</g>
<!-- Node4 -->
<g id="Node000004" class="node">
<title>Node4</title>
<g id="a_Node000004"><a xlink:href="dispatcher_8hpp.html" target="_top" xlink:title=" ">
<polygon fill="white" stroke="#666666" points="302.55,-184 152.55,-184 152.55,-165 302.55,-165 302.55,-184"/>
<text text-anchor="middle" x="227.55" y="-172" font-family="Helvetica,sans-Serif" font-size="10.00">jsonrpc/core/dispatcher.hpp</text>
</a>
</g>
</g>
<!-- Node1&#45;&gt;Node4 -->
<g id="edge3_Node000001_Node000004" class="edge">
<title>Node1&#45;&gt;Node4</title>
<g id="a_edge3_Node000001_Node000004"><a xlink:title=" ">
<path fill="none" stroke="#63b8ff" d="M187.84,-285.82C190.7,-269.59 196.26,-242.35 204.55,-220 207.99,-210.72 212.92,-200.91 217.33,-192.86"/>
<polygon fill="#63b8ff" stroke="#63b8ff" points="220.42,-194.5 222.32,-184.08 214.33,-191.04 220.42,-194.5"/>
</a>
</g>
</g>
<!-- Node10 -->
<g id="Node000010" class="node">
<title>Node10</title>
<g id="a_Node000010"><a xlink:href="types_8hpp.html" target="_top" xlink:title=" ">
<polygon fill="white" stroke="#666666" points="598.05,-74 471.05,-74 471.05,-55 598.05,-55 598.05,-74"/>
<text text-anchor="middle" x="534.55" y="-62" font-family="Helvetica,sans-Serif" font-size="10.00">jsonrpc/core/types.hpp</text>
</a>
</g>
</g>
<!-- Node1&#45;&gt;Node10 -->
<g id="edge28_Node000001_Node000010" class="edge">
<title>Node1&#45;&gt;Node10</title>
<g id="a_edge28_Node000001_Node000010"><a xlink:title=" ">
<path fill="none" stroke="#63b8ff" d="M247.76,-289.86C322.79,-275.48 450.54,-243.97 544.55,-184 578.23,-162.52 613.65,-145.61 595.55,-110 588.78,-96.68 575.95,-86.41 563.8,-79.1"/>
<polygon fill="#63b8ff" stroke="#63b8ff" points="565.19,-75.87 554.75,-74.09 561.8,-81.99 565.19,-75.87"/>
</a>
</g>
</g>
<!-- Node15 -->
<g id="Node000015" class="node">
<title>Node15</title>
<g id="a_Node000015"><a xlink:href="server__transport_8hpp.html" target="_top" xlink:title=" ">
<polygon fill="white" stroke="#666666" points="323.55,-250 213.55,-250 213.55,-220 323.55,-220 323.55,-250"/>
<text text-anchor="start" x="221.55" y="-238" font-family="Helvetica,sans-Serif" font-size="10.00">jsonrpc/core/server</text>
<text text-anchor="middle" x="268.55" y="-227" font-family="Helvetica,sans-Serif" font-size="10.00">_transport.hpp</text>
</a>
</g>
</g>
<!-- Node1&#45;&gt;Node15 -->
<g id="edge23_Node000001_Node000015" class="edge">
<title>Node1&#45;&gt;Node15</title>
<g id="a_edge23_Node000001_Node000015"><a xlink:title=" ">
<path fill="none" stroke="#63b8ff" d="M203.97,-285.8C215.15,-277.18 229.6,-266.04 241.99,-256.48"/>
<polygon fill="#63b8ff" stroke="#63b8ff" points="244.4,-259.04 250.18,-250.16 240.13,-253.5 244.4,-259.04"/>
</a>
</g>
</g>
<!-- Node4&#45;&gt;Node3 -->
<g id="edge5_Node000004_Node000003" class="edge">
<title>Node4&#45;&gt;Node3</title>
<g id="a_edge5_Node000004_Node000003"><a xlink:title=" ">
<path fill="none" stroke="#63b8ff" d="M166.93,-164.98C106.54,-155.87 21.42,-141.11 11.55,-129 -7.81,-105.24 33.59,-85.71 65.42,-74.84"/>
<polygon fill="#63b8ff" stroke="#63b8ff" points="66.9,-78.04 75.33,-71.62 64.74,-71.38 66.9,-78.04"/>
</a>
</g>
</g>
<!-- Node5 -->
<g id="Node000005" class="node">
<title>Node5</title>
<g id="a_Node000005"><a xlink:title=" ">
<polygon fill="#e0e0e0" stroke="#999999" points="405.55,-19 349.55,-19 349.55,0 405.55,0 405.55,-19"/>
<text text-anchor="middle" x="377.55" y="-7" font-family="Helvetica,sans-Serif" font-size="10.00">optional</text>
</a>
</g>
</g>
<!-- Node4&#45;&gt;Node5 -->
<g id="edge4_Node000004_Node000005" class="edge">
<title>Node4&#45;&gt;Node5</title>
<g id="a_edge4_Node000004_Node000005"><a xlink:title=" ">
<path fill="none" stroke="#63b8ff" d="M163.54,-164.97C101,-155.98 13.76,-141.43 3.55,-129 -1.81,-122.47 0.06,-117.69 3.55,-110 18.93,-76.16 32.77,-70.49 66.55,-55 114.4,-33.06 266.88,-18.91 339.02,-13.27"/>
<polygon fill="#63b8ff" stroke="#63b8ff" points="339.36,-16.76 349.06,-12.5 338.82,-9.78 339.36,-16.76"/>
</a>
</g>
</g>
<!-- Node6 -->
<g id="Node000006" class="node">
<title>Node6</title>
<g id="a_Node000006"><a xlink:title=" ">
<polygon fill="#e0e0e0" stroke="#999999" points="299.05,-74 206.05,-74 206.05,-55 299.05,-55 299.05,-74"/>
<text text-anchor="middle" x="252.55" y="-62" font-family="Helvetica,sans-Serif" font-size="10.00">unordered_map</text>
</a>
</g>
</g>
<!-- Node4&#45;&gt;Node6 -->
<g id="edge6_Node000004_Node000006" class="edge">
<title>Node4&#45;&gt;Node6</title>
<g id="a_edge6_Node000004_Node000006"><a xlink:title=" ">
<path fill="none" stroke="#63b8ff" d="M229.6,-164.66C233.67,-147.09 242.84,-107.45 248.28,-83.95"/>
<polygon fill="#63b8ff" stroke="#63b8ff" points="251.7,-84.69 250.55,-74.16 244.88,-83.11 251.7,-84.69"/>
</a>
</g>
</g>
<!-- Node7 -->
<g id="Node000007" class="node">
<title>Node7</title>
<g id="a_Node000007"><a xlink:title=" ">
<polygon fill="#e0e0e0" stroke="#999999" points="68.05,-129 21.05,-129 21.05,-110 68.05,-110 68.05,-129"/>
<text text-anchor="middle" x="44.55" y="-117" font-family="Helvetica,sans-Serif" font-size="10.00">vector</text>
</a>
</g>
</g>
<!-- Node4&#45;&gt;Node7 -->
<g id="edge7_Node000004_Node000007" class="edge">
<title>Node4&#45;&gt;Node7</title>
<g id="a_edge7_Node000004_Node000007"><a xlink:title=" ">
<path fill="none" stroke="#63b8ff" d="M198.15,-164.98C165.37,-155.49 112.46,-140.17 78.09,-130.21"/>
<polygon fill="#63b8ff" stroke="#63b8ff" points="78.64,-126.73 68.06,-127.31 76.7,-133.45 78.64,-126.73"/>
</a>
</g>
</g>
<!-- Node8 -->
<g id="Node000008" class="node">
<title>Node8</title>
<g id="a_Node000008"><a xlink:title=" ">
<polygon fill="#e0e0e0" stroke="#999999" points="199.05,-129 86.05,-129 86.05,-110 199.05,-110 199.05,-129"/>
<text text-anchor="middle" x="142.55" y="-117" font-family="Helvetica,sans-Serif" font-size="10.00">BS_thread_pool.hpp</text>
</a>
</g>
</g>
<!-- Node4&#45;&gt;Node8 -->
<g id="edge8_Node000004_Node000008" class="edge">
<title>Node4&#45;&gt;Node8</title>
<g id="a_edge8_Node000004_Node000008"><a xlink:title=" ">
<path fill="none" stroke="#63b8ff" d="M213.9,-164.98C200.71,-156.77 180.52,-144.18 164.98,-134.49"/>
<polygon fill="#63b8ff" stroke="#63b8ff" points="166.8,-131.49 156.46,-129.17 163.09,-137.43 166.8,-131.49"/>
</a>
</g>
</g>
<!-- Node9 -->
<g id="Node000009" class="node">
<title>Node9</title>
<g id="a_Node000009"><a xlink:href="request_8hpp.html" target="_top" xlink:title=" ">
<polygon fill="white" stroke="#666666" points="555.05,-129 418.05,-129 418.05,-110 555.05,-110 555.05,-129"/>
<text text-anchor="middle" x="486.55" y="-117" font-family="Helvetica,sans-Serif" font-size="10.00">jsonrpc/core/request.hpp</text>
</a>
</g>
</g>
<!-- Node4&#45;&gt;Node9 -->
<g id="edge9_Node000004_Node000009" class="edge">
<title>Node4&#45;&gt;Node9</title>
<g id="a_edge9_Node000004_Node000009"><a xlink:title=" ">
<path fill="none" stroke="#63b8ff" d="M269.17,-164.98C314.15,-155.78 385.94,-141.09 434.6,-131.13"/>
<polygon fill="#63b8ff" stroke="#63b8ff" points="435.52,-134.52 444.61,-129.08 434.11,-127.66 435.52,-134.52"/>
</a>
</g>
</g>
<!-- Node4&#45;&gt;Node10 -->
<g id="edge22_Node000004_Node000010" class="edge">
<title>Node4&#45;&gt;Node10</title>
<g id="a_edge22_Node000004_Node000010"><a xlink:title=" ">
<path fill="none" stroke="#63b8ff" d="M301.14,-165C398.99,-153.52 560.22,-133.94 564.55,-129 576.78,-115.05 563.88,-95.25 551.4,-81.49"/>
<polygon fill="#63b8ff" stroke="#63b8ff" points="553.77,-78.9 544.29,-74.17 548.75,-83.78 553.77,-78.9"/>
</a>
</g>
</g>
<!-- Node14 -->
<g id="Node000014" class="node">
<title>Node14</title>
<g id="a_Node000014"><a xlink:href="response_8hpp.html" target="_top" xlink:title=" ">
<polygon fill="white" stroke="#666666" points="399.55,-129 255.55,-129 255.55,-110 399.55,-110 399.55,-129"/>
<text text-anchor="middle" x="327.55" y="-117" font-family="Helvetica,sans-Serif" font-size="10.00">jsonrpc/core/response.hpp</text>
</a>
</g>
</g>
<!-- Node4&#45;&gt;Node14 -->
<g id="edge17_Node000004_Node000014" class="edge">
<title>Node4&#45;&gt;Node14</title>
<g id="a_edge17_Node000004_Node000014"><a xlink:title=" ">
<path fill="none" stroke="#63b8ff" d="M243.62,-164.98C259.42,-156.61 283.77,-143.7 302.18,-133.95"/>
<polygon fill="#63b8ff" stroke="#63b8ff" points="304,-136.95 311.19,-129.17 300.72,-130.76 304,-136.95"/>
</a>
</g>
</g>
<!-- Node9&#45;&gt;Node3 -->
<g id="edge11_Node000009_Node000003" class="edge">
<title>Node9&#45;&gt;Node3</title>
<g id="a_edge11_Node000009_Node000003"><a xlink:title=" ">
<path fill="none" stroke="#63b8ff" d="M424.05,-109.98C340.23,-98.56 194.49,-78.71 129.93,-69.91"/>
<polygon fill="#63b8ff" stroke="#63b8ff" points="130.31,-66.43 119.93,-68.55 129.36,-73.37 130.31,-66.43"/>
</a>
</g>
</g>
<!-- Node9&#45;&gt;Node5 -->
<g id="edge10_Node000009_Node000005" class="edge">
<title>Node9&#45;&gt;Node5</title>
<g id="a_edge10_Node000009_Node000005"><a xlink:title=" ">
<path fill="none" stroke="#63b8ff" d="M477.63,-109.66C459.26,-91.46 416.96,-49.55 393.67,-26.47"/>
<polygon fill="#63b8ff" stroke="#63b8ff" points="395.86,-23.71 386.29,-19.16 390.93,-28.68 395.86,-23.71"/>
</a>
</g>
</g>
<!-- Node9&#45;&gt;Node10 -->
<g id="edge12_Node000009_Node000010" class="edge">
<title>Node9&#45;&gt;Node10</title>
<g id="a_edge12_Node000009_Node000010"><a xlink:title=" ">
<path fill="none" stroke="#63b8ff" d="M494.48,-109.75C501.4,-102.11 511.62,-90.82 520,-81.56"/>
<polygon fill="#63b8ff" stroke="#63b8ff" points="522.66,-83.85 526.77,-74.09 517.47,-79.15 522.66,-83.85"/>
</a>
</g>
</g>
<!-- Node10&#45;&gt;Node5 -->
<g id="edge14_Node000010_Node000005" class="edge">
<title>Node10&#45;&gt;Node5</title>
<g id="a_edge14_Node000010_Node000005"><a xlink:title=" ">
<path fill="none" stroke="#63b8ff" d="M509.33,-54.98C483.2,-46.16 442.16,-32.31 412.82,-22.41"/>
<polygon fill="#63b8ff" stroke="#63b8ff" points="413.57,-18.96 402.97,-19.08 411.33,-25.6 413.57,-18.96"/>
</a>
</g>
</g>
<!-- Node11 -->
<g id="Node000011" class="node">
<title>Node11</title>
<g id="a_Node000011"><a xlink:title=" ">
<polygon fill="#e0e0e0" stroke="#999999" points="491.05,-19 426.05,-19 426.05,0 491.05,0 491.05,-19"/>
<text text-anchor="middle" x="458.55" y="-7" font-family="Helvetica,sans-Serif" font-size="10.00">functional</text>
</a>
</g>
</g>
<!-- Node10&#45;&gt;Node11 -->
<g id="edge13_Node000010_Node000011" class="edge">
<title>Node10&#45;&gt;Node11</title>
<g id="a_edge13_Node000010_Node000011"><a xlink:title=" ">
<path fill="none" stroke="#63b8ff" d="M522.34,-54.98C510.78,-46.92 493.18,-34.65 479.39,-25.03"/>
<polygon fill="#63b8ff" stroke="#63b8ff" points="481.19,-22.02 470.99,-19.17 477.19,-27.76 481.19,-22.02"/>
</a>
</g>
</g>
<!-- Node12 -->
<g id="Node000012" class="node">
<title>Node12</title>
<g id="a_Node000012"><a xlink:title=" ">
<polygon fill="#e0e0e0" stroke="#999999" points="560.05,-19 509.05,-19 509.05,0 560.05,0 560.05,-19"/>
<text text-anchor="middle" x="534.55" y="-7" font-family="Helvetica,sans-Serif" font-size="10.00">variant</text>
</a>
</g>
</g>
<!-- Node10&#45;&gt;Node12 -->
<g id="edge15_Node000010_Node000012" class="edge">
<title>Node10&#45;&gt;Node12</title>
<g id="a_edge15_Node000010_Node000012"><a xlink:title=" ">
<path fill="none" stroke="#63b8ff" d="M534.55,-54.75C534.55,-47.8 534.55,-37.85 534.55,-29.13"/>
<polygon fill="#63b8ff" stroke="#63b8ff" points="538.05,-29.09 534.55,-19.09 531.05,-29.09 538.05,-29.09"/>
</a>
</g>
</g>
<!-- Node13 -->
<g id="Node000013" class="node">
<title>Node13</title>
<g id="a_Node000013"><a xlink:title=" ">
<polygon fill="#e0e0e0" stroke="#999999" points="688.55,-19 578.55,-19 578.55,0 688.55,0 688.55,-19"/>
<text text-anchor="middle" x="633.55" y="-7" font-family="Helvetica,sans-Serif" font-size="10.00">nlohmann/json.hpp</text>
</a>
</g>
</g>
<!-- Node10&#45;&gt;Node13 -->
<g id="edge16_Node000010_Node000013" class="edge">
<title>Node10&#45;&gt;Node13</title>
<g id="a_edge16_Node000010_Node000013"><a xlink:title=" ">
<path fill="none" stroke="#63b8ff" d="M550.46,-54.98C566.1,-46.61 590.21,-33.7 608.44,-23.95"/>
<polygon fill="#63b8ff" stroke="#63b8ff" points="610.19,-26.98 617.36,-19.17 606.89,-20.8 610.19,-26.98"/>
</a>
</g>
</g>
<!-- Node14&#45;&gt;Node3 -->
<g id="edge19_Node000014_Node000003" class="edge">
<title>Node14&#45;&gt;Node3</title>
<g id="a_edge19_Node000014_Node000003"><a xlink:title=" ">
<path fill="none" stroke="#63b8ff" d="M290.6,-109.98C246.02,-99.71 171.82,-82.61 129.57,-72.88"/>
<polygon fill="#63b8ff" stroke="#63b8ff" points="130.34,-69.46 119.81,-70.63 128.77,-76.28 130.34,-69.46"/>
</a>
</g>
</g>
<!-- Node14&#45;&gt;Node5 -->
<g id="edge18_Node000014_Node000005" class="edge">
<title>Node14&#45;&gt;Node5</title>
<g id="a_edge18_Node000014_Node000005"><a xlink:title=" ">
<path fill="none" stroke="#63b8ff" d="M331.64,-109.66C339.85,-91.93 358.47,-51.73 369.3,-28.32"/>
<polygon fill="#63b8ff" stroke="#63b8ff" points="372.52,-29.7 373.54,-19.16 366.17,-26.76 372.52,-29.7"/>
</a>
</g>
</g>
<!-- Node14&#45;&gt;Node6 -->
<g id="edge20_Node000014_Node000006" class="edge">
<title>Node14&#45;&gt;Node6</title>
<g id="a_edge20_Node000014_Node000006"><a xlink:title=" ">
<path fill="none" stroke="#63b8ff" d="M315.5,-109.98C304.09,-101.92 286.72,-89.65 273.12,-80.03"/>
<polygon fill="#63b8ff" stroke="#63b8ff" points="275.01,-77.08 264.82,-74.17 270.97,-82.8 275.01,-77.08"/>
</a>
</g>
</g>
<!-- Node14&#45;&gt;Node10 -->
<g id="edge21_Node000014_Node000010" class="edge">
<title>Node14&#45;&gt;Node10</title>
<g id="a_edge21_Node000014_Node000010"><a xlink:title=" ">
<path fill="none" stroke="#63b8ff" d="M360.81,-109.98C396.17,-100.93 452.22,-86.58 491.06,-76.64"/>
<polygon fill="#63b8ff" stroke="#63b8ff" points="492.21,-79.95 501.03,-74.08 490.48,-73.17 492.21,-79.95"/>
</a>
</g>
</g>
<!-- Node15&#45;&gt;Node2 -->
<g id="edge25_Node000015_Node000002" class="edge">
<title>Node15&#45;&gt;Node2</title>
<g id="a_edge25_Node000015_Node000002"><a xlink:title=" ">
<path fill="none" stroke="#63b8ff" d="M229.51,-219.99C201.95,-210.1 165.4,-196.98 139.14,-187.56"/>
<polygon fill="#63b8ff" stroke="#63b8ff" points="140.22,-184.22 129.62,-184.14 137.85,-190.81 140.22,-184.22"/>
</a>
</g>
</g>
<!-- Node15&#45;&gt;Node4 -->
<g id="edge26_Node000015_Node000004" class="edge">
<title>Node15&#45;&gt;Node4</title>
<g id="a_edge26_Node000015_Node000004"><a xlink:title=" ">
<path fill="none" stroke="#63b8ff" d="M258.63,-219.84C252.86,-211.61 245.55,-201.18 239.47,-192.51"/>
<polygon fill="#63b8ff" stroke="#63b8ff" points="242.3,-190.45 233.7,-184.27 236.57,-194.46 242.3,-190.45"/>
</a>
</g>
</g>
<!-- Node15&#45;&gt;Node10 -->
<g id="edge27_Node000015_Node000010" class="edge">
<title>Node15&#45;&gt;Node10</title>
<g id="a_edge27_Node000015_Node000010"><a xlink:title=" ">
<path fill="none" stroke="#63b8ff" d="M323.72,-233.58C396.4,-229.68 521.86,-210.69 580.55,-129 592.59,-112.24 574.25,-93.07 557.28,-80.21"/>
<polygon fill="#63b8ff" stroke="#63b8ff" points="558.88,-77.05 548.7,-74.11 554.82,-82.76 558.88,-77.05"/>
</a>
</g>
</g>
<!-- Node16 -->
<g id="Node000016" class="node">
<title>Node16</title>
<g id="a_Node000016"><a xlink:title=" ">
<polygon fill="#e0e0e0" stroke="#999999" points="370.55,-184 320.55,-184 320.55,-165 370.55,-165 370.55,-184"/>
<text text-anchor="middle" x="345.55" y="-172" font-family="Helvetica,sans-Serif" font-size="10.00">atomic</text>
</a>
</g>
</g>
<!-- Node15&#45;&gt;Node16 -->
<g id="edge24_Node000015_Node000016" class="edge">
<title>Node15&#45;&gt;Node16</title>
<g id="a_edge24_Node000015_Node000016"><a xlink:title=" ">
<path fill="none" stroke="#63b8ff" d="M287.19,-219.84C298.94,-210.91 314.08,-199.41 326,-190.35"/>
<polygon fill="#63b8ff" stroke="#63b8ff" points="328.17,-193.1 334.01,-184.27 323.93,-187.53 328.17,-193.1"/>
</a>
</g>
</g>
</g>
</svg>
