<?xml version="1.0" encoding="UTF-8" standalone="no"?>
<!DOCTYPE svg PUBLIC "-//W3C//DTD SVG 1.1//EN"
 "http://www.w3.org/Graphics/SVG/1.1/DTD/svg11.dtd">
<!-- Generated by graphviz version 2.43.0 (0)
 -->
<!-- Title: include/jsonrpc/server/request.hpp Pages: 1 -->
<svg width="500pt" height="324pt"
 viewBox="0.00 0.00 500.00 324.00" xmlns="http://www.w3.org/2000/svg" xmlns:xlink="http://www.w3.org/1999/xlink">
<g id="graph0" class="graph" transform="scale(1 1) rotate(0) translate(4 320)">
<title>include/jsonrpc/server/request.hpp</title>
<!-- Node1 -->
<g id="Node000001" class="node">
<title>Node1</title>
<g id="a_Node000001"><a xlink:title=" ">
<polygon fill="#999999" stroke="#666666" points="401,-316 277,-316 277,-286 401,-286 401,-316"/>
<text text-anchor="start" x="285" y="-304" font-family="Helvetica,sans-Serif" font-size="10.00">include/jsonrpc/server</text>
<text text-anchor="middle" x="339" y="-293" font-family="Helvetica,sans-Serif" font-size="10.00">/request.hpp</text>
</a>
</g>
</g>
<!-- Node2 -->
<g id="Node000002" class="node">
<title>Node2</title>
<g id="a_Node000002"><a xlink:href="dispatcher_8hpp.html" target="_top" xlink:title=" ">
<polygon fill="white" stroke="#666666" points="330,-250 206,-250 206,-220 330,-220 330,-250"/>
<text text-anchor="start" x="214" y="-238" font-family="Helvetica,sans-Serif" font-size="10.00">include/jsonrpc/server</text>
<text text-anchor="middle" x="268" y="-227" font-family="Helvetica,sans-Serif" font-size="10.00">/dispatcher.hpp</text>
</a>
</g>
</g>
<!-- Node1&#45;&gt;Node2 -->
<g id="edge1_Node000001_Node000002" class="edge">
<title>Node1&#45;&gt;Node2</title>
<g id="a_edge1_Node000001_Node000002"><a xlink:title=" ">
<path fill="none" stroke="#63b8ff" d="M315.62,-278.92C305.15,-269.49 293.08,-258.61 283.71,-250.16"/>
<polygon fill="#63b8ff" stroke="#63b8ff" points="313.47,-281.7 323.24,-285.8 318.16,-276.5 313.47,-281.7"/>
</a>
</g>
</g>
<!-- Node11 -->
<g id="Node000011" class="node">
<title>Node11</title>
<g id="a_Node000011"><a xlink:href="server_2request_8cpp.html" target="_top" xlink:title=" ">
<polygon fill="white" stroke="#666666" points="473.5,-244.5 348.5,-244.5 348.5,-225.5 473.5,-225.5 473.5,-244.5"/>
<text text-anchor="middle" x="411" y="-232.5" font-family="Helvetica,sans-Serif" font-size="10.00">src/server/request.cpp</text>
</a>
</g>
</g>
<!-- Node1&#45;&gt;Node11 -->
<g id="edge12_Node000001_Node000011" class="edge">
<title>Node1&#45;&gt;Node11</title>
<g id="a_edge12_Node000001_Node000011"><a xlink:title=" ">
<path fill="none" stroke="#63b8ff" d="M362.7,-278.93C375.73,-267.35 391.19,-253.61 401.05,-244.84"/>
<polygon fill="#63b8ff" stroke="#63b8ff" points="360.13,-276.54 354.98,-285.8 364.78,-281.77 360.13,-276.54"/>
</a>
</g>
</g>
<!-- Node3 -->
<g id="Node000003" class="node">
<title>Node3</title>
<g id="a_Node000003"><a xlink:href="server_8hpp.html" target="_top" xlink:title=" ">
<polygon fill="white" stroke="#666666" points="124,-112.5 0,-112.5 0,-82.5 124,-82.5 124,-112.5"/>
<text text-anchor="start" x="8" y="-100.5" font-family="Helvetica,sans-Serif" font-size="10.00">include/jsonrpc/server</text>
<text text-anchor="middle" x="62" y="-89.5" font-family="Helvetica,sans-Serif" font-size="10.00">/server.hpp</text>
</a>
</g>
</g>
<!-- Node2&#45;&gt;Node3 -->
<g id="edge2_Node000002_Node000003" class="edge">
<title>Node2&#45;&gt;Node3</title>
<g id="a_edge2_Node000002_Node000003"><a xlink:title=" ">
<path fill="none" stroke="#63b8ff" d="M195.95,-221.46C168.52,-214.01 138.29,-202.3 115,-184 90.83,-165.01 74.84,-131.72 67.21,-112.77"/>
<polygon fill="#63b8ff" stroke="#63b8ff" points="195.36,-224.92 205.91,-224.02 197.1,-218.14 195.36,-224.92"/>
</a>
</g>
</g>
<!-- Node5 -->
<g id="Node000005" class="node">
<title>Node5</title>
<g id="a_Node000005"><a xlink:href="server__transport_8hpp.html" target="_top" xlink:title=" ">
<polygon fill="white" stroke="#666666" points="297.5,-184 124.5,-184 124.5,-154 297.5,-154 297.5,-184"/>
<text text-anchor="start" x="132.5" y="-172" font-family="Helvetica,sans-Serif" font-size="10.00">include/jsonrpc/server</text>
<text text-anchor="middle" x="211" y="-161" font-family="Helvetica,sans-Serif" font-size="10.00">/transports/server_transport.hpp</text>
</a>
</g>
</g>
<!-- Node2&#45;&gt;Node5 -->
<g id="edge4_Node000002_Node000005" class="edge">
<title>Node2&#45;&gt;Node5</title>
<g id="a_edge4_Node000002_Node000005"><a xlink:title=" ">
<path fill="none" stroke="#63b8ff" d="M248.48,-212.09C240.26,-202.85 230.91,-192.36 223.61,-184.16"/>
<polygon fill="#63b8ff" stroke="#63b8ff" points="246.09,-214.66 255.35,-219.8 251.31,-210 246.09,-214.66"/>
</a>
</g>
</g>
<!-- Node8 -->
<g id="Node000008" class="node">
<title>Node8</title>
<g id="a_Node000008"><a xlink:href="stdio__server__transport_8hpp.html" target="_top" xlink:title=" ">
<polygon fill="white" stroke="#666666" points="430,-118 298,-118 298,-77 430,-77 430,-118"/>
<text text-anchor="start" x="306" y="-106" font-family="Helvetica,sans-Serif" font-size="10.00">include/jsonrpc/server</text>
<text text-anchor="start" x="306" y="-95" font-family="Helvetica,sans-Serif" font-size="10.00">/transports/stdio_server</text>
<text text-anchor="middle" x="364" y="-84" font-family="Helvetica,sans-Serif" font-size="10.00">_transport.hpp</text>
</a>
</g>
</g>
<!-- Node2&#45;&gt;Node8 -->
<g id="edge10_Node000002_Node000008" class="edge">
<title>Node2&#45;&gt;Node8</title>
<g id="a_edge10_Node000002_Node000008"><a xlink:title=" ">
<path fill="none" stroke="#63b8ff" d="M285.38,-211.67C291.94,-203.09 299.42,-193.16 306,-184 322.01,-161.71 339.6,-135.52 351.16,-118.06"/>
<polygon fill="#63b8ff" stroke="#63b8ff" points="282.51,-209.65 279.18,-219.71 288.06,-213.93 282.51,-209.65"/>
</a>
</g>
</g>
<!-- Node10 -->
<g id="Node000010" class="node">
<title>Node10</title>
<g id="a_Node000010"><a xlink:href="dispatcher_8cpp.html" target="_top" xlink:title=" ">
<polygon fill="white" stroke="#666666" points="492,-178.5 354,-178.5 354,-159.5 492,-159.5 492,-178.5"/>
<text text-anchor="middle" x="423" y="-166.5" font-family="Helvetica,sans-Serif" font-size="10.00">src/server/dispatcher.cpp</text>
</a>
</g>
</g>
<!-- Node2&#45;&gt;Node10 -->
<g id="edge11_Node000002_Node000010" class="edge">
<title>Node2&#45;&gt;Node10</title>
<g id="a_edge11_Node000002_Node000010"><a xlink:title=" ">
<path fill="none" stroke="#63b8ff" d="M311.35,-216.1C341.1,-203.82 379.25,-188.06 402.37,-178.52"/>
<polygon fill="#63b8ff" stroke="#63b8ff" points="309.92,-212.9 302.02,-219.95 312.59,-219.37 309.92,-212.9"/>
</a>
</g>
</g>
<!-- Node4 -->
<g id="Node000004" class="node">
<title>Node4</title>
<g id="a_Node000004"><a xlink:href="server_8cpp.html" target="_top" xlink:title=" ">
<polygon fill="white" stroke="#666666" points="121,-30 3,-30 3,-11 121,-11 121,-30"/>
<text text-anchor="middle" x="62" y="-18" font-family="Helvetica,sans-Serif" font-size="10.00">src/server/server.cpp</text>
</a>
</g>
</g>
<!-- Node3&#45;&gt;Node4 -->
<g id="edge3_Node000003_Node000004" class="edge">
<title>Node3&#45;&gt;Node4</title>
<g id="a_edge3_Node000003_Node000004"><a xlink:title=" ">
<path fill="none" stroke="#63b8ff" d="M62,-72.18C62,-57.86 62,-40.61 62,-30.37"/>
<polygon fill="#63b8ff" stroke="#63b8ff" points="58.5,-72.39 62,-82.39 65.5,-72.39 58.5,-72.39"/>
</a>
</g>
</g>
<!-- Node5&#45;&gt;Node3 -->
<g id="edge5_Node000005_Node000003" class="edge">
<title>Node5&#45;&gt;Node3</title>
<g id="a_edge5_Node000005_Node000003"><a xlink:title=" ">
<path fill="none" stroke="#63b8ff" d="M171.66,-149.65C146.75,-138.03 115.02,-123.23 92.11,-112.54"/>
<polygon fill="#63b8ff" stroke="#63b8ff" points="170.31,-152.88 180.85,-153.94 173.26,-146.54 170.31,-152.88"/>
</a>
</g>
</g>
<!-- Node6 -->
<g id="Node000006" class="node">
<title>Node6</title>
<g id="a_Node000006"><a xlink:href="framed__stdio__server__transport_8hpp.html" target="_top" xlink:title=" ">
<polygon fill="white" stroke="#666666" points="279.5,-118 142.5,-118 142.5,-77 279.5,-77 279.5,-118"/>
<text text-anchor="start" x="150.5" y="-106" font-family="Helvetica,sans-Serif" font-size="10.00">include/jsonrpc/server</text>
<text text-anchor="start" x="150.5" y="-95" font-family="Helvetica,sans-Serif" font-size="10.00">/transports/framed_stdio</text>
<text text-anchor="middle" x="211" y="-84" font-family="Helvetica,sans-Serif" font-size="10.00">_server_transport.hpp</text>
</a>
</g>
</g>
<!-- Node5&#45;&gt;Node6 -->
<g id="edge6_Node000005_Node000006" class="edge">
<title>Node5&#45;&gt;Node6</title>
<g id="a_edge6_Node000005_Node000006"><a xlink:title=" ">
<path fill="none" stroke="#63b8ff" d="M211,-143.91C211,-135.47 211,-126.1 211,-118.07"/>
<polygon fill="#63b8ff" stroke="#63b8ff" points="207.5,-143.94 211,-153.94 214.5,-143.94 207.5,-143.94"/>
</a>
</g>
</g>
<!-- Node5&#45;&gt;Node8 -->
<g id="edge8_Node000005_Node000008" class="edge">
<title>Node5&#45;&gt;Node8</title>
<g id="a_edge8_Node000005_Node000008"><a xlink:title=" ">
<path fill="none" stroke="#63b8ff" d="M251.13,-149.77C272.59,-140.02 299.02,-128.02 320.91,-118.07"/>
<polygon fill="#63b8ff" stroke="#63b8ff" points="249.62,-146.61 241.96,-153.94 252.51,-152.99 249.62,-146.61"/>
</a>
</g>
</g>
<!-- Node7 -->
<g id="Node000007" class="node">
<title>Node7</title>
<g id="a_Node000007"><a xlink:href="framed__stdio__server__transport_8cpp.html" target="_top" xlink:title=" ">
<polygon fill="white" stroke="#666666" points="271,-41 151,-41 151,0 271,0 271,-41"/>
<text text-anchor="start" x="159" y="-29" font-family="Helvetica,sans-Serif" font-size="10.00">src/server/transports</text>
<text text-anchor="start" x="159" y="-18" font-family="Helvetica,sans-Serif" font-size="10.00">/framed_stdio_server</text>
<text text-anchor="middle" x="211" y="-7" font-family="Helvetica,sans-Serif" font-size="10.00">_transport.cpp</text>
</a>
</g>
</g>
<!-- Node6&#45;&gt;Node7 -->
<g id="edge7_Node000006_Node000007" class="edge">
<title>Node6&#45;&gt;Node7</title>
<g id="a_edge7_Node000006_Node000007"><a xlink:title=" ">
<path fill="none" stroke="#63b8ff" d="M211,-66.69C211,-58.08 211,-48.9 211,-41.07"/>
<polygon fill="#63b8ff" stroke="#63b8ff" points="207.5,-66.79 211,-76.79 214.5,-66.79 207.5,-66.79"/>
</a>
</g>
</g>
<!-- Node9 -->
<g id="Node000009" class="node">
<title>Node9</title>
<g id="a_Node000009"><a xlink:href="stdio__server__transport_8cpp.html" target="_top" xlink:title=" ">
<polygon fill="white" stroke="#666666" points="438.5,-35.5 289.5,-35.5 289.5,-5.5 438.5,-5.5 438.5,-35.5"/>
<text text-anchor="start" x="297.5" y="-23.5" font-family="Helvetica,sans-Serif" font-size="10.00">src/server/transports</text>
<text text-anchor="middle" x="364" y="-12.5" font-family="Helvetica,sans-Serif" font-size="10.00">/stdio_server_transport.cpp</text>
</a>
</g>
</g>
<!-- Node8&#45;&gt;Node9 -->
<g id="edge9_Node000008_Node000009" class="edge">
<title>Node8&#45;&gt;Node9</title>
<g id="a_edge9_Node000008_Node000009"><a xlink:title=" ">
<path fill="none" stroke="#63b8ff" d="M364,-66.61C364,-56.01 364,-44.57 364,-35.86"/>
<polygon fill="#63b8ff" stroke="#63b8ff" points="360.5,-66.79 364,-76.79 367.5,-66.79 360.5,-66.79"/>
</a>
</g>
</g>
</g>
</svg>
