<?xml version="1.0" encoding="UTF-8" standalone="no"?>
<!DOCTYPE svg PUBLIC "-//W3C//DTD SVG 1.1//EN"
 "http://www.w3.org/Graphics/SVG/1.1/DTD/svg11.dtd">
<!-- Generated by graphviz version 2.43.0 (0)
 -->
<!-- Title: src/server/server.cpp Pages: 1 -->
<svg width="853pt" height="313pt"
 viewBox="0.00 0.00 853.00 313.00" xmlns="http://www.w3.org/2000/svg" xmlns:xlink="http://www.w3.org/1999/xlink">
<g id="graph0" class="graph" transform="scale(1 1) rotate(0) translate(4 309)">
<title>src/server/server.cpp</title>
<!-- Node1 -->
<g id="Node000001" class="node">
<title>Node1</title>
<g id="a_Node000001"><a xlink:title=" ">
<polygon fill="#999999" stroke="#666666" points="486.5,-305 368.5,-305 368.5,-286 486.5,-286 486.5,-305"/>
<text text-anchor="middle" x="427.5" y="-293" font-family="Helvetica,sans-Serif" font-size="10.00">src/server/server.cpp</text>
</a>
</g>
</g>
<!-- Node2 -->
<g id="Node000002" class="node">
<title>Node2</title>
<g id="a_Node000002"><a xlink:href="server_8hpp.html" target="_top" xlink:title=" ">
<polygon fill="white" stroke="#666666" points="430.5,-250 290.5,-250 290.5,-231 430.5,-231 430.5,-250"/>
<text text-anchor="middle" x="360.5" y="-238" font-family="Helvetica,sans-Serif" font-size="10.00">jsonrpc/server/server.hpp</text>
</a>
</g>
</g>
<!-- Node1&#45;&gt;Node2 -->
<g id="edge1_Node000001_Node000002" class="edge">
<title>Node1&#45;&gt;Node2</title>
<g id="a_edge1_Node000001_Node000002"><a xlink:title=" ">
<path fill="none" stroke="#63b8ff" d="M416.74,-285.98C406.73,-278.07 391.61,-266.11 379.57,-256.58"/>
<polygon fill="#63b8ff" stroke="#63b8ff" points="381.47,-253.63 371.46,-250.17 377.13,-259.12 381.47,-253.63"/>
</a>
</g>
</g>
<!-- Node18 -->
<g id="Node000018" class="node">
<title>Node18</title>
<g id="a_Node000018"><a xlink:title=" ">
<polygon fill="#e0e0e0" stroke="#999999" points="542,-250 449,-250 449,-231 542,-231 542,-250"/>
<text text-anchor="middle" x="495.5" y="-238" font-family="Helvetica,sans-Serif" font-size="10.00">spdlog/spdlog.h</text>
</a>
</g>
</g>
<!-- Node1&#45;&gt;Node18 -->
<g id="edge30_Node000001_Node000018" class="edge">
<title>Node1&#45;&gt;Node18</title>
<g id="a_edge30_Node000001_Node000018"><a xlink:title=" ">
<path fill="none" stroke="#63b8ff" d="M438.43,-285.98C448.58,-278.07 463.92,-266.11 476.15,-256.58"/>
<polygon fill="#63b8ff" stroke="#63b8ff" points="478.64,-259.08 484.38,-250.17 474.34,-253.56 478.64,-259.08"/>
</a>
</g>
</g>
<!-- Node3 -->
<g id="Node000003" class="node">
<title>Node3</title>
<g id="a_Node000003"><a xlink:title=" ">
<polygon fill="#e0e0e0" stroke="#999999" points="292.5,-129 234.5,-129 234.5,-110 292.5,-110 292.5,-129"/>
<text text-anchor="middle" x="263.5" y="-117" font-family="Helvetica,sans-Serif" font-size="10.00">memory</text>
</a>
</g>
</g>
<!-- Node2&#45;&gt;Node3 -->
<g id="edge2_Node000002_Node000003" class="edge">
<title>Node2&#45;&gt;Node3</title>
<g id="a_edge2_Node000002_Node000003"><a xlink:title=" ">
<path fill="none" stroke="#63b8ff" d="M334.74,-230.91C317.5,-223.88 295.63,-212.24 282.5,-195 270.26,-178.94 265.85,-155.84 264.29,-139.64"/>
<polygon fill="#63b8ff" stroke="#63b8ff" points="267.76,-138.99 263.59,-129.25 260.77,-139.47 267.76,-138.99"/>
</a>
</g>
</g>
<!-- Node4 -->
<g id="Node000004" class="node">
<title>Node4</title>
<g id="a_Node000004"><a xlink:title=" ">
<polygon fill="#e0e0e0" stroke="#999999" points="183.5,-19 139.5,-19 139.5,0 183.5,0 183.5,-19"/>
<text text-anchor="middle" x="161.5" y="-7" font-family="Helvetica,sans-Serif" font-size="10.00">string</text>
</a>
</g>
</g>
<!-- Node2&#45;&gt;Node4 -->
<g id="edge3_Node000002_Node000004" class="edge">
<title>Node2&#45;&gt;Node4</title>
<g id="a_edge3_Node000002_Node000004"><a xlink:title=" ">
<path fill="none" stroke="#63b8ff" d="M324.44,-230.99C261.05,-213.82 131.54,-168.37 80.5,-74 66.96,-48.97 101.6,-30.51 129.72,-20.13"/>
<polygon fill="#63b8ff" stroke="#63b8ff" points="131.01,-23.39 139.31,-16.8 128.71,-16.78 131.01,-23.39"/>
</a>
</g>
</g>
<!-- Node5 -->
<g id="Node000005" class="node">
<title>Node5</title>
<g id="a_Node000005"><a xlink:href="dispatcher_8hpp.html" target="_top" xlink:title=" ">
<polygon fill="white" stroke="#666666" points="538.5,-129 378.5,-129 378.5,-110 538.5,-110 538.5,-129"/>
<text text-anchor="middle" x="458.5" y="-117" font-family="Helvetica,sans-Serif" font-size="10.00">jsonrpc/server/dispatcher.hpp</text>
</a>
</g>
</g>
<!-- Node2&#45;&gt;Node5 -->
<g id="edge4_Node000002_Node000005" class="edge">
<title>Node2&#45;&gt;Node5</title>
<g id="a_edge4_Node000002_Node000005"><a xlink:title=" ">
<path fill="none" stroke="#63b8ff" d="M386.19,-230.86C403.4,-223.8 425.26,-212.16 438.5,-195 450.88,-178.96 455.61,-155.86 457.41,-139.65"/>
<polygon fill="#63b8ff" stroke="#63b8ff" points="460.94,-139.51 458.27,-129.26 453.96,-138.94 460.94,-139.51"/>
</a>
</g>
</g>
<!-- Node13 -->
<g id="Node000013" class="node">
<title>Node13</title>
<g id="a_Node000013"><a xlink:href="types_8hpp.html" target="_top" xlink:title=" ">
<polygon fill="white" stroke="#666666" points="845,-74 708,-74 708,-55 845,-55 845,-74"/>
<text text-anchor="middle" x="776.5" y="-62" font-family="Helvetica,sans-Serif" font-size="10.00">jsonrpc/server/types.hpp</text>
</a>
</g>
</g>
<!-- Node2&#45;&gt;Node13 -->
<g id="edge29_Node000002_Node000013" class="edge">
<title>Node2&#45;&gt;Node13</title>
<g id="a_edge29_Node000002_Node000013"><a xlink:title=" ">
<path fill="none" stroke="#63b8ff" d="M380.85,-230.99C448.43,-202.72 665.68,-111.85 746.15,-78.19"/>
<polygon fill="#63b8ff" stroke="#63b8ff" points="747.83,-81.29 755.7,-74.2 745.13,-74.83 747.83,-81.29"/>
</a>
</g>
</g>
<!-- Node16 -->
<g id="Node000016" class="node">
<title>Node16</title>
<g id="a_Node000016"><a xlink:href="server__transport_8hpp.html" target="_top" xlink:title=" ">
<polygon fill="white" stroke="#666666" points="429.5,-195 291.5,-195 291.5,-165 429.5,-165 429.5,-195"/>
<text text-anchor="start" x="299.5" y="-183" font-family="Helvetica,sans-Serif" font-size="10.00">jsonrpc/server/transports</text>
<text text-anchor="middle" x="360.5" y="-172" font-family="Helvetica,sans-Serif" font-size="10.00">/server_transport.hpp</text>
</a>
</g>
</g>
<!-- Node2&#45;&gt;Node16 -->
<g id="edge25_Node000002_Node000016" class="edge">
<title>Node2&#45;&gt;Node16</title>
<g id="a_edge25_Node000002_Node000016"><a xlink:title=" ">
<path fill="none" stroke="#63b8ff" d="M360.5,-230.87C360.5,-224.11 360.5,-214.35 360.5,-205.26"/>
<polygon fill="#63b8ff" stroke="#63b8ff" points="364,-205.11 360.5,-195.11 357,-205.11 364,-205.11"/>
</a>
</g>
</g>
<!-- Node5&#45;&gt;Node4 -->
<g id="edge6_Node000005_Node000004" class="edge">
<title>Node5&#45;&gt;Node4</title>
<g id="a_edge6_Node000005_Node000004"><a xlink:title=" ">
<path fill="none" stroke="#63b8ff" d="M378.38,-110.17C271.29,-98.84 94.27,-79.38 89.5,-74 72.17,-54.45 103.05,-35.04 129.61,-22.92"/>
<polygon fill="#63b8ff" stroke="#63b8ff" points="131.32,-25.99 139.1,-18.8 128.53,-19.57 131.32,-25.99"/>
</a>
</g>
</g>
<!-- Node6 -->
<g id="Node000006" class="node">
<title>Node6</title>
<g id="a_Node000006"><a xlink:title=" ">
<polygon fill="#e0e0e0" stroke="#999999" points="408.5,-19 352.5,-19 352.5,0 408.5,0 408.5,-19"/>
<text text-anchor="middle" x="380.5" y="-7" font-family="Helvetica,sans-Serif" font-size="10.00">optional</text>
</a>
</g>
</g>
<!-- Node5&#45;&gt;Node6 -->
<g id="edge5_Node000005_Node000006" class="edge">
<title>Node5&#45;&gt;Node6</title>
<g id="a_edge5_Node000005_Node000006"><a xlink:title=" ">
<path fill="none" stroke="#63b8ff" d="M538.56,-112.45C593.28,-105.2 651.13,-89.37 622.5,-55 609.58,-39.49 483.86,-22.63 418.92,-14.86"/>
<polygon fill="#63b8ff" stroke="#63b8ff" points="419.01,-11.35 408.67,-13.65 418.19,-18.3 419.01,-11.35"/>
</a>
</g>
</g>
<!-- Node7 -->
<g id="Node000007" class="node">
<title>Node7</title>
<g id="a_Node000007"><a xlink:title=" ">
<polygon fill="#e0e0e0" stroke="#999999" points="93,-19 0,-19 0,0 93,0 93,-19"/>
<text text-anchor="middle" x="46.5" y="-7" font-family="Helvetica,sans-Serif" font-size="10.00">unordered_map</text>
</a>
</g>
</g>
<!-- Node5&#45;&gt;Node7 -->
<g id="edge7_Node000005_Node000007" class="edge">
<title>Node5&#45;&gt;Node7</title>
<g id="a_edge7_Node000005_Node000007"><a xlink:title=" ">
<path fill="none" stroke="#63b8ff" d="M378.14,-109.97C268.98,-98.26 86.61,-78.16 80.5,-74 65.18,-63.56 56.21,-43.92 51.36,-29.24"/>
<polygon fill="#63b8ff" stroke="#63b8ff" points="54.59,-27.82 48.42,-19.21 47.87,-29.79 54.59,-27.82"/>
</a>
</g>
</g>
<!-- Node8 -->
<g id="Node000008" class="node">
<title>Node8</title>
<g id="a_Node000008"><a xlink:title=" ">
<polygon fill="#e0e0e0" stroke="#999999" points="482,-74 435,-74 435,-55 482,-55 482,-74"/>
<text text-anchor="middle" x="458.5" y="-62" font-family="Helvetica,sans-Serif" font-size="10.00">vector</text>
</a>
</g>
</g>
<!-- Node5&#45;&gt;Node8 -->
<g id="edge8_Node000005_Node000008" class="edge">
<title>Node5&#45;&gt;Node8</title>
<g id="a_edge8_Node000005_Node000008"><a xlink:title=" ">
<path fill="none" stroke="#63b8ff" d="M458.5,-109.75C458.5,-102.8 458.5,-92.85 458.5,-84.13"/>
<polygon fill="#63b8ff" stroke="#63b8ff" points="462,-84.09 458.5,-74.09 455,-84.09 462,-84.09"/>
</a>
</g>
</g>
<!-- Node9 -->
<g id="Node000009" class="node">
<title>Node9</title>
<g id="a_Node000009"><a xlink:title=" ">
<polygon fill="#e0e0e0" stroke="#999999" points="613,-74 500,-74 500,-55 613,-55 613,-74"/>
<text text-anchor="middle" x="556.5" y="-62" font-family="Helvetica,sans-Serif" font-size="10.00">BS_thread_pool.hpp</text>
</a>
</g>
</g>
<!-- Node5&#45;&gt;Node9 -->
<g id="edge9_Node000005_Node000009" class="edge">
<title>Node5&#45;&gt;Node9</title>
<g id="a_edge9_Node000005_Node000009"><a xlink:title=" ">
<path fill="none" stroke="#63b8ff" d="M474.25,-109.98C489.73,-101.61 513.59,-88.7 531.64,-78.95"/>
<polygon fill="#63b8ff" stroke="#63b8ff" points="533.34,-82.01 540.47,-74.17 530.01,-75.85 533.34,-82.01"/>
</a>
</g>
</g>
<!-- Node10 -->
<g id="Node000010" class="node">
<title>Node10</title>
<g id="a_Node000010"><a xlink:title=" ">
<polygon fill="#e0e0e0" stroke="#999999" points="612.5,-19 502.5,-19 502.5,0 612.5,0 612.5,-19"/>
<text text-anchor="middle" x="557.5" y="-7" font-family="Helvetica,sans-Serif" font-size="10.00">nlohmann/json.hpp</text>
</a>
</g>
</g>
<!-- Node5&#45;&gt;Node10 -->
<g id="edge10_Node000005_Node000010" class="edge">
<title>Node5&#45;&gt;Node10</title>
<g id="a_edge10_Node000005_Node000010"><a xlink:title=" ">
<path fill="none" stroke="#63b8ff" d="M530.12,-109.98C574.58,-103.05 625.77,-91.51 639.5,-74 656.47,-52.36 624,-33.94 595.05,-22.6"/>
<polygon fill="#63b8ff" stroke="#63b8ff" points="596.03,-19.23 585.44,-19.03 593.59,-25.79 596.03,-19.23"/>
</a>
</g>
</g>
<!-- Node11 -->
<g id="Node000011" class="node">
<title>Node11</title>
<g id="a_Node000011"><a xlink:href="server_2request_8hpp.html" target="_top" xlink:title=" ">
<polygon fill="white" stroke="#666666" points="416.5,-74 270.5,-74 270.5,-55 416.5,-55 416.5,-74"/>
<text text-anchor="middle" x="343.5" y="-62" font-family="Helvetica,sans-Serif" font-size="10.00">jsonrpc/server/request.hpp</text>
</a>
</g>
</g>
<!-- Node5&#45;&gt;Node11 -->
<g id="edge11_Node000005_Node000011" class="edge">
<title>Node5&#45;&gt;Node11</title>
<g id="a_edge11_Node000005_Node000011"><a xlink:title=" ">
<path fill="none" stroke="#63b8ff" d="M440.02,-109.98C421.52,-101.46 392.82,-88.23 371.52,-78.41"/>
<polygon fill="#63b8ff" stroke="#63b8ff" points="372.86,-75.18 362.31,-74.17 369.93,-81.53 372.86,-75.18"/>
</a>
</g>
</g>
<!-- Node12 -->
<g id="Node000012" class="node">
<title>Node12</title>
<g id="a_Node000012"><a xlink:href="response_8hpp.html" target="_top" xlink:title=" ">
<polygon fill="white" stroke="#666666" points="252.5,-74 98.5,-74 98.5,-55 252.5,-55 252.5,-74"/>
<text text-anchor="middle" x="175.5" y="-62" font-family="Helvetica,sans-Serif" font-size="10.00">jsonrpc/server/response.hpp</text>
</a>
</g>
</g>
<!-- Node5&#45;&gt;Node12 -->
<g id="edge15_Node000005_Node000012" class="edge">
<title>Node5&#45;&gt;Node12</title>
<g id="a_edge15_Node000005_Node000012"><a xlink:title=" ">
<path fill="none" stroke="#63b8ff" d="M413.03,-109.98C363.56,-100.72 284.45,-85.9 231.27,-75.94"/>
<polygon fill="#63b8ff" stroke="#63b8ff" points="231.8,-72.48 221.33,-74.08 230.51,-79.36 231.8,-72.48"/>
</a>
</g>
</g>
<!-- Node5&#45;&gt;Node13 -->
<g id="edge20_Node000005_Node000013" class="edge">
<title>Node5&#45;&gt;Node13</title>
<g id="a_edge20_Node000005_Node000013"><a xlink:title=" ">
<path fill="none" stroke="#63b8ff" d="M509.59,-109.98C565.61,-100.65 655.45,-85.67 715.21,-75.71"/>
<polygon fill="#63b8ff" stroke="#63b8ff" points="715.98,-79.13 725.27,-74.04 714.83,-72.23 715.98,-79.13"/>
</a>
</g>
</g>
<!-- Node11&#45;&gt;Node4 -->
<g id="edge13_Node000011_Node000004" class="edge">
<title>Node11&#45;&gt;Node4</title>
<g id="a_edge13_Node000011_Node000004"><a xlink:title=" ">
<path fill="none" stroke="#63b8ff" d="M314.26,-54.98C281.2,-45.36 227.56,-29.74 193.43,-19.8"/>
<polygon fill="#63b8ff" stroke="#63b8ff" points="194.09,-16.35 183.51,-16.91 192.14,-23.07 194.09,-16.35"/>
</a>
</g>
</g>
<!-- Node11&#45;&gt;Node6 -->
<g id="edge12_Node000011_Node000006" class="edge">
<title>Node11&#45;&gt;Node6</title>
<g id="a_edge12_Node000011_Node000006"><a xlink:title=" ">
<path fill="none" stroke="#63b8ff" d="M349.61,-54.75C354.78,-47.34 362.35,-36.5 368.69,-27.41"/>
<polygon fill="#63b8ff" stroke="#63b8ff" points="371.65,-29.29 374.5,-19.09 365.91,-25.29 371.65,-29.29"/>
</a>
</g>
</g>
<!-- Node11&#45;&gt;Node10 -->
<g id="edge14_Node000011_Node000010" class="edge">
<title>Node11&#45;&gt;Node10</title>
<g id="a_edge14_Node000011_Node000010"><a xlink:title=" ">
<path fill="none" stroke="#63b8ff" d="M377.88,-54.98C414.59,-45.89 472.88,-31.46 513.05,-21.51"/>
<polygon fill="#63b8ff" stroke="#63b8ff" points="513.98,-24.88 522.85,-19.08 512.3,-18.09 513.98,-24.88"/>
</a>
</g>
</g>
<!-- Node12&#45;&gt;Node4 -->
<g id="edge17_Node000012_Node000004" class="edge">
<title>Node12&#45;&gt;Node4</title>
<g id="a_edge17_Node000012_Node000004"><a xlink:title=" ">
<path fill="none" stroke="#63b8ff" d="M173.19,-54.75C171.33,-47.72 168.66,-37.62 166.35,-28.84"/>
<polygon fill="#63b8ff" stroke="#63b8ff" points="169.71,-27.86 163.77,-19.09 162.94,-29.65 169.71,-27.86"/>
</a>
</g>
</g>
<!-- Node12&#45;&gt;Node6 -->
<g id="edge16_Node000012_Node000006" class="edge">
<title>Node12&#45;&gt;Node6</title>
<g id="a_edge16_Node000012_Node000006"><a xlink:title=" ">
<path fill="none" stroke="#63b8ff" d="M208.44,-54.98C245.01,-45.53 303.95,-30.29 342.46,-20.33"/>
<polygon fill="#63b8ff" stroke="#63b8ff" points="343.46,-23.69 352.26,-17.8 341.71,-16.91 343.46,-23.69"/>
</a>
</g>
</g>
<!-- Node12&#45;&gt;Node7 -->
<g id="edge18_Node000012_Node000007" class="edge">
<title>Node12&#45;&gt;Node7</title>
<g id="a_edge18_Node000012_Node000007"><a xlink:title=" ">
<path fill="none" stroke="#63b8ff" d="M154.77,-54.98C133.74,-46.34 100.95,-32.87 76.96,-23.02"/>
<polygon fill="#63b8ff" stroke="#63b8ff" points="78.18,-19.73 67.6,-19.17 75.52,-26.21 78.18,-19.73"/>
</a>
</g>
</g>
<!-- Node12&#45;&gt;Node10 -->
<g id="edge19_Node000012_Node000010" class="edge">
<title>Node12&#45;&gt;Node10</title>
<g id="a_edge19_Node000012_Node000010"><a xlink:title=" ">
<path fill="none" stroke="#63b8ff" d="M236.87,-54.98C306.83,-45.28 420.71,-29.48 492.24,-19.55"/>
<polygon fill="#63b8ff" stroke="#63b8ff" points="493.05,-22.98 502.48,-18.13 492.09,-16.04 493.05,-22.98"/>
</a>
</g>
</g>
<!-- Node13&#45;&gt;Node6 -->
<g id="edge22_Node000013_Node000006" class="edge">
<title>Node13&#45;&gt;Node6</title>
<g id="a_edge22_Node000013_Node000006"><a xlink:title=" ">
<path fill="none" stroke="#63b8ff" d="M712.88,-54.98C629.86,-43.87 487.19,-24.78 418.99,-15.65"/>
<polygon fill="#63b8ff" stroke="#63b8ff" points="419.08,-12.13 408.7,-14.27 418.15,-19.07 419.08,-12.13"/>
</a>
</g>
</g>
<!-- Node13&#45;&gt;Node10 -->
<g id="edge24_Node000013_Node000010" class="edge">
<title>Node13&#45;&gt;Node10</title>
<g id="a_edge24_Node000013_Node000010"><a xlink:title=" ">
<path fill="none" stroke="#63b8ff" d="M741.31,-54.98C703.67,-45.87 643.84,-31.4 602.73,-21.45"/>
<polygon fill="#63b8ff" stroke="#63b8ff" points="603.5,-18.03 592.96,-19.08 601.86,-24.84 603.5,-18.03"/>
</a>
</g>
</g>
<!-- Node14 -->
<g id="Node000014" class="node">
<title>Node14</title>
<g id="a_Node000014"><a xlink:title=" ">
<polygon fill="#e0e0e0" stroke="#999999" points="771,-19 706,-19 706,0 771,0 771,-19"/>
<text text-anchor="middle" x="738.5" y="-7" font-family="Helvetica,sans-Serif" font-size="10.00">functional</text>
</a>
</g>
</g>
<!-- Node13&#45;&gt;Node14 -->
<g id="edge21_Node000013_Node000014" class="edge">
<title>Node13&#45;&gt;Node14</title>
<g id="a_edge21_Node000013_Node000014"><a xlink:title=" ">
<path fill="none" stroke="#63b8ff" d="M770.23,-54.75C764.91,-47.34 757.14,-36.5 750.62,-27.41"/>
<polygon fill="#63b8ff" stroke="#63b8ff" points="753.33,-25.18 744.66,-19.09 747.64,-29.26 753.33,-25.18"/>
</a>
</g>
</g>
<!-- Node15 -->
<g id="Node000015" class="node">
<title>Node15</title>
<g id="a_Node000015"><a xlink:title=" ">
<polygon fill="#e0e0e0" stroke="#999999" points="840,-19 789,-19 789,0 840,0 840,-19"/>
<text text-anchor="middle" x="814.5" y="-7" font-family="Helvetica,sans-Serif" font-size="10.00">variant</text>
</a>
</g>
</g>
<!-- Node13&#45;&gt;Node15 -->
<g id="edge23_Node000013_Node000015" class="edge">
<title>Node13&#45;&gt;Node15</title>
<g id="a_edge23_Node000013_Node000015"><a xlink:title=" ">
<path fill="none" stroke="#63b8ff" d="M782.77,-54.75C788.09,-47.34 795.86,-36.5 802.38,-27.41"/>
<polygon fill="#63b8ff" stroke="#63b8ff" points="805.36,-29.26 808.34,-19.09 799.67,-25.18 805.36,-29.26"/>
</a>
</g>
</g>
<!-- Node16&#45;&gt;Node3 -->
<g id="edge27_Node000016_Node000003" class="edge">
<title>Node16&#45;&gt;Node3</title>
<g id="a_edge27_Node000016_Node000003"><a xlink:title=" ">
<path fill="none" stroke="#63b8ff" d="M337.02,-164.84C321.7,-155.6 301.79,-143.59 286.55,-134.4"/>
<polygon fill="#63b8ff" stroke="#63b8ff" points="288.12,-131.26 277.75,-129.09 284.51,-137.26 288.12,-131.26"/>
</a>
</g>
</g>
<!-- Node16&#45;&gt;Node5 -->
<g id="edge28_Node000016_Node000005" class="edge">
<title>Node16&#45;&gt;Node5</title>
<g id="a_edge28_Node000016_Node000005"><a xlink:title=" ">
<path fill="none" stroke="#63b8ff" d="M384.22,-164.84C399.7,-155.6 419.82,-143.59 435.21,-134.4"/>
<polygon fill="#63b8ff" stroke="#63b8ff" points="437.31,-137.23 444.1,-129.09 433.72,-131.21 437.31,-137.23"/>
</a>
</g>
</g>
<!-- Node17 -->
<g id="Node000017" class="node">
<title>Node17</title>
<g id="a_Node000017"><a xlink:title=" ">
<polygon fill="#e0e0e0" stroke="#999999" points="360.5,-129 310.5,-129 310.5,-110 360.5,-110 360.5,-129"/>
<text text-anchor="middle" x="335.5" y="-117" font-family="Helvetica,sans-Serif" font-size="10.00">atomic</text>
</a>
</g>
</g>
<!-- Node16&#45;&gt;Node17 -->
<g id="edge26_Node000016_Node000017" class="edge">
<title>Node16&#45;&gt;Node17</title>
<g id="a_edge26_Node000016_Node000017"><a xlink:title=" ">
<path fill="none" stroke="#63b8ff" d="M354.45,-164.84C351.08,-156.95 346.85,-147.05 343.24,-138.61"/>
<polygon fill="#63b8ff" stroke="#63b8ff" points="346.39,-137.09 339.25,-129.27 339.96,-139.84 346.39,-137.09"/>
</a>
</g>
</g>
</g>
</svg>
