<?xml version="1.0" encoding="UTF-8" standalone="no"?>
<!DOCTYPE svg PUBLIC "-//W3C//DTD SVG 1.1//EN"
 "http://www.w3.org/Graphics/SVG/1.1/DTD/svg11.dtd">
<!-- Generated by graphviz version 2.43.0 (0)
 -->
<!-- Title: src/server/server.cpp Pages: 1 -->
<svg width="1074pt" height="247pt"
 viewBox="0.00 0.00 1073.50 247.00" xmlns="http://www.w3.org/2000/svg" xmlns:xlink="http://www.w3.org/1999/xlink">
<g id="graph0" class="graph" transform="scale(1 1) rotate(0) translate(4 243)">
<title>src/server/server.cpp</title>
<!-- Node1 -->
<g id="Node000001" class="node">
<title>Node1</title>
<g id="a_Node000001"><a xlink:title=" ">
<polygon fill="#999999" stroke="#666666" points="335,-239 217,-239 217,-220 335,-220 335,-239"/>
<text text-anchor="middle" x="276" y="-227" font-family="Helvetica,sans-Serif" font-size="10.00">src/server/server.cpp</text>
</a>
</g>
</g>
<!-- Node2 -->
<g id="Node000002" class="node">
<title>Node2</title>
<g id="a_Node000002"><a xlink:href="server_8hpp.html" target="_top" xlink:title=" ">
<polygon fill="white" stroke="#666666" points="279,-184 139,-184 139,-165 279,-165 279,-184"/>
<text text-anchor="middle" x="209" y="-172" font-family="Helvetica,sans-Serif" font-size="10.00">jsonrpc/server/server.hpp</text>
</a>
</g>
</g>
<!-- Node1&#45;&gt;Node2 -->
<g id="edge1_Node000001_Node000002" class="edge">
<title>Node1&#45;&gt;Node2</title>
<g id="a_edge1_Node000001_Node000002"><a xlink:title=" ">
<path fill="none" stroke="#63b8ff" d="M265.24,-219.98C255.23,-212.07 240.11,-200.11 228.07,-190.58"/>
<polygon fill="#63b8ff" stroke="#63b8ff" points="229.97,-187.63 219.96,-184.17 225.63,-193.12 229.97,-187.63"/>
</a>
</g>
</g>
<!-- Node18 -->
<g id="Node000018" class="node">
<title>Node18</title>
<g id="a_Node000018"><a xlink:title=" ">
<polygon fill="#e0e0e0" stroke="#999999" points="390.5,-184 297.5,-184 297.5,-165 390.5,-165 390.5,-184"/>
<text text-anchor="middle" x="344" y="-172" font-family="Helvetica,sans-Serif" font-size="10.00">spdlog/spdlog.h</text>
</a>
</g>
</g>
<!-- Node1&#45;&gt;Node18 -->
<g id="edge29_Node000001_Node000018" class="edge">
<title>Node1&#45;&gt;Node18</title>
<g id="a_edge29_Node000001_Node000018"><a xlink:title=" ">
<path fill="none" stroke="#63b8ff" d="M286.93,-219.98C297.08,-212.07 312.42,-200.11 324.65,-190.58"/>
<polygon fill="#63b8ff" stroke="#63b8ff" points="327.14,-193.08 332.88,-184.17 322.84,-187.56 327.14,-193.08"/>
</a>
</g>
</g>
<!-- Node3 -->
<g id="Node000003" class="node">
<title>Node3</title>
<g id="a_Node000003"><a xlink:title=" ">
<polygon fill="#e0e0e0" stroke="#999999" points="50,-129 0,-129 0,-110 50,-110 50,-129"/>
<text text-anchor="middle" x="25" y="-117" font-family="Helvetica,sans-Serif" font-size="10.00">atomic</text>
</a>
</g>
</g>
<!-- Node2&#45;&gt;Node3 -->
<g id="edge2_Node000002_Node000003" class="edge">
<title>Node2&#45;&gt;Node3</title>
<g id="a_edge2_Node000002_Node000003"><a xlink:title=" ">
<path fill="none" stroke="#63b8ff" d="M179.44,-164.98C146.8,-155.58 94.31,-140.46 59.73,-130.51"/>
<polygon fill="#63b8ff" stroke="#63b8ff" points="60.63,-127.12 50.06,-127.72 58.7,-133.85 60.63,-127.12"/>
</a>
</g>
</g>
<!-- Node4 -->
<g id="Node000004" class="node">
<title>Node4</title>
<g id="a_Node000004"><a xlink:title=" ">
<polygon fill="#e0e0e0" stroke="#999999" points="126,-129 68,-129 68,-110 126,-110 126,-129"/>
<text text-anchor="middle" x="97" y="-117" font-family="Helvetica,sans-Serif" font-size="10.00">memory</text>
</a>
</g>
</g>
<!-- Node2&#45;&gt;Node4 -->
<g id="edge3_Node000002_Node000004" class="edge">
<title>Node2&#45;&gt;Node4</title>
<g id="a_edge3_Node000002_Node000004"><a xlink:title=" ">
<path fill="none" stroke="#63b8ff" d="M191.01,-164.98C173.07,-156.5 145.28,-143.35 124.57,-133.54"/>
<polygon fill="#63b8ff" stroke="#63b8ff" points="125.86,-130.28 115.32,-129.17 122.86,-136.61 125.86,-130.28"/>
</a>
</g>
</g>
<!-- Node5 -->
<g id="Node000005" class="node">
<title>Node5</title>
<g id="a_Node000005"><a xlink:title=" ">
<polygon fill="#e0e0e0" stroke="#999999" points="252,-19 208,-19 208,0 252,0 252,-19"/>
<text text-anchor="middle" x="230" y="-7" font-family="Helvetica,sans-Serif" font-size="10.00">string</text>
</a>
</g>
</g>
<!-- Node2&#45;&gt;Node5 -->
<g id="edge4_Node000002_Node000005" class="edge">
<title>Node2&#45;&gt;Node5</title>
<g id="a_edge4_Node000002_Node000005"><a xlink:title=" ">
<path fill="none" stroke="#63b8ff" d="M198.84,-164.81C190.1,-156.6 178.1,-143.43 173,-129 170.18,-121.04 170.83,-118.16 173,-110 181.45,-78.26 202.69,-46.1 216.72,-27.25"/>
<polygon fill="#63b8ff" stroke="#63b8ff" points="219.64,-29.19 222.94,-19.12 214.08,-24.93 219.64,-29.19"/>
</a>
</g>
</g>
<!-- Node6 -->
<g id="Node000006" class="node">
<title>Node6</title>
<g id="a_Node000006"><a xlink:href="dispatcher_8hpp.html" target="_top" xlink:title=" ">
<polygon fill="white" stroke="#666666" points="621,-129 461,-129 461,-110 621,-110 621,-129"/>
<text text-anchor="middle" x="541" y="-117" font-family="Helvetica,sans-Serif" font-size="10.00">jsonrpc/server/dispatcher.hpp</text>
</a>
</g>
</g>
<!-- Node2&#45;&gt;Node6 -->
<g id="edge5_Node000002_Node000006" class="edge">
<title>Node2&#45;&gt;Node6</title>
<g id="a_edge5_Node000002_Node000006"><a xlink:title=" ">
<path fill="none" stroke="#63b8ff" d="M262.34,-164.98C320.94,-155.63 415.01,-140.61 477.4,-130.65"/>
<polygon fill="#63b8ff" stroke="#63b8ff" points="478.19,-134.07 487.52,-129.04 477.09,-127.16 478.19,-134.07"/>
</a>
</g>
</g>
<!-- Node14 -->
<g id="Node000014" class="node">
<title>Node14</title>
<g id="a_Node000014"><a xlink:href="types_8hpp.html" target="_top" xlink:title=" ">
<polygon fill="white" stroke="#666666" points="1042.5,-74 905.5,-74 905.5,-55 1042.5,-55 1042.5,-74"/>
<text text-anchor="middle" x="974" y="-62" font-family="Helvetica,sans-Serif" font-size="10.00">jsonrpc/server/types.hpp</text>
</a>
</g>
</g>
<!-- Node2&#45;&gt;Node14 -->
<g id="edge26_Node000002_Node000014" class="edge">
<title>Node2&#45;&gt;Node14</title>
<g id="a_edge26_Node000002_Node000014"><a xlink:title=" ">
<path fill="none" stroke="#63b8ff" d="M279.24,-166.03C282.54,-165.68 285.81,-165.34 289,-165 440.55,-148.95 479.18,-150.85 630,-129 734.91,-113.8 856.67,-89.81 923.54,-76.08"/>
<polygon fill="#63b8ff" stroke="#63b8ff" points="924.31,-79.5 933.39,-74.05 922.89,-72.64 924.31,-79.5"/>
</a>
</g>
</g>
<!-- Node17 -->
<g id="Node000017" class="node">
<title>Node17</title>
<g id="a_Node000017"><a xlink:href="transport_8hpp.html" target="_top" xlink:title=" ">
<polygon fill="white" stroke="#666666" points="348.5,-129 181.5,-129 181.5,-110 348.5,-110 348.5,-129"/>
<text text-anchor="middle" x="265" y="-117" font-family="Helvetica,sans-Serif" font-size="10.00">jsonrpc/transport/transport.hpp</text>
</a>
</g>
</g>
<!-- Node2&#45;&gt;Node17 -->
<g id="edge27_Node000002_Node000017" class="edge">
<title>Node2&#45;&gt;Node17</title>
<g id="a_edge27_Node000002_Node000017"><a xlink:title=" ">
<path fill="none" stroke="#63b8ff" d="M218,-164.98C226.19,-157.23 238.51,-145.58 248.47,-136.14"/>
<polygon fill="#63b8ff" stroke="#63b8ff" points="250.98,-138.59 255.84,-129.17 246.17,-133.5 250.98,-138.59"/>
</a>
</g>
</g>
<!-- Node6&#45;&gt;Node5 -->
<g id="edge7_Node000006_Node000005" class="edge">
<title>Node6&#45;&gt;Node5</title>
<g id="a_edge7_Node000006_Node000005"><a xlink:title=" ">
<path fill="none" stroke="#63b8ff" d="M460.95,-111.48C395.16,-104.53 308.09,-92.26 278,-74 260.15,-63.16 246.64,-42.99 238.58,-28.28"/>
<polygon fill="#63b8ff" stroke="#63b8ff" points="241.57,-26.44 233.88,-19.16 235.34,-29.65 241.57,-26.44"/>
</a>
</g>
</g>
<!-- Node7 -->
<g id="Node000007" class="node">
<title>Node7</title>
<g id="a_Node000007"><a xlink:title=" ">
<polygon fill="#e0e0e0" stroke="#999999" points="895,-19 839,-19 839,0 895,0 895,-19"/>
<text text-anchor="middle" x="867" y="-7" font-family="Helvetica,sans-Serif" font-size="10.00">optional</text>
</a>
</g>
</g>
<!-- Node6&#45;&gt;Node7 -->
<g id="edge6_Node000006_Node000007" class="edge">
<title>Node6&#45;&gt;Node7</title>
<g id="a_edge6_Node000006_Node000007"><a xlink:title=" ">
<path fill="none" stroke="#63b8ff" d="M621.31,-114.69C696.71,-109.67 802.75,-98.4 836,-74 850.66,-63.24 858.73,-43.65 862.94,-29.07"/>
<polygon fill="#63b8ff" stroke="#63b8ff" points="866.39,-29.67 865.44,-19.12 859.61,-27.96 866.39,-29.67"/>
</a>
</g>
</g>
<!-- Node8 -->
<g id="Node000008" class="node">
<title>Node8</title>
<g id="a_Node000008"><a xlink:title=" ">
<polygon fill="#e0e0e0" stroke="#999999" points="391.5,-19 298.5,-19 298.5,0 391.5,0 391.5,-19"/>
<text text-anchor="middle" x="345" y="-7" font-family="Helvetica,sans-Serif" font-size="10.00">unordered_map</text>
</a>
</g>
</g>
<!-- Node6&#45;&gt;Node8 -->
<g id="edge8_Node000006_Node000008" class="edge">
<title>Node6&#45;&gt;Node8</title>
<g id="a_edge8_Node000006_Node000008"><a xlink:title=" ">
<path fill="none" stroke="#63b8ff" d="M460.78,-115.38C394.89,-110.93 308.96,-100.14 287,-74 272.13,-56.29 296.48,-36.77 318.04,-24.11"/>
<polygon fill="#63b8ff" stroke="#63b8ff" points="319.95,-27.05 326.98,-19.13 316.54,-20.93 319.95,-27.05"/>
</a>
</g>
</g>
<!-- Node9 -->
<g id="Node000009" class="node">
<title>Node9</title>
<g id="a_Node000009"><a xlink:title=" ">
<polygon fill="#e0e0e0" stroke="#999999" points="515.5,-74 468.5,-74 468.5,-55 515.5,-55 515.5,-74"/>
<text text-anchor="middle" x="492" y="-62" font-family="Helvetica,sans-Serif" font-size="10.00">vector</text>
</a>
</g>
</g>
<!-- Node6&#45;&gt;Node9 -->
<g id="edge9_Node000006_Node000009" class="edge">
<title>Node6&#45;&gt;Node9</title>
<g id="a_edge9_Node000006_Node000009"><a xlink:title=" ">
<path fill="none" stroke="#63b8ff" d="M532.91,-109.75C525.84,-102.11 515.41,-90.82 506.85,-81.56"/>
<polygon fill="#63b8ff" stroke="#63b8ff" points="509.3,-79.06 499.94,-74.09 504.16,-83.81 509.3,-79.06"/>
</a>
</g>
</g>
<!-- Node10 -->
<g id="Node000010" class="node">
<title>Node10</title>
<g id="a_Node000010"><a xlink:title=" ">
<polygon fill="#e0e0e0" stroke="#999999" points="646.5,-74 533.5,-74 533.5,-55 646.5,-55 646.5,-74"/>
<text text-anchor="middle" x="590" y="-62" font-family="Helvetica,sans-Serif" font-size="10.00">BS_thread_pool.hpp</text>
</a>
</g>
</g>
<!-- Node6&#45;&gt;Node10 -->
<g id="edge10_Node000006_Node000010" class="edge">
<title>Node6&#45;&gt;Node10</title>
<g id="a_edge10_Node000006_Node000010"><a xlink:title=" ">
<path fill="none" stroke="#63b8ff" d="M549.09,-109.75C556.16,-102.11 566.59,-90.82 575.15,-81.56"/>
<polygon fill="#63b8ff" stroke="#63b8ff" points="577.84,-83.81 582.06,-74.09 572.7,-79.06 577.84,-83.81"/>
</a>
</g>
</g>
<!-- Node11 -->
<g id="Node000011" class="node">
<title>Node11</title>
<g id="a_Node000011"><a xlink:title=" ">
<polygon fill="#e0e0e0" stroke="#999999" points="802,-19 692,-19 692,0 802,0 802,-19"/>
<text text-anchor="middle" x="747" y="-7" font-family="Helvetica,sans-Serif" font-size="10.00">nlohmann/json.hpp</text>
</a>
</g>
</g>
<!-- Node6&#45;&gt;Node11 -->
<g id="edge11_Node000006_Node000011" class="edge">
<title>Node6&#45;&gt;Node11</title>
<g id="a_edge11_Node000006_Node000011"><a xlink:title=" ">
<path fill="none" stroke="#63b8ff" d="M621.3,-116.89C694.47,-113.52 794.85,-103.48 820,-74 836.89,-54.2 806.58,-35.1 780.03,-23.11"/>
<polygon fill="#63b8ff" stroke="#63b8ff" points="781.08,-19.75 770.51,-19.03 778.32,-26.19 781.08,-19.75"/>
</a>
</g>
</g>
<!-- Node12 -->
<g id="Node000012" class="node">
<title>Node12</title>
<g id="a_Node000012"><a xlink:href="server_2request_8hpp.html" target="_top" xlink:title=" ">
<polygon fill="white" stroke="#666666" points="811,-74 665,-74 665,-55 811,-55 811,-74"/>
<text text-anchor="middle" x="738" y="-62" font-family="Helvetica,sans-Serif" font-size="10.00">jsonrpc/server/request.hpp</text>
</a>
</g>
</g>
<!-- Node6&#45;&gt;Node12 -->
<g id="edge12_Node000006_Node000012" class="edge">
<title>Node6&#45;&gt;Node12</title>
<g id="a_edge12_Node000006_Node000012"><a xlink:title=" ">
<path fill="none" stroke="#63b8ff" d="M572.65,-109.98C606.16,-100.97 659.2,-86.7 696.14,-76.76"/>
<polygon fill="#63b8ff" stroke="#63b8ff" points="697.35,-80.06 706.1,-74.08 695.53,-73.3 697.35,-80.06"/>
</a>
</g>
</g>
<!-- Node13 -->
<g id="Node000013" class="node">
<title>Node13</title>
<g id="a_Node000013"><a xlink:href="response_8hpp.html" target="_top" xlink:title=" ">
<polygon fill="white" stroke="#666666" points="450,-74 296,-74 296,-55 450,-55 450,-74"/>
<text text-anchor="middle" x="373" y="-62" font-family="Helvetica,sans-Serif" font-size="10.00">jsonrpc/server/response.hpp</text>
</a>
</g>
</g>
<!-- Node6&#45;&gt;Node13 -->
<g id="edge16_Node000006_Node000013" class="edge">
<title>Node6&#45;&gt;Node13</title>
<g id="a_edge16_Node000006_Node000013"><a xlink:title=" ">
<path fill="none" stroke="#63b8ff" d="M514.01,-109.98C485.8,-101.09 441.36,-87.07 409.92,-77.15"/>
<polygon fill="#63b8ff" stroke="#63b8ff" points="410.79,-73.75 400.2,-74.08 408.69,-80.43 410.79,-73.75"/>
</a>
</g>
</g>
<!-- Node6&#45;&gt;Node14 -->
<g id="edge21_Node000006_Node000014" class="edge">
<title>Node6&#45;&gt;Node14</title>
<g id="a_edge21_Node000006_Node000014"><a xlink:title=" ">
<path fill="none" stroke="#63b8ff" d="M610.57,-109.98C688.29,-100.47 813.83,-85.1 895.14,-75.15"/>
<polygon fill="#63b8ff" stroke="#63b8ff" points="895.82,-78.6 905.32,-73.91 894.97,-71.65 895.82,-78.6"/>
</a>
</g>
</g>
<!-- Node12&#45;&gt;Node5 -->
<g id="edge14_Node000012_Node000005" class="edge">
<title>Node12&#45;&gt;Node5</title>
<g id="a_edge14_Node000012_Node000005"><a xlink:title=" ">
<path fill="none" stroke="#63b8ff" d="M664.68,-55.88C661.75,-55.58 658.85,-55.29 656,-55 493.38,-38.57 452.29,-38.47 290,-19 280.99,-17.92 271.24,-16.6 262.27,-15.33"/>
<polygon fill="#63b8ff" stroke="#63b8ff" points="262.59,-11.84 252.2,-13.87 261.59,-18.77 262.59,-11.84"/>
</a>
</g>
</g>
<!-- Node12&#45;&gt;Node7 -->
<g id="edge13_Node000012_Node000007" class="edge">
<title>Node12&#45;&gt;Node7</title>
<g id="a_edge13_Node000012_Node000007"><a xlink:title=" ">
<path fill="none" stroke="#63b8ff" d="M758.73,-54.98C779.76,-46.34 812.55,-32.87 836.54,-23.02"/>
<polygon fill="#63b8ff" stroke="#63b8ff" points="837.98,-26.21 845.9,-19.17 835.32,-19.73 837.98,-26.21"/>
</a>
</g>
</g>
<!-- Node12&#45;&gt;Node11 -->
<g id="edge15_Node000012_Node000011" class="edge">
<title>Node12&#45;&gt;Node11</title>
<g id="a_edge15_Node000012_Node000011"><a xlink:title=" ">
<path fill="none" stroke="#63b8ff" d="M739.49,-54.75C740.67,-47.8 742.36,-37.85 743.84,-29.13"/>
<polygon fill="#63b8ff" stroke="#63b8ff" points="747.32,-29.53 745.54,-19.09 740.42,-28.36 747.32,-29.53"/>
</a>
</g>
</g>
<!-- Node13&#45;&gt;Node5 -->
<g id="edge18_Node000013_Node000005" class="edge">
<title>Node13&#45;&gt;Node5</title>
<g id="a_edge18_Node000013_Node000005"><a xlink:title=" ">
<path fill="none" stroke="#63b8ff" d="M350.02,-54.98C326.22,-46.16 288.84,-32.31 262.11,-22.4"/>
<polygon fill="#63b8ff" stroke="#63b8ff" points="263.04,-19.01 252.45,-18.82 260.61,-25.58 263.04,-19.01"/>
</a>
</g>
</g>
<!-- Node13&#45;&gt;Node7 -->
<g id="edge17_Node000013_Node000007" class="edge">
<title>Node13&#45;&gt;Node7</title>
<g id="a_edge17_Node000013_Node000007"><a xlink:title=" ">
<path fill="none" stroke="#63b8ff" d="M450.12,-55.87C566.25,-44.36 776.21,-23.4 811,-19 816.67,-18.28 822.65,-17.45 828.51,-16.6"/>
<polygon fill="#63b8ff" stroke="#63b8ff" points="829.46,-19.99 838.84,-15.05 828.43,-13.07 829.46,-19.99"/>
</a>
</g>
</g>
<!-- Node13&#45;&gt;Node8 -->
<g id="edge19_Node000013_Node000008" class="edge">
<title>Node13&#45;&gt;Node8</title>
<g id="a_edge19_Node000013_Node000008"><a xlink:title=" ">
<path fill="none" stroke="#63b8ff" d="M368.38,-54.75C364.54,-47.49 358.98,-36.95 354.24,-27.98"/>
<polygon fill="#63b8ff" stroke="#63b8ff" points="357.3,-26.3 349.54,-19.09 351.11,-29.57 357.3,-26.3"/>
</a>
</g>
</g>
<!-- Node13&#45;&gt;Node11 -->
<g id="edge20_Node000013_Node000011" class="edge">
<title>Node13&#45;&gt;Node11</title>
<g id="a_edge20_Node000013_Node000011"><a xlink:title=" ">
<path fill="none" stroke="#63b8ff" d="M433.09,-54.98C501.18,-45.33 611.79,-29.66 681.89,-19.73"/>
<polygon fill="#63b8ff" stroke="#63b8ff" points="682.52,-23.17 691.93,-18.3 681.54,-16.24 682.52,-23.17"/>
</a>
</g>
</g>
<!-- Node14&#45;&gt;Node7 -->
<g id="edge23_Node000014_Node000007" class="edge">
<title>Node14&#45;&gt;Node7</title>
<g id="a_edge23_Node000014_Node000007"><a xlink:title=" ">
<path fill="none" stroke="#63b8ff" d="M956.81,-54.98C939.75,-46.54 913.37,-33.47 893.6,-23.68"/>
<polygon fill="#63b8ff" stroke="#63b8ff" points="895.02,-20.47 884.5,-19.17 891.91,-26.75 895.02,-20.47"/>
</a>
</g>
</g>
<!-- Node14&#45;&gt;Node11 -->
<g id="edge25_Node000014_Node000011" class="edge">
<title>Node14&#45;&gt;Node11</title>
<g id="a_edge25_Node000014_Node000011"><a xlink:title=" ">
<path fill="none" stroke="#63b8ff" d="M937.53,-54.98C898.43,-45.86 836.23,-31.33 793.61,-21.38"/>
<polygon fill="#63b8ff" stroke="#63b8ff" points="794.29,-17.95 783.76,-19.08 792.7,-24.76 794.29,-17.95"/>
</a>
</g>
</g>
<!-- Node15 -->
<g id="Node000015" class="node">
<title>Node15</title>
<g id="a_Node000015"><a xlink:title=" ">
<polygon fill="#e0e0e0" stroke="#999999" points="996.5,-19 931.5,-19 931.5,0 996.5,0 996.5,-19"/>
<text text-anchor="middle" x="964" y="-7" font-family="Helvetica,sans-Serif" font-size="10.00">functional</text>
</a>
</g>
</g>
<!-- Node14&#45;&gt;Node15 -->
<g id="edge22_Node000014_Node000015" class="edge">
<title>Node14&#45;&gt;Node15</title>
<g id="a_edge22_Node000014_Node000015"><a xlink:title=" ">
<path fill="none" stroke="#63b8ff" d="M972.35,-54.75C971.04,-47.8 969.16,-37.85 967.52,-29.13"/>
<polygon fill="#63b8ff" stroke="#63b8ff" points="970.91,-28.27 965.62,-19.09 964.04,-29.56 970.91,-28.27"/>
</a>
</g>
</g>
<!-- Node16 -->
<g id="Node000016" class="node">
<title>Node16</title>
<g id="a_Node000016"><a xlink:title=" ">
<polygon fill="#e0e0e0" stroke="#999999" points="1065.5,-19 1014.5,-19 1014.5,0 1065.5,0 1065.5,-19"/>
<text text-anchor="middle" x="1040" y="-7" font-family="Helvetica,sans-Serif" font-size="10.00">variant</text>
</a>
</g>
</g>
<!-- Node14&#45;&gt;Node16 -->
<g id="edge24_Node000014_Node000016" class="edge">
<title>Node14&#45;&gt;Node16</title>
<g id="a_edge24_Node000014_Node000016"><a xlink:title=" ">
<path fill="none" stroke="#63b8ff" d="M984.6,-54.98C994.46,-47.07 1009.35,-35.11 1021.22,-25.58"/>
<polygon fill="#63b8ff" stroke="#63b8ff" points="1023.6,-28.16 1029.2,-19.17 1019.21,-22.7 1023.6,-28.16"/>
</a>
</g>
</g>
<!-- Node17&#45;&gt;Node5 -->
<g id="edge28_Node000017_Node000005" class="edge">
<title>Node17&#45;&gt;Node5</title>
<g id="a_edge28_Node000017_Node000005"><a xlink:title=" ">
<path fill="none" stroke="#63b8ff" d="M249.87,-109.73C238.19,-101.99 222.88,-89.55 216,-74 209.51,-59.34 214.53,-41.4 220.29,-28.33"/>
<polygon fill="#63b8ff" stroke="#63b8ff" points="223.58,-29.57 224.86,-19.05 217.3,-26.48 223.58,-29.57"/>
</a>
</g>
</g>
</g>
</svg>
