<?xml version="1.0" encoding="UTF-8" standalone="no"?>
<!DOCTYPE svg PUBLIC "-//W3C//DTD SVG 1.1//EN"
 "http://www.w3.org/Graphics/SVG/1.1/DTD/svg11.dtd">
<!-- Generated by graphviz version 2.43.0 (0)
 -->
<!-- Title: src/server/server.cpp Pages: 1 -->
<svg width="776pt" height="368pt"
 viewBox="0.00 0.00 776.30 368.00" xmlns="http://www.w3.org/2000/svg" xmlns:xlink="http://www.w3.org/1999/xlink">
<g id="graph0" class="graph" transform="scale(1 1) rotate(0) translate(4 364)">
<title>src/server/server.cpp</title>
<!-- Node1 -->
<g id="Node000001" class="node">
<title>Node1</title>
<g id="a_Node000001"><a xlink:title=" ">
<polygon fill="#999999" stroke="#666666" points="290.8,-360 172.8,-360 172.8,-341 290.8,-341 290.8,-360"/>
<text text-anchor="middle" x="231.8" y="-348" font-family="Helvetica,sans-Serif" font-size="10.00">src/server/server.cpp</text>
</a>
</g>
</g>
<!-- Node2 -->
<g id="Node000002" class="node">
<title>Node2</title>
<g id="a_Node000002"><a xlink:title=" ">
<polygon fill="#e0e0e0" stroke="#999999" points="210.3,-305 117.3,-305 117.3,-286 210.3,-286 210.3,-305"/>
<text text-anchor="middle" x="163.8" y="-293" font-family="Helvetica,sans-Serif" font-size="10.00">spdlog/spdlog.h</text>
</a>
</g>
</g>
<!-- Node1&#45;&gt;Node2 -->
<g id="edge1_Node000001_Node000002" class="edge">
<title>Node1&#45;&gt;Node2</title>
<g id="a_edge1_Node000001_Node000002"><a xlink:title=" ">
<path fill="none" stroke="#63b8ff" d="M220.88,-340.98C210.73,-333.07 195.38,-321.11 183.16,-311.58"/>
<polygon fill="#63b8ff" stroke="#63b8ff" points="184.97,-308.56 174.93,-305.17 180.66,-314.08 184.97,-308.56"/>
</a>
</g>
</g>
<!-- Node3 -->
<g id="Node000003" class="node">
<title>Node3</title>
<g id="a_Node000003"><a xlink:href="server_8hpp.html" target="_top" xlink:title=" ">
<polygon fill="white" stroke="#666666" points="373.3,-305 228.3,-305 228.3,-286 373.3,-286 373.3,-305"/>
<text text-anchor="middle" x="300.8" y="-293" font-family="Helvetica,sans-Serif" font-size="10.00">json_rpc/server/server.hpp</text>
</a>
</g>
</g>
<!-- Node1&#45;&gt;Node3 -->
<g id="edge2_Node000001_Node000003" class="edge">
<title>Node1&#45;&gt;Node3</title>
<g id="a_edge2_Node000001_Node000003"><a xlink:title=" ">
<path fill="none" stroke="#63b8ff" d="M242.89,-340.98C253.29,-333 269.07,-320.88 281.53,-311.31"/>
<polygon fill="#63b8ff" stroke="#63b8ff" points="283.72,-314.04 289.52,-305.17 279.45,-308.49 283.72,-314.04"/>
</a>
</g>
</g>
<!-- Node4 -->
<g id="Node000004" class="node">
<title>Node4</title>
<g id="a_Node000004"><a xlink:title=" ">
<polygon fill="#e0e0e0" stroke="#999999" points="247.8,-184 189.8,-184 189.8,-165 247.8,-165 247.8,-184"/>
<text text-anchor="middle" x="218.8" y="-172" font-family="Helvetica,sans-Serif" font-size="10.00">memory</text>
</a>
</g>
</g>
<!-- Node3&#45;&gt;Node4 -->
<g id="edge3_Node000003_Node000004" class="edge">
<title>Node3&#45;&gt;Node4</title>
<g id="a_edge3_Node000003_Node000004"><a xlink:title=" ">
<path fill="none" stroke="#63b8ff" d="M294.91,-285.94C281.5,-266.48 248.51,-218.6 230.68,-192.74"/>
<polygon fill="#63b8ff" stroke="#63b8ff" points="233.43,-190.55 224.87,-184.3 227.66,-194.52 233.43,-190.55"/>
</a>
</g>
</g>
<!-- Node5 -->
<g id="Node000005" class="node">
<title>Node5</title>
<g id="a_Node000005"><a xlink:title=" ">
<polygon fill="#e0e0e0" stroke="#999999" points="144.8,-74 100.8,-74 100.8,-55 144.8,-55 144.8,-74"/>
<text text-anchor="middle" x="122.8" y="-62" font-family="Helvetica,sans-Serif" font-size="10.00">string</text>
</a>
</g>
</g>
<!-- Node3&#45;&gt;Node5 -->
<g id="edge4_Node000003_Node000005" class="edge">
<title>Node3&#45;&gt;Node5</title>
<g id="a_edge4_Node000003_Node000005"><a xlink:title=" ">
<path fill="none" stroke="#63b8ff" d="M264.06,-285.97C199.74,-268.84 68.4,-223.5 13.8,-129 -5.3,-95.92 52.22,-78.44 90.83,-70.66"/>
<polygon fill="#63b8ff" stroke="#63b8ff" points="91.48,-74.1 100.65,-68.8 90.18,-67.22 91.48,-74.1"/>
</a>
</g>
</g>
<!-- Node6 -->
<g id="Node000006" class="node">
<title>Node6</title>
<g id="a_Node000006"><a xlink:href="dispatcher_8hpp.html" target="_top" xlink:title=" ">
<polygon fill="white" stroke="#666666" points="421.3,-184 266.3,-184 266.3,-165 421.3,-165 421.3,-184"/>
<text text-anchor="middle" x="343.8" y="-172" font-family="Helvetica,sans-Serif" font-size="10.00">json_rpc/core/dispatcher.hpp</text>
</a>
</g>
</g>
<!-- Node3&#45;&gt;Node6 -->
<g id="edge5_Node000003_Node000006" class="edge">
<title>Node3&#45;&gt;Node6</title>
<g id="a_edge5_Node000003_Node000006"><a xlink:title=" ">
<path fill="none" stroke="#63b8ff" d="M302.35,-285.56C304.97,-271.36 310.87,-242.88 319.8,-220 323.44,-210.7 328.58,-200.88 333.17,-192.83"/>
<polygon fill="#63b8ff" stroke="#63b8ff" points="336.28,-194.45 338.37,-184.06 330.26,-190.88 336.28,-194.45"/>
</a>
</g>
</g>
<!-- Node11 -->
<g id="Node000011" class="node">
<title>Node11</title>
<g id="a_Node000011"><a xlink:href="types_8hpp.html" target="_top" xlink:title=" ">
<polygon fill="white" stroke="#666666" points="695.8,-74 563.8,-74 563.8,-55 695.8,-55 695.8,-74"/>
<text text-anchor="middle" x="629.8" y="-62" font-family="Helvetica,sans-Serif" font-size="10.00">json_rpc/core/types.hpp</text>
</a>
</g>
</g>
<!-- Node3&#45;&gt;Node11 -->
<g id="edge30_Node000003_Node000011" class="edge">
<title>Node3&#45;&gt;Node11</title>
<g id="a_edge30_Node000003_Node000011"><a xlink:title=" ">
<path fill="none" stroke="#63b8ff" d="M337.76,-285.94C368.99,-278.17 414.61,-265.56 452.8,-250 510.62,-226.44 526.46,-220.92 576.8,-184 604.94,-163.37 619.31,-161.17 632.8,-129 638.75,-114.83 637.34,-97.29 634.82,-84.24"/>
<polygon fill="#63b8ff" stroke="#63b8ff" points="638.14,-83.07 632.47,-74.12 631.32,-84.66 638.14,-83.07"/>
</a>
</g>
</g>
<!-- Node17 -->
<g id="Node000017" class="node">
<title>Node17</title>
<g id="a_Node000017"><a xlink:href="server__transport_8hpp.html" target="_top" xlink:title=" ">
<polygon fill="white" stroke="#666666" points="444.3,-250 329.3,-250 329.3,-220 444.3,-220 444.3,-250"/>
<text text-anchor="start" x="337.3" y="-238" font-family="Helvetica,sans-Serif" font-size="10.00">json_rpc/core/server</text>
<text text-anchor="middle" x="386.8" y="-227" font-family="Helvetica,sans-Serif" font-size="10.00">_transport.hpp</text>
</a>
</g>
</g>
<!-- Node3&#45;&gt;Node17 -->
<g id="edge25_Node000003_Node000017" class="edge">
<title>Node3&#45;&gt;Node17</title>
<g id="a_edge25_Node000003_Node000017"><a xlink:title=" ">
<path fill="none" stroke="#63b8ff" d="M313.49,-285.87C325.06,-278 342.56,-266.09 357.57,-255.89"/>
<polygon fill="#63b8ff" stroke="#63b8ff" points="359.76,-258.63 366.05,-250.11 355.82,-252.85 359.76,-258.63"/>
</a>
</g>
</g>
<!-- Node6&#45;&gt;Node5 -->
<g id="edge7_Node000006_Node000005" class="edge">
<title>Node6&#45;&gt;Node5</title>
<g id="a_edge7_Node000006_Node000005"><a xlink:title=" ">
<path fill="none" stroke="#63b8ff" d="M278.93,-164.97C215.86,-156.01 128.09,-141.51 117.8,-129 107.51,-116.48 110.64,-97.47 115.21,-83.51"/>
<polygon fill="#63b8ff" stroke="#63b8ff" points="118.53,-84.61 118.77,-74.01 111.98,-82.14 118.53,-84.61"/>
</a>
</g>
</g>
<!-- Node7 -->
<g id="Node000007" class="node">
<title>Node7</title>
<g id="a_Node000007"><a xlink:title=" ">
<polygon fill="#e0e0e0" stroke="#999999" points="314.8,-19 258.8,-19 258.8,0 314.8,0 314.8,-19"/>
<text text-anchor="middle" x="286.8" y="-7" font-family="Helvetica,sans-Serif" font-size="10.00">optional</text>
</a>
</g>
</g>
<!-- Node6&#45;&gt;Node7 -->
<g id="edge6_Node000006_Node000007" class="edge">
<title>Node6&#45;&gt;Node7</title>
<g id="a_edge6_Node000006_Node000007"><a xlink:title=" ">
<path fill="none" stroke="#63b8ff" d="M266.06,-165.6C171.13,-155.57 22.07,-138.45 13.8,-129 -55.46,-49.77 158.32,-21.6 248.58,-13.4"/>
<polygon fill="#63b8ff" stroke="#63b8ff" points="249.04,-16.87 258.7,-12.51 248.43,-9.9 249.04,-16.87"/>
</a>
</g>
</g>
<!-- Node8 -->
<g id="Node000008" class="node">
<title>Node8</title>
<g id="a_Node000008"><a xlink:title=" ">
<polygon fill="#e0e0e0" stroke="#999999" points="541.3,-74 448.3,-74 448.3,-55 541.3,-55 541.3,-74"/>
<text text-anchor="middle" x="494.8" y="-62" font-family="Helvetica,sans-Serif" font-size="10.00">unordered_map</text>
</a>
</g>
</g>
<!-- Node6&#45;&gt;Node8 -->
<g id="edge8_Node000006_Node000008" class="edge">
<title>Node6&#45;&gt;Node8</title>
<g id="a_edge8_Node000006_Node000008"><a xlink:title=" ">
<path fill="none" stroke="#63b8ff" d="M411.29,-164.96C475.96,-156.09 565.27,-141.74 575.8,-129 593.29,-107.84 560.62,-89.21 531.69,-77.69"/>
<polygon fill="#63b8ff" stroke="#63b8ff" points="532.69,-74.33 522.1,-74.06 530.22,-80.87 532.69,-74.33"/>
</a>
</g>
</g>
<!-- Node9 -->
<g id="Node000009" class="node">
<title>Node9</title>
<g id="a_Node000009"><a xlink:title=" ">
<polygon fill="#e0e0e0" stroke="#999999" points="70.3,-129 23.3,-129 23.3,-110 70.3,-110 70.3,-129"/>
<text text-anchor="middle" x="46.8" y="-117" font-family="Helvetica,sans-Serif" font-size="10.00">vector</text>
</a>
</g>
</g>
<!-- Node6&#45;&gt;Node9 -->
<g id="edge9_Node000006_Node000009" class="edge">
<title>Node6&#45;&gt;Node9</title>
<g id="a_edge9_Node000006_Node000009"><a xlink:title=" ">
<path fill="none" stroke="#63b8ff" d="M289.59,-164.99C237.09,-156.56 155.3,-142.93 84.8,-129 83.35,-128.71 81.87,-128.41 80.38,-128.11"/>
<polygon fill="#63b8ff" stroke="#63b8ff" points="80.99,-124.66 70.48,-125.99 79.53,-131.5 80.99,-124.66"/>
</a>
</g>
</g>
<!-- Node10 -->
<g id="Node000010" class="node">
<title>Node10</title>
<g id="a_Node000010"><a xlink:href="request_8hpp.html" target="_top" xlink:title=" ">
<polygon fill="white" stroke="#666666" points="268.8,-129 126.8,-129 126.8,-110 268.8,-110 268.8,-129"/>
<text text-anchor="middle" x="197.8" y="-117" font-family="Helvetica,sans-Serif" font-size="10.00">json_rpc/core/request.hpp</text>
</a>
</g>
</g>
<!-- Node6&#45;&gt;Node10 -->
<g id="edge10_Node000006_Node000010" class="edge">
<title>Node6&#45;&gt;Node10</title>
<g id="a_edge10_Node000006_Node000010"><a xlink:title=" ">
<path fill="none" stroke="#63b8ff" d="M320.35,-164.98C296.23,-156.23 258.44,-142.51 231.2,-132.62"/>
<polygon fill="#63b8ff" stroke="#63b8ff" points="232.28,-129.29 221.69,-129.17 229.89,-135.87 232.28,-129.29"/>
</a>
</g>
</g>
<!-- Node6&#45;&gt;Node11 -->
<g id="edge23_Node000006_Node000011" class="edge">
<title>Node6&#45;&gt;Node11</title>
<g id="a_edge23_Node000006_Node000011"><a xlink:title=" ">
<path fill="none" stroke="#63b8ff" d="M407.1,-165C475.79,-155.33 577.73,-139.53 592.8,-129 608.46,-118.06 618.45,-98.21 624.06,-83.6"/>
<polygon fill="#63b8ff" stroke="#63b8ff" points="627.39,-84.69 627.38,-74.1 620.78,-82.38 627.39,-84.69"/>
</a>
</g>
</g>
<!-- Node15 -->
<g id="Node000015" class="node">
<title>Node15</title>
<g id="a_Node000015"><a xlink:href="response_8hpp.html" target="_top" xlink:title=" ">
<polygon fill="white" stroke="#666666" points="567.3,-129 418.3,-129 418.3,-110 567.3,-110 567.3,-129"/>
<text text-anchor="middle" x="492.8" y="-117" font-family="Helvetica,sans-Serif" font-size="10.00">json_rpc/core/response.hpp</text>
</a>
</g>
</g>
<!-- Node6&#45;&gt;Node15 -->
<g id="edge18_Node000006_Node000015" class="edge">
<title>Node6&#45;&gt;Node15</title>
<g id="a_edge18_Node000006_Node000015"><a xlink:title=" ">
<path fill="none" stroke="#63b8ff" d="M367.74,-164.98C392.36,-156.23 430.92,-142.51 458.72,-132.62"/>
<polygon fill="#63b8ff" stroke="#63b8ff" points="460.18,-135.82 468.43,-129.17 457.83,-129.22 460.18,-135.82"/>
</a>
</g>
</g>
<!-- Node16 -->
<g id="Node000016" class="node">
<title>Node16</title>
<g id="a_Node000016"><a xlink:title=" ">
<polygon fill="#e0e0e0" stroke="#999999" points="400.3,-129 287.3,-129 287.3,-110 400.3,-110 400.3,-129"/>
<text text-anchor="middle" x="343.8" y="-117" font-family="Helvetica,sans-Serif" font-size="10.00">BS_thread_pool.hpp</text>
</a>
</g>
</g>
<!-- Node6&#45;&gt;Node16 -->
<g id="edge24_Node000006_Node000016" class="edge">
<title>Node6&#45;&gt;Node16</title>
<g id="a_edge24_Node000006_Node000016"><a xlink:title=" ">
<path fill="none" stroke="#63b8ff" d="M343.8,-164.75C343.8,-157.8 343.8,-147.85 343.8,-139.13"/>
<polygon fill="#63b8ff" stroke="#63b8ff" points="347.3,-139.09 343.8,-129.09 340.3,-139.09 347.3,-139.09"/>
</a>
</g>
</g>
<!-- Node10&#45;&gt;Node5 -->
<g id="edge12_Node000010_Node000005" class="edge">
<title>Node10&#45;&gt;Node5</title>
<g id="a_edge12_Node000010_Node000005"><a xlink:title=" ">
<path fill="none" stroke="#63b8ff" d="M185.75,-109.98C174.34,-101.92 156.97,-89.65 143.37,-80.03"/>
<polygon fill="#63b8ff" stroke="#63b8ff" points="145.26,-77.08 135.07,-74.17 141.22,-82.8 145.26,-77.08"/>
</a>
</g>
</g>
<!-- Node10&#45;&gt;Node7 -->
<g id="edge11_Node000010_Node000007" class="edge">
<title>Node10&#45;&gt;Node7</title>
<g id="a_edge11_Node000010_Node000007"><a xlink:title=" ">
<path fill="none" stroke="#63b8ff" d="M205.09,-109.66C219.96,-91.61 254.02,-50.28 273.14,-27.08"/>
<polygon fill="#63b8ff" stroke="#63b8ff" points="276.01,-29.1 279.67,-19.16 270.61,-24.65 276.01,-29.1"/>
</a>
</g>
</g>
<!-- Node10&#45;&gt;Node11 -->
<g id="edge13_Node000010_Node000011" class="edge">
<title>Node10&#45;&gt;Node11</title>
<g id="a_edge13_Node000010_Node000011"><a xlink:title=" ">
<path fill="none" stroke="#63b8ff" d="M267.21,-109.98C345.55,-100.37 472.6,-84.79 553.62,-74.85"/>
<polygon fill="#63b8ff" stroke="#63b8ff" points="554.26,-78.29 563.76,-73.6 553.41,-71.35 554.26,-78.29"/>
</a>
</g>
</g>
<!-- Node11&#45;&gt;Node7 -->
<g id="edge15_Node000011_Node000007" class="edge">
<title>Node11&#45;&gt;Node7</title>
<g id="a_edge15_Node000011_Node000007"><a xlink:title=" ">
<path fill="none" stroke="#63b8ff" d="M574.7,-54.98C504.7,-44.17 385.73,-25.79 324.97,-16.4"/>
<polygon fill="#63b8ff" stroke="#63b8ff" points="325.45,-12.93 315.04,-14.86 324.38,-19.85 325.45,-12.93"/>
</a>
</g>
</g>
<!-- Node12 -->
<g id="Node000012" class="node">
<title>Node12</title>
<g id="a_Node000012"><a xlink:title=" ">
<polygon fill="#e0e0e0" stroke="#999999" points="768.3,-19 703.3,-19 703.3,0 768.3,0 768.3,-19"/>
<text text-anchor="middle" x="735.8" y="-7" font-family="Helvetica,sans-Serif" font-size="10.00">functional</text>
</a>
</g>
</g>
<!-- Node11&#45;&gt;Node12 -->
<g id="edge14_Node000011_Node000012" class="edge">
<title>Node11&#45;&gt;Node12</title>
<g id="a_edge14_Node000011_Node000012"><a xlink:title=" ">
<path fill="none" stroke="#63b8ff" d="M646.84,-54.98C663.73,-46.54 689.87,-33.47 709.45,-23.68"/>
<polygon fill="#63b8ff" stroke="#63b8ff" points="711.08,-26.77 718.46,-19.17 707.95,-20.51 711.08,-26.77"/>
</a>
</g>
</g>
<!-- Node13 -->
<g id="Node000013" class="node">
<title>Node13</title>
<g id="a_Node000013"><a xlink:title=" ">
<polygon fill="#e0e0e0" stroke="#999999" points="556.3,-19 505.3,-19 505.3,0 556.3,0 556.3,-19"/>
<text text-anchor="middle" x="530.8" y="-7" font-family="Helvetica,sans-Serif" font-size="10.00">variant</text>
</a>
</g>
</g>
<!-- Node11&#45;&gt;Node13 -->
<g id="edge16_Node000011_Node000013" class="edge">
<title>Node11&#45;&gt;Node13</title>
<g id="a_edge16_Node000011_Node000013"><a xlink:title=" ">
<path fill="none" stroke="#63b8ff" d="M613.9,-54.98C598.26,-46.61 574.15,-33.7 555.92,-23.95"/>
<polygon fill="#63b8ff" stroke="#63b8ff" points="557.47,-20.8 547,-19.17 554.16,-26.98 557.47,-20.8"/>
</a>
</g>
</g>
<!-- Node14 -->
<g id="Node000014" class="node">
<title>Node14</title>
<g id="a_Node000014"><a xlink:title=" ">
<polygon fill="#e0e0e0" stroke="#999999" points="684.8,-19 574.8,-19 574.8,0 684.8,0 684.8,-19"/>
<text text-anchor="middle" x="629.8" y="-7" font-family="Helvetica,sans-Serif" font-size="10.00">nlohmann/json.hpp</text>
</a>
</g>
</g>
<!-- Node11&#45;&gt;Node14 -->
<g id="edge17_Node000011_Node000014" class="edge">
<title>Node11&#45;&gt;Node14</title>
<g id="a_edge17_Node000011_Node000014"><a xlink:title=" ">
<path fill="none" stroke="#63b8ff" d="M629.8,-54.75C629.8,-47.8 629.8,-37.85 629.8,-29.13"/>
<polygon fill="#63b8ff" stroke="#63b8ff" points="633.3,-29.09 629.8,-19.09 626.3,-29.09 633.3,-29.09"/>
</a>
</g>
</g>
<!-- Node15&#45;&gt;Node5 -->
<g id="edge20_Node000015_Node000005" class="edge">
<title>Node15&#45;&gt;Node5</title>
<g id="a_edge20_Node000015_Node000005"><a xlink:title=" ">
<path fill="none" stroke="#63b8ff" d="M433.36,-109.98C354.18,-98.64 216.92,-78.98 154.88,-70.1"/>
<polygon fill="#63b8ff" stroke="#63b8ff" points="155.29,-66.62 144.9,-68.66 154.3,-73.55 155.29,-66.62"/>
</a>
</g>
</g>
<!-- Node15&#45;&gt;Node7 -->
<g id="edge19_Node000015_Node000007" class="edge">
<title>Node15&#45;&gt;Node7</title>
<g id="a_edge19_Node000015_Node000007"><a xlink:title=" ">
<path fill="none" stroke="#63b8ff" d="M476.29,-109.84C440.35,-91 354.79,-46.14 312.03,-23.73"/>
<polygon fill="#63b8ff" stroke="#63b8ff" points="313.59,-20.59 303.11,-19.05 310.34,-26.79 313.59,-20.59"/>
</a>
</g>
</g>
<!-- Node15&#45;&gt;Node8 -->
<g id="edge21_Node000015_Node000008" class="edge">
<title>Node15&#45;&gt;Node8</title>
<g id="a_edge21_Node000015_Node000008"><a xlink:title=" ">
<path fill="none" stroke="#63b8ff" d="M493.13,-109.75C493.4,-102.8 493.77,-92.85 494.1,-84.13"/>
<polygon fill="#63b8ff" stroke="#63b8ff" points="497.6,-84.21 494.48,-74.09 490.61,-83.95 497.6,-84.21"/>
</a>
</g>
</g>
<!-- Node15&#45;&gt;Node11 -->
<g id="edge22_Node000015_Node000011" class="edge">
<title>Node15&#45;&gt;Node11</title>
<g id="a_edge22_Node000015_Node000011"><a xlink:title=" ">
<path fill="none" stroke="#63b8ff" d="M514.82,-109.98C537.25,-101.3 572.29,-87.75 597.79,-77.88"/>
<polygon fill="#63b8ff" stroke="#63b8ff" points="599.33,-81.04 607.39,-74.17 596.8,-74.51 599.33,-81.04"/>
</a>
</g>
</g>
<!-- Node17&#45;&gt;Node4 -->
<g id="edge27_Node000017_Node000004" class="edge">
<title>Node17&#45;&gt;Node4</title>
<g id="a_edge27_Node000017_Node000004"><a xlink:title=" ">
<path fill="none" stroke="#63b8ff" d="M346.56,-219.99C318.03,-210.05 280.16,-196.86 253.07,-187.43"/>
<polygon fill="#63b8ff" stroke="#63b8ff" points="254.21,-184.12 243.61,-184.14 251.91,-190.73 254.21,-184.12"/>
</a>
</g>
</g>
<!-- Node17&#45;&gt;Node6 -->
<g id="edge28_Node000017_Node000006" class="edge">
<title>Node17&#45;&gt;Node6</title>
<g id="a_edge28_Node000017_Node000006"><a xlink:title=" ">
<path fill="none" stroke="#63b8ff" d="M376.4,-219.84C370.34,-211.61 362.68,-201.18 356.3,-192.51"/>
<polygon fill="#63b8ff" stroke="#63b8ff" points="358.99,-190.25 350.25,-184.27 353.35,-194.4 358.99,-190.25"/>
</a>
</g>
</g>
<!-- Node17&#45;&gt;Node11 -->
<g id="edge29_Node000017_Node000011" class="edge">
<title>Node17&#45;&gt;Node11</title>
<g id="a_edge29_Node000017_Node000011"><a xlink:title=" ">
<path fill="none" stroke="#63b8ff" d="M444.43,-222.65C496.74,-209.29 572.06,-181.86 614.8,-129 624.93,-116.48 628.44,-98.28 629.55,-84.57"/>
<polygon fill="#63b8ff" stroke="#63b8ff" points="633.06,-84.48 630.02,-74.33 626.07,-84.16 633.06,-84.48"/>
</a>
</g>
</g>
<!-- Node18 -->
<g id="Node000018" class="node">
<title>Node18</title>
<g id="a_Node000018"><a xlink:title=" ">
<polygon fill="#e0e0e0" stroke="#999999" points="489.8,-184 439.8,-184 439.8,-165 489.8,-165 489.8,-184"/>
<text text-anchor="middle" x="464.8" y="-172" font-family="Helvetica,sans-Serif" font-size="10.00">atomic</text>
</a>
</g>
</g>
<!-- Node17&#45;&gt;Node18 -->
<g id="edge26_Node000017_Node000018" class="edge">
<title>Node17&#45;&gt;Node18</title>
<g id="a_edge26_Node000017_Node000018"><a xlink:title=" ">
<path fill="none" stroke="#63b8ff" d="M405.69,-219.84C417.59,-210.91 432.93,-199.41 445,-190.35"/>
<polygon fill="#63b8ff" stroke="#63b8ff" points="447.22,-193.07 453.12,-184.27 443.02,-187.47 447.22,-193.07"/>
</a>
</g>
</g>
</g>
</svg>
