<?xml version="1.0" encoding="UTF-8" standalone="no"?>
<!DOCTYPE svg PUBLIC "-//W3C//DTD SVG 1.1//EN"
 "http://www.w3.org/Graphics/SVG/1.1/DTD/svg11.dtd">
<!-- Generated by graphviz version 2.43.0 (0)
 -->
<!-- Title: include/jsonrpc/server/transports/server_transport.hpp Pages: 1 -->
<svg width="868pt" height="203pt"
 viewBox="0.00 0.00 868.00 203.00" xmlns="http://www.w3.org/2000/svg" xmlns:xlink="http://www.w3.org/1999/xlink">
<g id="graph0" class="graph" transform="scale(1 1) rotate(0) translate(4 199)">
<title>include/jsonrpc/server/transports/server_transport.hpp</title>
<!-- Node1 -->
<g id="Node000001" class="node">
<title>Node1</title>
<g id="a_Node000001"><a xlink:title=" ">
<polygon fill="#999999" stroke="#666666" points="338,-195 165,-195 165,-165 338,-165 338,-195"/>
<text text-anchor="start" x="173" y="-183" font-family="Helvetica,sans-Serif" font-size="10.00">include/jsonrpc/server</text>
<text text-anchor="middle" x="251.5" y="-172" font-family="Helvetica,sans-Serif" font-size="10.00">/transports/server_transport.hpp</text>
</a>
</g>
</g>
<!-- Node2 -->
<g id="Node000002" class="node">
<title>Node2</title>
<g id="a_Node000002"><a xlink:title=" ">
<polygon fill="#e0e0e0" stroke="#999999" points="204.5,-129 154.5,-129 154.5,-110 204.5,-110 204.5,-129"/>
<text text-anchor="middle" x="179.5" y="-117" font-family="Helvetica,sans-Serif" font-size="10.00">atomic</text>
</a>
</g>
</g>
<!-- Node1&#45;&gt;Node2 -->
<g id="edge1_Node000001_Node000002" class="edge">
<title>Node1&#45;&gt;Node2</title>
<g id="a_edge1_Node000001_Node000002"><a xlink:title=" ">
<path fill="none" stroke="#63b8ff" d="M234.07,-164.84C223.19,-156 209.2,-144.63 198.11,-135.62"/>
<polygon fill="#63b8ff" stroke="#63b8ff" points="200.26,-132.86 190.29,-129.27 195.84,-138.29 200.26,-132.86"/>
</a>
</g>
</g>
<!-- Node3 -->
<g id="Node000003" class="node">
<title>Node3</title>
<g id="a_Node000003"><a xlink:title=" ">
<polygon fill="#e0e0e0" stroke="#999999" points="280.5,-129 222.5,-129 222.5,-110 280.5,-110 280.5,-129"/>
<text text-anchor="middle" x="251.5" y="-117" font-family="Helvetica,sans-Serif" font-size="10.00">memory</text>
</a>
</g>
</g>
<!-- Node1&#45;&gt;Node3 -->
<g id="edge2_Node000001_Node000003" class="edge">
<title>Node1&#45;&gt;Node3</title>
<g id="a_edge2_Node000001_Node000003"><a xlink:title=" ">
<path fill="none" stroke="#63b8ff" d="M251.5,-164.84C251.5,-157.21 251.5,-147.7 251.5,-139.45"/>
<polygon fill="#63b8ff" stroke="#63b8ff" points="255,-139.27 251.5,-129.27 248,-139.27 255,-139.27"/>
</a>
</g>
</g>
<!-- Node4 -->
<g id="Node000004" class="node">
<title>Node4</title>
<g id="a_Node000004"><a xlink:href="dispatcher_8hpp.html" target="_top" xlink:title=" ">
<polygon fill="white" stroke="#666666" points="458.5,-129 298.5,-129 298.5,-110 458.5,-110 458.5,-129"/>
<text text-anchor="middle" x="378.5" y="-117" font-family="Helvetica,sans-Serif" font-size="10.00">jsonrpc/server/dispatcher.hpp</text>
</a>
</g>
</g>
<!-- Node1&#45;&gt;Node4 -->
<g id="edge3_Node000001_Node000004" class="edge">
<title>Node1&#45;&gt;Node4</title>
<g id="a_edge3_Node000001_Node000004"><a xlink:title=" ">
<path fill="none" stroke="#63b8ff" d="M281.92,-164.99C302.73,-155.4 330.12,-142.79 350.41,-133.44"/>
<polygon fill="#63b8ff" stroke="#63b8ff" points="352.13,-136.5 359.74,-129.14 349.2,-130.14 352.13,-136.5"/>
</a>
</g>
</g>
<!-- Node5 -->
<g id="Node000005" class="node">
<title>Node5</title>
<g id="a_Node000005"><a xlink:title=" ">
<polygon fill="#e0e0e0" stroke="#999999" points="558.5,-19 502.5,-19 502.5,0 558.5,0 558.5,-19"/>
<text text-anchor="middle" x="530.5" y="-7" font-family="Helvetica,sans-Serif" font-size="10.00">optional</text>
</a>
</g>
</g>
<!-- Node4&#45;&gt;Node5 -->
<g id="edge4_Node000004_Node000005" class="edge">
<title>Node4&#45;&gt;Node5</title>
<g id="a_edge4_Node000004_Node000005"><a xlink:title=" ">
<path fill="none" stroke="#63b8ff" d="M458.64,-113.63C517.21,-108.19 589.57,-96.94 608.5,-74 625.6,-53.28 593.97,-34.53 566.01,-22.86"/>
<polygon fill="#63b8ff" stroke="#63b8ff" points="566.94,-19.47 556.36,-19.04 564.37,-25.98 566.94,-19.47"/>
</a>
</g>
</g>
<!-- Node6 -->
<g id="Node000006" class="node">
<title>Node6</title>
<g id="a_Node000006"><a xlink:title=" ">
<polygon fill="#e0e0e0" stroke="#999999" points="183.5,-19 139.5,-19 139.5,0 183.5,0 183.5,-19"/>
<text text-anchor="middle" x="161.5" y="-7" font-family="Helvetica,sans-Serif" font-size="10.00">string</text>
</a>
</g>
</g>
<!-- Node4&#45;&gt;Node6 -->
<g id="edge5_Node000004_Node000006" class="edge">
<title>Node4&#45;&gt;Node6</title>
<g id="a_edge5_Node000004_Node000006"><a xlink:title=" ">
<path fill="none" stroke="#63b8ff" d="M303.69,-109.97C216.4,-99.67 82.95,-82.63 75.5,-74 55.32,-50.64 97.65,-30.84 129.79,-19.82"/>
<polygon fill="#63b8ff" stroke="#63b8ff" points="130.94,-23.13 139.36,-16.69 128.76,-16.48 130.94,-23.13"/>
</a>
</g>
</g>
<!-- Node7 -->
<g id="Node000007" class="node">
<title>Node7</title>
<g id="a_Node000007"><a xlink:title=" ">
<polygon fill="#e0e0e0" stroke="#999999" points="93,-19 0,-19 0,0 93,0 93,-19"/>
<text text-anchor="middle" x="46.5" y="-7" font-family="Helvetica,sans-Serif" font-size="10.00">unordered_map</text>
</a>
</g>
</g>
<!-- Node4&#45;&gt;Node7 -->
<g id="edge6_Node000004_Node000007" class="edge">
<title>Node4&#45;&gt;Node7</title>
<g id="a_edge6_Node000004_Node000007"><a xlink:title=" ">
<path fill="none" stroke="#63b8ff" d="M304.61,-109.96C215.24,-99.34 75.53,-81.67 66.5,-74 53.57,-63.02 48.89,-43.76 47.25,-29.32"/>
<polygon fill="#63b8ff" stroke="#63b8ff" points="50.72,-28.74 46.49,-19.03 43.74,-29.26 50.72,-28.74"/>
</a>
</g>
</g>
<!-- Node8 -->
<g id="Node000008" class="node">
<title>Node8</title>
<g id="a_Node000008"><a xlink:title=" ">
<polygon fill="#e0e0e0" stroke="#999999" points="304,-74 257,-74 257,-55 304,-55 304,-74"/>
<text text-anchor="middle" x="280.5" y="-62" font-family="Helvetica,sans-Serif" font-size="10.00">vector</text>
</a>
</g>
</g>
<!-- Node4&#45;&gt;Node8 -->
<g id="edge7_Node000004_Node000008" class="edge">
<title>Node4&#45;&gt;Node8</title>
<g id="a_edge7_Node000004_Node000008"><a xlink:title=" ">
<path fill="none" stroke="#63b8ff" d="M362.75,-109.98C347.27,-101.61 323.41,-88.7 305.36,-78.95"/>
<polygon fill="#63b8ff" stroke="#63b8ff" points="306.99,-75.85 296.53,-74.17 303.66,-82.01 306.99,-75.85"/>
</a>
</g>
</g>
<!-- Node9 -->
<g id="Node000009" class="node">
<title>Node9</title>
<g id="a_Node000009"><a xlink:title=" ">
<polygon fill="#e0e0e0" stroke="#999999" points="435,-74 322,-74 322,-55 435,-55 435,-74"/>
<text text-anchor="middle" x="378.5" y="-62" font-family="Helvetica,sans-Serif" font-size="10.00">BS_thread_pool.hpp</text>
</a>
</g>
</g>
<!-- Node4&#45;&gt;Node9 -->
<g id="edge8_Node000004_Node000009" class="edge">
<title>Node4&#45;&gt;Node9</title>
<g id="a_edge8_Node000004_Node000009"><a xlink:title=" ">
<path fill="none" stroke="#63b8ff" d="M378.5,-109.75C378.5,-102.8 378.5,-92.85 378.5,-84.13"/>
<polygon fill="#63b8ff" stroke="#63b8ff" points="382,-84.09 378.5,-74.09 375,-84.09 382,-84.09"/>
</a>
</g>
</g>
<!-- Node10 -->
<g id="Node000010" class="node">
<title>Node10</title>
<g id="a_Node000010"><a xlink:title=" ">
<polygon fill="#e0e0e0" stroke="#999999" points="700.5,-19 590.5,-19 590.5,0 700.5,0 700.5,-19"/>
<text text-anchor="middle" x="645.5" y="-7" font-family="Helvetica,sans-Serif" font-size="10.00">nlohmann/json.hpp</text>
</a>
</g>
</g>
<!-- Node4&#45;&gt;Node10 -->
<g id="edge9_Node000004_Node000010" class="edge">
<title>Node4&#45;&gt;Node10</title>
<g id="a_edge9_Node000004_Node000010"><a xlink:title=" ">
<path fill="none" stroke="#63b8ff" d="M458.8,-112.95C521.19,-107.05 601.1,-95.49 625.5,-74 638.09,-62.91 642.84,-43.97 644.58,-29.66"/>
<polygon fill="#63b8ff" stroke="#63b8ff" points="648.09,-29.66 645.43,-19.41 641.12,-29.08 648.09,-29.66"/>
</a>
</g>
</g>
<!-- Node11 -->
<g id="Node000011" class="node">
<title>Node11</title>
<g id="a_Node000011"><a xlink:href="server_2request_8hpp.html" target="_top" xlink:title=" ">
<polygon fill="white" stroke="#666666" points="599.5,-74 453.5,-74 453.5,-55 599.5,-55 599.5,-74"/>
<text text-anchor="middle" x="526.5" y="-62" font-family="Helvetica,sans-Serif" font-size="10.00">jsonrpc/server/request.hpp</text>
</a>
</g>
</g>
<!-- Node4&#45;&gt;Node11 -->
<g id="edge10_Node000004_Node000011" class="edge">
<title>Node4&#45;&gt;Node11</title>
<g id="a_edge10_Node000004_Node000011"><a xlink:title=" ">
<path fill="none" stroke="#63b8ff" d="M402.28,-109.98C426.73,-101.23 465.03,-87.51 492.65,-77.62"/>
<polygon fill="#63b8ff" stroke="#63b8ff" points="494.05,-80.84 502.29,-74.17 491.69,-74.25 494.05,-80.84"/>
</a>
</g>
</g>
<!-- Node12 -->
<g id="Node000012" class="node">
<title>Node12</title>
<g id="a_Node000012"><a xlink:href="response_8hpp.html" target="_top" xlink:title=" ">
<polygon fill="white" stroke="#666666" points="238.5,-74 84.5,-74 84.5,-55 238.5,-55 238.5,-74"/>
<text text-anchor="middle" x="161.5" y="-62" font-family="Helvetica,sans-Serif" font-size="10.00">jsonrpc/server/response.hpp</text>
</a>
</g>
</g>
<!-- Node4&#45;&gt;Node12 -->
<g id="edge14_Node000004_Node000012" class="edge">
<title>Node4&#45;&gt;Node12</title>
<g id="a_edge14_Node000004_Node000012"><a xlink:title=" ">
<path fill="none" stroke="#63b8ff" d="M343.64,-109.98C306.41,-100.89 247.3,-86.46 206.57,-76.51"/>
<polygon fill="#63b8ff" stroke="#63b8ff" points="207.18,-73.05 196.64,-74.08 205.52,-79.85 207.18,-73.05"/>
</a>
</g>
</g>
<!-- Node13 -->
<g id="Node000013" class="node">
<title>Node13</title>
<g id="a_Node000013"><a xlink:href="types_8hpp.html" target="_top" xlink:title=" ">
<polygon fill="white" stroke="#666666" points="831,-74 694,-74 694,-55 831,-55 831,-74"/>
<text text-anchor="middle" x="762.5" y="-62" font-family="Helvetica,sans-Serif" font-size="10.00">jsonrpc/server/types.hpp</text>
</a>
</g>
</g>
<!-- Node4&#45;&gt;Node13 -->
<g id="edge19_Node000004_Node000013" class="edge">
<title>Node4&#45;&gt;Node13</title>
<g id="a_edge19_Node000004_Node000013"><a xlink:title=" ">
<path fill="none" stroke="#63b8ff" d="M440.2,-109.98C508.53,-100.55 618.57,-85.36 690.72,-75.41"/>
<polygon fill="#63b8ff" stroke="#63b8ff" points="691.21,-78.87 700.64,-74.04 690.25,-71.94 691.21,-78.87"/>
</a>
</g>
</g>
<!-- Node11&#45;&gt;Node5 -->
<g id="edge11_Node000011_Node000005" class="edge">
<title>Node11&#45;&gt;Node5</title>
<g id="a_edge11_Node000011_Node000005"><a xlink:title=" ">
<path fill="none" stroke="#63b8ff" d="M527.16,-54.75C527.68,-47.8 528.44,-37.85 529.09,-29.13"/>
<polygon fill="#63b8ff" stroke="#63b8ff" points="532.59,-29.32 529.85,-19.09 525.61,-28.8 532.59,-29.32"/>
</a>
</g>
</g>
<!-- Node11&#45;&gt;Node6 -->
<g id="edge12_Node000011_Node000006" class="edge">
<title>Node11&#45;&gt;Node6</title>
<g id="a_edge12_Node000011_Node000006"><a xlink:title=" ">
<path fill="none" stroke="#63b8ff" d="M467.86,-54.98C390.1,-43.69 255.56,-24.16 193.98,-15.22"/>
<polygon fill="#63b8ff" stroke="#63b8ff" points="194.1,-11.7 183.7,-13.72 193.09,-18.62 194.1,-11.7"/>
</a>
</g>
</g>
<!-- Node11&#45;&gt;Node10 -->
<g id="edge13_Node000011_Node000010" class="edge">
<title>Node11&#45;&gt;Node10</title>
<g id="a_edge13_Node000011_Node000010"><a xlink:title=" ">
<path fill="none" stroke="#63b8ff" d="M545.62,-54.98C564.85,-46.42 594.73,-33.11 616.81,-23.28"/>
<polygon fill="#63b8ff" stroke="#63b8ff" points="618.32,-26.44 626.03,-19.17 615.47,-20.04 618.32,-26.44"/>
</a>
</g>
</g>
<!-- Node12&#45;&gt;Node5 -->
<g id="edge15_Node000012_Node000005" class="edge">
<title>Node12&#45;&gt;Node5</title>
<g id="a_edge15_Node000012_Node000005"><a xlink:title=" ">
<path fill="none" stroke="#63b8ff" d="M220.79,-54.98C297.21,-44.01 427.9,-25.24 492.31,-15.98"/>
<polygon fill="#63b8ff" stroke="#63b8ff" points="493.03,-19.42 502.43,-14.53 492.04,-12.49 493.03,-19.42"/>
</a>
</g>
</g>
<!-- Node12&#45;&gt;Node6 -->
<g id="edge16_Node000012_Node000006" class="edge">
<title>Node12&#45;&gt;Node6</title>
<g id="a_edge16_Node000012_Node000006"><a xlink:title=" ">
<path fill="none" stroke="#63b8ff" d="M161.5,-54.75C161.5,-47.8 161.5,-37.85 161.5,-29.13"/>
<polygon fill="#63b8ff" stroke="#63b8ff" points="165,-29.09 161.5,-19.09 158,-29.09 165,-29.09"/>
</a>
</g>
</g>
<!-- Node12&#45;&gt;Node7 -->
<g id="edge17_Node000012_Node000007" class="edge">
<title>Node12&#45;&gt;Node7</title>
<g id="a_edge17_Node000012_Node000007"><a xlink:title=" ">
<path fill="none" stroke="#63b8ff" d="M143.02,-54.98C124.52,-46.46 95.82,-33.23 74.52,-23.41"/>
<polygon fill="#63b8ff" stroke="#63b8ff" points="75.86,-20.18 65.31,-19.17 72.93,-26.53 75.86,-20.18"/>
</a>
</g>
</g>
<!-- Node12&#45;&gt;Node10 -->
<g id="edge18_Node000012_Node000010" class="edge">
<title>Node12&#45;&gt;Node10</title>
<g id="a_edge18_Node000012_Node000010"><a xlink:title=" ">
<path fill="none" stroke="#63b8ff" d="M238.73,-55.04C333.2,-44.7 491.48,-27.37 580.18,-17.65"/>
<polygon fill="#63b8ff" stroke="#63b8ff" points="580.82,-21.1 590.38,-16.54 580.06,-14.15 580.82,-21.1"/>
</a>
</g>
</g>
<!-- Node13&#45;&gt;Node5 -->
<g id="edge21_Node000013_Node000005" class="edge">
<title>Node13&#45;&gt;Node5</title>
<g id="a_edge21_Node000013_Node000005"><a xlink:title=" ">
<path fill="none" stroke="#63b8ff" d="M725.23,-54.98C682.18,-45.15 611.75,-29.06 568.43,-19.17"/>
<polygon fill="#63b8ff" stroke="#63b8ff" points="569.09,-15.73 558.56,-16.91 567.53,-22.55 569.09,-15.73"/>
</a>
</g>
</g>
<!-- Node13&#45;&gt;Node10 -->
<g id="edge23_Node000013_Node000010" class="edge">
<title>Node13&#45;&gt;Node10</title>
<g id="a_edge23_Node000013_Node000010"><a xlink:title=" ">
<path fill="none" stroke="#63b8ff" d="M743.7,-54.98C724.88,-46.46 695.68,-33.23 674,-23.41"/>
<polygon fill="#63b8ff" stroke="#63b8ff" points="675.19,-20.11 664.64,-19.17 672.3,-26.48 675.19,-20.11"/>
</a>
</g>
</g>
<!-- Node14 -->
<g id="Node000014" class="node">
<title>Node14</title>
<g id="a_Node000014"><a xlink:title=" ">
<polygon fill="#e0e0e0" stroke="#999999" points="791,-19 726,-19 726,0 791,0 791,-19"/>
<text text-anchor="middle" x="758.5" y="-7" font-family="Helvetica,sans-Serif" font-size="10.00">functional</text>
</a>
</g>
</g>
<!-- Node13&#45;&gt;Node14 -->
<g id="edge20_Node000013_Node000014" class="edge">
<title>Node13&#45;&gt;Node14</title>
<g id="a_edge20_Node000013_Node000014"><a xlink:title=" ">
<path fill="none" stroke="#63b8ff" d="M761.84,-54.75C761.32,-47.8 760.56,-37.85 759.91,-29.13"/>
<polygon fill="#63b8ff" stroke="#63b8ff" points="763.39,-28.8 759.15,-19.09 756.41,-29.32 763.39,-28.8"/>
</a>
</g>
</g>
<!-- Node15 -->
<g id="Node000015" class="node">
<title>Node15</title>
<g id="a_Node000015"><a xlink:title=" ">
<polygon fill="#e0e0e0" stroke="#999999" points="860,-19 809,-19 809,0 860,0 860,-19"/>
<text text-anchor="middle" x="834.5" y="-7" font-family="Helvetica,sans-Serif" font-size="10.00">variant</text>
</a>
</g>
</g>
<!-- Node13&#45;&gt;Node15 -->
<g id="edge22_Node000013_Node000015" class="edge">
<title>Node13&#45;&gt;Node15</title>
<g id="a_edge22_Node000013_Node000015"><a xlink:title=" ">
<path fill="none" stroke="#63b8ff" d="M774.07,-54.98C784.92,-47 801.38,-34.88 814.38,-25.31"/>
<polygon fill="#63b8ff" stroke="#63b8ff" points="816.74,-27.92 822.72,-19.17 812.59,-22.28 816.74,-27.92"/>
</a>
</g>
</g>
</g>
</svg>
