<?xml version="1.0" encoding="UTF-8" standalone="no"?>
<!DOCTYPE svg PUBLIC "-//W3C//DTD SVG 1.1//EN"
 "http://www.w3.org/Graphics/SVG/1.1/DTD/svg11.dtd">
<!-- Generated by graphviz version 2.43.0 (0)
 -->
<!-- Title: include/json_rpc/core/server_transport.hpp Pages: 1 -->
<svg width="719pt" height="170pt"
 viewBox="0.00 0.00 718.50 170.00" xmlns="http://www.w3.org/2000/svg" xmlns:xlink="http://www.w3.org/1999/xlink">
<g id="graph0" class="graph" transform="scale(1 1) rotate(0) translate(4 166)">
<title>include/json_rpc/core/server_transport.hpp</title>
<!-- Node1 -->
<g id="Node000001" class="node">
<title>Node1</title>
<g id="a_Node000001"><a xlink:title=" ">
<polygon fill="#999999" stroke="#666666" points="427,-162 306,-162 306,-132 427,-132 427,-162"/>
<text text-anchor="start" x="314" y="-150" font-family="Helvetica,sans-Serif" font-size="10.00">include/json_rpc/core</text>
<text text-anchor="middle" x="366.5" y="-139" font-family="Helvetica,sans-Serif" font-size="10.00">/server_transport.hpp</text>
</a>
</g>
</g>
<!-- Node2 -->
<g id="Node000002" class="node">
<title>Node2</title>
<g id="a_Node000002"><a xlink:href="json__rpc_8hpp.html" target="_top" xlink:title=" ">
<polygon fill="white" stroke="#666666" points="426,-30 307,-30 307,0 426,0 426,-30"/>
<text text-anchor="start" x="315" y="-18" font-family="Helvetica,sans-Serif" font-size="10.00">include/json_rpc/json</text>
<text text-anchor="middle" x="366.5" y="-7" font-family="Helvetica,sans-Serif" font-size="10.00">_rpc.hpp</text>
</a>
</g>
</g>
<!-- Node1&#45;&gt;Node2 -->
<g id="edge1_Node000001_Node000002" class="edge">
<title>Node1&#45;&gt;Node2</title>
<g id="a_edge1_Node000001_Node000002"><a xlink:title=" ">
<path fill="none" stroke="#63b8ff" d="M366.5,-121.68C366.5,-94.7 366.5,-52.11 366.5,-30.14"/>
<polygon fill="#63b8ff" stroke="#63b8ff" points="363,-121.84 366.5,-131.84 370,-121.84 363,-121.84"/>
</a>
</g>
</g>
<!-- Node3 -->
<g id="Node000003" class="node">
<title>Node3</title>
<g id="a_Node000003"><a xlink:href="server_8hpp.html" target="_top" xlink:title=" ">
<polygon fill="white" stroke="#666666" points="129,-96 0,-96 0,-66 129,-66 129,-96"/>
<text text-anchor="start" x="8" y="-84" font-family="Helvetica,sans-Serif" font-size="10.00">include/json_rpc/server</text>
<text text-anchor="middle" x="64.5" y="-73" font-family="Helvetica,sans-Serif" font-size="10.00">/server.hpp</text>
</a>
</g>
</g>
<!-- Node1&#45;&gt;Node3 -->
<g id="edge2_Node000001_Node000003" class="edge">
<title>Node1&#45;&gt;Node3</title>
<g id="a_edge2_Node000001_Node000003"><a xlink:title=" ">
<path fill="none" stroke="#63b8ff" d="M295.89,-131.04C245.44,-120.35 178.09,-106.07 129.07,-95.68"/>
<polygon fill="#63b8ff" stroke="#63b8ff" points="295.24,-134.48 305.75,-133.13 296.69,-127.63 295.24,-134.48"/>
</a>
</g>
</g>
<!-- Node5 -->
<g id="Node000005" class="node">
<title>Node5</title>
<g id="a_Node000005"><a xlink:href="framed__stdio__server__transport_8hpp.html" target="_top" xlink:title=" ">
<polygon fill="white" stroke="#666666" points="338,-96 147,-96 147,-66 338,-66 338,-96"/>
<text text-anchor="start" x="155" y="-84" font-family="Helvetica,sans-Serif" font-size="10.00">include/json_rpc/transports</text>
<text text-anchor="middle" x="242.5" y="-73" font-family="Helvetica,sans-Serif" font-size="10.00">/framed_stdio_server_transport.hpp</text>
</a>
</g>
</g>
<!-- Node1&#45;&gt;Node5 -->
<g id="edge5_Node000001_Node000005" class="edge">
<title>Node1&#45;&gt;Node5</title>
<g id="a_edge5_Node000001_Node000005"><a xlink:title=" ">
<path fill="none" stroke="#63b8ff" d="M330.16,-127.24C310.8,-117.25 287.4,-105.18 269.65,-96.01"/>
<polygon fill="#63b8ff" stroke="#63b8ff" points="328.8,-130.48 339.29,-131.95 332.01,-124.26 328.8,-130.48"/>
</a>
</g>
</g>
<!-- Node7 -->
<g id="Node000007" class="node">
<title>Node7</title>
<g id="a_Node000007"><a xlink:href="http__server__transport_8hpp.html" target="_top" xlink:title=" ">
<polygon fill="white" stroke="#666666" points="542.5,-96 394.5,-96 394.5,-66 542.5,-66 542.5,-96"/>
<text text-anchor="start" x="402.5" y="-84" font-family="Helvetica,sans-Serif" font-size="10.00">include/json_rpc/transports</text>
<text text-anchor="middle" x="468.5" y="-73" font-family="Helvetica,sans-Serif" font-size="10.00">/http_server_transport.hpp</text>
</a>
</g>
</g>
<!-- Node1&#45;&gt;Node7 -->
<g id="edge8_Node000001_Node000007" class="edge">
<title>Node1&#45;&gt;Node7</title>
<g id="a_edge8_Node000001_Node000007"><a xlink:title=" ">
<path fill="none" stroke="#63b8ff" d="M397.71,-126.42C413.36,-116.6 431.96,-104.93 446.17,-96.01"/>
<polygon fill="#63b8ff" stroke="#63b8ff" points="395.49,-123.68 388.88,-131.95 399.22,-129.6 395.49,-123.68"/>
</a>
</g>
</g>
<!-- Node9 -->
<g id="Node000009" class="node">
<title>Node9</title>
<g id="a_Node000009"><a xlink:href="stdio__server__transport_8hpp.html" target="_top" xlink:title=" ">
<polygon fill="white" stroke="#666666" points="710.5,-96 560.5,-96 560.5,-66 710.5,-66 710.5,-96"/>
<text text-anchor="start" x="568.5" y="-84" font-family="Helvetica,sans-Serif" font-size="10.00">include/json_rpc/transports</text>
<text text-anchor="middle" x="635.5" y="-73" font-family="Helvetica,sans-Serif" font-size="10.00">/stdio_server_transport.hpp</text>
</a>
</g>
</g>
<!-- Node1&#45;&gt;Node9 -->
<g id="edge11_Node000001_Node000009" class="edge">
<title>Node1&#45;&gt;Node9</title>
<g id="a_edge11_Node000001_Node000009"><a xlink:title=" ">
<path fill="none" stroke="#63b8ff" d="M435.5,-129.58C479.17,-119.19 535.03,-105.9 576.6,-96.01"/>
<polygon fill="#63b8ff" stroke="#63b8ff" points="434.45,-126.24 425.53,-131.95 436.07,-133.05 434.45,-126.24"/>
</a>
</g>
</g>
<!-- Node3&#45;&gt;Node2 -->
<g id="edge3_Node000003_Node000002" class="edge">
<title>Node3&#45;&gt;Node2</title>
<g id="a_edge3_Node000003_Node000002"><a xlink:title=" ">
<path fill="none" stroke="#63b8ff" d="M139.08,-64.2C190.82,-53.23 258.82,-38.82 306.95,-28.62"/>
<polygon fill="#63b8ff" stroke="#63b8ff" points="138.34,-60.77 129.29,-66.27 139.79,-67.62 138.34,-60.77"/>
</a>
</g>
</g>
<!-- Node4 -->
<g id="Node000004" class="node">
<title>Node4</title>
<g id="a_Node000004"><a xlink:href="server_8cpp.html" target="_top" xlink:title=" ">
<polygon fill="white" stroke="#666666" points="118.5,-24.5 0.5,-24.5 0.5,-5.5 118.5,-5.5 118.5,-24.5"/>
<text text-anchor="middle" x="59.5" y="-12.5" font-family="Helvetica,sans-Serif" font-size="10.00">src/server/server.cpp</text>
</a>
</g>
</g>
<!-- Node3&#45;&gt;Node4 -->
<g id="edge4_Node000003_Node000004" class="edge">
<title>Node3&#45;&gt;Node4</title>
<g id="a_edge4_Node000003_Node000004"><a xlink:title=" ">
<path fill="none" stroke="#63b8ff" d="M62.59,-55.6C61.75,-44.8 60.81,-32.78 60.19,-24.84"/>
<polygon fill="#63b8ff" stroke="#63b8ff" points="59.12,-56.1 63.39,-65.8 66.1,-55.55 59.12,-56.1"/>
</a>
</g>
</g>
<!-- Node5&#45;&gt;Node2 -->
<g id="edge6_Node000005_Node000002" class="edge">
<title>Node5&#45;&gt;Node2</title>
<g id="a_edge6_Node000005_Node000002"><a xlink:title=" ">
<path fill="none" stroke="#63b8ff" d="M278.84,-61.24C298.2,-51.25 321.6,-39.18 339.35,-30.01"/>
<polygon fill="#63b8ff" stroke="#63b8ff" points="276.99,-58.26 269.71,-65.95 280.2,-64.48 276.99,-58.26"/>
</a>
</g>
</g>
<!-- Node6 -->
<g id="Node000006" class="node">
<title>Node6</title>
<g id="a_Node000006"><a xlink:href="framed__stdio__server__transport_8cpp.html" target="_top" xlink:title=" ">
<polygon fill="white" stroke="#666666" points="288.5,-30 136.5,-30 136.5,0 288.5,0 288.5,-30"/>
<text text-anchor="start" x="144.5" y="-18" font-family="Helvetica,sans-Serif" font-size="10.00">src/transports/framed</text>
<text text-anchor="middle" x="212.5" y="-7" font-family="Helvetica,sans-Serif" font-size="10.00">_stdio_server_transport.cpp</text>
</a>
</g>
</g>
<!-- Node5&#45;&gt;Node6 -->
<g id="edge7_Node000005_Node000006" class="edge">
<title>Node5&#45;&gt;Node6</title>
<g id="a_edge7_Node000005_Node000006"><a xlink:title=" ">
<path fill="none" stroke="#63b8ff" d="M231.57,-56.68C227.4,-47.79 222.79,-37.95 219.14,-30.16"/>
<polygon fill="#63b8ff" stroke="#63b8ff" points="228.43,-58.23 235.84,-65.8 234.77,-55.26 228.43,-58.23"/>
</a>
</g>
</g>
<!-- Node7&#45;&gt;Node2 -->
<g id="edge9_Node000007_Node000002" class="edge">
<title>Node7&#45;&gt;Node2</title>
<g id="a_edge9_Node000007_Node000002"><a xlink:title=" ">
<path fill="none" stroke="#63b8ff" d="M437.29,-60.42C421.64,-50.6 403.04,-38.93 388.83,-30.01"/>
<polygon fill="#63b8ff" stroke="#63b8ff" points="435.78,-63.6 446.12,-65.95 439.51,-57.68 435.78,-63.6"/>
</a>
</g>
</g>
<!-- Node8 -->
<g id="Node000008" class="node">
<title>Node8</title>
<g id="a_Node000008"><a xlink:href="http__server__transport_8cpp.html" target="_top" xlink:title=" ">
<polygon fill="white" stroke="#666666" points="566.5,-30 444.5,-30 444.5,0 566.5,0 566.5,-30"/>
<text text-anchor="start" x="452.5" y="-18" font-family="Helvetica,sans-Serif" font-size="10.00">src/transports/http</text>
<text text-anchor="middle" x="505.5" y="-7" font-family="Helvetica,sans-Serif" font-size="10.00">_server_transport.cpp</text>
</a>
</g>
</g>
<!-- Node7&#45;&gt;Node8 -->
<g id="edge10_Node000007_Node000008" class="edge">
<title>Node7&#45;&gt;Node8</title>
<g id="a_edge10_Node000007_Node000008"><a xlink:title=" ">
<path fill="none" stroke="#63b8ff" d="M481.82,-56.96C487,-48 492.76,-38.03 497.31,-30.16"/>
<polygon fill="#63b8ff" stroke="#63b8ff" points="478.69,-55.39 476.71,-65.8 484.75,-58.89 478.69,-55.39"/>
</a>
</g>
</g>
<!-- Node9&#45;&gt;Node2 -->
<g id="edge12_Node000009_Node000002" class="edge">
<title>Node9&#45;&gt;Node2</title>
<g id="a_edge12_Node000009_Node000002"><a xlink:title=" ">
<path fill="none" stroke="#63b8ff" d="M566.5,-63.58C522.83,-53.19 466.97,-39.9 425.4,-30.01"/>
<polygon fill="#63b8ff" stroke="#63b8ff" points="565.93,-67.05 576.47,-65.95 567.55,-60.24 565.93,-67.05"/>
</a>
</g>
</g>
<!-- Node10 -->
<g id="Node000010" class="node">
<title>Node10</title>
<g id="a_Node000010"><a xlink:href="stdio__server__transport_8cpp.html" target="_top" xlink:title=" ">
<polygon fill="white" stroke="#666666" points="706.5,-30 584.5,-30 584.5,0 706.5,0 706.5,-30"/>
<text text-anchor="start" x="592.5" y="-18" font-family="Helvetica,sans-Serif" font-size="10.00">src/transports/stdio</text>
<text text-anchor="middle" x="645.5" y="-7" font-family="Helvetica,sans-Serif" font-size="10.00">_server_transport.cpp</text>
</a>
</g>
</g>
<!-- Node9&#45;&gt;Node10 -->
<g id="edge13_Node000009_Node000010" class="edge">
<title>Node9&#45;&gt;Node10</title>
<g id="a_edge13_Node000009_Node000010"><a xlink:title=" ">
<path fill="none" stroke="#63b8ff" d="M639.28,-55.83C640.63,-47.17 642.11,-37.7 643.29,-30.16"/>
<polygon fill="#63b8ff" stroke="#63b8ff" points="635.81,-55.38 637.72,-65.8 642.72,-56.46 635.81,-55.38"/>
</a>
</g>
</g>
</g>
</svg>
