<?xml version="1.0" encoding="UTF-8" standalone="no"?>
<!DOCTYPE svg PUBLIC "-//W3C//DTD SVG 1.1//EN"
 "http://www.w3.org/Graphics/SVG/1.1/DTD/svg11.dtd">
<!-- Generated by graphviz version 2.43.0 (0)
 -->
<!-- Title: include/json_rpc/core/server_transport.hpp Pages: 1 -->
<svg width="806pt" height="258pt"
 viewBox="0.00 0.00 805.59 258.00" xmlns="http://www.w3.org/2000/svg" xmlns:xlink="http://www.w3.org/1999/xlink">
<g id="graph0" class="graph" transform="scale(1 1) rotate(0) translate(4 254)">
<title>include/json_rpc/core/server_transport.hpp</title>
<!-- Node1 -->
<g id="Node000001" class="node">
<title>Node1</title>
<g id="a_Node000001"><a xlink:title=" ">
<polygon fill="#999999" stroke="#666666" points="185.5,-250 64.5,-250 64.5,-220 185.5,-220 185.5,-250"/>
<text text-anchor="start" x="72.5" y="-238" font-family="Helvetica,sans-Serif" font-size="10.00">include/json_rpc/core</text>
<text text-anchor="middle" x="125" y="-227" font-family="Helvetica,sans-Serif" font-size="10.00">/server_transport.hpp</text>
</a>
</g>
</g>
<!-- Node2 -->
<g id="Node000002" class="node">
<title>Node2</title>
<g id="a_Node000002"><a xlink:title=" ">
<polygon fill="#e0e0e0" stroke="#999999" points="50,-184 0,-184 0,-165 50,-165 50,-184"/>
<text text-anchor="middle" x="25" y="-172" font-family="Helvetica,sans-Serif" font-size="10.00">atomic</text>
</a>
</g>
</g>
<!-- Node1&#45;&gt;Node2 -->
<g id="edge1_Node000001_Node000002" class="edge">
<title>Node1&#45;&gt;Node2</title>
<g id="a_edge1_Node000001_Node000002"><a xlink:title=" ">
<path fill="none" stroke="#63b8ff" d="M101.05,-219.99C85.11,-210.66 64.27,-198.47 48.44,-189.21"/>
<polygon fill="#63b8ff" stroke="#63b8ff" points="50.17,-186.17 39.77,-184.14 46.63,-192.21 50.17,-186.17"/>
</a>
</g>
</g>
<!-- Node3 -->
<g id="Node000003" class="node">
<title>Node3</title>
<g id="a_Node000003"><a xlink:title=" ">
<polygon fill="#e0e0e0" stroke="#999999" points="126,-184 68,-184 68,-165 126,-165 126,-184"/>
<text text-anchor="middle" x="97" y="-172" font-family="Helvetica,sans-Serif" font-size="10.00">memory</text>
</a>
</g>
</g>
<!-- Node1&#45;&gt;Node3 -->
<g id="edge2_Node000001_Node000003" class="edge">
<title>Node1&#45;&gt;Node3</title>
<g id="a_edge2_Node000001_Node000003"><a xlink:title=" ">
<path fill="none" stroke="#63b8ff" d="M118.22,-219.84C114.41,-211.87 109.61,-201.84 105.54,-193.33"/>
<polygon fill="#63b8ff" stroke="#63b8ff" points="108.67,-191.77 101.2,-184.27 102.36,-194.8 108.67,-191.77"/>
</a>
</g>
</g>
<!-- Node4 -->
<g id="Node000004" class="node">
<title>Node4</title>
<g id="a_Node000004"><a xlink:href="dispatcher_8hpp.html" target="_top" xlink:title=" ">
<polygon fill="white" stroke="#666666" points="519.5,-184 364.5,-184 364.5,-165 519.5,-165 519.5,-184"/>
<text text-anchor="middle" x="442" y="-172" font-family="Helvetica,sans-Serif" font-size="10.00">json_rpc/core/dispatcher.hpp</text>
</a>
</g>
</g>
<!-- Node1&#45;&gt;Node4 -->
<g id="edge3_Node000001_Node000004" class="edge">
<title>Node1&#45;&gt;Node4</title>
<g id="a_edge3_Node000001_Node000004"><a xlink:title=" ">
<path fill="none" stroke="#63b8ff" d="M185.75,-222.79C243.46,-212.14 329.54,-196.25 385.73,-185.88"/>
<polygon fill="#63b8ff" stroke="#63b8ff" points="386.66,-189.27 395.86,-184.02 385.39,-182.39 386.66,-189.27"/>
</a>
</g>
</g>
<!-- Node10 -->
<g id="Node000010" class="node">
<title>Node10</title>
<g id="a_Node000010"><a xlink:href="types_8hpp.html" target="_top" xlink:title=" ">
<polygon fill="white" stroke="#666666" points="334,-74 202,-74 202,-55 334,-55 334,-74"/>
<text text-anchor="middle" x="268" y="-62" font-family="Helvetica,sans-Serif" font-size="10.00">json_rpc/core/types.hpp</text>
</a>
</g>
</g>
<!-- Node1&#45;&gt;Node10 -->
<g id="edge23_Node000001_Node000010" class="edge">
<title>Node1&#45;&gt;Node10</title>
<g id="a_edge23_Node000001_Node000010"><a xlink:title=" ">
<path fill="none" stroke="#63b8ff" d="M131.57,-219.69C143.33,-195.18 169.85,-144.46 203,-110 214.6,-97.94 229.95,-87.25 242.82,-79.37"/>
<polygon fill="#63b8ff" stroke="#63b8ff" points="244.84,-82.25 251.67,-74.15 241.28,-76.22 244.84,-82.25"/>
</a>
</g>
</g>
<!-- Node5 -->
<g id="Node000005" class="node">
<title>Node5</title>
<g id="a_Node000005"><a xlink:title=" ">
<polygon fill="#e0e0e0" stroke="#999999" points="532,-19 476,-19 476,0 532,0 532,-19"/>
<text text-anchor="middle" x="504" y="-7" font-family="Helvetica,sans-Serif" font-size="10.00">optional</text>
</a>
</g>
</g>
<!-- Node4&#45;&gt;Node5 -->
<g id="edge4_Node000004_Node000005" class="edge">
<title>Node4&#45;&gt;Node5</title>
<g id="a_edge4_Node000004_Node000005"><a xlink:title=" ">
<path fill="none" stroke="#63b8ff" d="M519.79,-168.89C616.63,-162.34 771.5,-148.89 789,-129 802.68,-113.46 799.73,-76.55 777,-55 743.84,-23.56 609.1,-14.27 542.14,-11.58"/>
<polygon fill="#63b8ff" stroke="#63b8ff" points="542.13,-8.07 532,-11.2 541.87,-15.07 542.13,-8.07"/>
</a>
</g>
</g>
<!-- Node6 -->
<g id="Node000006" class="node">
<title>Node6</title>
<g id="a_Node000006"><a xlink:title=" ">
<polygon fill="#e0e0e0" stroke="#999999" points="434,-74 390,-74 390,-55 434,-55 434,-74"/>
<text text-anchor="middle" x="412" y="-62" font-family="Helvetica,sans-Serif" font-size="10.00">string</text>
</a>
</g>
</g>
<!-- Node4&#45;&gt;Node6 -->
<g id="edge5_Node000004_Node000006" class="edge">
<title>Node4&#45;&gt;Node6</title>
<g id="a_edge5_Node000004_Node000006"><a xlink:title=" ">
<path fill="none" stroke="#63b8ff" d="M432.98,-164.96C424.93,-156.66 413.71,-143.25 409,-129 404.23,-114.57 405.46,-97.3 407.62,-84.41"/>
<polygon fill="#63b8ff" stroke="#63b8ff" points="411.09,-84.89 409.62,-74.4 404.22,-83.52 411.09,-84.89"/>
</a>
</g>
</g>
<!-- Node7 -->
<g id="Node000007" class="node">
<title>Node7</title>
<g id="a_Node000007"><a xlink:title=" ">
<polygon fill="#e0e0e0" stroke="#999999" points="767.5,-74 674.5,-74 674.5,-55 767.5,-55 767.5,-74"/>
<text text-anchor="middle" x="721" y="-62" font-family="Helvetica,sans-Serif" font-size="10.00">unordered_map</text>
</a>
</g>
</g>
<!-- Node4&#45;&gt;Node7 -->
<g id="edge6_Node000004_Node000007" class="edge">
<title>Node4&#45;&gt;Node7</title>
<g id="a_edge6_Node000004_Node000007"><a xlink:title=" ">
<path fill="none" stroke="#63b8ff" d="M519.53,-174.35C606.83,-173.46 740.75,-165.88 773,-129 787.63,-112.28 765.14,-92.37 745.33,-79.36"/>
<polygon fill="#63b8ff" stroke="#63b8ff" points="747.18,-76.38 736.84,-74.07 743.48,-82.33 747.18,-76.38"/>
</a>
</g>
</g>
<!-- Node8 -->
<g id="Node000008" class="node">
<title>Node8</title>
<g id="a_Node000008"><a xlink:title=" ">
<polygon fill="#e0e0e0" stroke="#999999" points="465.5,-129 418.5,-129 418.5,-110 465.5,-110 465.5,-129"/>
<text text-anchor="middle" x="442" y="-117" font-family="Helvetica,sans-Serif" font-size="10.00">vector</text>
</a>
</g>
</g>
<!-- Node4&#45;&gt;Node8 -->
<g id="edge7_Node000004_Node000008" class="edge">
<title>Node4&#45;&gt;Node8</title>
<g id="a_edge7_Node000004_Node000008"><a xlink:title=" ">
<path fill="none" stroke="#63b8ff" d="M442,-164.75C442,-157.8 442,-147.85 442,-139.13"/>
<polygon fill="#63b8ff" stroke="#63b8ff" points="445.5,-139.09 442,-129.09 438.5,-139.09 445.5,-139.09"/>
</a>
</g>
</g>
<!-- Node9 -->
<g id="Node000009" class="node">
<title>Node9</title>
<g id="a_Node000009"><a xlink:href="request_8hpp.html" target="_top" xlink:title=" ">
<polygon fill="white" stroke="#666666" points="362,-129 220,-129 220,-110 362,-110 362,-129"/>
<text text-anchor="middle" x="291" y="-117" font-family="Helvetica,sans-Serif" font-size="10.00">json_rpc/core/request.hpp</text>
</a>
</g>
</g>
<!-- Node4&#45;&gt;Node9 -->
<g id="edge8_Node000004_Node000009" class="edge">
<title>Node4&#45;&gt;Node9</title>
<g id="a_edge8_Node000004_Node000009"><a xlink:title=" ">
<path fill="none" stroke="#63b8ff" d="M417.74,-164.98C392.68,-156.19 353.37,-142.39 325.17,-132.49"/>
<polygon fill="#63b8ff" stroke="#63b8ff" points="326.3,-129.18 315.7,-129.17 323.98,-135.78 326.3,-129.18"/>
</a>
</g>
</g>
<!-- Node4&#45;&gt;Node10 -->
<g id="edge21_Node000004_Node000010" class="edge">
<title>Node4&#45;&gt;Node10</title>
<g id="a_edge21_Node000004_Node000010"><a xlink:title=" ">
<path fill="none" stroke="#63b8ff" d="M364.22,-168.92C304.95,-163.61 230.31,-152.38 211,-129 196.39,-111.31 220.32,-91.78 241.51,-79.12"/>
<polygon fill="#63b8ff" stroke="#63b8ff" points="243.32,-82.11 250.3,-74.13 239.87,-76.02 243.32,-82.11"/>
</a>
</g>
</g>
<!-- Node14 -->
<g id="Node000014" class="node">
<title>Node14</title>
<g id="a_Node000014"><a xlink:href="response_8hpp.html" target="_top" xlink:title=" ">
<polygon fill="white" stroke="#666666" points="763.5,-129 614.5,-129 614.5,-110 763.5,-110 763.5,-129"/>
<text text-anchor="middle" x="689" y="-117" font-family="Helvetica,sans-Serif" font-size="10.00">json_rpc/core/response.hpp</text>
</a>
</g>
</g>
<!-- Node4&#45;&gt;Node14 -->
<g id="edge16_Node000004_Node000014" class="edge">
<title>Node4&#45;&gt;Node14</title>
<g id="a_edge16_Node000004_Node000014"><a xlink:title=" ">
<path fill="none" stroke="#63b8ff" d="M481.68,-164.98C524.5,-155.8 592.76,-141.15 639.16,-131.19"/>
<polygon fill="#63b8ff" stroke="#63b8ff" points="639.96,-134.6 649,-129.08 638.49,-127.76 639.96,-134.6"/>
</a>
</g>
</g>
<!-- Node15 -->
<g id="Node000015" class="node">
<title>Node15</title>
<g id="a_Node000015"><a xlink:title=" ">
<polygon fill="#e0e0e0" stroke="#999999" points="596.5,-129 483.5,-129 483.5,-110 596.5,-110 596.5,-129"/>
<text text-anchor="middle" x="540" y="-117" font-family="Helvetica,sans-Serif" font-size="10.00">BS_thread_pool.hpp</text>
</a>
</g>
</g>
<!-- Node4&#45;&gt;Node15 -->
<g id="edge22_Node000004_Node000015" class="edge">
<title>Node4&#45;&gt;Node15</title>
<g id="a_edge22_Node000004_Node000015"><a xlink:title=" ">
<path fill="none" stroke="#63b8ff" d="M457.75,-164.98C473.23,-156.61 497.09,-143.7 515.14,-133.95"/>
<polygon fill="#63b8ff" stroke="#63b8ff" points="516.84,-137.01 523.97,-129.17 513.51,-130.85 516.84,-137.01"/>
</a>
</g>
</g>
<!-- Node9&#45;&gt;Node5 -->
<g id="edge9_Node000009_Node000005" class="edge">
<title>Node9&#45;&gt;Node5</title>
<g id="a_edge9_Node000009_Node000005"><a xlink:title=" ">
<path fill="none" stroke="#63b8ff" d="M301.21,-109.9C317.31,-96.68 349.97,-71.18 381,-55 408.25,-40.78 441.07,-29.16 465.95,-21.36"/>
<polygon fill="#63b8ff" stroke="#63b8ff" points="467.21,-24.64 475.75,-18.36 465.16,-17.94 467.21,-24.64"/>
</a>
</g>
</g>
<!-- Node9&#45;&gt;Node6 -->
<g id="edge10_Node000009_Node000006" class="edge">
<title>Node9&#45;&gt;Node6</title>
<g id="a_edge10_Node000009_Node000006"><a xlink:title=" ">
<path fill="none" stroke="#63b8ff" d="M310.44,-109.98C329.99,-101.42 360.38,-88.11 382.82,-78.28"/>
<polygon fill="#63b8ff" stroke="#63b8ff" points="384.45,-81.39 392.21,-74.17 381.64,-74.98 384.45,-81.39"/>
</a>
</g>
</g>
<!-- Node9&#45;&gt;Node10 -->
<g id="edge11_Node000009_Node000010" class="edge">
<title>Node9&#45;&gt;Node10</title>
<g id="a_edge11_Node000009_Node000010"><a xlink:title=" ">
<path fill="none" stroke="#63b8ff" d="M287.2,-109.75C284.09,-102.57 279.58,-92.18 275.71,-83.27"/>
<polygon fill="#63b8ff" stroke="#63b8ff" points="278.92,-81.87 271.73,-74.09 272.5,-84.66 278.92,-81.87"/>
</a>
</g>
</g>
<!-- Node10&#45;&gt;Node5 -->
<g id="edge13_Node000010_Node000005" class="edge">
<title>Node10&#45;&gt;Node5</title>
<g id="a_edge13_Node000010_Node000005"><a xlink:title=" ">
<path fill="none" stroke="#63b8ff" d="M305.92,-54.98C349.83,-45.12 421.74,-28.97 465.78,-19.08"/>
<polygon fill="#63b8ff" stroke="#63b8ff" points="466.81,-22.44 475.8,-16.83 465.28,-15.61 466.81,-22.44"/>
</a>
</g>
</g>
<!-- Node11 -->
<g id="Node000011" class="node">
<title>Node11</title>
<g id="a_Node000011"><a xlink:title=" ">
<polygon fill="#e0e0e0" stroke="#999999" points="300.5,-19 235.5,-19 235.5,0 300.5,0 300.5,-19"/>
<text text-anchor="middle" x="268" y="-7" font-family="Helvetica,sans-Serif" font-size="10.00">functional</text>
</a>
</g>
</g>
<!-- Node10&#45;&gt;Node11 -->
<g id="edge12_Node000010_Node000011" class="edge">
<title>Node10&#45;&gt;Node11</title>
<g id="a_edge12_Node000010_Node000011"><a xlink:title=" ">
<path fill="none" stroke="#63b8ff" d="M268,-54.75C268,-47.8 268,-37.85 268,-29.13"/>
<polygon fill="#63b8ff" stroke="#63b8ff" points="271.5,-29.09 268,-19.09 264.5,-29.09 271.5,-29.09"/>
</a>
</g>
</g>
<!-- Node12 -->
<g id="Node000012" class="node">
<title>Node12</title>
<g id="a_Node000012"><a xlink:title=" ">
<polygon fill="#e0e0e0" stroke="#999999" points="369.5,-19 318.5,-19 318.5,0 369.5,0 369.5,-19"/>
<text text-anchor="middle" x="344" y="-7" font-family="Helvetica,sans-Serif" font-size="10.00">variant</text>
</a>
</g>
</g>
<!-- Node10&#45;&gt;Node12 -->
<g id="edge14_Node000010_Node000012" class="edge">
<title>Node10&#45;&gt;Node12</title>
<g id="a_edge14_Node000010_Node000012"><a xlink:title=" ">
<path fill="none" stroke="#63b8ff" d="M280.21,-54.98C291.78,-46.92 309.38,-34.65 323.16,-25.03"/>
<polygon fill="#63b8ff" stroke="#63b8ff" points="325.37,-27.76 331.57,-19.17 321.36,-22.02 325.37,-27.76"/>
</a>
</g>
</g>
<!-- Node13 -->
<g id="Node000013" class="node">
<title>Node13</title>
<g id="a_Node000013"><a xlink:title=" ">
<polygon fill="#e0e0e0" stroke="#999999" points="217,-19 107,-19 107,0 217,0 217,-19"/>
<text text-anchor="middle" x="162" y="-7" font-family="Helvetica,sans-Serif" font-size="10.00">nlohmann/json.hpp</text>
</a>
</g>
</g>
<!-- Node10&#45;&gt;Node13 -->
<g id="edge15_Node000010_Node000013" class="edge">
<title>Node10&#45;&gt;Node13</title>
<g id="a_edge15_Node000010_Node000013"><a xlink:title=" ">
<path fill="none" stroke="#63b8ff" d="M250.97,-54.98C234.07,-46.54 207.94,-33.47 188.36,-23.68"/>
<polygon fill="#63b8ff" stroke="#63b8ff" points="189.85,-20.51 179.34,-19.17 186.72,-26.77 189.85,-20.51"/>
</a>
</g>
</g>
<!-- Node14&#45;&gt;Node5 -->
<g id="edge17_Node000014_Node000005" class="edge">
<title>Node14&#45;&gt;Node5</title>
<g id="a_edge17_Node000014_Node000005"><a xlink:title=" ">
<path fill="none" stroke="#63b8ff" d="M674.17,-109.84C642.16,-91.16 566.35,-46.9 527.63,-24.3"/>
<polygon fill="#63b8ff" stroke="#63b8ff" points="529.04,-21.07 518.64,-19.05 525.51,-27.11 529.04,-21.07"/>
</a>
</g>
</g>
<!-- Node14&#45;&gt;Node6 -->
<g id="edge18_Node000014_Node000006" class="edge">
<title>Node14&#45;&gt;Node6</title>
<g id="a_edge18_Node000014_Node000006"><a xlink:title=" ">
<path fill="none" stroke="#63b8ff" d="M644.5,-109.98C588.5,-99.27 493.7,-81.13 444.22,-71.67"/>
<polygon fill="#63b8ff" stroke="#63b8ff" points="444.58,-68.17 434.1,-69.73 443.26,-75.05 444.58,-68.17"/>
</a>
</g>
</g>
<!-- Node14&#45;&gt;Node7 -->
<g id="edge19_Node000014_Node000007" class="edge">
<title>Node14&#45;&gt;Node7</title>
<g id="a_edge19_Node000014_Node000007"><a xlink:title=" ">
<path fill="none" stroke="#63b8ff" d="M694.28,-109.75C698.71,-102.42 705.16,-91.73 710.62,-82.7"/>
<polygon fill="#63b8ff" stroke="#63b8ff" points="713.64,-84.46 715.81,-74.09 707.65,-80.84 713.64,-84.46"/>
</a>
</g>
</g>
<!-- Node14&#45;&gt;Node10 -->
<g id="edge20_Node000014_Node000010" class="edge">
<title>Node14&#45;&gt;Node10</title>
<g id="a_edge20_Node000014_Node000010"><a xlink:title=" ">
<path fill="none" stroke="#63b8ff" d="M621.36,-109.98C545.73,-100.46 423.51,-85.08 344.46,-75.13"/>
<polygon fill="#63b8ff" stroke="#63b8ff" points="344.44,-71.6 334.09,-73.82 343.57,-78.54 344.44,-71.6"/>
</a>
</g>
</g>
</g>
</svg>
