<?xml version="1.0" encoding="UTF-8" standalone="no"?>
<!DOCTYPE svg PUBLIC "-//W3C//DTD SVG 1.1//EN"
 "http://www.w3.org/Graphics/SVG/1.1/DTD/svg11.dtd">
<!-- Generated by graphviz version 2.43.0 (0)
 -->
<!-- Title: src/transport/socket_transport.cpp Pages: 1 -->
<svg width="356pt" height="214pt"
 viewBox="0.00 0.00 355.50 214.00" xmlns="http://www.w3.org/2000/svg" xmlns:xlink="http://www.w3.org/1999/xlink">
<g id="graph0" class="graph" transform="scale(1 1) rotate(0) translate(4 210)">
<title>src/transport/socket_transport.cpp</title>
<!-- Node1 -->
<g id="Node000001" class="node">
<title>Node1</title>
<g id="a_Node000001"><a xlink:title=" ">
<polygon fill="#999999" stroke="#666666" points="260.5,-206 147.5,-206 147.5,-176 260.5,-176 260.5,-206"/>
<text text-anchor="start" x="155.5" y="-194" font-family="Helvetica,sans-Serif" font-size="10.00">src/transport/socket</text>
<text text-anchor="middle" x="204" y="-183" font-family="Helvetica,sans-Serif" font-size="10.00">_transport.cpp</text>
</a>
</g>
</g>
<!-- Node2 -->
<g id="Node000002" class="node">
<title>Node2</title>
<g id="a_Node000002"><a xlink:href="socket__transport_8hpp.html" target="_top" xlink:title=" ">
<polygon fill="white" stroke="#666666" points="153,-140 19,-140 19,-110 153,-110 153,-140"/>
<text text-anchor="start" x="27" y="-128" font-family="Helvetica,sans-Serif" font-size="10.00">jsonrpc/transport/socket</text>
<text text-anchor="middle" x="86" y="-117" font-family="Helvetica,sans-Serif" font-size="10.00">_transport.hpp</text>
</a>
</g>
</g>
<!-- Node1&#45;&gt;Node2 -->
<g id="edge1_Node000001_Node000002" class="edge">
<title>Node1&#45;&gt;Node2</title>
<g id="a_edge1_Node000001_Node000002"><a xlink:title=" ">
<path fill="none" stroke="#63b8ff" d="M178.1,-175.95C161.27,-166.83 139.13,-154.82 120.77,-144.86"/>
<polygon fill="#63b8ff" stroke="#63b8ff" points="122.29,-141.7 111.84,-140.01 118.96,-147.86 122.29,-141.7"/>
</a>
</g>
</g>
<!-- Node6 -->
<g id="Node000006" class="node">
<title>Node6</title>
<g id="a_Node000006"><a xlink:title=" ">
<polygon fill="#e0e0e0" stroke="#999999" points="236.5,-134.5 171.5,-134.5 171.5,-115.5 236.5,-115.5 236.5,-134.5"/>
<text text-anchor="middle" x="204" y="-122.5" font-family="Helvetica,sans-Serif" font-size="10.00">stdexcept</text>
</a>
</g>
</g>
<!-- Node1&#45;&gt;Node6 -->
<g id="edge6_Node000001_Node000006" class="edge">
<title>Node1&#45;&gt;Node6</title>
<g id="a_edge6_Node000001_Node000006"><a xlink:title=" ">
<path fill="none" stroke="#63b8ff" d="M204,-175.8C204,-166.7 204,-154.79 204,-144.9"/>
<polygon fill="#63b8ff" stroke="#63b8ff" points="207.5,-144.84 204,-134.84 200.5,-144.84 207.5,-144.84"/>
</a>
</g>
</g>
<!-- Node7 -->
<g id="Node000007" class="node">
<title>Node7</title>
<g id="a_Node000007"><a xlink:title=" ">
<polygon fill="#e0e0e0" stroke="#999999" points="347.5,-134.5 254.5,-134.5 254.5,-115.5 347.5,-115.5 347.5,-134.5"/>
<text text-anchor="middle" x="301" y="-122.5" font-family="Helvetica,sans-Serif" font-size="10.00">spdlog/spdlog.h</text>
</a>
</g>
</g>
<!-- Node1&#45;&gt;Node7 -->
<g id="edge7_Node000001_Node000007" class="edge">
<title>Node1&#45;&gt;Node7</title>
<g id="a_edge7_Node000001_Node000007"><a xlink:title=" ">
<path fill="none" stroke="#63b8ff" d="M225.53,-175.8C241.48,-165.27 263.15,-150.97 279.18,-140.4"/>
<polygon fill="#63b8ff" stroke="#63b8ff" points="281.46,-143.09 287.88,-134.66 277.6,-137.24 281.46,-143.09"/>
</a>
</g>
</g>
<!-- Node3 -->
<g id="Node000003" class="node">
<title>Node3</title>
<g id="a_Node000003"><a xlink:title=" ">
<polygon fill="#e0e0e0" stroke="#999999" points="58,-74 0,-74 0,-55 58,-55 58,-74"/>
<text text-anchor="middle" x="29" y="-62" font-family="Helvetica,sans-Serif" font-size="10.00">asio.hpp</text>
</a>
</g>
</g>
<!-- Node2&#45;&gt;Node3 -->
<g id="edge2_Node000002_Node000003" class="edge">
<title>Node2&#45;&gt;Node3</title>
<g id="a_edge2_Node000002_Node000003"><a xlink:title=" ">
<path fill="none" stroke="#63b8ff" d="M72.2,-109.84C63.93,-101.35 53.38,-90.52 44.77,-81.69"/>
<polygon fill="#63b8ff" stroke="#63b8ff" points="47.03,-78.99 37.54,-74.27 42.01,-83.87 47.03,-78.99"/>
</a>
</g>
</g>
<!-- Node4 -->
<g id="Node000004" class="node">
<title>Node4</title>
<g id="a_Node000004"><a xlink:title=" ">
<polygon fill="#e0e0e0" stroke="#999999" points="163,-19 119,-19 119,0 163,0 163,-19"/>
<text text-anchor="middle" x="141" y="-7" font-family="Helvetica,sans-Serif" font-size="10.00">string</text>
</a>
</g>
</g>
<!-- Node2&#45;&gt;Node4 -->
<g id="edge3_Node000002_Node000004" class="edge">
<title>Node2&#45;&gt;Node4</title>
<g id="a_edge3_Node000002_Node000004"><a xlink:title=" ">
<path fill="none" stroke="#63b8ff" d="M88.13,-109.9C90.7,-95.5 95.86,-72.79 105,-55 110.26,-44.77 118.12,-34.69 125.16,-26.71"/>
<polygon fill="#63b8ff" stroke="#63b8ff" points="127.84,-28.97 132.05,-19.25 122.7,-24.22 127.84,-28.97"/>
</a>
</g>
</g>
<!-- Node5 -->
<g id="Node000005" class="node">
<title>Node5</title>
<g id="a_Node000005"><a xlink:href="transport_8hpp.html" target="_top" xlink:title=" ">
<polygon fill="white" stroke="#666666" points="280.5,-74 113.5,-74 113.5,-55 280.5,-55 280.5,-74"/>
<text text-anchor="middle" x="197" y="-62" font-family="Helvetica,sans-Serif" font-size="10.00">jsonrpc/transport/transport.hpp</text>
</a>
</g>
</g>
<!-- Node2&#45;&gt;Node5 -->
<g id="edge4_Node000002_Node000005" class="edge">
<title>Node2&#45;&gt;Node5</title>
<g id="a_edge4_Node000002_Node000005"><a xlink:title=" ">
<path fill="none" stroke="#63b8ff" d="M112.59,-109.99C130.45,-100.58 153.84,-88.24 171.48,-78.95"/>
<polygon fill="#63b8ff" stroke="#63b8ff" points="173.39,-81.9 180.61,-74.14 170.13,-75.71 173.39,-81.9"/>
</a>
</g>
</g>
<!-- Node5&#45;&gt;Node4 -->
<g id="edge5_Node000005_Node000004" class="edge">
<title>Node5&#45;&gt;Node4</title>
<g id="a_edge5_Node000005_Node000004"><a xlink:title=" ">
<path fill="none" stroke="#63b8ff" d="M188,-54.98C179.81,-47.23 167.49,-35.58 157.53,-26.14"/>
<polygon fill="#63b8ff" stroke="#63b8ff" points="159.83,-23.5 150.16,-19.17 155.02,-28.59 159.83,-23.5"/>
</a>
</g>
</g>
</g>
</svg>
