<?xml version="1.0" encoding="UTF-8" standalone="no"?>
<!DOCTYPE svg PUBLIC "-//W3C//DTD SVG 1.1//EN"
 "http://www.w3.org/Graphics/SVG/1.1/DTD/svg11.dtd">
<!-- Generated by graphviz version 2.43.0 (0)
 -->
<!-- Title: src/client/transports/stdio_client_transport.cpp Pages: 1 -->
<svg width="344pt" height="225pt"
 viewBox="0.00 0.00 343.50 225.00" xmlns="http://www.w3.org/2000/svg" xmlns:xlink="http://www.w3.org/1999/xlink">
<g id="graph0" class="graph" transform="scale(1 1) rotate(0) translate(4 221)">
<title>src/client/transports/stdio_client_transport.cpp</title>
<!-- Node1 -->
<g id="Node000001" class="node">
<title>Node1</title>
<g id="a_Node000001"><a xlink:title=" ">
<polygon fill="#999999" stroke="#666666" points="267,-217 121,-217 121,-187 267,-187 267,-217"/>
<text text-anchor="start" x="129" y="-205" font-family="Helvetica,sans-Serif" font-size="10.00">src/client/transports</text>
<text text-anchor="middle" x="194" y="-194" font-family="Helvetica,sans-Serif" font-size="10.00">/stdio_client_transport.cpp</text>
</a>
</g>
</g>
<!-- Node2 -->
<g id="Node000002" class="node">
<title>Node2</title>
<g id="a_Node000002"><a xlink:href="stdio__client__transport_8hpp.html" target="_top" xlink:title=" ">
<polygon fill="white" stroke="#666666" points="146,-151 0,-151 0,-121 146,-121 146,-151"/>
<text text-anchor="start" x="8" y="-139" font-family="Helvetica,sans-Serif" font-size="10.00">jsonrpc/client/transports</text>
<text text-anchor="middle" x="73" y="-128" font-family="Helvetica,sans-Serif" font-size="10.00">/stdio_client_transport.hpp</text>
</a>
</g>
</g>
<!-- Node1&#45;&gt;Node2 -->
<g id="edge1_Node000001_Node000002" class="edge">
<title>Node1&#45;&gt;Node2</title>
<g id="a_edge1_Node000001_Node000002"><a xlink:title=" ">
<path fill="none" stroke="#63b8ff" d="M167.45,-186.95C150.11,-177.78 127.27,-165.71 108.4,-155.72"/>
<polygon fill="#63b8ff" stroke="#63b8ff" points="109.97,-152.59 99.49,-151.01 106.7,-158.78 109.97,-152.59"/>
</a>
</g>
</g>
<!-- Node5 -->
<g id="Node000005" class="node">
<title>Node5</title>
<g id="a_Node000005"><a xlink:title=" ">
<polygon fill="#e0e0e0" stroke="#999999" points="224,-145.5 164,-145.5 164,-126.5 224,-126.5 224,-145.5"/>
<text text-anchor="middle" x="194" y="-133.5" font-family="Helvetica,sans-Serif" font-size="10.00">iostream</text>
</a>
</g>
</g>
<!-- Node1&#45;&gt;Node5 -->
<g id="edge5_Node000001_Node000005" class="edge">
<title>Node1&#45;&gt;Node5</title>
<g id="a_edge5_Node000001_Node000005"><a xlink:title=" ">
<path fill="none" stroke="#63b8ff" d="M194,-186.8C194,-177.7 194,-165.79 194,-155.9"/>
<polygon fill="#63b8ff" stroke="#63b8ff" points="197.5,-155.84 194,-145.84 190.5,-155.84 197.5,-155.84"/>
</a>
</g>
</g>
<!-- Node6 -->
<g id="Node000006" class="node">
<title>Node6</title>
<g id="a_Node000006"><a xlink:title=" ">
<polygon fill="#e0e0e0" stroke="#999999" points="335.5,-145.5 242.5,-145.5 242.5,-126.5 335.5,-126.5 335.5,-145.5"/>
<text text-anchor="middle" x="289" y="-133.5" font-family="Helvetica,sans-Serif" font-size="10.00">spdlog/spdlog.h</text>
</a>
</g>
</g>
<!-- Node1&#45;&gt;Node6 -->
<g id="edge6_Node000001_Node000006" class="edge">
<title>Node1&#45;&gt;Node6</title>
<g id="a_edge6_Node000001_Node000006"><a xlink:title=" ">
<path fill="none" stroke="#63b8ff" d="M215.08,-186.8C230.71,-176.27 251.93,-161.97 267.63,-151.4"/>
<polygon fill="#63b8ff" stroke="#63b8ff" points="269.81,-154.15 276.15,-145.66 265.9,-148.34 269.81,-154.15"/>
</a>
</g>
</g>
<!-- Node3 -->
<g id="Node000003" class="node">
<title>Node3</title>
<g id="a_Node000003"><a xlink:title=" ">
<polygon fill="#e0e0e0" stroke="#999999" points="95,-19 51,-19 51,0 95,0 95,-19"/>
<text text-anchor="middle" x="73" y="-7" font-family="Helvetica,sans-Serif" font-size="10.00">string</text>
</a>
</g>
</g>
<!-- Node2&#45;&gt;Node3 -->
<g id="edge2_Node000002_Node000003" class="edge">
<title>Node2&#45;&gt;Node3</title>
<g id="a_edge2_Node000002_Node000003"><a xlink:title=" ">
<path fill="none" stroke="#63b8ff" d="M62.56,-120.97C56.11,-111.39 48.42,-98.09 45,-85 41.63,-72.1 41.3,-67.81 45,-55 47.87,-45.06 53.68,-35.2 59.28,-27.29"/>
<polygon fill="#63b8ff" stroke="#63b8ff" points="62.08,-29.39 65.33,-19.3 56.5,-25.16 62.08,-29.39"/>
</a>
</g>
</g>
<!-- Node4 -->
<g id="Node000004" class="node">
<title>Node4</title>
<g id="a_Node000004"><a xlink:href="client__transport_8hpp.html" target="_top" xlink:title=" ">
<polygon fill="white" stroke="#666666" points="188,-85 54,-85 54,-55 188,-55 188,-85"/>
<text text-anchor="start" x="62" y="-73" font-family="Helvetica,sans-Serif" font-size="10.00">jsonrpc/client/transports</text>
<text text-anchor="middle" x="121" y="-62" font-family="Helvetica,sans-Serif" font-size="10.00">/client_transport.hpp</text>
</a>
</g>
</g>
<!-- Node2&#45;&gt;Node4 -->
<g id="edge3_Node000002_Node000004" class="edge">
<title>Node2&#45;&gt;Node4</title>
<g id="a_edge3_Node000002_Node000004"><a xlink:title=" ">
<path fill="none" stroke="#63b8ff" d="M83.65,-120.8C89.68,-112.76 97.36,-102.53 104.18,-93.43"/>
<polygon fill="#63b8ff" stroke="#63b8ff" points="107.18,-95.26 110.38,-85.16 101.58,-91.06 107.18,-95.26"/>
</a>
</g>
</g>
<!-- Node4&#45;&gt;Node3 -->
<g id="edge4_Node000004_Node000003" class="edge">
<title>Node4&#45;&gt;Node3</title>
<g id="a_edge4_Node000004_Node000003"><a xlink:title=" ">
<path fill="none" stroke="#63b8ff" d="M109.38,-54.84C102.56,-46.52 93.89,-35.96 86.73,-27.23"/>
<polygon fill="#63b8ff" stroke="#63b8ff" points="89.24,-24.78 80.19,-19.27 83.83,-29.22 89.24,-24.78"/>
</a>
</g>
</g>
</g>
</svg>
