<?xml version="1.0" encoding="UTF-8" standalone="no"?>
<!DOCTYPE svg PUBLIC "-//W3C//DTD SVG 1.1//EN"
 "http://www.w3.org/Graphics/SVG/1.1/DTD/svg11.dtd">
<!-- Generated by graphviz version 2.43.0 (0)
 -->
<!-- Title: include/json_rpc/transports/stdio_server_transport.hpp Pages: 1 -->
<svg width="937pt" height="324pt"
 viewBox="0.00 0.00 936.62 324.00" xmlns="http://www.w3.org/2000/svg" xmlns:xlink="http://www.w3.org/1999/xlink">
<g id="graph0" class="graph" transform="scale(1 1) rotate(0) translate(4 320)">
<title>include/json_rpc/transports/stdio_server_transport.hpp</title>
<!-- Node1 -->
<g id="Node000001" class="node">
<title>Node1</title>
<g id="a_Node000001"><a xlink:title=" ">
<polygon fill="#999999" stroke="#666666" points="227,-316 77,-316 77,-286 227,-286 227,-316"/>
<text text-anchor="start" x="85" y="-304" font-family="Helvetica,sans-Serif" font-size="10.00">include/json_rpc/transports</text>
<text text-anchor="middle" x="152" y="-293" font-family="Helvetica,sans-Serif" font-size="10.00">/stdio_server_transport.hpp</text>
</a>
</g>
</g>
<!-- Node2 -->
<g id="Node000002" class="node">
<title>Node2</title>
<g id="a_Node000002"><a xlink:title=" ">
<polygon fill="#e0e0e0" stroke="#999999" points="60,-244.5 0,-244.5 0,-225.5 60,-225.5 60,-244.5"/>
<text text-anchor="middle" x="30" y="-232.5" font-family="Helvetica,sans-Serif" font-size="10.00">iostream</text>
</a>
</g>
</g>
<!-- Node1&#45;&gt;Node2 -->
<g id="edge1_Node000001_Node000002" class="edge">
<title>Node1&#45;&gt;Node2</title>
<g id="a_edge1_Node000001_Node000002"><a xlink:title=" ">
<path fill="none" stroke="#63b8ff" d="M125.23,-285.95C104.4,-275.03 75.69,-259.97 55.26,-249.25"/>
<polygon fill="#63b8ff" stroke="#63b8ff" points="56.72,-246.06 46.24,-244.52 53.47,-252.26 56.72,-246.06"/>
</a>
</g>
</g>
<!-- Node3 -->
<g id="Node000003" class="node">
<title>Node3</title>
<g id="a_Node000003"><a xlink:href="dispatcher_8hpp.html" target="_top" xlink:title=" ">
<polygon fill="white" stroke="#666666" points="631.5,-184 476.5,-184 476.5,-165 631.5,-165 631.5,-184"/>
<text text-anchor="middle" x="554" y="-172" font-family="Helvetica,sans-Serif" font-size="10.00">json_rpc/core/dispatcher.hpp</text>
</a>
</g>
</g>
<!-- Node1&#45;&gt;Node3 -->
<g id="edge2_Node000001_Node000003" class="edge">
<title>Node1&#45;&gt;Node3</title>
<g id="a_edge2_Node000001_Node000003"><a xlink:title=" ">
<path fill="none" stroke="#63b8ff" d="M197.33,-285.96C277.35,-261.18 442.16,-210.14 516.35,-187.16"/>
<polygon fill="#63b8ff" stroke="#63b8ff" points="517.68,-190.41 526.2,-184.11 515.61,-183.72 517.68,-190.41"/>
</a>
</g>
</g>
<!-- Node9 -->
<g id="Node000009" class="node">
<title>Node9</title>
<g id="a_Node000009"><a xlink:href="types_8hpp.html" target="_top" xlink:title=" ">
<polygon fill="white" stroke="#666666" points="573,-74 441,-74 441,-55 573,-55 573,-74"/>
<text text-anchor="middle" x="507" y="-62" font-family="Helvetica,sans-Serif" font-size="10.00">json_rpc/core/types.hpp</text>
</a>
</g>
</g>
<!-- Node1&#45;&gt;Node9 -->
<g id="edge27_Node000001_Node000009" class="edge">
<title>Node1&#45;&gt;Node9</title>
<g id="a_edge27_Node000001_Node000009"><a xlink:title=" ">
<path fill="none" stroke="#63b8ff" d="M139.46,-285.73C118.11,-259.64 79.55,-203.38 107,-165 144.3,-112.84 325.42,-84.95 430.7,-72.91"/>
<polygon fill="#63b8ff" stroke="#63b8ff" points="431.1,-76.38 440.65,-71.79 430.32,-69.43 431.1,-76.38"/>
</a>
</g>
</g>
<!-- Node15 -->
<g id="Node000015" class="node">
<title>Node15</title>
<g id="a_Node000015"><a xlink:href="server__transport_8hpp.html" target="_top" xlink:title=" ">
<polygon fill="white" stroke="#666666" points="274.5,-250 159.5,-250 159.5,-220 274.5,-220 274.5,-250"/>
<text text-anchor="start" x="167.5" y="-238" font-family="Helvetica,sans-Serif" font-size="10.00">json_rpc/core/server</text>
<text text-anchor="middle" x="217" y="-227" font-family="Helvetica,sans-Serif" font-size="10.00">_transport.hpp</text>
</a>
</g>
</g>
<!-- Node1&#45;&gt;Node15 -->
<g id="edge22_Node000001_Node000015" class="edge">
<title>Node1&#45;&gt;Node15</title>
<g id="a_edge22_Node000001_Node000015"><a xlink:title=" ">
<path fill="none" stroke="#63b8ff" d="M166.43,-285.8C174.93,-277.43 185.84,-266.68 195.36,-257.31"/>
<polygon fill="#63b8ff" stroke="#63b8ff" points="197.94,-259.67 202.61,-250.16 193.03,-254.69 197.94,-259.67"/>
</a>
</g>
</g>
<!-- Node4 -->
<g id="Node000004" class="node">
<title>Node4</title>
<g id="a_Node000004"><a xlink:title=" ">
<polygon fill="#e0e0e0" stroke="#999999" points="738,-19 682,-19 682,0 738,0 738,-19"/>
<text text-anchor="middle" x="710" y="-7" font-family="Helvetica,sans-Serif" font-size="10.00">optional</text>
</a>
</g>
</g>
<!-- Node3&#45;&gt;Node4 -->
<g id="edge3_Node000003_Node000004" class="edge">
<title>Node3&#45;&gt;Node4</title>
<g id="a_edge3_Node000003_Node000004"><a xlink:title=" ">
<path fill="none" stroke="#63b8ff" d="M631.68,-173.88C722.87,-172.62 866.56,-164.79 905,-129 929.33,-106.34 936.88,-80.87 916,-55 895.32,-29.37 801.88,-17.78 748.22,-13.16"/>
<polygon fill="#63b8ff" stroke="#63b8ff" points="748.3,-9.66 738.05,-12.33 747.73,-16.63 748.3,-9.66"/>
</a>
</g>
</g>
<!-- Node5 -->
<g id="Node000005" class="node">
<title>Node5</title>
<g id="a_Node000005"><a xlink:title=" ">
<polygon fill="#e0e0e0" stroke="#999999" points="725,-74 681,-74 681,-55 725,-55 725,-74"/>
<text text-anchor="middle" x="703" y="-62" font-family="Helvetica,sans-Serif" font-size="10.00">string</text>
</a>
</g>
</g>
<!-- Node3&#45;&gt;Node5 -->
<g id="edge4_Node000003_Node000005" class="edge">
<title>Node3&#45;&gt;Node5</title>
<g id="a_edge4_Node000003_Node000005"><a xlink:title=" ">
<path fill="none" stroke="#63b8ff" d="M615.2,-164.96C639.49,-158.69 665.89,-147.83 684,-129 695.58,-116.96 700.14,-98.15 701.91,-84.12"/>
<polygon fill="#63b8ff" stroke="#63b8ff" points="705.4,-84.4 702.82,-74.12 698.43,-83.76 705.4,-84.4"/>
</a>
</g>
</g>
<!-- Node6 -->
<g id="Node000006" class="node">
<title>Node6</title>
<g id="a_Node000006"><a xlink:title=" ">
<polygon fill="#e0e0e0" stroke="#999999" points="906.5,-74 813.5,-74 813.5,-55 906.5,-55 906.5,-74"/>
<text text-anchor="middle" x="860" y="-62" font-family="Helvetica,sans-Serif" font-size="10.00">unordered_map</text>
</a>
</g>
</g>
<!-- Node3&#45;&gt;Node6 -->
<g id="edge5_Node000003_Node000006" class="edge">
<title>Node3&#45;&gt;Node6</title>
<g id="a_edge5_Node000003_Node000006"><a xlink:title=" ">
<path fill="none" stroke="#63b8ff" d="M631.54,-168.52C725.17,-161.7 872.28,-148.09 889,-129 901.15,-115.13 888.62,-95.32 876.45,-81.53"/>
<polygon fill="#63b8ff" stroke="#63b8ff" points="878.92,-79.05 869.51,-74.19 873.84,-83.86 878.92,-79.05"/>
</a>
</g>
</g>
<!-- Node7 -->
<g id="Node000007" class="node">
<title>Node7</title>
<g id="a_Node000007"><a xlink:title=" ">
<polygon fill="#e0e0e0" stroke="#999999" points="345.5,-129 298.5,-129 298.5,-110 345.5,-110 345.5,-129"/>
<text text-anchor="middle" x="322" y="-117" font-family="Helvetica,sans-Serif" font-size="10.00">vector</text>
</a>
</g>
</g>
<!-- Node3&#45;&gt;Node7 -->
<g id="edge6_Node000003_Node000007" class="edge">
<title>Node3&#45;&gt;Node7</title>
<g id="a_edge6_Node000003_Node000007"><a xlink:title=" ">
<path fill="none" stroke="#63b8ff" d="M513.89,-164.93C475.68,-156.67 416.31,-143.62 355.53,-129.07"/>
<polygon fill="#63b8ff" stroke="#63b8ff" points="356.31,-125.65 345.77,-126.72 354.68,-132.46 356.31,-125.65"/>
</a>
</g>
</g>
<!-- Node8 -->
<g id="Node000008" class="node">
<title>Node8</title>
<g id="a_Node000008"><a xlink:href="request_8hpp.html" target="_top" xlink:title=" ">
<polygon fill="white" stroke="#666666" points="675,-129 533,-129 533,-110 675,-110 675,-129"/>
<text text-anchor="middle" x="604" y="-117" font-family="Helvetica,sans-Serif" font-size="10.00">json_rpc/core/request.hpp</text>
</a>
</g>
</g>
<!-- Node3&#45;&gt;Node8 -->
<g id="edge7_Node000003_Node000008" class="edge">
<title>Node3&#45;&gt;Node8</title>
<g id="a_edge7_Node000003_Node000008"><a xlink:title=" ">
<path fill="none" stroke="#63b8ff" d="M562.26,-164.75C569.46,-157.11 580.11,-145.82 588.85,-136.56"/>
<polygon fill="#63b8ff" stroke="#63b8ff" points="591.58,-138.76 595.9,-129.09 586.49,-133.96 591.58,-138.76"/>
</a>
</g>
</g>
<!-- Node3&#45;&gt;Node9 -->
<g id="edge20_Node000003_Node000009" class="edge">
<title>Node3&#45;&gt;Node9</title>
<g id="a_edge20_Node000003_Node000009"><a xlink:title=" ">
<path fill="none" stroke="#63b8ff" d="M546.86,-164.82C540.1,-156.21 530.1,-142.4 524,-129 517.41,-114.54 512.96,-97.03 510.27,-84.06"/>
<polygon fill="#63b8ff" stroke="#63b8ff" points="513.67,-83.19 508.35,-74.02 506.8,-84.5 513.67,-83.19"/>
</a>
</g>
</g>
<!-- Node13 -->
<g id="Node000013" class="node">
<title>Node13</title>
<g id="a_Node000013"><a xlink:href="response_8hpp.html" target="_top" xlink:title=" ">
<polygon fill="white" stroke="#666666" points="879.5,-129 730.5,-129 730.5,-110 879.5,-110 879.5,-129"/>
<text text-anchor="middle" x="805" y="-117" font-family="Helvetica,sans-Serif" font-size="10.00">json_rpc/core/response.hpp</text>
</a>
</g>
</g>
<!-- Node3&#45;&gt;Node13 -->
<g id="edge15_Node000003_Node000013" class="edge">
<title>Node3&#45;&gt;Node13</title>
<g id="a_edge15_Node000003_Node000013"><a xlink:title=" ">
<path fill="none" stroke="#63b8ff" d="M594.33,-164.98C637.84,-155.8 707.2,-141.15 754.35,-131.19"/>
<polygon fill="#63b8ff" stroke="#63b8ff" points="755.3,-134.57 764.36,-129.08 753.85,-127.72 755.3,-134.57"/>
</a>
</g>
</g>
<!-- Node14 -->
<g id="Node000014" class="node">
<title>Node14</title>
<g id="a_Node000014"><a xlink:title=" ">
<polygon fill="#e0e0e0" stroke="#999999" points="476.5,-129 363.5,-129 363.5,-110 476.5,-110 476.5,-129"/>
<text text-anchor="middle" x="420" y="-117" font-family="Helvetica,sans-Serif" font-size="10.00">BS_thread_pool.hpp</text>
</a>
</g>
</g>
<!-- Node3&#45;&gt;Node14 -->
<g id="edge21_Node000003_Node000014" class="edge">
<title>Node3&#45;&gt;Node14</title>
<g id="a_edge21_Node000003_Node000014"><a xlink:title=" ">
<path fill="none" stroke="#63b8ff" d="M532.47,-164.98C510.53,-156.3 476.26,-142.75 451.31,-132.88"/>
<polygon fill="#63b8ff" stroke="#63b8ff" points="452.51,-129.59 441.92,-129.17 449.93,-136.1 452.51,-129.59"/>
</a>
</g>
</g>
<!-- Node8&#45;&gt;Node4 -->
<g id="edge8_Node000008_Node000004" class="edge">
<title>Node8&#45;&gt;Node4</title>
<g id="a_edge8_Node000008_Node000004"><a xlink:title=" ">
<path fill="none" stroke="#63b8ff" d="M612.67,-109.66C630.54,-91.46 671.68,-49.55 694.33,-26.47"/>
<polygon fill="#63b8ff" stroke="#63b8ff" points="697,-28.75 701.5,-19.16 692,-23.84 697,-28.75"/>
</a>
</g>
</g>
<!-- Node8&#45;&gt;Node5 -->
<g id="edge9_Node000008_Node000005" class="edge">
<title>Node8&#45;&gt;Node5</title>
<g id="a_edge9_Node000008_Node000005"><a xlink:title=" ">
<path fill="none" stroke="#63b8ff" d="M619.91,-109.98C635.55,-101.61 659.66,-88.7 677.88,-78.95"/>
<polygon fill="#63b8ff" stroke="#63b8ff" points="679.64,-81.98 686.8,-74.17 676.34,-75.8 679.64,-81.98"/>
</a>
</g>
</g>
<!-- Node8&#45;&gt;Node9 -->
<g id="edge10_Node000008_Node000009" class="edge">
<title>Node8&#45;&gt;Node9</title>
<g id="a_edge10_Node000008_Node000009"><a xlink:title=" ">
<path fill="none" stroke="#63b8ff" d="M588.42,-109.98C573.23,-101.69 549.9,-88.94 532.1,-79.22"/>
<polygon fill="#63b8ff" stroke="#63b8ff" points="533.32,-75.89 522.87,-74.17 529.97,-82.04 533.32,-75.89"/>
</a>
</g>
</g>
<!-- Node9&#45;&gt;Node4 -->
<g id="edge12_Node000009_Node000004" class="edge">
<title>Node9&#45;&gt;Node4</title>
<g id="a_edge12_Node000009_Node000004"><a xlink:title=" ">
<path fill="none" stroke="#63b8ff" d="M539.62,-54.98C575.73,-45.56 633.87,-30.38 672.01,-20.42"/>
<polygon fill="#63b8ff" stroke="#63b8ff" points="672.93,-23.8 681.72,-17.88 671.16,-17.02 672.93,-23.8"/>
</a>
</g>
</g>
<!-- Node10 -->
<g id="Node000010" class="node">
<title>Node10</title>
<g id="a_Node000010"><a xlink:title=" ">
<polygon fill="#e0e0e0" stroke="#999999" points="539.5,-19 474.5,-19 474.5,0 539.5,0 539.5,-19"/>
<text text-anchor="middle" x="507" y="-7" font-family="Helvetica,sans-Serif" font-size="10.00">functional</text>
</a>
</g>
</g>
<!-- Node9&#45;&gt;Node10 -->
<g id="edge11_Node000009_Node000010" class="edge">
<title>Node9&#45;&gt;Node10</title>
<g id="a_edge11_Node000009_Node000010"><a xlink:title=" ">
<path fill="none" stroke="#63b8ff" d="M507,-54.75C507,-47.8 507,-37.85 507,-29.13"/>
<polygon fill="#63b8ff" stroke="#63b8ff" points="510.5,-29.09 507,-19.09 503.5,-29.09 510.5,-29.09"/>
</a>
</g>
</g>
<!-- Node11 -->
<g id="Node000011" class="node">
<title>Node11</title>
<g id="a_Node000011"><a xlink:title=" ">
<polygon fill="#e0e0e0" stroke="#999999" points="608.5,-19 557.5,-19 557.5,0 608.5,0 608.5,-19"/>
<text text-anchor="middle" x="583" y="-7" font-family="Helvetica,sans-Serif" font-size="10.00">variant</text>
</a>
</g>
</g>
<!-- Node9&#45;&gt;Node11 -->
<g id="edge13_Node000009_Node000011" class="edge">
<title>Node9&#45;&gt;Node11</title>
<g id="a_edge13_Node000009_Node000011"><a xlink:title=" ">
<path fill="none" stroke="#63b8ff" d="M519.21,-54.98C530.78,-46.92 548.38,-34.65 562.16,-25.03"/>
<polygon fill="#63b8ff" stroke="#63b8ff" points="564.37,-27.76 570.57,-19.17 560.36,-22.02 564.37,-27.76"/>
</a>
</g>
</g>
<!-- Node12 -->
<g id="Node000012" class="node">
<title>Node12</title>
<g id="a_Node000012"><a xlink:title=" ">
<polygon fill="#e0e0e0" stroke="#999999" points="456,-19 346,-19 346,0 456,0 456,-19"/>
<text text-anchor="middle" x="401" y="-7" font-family="Helvetica,sans-Serif" font-size="10.00">nlohmann/json.hpp</text>
</a>
</g>
</g>
<!-- Node9&#45;&gt;Node12 -->
<g id="edge14_Node000009_Node000012" class="edge">
<title>Node9&#45;&gt;Node12</title>
<g id="a_edge14_Node000009_Node000012"><a xlink:title=" ">
<path fill="none" stroke="#63b8ff" d="M489.97,-54.98C473.07,-46.54 446.94,-33.47 427.36,-23.68"/>
<polygon fill="#63b8ff" stroke="#63b8ff" points="428.85,-20.51 418.34,-19.17 425.72,-26.77 428.85,-20.51"/>
</a>
</g>
</g>
<!-- Node13&#45;&gt;Node4 -->
<g id="edge16_Node000013_Node000004" class="edge">
<title>Node13&#45;&gt;Node4</title>
<g id="a_edge16_Node000013_Node000004"><a xlink:title=" ">
<path fill="none" stroke="#63b8ff" d="M797.23,-109.66C781.28,-91.54 744.67,-49.91 724.31,-26.77"/>
<polygon fill="#63b8ff" stroke="#63b8ff" points="726.85,-24.36 717.62,-19.16 721.59,-28.98 726.85,-24.36"/>
</a>
</g>
</g>
<!-- Node13&#45;&gt;Node5 -->
<g id="edge17_Node000013_Node000005" class="edge">
<title>Node13&#45;&gt;Node5</title>
<g id="a_edge17_Node000013_Node000005"><a xlink:title=" ">
<path fill="none" stroke="#63b8ff" d="M788.61,-109.98C772.43,-101.57 747.43,-88.59 728.62,-78.81"/>
<polygon fill="#63b8ff" stroke="#63b8ff" points="730.17,-75.68 719.69,-74.17 726.95,-81.89 730.17,-75.68"/>
</a>
</g>
</g>
<!-- Node13&#45;&gt;Node6 -->
<g id="edge18_Node000013_Node000006" class="edge">
<title>Node13&#45;&gt;Node6</title>
<g id="a_edge18_Node000013_Node000006"><a xlink:title=" ">
<path fill="none" stroke="#63b8ff" d="M814.08,-109.75C822.09,-102.03 833.96,-90.6 843.62,-81.28"/>
<polygon fill="#63b8ff" stroke="#63b8ff" points="846.31,-83.55 851.09,-74.09 841.46,-78.51 846.31,-83.55"/>
</a>
</g>
</g>
<!-- Node13&#45;&gt;Node9 -->
<g id="edge19_Node000013_Node000009" class="edge">
<title>Node13&#45;&gt;Node9</title>
<g id="a_edge19_Node000013_Node000009"><a xlink:title=" ">
<path fill="none" stroke="#63b8ff" d="M757.12,-109.98C704.92,-100.7 621.38,-85.84 565.38,-75.88"/>
<polygon fill="#63b8ff" stroke="#63b8ff" points="565.71,-72.39 555.25,-74.08 564.49,-79.28 565.71,-72.39"/>
</a>
</g>
</g>
<!-- Node15&#45;&gt;Node3 -->
<g id="edge25_Node000015_Node000003" class="edge">
<title>Node15&#45;&gt;Node3</title>
<g id="a_edge25_Node000015_Node000003"><a xlink:title=" ">
<path fill="none" stroke="#63b8ff" d="M274.55,-224.01C335.99,-213.35 432.85,-196.53 494.88,-185.76"/>
<polygon fill="#63b8ff" stroke="#63b8ff" points="495.65,-189.18 504.9,-184.02 494.45,-182.28 495.65,-189.18"/>
</a>
</g>
</g>
<!-- Node15&#45;&gt;Node9 -->
<g id="edge26_Node000015_Node000009" class="edge">
<title>Node15&#45;&gt;Node9</title>
<g id="a_edge26_Node000015_Node000009"><a xlink:title=" ">
<path fill="none" stroke="#63b8ff" d="M227.26,-219.84C234.24,-209.98 243.54,-196.42 251,-184 270.15,-152.13 260.27,-132.32 290,-110 312.03,-93.46 377.37,-81.5 430.64,-74.17"/>
<polygon fill="#63b8ff" stroke="#63b8ff" points="431.32,-77.6 440.77,-72.81 430.39,-70.67 431.32,-77.6"/>
</a>
</g>
</g>
<!-- Node16 -->
<g id="Node000016" class="node">
<title>Node16</title>
<g id="a_Node000016"><a xlink:title=" ">
<polygon fill="#e0e0e0" stroke="#999999" points="242,-184 192,-184 192,-165 242,-165 242,-184"/>
<text text-anchor="middle" x="217" y="-172" font-family="Helvetica,sans-Serif" font-size="10.00">atomic</text>
</a>
</g>
</g>
<!-- Node15&#45;&gt;Node16 -->
<g id="edge23_Node000015_Node000016" class="edge">
<title>Node15&#45;&gt;Node16</title>
<g id="a_edge23_Node000015_Node000016"><a xlink:title=" ">
<path fill="none" stroke="#63b8ff" d="M217,-219.84C217,-212.21 217,-202.7 217,-194.45"/>
<polygon fill="#63b8ff" stroke="#63b8ff" points="220.5,-194.27 217,-184.27 213.5,-194.27 220.5,-194.27"/>
</a>
</g>
</g>
<!-- Node17 -->
<g id="Node000017" class="node">
<title>Node17</title>
<g id="a_Node000017"><a xlink:title=" ">
<polygon fill="#e0e0e0" stroke="#999999" points="174,-184 116,-184 116,-165 174,-165 174,-184"/>
<text text-anchor="middle" x="145" y="-172" font-family="Helvetica,sans-Serif" font-size="10.00">memory</text>
</a>
</g>
</g>
<!-- Node15&#45;&gt;Node17 -->
<g id="edge24_Node000015_Node000017" class="edge">
<title>Node15&#45;&gt;Node17</title>
<g id="a_edge24_Node000015_Node000017"><a xlink:title=" ">
<path fill="none" stroke="#63b8ff" d="M199.57,-219.84C188.69,-211 174.7,-199.63 163.61,-190.62"/>
<polygon fill="#63b8ff" stroke="#63b8ff" points="165.76,-187.86 155.79,-184.27 161.34,-193.29 165.76,-187.86"/>
</a>
</g>
</g>
</g>
</svg>
