<?xml version="1.0" encoding="UTF-8" standalone="no"?>
<!DOCTYPE svg PUBLIC "-//W3C//DTD SVG 1.1//EN"
 "http://www.w3.org/Graphics/SVG/1.1/DTD/svg11.dtd">
<!-- Generated by graphviz version 2.43.0 (0)
 -->
<!-- Title: src/transports/stdio_server_transport.cpp Pages: 1 -->
<svg width="971pt" height="390pt"
 viewBox="0.00 0.00 971.12 390.00" xmlns="http://www.w3.org/2000/svg" xmlns:xlink="http://www.w3.org/1999/xlink">
<g id="graph0" class="graph" transform="scale(1 1) rotate(0) translate(4 386)">
<title>src/transports/stdio_server_transport.cpp</title>
<!-- Node1 -->
<g id="Node000001" class="node">
<title>Node1</title>
<g id="a_Node000001"><a xlink:title=" ">
<polygon fill="#999999" stroke="#666666" points="177.5,-382 55.5,-382 55.5,-352 177.5,-352 177.5,-382"/>
<text text-anchor="start" x="63.5" y="-370" font-family="Helvetica,sans-Serif" font-size="10.00">src/transports/stdio</text>
<text text-anchor="middle" x="116.5" y="-359" font-family="Helvetica,sans-Serif" font-size="10.00">_server_transport.cpp</text>
</a>
</g>
</g>
<!-- Node2 -->
<g id="Node000002" class="node">
<title>Node2</title>
<g id="a_Node000002"><a xlink:title=" ">
<polygon fill="#e0e0e0" stroke="#999999" points="93,-310.5 0,-310.5 0,-291.5 93,-291.5 93,-310.5"/>
<text text-anchor="middle" x="46.5" y="-298.5" font-family="Helvetica,sans-Serif" font-size="10.00">spdlog/spdlog.h</text>
</a>
</g>
</g>
<!-- Node1&#45;&gt;Node2 -->
<g id="edge1_Node000001_Node000002" class="edge">
<title>Node1&#45;&gt;Node2</title>
<g id="a_edge1_Node000001_Node000002"><a xlink:title=" ">
<path fill="none" stroke="#63b8ff" d="M100.96,-351.8C89.94,-341.72 75.15,-328.19 63.76,-317.78"/>
<polygon fill="#63b8ff" stroke="#63b8ff" points="65.92,-315.01 56.17,-310.84 61.19,-320.18 65.92,-315.01"/>
</a>
</g>
</g>
<!-- Node3 -->
<g id="Node000003" class="node">
<title>Node3</title>
<g id="a_Node000003"><a xlink:href="stdio__server__transport_8hpp.html" target="_top" xlink:title=" ">
<polygon fill="white" stroke="#666666" points="261.5,-316 111.5,-316 111.5,-286 261.5,-286 261.5,-316"/>
<text text-anchor="start" x="119.5" y="-304" font-family="Helvetica,sans-Serif" font-size="10.00">json_rpc/transports</text>
<text text-anchor="middle" x="186.5" y="-293" font-family="Helvetica,sans-Serif" font-size="10.00">/stdio_server_transport.hpp</text>
</a>
</g>
</g>
<!-- Node1&#45;&gt;Node3 -->
<g id="edge2_Node000001_Node000003" class="edge">
<title>Node1&#45;&gt;Node3</title>
<g id="a_edge2_Node000001_Node000003"><a xlink:title=" ">
<path fill="none" stroke="#63b8ff" d="M132.04,-351.8C141.28,-343.34 153.18,-332.46 163.5,-323.03"/>
<polygon fill="#63b8ff" stroke="#63b8ff" points="165.99,-325.49 171.01,-316.16 161.27,-320.33 165.99,-325.49"/>
</a>
</g>
</g>
<!-- Node4 -->
<g id="Node000004" class="node">
<title>Node4</title>
<g id="a_Node000004"><a xlink:title=" ">
<polygon fill="#e0e0e0" stroke="#999999" points="94.5,-244.5 34.5,-244.5 34.5,-225.5 94.5,-225.5 94.5,-244.5"/>
<text text-anchor="middle" x="64.5" y="-232.5" font-family="Helvetica,sans-Serif" font-size="10.00">iostream</text>
</a>
</g>
</g>
<!-- Node3&#45;&gt;Node4 -->
<g id="edge3_Node000003_Node000004" class="edge">
<title>Node3&#45;&gt;Node4</title>
<g id="a_edge3_Node000003_Node000004"><a xlink:title=" ">
<path fill="none" stroke="#63b8ff" d="M159.73,-285.95C138.9,-275.03 110.19,-259.97 89.76,-249.25"/>
<polygon fill="#63b8ff" stroke="#63b8ff" points="91.22,-246.06 80.74,-244.52 87.97,-252.26 91.22,-246.06"/>
</a>
</g>
</g>
<!-- Node5 -->
<g id="Node000005" class="node">
<title>Node5</title>
<g id="a_Node000005"><a xlink:href="dispatcher_8hpp.html" target="_top" xlink:title=" ">
<polygon fill="white" stroke="#666666" points="666,-184 511,-184 511,-165 666,-165 666,-184"/>
<text text-anchor="middle" x="588.5" y="-172" font-family="Helvetica,sans-Serif" font-size="10.00">json_rpc/core/dispatcher.hpp</text>
</a>
</g>
</g>
<!-- Node3&#45;&gt;Node5 -->
<g id="edge4_Node000003_Node000005" class="edge">
<title>Node3&#45;&gt;Node5</title>
<g id="a_edge4_Node000003_Node000005"><a xlink:title=" ">
<path fill="none" stroke="#63b8ff" d="M231.83,-285.96C311.85,-261.18 476.66,-210.14 550.85,-187.16"/>
<polygon fill="#63b8ff" stroke="#63b8ff" points="552.18,-190.41 560.7,-184.11 550.11,-183.72 552.18,-190.41"/>
</a>
</g>
</g>
<!-- Node11 -->
<g id="Node000011" class="node">
<title>Node11</title>
<g id="a_Node000011"><a xlink:href="types_8hpp.html" target="_top" xlink:title=" ">
<polygon fill="white" stroke="#666666" points="607.5,-74 475.5,-74 475.5,-55 607.5,-55 607.5,-74"/>
<text text-anchor="middle" x="541.5" y="-62" font-family="Helvetica,sans-Serif" font-size="10.00">json_rpc/core/types.hpp</text>
</a>
</g>
</g>
<!-- Node3&#45;&gt;Node11 -->
<g id="edge29_Node000003_Node000011" class="edge">
<title>Node3&#45;&gt;Node11</title>
<g id="a_edge29_Node000003_Node000011"><a xlink:title=" ">
<path fill="none" stroke="#63b8ff" d="M173.96,-285.73C152.61,-259.64 114.05,-203.38 141.5,-165 178.8,-112.84 359.92,-84.95 465.2,-72.91"/>
<polygon fill="#63b8ff" stroke="#63b8ff" points="465.6,-76.38 475.15,-71.79 464.82,-69.43 465.6,-76.38"/>
</a>
</g>
</g>
<!-- Node17 -->
<g id="Node000017" class="node">
<title>Node17</title>
<g id="a_Node000017"><a xlink:href="server__transport_8hpp.html" target="_top" xlink:title=" ">
<polygon fill="white" stroke="#666666" points="309,-250 194,-250 194,-220 309,-220 309,-250"/>
<text text-anchor="start" x="202" y="-238" font-family="Helvetica,sans-Serif" font-size="10.00">json_rpc/core/server</text>
<text text-anchor="middle" x="251.5" y="-227" font-family="Helvetica,sans-Serif" font-size="10.00">_transport.hpp</text>
</a>
</g>
</g>
<!-- Node3&#45;&gt;Node17 -->
<g id="edge24_Node000003_Node000017" class="edge">
<title>Node3&#45;&gt;Node17</title>
<g id="a_edge24_Node000003_Node000017"><a xlink:title=" ">
<path fill="none" stroke="#63b8ff" d="M200.93,-285.8C209.43,-277.43 220.34,-266.68 229.86,-257.31"/>
<polygon fill="#63b8ff" stroke="#63b8ff" points="232.44,-259.67 237.11,-250.16 227.53,-254.69 232.44,-259.67"/>
</a>
</g>
</g>
<!-- Node6 -->
<g id="Node000006" class="node">
<title>Node6</title>
<g id="a_Node000006"><a xlink:title=" ">
<polygon fill="#e0e0e0" stroke="#999999" points="772.5,-19 716.5,-19 716.5,0 772.5,0 772.5,-19"/>
<text text-anchor="middle" x="744.5" y="-7" font-family="Helvetica,sans-Serif" font-size="10.00">optional</text>
</a>
</g>
</g>
<!-- Node5&#45;&gt;Node6 -->
<g id="edge5_Node000005_Node000006" class="edge">
<title>Node5&#45;&gt;Node6</title>
<g id="a_edge5_Node000005_Node000006"><a xlink:title=" ">
<path fill="none" stroke="#63b8ff" d="M666.18,-173.88C757.37,-172.62 901.06,-164.79 939.5,-129 963.83,-106.34 971.38,-80.87 950.5,-55 929.82,-29.37 836.38,-17.78 782.72,-13.16"/>
<polygon fill="#63b8ff" stroke="#63b8ff" points="782.8,-9.66 772.55,-12.33 782.23,-16.63 782.8,-9.66"/>
</a>
</g>
</g>
<!-- Node7 -->
<g id="Node000007" class="node">
<title>Node7</title>
<g id="a_Node000007"><a xlink:title=" ">
<polygon fill="#e0e0e0" stroke="#999999" points="759.5,-74 715.5,-74 715.5,-55 759.5,-55 759.5,-74"/>
<text text-anchor="middle" x="737.5" y="-62" font-family="Helvetica,sans-Serif" font-size="10.00">string</text>
</a>
</g>
</g>
<!-- Node5&#45;&gt;Node7 -->
<g id="edge6_Node000005_Node000007" class="edge">
<title>Node5&#45;&gt;Node7</title>
<g id="a_edge6_Node000005_Node000007"><a xlink:title=" ">
<path fill="none" stroke="#63b8ff" d="M649.7,-164.96C673.99,-158.69 700.39,-147.83 718.5,-129 730.08,-116.96 734.64,-98.15 736.41,-84.12"/>
<polygon fill="#63b8ff" stroke="#63b8ff" points="739.9,-84.4 737.32,-74.12 732.93,-83.76 739.9,-84.4"/>
</a>
</g>
</g>
<!-- Node8 -->
<g id="Node000008" class="node">
<title>Node8</title>
<g id="a_Node000008"><a xlink:title=" ">
<polygon fill="#e0e0e0" stroke="#999999" points="941,-74 848,-74 848,-55 941,-55 941,-74"/>
<text text-anchor="middle" x="894.5" y="-62" font-family="Helvetica,sans-Serif" font-size="10.00">unordered_map</text>
</a>
</g>
</g>
<!-- Node5&#45;&gt;Node8 -->
<g id="edge7_Node000005_Node000008" class="edge">
<title>Node5&#45;&gt;Node8</title>
<g id="a_edge7_Node000005_Node000008"><a xlink:title=" ">
<path fill="none" stroke="#63b8ff" d="M666.04,-168.52C759.67,-161.7 906.78,-148.09 923.5,-129 935.65,-115.13 923.12,-95.32 910.95,-81.53"/>
<polygon fill="#63b8ff" stroke="#63b8ff" points="913.42,-79.05 904.01,-74.19 908.34,-83.86 913.42,-79.05"/>
</a>
</g>
</g>
<!-- Node9 -->
<g id="Node000009" class="node">
<title>Node9</title>
<g id="a_Node000009"><a xlink:title=" ">
<polygon fill="#e0e0e0" stroke="#999999" points="380,-129 333,-129 333,-110 380,-110 380,-129"/>
<text text-anchor="middle" x="356.5" y="-117" font-family="Helvetica,sans-Serif" font-size="10.00">vector</text>
</a>
</g>
</g>
<!-- Node5&#45;&gt;Node9 -->
<g id="edge8_Node000005_Node000009" class="edge">
<title>Node5&#45;&gt;Node9</title>
<g id="a_edge8_Node000005_Node000009"><a xlink:title=" ">
<path fill="none" stroke="#63b8ff" d="M548.39,-164.93C510.18,-156.67 450.81,-143.62 390.03,-129.07"/>
<polygon fill="#63b8ff" stroke="#63b8ff" points="390.81,-125.65 380.27,-126.72 389.18,-132.46 390.81,-125.65"/>
</a>
</g>
</g>
<!-- Node10 -->
<g id="Node000010" class="node">
<title>Node10</title>
<g id="a_Node000010"><a xlink:href="request_8hpp.html" target="_top" xlink:title=" ">
<polygon fill="white" stroke="#666666" points="709.5,-129 567.5,-129 567.5,-110 709.5,-110 709.5,-129"/>
<text text-anchor="middle" x="638.5" y="-117" font-family="Helvetica,sans-Serif" font-size="10.00">json_rpc/core/request.hpp</text>
</a>
</g>
</g>
<!-- Node5&#45;&gt;Node10 -->
<g id="edge9_Node000005_Node000010" class="edge">
<title>Node5&#45;&gt;Node10</title>
<g id="a_edge9_Node000005_Node000010"><a xlink:title=" ">
<path fill="none" stroke="#63b8ff" d="M596.76,-164.75C603.96,-157.11 614.61,-145.82 623.35,-136.56"/>
<polygon fill="#63b8ff" stroke="#63b8ff" points="626.08,-138.76 630.4,-129.09 620.99,-133.96 626.08,-138.76"/>
</a>
</g>
</g>
<!-- Node5&#45;&gt;Node11 -->
<g id="edge22_Node000005_Node000011" class="edge">
<title>Node5&#45;&gt;Node11</title>
<g id="a_edge22_Node000005_Node000011"><a xlink:title=" ">
<path fill="none" stroke="#63b8ff" d="M581.36,-164.82C574.6,-156.21 564.6,-142.4 558.5,-129 551.91,-114.54 547.46,-97.03 544.77,-84.06"/>
<polygon fill="#63b8ff" stroke="#63b8ff" points="548.17,-83.19 542.85,-74.02 541.3,-84.5 548.17,-83.19"/>
</a>
</g>
</g>
<!-- Node15 -->
<g id="Node000015" class="node">
<title>Node15</title>
<g id="a_Node000015"><a xlink:href="response_8hpp.html" target="_top" xlink:title=" ">
<polygon fill="white" stroke="#666666" points="914,-129 765,-129 765,-110 914,-110 914,-129"/>
<text text-anchor="middle" x="839.5" y="-117" font-family="Helvetica,sans-Serif" font-size="10.00">json_rpc/core/response.hpp</text>
</a>
</g>
</g>
<!-- Node5&#45;&gt;Node15 -->
<g id="edge17_Node000005_Node000015" class="edge">
<title>Node5&#45;&gt;Node15</title>
<g id="a_edge17_Node000005_Node000015"><a xlink:title=" ">
<path fill="none" stroke="#63b8ff" d="M628.83,-164.98C672.34,-155.8 741.7,-141.15 788.85,-131.19"/>
<polygon fill="#63b8ff" stroke="#63b8ff" points="789.8,-134.57 798.86,-129.08 788.35,-127.72 789.8,-134.57"/>
</a>
</g>
</g>
<!-- Node16 -->
<g id="Node000016" class="node">
<title>Node16</title>
<g id="a_Node000016"><a xlink:title=" ">
<polygon fill="#e0e0e0" stroke="#999999" points="511,-129 398,-129 398,-110 511,-110 511,-129"/>
<text text-anchor="middle" x="454.5" y="-117" font-family="Helvetica,sans-Serif" font-size="10.00">BS_thread_pool.hpp</text>
</a>
</g>
</g>
<!-- Node5&#45;&gt;Node16 -->
<g id="edge23_Node000005_Node000016" class="edge">
<title>Node5&#45;&gt;Node16</title>
<g id="a_edge23_Node000005_Node000016"><a xlink:title=" ">
<path fill="none" stroke="#63b8ff" d="M566.97,-164.98C545.03,-156.3 510.76,-142.75 485.81,-132.88"/>
<polygon fill="#63b8ff" stroke="#63b8ff" points="487.01,-129.59 476.42,-129.17 484.43,-136.1 487.01,-129.59"/>
</a>
</g>
</g>
<!-- Node10&#45;&gt;Node6 -->
<g id="edge10_Node000010_Node000006" class="edge">
<title>Node10&#45;&gt;Node6</title>
<g id="a_edge10_Node000010_Node000006"><a xlink:title=" ">
<path fill="none" stroke="#63b8ff" d="M647.17,-109.66C665.04,-91.46 706.18,-49.55 728.83,-26.47"/>
<polygon fill="#63b8ff" stroke="#63b8ff" points="731.5,-28.75 736,-19.16 726.5,-23.84 731.5,-28.75"/>
</a>
</g>
</g>
<!-- Node10&#45;&gt;Node7 -->
<g id="edge11_Node000010_Node000007" class="edge">
<title>Node10&#45;&gt;Node7</title>
<g id="a_edge11_Node000010_Node000007"><a xlink:title=" ">
<path fill="none" stroke="#63b8ff" d="M654.41,-109.98C670.05,-101.61 694.16,-88.7 712.38,-78.95"/>
<polygon fill="#63b8ff" stroke="#63b8ff" points="714.14,-81.98 721.3,-74.17 710.84,-75.8 714.14,-81.98"/>
</a>
</g>
</g>
<!-- Node10&#45;&gt;Node11 -->
<g id="edge12_Node000010_Node000011" class="edge">
<title>Node10&#45;&gt;Node11</title>
<g id="a_edge12_Node000010_Node000011"><a xlink:title=" ">
<path fill="none" stroke="#63b8ff" d="M622.92,-109.98C607.73,-101.69 584.4,-88.94 566.6,-79.22"/>
<polygon fill="#63b8ff" stroke="#63b8ff" points="567.82,-75.89 557.37,-74.17 564.47,-82.04 567.82,-75.89"/>
</a>
</g>
</g>
<!-- Node11&#45;&gt;Node6 -->
<g id="edge14_Node000011_Node000006" class="edge">
<title>Node11&#45;&gt;Node6</title>
<g id="a_edge14_Node000011_Node000006"><a xlink:title=" ">
<path fill="none" stroke="#63b8ff" d="M574.12,-54.98C610.23,-45.56 668.37,-30.38 706.51,-20.42"/>
<polygon fill="#63b8ff" stroke="#63b8ff" points="707.43,-23.8 716.22,-17.88 705.66,-17.02 707.43,-23.8"/>
</a>
</g>
</g>
<!-- Node12 -->
<g id="Node000012" class="node">
<title>Node12</title>
<g id="a_Node000012"><a xlink:title=" ">
<polygon fill="#e0e0e0" stroke="#999999" points="574,-19 509,-19 509,0 574,0 574,-19"/>
<text text-anchor="middle" x="541.5" y="-7" font-family="Helvetica,sans-Serif" font-size="10.00">functional</text>
</a>
</g>
</g>
<!-- Node11&#45;&gt;Node12 -->
<g id="edge13_Node000011_Node000012" class="edge">
<title>Node11&#45;&gt;Node12</title>
<g id="a_edge13_Node000011_Node000012"><a xlink:title=" ">
<path fill="none" stroke="#63b8ff" d="M541.5,-54.75C541.5,-47.8 541.5,-37.85 541.5,-29.13"/>
<polygon fill="#63b8ff" stroke="#63b8ff" points="545,-29.09 541.5,-19.09 538,-29.09 545,-29.09"/>
</a>
</g>
</g>
<!-- Node13 -->
<g id="Node000013" class="node">
<title>Node13</title>
<g id="a_Node000013"><a xlink:title=" ">
<polygon fill="#e0e0e0" stroke="#999999" points="643,-19 592,-19 592,0 643,0 643,-19"/>
<text text-anchor="middle" x="617.5" y="-7" font-family="Helvetica,sans-Serif" font-size="10.00">variant</text>
</a>
</g>
</g>
<!-- Node11&#45;&gt;Node13 -->
<g id="edge15_Node000011_Node000013" class="edge">
<title>Node11&#45;&gt;Node13</title>
<g id="a_edge15_Node000011_Node000013"><a xlink:title=" ">
<path fill="none" stroke="#63b8ff" d="M553.71,-54.98C565.28,-46.92 582.88,-34.65 596.66,-25.03"/>
<polygon fill="#63b8ff" stroke="#63b8ff" points="598.87,-27.76 605.07,-19.17 594.86,-22.02 598.87,-27.76"/>
</a>
</g>
</g>
<!-- Node14 -->
<g id="Node000014" class="node">
<title>Node14</title>
<g id="a_Node000014"><a xlink:title=" ">
<polygon fill="#e0e0e0" stroke="#999999" points="490.5,-19 380.5,-19 380.5,0 490.5,0 490.5,-19"/>
<text text-anchor="middle" x="435.5" y="-7" font-family="Helvetica,sans-Serif" font-size="10.00">nlohmann/json.hpp</text>
</a>
</g>
</g>
<!-- Node11&#45;&gt;Node14 -->
<g id="edge16_Node000011_Node000014" class="edge">
<title>Node11&#45;&gt;Node14</title>
<g id="a_edge16_Node000011_Node000014"><a xlink:title=" ">
<path fill="none" stroke="#63b8ff" d="M524.47,-54.98C507.57,-46.54 481.44,-33.47 461.86,-23.68"/>
<polygon fill="#63b8ff" stroke="#63b8ff" points="463.35,-20.51 452.84,-19.17 460.22,-26.77 463.35,-20.51"/>
</a>
</g>
</g>
<!-- Node15&#45;&gt;Node6 -->
<g id="edge18_Node000015_Node000006" class="edge">
<title>Node15&#45;&gt;Node6</title>
<g id="a_edge18_Node000015_Node000006"><a xlink:title=" ">
<path fill="none" stroke="#63b8ff" d="M831.73,-109.66C815.78,-91.54 779.17,-49.91 758.81,-26.77"/>
<polygon fill="#63b8ff" stroke="#63b8ff" points="761.35,-24.36 752.12,-19.16 756.09,-28.98 761.35,-24.36"/>
</a>
</g>
</g>
<!-- Node15&#45;&gt;Node7 -->
<g id="edge19_Node000015_Node000007" class="edge">
<title>Node15&#45;&gt;Node7</title>
<g id="a_edge19_Node000015_Node000007"><a xlink:title=" ">
<path fill="none" stroke="#63b8ff" d="M823.11,-109.98C806.93,-101.57 781.93,-88.59 763.12,-78.81"/>
<polygon fill="#63b8ff" stroke="#63b8ff" points="764.67,-75.68 754.19,-74.17 761.45,-81.89 764.67,-75.68"/>
</a>
</g>
</g>
<!-- Node15&#45;&gt;Node8 -->
<g id="edge20_Node000015_Node000008" class="edge">
<title>Node15&#45;&gt;Node8</title>
<g id="a_edge20_Node000015_Node000008"><a xlink:title=" ">
<path fill="none" stroke="#63b8ff" d="M848.58,-109.75C856.59,-102.03 868.46,-90.6 878.12,-81.28"/>
<polygon fill="#63b8ff" stroke="#63b8ff" points="880.81,-83.55 885.59,-74.09 875.96,-78.51 880.81,-83.55"/>
</a>
</g>
</g>
<!-- Node15&#45;&gt;Node11 -->
<g id="edge21_Node000015_Node000011" class="edge">
<title>Node15&#45;&gt;Node11</title>
<g id="a_edge21_Node000015_Node000011"><a xlink:title=" ">
<path fill="none" stroke="#63b8ff" d="M791.62,-109.98C739.42,-100.7 655.88,-85.84 599.88,-75.88"/>
<polygon fill="#63b8ff" stroke="#63b8ff" points="600.21,-72.39 589.75,-74.08 598.99,-79.28 600.21,-72.39"/>
</a>
</g>
</g>
<!-- Node17&#45;&gt;Node5 -->
<g id="edge27_Node000017_Node000005" class="edge">
<title>Node17&#45;&gt;Node5</title>
<g id="a_edge27_Node000017_Node000005"><a xlink:title=" ">
<path fill="none" stroke="#63b8ff" d="M309.05,-224.01C370.49,-213.35 467.35,-196.53 529.38,-185.76"/>
<polygon fill="#63b8ff" stroke="#63b8ff" points="530.15,-189.18 539.4,-184.02 528.95,-182.28 530.15,-189.18"/>
</a>
</g>
</g>
<!-- Node17&#45;&gt;Node11 -->
<g id="edge28_Node000017_Node000011" class="edge">
<title>Node17&#45;&gt;Node11</title>
<g id="a_edge28_Node000017_Node000011"><a xlink:title=" ">
<path fill="none" stroke="#63b8ff" d="M261.76,-219.84C268.74,-209.98 278.04,-196.42 285.5,-184 304.65,-152.13 294.77,-132.32 324.5,-110 346.53,-93.46 411.87,-81.5 465.14,-74.17"/>
<polygon fill="#63b8ff" stroke="#63b8ff" points="465.82,-77.6 475.27,-72.81 464.89,-70.67 465.82,-77.6"/>
</a>
</g>
</g>
<!-- Node18 -->
<g id="Node000018" class="node">
<title>Node18</title>
<g id="a_Node000018"><a xlink:title=" ">
<polygon fill="#e0e0e0" stroke="#999999" points="276.5,-184 226.5,-184 226.5,-165 276.5,-165 276.5,-184"/>
<text text-anchor="middle" x="251.5" y="-172" font-family="Helvetica,sans-Serif" font-size="10.00">atomic</text>
</a>
</g>
</g>
<!-- Node17&#45;&gt;Node18 -->
<g id="edge25_Node000017_Node000018" class="edge">
<title>Node17&#45;&gt;Node18</title>
<g id="a_edge25_Node000017_Node000018"><a xlink:title=" ">
<path fill="none" stroke="#63b8ff" d="M251.5,-219.84C251.5,-212.21 251.5,-202.7 251.5,-194.45"/>
<polygon fill="#63b8ff" stroke="#63b8ff" points="255,-194.27 251.5,-184.27 248,-194.27 255,-194.27"/>
</a>
</g>
</g>
<!-- Node19 -->
<g id="Node000019" class="node">
<title>Node19</title>
<g id="a_Node000019"><a xlink:title=" ">
<polygon fill="#e0e0e0" stroke="#999999" points="208.5,-184 150.5,-184 150.5,-165 208.5,-165 208.5,-184"/>
<text text-anchor="middle" x="179.5" y="-172" font-family="Helvetica,sans-Serif" font-size="10.00">memory</text>
</a>
</g>
</g>
<!-- Node17&#45;&gt;Node19 -->
<g id="edge26_Node000017_Node000019" class="edge">
<title>Node17&#45;&gt;Node19</title>
<g id="a_edge26_Node000017_Node000019"><a xlink:title=" ">
<path fill="none" stroke="#63b8ff" d="M234.07,-219.84C223.19,-211 209.2,-199.63 198.11,-190.62"/>
<polygon fill="#63b8ff" stroke="#63b8ff" points="200.26,-187.86 190.29,-184.27 195.84,-193.29 200.26,-187.86"/>
</a>
</g>
</g>
</g>
</svg>
