<?xml version="1.0" encoding="UTF-8" standalone="no"?>
<!DOCTYPE svg PUBLIC "-//W3C//DTD SVG 1.1//EN"
 "http://www.w3.org/Graphics/SVG/1.1/DTD/svg11.dtd">
<!-- Generated by graphviz version 2.43.0 (0)
 -->
<!-- Title: src/transport/stdio_transport.cpp Pages: 1 -->
<svg width="324pt" height="214pt"
 viewBox="0.00 0.00 323.50 214.00" xmlns="http://www.w3.org/2000/svg" xmlns:xlink="http://www.w3.org/1999/xlink">
<g id="graph0" class="graph" transform="scale(1 1) rotate(0) translate(4 210)">
<title>src/transport/stdio_transport.cpp</title>
<!-- Node1 -->
<g id="Node000001" class="node">
<title>Node1</title>
<g id="a_Node000001"><a xlink:title=" ">
<polygon fill="#999999" stroke="#666666" points="226.5,-206 121.5,-206 121.5,-176 226.5,-176 226.5,-206"/>
<text text-anchor="start" x="129.5" y="-194" font-family="Helvetica,sans-Serif" font-size="10.00">src/transport/stdio</text>
<text text-anchor="middle" x="174" y="-183" font-family="Helvetica,sans-Serif" font-size="10.00">_transport.cpp</text>
</a>
</g>
</g>
<!-- Node2 -->
<g id="Node000002" class="node">
<title>Node2</title>
<g id="a_Node000002"><a xlink:href="stdio__transport_8hpp.html" target="_top" xlink:title=" ">
<polygon fill="white" stroke="#666666" points="126,-140 0,-140 0,-110 126,-110 126,-140"/>
<text text-anchor="start" x="8" y="-128" font-family="Helvetica,sans-Serif" font-size="10.00">jsonrpc/transport/stdio</text>
<text text-anchor="middle" x="63" y="-117" font-family="Helvetica,sans-Serif" font-size="10.00">_transport.hpp</text>
</a>
</g>
</g>
<!-- Node1&#45;&gt;Node2 -->
<g id="edge1_Node000001_Node000002" class="edge">
<title>Node1&#45;&gt;Node2</title>
<g id="a_edge1_Node000001_Node000002"><a xlink:title=" ">
<path fill="none" stroke="#63b8ff" d="M149.64,-175.95C134.03,-166.95 113.55,-155.14 96.42,-145.27"/>
<polygon fill="#63b8ff" stroke="#63b8ff" points="97.71,-141.98 87.3,-140.01 94.22,-148.04 97.71,-141.98"/>
</a>
</g>
</g>
<!-- Node5 -->
<g id="Node000005" class="node">
<title>Node5</title>
<g id="a_Node000005"><a xlink:title=" ">
<polygon fill="#e0e0e0" stroke="#999999" points="204,-134.5 144,-134.5 144,-115.5 204,-115.5 204,-134.5"/>
<text text-anchor="middle" x="174" y="-122.5" font-family="Helvetica,sans-Serif" font-size="10.00">iostream</text>
</a>
</g>
</g>
<!-- Node1&#45;&gt;Node5 -->
<g id="edge5_Node000001_Node000005" class="edge">
<title>Node1&#45;&gt;Node5</title>
<g id="a_edge5_Node000001_Node000005"><a xlink:title=" ">
<path fill="none" stroke="#63b8ff" d="M174,-175.8C174,-166.7 174,-154.79 174,-144.9"/>
<polygon fill="#63b8ff" stroke="#63b8ff" points="177.5,-144.84 174,-134.84 170.5,-144.84 177.5,-144.84"/>
</a>
</g>
</g>
<!-- Node6 -->
<g id="Node000006" class="node">
<title>Node6</title>
<g id="a_Node000006"><a xlink:title=" ">
<polygon fill="#e0e0e0" stroke="#999999" points="315.5,-134.5 222.5,-134.5 222.5,-115.5 315.5,-115.5 315.5,-134.5"/>
<text text-anchor="middle" x="269" y="-122.5" font-family="Helvetica,sans-Serif" font-size="10.00">spdlog/spdlog.h</text>
</a>
</g>
</g>
<!-- Node1&#45;&gt;Node6 -->
<g id="edge6_Node000001_Node000006" class="edge">
<title>Node1&#45;&gt;Node6</title>
<g id="a_edge6_Node000001_Node000006"><a xlink:title=" ">
<path fill="none" stroke="#63b8ff" d="M195.08,-175.8C210.71,-165.27 231.93,-150.97 247.63,-140.4"/>
<polygon fill="#63b8ff" stroke="#63b8ff" points="249.81,-143.15 256.15,-134.66 245.9,-137.34 249.81,-143.15"/>
</a>
</g>
</g>
<!-- Node3 -->
<g id="Node000003" class="node">
<title>Node3</title>
<g id="a_Node000003"><a xlink:title=" ">
<polygon fill="#e0e0e0" stroke="#999999" points="85,-19 41,-19 41,0 85,0 85,-19"/>
<text text-anchor="middle" x="63" y="-7" font-family="Helvetica,sans-Serif" font-size="10.00">string</text>
</a>
</g>
</g>
<!-- Node2&#45;&gt;Node3 -->
<g id="edge2_Node000002_Node000003" class="edge">
<title>Node2&#45;&gt;Node3</title>
<g id="a_edge2_Node000002_Node000003"><a xlink:title=" ">
<path fill="none" stroke="#63b8ff" d="M48.89,-109.63C40.77,-100.31 31.33,-87.44 27,-74 24.41,-65.96 24.18,-62.96 27,-55 30.75,-44.41 38.21,-34.49 45.37,-26.71"/>
<polygon fill="#63b8ff" stroke="#63b8ff" points="48.28,-28.76 52.84,-19.19 43.31,-23.82 48.28,-28.76"/>
</a>
</g>
</g>
<!-- Node4 -->
<g id="Node000004" class="node">
<title>Node4</title>
<g id="a_Node000004"><a xlink:href="transport_8hpp.html" target="_top" xlink:title=" ">
<polygon fill="white" stroke="#666666" points="202.5,-74 35.5,-74 35.5,-55 202.5,-55 202.5,-74"/>
<text text-anchor="middle" x="119" y="-62" font-family="Helvetica,sans-Serif" font-size="10.00">jsonrpc/transport/transport.hpp</text>
</a>
</g>
</g>
<!-- Node2&#45;&gt;Node4 -->
<g id="edge3_Node000002_Node000004" class="edge">
<title>Node2&#45;&gt;Node4</title>
<g id="a_edge3_Node000002_Node000004"><a xlink:title=" ">
<path fill="none" stroke="#63b8ff" d="M76.56,-109.84C84.68,-101.35 95.05,-90.52 103.5,-81.69"/>
<polygon fill="#63b8ff" stroke="#63b8ff" points="106.22,-83.91 110.61,-74.27 101.17,-79.07 106.22,-83.91"/>
</a>
</g>
</g>
<!-- Node4&#45;&gt;Node3 -->
<g id="edge4_Node000004_Node000003" class="edge">
<title>Node4&#45;&gt;Node3</title>
<g id="a_edge4_Node000004_Node000003"><a xlink:title=" ">
<path fill="none" stroke="#63b8ff" d="M110,-54.98C101.81,-47.23 89.49,-35.58 79.53,-26.14"/>
<polygon fill="#63b8ff" stroke="#63b8ff" points="81.83,-23.5 72.16,-19.17 77.02,-28.59 81.83,-23.5"/>
</a>
</g>
</g>
</g>
</svg>
