<?xml version="1.0" encoding="UTF-8" standalone="no"?>
<!DOCTYPE svg PUBLIC "-//W3C//DTD SVG 1.1//EN"
 "http://www.w3.org/Graphics/SVG/1.1/DTD/svg11.dtd">
<!-- Generated by graphviz version 2.43.0 (0)
 -->
<!-- Title: include/jsonrpc/transports/stdio_client_transport.hpp Pages: 1 -->
<svg width="636pt" height="269pt"
 viewBox="0.00 0.00 635.59 269.00" xmlns="http://www.w3.org/2000/svg" xmlns:xlink="http://www.w3.org/1999/xlink">
<g id="graph0" class="graph" transform="scale(1 1) rotate(0) translate(4 265)">
<title>include/jsonrpc/transports/stdio_client_transport.hpp</title>
<!-- Node1 -->
<g id="Node000001" class="node">
<title>Node1</title>
<g id="a_Node000001"><a xlink:title=" ">
<polygon fill="#999999" stroke="#666666" points="561.41,-261 415.41,-261 415.41,-231 561.41,-231 561.41,-261"/>
<text text-anchor="start" x="423.41" y="-249" font-family="Helvetica,sans-Serif" font-size="10.00">include/jsonrpc/transports</text>
<text text-anchor="middle" x="488.41" y="-238" font-family="Helvetica,sans-Serif" font-size="10.00">/stdio_client_transport.hpp</text>
</a>
</g>
</g>
<!-- Node2 -->
<g id="Node000002" class="node">
<title>Node2</title>
<g id="a_Node000002"><a xlink:title=" ">
<polygon fill="#e0e0e0" stroke="#999999" points="251.41,-189.5 191.41,-189.5 191.41,-170.5 251.41,-170.5 251.41,-189.5"/>
<text text-anchor="middle" x="221.41" y="-177.5" font-family="Helvetica,sans-Serif" font-size="10.00">iostream</text>
</a>
</g>
</g>
<!-- Node1&#45;&gt;Node2 -->
<g id="edge1_Node000001_Node000002" class="edge">
<title>Node1&#45;&gt;Node2</title>
<g id="a_edge1_Node000001_Node000002"><a xlink:title=" ">
<path fill="none" stroke="#63b8ff" d="M415.16,-231.43C370.16,-222.48 311.52,-209.71 260.41,-195 258.13,-194.35 255.8,-193.63 253.46,-192.87"/>
<polygon fill="#63b8ff" stroke="#63b8ff" points="254.53,-189.54 243.93,-189.64 252.28,-196.17 254.53,-189.54"/>
</a>
</g>
</g>
<!-- Node3 -->
<g id="Node000003" class="node">
<title>Node3</title>
<g id="a_Node000003"><a xlink:href="client__transport_8hpp.html" target="_top" xlink:title=" ">
<polygon fill="white" stroke="#666666" points="579.41,-195 473.41,-195 473.41,-165 579.41,-165 579.41,-195"/>
<text text-anchor="start" x="481.41" y="-183" font-family="Helvetica,sans-Serif" font-size="10.00">jsonrpc/core/client</text>
<text text-anchor="middle" x="526.41" y="-172" font-family="Helvetica,sans-Serif" font-size="10.00">_transport.hpp</text>
</a>
</g>
</g>
<!-- Node1&#45;&gt;Node3 -->
<g id="edge2_Node000001_Node000003" class="edge">
<title>Node1&#45;&gt;Node3</title>
<g id="a_edge2_Node000001_Node000003"><a xlink:title=" ">
<path fill="none" stroke="#63b8ff" d="M496.84,-230.8C501.52,-222.92 507.44,-212.95 512.76,-203.99"/>
<polygon fill="#63b8ff" stroke="#63b8ff" points="515.9,-205.55 518,-195.16 509.88,-201.98 515.9,-205.55"/>
</a>
</g>
</g>
<!-- Node4 -->
<g id="Node000004" class="node">
<title>Node4</title>
<g id="a_Node000004"><a xlink:href="types_8hpp.html" target="_top" xlink:title=" ">
<polygon fill="white" stroke="#666666" points="479.91,-74 352.91,-74 352.91,-55 479.91,-55 479.91,-74"/>
<text text-anchor="middle" x="416.41" y="-62" font-family="Helvetica,sans-Serif" font-size="10.00">jsonrpc/core/types.hpp</text>
</a>
</g>
</g>
<!-- Node1&#45;&gt;Node4 -->
<g id="edge24_Node000001_Node000004" class="edge">
<title>Node1&#45;&gt;Node4</title>
<g id="a_edge24_Node000001_Node000004"><a xlink:title=" ">
<path fill="none" stroke="#63b8ff" d="M532,-230.92C551.28,-222.9 573.02,-211.17 588.41,-195 615.92,-166.08 642.4,-141.13 617.41,-110 601.41,-90.08 540.59,-78.53 490.01,-72.21"/>
<polygon fill="#63b8ff" stroke="#63b8ff" points="490.39,-68.73 480.04,-71.02 489.55,-75.68 490.39,-68.73"/>
</a>
</g>
</g>
<!-- Node9 -->
<g id="Node000009" class="node">
<title>Node9</title>
<g id="a_Node000009"><a xlink:href="dispatcher_8hpp.html" target="_top" xlink:title=" ">
<polygon fill="white" stroke="#666666" points="419.41,-189.5 269.41,-189.5 269.41,-170.5 419.41,-170.5 419.41,-189.5"/>
<text text-anchor="middle" x="344.41" y="-177.5" font-family="Helvetica,sans-Serif" font-size="10.00">jsonrpc/core/dispatcher.hpp</text>
</a>
</g>
</g>
<!-- Node1&#45;&gt;Node9 -->
<g id="edge8_Node000001_Node000009" class="edge">
<title>Node1&#45;&gt;Node9</title>
<g id="a_edge8_Node000001_Node000009"><a xlink:title=" ">
<path fill="none" stroke="#63b8ff" d="M456.81,-230.95C431.78,-219.83 397.11,-204.42 372.92,-193.67"/>
<polygon fill="#63b8ff" stroke="#63b8ff" points="374.13,-190.38 363.57,-189.52 371.29,-196.78 374.13,-190.38"/>
</a>
</g>
</g>
<!-- Node3&#45;&gt;Node4 -->
<g id="edge3_Node000003_Node000004" class="edge">
<title>Node3&#45;&gt;Node4</title>
<g id="a_edge3_Node000003_Node000004"><a xlink:title=" ">
<path fill="none" stroke="#63b8ff" d="M560.26,-164.99C586.96,-151.91 617.14,-131.26 600.41,-110 586.52,-92.35 535.02,-80.86 490.03,-73.99"/>
<polygon fill="#63b8ff" stroke="#63b8ff" points="490.35,-70.5 479.95,-72.51 489.33,-77.43 490.35,-70.5"/>
</a>
</g>
</g>
<!-- Node5 -->
<g id="Node000005" class="node">
<title>Node5</title>
<g id="a_Node000005"><a xlink:title=" ">
<polygon fill="#e0e0e0" stroke="#999999" points="554.91,-19 489.91,-19 489.91,0 554.91,0 554.91,-19"/>
<text text-anchor="middle" x="522.41" y="-7" font-family="Helvetica,sans-Serif" font-size="10.00">functional</text>
</a>
</g>
</g>
<!-- Node4&#45;&gt;Node5 -->
<g id="edge4_Node000004_Node000005" class="edge">
<title>Node4&#45;&gt;Node5</title>
<g id="a_edge4_Node000004_Node000005"><a xlink:title=" ">
<path fill="none" stroke="#63b8ff" d="M433.44,-54.98C450.34,-46.54 476.47,-33.47 496.05,-23.68"/>
<polygon fill="#63b8ff" stroke="#63b8ff" points="497.69,-26.77 505.07,-19.17 494.56,-20.51 497.69,-26.77"/>
</a>
</g>
</g>
<!-- Node6 -->
<g id="Node000006" class="node">
<title>Node6</title>
<g id="a_Node000006"><a xlink:title=" ">
<polygon fill="#e0e0e0" stroke="#999999" points="227.41,-19 171.41,-19 171.41,0 227.41,0 227.41,-19"/>
<text text-anchor="middle" x="199.41" y="-7" font-family="Helvetica,sans-Serif" font-size="10.00">optional</text>
</a>
</g>
</g>
<!-- Node4&#45;&gt;Node6 -->
<g id="edge5_Node000004_Node000006" class="edge">
<title>Node4&#45;&gt;Node6</title>
<g id="a_edge5_Node000004_Node000006"><a xlink:title=" ">
<path fill="none" stroke="#63b8ff" d="M381.54,-54.98C342.11,-45.35 278.12,-29.72 237.43,-19.79"/>
<polygon fill="#63b8ff" stroke="#63b8ff" points="238.16,-16.36 227.62,-17.39 236.5,-23.16 238.16,-16.36"/>
</a>
</g>
</g>
<!-- Node7 -->
<g id="Node000007" class="node">
<title>Node7</title>
<g id="a_Node000007"><a xlink:title=" ">
<polygon fill="#e0e0e0" stroke="#999999" points="342.91,-19 291.91,-19 291.91,0 342.91,0 342.91,-19"/>
<text text-anchor="middle" x="317.41" y="-7" font-family="Helvetica,sans-Serif" font-size="10.00">variant</text>
</a>
</g>
</g>
<!-- Node4&#45;&gt;Node7 -->
<g id="edge6_Node000004_Node000007" class="edge">
<title>Node4&#45;&gt;Node7</title>
<g id="a_edge6_Node000004_Node000007"><a xlink:title=" ">
<path fill="none" stroke="#63b8ff" d="M400.5,-54.98C384.86,-46.61 360.75,-33.7 342.53,-23.95"/>
<polygon fill="#63b8ff" stroke="#63b8ff" points="344.07,-20.8 333.6,-19.17 340.77,-26.98 344.07,-20.8"/>
</a>
</g>
</g>
<!-- Node8 -->
<g id="Node000008" class="node">
<title>Node8</title>
<g id="a_Node000008"><a xlink:title=" ">
<polygon fill="#e0e0e0" stroke="#999999" points="471.41,-19 361.41,-19 361.41,0 471.41,0 471.41,-19"/>
<text text-anchor="middle" x="416.41" y="-7" font-family="Helvetica,sans-Serif" font-size="10.00">nlohmann/json.hpp</text>
</a>
</g>
</g>
<!-- Node4&#45;&gt;Node8 -->
<g id="edge7_Node000004_Node000008" class="edge">
<title>Node4&#45;&gt;Node8</title>
<g id="a_edge7_Node000004_Node000008"><a xlink:title=" ">
<path fill="none" stroke="#63b8ff" d="M416.41,-54.75C416.41,-47.8 416.41,-37.85 416.41,-29.13"/>
<polygon fill="#63b8ff" stroke="#63b8ff" points="419.91,-29.09 416.41,-19.09 412.91,-29.09 419.91,-29.09"/>
</a>
</g>
</g>
<!-- Node9&#45;&gt;Node4 -->
<g id="edge23_Node000009_Node000004" class="edge">
<title>Node9&#45;&gt;Node4</title>
<g id="a_edge23_Node000009_Node000004"><a xlink:title=" ">
<path fill="none" stroke="#63b8ff" d="M403.7,-170.49C470.45,-160.31 571.13,-142.89 582.41,-129 612.08,-92.44 547.41,-76.91 490.31,-70.32"/>
<polygon fill="#63b8ff" stroke="#63b8ff" points="490.45,-66.81 480.13,-69.23 489.7,-73.77 490.45,-66.81"/>
</a>
</g>
</g>
<!-- Node9&#45;&gt;Node6 -->
<g id="edge9_Node000009_Node000006" class="edge">
<title>Node9&#45;&gt;Node6</title>
<g id="a_edge9_Node000009_Node000006"><a xlink:title=" ">
<path fill="none" stroke="#63b8ff" d="M293.79,-170.44C282.79,-168.62 271.21,-166.72 260.41,-165 207.8,-156.62 61.95,-165.78 23.41,-129 -0.64,-106.04 -8.2,-81.09 12.41,-55 30.61,-31.96 112.16,-19.57 161.36,-14.07"/>
<polygon fill="#63b8ff" stroke="#63b8ff" points="161.76,-17.55 171.33,-13 161.01,-10.59 161.76,-17.55"/>
</a>
</g>
</g>
<!-- Node10 -->
<g id="Node000010" class="node">
<title>Node10</title>
<g id="a_Node000010"><a xlink:title=" ">
<polygon fill="#e0e0e0" stroke="#999999" points="234.41,-74 190.41,-74 190.41,-55 234.41,-55 234.41,-74"/>
<text text-anchor="middle" x="212.41" y="-62" font-family="Helvetica,sans-Serif" font-size="10.00">string</text>
</a>
</g>
</g>
<!-- Node9&#45;&gt;Node10 -->
<g id="edge10_Node000009_Node000010" class="edge">
<title>Node9&#45;&gt;Node10</title>
<g id="a_edge10_Node000009_Node000010"><a xlink:title=" ">
<path fill="none" stroke="#63b8ff" d="M304.83,-170.45C280.49,-163.25 250.42,-150.56 231.41,-129 220.59,-116.73 215.93,-98.5 213.92,-84.71"/>
<polygon fill="#63b8ff" stroke="#63b8ff" points="217.36,-83.97 212.78,-74.41 210.4,-84.74 217.36,-83.97"/>
</a>
</g>
</g>
<!-- Node11 -->
<g id="Node000011" class="node">
<title>Node11</title>
<g id="a_Node000011"><a xlink:title=" ">
<polygon fill="#e0e0e0" stroke="#999999" points="114.91,-74 21.91,-74 21.91,-55 114.91,-55 114.91,-74"/>
<text text-anchor="middle" x="68.41" y="-62" font-family="Helvetica,sans-Serif" font-size="10.00">unordered_map</text>
</a>
</g>
</g>
<!-- Node9&#45;&gt;Node11 -->
<g id="edge11_Node000009_Node000011" class="edge">
<title>Node9&#45;&gt;Node11</title>
<g id="a_edge11_Node000009_Node000011"><a xlink:title=" ">
<path fill="none" stroke="#63b8ff" d="M293.78,-170.48C282.78,-168.66 271.21,-166.75 260.41,-165 209.56,-156.77 64.89,-168.15 31.41,-129 18.75,-114.19 34.36,-94.45 49.02,-80.94"/>
<polygon fill="#63b8ff" stroke="#63b8ff" points="51.6,-83.33 56.88,-74.14 47.02,-78.03 51.6,-83.33"/>
</a>
</g>
</g>
<!-- Node12 -->
<g id="Node000012" class="node">
<title>Node12</title>
<g id="a_Node000012"><a xlink:title=" ">
<polygon fill="#e0e0e0" stroke="#999999" points="442.91,-129 395.91,-129 395.91,-110 442.91,-110 442.91,-129"/>
<text text-anchor="middle" x="419.41" y="-117" font-family="Helvetica,sans-Serif" font-size="10.00">vector</text>
</a>
</g>
</g>
<!-- Node9&#45;&gt;Node12 -->
<g id="edge12_Node000009_Node000012" class="edge">
<title>Node9&#45;&gt;Node12</title>
<g id="a_edge12_Node000009_Node000012"><a xlink:title=" ">
<path fill="none" stroke="#63b8ff" d="M355.48,-170.37C367.22,-161.21 386,-146.56 400.17,-135.51"/>
<polygon fill="#63b8ff" stroke="#63b8ff" points="402.56,-138.08 408.3,-129.17 398.26,-132.56 402.56,-138.08"/>
</a>
</g>
</g>
<!-- Node13 -->
<g id="Node000013" class="node">
<title>Node13</title>
<g id="a_Node000013"><a xlink:title=" ">
<polygon fill="#e0e0e0" stroke="#999999" points="573.91,-129 460.91,-129 460.91,-110 573.91,-110 573.91,-129"/>
<text text-anchor="middle" x="517.41" y="-117" font-family="Helvetica,sans-Serif" font-size="10.00">BS_thread_pool.hpp</text>
</a>
</g>
</g>
<!-- Node9&#45;&gt;Node13 -->
<g id="edge13_Node000009_Node000013" class="edge">
<title>Node9&#45;&gt;Node13</title>
<g id="a_edge13_Node000009_Node000013"><a xlink:title=" ">
<path fill="none" stroke="#63b8ff" d="M369.56,-170.49C399.29,-160.44 448.93,-143.66 482.39,-132.34"/>
<polygon fill="#63b8ff" stroke="#63b8ff" points="483.87,-135.54 492.22,-129.02 481.63,-128.9 483.87,-135.54"/>
</a>
</g>
</g>
<!-- Node14 -->
<g id="Node000014" class="node">
<title>Node14</title>
<g id="a_Node000014"><a xlink:href="request_8hpp.html" target="_top" xlink:title=" ">
<polygon fill="white" stroke="#666666" points="377.91,-129 240.91,-129 240.91,-110 377.91,-110 377.91,-129"/>
<text text-anchor="middle" x="309.41" y="-117" font-family="Helvetica,sans-Serif" font-size="10.00">jsonrpc/core/request.hpp</text>
</a>
</g>
</g>
<!-- Node9&#45;&gt;Node14 -->
<g id="edge14_Node000009_Node000014" class="edge">
<title>Node9&#45;&gt;Node14</title>
<g id="a_edge14_Node000009_Node000014"><a xlink:title=" ">
<path fill="none" stroke="#63b8ff" d="M339.24,-170.37C334.18,-161.9 326.31,-148.74 319.92,-138.07"/>
<polygon fill="#63b8ff" stroke="#63b8ff" points="322.73,-135.95 314.59,-129.17 316.73,-139.55 322.73,-135.95"/>
</a>
</g>
</g>
<!-- Node15 -->
<g id="Node000015" class="node">
<title>Node15</title>
<g id="a_Node000015"><a xlink:href="response_8hpp.html" target="_top" xlink:title=" ">
<polygon fill="white" stroke="#666666" points="184.41,-129 40.41,-129 40.41,-110 184.41,-110 184.41,-129"/>
<text text-anchor="middle" x="112.41" y="-117" font-family="Helvetica,sans-Serif" font-size="10.00">jsonrpc/core/response.hpp</text>
</a>
</g>
</g>
<!-- Node9&#45;&gt;Node15 -->
<g id="edge18_Node000009_Node000015" class="edge">
<title>Node9&#45;&gt;Node15</title>
<g id="a_edge18_Node000009_Node000015"><a xlink:title=" ">
<path fill="none" stroke="#63b8ff" d="M310.67,-170.49C269.78,-160.18 200.79,-142.78 155.93,-131.47"/>
<polygon fill="#63b8ff" stroke="#63b8ff" points="156.74,-128.07 146.18,-129.02 155.03,-134.86 156.74,-128.07"/>
</a>
</g>
</g>
<!-- Node14&#45;&gt;Node4 -->
<g id="edge17_Node000014_Node000004" class="edge">
<title>Node14&#45;&gt;Node4</title>
<g id="a_edge17_Node000014_Node000004"><a xlink:title=" ">
<path fill="none" stroke="#63b8ff" d="M326.6,-109.98C343.66,-101.54 370.04,-88.47 389.8,-78.68"/>
<polygon fill="#63b8ff" stroke="#63b8ff" points="391.5,-81.75 398.9,-74.17 388.39,-75.47 391.5,-81.75"/>
</a>
</g>
</g>
<!-- Node14&#45;&gt;Node6 -->
<g id="edge15_Node000014_Node000006" class="edge">
<title>Node14&#45;&gt;Node6</title>
<g id="a_edge15_Node000014_Node000006"><a xlink:title=" ">
<path fill="none" stroke="#63b8ff" d="M300.41,-109.66C281.78,-91.38 238.81,-49.18 215.37,-26.17"/>
<polygon fill="#63b8ff" stroke="#63b8ff" points="217.82,-23.67 208.23,-19.16 212.91,-28.66 217.82,-23.67"/>
</a>
</g>
</g>
<!-- Node14&#45;&gt;Node10 -->
<g id="edge16_Node000014_Node000010" class="edge">
<title>Node14&#45;&gt;Node10</title>
<g id="a_edge16_Node000014_Node000010"><a xlink:title=" ">
<path fill="none" stroke="#63b8ff" d="M293.82,-109.98C278.64,-101.69 255.31,-88.94 237.51,-79.22"/>
<polygon fill="#63b8ff" stroke="#63b8ff" points="238.73,-75.89 228.28,-74.17 235.37,-82.04 238.73,-75.89"/>
</a>
</g>
</g>
<!-- Node15&#45;&gt;Node4 -->
<g id="edge22_Node000015_Node000004" class="edge">
<title>Node15&#45;&gt;Node4</title>
<g id="a_edge22_Node000015_Node000004"><a xlink:title=" ">
<path fill="none" stroke="#63b8ff" d="M161.25,-109.98C214.69,-100.67 300.33,-85.74 357.47,-75.78"/>
<polygon fill="#63b8ff" stroke="#63b8ff" points="358.19,-79.2 367.44,-74.04 356.98,-72.31 358.19,-79.2"/>
</a>
</g>
</g>
<!-- Node15&#45;&gt;Node6 -->
<g id="edge19_Node000015_Node000006" class="edge">
<title>Node15&#45;&gt;Node6</title>
<g id="a_edge19_Node000015_Node000006"><a xlink:title=" ">
<path fill="none" stroke="#63b8ff" d="M119.53,-109.66C134.07,-91.61 167.37,-50.28 186.06,-27.08"/>
<polygon fill="#63b8ff" stroke="#63b8ff" points="188.89,-29.14 192.43,-19.16 183.44,-24.75 188.89,-29.14"/>
</a>
</g>
</g>
<!-- Node15&#45;&gt;Node10 -->
<g id="edge20_Node000015_Node000010" class="edge">
<title>Node15&#45;&gt;Node10</title>
<g id="a_edge20_Node000015_Node000010"><a xlink:title=" ">
<path fill="none" stroke="#63b8ff" d="M128.48,-109.98C144.27,-101.61 168.63,-88.7 187.04,-78.95"/>
<polygon fill="#63b8ff" stroke="#63b8ff" points="188.85,-81.95 196.05,-74.17 185.58,-75.76 188.85,-81.95"/>
</a>
</g>
</g>
<!-- Node15&#45;&gt;Node11 -->
<g id="edge21_Node000015_Node000011" class="edge">
<title>Node15&#45;&gt;Node11</title>
<g id="a_edge21_Node000015_Node000011"><a xlink:title=" ">
<path fill="none" stroke="#63b8ff" d="M105.14,-109.75C98.86,-102.18 89.62,-91.05 81.98,-81.84"/>
<polygon fill="#63b8ff" stroke="#63b8ff" points="84.62,-79.55 75.54,-74.09 79.23,-84.02 84.62,-79.55"/>
</a>
</g>
</g>
</g>
</svg>
