<?xml version="1.0" encoding="UTF-8" standalone="no"?>
<!DOCTYPE svg PUBLIC "-//W3C//DTD SVG 1.1//EN"
 "http://www.w3.org/Graphics/SVG/1.1/DTD/svg11.dtd">
<!-- Generated by graphviz version 2.43.0 (0)
 -->
<!-- Title: include/json_rpc/transports/stdio_client_transport.hpp Pages: 1 -->
<svg width="644pt" height="269pt"
 viewBox="0.00 0.00 643.77 269.00" xmlns="http://www.w3.org/2000/svg" xmlns:xlink="http://www.w3.org/1999/xlink">
<g id="graph0" class="graph" transform="scale(1 1) rotate(0) translate(4 265)">
<title>include/json_rpc/transports/stdio_client_transport.hpp</title>
<!-- Node1 -->
<g id="Node000001" class="node">
<title>Node1</title>
<g id="a_Node000001"><a xlink:title=" ">
<polygon fill="#999999" stroke="#666666" points="566.28,-261 418.28,-261 418.28,-231 566.28,-231 566.28,-261"/>
<text text-anchor="start" x="426.28" y="-249" font-family="Helvetica,sans-Serif" font-size="10.00">include/json_rpc/transports</text>
<text text-anchor="middle" x="492.28" y="-238" font-family="Helvetica,sans-Serif" font-size="10.00">/stdio_client_transport.hpp</text>
</a>
</g>
</g>
<!-- Node2 -->
<g id="Node000002" class="node">
<title>Node2</title>
<g id="a_Node000002"><a xlink:title=" ">
<polygon fill="#e0e0e0" stroke="#999999" points="252.28,-189.5 192.28,-189.5 192.28,-170.5 252.28,-170.5 252.28,-189.5"/>
<text text-anchor="middle" x="222.28" y="-177.5" font-family="Helvetica,sans-Serif" font-size="10.00">iostream</text>
</a>
</g>
</g>
<!-- Node1&#45;&gt;Node2 -->
<g id="edge1_Node000001_Node000002" class="edge">
<title>Node1&#45;&gt;Node2</title>
<g id="a_edge1_Node000001_Node000002"><a xlink:title=" ">
<path fill="none" stroke="#63b8ff" d="M418.06,-231.51C372.46,-222.59 313.05,-209.83 261.28,-195 258.86,-194.31 256.37,-193.54 253.88,-192.74"/>
<polygon fill="#63b8ff" stroke="#63b8ff" points="254.98,-189.42 244.39,-189.51 252.73,-196.04 254.98,-189.42"/>
</a>
</g>
</g>
<!-- Node3 -->
<g id="Node000003" class="node">
<title>Node3</title>
<g id="a_Node000003"><a xlink:href="client__transport_8hpp.html" target="_top" xlink:title=" ">
<polygon fill="white" stroke="#666666" points="589.78,-195 478.78,-195 478.78,-165 589.78,-165 589.78,-195"/>
<text text-anchor="start" x="486.78" y="-183" font-family="Helvetica,sans-Serif" font-size="10.00">json_rpc/core/client</text>
<text text-anchor="middle" x="534.28" y="-172" font-family="Helvetica,sans-Serif" font-size="10.00">_transport.hpp</text>
</a>
</g>
</g>
<!-- Node1&#45;&gt;Node3 -->
<g id="edge2_Node000001_Node000003" class="edge">
<title>Node1&#45;&gt;Node3</title>
<g id="a_edge2_Node000001_Node000003"><a xlink:title=" ">
<path fill="none" stroke="#63b8ff" d="M501.6,-230.8C506.82,-222.84 513.45,-212.74 519.37,-203.71"/>
<polygon fill="#63b8ff" stroke="#63b8ff" points="522.42,-205.44 524.98,-195.16 516.57,-201.6 522.42,-205.44"/>
</a>
</g>
</g>
<!-- Node4 -->
<g id="Node000004" class="node">
<title>Node4</title>
<g id="a_Node000004"><a xlink:href="types_8hpp.html" target="_top" xlink:title=" ">
<polygon fill="white" stroke="#666666" points="487.28,-74 355.28,-74 355.28,-55 487.28,-55 487.28,-74"/>
<text text-anchor="middle" x="421.28" y="-62" font-family="Helvetica,sans-Serif" font-size="10.00">json_rpc/core/types.hpp</text>
</a>
</g>
</g>
<!-- Node1&#45;&gt;Node4 -->
<g id="edge24_Node000001_Node000004" class="edge">
<title>Node1&#45;&gt;Node4</title>
<g id="a_edge24_Node000001_Node000004"><a xlink:title=" ">
<path fill="none" stroke="#63b8ff" d="M540.54,-230.92C560.54,-223.06 582.66,-211.46 598.28,-195 625.56,-166.25 650.14,-140.87 625.28,-110 609.18,-90.02 548.51,-78.53 497.48,-72.25"/>
<polygon fill="#63b8ff" stroke="#63b8ff" points="497.76,-68.76 487.42,-71.06 496.94,-75.71 497.76,-68.76"/>
</a>
</g>
</g>
<!-- Node9 -->
<g id="Node000009" class="node">
<title>Node9</title>
<g id="a_Node000009"><a xlink:href="dispatcher_8hpp.html" target="_top" xlink:title=" ">
<polygon fill="white" stroke="#666666" points="425.78,-189.5 270.78,-189.5 270.78,-170.5 425.78,-170.5 425.78,-189.5"/>
<text text-anchor="middle" x="348.28" y="-177.5" font-family="Helvetica,sans-Serif" font-size="10.00">json_rpc/core/dispatcher.hpp</text>
</a>
</g>
</g>
<!-- Node1&#45;&gt;Node9 -->
<g id="edge8_Node000001_Node000009" class="edge">
<title>Node1&#45;&gt;Node9</title>
<g id="a_edge8_Node000001_Node000009"><a xlink:title=" ">
<path fill="none" stroke="#63b8ff" d="M460.68,-230.95C435.65,-219.83 400.98,-204.42 376.79,-193.67"/>
<polygon fill="#63b8ff" stroke="#63b8ff" points="378,-190.38 367.44,-189.52 375.16,-196.78 378,-190.38"/>
</a>
</g>
</g>
<!-- Node3&#45;&gt;Node4 -->
<g id="edge3_Node000003_Node000004" class="edge">
<title>Node3&#45;&gt;Node4</title>
<g id="a_edge3_Node000003_Node000004"><a xlink:title=" ">
<path fill="none" stroke="#63b8ff" d="M568.15,-164.98C594.86,-151.88 625.05,-131.23 608.28,-110 594.29,-92.29 542.87,-80.87 497.49,-74.04"/>
<polygon fill="#63b8ff" stroke="#63b8ff" points="497.71,-70.53 487.31,-72.57 496.71,-77.46 497.71,-70.53"/>
</a>
</g>
</g>
<!-- Node5 -->
<g id="Node000005" class="node">
<title>Node5</title>
<g id="a_Node000005"><a xlink:title=" ">
<polygon fill="#e0e0e0" stroke="#999999" points="559.78,-19 494.78,-19 494.78,0 559.78,0 559.78,-19"/>
<text text-anchor="middle" x="527.28" y="-7" font-family="Helvetica,sans-Serif" font-size="10.00">functional</text>
</a>
</g>
</g>
<!-- Node4&#45;&gt;Node5 -->
<g id="edge4_Node000004_Node000005" class="edge">
<title>Node4&#45;&gt;Node5</title>
<g id="a_edge4_Node000004_Node000005"><a xlink:title=" ">
<path fill="none" stroke="#63b8ff" d="M438.31,-54.98C455.21,-46.54 481.34,-33.47 500.92,-23.68"/>
<polygon fill="#63b8ff" stroke="#63b8ff" points="502.56,-26.77 509.94,-19.17 499.43,-20.51 502.56,-26.77"/>
</a>
</g>
</g>
<!-- Node6 -->
<g id="Node000006" class="node">
<title>Node6</title>
<g id="a_Node000006"><a xlink:title=" ">
<polygon fill="#e0e0e0" stroke="#999999" points="230.28,-19 174.28,-19 174.28,0 230.28,0 230.28,-19"/>
<text text-anchor="middle" x="202.28" y="-7" font-family="Helvetica,sans-Serif" font-size="10.00">optional</text>
</a>
</g>
</g>
<!-- Node4&#45;&gt;Node6 -->
<g id="edge5_Node000004_Node000006" class="edge">
<title>Node4&#45;&gt;Node6</title>
<g id="a_edge5_Node000004_Node000006"><a xlink:title=" ">
<path fill="none" stroke="#63b8ff" d="M386.09,-54.98C346.19,-45.33 281.35,-29.64 240.31,-19.7"/>
<polygon fill="#63b8ff" stroke="#63b8ff" points="240.96,-16.26 230.42,-17.31 239.31,-23.06 240.96,-16.26"/>
</a>
</g>
</g>
<!-- Node7 -->
<g id="Node000007" class="node">
<title>Node7</title>
<g id="a_Node000007"><a xlink:title=" ">
<polygon fill="#e0e0e0" stroke="#999999" points="347.78,-19 296.78,-19 296.78,0 347.78,0 347.78,-19"/>
<text text-anchor="middle" x="322.28" y="-7" font-family="Helvetica,sans-Serif" font-size="10.00">variant</text>
</a>
</g>
</g>
<!-- Node4&#45;&gt;Node7 -->
<g id="edge6_Node000004_Node000007" class="edge">
<title>Node4&#45;&gt;Node7</title>
<g id="a_edge6_Node000004_Node000007"><a xlink:title=" ">
<path fill="none" stroke="#63b8ff" d="M405.37,-54.98C389.73,-46.61 365.62,-33.7 347.39,-23.95"/>
<polygon fill="#63b8ff" stroke="#63b8ff" points="348.94,-20.8 338.47,-19.17 345.64,-26.98 348.94,-20.8"/>
</a>
</g>
</g>
<!-- Node8 -->
<g id="Node000008" class="node">
<title>Node8</title>
<g id="a_Node000008"><a xlink:title=" ">
<polygon fill="#e0e0e0" stroke="#999999" points="476.28,-19 366.28,-19 366.28,0 476.28,0 476.28,-19"/>
<text text-anchor="middle" x="421.28" y="-7" font-family="Helvetica,sans-Serif" font-size="10.00">nlohmann/json.hpp</text>
</a>
</g>
</g>
<!-- Node4&#45;&gt;Node8 -->
<g id="edge7_Node000004_Node000008" class="edge">
<title>Node4&#45;&gt;Node8</title>
<g id="a_edge7_Node000004_Node000008"><a xlink:title=" ">
<path fill="none" stroke="#63b8ff" d="M421.28,-54.75C421.28,-47.8 421.28,-37.85 421.28,-29.13"/>
<polygon fill="#63b8ff" stroke="#63b8ff" points="424.78,-29.09 421.28,-19.09 417.78,-29.09 424.78,-29.09"/>
</a>
</g>
</g>
<!-- Node9&#45;&gt;Node4 -->
<g id="edge22_Node000009_Node000004" class="edge">
<title>Node9&#45;&gt;Node4</title>
<g id="a_edge22_Node000009_Node000004"><a xlink:title=" ">
<path fill="none" stroke="#63b8ff" d="M409.16,-170.47C477.03,-160.34 578.83,-143.05 590.28,-129 620.31,-92.13 555.38,-76.66 497.51,-70.17"/>
<polygon fill="#63b8ff" stroke="#63b8ff" points="497.86,-66.69 487.55,-69.13 497.13,-73.65 497.86,-66.69"/>
</a>
</g>
</g>
<!-- Node9&#45;&gt;Node6 -->
<g id="edge9_Node000009_Node000006" class="edge">
<title>Node9&#45;&gt;Node6</title>
<g id="a_edge9_Node000009_Node000006"><a xlink:title=" ">
<path fill="none" stroke="#63b8ff" d="M295.85,-170.47C284.45,-168.64 272.46,-166.74 261.28,-165 207.99,-156.72 59.33,-167.22 21.28,-129 -2.06,-105.56 -7.26,-80.93 13.28,-55 31.69,-31.75 114.1,-19.43 163.82,-14.01"/>
<polygon fill="#63b8ff" stroke="#63b8ff" points="164.32,-17.48 173.9,-12.95 163.59,-10.51 164.32,-17.48"/>
</a>
</g>
</g>
<!-- Node10 -->
<g id="Node000010" class="node">
<title>Node10</title>
<g id="a_Node000010"><a xlink:title=" ">
<polygon fill="#e0e0e0" stroke="#999999" points="237.28,-74 193.28,-74 193.28,-55 237.28,-55 237.28,-74"/>
<text text-anchor="middle" x="215.28" y="-62" font-family="Helvetica,sans-Serif" font-size="10.00">string</text>
</a>
</g>
</g>
<!-- Node9&#45;&gt;Node10 -->
<g id="edge10_Node000009_Node000010" class="edge">
<title>Node9&#45;&gt;Node10</title>
<g id="a_edge10_Node000009_Node000010"><a xlink:title=" ">
<path fill="none" stroke="#63b8ff" d="M308.08,-170.46C283.57,-163.28 253.39,-150.61 234.28,-129 223.44,-116.74 218.78,-98.51 216.78,-84.73"/>
<polygon fill="#63b8ff" stroke="#63b8ff" points="220.22,-83.98 215.65,-74.42 213.26,-84.74 220.22,-83.98"/>
</a>
</g>
</g>
<!-- Node11 -->
<g id="Node000011" class="node">
<title>Node11</title>
<g id="a_Node000011"><a xlink:title=" ">
<polygon fill="#e0e0e0" stroke="#999999" points="115.78,-74 22.78,-74 22.78,-55 115.78,-55 115.78,-74"/>
<text text-anchor="middle" x="69.28" y="-62" font-family="Helvetica,sans-Serif" font-size="10.00">unordered_map</text>
</a>
</g>
</g>
<!-- Node9&#45;&gt;Node11 -->
<g id="edge11_Node000009_Node000011" class="edge">
<title>Node9&#45;&gt;Node11</title>
<g id="a_edge11_Node000009_Node000011"><a xlink:title=" ">
<path fill="none" stroke="#63b8ff" d="M295.38,-170.44C284.12,-168.63 272.31,-166.74 261.28,-165 209.75,-156.86 63.22,-168.62 29.28,-129 16.21,-113.75 33.38,-93.84 49.11,-80.42"/>
<polygon fill="#63b8ff" stroke="#63b8ff" points="51.44,-83.04 57.04,-74.05 47.05,-77.58 51.44,-83.04"/>
</a>
</g>
</g>
<!-- Node12 -->
<g id="Node000012" class="node">
<title>Node12</title>
<g id="a_Node000012"><a xlink:title=" ">
<polygon fill="#e0e0e0" stroke="#999999" points="450.78,-129 403.78,-129 403.78,-110 450.78,-110 450.78,-129"/>
<text text-anchor="middle" x="427.28" y="-117" font-family="Helvetica,sans-Serif" font-size="10.00">vector</text>
</a>
</g>
</g>
<!-- Node9&#45;&gt;Node12 -->
<g id="edge12_Node000009_Node000012" class="edge">
<title>Node9&#45;&gt;Node12</title>
<g id="a_edge12_Node000009_Node000012"><a xlink:title=" ">
<path fill="none" stroke="#63b8ff" d="M359.94,-170.37C372.42,-161.12 392.46,-146.28 407.44,-135.19"/>
<polygon fill="#63b8ff" stroke="#63b8ff" points="409.62,-137.93 415.57,-129.17 405.45,-132.31 409.62,-137.93"/>
</a>
</g>
</g>
<!-- Node13 -->
<g id="Node000013" class="node">
<title>Node13</title>
<g id="a_Node000013"><a xlink:href="request_8hpp.html" target="_top" xlink:title=" ">
<polygon fill="white" stroke="#666666" points="385.28,-129 243.28,-129 243.28,-110 385.28,-110 385.28,-129"/>
<text text-anchor="middle" x="314.28" y="-117" font-family="Helvetica,sans-Serif" font-size="10.00">json_rpc/core/request.hpp</text>
</a>
</g>
</g>
<!-- Node9&#45;&gt;Node13 -->
<g id="edge13_Node000009_Node000013" class="edge">
<title>Node9&#45;&gt;Node13</title>
<g id="a_edge13_Node000009_Node000013"><a xlink:title=" ">
<path fill="none" stroke="#63b8ff" d="M343.26,-170.37C338.34,-161.9 330.69,-148.74 324.49,-138.07"/>
<polygon fill="#63b8ff" stroke="#63b8ff" points="327.37,-136.05 319.32,-129.17 321.31,-139.57 327.37,-136.05"/>
</a>
</g>
</g>
<!-- Node14 -->
<g id="Node000014" class="node">
<title>Node14</title>
<g id="a_Node000014"><a xlink:href="response_8hpp.html" target="_top" xlink:title=" ">
<polygon fill="white" stroke="#666666" points="187.78,-129 38.78,-129 38.78,-110 187.78,-110 187.78,-129"/>
<text text-anchor="middle" x="113.28" y="-117" font-family="Helvetica,sans-Serif" font-size="10.00">json_rpc/core/response.hpp</text>
</a>
</g>
</g>
<!-- Node9&#45;&gt;Node14 -->
<g id="edge17_Node000009_Node000014" class="edge">
<title>Node9&#45;&gt;Node14</title>
<g id="a_edge17_Node000009_Node000014"><a xlink:title=" ">
<path fill="none" stroke="#63b8ff" d="M314.11,-170.49C272.69,-160.18 202.8,-142.78 157.36,-131.47"/>
<polygon fill="#63b8ff" stroke="#63b8ff" points="158.04,-128.04 147.49,-129.02 156.35,-134.83 158.04,-128.04"/>
</a>
</g>
</g>
<!-- Node15 -->
<g id="Node000015" class="node">
<title>Node15</title>
<g id="a_Node000015"><a xlink:title=" ">
<polygon fill="#e0e0e0" stroke="#999999" points="581.78,-129 468.78,-129 468.78,-110 581.78,-110 581.78,-129"/>
<text text-anchor="middle" x="525.28" y="-117" font-family="Helvetica,sans-Serif" font-size="10.00">BS_thread_pool.hpp</text>
</a>
</g>
</g>
<!-- Node9&#45;&gt;Node15 -->
<g id="edge23_Node000009_Node000015" class="edge">
<title>Node9&#45;&gt;Node15</title>
<g id="a_edge23_Node000009_Node000015"><a xlink:title=" ">
<path fill="none" stroke="#63b8ff" d="M374.02,-170.49C404.56,-160.4 455.65,-143.51 489.9,-132.19"/>
<polygon fill="#63b8ff" stroke="#63b8ff" points="491.11,-135.48 499.51,-129.02 488.92,-128.83 491.11,-135.48"/>
</a>
</g>
</g>
<!-- Node13&#45;&gt;Node4 -->
<g id="edge16_Node000013_Node000004" class="edge">
<title>Node13&#45;&gt;Node4</title>
<g id="a_edge16_Node000013_Node000004"><a xlink:title=" ">
<path fill="none" stroke="#63b8ff" d="M331.47,-109.98C348.53,-101.54 374.91,-88.47 394.67,-78.68"/>
<polygon fill="#63b8ff" stroke="#63b8ff" points="396.37,-81.75 403.77,-74.17 393.26,-75.47 396.37,-81.75"/>
</a>
</g>
</g>
<!-- Node13&#45;&gt;Node6 -->
<g id="edge14_Node000013_Node000006" class="edge">
<title>Node13&#45;&gt;Node6</title>
<g id="a_edge14_Node000013_Node000006"><a xlink:title=" ">
<path fill="none" stroke="#63b8ff" d="M305.11,-109.66C286.15,-91.38 242.39,-49.18 218.52,-26.17"/>
<polygon fill="#63b8ff" stroke="#63b8ff" points="220.89,-23.58 211.26,-19.16 216.03,-28.62 220.89,-23.58"/>
</a>
</g>
</g>
<!-- Node13&#45;&gt;Node10 -->
<g id="edge15_Node000013_Node000010" class="edge">
<title>Node13&#45;&gt;Node10</title>
<g id="a_edge15_Node000013_Node000010"><a xlink:title=" ">
<path fill="none" stroke="#63b8ff" d="M298.37,-109.98C282.73,-101.61 258.62,-88.7 240.39,-78.95"/>
<polygon fill="#63b8ff" stroke="#63b8ff" points="241.94,-75.8 231.47,-74.17 238.64,-81.98 241.94,-75.8"/>
</a>
</g>
</g>
<!-- Node14&#45;&gt;Node4 -->
<g id="edge21_Node000014_Node000004" class="edge">
<title>Node14&#45;&gt;Node4</title>
<g id="a_edge21_Node000014_Node000004"><a xlink:title=" ">
<path fill="none" stroke="#63b8ff" d="M162.76,-109.98C216.9,-100.67 303.68,-85.74 361.56,-75.78"/>
<polygon fill="#63b8ff" stroke="#63b8ff" points="362.4,-79.18 371.66,-74.04 361.21,-72.28 362.4,-79.18"/>
</a>
</g>
</g>
<!-- Node14&#45;&gt;Node6 -->
<g id="edge18_Node000014_Node000006" class="edge">
<title>Node14&#45;&gt;Node6</title>
<g id="a_edge18_Node000014_Node000006"><a xlink:title=" ">
<path fill="none" stroke="#63b8ff" d="M120.56,-109.66C135.43,-91.61 169.5,-50.28 188.62,-27.08"/>
<polygon fill="#63b8ff" stroke="#63b8ff" points="191.48,-29.1 195.14,-19.16 186.08,-24.65 191.48,-29.1"/>
</a>
</g>
</g>
<!-- Node14&#45;&gt;Node10 -->
<g id="edge19_Node000014_Node000010" class="edge">
<title>Node14&#45;&gt;Node10</title>
<g id="a_edge19_Node000014_Node000010"><a xlink:title=" ">
<path fill="none" stroke="#63b8ff" d="M129.67,-109.98C145.85,-101.57 170.85,-88.59 189.66,-78.81"/>
<polygon fill="#63b8ff" stroke="#63b8ff" points="191.33,-81.89 198.59,-74.17 188.1,-75.68 191.33,-81.89"/>
</a>
</g>
</g>
<!-- Node14&#45;&gt;Node11 -->
<g id="edge20_Node000014_Node000011" class="edge">
<title>Node14&#45;&gt;Node11</title>
<g id="a_edge20_Node000014_Node000011"><a xlink:title=" ">
<path fill="none" stroke="#63b8ff" d="M106.01,-109.75C99.73,-102.18 90.49,-91.05 82.85,-81.84"/>
<polygon fill="#63b8ff" stroke="#63b8ff" points="85.49,-79.55 76.41,-74.09 80.1,-84.02 85.49,-79.55"/>
</a>
</g>
</g>
</g>
</svg>
