<?xml version="1.0" encoding="UTF-8" standalone="no"?>
<!DOCTYPE svg PUBLIC "-//W3C//DTD SVG 1.1//EN"
 "http://www.w3.org/Graphics/SVG/1.1/DTD/svg11.dtd">
<!-- Generated by graphviz version 2.43.0 (0)
 -->
<!-- Title: src/transports/stdio_server_transport.cpp Pages: 1 -->
<svg width="929pt" height="390pt"
 viewBox="0.00 0.00 929.03 390.00" xmlns="http://www.w3.org/2000/svg" xmlns:xlink="http://www.w3.org/1999/xlink">
<g id="graph0" class="graph" transform="scale(1 1) rotate(0) translate(4 386)">
<title>src/transports/stdio_server_transport.cpp</title>
<!-- Node1 -->
<g id="Node000001" class="node">
<title>Node1</title>
<g id="a_Node000001"><a xlink:title=" ">
<polygon fill="#999999" stroke="#666666" points="282,-382 160,-382 160,-352 282,-352 282,-382"/>
<text text-anchor="start" x="168" y="-370" font-family="Helvetica,sans-Serif" font-size="10.00">src/transports/stdio</text>
<text text-anchor="middle" x="221" y="-359" font-family="Helvetica,sans-Serif" font-size="10.00">_server_transport.cpp</text>
</a>
</g>
</g>
<!-- Node2 -->
<g id="Node000002" class="node">
<title>Node2</title>
<g id="a_Node000002"><a xlink:href="stdio__server__transport_8hpp.html" target="_top" xlink:title=" ">
<polygon fill="white" stroke="#666666" points="227,-316 77,-316 77,-286 227,-286 227,-316"/>
<text text-anchor="start" x="85" y="-304" font-family="Helvetica,sans-Serif" font-size="10.00">jsonrpc/transports</text>
<text text-anchor="middle" x="152" y="-293" font-family="Helvetica,sans-Serif" font-size="10.00">/stdio_server_transport.hpp</text>
</a>
</g>
</g>
<!-- Node1&#45;&gt;Node2 -->
<g id="edge1_Node000001_Node000002" class="edge">
<title>Node1&#45;&gt;Node2</title>
<g id="a_edge1_Node000001_Node000002"><a xlink:title=" ">
<path fill="none" stroke="#63b8ff" d="M205.69,-351.8C196.57,-343.34 184.84,-332.46 174.67,-323.03"/>
<polygon fill="#63b8ff" stroke="#63b8ff" points="176.98,-320.4 167.27,-316.16 172.22,-325.53 176.98,-320.4"/>
</a>
</g>
</g>
<!-- Node19 -->
<g id="Node000019" class="node">
<title>Node19</title>
<g id="a_Node000019"><a xlink:title=" ">
<polygon fill="#e0e0e0" stroke="#999999" points="337.5,-310.5 244.5,-310.5 244.5,-291.5 337.5,-291.5 337.5,-310.5"/>
<text text-anchor="middle" x="291" y="-298.5" font-family="Helvetica,sans-Serif" font-size="10.00">spdlog/spdlog.h</text>
</a>
</g>
</g>
<!-- Node1&#45;&gt;Node19 -->
<g id="edge29_Node000001_Node000019" class="edge">
<title>Node1&#45;&gt;Node19</title>
<g id="a_edge29_Node000001_Node000019"><a xlink:title=" ">
<path fill="none" stroke="#63b8ff" d="M236.54,-351.8C247.56,-341.72 262.35,-328.19 273.74,-317.78"/>
<polygon fill="#63b8ff" stroke="#63b8ff" points="276.31,-320.18 281.33,-310.84 271.58,-315.01 276.31,-320.18"/>
</a>
</g>
</g>
<!-- Node3 -->
<g id="Node000003" class="node">
<title>Node3</title>
<g id="a_Node000003"><a xlink:title=" ">
<polygon fill="#e0e0e0" stroke="#999999" points="60,-244.5 0,-244.5 0,-225.5 60,-225.5 60,-244.5"/>
<text text-anchor="middle" x="30" y="-232.5" font-family="Helvetica,sans-Serif" font-size="10.00">iostream</text>
</a>
</g>
</g>
<!-- Node2&#45;&gt;Node3 -->
<g id="edge2_Node000002_Node000003" class="edge">
<title>Node2&#45;&gt;Node3</title>
<g id="a_edge2_Node000002_Node000003"><a xlink:title=" ">
<path fill="none" stroke="#63b8ff" d="M125.23,-285.95C104.4,-275.03 75.69,-259.97 55.26,-249.25"/>
<polygon fill="#63b8ff" stroke="#63b8ff" points="56.72,-246.06 46.24,-244.52 53.47,-252.26 56.72,-246.06"/>
</a>
</g>
</g>
<!-- Node4 -->
<g id="Node000004" class="node">
<title>Node4</title>
<g id="a_Node000004"><a xlink:href="dispatcher_8hpp.html" target="_top" xlink:title=" ">
<polygon fill="white" stroke="#666666" points="628,-184 478,-184 478,-165 628,-165 628,-184"/>
<text text-anchor="middle" x="553" y="-172" font-family="Helvetica,sans-Serif" font-size="10.00">jsonrpc/core/dispatcher.hpp</text>
</a>
</g>
</g>
<!-- Node2&#45;&gt;Node4 -->
<g id="edge3_Node000002_Node000004" class="edge">
<title>Node2&#45;&gt;Node4</title>
<g id="a_edge3_Node000002_Node000004"><a xlink:title=" ">
<path fill="none" stroke="#63b8ff" d="M197.22,-285.96C277.04,-261.18 441.44,-210.14 515.45,-187.16"/>
<polygon fill="#63b8ff" stroke="#63b8ff" points="516.76,-190.42 525.27,-184.11 514.68,-183.73 516.76,-190.42"/>
</a>
</g>
</g>
<!-- Node11 -->
<g id="Node000011" class="node">
<title>Node11</title>
<g id="a_Node000011"><a xlink:href="types_8hpp.html" target="_top" xlink:title=" ">
<polygon fill="white" stroke="#666666" points="570.5,-74 443.5,-74 443.5,-55 570.5,-55 570.5,-74"/>
<text text-anchor="middle" x="507" y="-62" font-family="Helvetica,sans-Serif" font-size="10.00">jsonrpc/core/types.hpp</text>
</a>
</g>
</g>
<!-- Node2&#45;&gt;Node11 -->
<g id="edge28_Node000002_Node000011" class="edge">
<title>Node2&#45;&gt;Node11</title>
<g id="a_edge28_Node000002_Node000011"><a xlink:title=" ">
<path fill="none" stroke="#63b8ff" d="M139.46,-285.73C118.11,-259.64 79.55,-203.38 107,-165 144.57,-112.47 327.99,-84.55 432.93,-72.65"/>
<polygon fill="#63b8ff" stroke="#63b8ff" points="433.59,-76.1 443.15,-71.52 432.82,-69.14 433.59,-76.1"/>
</a>
</g>
</g>
<!-- Node16 -->
<g id="Node000016" class="node">
<title>Node16</title>
<g id="a_Node000016"><a xlink:href="server__transport_8hpp.html" target="_top" xlink:title=" ">
<polygon fill="white" stroke="#666666" points="272,-250 162,-250 162,-220 272,-220 272,-250"/>
<text text-anchor="start" x="170" y="-238" font-family="Helvetica,sans-Serif" font-size="10.00">jsonrpc/core/server</text>
<text text-anchor="middle" x="217" y="-227" font-family="Helvetica,sans-Serif" font-size="10.00">_transport.hpp</text>
</a>
</g>
</g>
<!-- Node2&#45;&gt;Node16 -->
<g id="edge23_Node000002_Node000016" class="edge">
<title>Node2&#45;&gt;Node16</title>
<g id="a_edge23_Node000002_Node000016"><a xlink:title=" ">
<path fill="none" stroke="#63b8ff" d="M166.43,-285.8C174.93,-277.43 185.84,-266.68 195.36,-257.31"/>
<polygon fill="#63b8ff" stroke="#63b8ff" points="197.94,-259.67 202.61,-250.16 193.03,-254.69 197.94,-259.67"/>
</a>
</g>
</g>
<!-- Node5 -->
<g id="Node000005" class="node">
<title>Node5</title>
<g id="a_Node000005"><a xlink:title=" ">
<polygon fill="#e0e0e0" stroke="#999999" points="735,-19 679,-19 679,0 735,0 735,-19"/>
<text text-anchor="middle" x="707" y="-7" font-family="Helvetica,sans-Serif" font-size="10.00">optional</text>
</a>
</g>
</g>
<!-- Node4&#45;&gt;Node5 -->
<g id="edge4_Node000004_Node000005" class="edge">
<title>Node4&#45;&gt;Node5</title>
<g id="a_edge4_Node000004_Node000005"><a xlink:title=" ">
<path fill="none" stroke="#63b8ff" d="M628.33,-173.42C717.23,-171.71 857.82,-163.44 896,-129 920.8,-106.64 929.92,-81.03 909,-55 888.86,-29.94 798.07,-18.17 745.31,-13.35"/>
<polygon fill="#63b8ff" stroke="#63b8ff" points="745.57,-9.86 735.3,-12.48 744.96,-16.83 745.57,-9.86"/>
</a>
</g>
</g>
<!-- Node6 -->
<g id="Node000006" class="node">
<title>Node6</title>
<g id="a_Node000006"><a xlink:title=" ">
<polygon fill="#e0e0e0" stroke="#999999" points="721,-74 677,-74 677,-55 721,-55 721,-74"/>
<text text-anchor="middle" x="699" y="-62" font-family="Helvetica,sans-Serif" font-size="10.00">string</text>
</a>
</g>
</g>
<!-- Node4&#45;&gt;Node6 -->
<g id="edge5_Node000004_Node000006" class="edge">
<title>Node4&#45;&gt;Node6</title>
<g id="a_edge5_Node000004_Node000006"><a xlink:title=" ">
<path fill="none" stroke="#63b8ff" d="M611.52,-164.98C635.6,-158.71 662.01,-147.84 680,-129 691.54,-116.92 696.1,-98.11 697.89,-84.1"/>
<polygon fill="#63b8ff" stroke="#63b8ff" points="701.38,-84.39 698.81,-74.11 694.4,-83.75 701.38,-84.39"/>
</a>
</g>
</g>
<!-- Node7 -->
<g id="Node000007" class="node">
<title>Node7</title>
<g id="a_Node000007"><a xlink:title=" ">
<polygon fill="#e0e0e0" stroke="#999999" points="899.5,-74 806.5,-74 806.5,-55 899.5,-55 899.5,-74"/>
<text text-anchor="middle" x="853" y="-62" font-family="Helvetica,sans-Serif" font-size="10.00">unordered_map</text>
</a>
</g>
</g>
<!-- Node4&#45;&gt;Node7 -->
<g id="edge6_Node000004_Node000007" class="edge">
<title>Node4&#45;&gt;Node7</title>
<g id="a_edge6_Node000004_Node000007"><a xlink:title=" ">
<path fill="none" stroke="#63b8ff" d="M628.07,-174.23C714.28,-173.27 847.97,-165.68 880,-129 891.88,-115.4 880.41,-95.8 868.97,-81.98"/>
<polygon fill="#63b8ff" stroke="#63b8ff" points="871.33,-79.37 862.06,-74.23 866.1,-84.03 871.33,-79.37"/>
</a>
</g>
</g>
<!-- Node8 -->
<g id="Node000008" class="node">
<title>Node8</title>
<g id="a_Node000008"><a xlink:title=" ">
<polygon fill="#e0e0e0" stroke="#999999" points="345.5,-129 298.5,-129 298.5,-110 345.5,-110 345.5,-129"/>
<text text-anchor="middle" x="322" y="-117" font-family="Helvetica,sans-Serif" font-size="10.00">vector</text>
</a>
</g>
</g>
<!-- Node4&#45;&gt;Node8 -->
<g id="edge7_Node000004_Node000008" class="edge">
<title>Node4&#45;&gt;Node8</title>
<g id="a_edge7_Node000004_Node000008"><a xlink:title=" ">
<path fill="none" stroke="#63b8ff" d="M513.47,-164.99C475.48,-156.73 416.2,-143.63 355.52,-129.07"/>
<polygon fill="#63b8ff" stroke="#63b8ff" points="356.31,-125.66 345.77,-126.72 354.67,-132.46 356.31,-125.66"/>
</a>
</g>
</g>
<!-- Node9 -->
<g id="Node000009" class="node">
<title>Node9</title>
<g id="a_Node000009"><a xlink:title=" ">
<polygon fill="#e0e0e0" stroke="#999999" points="476.5,-129 363.5,-129 363.5,-110 476.5,-110 476.5,-129"/>
<text text-anchor="middle" x="420" y="-117" font-family="Helvetica,sans-Serif" font-size="10.00">BS_thread_pool.hpp</text>
</a>
</g>
</g>
<!-- Node4&#45;&gt;Node9 -->
<g id="edge8_Node000004_Node000009" class="edge">
<title>Node4&#45;&gt;Node9</title>
<g id="a_edge8_Node000004_Node000009"><a xlink:title=" ">
<path fill="none" stroke="#63b8ff" d="M531.63,-164.98C509.85,-156.3 475.84,-142.75 451.08,-132.88"/>
<polygon fill="#63b8ff" stroke="#63b8ff" points="452.34,-129.62 441.76,-129.17 449.75,-136.12 452.34,-129.62"/>
</a>
</g>
</g>
<!-- Node10 -->
<g id="Node000010" class="node">
<title>Node10</title>
<g id="a_Node000010"><a xlink:href="core_2request_8hpp.html" target="_top" xlink:title=" ">
<polygon fill="white" stroke="#666666" points="670.5,-129 533.5,-129 533.5,-110 670.5,-110 670.5,-129"/>
<text text-anchor="middle" x="602" y="-117" font-family="Helvetica,sans-Serif" font-size="10.00">jsonrpc/core/request.hpp</text>
</a>
</g>
</g>
<!-- Node4&#45;&gt;Node10 -->
<g id="edge9_Node000004_Node000010" class="edge">
<title>Node4&#45;&gt;Node10</title>
<g id="a_edge9_Node000004_Node000010"><a xlink:title=" ">
<path fill="none" stroke="#63b8ff" d="M561.09,-164.75C568.16,-157.11 578.59,-145.82 587.15,-136.56"/>
<polygon fill="#63b8ff" stroke="#63b8ff" points="589.84,-138.81 594.06,-129.09 584.7,-134.06 589.84,-138.81"/>
</a>
</g>
</g>
<!-- Node4&#45;&gt;Node11 -->
<g id="edge22_Node000004_Node000011" class="edge">
<title>Node4&#45;&gt;Node11</title>
<g id="a_edge22_Node000004_Node000011"><a xlink:title=" ">
<path fill="none" stroke="#63b8ff" d="M546.41,-164.72C540.16,-156.04 530.87,-142.17 525,-129 518.58,-114.59 513.86,-97.31 510.87,-84.42"/>
<polygon fill="#63b8ff" stroke="#63b8ff" points="514.23,-83.43 508.68,-74.4 507.4,-84.92 514.23,-83.43"/>
</a>
</g>
</g>
<!-- Node15 -->
<g id="Node000015" class="node">
<title>Node15</title>
<g id="a_Node000015"><a xlink:href="response_8hpp.html" target="_top" xlink:title=" ">
<polygon fill="white" stroke="#666666" points="871,-129 727,-129 727,-110 871,-110 871,-129"/>
<text text-anchor="middle" x="799" y="-117" font-family="Helvetica,sans-Serif" font-size="10.00">jsonrpc/core/response.hpp</text>
</a>
</g>
</g>
<!-- Node4&#45;&gt;Node15 -->
<g id="edge17_Node000004_Node000015" class="edge">
<title>Node4&#45;&gt;Node15</title>
<g id="a_edge17_Node000004_Node000015"><a xlink:title=" ">
<path fill="none" stroke="#63b8ff" d="M592.52,-164.98C635.17,-155.8 703.15,-141.15 749.36,-131.19"/>
<polygon fill="#63b8ff" stroke="#63b8ff" points="750.13,-134.61 759.17,-129.08 748.65,-127.77 750.13,-134.61"/>
</a>
</g>
</g>
<!-- Node10&#45;&gt;Node5 -->
<g id="edge10_Node000010_Node000005" class="edge">
<title>Node10&#45;&gt;Node5</title>
<g id="a_edge10_Node000010_Node000005"><a xlink:title=" ">
<path fill="none" stroke="#63b8ff" d="M610.59,-109.66C628.29,-91.46 669.04,-49.55 691.48,-26.47"/>
<polygon fill="#63b8ff" stroke="#63b8ff" points="694.12,-28.77 698.58,-19.16 689.1,-23.89 694.12,-28.77"/>
</a>
</g>
</g>
<!-- Node10&#45;&gt;Node6 -->
<g id="edge11_Node000010_Node000006" class="edge">
<title>Node10&#45;&gt;Node6</title>
<g id="a_edge11_Node000010_Node000006"><a xlink:title=" ">
<path fill="none" stroke="#63b8ff" d="M617.58,-109.98C632.77,-101.69 656.1,-88.94 673.9,-79.22"/>
<polygon fill="#63b8ff" stroke="#63b8ff" points="676.03,-82.04 683.13,-74.17 672.68,-75.89 676.03,-82.04"/>
</a>
</g>
</g>
<!-- Node10&#45;&gt;Node11 -->
<g id="edge12_Node000010_Node000011" class="edge">
<title>Node10&#45;&gt;Node11</title>
<g id="a_edge12_Node000010_Node000011"><a xlink:title=" ">
<path fill="none" stroke="#63b8ff" d="M586.74,-109.98C571.87,-101.69 549.02,-88.94 531.58,-79.22"/>
<polygon fill="#63b8ff" stroke="#63b8ff" points="532.98,-75.99 522.54,-74.17 529.57,-82.1 532.98,-75.99"/>
</a>
</g>
</g>
<!-- Node11&#45;&gt;Node5 -->
<g id="edge14_Node000011_Node000005" class="edge">
<title>Node11&#45;&gt;Node5</title>
<g id="a_edge14_Node000011_Node000005"><a xlink:title=" ">
<path fill="none" stroke="#63b8ff" d="M539.13,-54.98C574.46,-45.62 631.18,-30.59 668.77,-20.63"/>
<polygon fill="#63b8ff" stroke="#63b8ff" points="670.06,-23.91 678.83,-17.97 668.26,-17.14 670.06,-23.91"/>
</a>
</g>
</g>
<!-- Node12 -->
<g id="Node000012" class="node">
<title>Node12</title>
<g id="a_Node000012"><a xlink:title=" ">
<polygon fill="#e0e0e0" stroke="#999999" points="539.5,-19 474.5,-19 474.5,0 539.5,0 539.5,-19"/>
<text text-anchor="middle" x="507" y="-7" font-family="Helvetica,sans-Serif" font-size="10.00">functional</text>
</a>
</g>
</g>
<!-- Node11&#45;&gt;Node12 -->
<g id="edge13_Node000011_Node000012" class="edge">
<title>Node11&#45;&gt;Node12</title>
<g id="a_edge13_Node000011_Node000012"><a xlink:title=" ">
<path fill="none" stroke="#63b8ff" d="M507,-54.75C507,-47.8 507,-37.85 507,-29.13"/>
<polygon fill="#63b8ff" stroke="#63b8ff" points="510.5,-29.09 507,-19.09 503.5,-29.09 510.5,-29.09"/>
</a>
</g>
</g>
<!-- Node13 -->
<g id="Node000013" class="node">
<title>Node13</title>
<g id="a_Node000013"><a xlink:title=" ">
<polygon fill="#e0e0e0" stroke="#999999" points="608.5,-19 557.5,-19 557.5,0 608.5,0 608.5,-19"/>
<text text-anchor="middle" x="583" y="-7" font-family="Helvetica,sans-Serif" font-size="10.00">variant</text>
</a>
</g>
</g>
<!-- Node11&#45;&gt;Node13 -->
<g id="edge15_Node000011_Node000013" class="edge">
<title>Node11&#45;&gt;Node13</title>
<g id="a_edge15_Node000011_Node000013"><a xlink:title=" ">
<path fill="none" stroke="#63b8ff" d="M519.21,-54.98C530.78,-46.92 548.38,-34.65 562.16,-25.03"/>
<polygon fill="#63b8ff" stroke="#63b8ff" points="564.37,-27.76 570.57,-19.17 560.36,-22.02 564.37,-27.76"/>
</a>
</g>
</g>
<!-- Node14 -->
<g id="Node000014" class="node">
<title>Node14</title>
<g id="a_Node000014"><a xlink:title=" ">
<polygon fill="#e0e0e0" stroke="#999999" points="456,-19 346,-19 346,0 456,0 456,-19"/>
<text text-anchor="middle" x="401" y="-7" font-family="Helvetica,sans-Serif" font-size="10.00">nlohmann/json.hpp</text>
</a>
</g>
</g>
<!-- Node11&#45;&gt;Node14 -->
<g id="edge16_Node000011_Node000014" class="edge">
<title>Node11&#45;&gt;Node14</title>
<g id="a_edge16_Node000011_Node000014"><a xlink:title=" ">
<path fill="none" stroke="#63b8ff" d="M489.97,-54.98C473.07,-46.54 446.94,-33.47 427.36,-23.68"/>
<polygon fill="#63b8ff" stroke="#63b8ff" points="428.85,-20.51 418.34,-19.17 425.72,-26.77 428.85,-20.51"/>
</a>
</g>
</g>
<!-- Node15&#45;&gt;Node5 -->
<g id="edge18_Node000015_Node000005" class="edge">
<title>Node15&#45;&gt;Node5</title>
<g id="a_edge18_Node000015_Node000005"><a xlink:title=" ">
<path fill="none" stroke="#63b8ff" d="M791.47,-109.66C776.1,-91.61 740.88,-50.28 721.12,-27.08"/>
<polygon fill="#63b8ff" stroke="#63b8ff" points="723.52,-24.5 714.38,-19.16 718.2,-29.04 723.52,-24.5"/>
</a>
</g>
</g>
<!-- Node15&#45;&gt;Node6 -->
<g id="edge19_Node000015_Node000006" class="edge">
<title>Node15&#45;&gt;Node6</title>
<g id="a_edge19_Node000015_Node000006"><a xlink:title=" ">
<path fill="none" stroke="#63b8ff" d="M782.93,-109.98C767.14,-101.61 742.78,-88.7 724.37,-78.95"/>
<polygon fill="#63b8ff" stroke="#63b8ff" points="725.83,-75.76 715.36,-74.17 722.56,-81.95 725.83,-75.76"/>
</a>
</g>
</g>
<!-- Node15&#45;&gt;Node7 -->
<g id="edge20_Node000015_Node000007" class="edge">
<title>Node15&#45;&gt;Node7</title>
<g id="a_edge20_Node000015_Node000007"><a xlink:title=" ">
<path fill="none" stroke="#63b8ff" d="M807.92,-109.75C815.78,-102.03 827.43,-90.6 836.92,-81.28"/>
<polygon fill="#63b8ff" stroke="#63b8ff" points="839.56,-83.59 844.25,-74.09 834.66,-78.6 839.56,-83.59"/>
</a>
</g>
</g>
<!-- Node15&#45;&gt;Node11 -->
<g id="edge21_Node000015_Node000011" class="edge">
<title>Node15&#45;&gt;Node11</title>
<g id="a_edge21_Node000015_Node000011"><a xlink:title=" ">
<path fill="none" stroke="#63b8ff" d="M752.09,-109.98C700.94,-100.7 619.08,-85.84 564.2,-75.88"/>
<polygon fill="#63b8ff" stroke="#63b8ff" points="564.75,-72.42 554.28,-74.08 563.5,-79.31 564.75,-72.42"/>
</a>
</g>
</g>
<!-- Node16&#45;&gt;Node4 -->
<g id="edge26_Node000016_Node000004" class="edge">
<title>Node16&#45;&gt;Node4</title>
<g id="a_edge26_Node000016_Node000004"><a xlink:title=" ">
<path fill="none" stroke="#63b8ff" d="M272.11,-224.41C333.22,-213.77 431.41,-196.67 494.03,-185.77"/>
<polygon fill="#63b8ff" stroke="#63b8ff" points="494.9,-189.17 504.15,-184.01 493.7,-182.27 494.9,-189.17"/>
</a>
</g>
</g>
<!-- Node16&#45;&gt;Node11 -->
<g id="edge27_Node000016_Node000011" class="edge">
<title>Node16&#45;&gt;Node11</title>
<g id="a_edge27_Node000016_Node000011"><a xlink:title=" ">
<path fill="none" stroke="#63b8ff" d="M227.26,-219.84C234.24,-209.98 243.54,-196.42 251,-184 270.15,-152.13 260.27,-132.32 290,-110 312.39,-93.19 379.52,-81.1 433.25,-73.81"/>
<polygon fill="#63b8ff" stroke="#63b8ff" points="434,-77.24 443.45,-72.46 433.08,-70.3 434,-77.24"/>
</a>
</g>
</g>
<!-- Node17 -->
<g id="Node000017" class="node">
<title>Node17</title>
<g id="a_Node000017"><a xlink:title=" ">
<polygon fill="#e0e0e0" stroke="#999999" points="242,-184 192,-184 192,-165 242,-165 242,-184"/>
<text text-anchor="middle" x="217" y="-172" font-family="Helvetica,sans-Serif" font-size="10.00">atomic</text>
</a>
</g>
</g>
<!-- Node16&#45;&gt;Node17 -->
<g id="edge24_Node000016_Node000017" class="edge">
<title>Node16&#45;&gt;Node17</title>
<g id="a_edge24_Node000016_Node000017"><a xlink:title=" ">
<path fill="none" stroke="#63b8ff" d="M217,-219.84C217,-212.21 217,-202.7 217,-194.45"/>
<polygon fill="#63b8ff" stroke="#63b8ff" points="220.5,-194.27 217,-184.27 213.5,-194.27 220.5,-194.27"/>
</a>
</g>
</g>
<!-- Node18 -->
<g id="Node000018" class="node">
<title>Node18</title>
<g id="a_Node000018"><a xlink:title=" ">
<polygon fill="#e0e0e0" stroke="#999999" points="174,-184 116,-184 116,-165 174,-165 174,-184"/>
<text text-anchor="middle" x="145" y="-172" font-family="Helvetica,sans-Serif" font-size="10.00">memory</text>
</a>
</g>
</g>
<!-- Node16&#45;&gt;Node18 -->
<g id="edge25_Node000016_Node000018" class="edge">
<title>Node16&#45;&gt;Node18</title>
<g id="a_edge25_Node000016_Node000018"><a xlink:title=" ">
<path fill="none" stroke="#63b8ff" d="M199.57,-219.84C188.69,-211 174.7,-199.63 163.61,-190.62"/>
<polygon fill="#63b8ff" stroke="#63b8ff" points="165.76,-187.86 155.79,-184.27 161.34,-193.29 165.76,-187.86"/>
</a>
</g>
</g>
</g>
</svg>
