<?xml version="1.0" encoding="UTF-8" standalone="no"?>
<!DOCTYPE svg PUBLIC "-//W3C//DTD SVG 1.1//EN"
 "http://www.w3.org/Graphics/SVG/1.1/DTD/svg11.dtd">
<!-- Generated by graphviz version 2.43.0 (0)
 -->
<!-- Title: include/jsonrpc/transport/transport.hpp Pages: 1 -->
<svg width="831pt" height="236pt"
 viewBox="0.00 0.00 831.00 236.00" xmlns="http://www.w3.org/2000/svg" xmlns:xlink="http://www.w3.org/1999/xlink">
<g id="graph0" class="graph" transform="scale(1 1) rotate(0) translate(4 232)">
<title>include/jsonrpc/transport/transport.hpp</title>
<!-- Node1 -->
<g id="Node000001" class="node">
<title>Node1</title>
<g id="a_Node000001"><a xlink:title=" ">
<polygon fill="#999999" stroke="#666666" points="446,-228 309,-228 309,-198 446,-198 446,-228"/>
<text text-anchor="start" x="317" y="-216" font-family="Helvetica,sans-Serif" font-size="10.00">include/jsonrpc/transport</text>
<text text-anchor="middle" x="377.5" y="-205" font-family="Helvetica,sans-Serif" font-size="10.00">/transport.hpp</text>
</a>
</g>
</g>
<!-- Node2 -->
<g id="Node000002" class="node">
<title>Node2</title>
<g id="a_Node000002"><a xlink:href="client_8hpp.html" target="_top" xlink:title=" ">
<polygon fill="white" stroke="#666666" points="135.5,-162 15.5,-162 15.5,-132 135.5,-132 135.5,-162"/>
<text text-anchor="start" x="23.5" y="-150" font-family="Helvetica,sans-Serif" font-size="10.00">include/jsonrpc/client</text>
<text text-anchor="middle" x="75.5" y="-139" font-family="Helvetica,sans-Serif" font-size="10.00">/client.hpp</text>
</a>
</g>
</g>
<!-- Node1&#45;&gt;Node2 -->
<g id="edge1_Node000001_Node000002" class="edge">
<title>Node1&#45;&gt;Node2</title>
<g id="a_edge1_Node000001_Node000002"><a xlink:title=" ">
<path fill="none" stroke="#63b8ff" d="M301.18,-195.83C249.91,-184.96 183.27,-170.84 135.73,-160.76"/>
<polygon fill="#63b8ff" stroke="#63b8ff" points="300.72,-199.31 311.22,-197.95 302.17,-192.46 300.72,-199.31"/>
</a>
</g>
</g>
<!-- Node4 -->
<g id="Node000004" class="node">
<title>Node4</title>
<g id="a_Node000004"><a xlink:href="server_8hpp.html" target="_top" xlink:title=" ">
<polygon fill="white" stroke="#666666" points="293.5,-162 169.5,-162 169.5,-132 293.5,-132 293.5,-162"/>
<text text-anchor="start" x="177.5" y="-150" font-family="Helvetica,sans-Serif" font-size="10.00">include/jsonrpc/server</text>
<text text-anchor="middle" x="231.5" y="-139" font-family="Helvetica,sans-Serif" font-size="10.00">/server.hpp</text>
</a>
</g>
</g>
<!-- Node1&#45;&gt;Node4 -->
<g id="edge3_Node000001_Node000004" class="edge">
<title>Node1&#45;&gt;Node4</title>
<g id="a_edge3_Node000001_Node000004"><a xlink:title=" ">
<path fill="none" stroke="#63b8ff" d="M336.25,-193.92C313.18,-183.8 284.84,-171.38 263.47,-162.01"/>
<polygon fill="#63b8ff" stroke="#63b8ff" points="334.9,-197.15 345.46,-197.95 337.71,-190.73 334.9,-197.15"/>
</a>
</g>
</g>
<!-- Node6 -->
<g id="Node000006" class="node">
<title>Node6</title>
<g id="a_Node000006"><a xlink:href="framed__pipe__transport_8hpp.html" target="_top" xlink:title=" ">
<polygon fill="white" stroke="#666666" points="417.5,-96 265.5,-96 265.5,-66 417.5,-66 417.5,-96"/>
<text text-anchor="start" x="273.5" y="-84" font-family="Helvetica,sans-Serif" font-size="10.00">include/jsonrpc/transport</text>
<text text-anchor="middle" x="341.5" y="-73" font-family="Helvetica,sans-Serif" font-size="10.00">/framed_pipe_transport.hpp</text>
</a>
</g>
</g>
<!-- Node1&#45;&gt;Node6 -->
<g id="edge5_Node000001_Node000006" class="edge">
<title>Node1&#45;&gt;Node6</title>
<g id="a_edge5_Node000001_Node000006"><a xlink:title=" ">
<path fill="none" stroke="#63b8ff" d="M361.51,-189.29C356.49,-181.06 351.49,-171.45 348.5,-162 341.48,-139.8 340.64,-112.52 340.9,-96.24"/>
<polygon fill="#63b8ff" stroke="#63b8ff" points="358.71,-191.41 367.07,-197.92 364.59,-187.62 358.71,-191.41"/>
</a>
</g>
</g>
<!-- Node8 -->
<g id="Node000008" class="node">
<title>Node8</title>
<g id="a_Node000008"><a xlink:href="framed__stdio__transport_8hpp.html" target="_top" xlink:title=" ">
<polygon fill="white" stroke="#666666" points="668,-162 513,-162 513,-132 668,-132 668,-162"/>
<text text-anchor="start" x="521" y="-150" font-family="Helvetica,sans-Serif" font-size="10.00">include/jsonrpc/transport</text>
<text text-anchor="middle" x="590.5" y="-139" font-family="Helvetica,sans-Serif" font-size="10.00">/framed_stdio_transport.hpp</text>
</a>
</g>
</g>
<!-- Node1&#45;&gt;Node8 -->
<g id="edge7_Node000001_Node000008" class="edge">
<title>Node1&#45;&gt;Node8</title>
<g id="a_edge7_Node000001_Node000008"><a xlink:title=" ">
<path fill="none" stroke="#63b8ff" d="M434.11,-194.99C468.39,-184.69 511.57,-171.72 543.87,-162.01"/>
<polygon fill="#63b8ff" stroke="#63b8ff" points="432.81,-191.73 424.24,-197.95 434.83,-198.43 432.81,-191.73"/>
</a>
</g>
</g>
<!-- Node10 -->
<g id="Node000010" class="node">
<title>Node10</title>
<g id="a_Node000010"><a xlink:href="pipe__transport_8hpp.html" target="_top" xlink:title=" ">
<polygon fill="white" stroke="#666666" points="495,-162 358,-162 358,-132 495,-132 495,-162"/>
<text text-anchor="start" x="366" y="-150" font-family="Helvetica,sans-Serif" font-size="10.00">include/jsonrpc/transport</text>
<text text-anchor="middle" x="426.5" y="-139" font-family="Helvetica,sans-Serif" font-size="10.00">/pipe_transport.hpp</text>
</a>
</g>
</g>
<!-- Node1&#45;&gt;Node10 -->
<g id="edge9_Node000001_Node000010" class="edge">
<title>Node1&#45;&gt;Node10</title>
<g id="a_edge9_Node000001_Node000010"><a xlink:title=" ">
<path fill="none" stroke="#63b8ff" d="M394.49,-189.81C401.51,-180.64 409.44,-170.28 415.66,-162.16"/>
<polygon fill="#63b8ff" stroke="#63b8ff" points="391.67,-187.73 388.37,-197.8 397.23,-191.98 391.67,-187.73"/>
</a>
</g>
</g>
<!-- Node12 -->
<g id="Node000012" class="node">
<title>Node12</title>
<g id="a_Node000012"><a xlink:href="stdio__transport_8hpp.html" target="_top" xlink:title=" ">
<polygon fill="white" stroke="#666666" points="823,-162 686,-162 686,-132 823,-132 823,-162"/>
<text text-anchor="start" x="694" y="-150" font-family="Helvetica,sans-Serif" font-size="10.00">include/jsonrpc/transport</text>
<text text-anchor="middle" x="754.5" y="-139" font-family="Helvetica,sans-Serif" font-size="10.00">/stdio_transport.hpp</text>
</a>
</g>
</g>
<!-- Node1&#45;&gt;Node12 -->
<g id="edge12_Node000001_Node000012" class="edge">
<title>Node1&#45;&gt;Node12</title>
<g id="a_edge12_Node000001_Node000012"><a xlink:title=" ">
<path fill="none" stroke="#63b8ff" d="M455.93,-199.25C516.49,-189.33 602.36,-175.09 677.5,-162 680.18,-161.53 682.91,-161.05 685.66,-160.57"/>
<polygon fill="#63b8ff" stroke="#63b8ff" points="455.36,-195.8 446.06,-200.87 456.49,-202.71 455.36,-195.8"/>
</a>
</g>
</g>
<!-- Node3 -->
<g id="Node000003" class="node">
<title>Node3</title>
<g id="a_Node000003"><a xlink:href="client_8cpp.html" target="_top" xlink:title=" ">
<polygon fill="white" stroke="#666666" points="111,-90.5 0,-90.5 0,-71.5 111,-71.5 111,-90.5"/>
<text text-anchor="middle" x="55.5" y="-78.5" font-family="Helvetica,sans-Serif" font-size="10.00">src/client/client.cpp</text>
</a>
</g>
</g>
<!-- Node2&#45;&gt;Node3 -->
<g id="edge2_Node000002_Node000003" class="edge">
<title>Node2&#45;&gt;Node3</title>
<g id="a_edge2_Node000002_Node000003"><a xlink:title=" ">
<path fill="none" stroke="#63b8ff" d="M67.98,-121.94C64.58,-111.06 60.77,-98.86 58.26,-90.84"/>
<polygon fill="#63b8ff" stroke="#63b8ff" points="64.74,-123.3 71.06,-131.8 71.42,-121.21 64.74,-123.3"/>
</a>
</g>
</g>
<!-- Node5 -->
<g id="Node000005" class="node">
<title>Node5</title>
<g id="a_Node000005"><a xlink:href="server_8cpp.html" target="_top" xlink:title=" ">
<polygon fill="white" stroke="#666666" points="247.5,-90.5 129.5,-90.5 129.5,-71.5 247.5,-71.5 247.5,-90.5"/>
<text text-anchor="middle" x="188.5" y="-78.5" font-family="Helvetica,sans-Serif" font-size="10.00">src/server/server.cpp</text>
</a>
</g>
</g>
<!-- Node4&#45;&gt;Node5 -->
<g id="edge4_Node000004_Node000005" class="edge">
<title>Node4&#45;&gt;Node5</title>
<g id="a_edge4_Node000004_Node000005"><a xlink:title=" ">
<path fill="none" stroke="#63b8ff" d="M216.23,-123.28C208.7,-112.07 200.05,-99.19 194.44,-90.84"/>
<polygon fill="#63b8ff" stroke="#63b8ff" points="213.47,-125.45 221.96,-131.8 219.29,-121.54 213.47,-125.45"/>
</a>
</g>
</g>
<!-- Node7 -->
<g id="Node000007" class="node">
<title>Node7</title>
<g id="a_Node000007"><a xlink:href="framed__pipe__transport_8cpp.html" target="_top" xlink:title=" ">
<polygon fill="white" stroke="#666666" points="399.5,-30 283.5,-30 283.5,0 399.5,0 399.5,-30"/>
<text text-anchor="start" x="291.5" y="-18" font-family="Helvetica,sans-Serif" font-size="10.00">src/transport/framed</text>
<text text-anchor="middle" x="341.5" y="-7" font-family="Helvetica,sans-Serif" font-size="10.00">_pipe_transport.cpp</text>
</a>
</g>
</g>
<!-- Node6&#45;&gt;Node7 -->
<g id="edge6_Node000006_Node000007" class="edge">
<title>Node6&#45;&gt;Node7</title>
<g id="a_edge6_Node000006_Node000007"><a xlink:title=" ">
<path fill="none" stroke="#63b8ff" d="M341.5,-55.54C341.5,-46.96 341.5,-37.61 341.5,-30.16"/>
<polygon fill="#63b8ff" stroke="#63b8ff" points="338,-55.8 341.5,-65.8 345,-55.8 338,-55.8"/>
</a>
</g>
</g>
<!-- Node9 -->
<g id="Node000009" class="node">
<title>Node9</title>
<g id="a_Node000009"><a xlink:href="framed__stdio__transport_8cpp.html" target="_top" xlink:title=" ">
<polygon fill="white" stroke="#666666" points="671.5,-96 555.5,-96 555.5,-66 671.5,-66 671.5,-96"/>
<text text-anchor="start" x="563.5" y="-84" font-family="Helvetica,sans-Serif" font-size="10.00">src/transport/framed</text>
<text text-anchor="middle" x="613.5" y="-73" font-family="Helvetica,sans-Serif" font-size="10.00">_stdio_transport.cpp</text>
</a>
</g>
</g>
<!-- Node8&#45;&gt;Node9 -->
<g id="edge8_Node000008_Node000009" class="edge">
<title>Node8&#45;&gt;Node9</title>
<g id="a_edge8_Node000008_Node000009"><a xlink:title=" ">
<path fill="none" stroke="#63b8ff" d="M599.09,-122.11C602.22,-113.38 605.67,-103.78 608.41,-96.16"/>
<polygon fill="#63b8ff" stroke="#63b8ff" points="595.69,-121.2 595.6,-131.8 602.28,-123.57 595.69,-121.2"/>
</a>
</g>
</g>
<!-- Node10&#45;&gt;Node6 -->
<g id="edge10_Node000010_Node000006" class="edge">
<title>Node10&#45;&gt;Node6</title>
<g id="a_edge10_Node000010_Node000006"><a xlink:title=" ">
<path fill="none" stroke="#63b8ff" d="M399.61,-125.75C386.83,-116.13 371.86,-104.86 360.31,-96.16"/>
<polygon fill="#63b8ff" stroke="#63b8ff" points="397.54,-128.58 407.64,-131.8 401.75,-122.99 397.54,-128.58"/>
</a>
</g>
</g>
<!-- Node11 -->
<g id="Node000011" class="node">
<title>Node11</title>
<g id="a_Node000011"><a xlink:href="pipe__transport_8cpp.html" target="_top" xlink:title=" ">
<polygon fill="white" stroke="#666666" points="537.5,-96 435.5,-96 435.5,-66 537.5,-66 537.5,-96"/>
<text text-anchor="start" x="443.5" y="-84" font-family="Helvetica,sans-Serif" font-size="10.00">src/transport/pipe</text>
<text text-anchor="middle" x="486.5" y="-73" font-family="Helvetica,sans-Serif" font-size="10.00">_transport.cpp</text>
</a>
</g>
</g>
<!-- Node10&#45;&gt;Node11 -->
<g id="edge11_Node000010_Node000011" class="edge">
<title>Node10&#45;&gt;Node11</title>
<g id="a_edge11_Node000010_Node000011"><a xlink:title=" ">
<path fill="none" stroke="#63b8ff" d="M446.78,-124.37C455.51,-115.06 465.46,-104.44 473.22,-96.16"/>
<polygon fill="#63b8ff" stroke="#63b8ff" points="444.1,-122.11 439.82,-131.8 449.21,-126.89 444.1,-122.11"/>
</a>
</g>
</g>
<!-- Node13 -->
<g id="Node000013" class="node">
<title>Node13</title>
<g id="a_Node000013"><a xlink:href="stdio__transport_8cpp.html" target="_top" xlink:title=" ">
<polygon fill="white" stroke="#666666" points="807,-96 702,-96 702,-66 807,-66 807,-96"/>
<text text-anchor="start" x="710" y="-84" font-family="Helvetica,sans-Serif" font-size="10.00">src/transport/stdio</text>
<text text-anchor="middle" x="754.5" y="-73" font-family="Helvetica,sans-Serif" font-size="10.00">_transport.cpp</text>
</a>
</g>
</g>
<!-- Node12&#45;&gt;Node13 -->
<g id="edge13_Node000012_Node000013" class="edge">
<title>Node12&#45;&gt;Node13</title>
<g id="a_edge13_Node000012_Node000013"><a xlink:title=" ">
<path fill="none" stroke="#63b8ff" d="M754.5,-121.54C754.5,-112.96 754.5,-103.61 754.5,-96.16"/>
<polygon fill="#63b8ff" stroke="#63b8ff" points="751,-121.8 754.5,-131.8 758,-121.8 751,-121.8"/>
</a>
</g>
</g>
</g>
</svg>
