<?xml version="1.0" encoding="UTF-8" standalone="no"?>
<!DOCTYPE svg PUBLIC "-//W3C//DTD SVG 1.1//EN"
 "http://www.w3.org/Graphics/SVG/1.1/DTD/svg11.dtd">
<!-- Generated by graphviz version 2.43.0 (0)
 -->
<!-- Title: include/jsonrpc/transport/transport.hpp Pages: 1 -->
<svg width="1122pt" height="236pt"
 viewBox="0.00 0.00 1121.50 236.00" xmlns="http://www.w3.org/2000/svg" xmlns:xlink="http://www.w3.org/1999/xlink">
<g id="graph0" class="graph" transform="scale(1 1) rotate(0) translate(4 232)">
<title>include/jsonrpc/transport/transport.hpp</title>
<!-- Node1 -->
<g id="Node000001" class="node">
<title>Node1</title>
<g id="a_Node000001"><a xlink:title=" ">
<polygon fill="#999999" stroke="#666666" points="508.5,-228 371.5,-228 371.5,-198 508.5,-198 508.5,-228"/>
<text text-anchor="start" x="379.5" y="-216" font-family="Helvetica,sans-Serif" font-size="10.00">include/jsonrpc/transport</text>
<text text-anchor="middle" x="440" y="-205" font-family="Helvetica,sans-Serif" font-size="10.00">/transport.hpp</text>
</a>
</g>
</g>
<!-- Node2 -->
<g id="Node000002" class="node">
<title>Node2</title>
<g id="a_Node000002"><a xlink:href="client_8hpp.html" target="_top" xlink:title=" ">
<polygon fill="white" stroke="#666666" points="120,-162 0,-162 0,-132 120,-132 120,-162"/>
<text text-anchor="start" x="8" y="-150" font-family="Helvetica,sans-Serif" font-size="10.00">include/jsonrpc/client</text>
<text text-anchor="middle" x="60" y="-139" font-family="Helvetica,sans-Serif" font-size="10.00">/client.hpp</text>
</a>
</g>
</g>
<!-- Node1&#45;&gt;Node2 -->
<g id="edge1_Node000001_Node000002" class="edge">
<title>Node1&#45;&gt;Node2</title>
<g id="a_edge1_Node000001_Node000002"><a xlink:title=" ">
<path fill="none" stroke="#63b8ff" d="M361.05,-200.22C298.1,-190.6 207.74,-176.31 129,-162 126.11,-161.48 123.16,-160.93 120.18,-160.36"/>
<polygon fill="#63b8ff" stroke="#63b8ff" points="360.89,-203.73 371.3,-201.78 361.94,-196.81 360.89,-203.73"/>
</a>
</g>
</g>
<!-- Node4 -->
<g id="Node000004" class="node">
<title>Node4</title>
<g id="a_Node000004"><a xlink:href="server_8hpp.html" target="_top" xlink:title=" ">
<polygon fill="white" stroke="#666666" points="262,-162 138,-162 138,-132 262,-132 262,-162"/>
<text text-anchor="start" x="146" y="-150" font-family="Helvetica,sans-Serif" font-size="10.00">include/jsonrpc/server</text>
<text text-anchor="middle" x="200" y="-139" font-family="Helvetica,sans-Serif" font-size="10.00">/server.hpp</text>
</a>
</g>
</g>
<!-- Node1&#45;&gt;Node4 -->
<g id="edge3_Node000001_Node000004" class="edge">
<title>Node1&#45;&gt;Node4</title>
<g id="a_edge3_Node000001_Node000004"><a xlink:title=" ">
<path fill="none" stroke="#63b8ff" d="M377.2,-195.25C338.43,-184.91 289.25,-171.8 252.55,-162.01"/>
<polygon fill="#63b8ff" stroke="#63b8ff" points="376.77,-198.76 387.33,-197.95 378.57,-192 376.77,-198.76"/>
</a>
</g>
</g>
<!-- Node6 -->
<g id="Node000006" class="node">
<title>Node6</title>
<g id="a_Node000006"><a xlink:href="framed__stdio__transport_8hpp.html" target="_top" xlink:title=" ">
<polygon fill="white" stroke="#666666" points="435.5,-162 280.5,-162 280.5,-132 435.5,-132 435.5,-162"/>
<text text-anchor="start" x="288.5" y="-150" font-family="Helvetica,sans-Serif" font-size="10.00">include/jsonrpc/transport</text>
<text text-anchor="middle" x="358" y="-139" font-family="Helvetica,sans-Serif" font-size="10.00">/framed_stdio_transport.hpp</text>
</a>
</g>
</g>
<!-- Node1&#45;&gt;Node6 -->
<g id="edge5_Node000001_Node000006" class="edge">
<title>Node1&#45;&gt;Node6</title>
<g id="a_edge5_Node000001_Node000006"><a xlink:title=" ">
<path fill="none" stroke="#63b8ff" d="M413.71,-191.48C401.45,-181.91 387.18,-170.77 376.15,-162.16"/>
<polygon fill="#63b8ff" stroke="#63b8ff" points="411.76,-194.4 421.8,-197.8 416.07,-188.88 411.76,-194.4"/>
</a>
</g>
</g>
<!-- Node8 -->
<g id="Node000008" class="node">
<title>Node8</title>
<g id="a_Node000008"><a xlink:href="pipe__transport_8hpp.html" target="_top" xlink:title=" ">
<polygon fill="white" stroke="#666666" points="590.5,-162 453.5,-162 453.5,-132 590.5,-132 590.5,-162"/>
<text text-anchor="start" x="461.5" y="-150" font-family="Helvetica,sans-Serif" font-size="10.00">include/jsonrpc/transport</text>
<text text-anchor="middle" x="522" y="-139" font-family="Helvetica,sans-Serif" font-size="10.00">/pipe_transport.hpp</text>
</a>
</g>
</g>
<!-- Node1&#45;&gt;Node8 -->
<g id="edge7_Node000001_Node000008" class="edge">
<title>Node1&#45;&gt;Node8</title>
<g id="a_edge7_Node000001_Node000008"><a xlink:title=" ">
<path fill="none" stroke="#63b8ff" d="M466.29,-191.48C478.55,-181.91 492.82,-170.77 503.85,-162.16"/>
<polygon fill="#63b8ff" stroke="#63b8ff" points="463.93,-188.88 458.2,-197.8 468.24,-194.4 463.93,-188.88"/>
</a>
</g>
</g>
<!-- Node12 -->
<g id="Node000012" class="node">
<title>Node12</title>
<g id="a_Node000012"><a xlink:href="socket__transport_8hpp.html" target="_top" xlink:title=" ">
<polygon fill="white" stroke="#666666" points="846.5,-162 709.5,-162 709.5,-132 846.5,-132 846.5,-162"/>
<text text-anchor="start" x="717.5" y="-150" font-family="Helvetica,sans-Serif" font-size="10.00">include/jsonrpc/transport</text>
<text text-anchor="middle" x="778" y="-139" font-family="Helvetica,sans-Serif" font-size="10.00">/socket_transport.hpp</text>
</a>
</g>
</g>
<!-- Node1&#45;&gt;Node12 -->
<g id="edge11_Node000001_Node000012" class="edge">
<title>Node1&#45;&gt;Node12</title>
<g id="a_edge11_Node000001_Node000012"><a xlink:title=" ">
<path fill="none" stroke="#63b8ff" d="M518.98,-197.05C576.67,-186.12 654.14,-171.45 709.29,-161.01"/>
<polygon fill="#63b8ff" stroke="#63b8ff" points="517.98,-193.67 508.81,-198.97 519.28,-200.55 517.98,-193.67"/>
</a>
</g>
</g>
<!-- Node16 -->
<g id="Node000016" class="node">
<title>Node16</title>
<g id="a_Node000016"><a xlink:href="stdio__transport_8hpp.html" target="_top" xlink:title=" ">
<polygon fill="white" stroke="#666666" points="1065.5,-162 928.5,-162 928.5,-132 1065.5,-132 1065.5,-162"/>
<text text-anchor="start" x="936.5" y="-150" font-family="Helvetica,sans-Serif" font-size="10.00">include/jsonrpc/transport</text>
<text text-anchor="middle" x="997" y="-139" font-family="Helvetica,sans-Serif" font-size="10.00">/stdio_transport.hpp</text>
</a>
</g>
</g>
<!-- Node1&#45;&gt;Node16 -->
<g id="edge15_Node000001_Node000016" class="edge">
<title>Node1&#45;&gt;Node16</title>
<g id="a_edge15_Node000001_Node000016"><a xlink:title=" ">
<path fill="none" stroke="#63b8ff" d="M518.56,-202.97C627.94,-190.41 824.33,-167.84 928.22,-155.9"/>
<polygon fill="#63b8ff" stroke="#63b8ff" points="518.11,-199.5 508.58,-204.12 518.91,-206.46 518.11,-199.5"/>
</a>
</g>
</g>
<!-- Node3 -->
<g id="Node000003" class="node">
<title>Node3</title>
<g id="a_Node000003"><a xlink:href="client_8cpp.html" target="_top" xlink:title=" ">
<polygon fill="white" stroke="#666666" points="115.5,-90.5 4.5,-90.5 4.5,-71.5 115.5,-71.5 115.5,-90.5"/>
<text text-anchor="middle" x="60" y="-78.5" font-family="Helvetica,sans-Serif" font-size="10.00">src/client/client.cpp</text>
</a>
</g>
</g>
<!-- Node2&#45;&gt;Node3 -->
<g id="edge2_Node000002_Node000003" class="edge">
<title>Node2&#45;&gt;Node3</title>
<g id="a_edge2_Node000002_Node000003"><a xlink:title=" ">
<path fill="none" stroke="#63b8ff" d="M60,-121.6C60,-110.8 60,-98.78 60,-90.84"/>
<polygon fill="#63b8ff" stroke="#63b8ff" points="56.5,-121.8 60,-131.8 63.5,-121.8 56.5,-121.8"/>
</a>
</g>
</g>
<!-- Node5 -->
<g id="Node000005" class="node">
<title>Node5</title>
<g id="a_Node000005"><a xlink:href="server_8cpp.html" target="_top" xlink:title=" ">
<polygon fill="white" stroke="#666666" points="255,-90.5 137,-90.5 137,-71.5 255,-71.5 255,-90.5"/>
<text text-anchor="middle" x="196" y="-78.5" font-family="Helvetica,sans-Serif" font-size="10.00">src/server/server.cpp</text>
</a>
</g>
</g>
<!-- Node4&#45;&gt;Node5 -->
<g id="edge4_Node000004_Node000005" class="edge">
<title>Node4&#45;&gt;Node5</title>
<g id="a_edge4_Node000004_Node000005"><a xlink:title=" ">
<path fill="none" stroke="#63b8ff" d="M198.48,-121.6C197.8,-110.8 197.05,-98.78 196.55,-90.84"/>
<polygon fill="#63b8ff" stroke="#63b8ff" points="195,-122.03 199.11,-131.8 201.98,-121.6 195,-122.03"/>
</a>
</g>
</g>
<!-- Node7 -->
<g id="Node000007" class="node">
<title>Node7</title>
<g id="a_Node000007"><a xlink:href="framed__stdio__transport_8cpp.html" target="_top" xlink:title=" ">
<polygon fill="white" stroke="#666666" points="389,-96 273,-96 273,-66 389,-66 389,-96"/>
<text text-anchor="start" x="281" y="-84" font-family="Helvetica,sans-Serif" font-size="10.00">src/transport/framed</text>
<text text-anchor="middle" x="331" y="-73" font-family="Helvetica,sans-Serif" font-size="10.00">_stdio_transport.cpp</text>
</a>
</g>
</g>
<!-- Node6&#45;&gt;Node7 -->
<g id="edge6_Node000006_Node000007" class="edge">
<title>Node6&#45;&gt;Node7</title>
<g id="a_edge6_Node000006_Node000007"><a xlink:title=" ">
<path fill="none" stroke="#63b8ff" d="M348.04,-122.39C344.33,-113.59 340.22,-103.86 336.98,-96.16"/>
<polygon fill="#63b8ff" stroke="#63b8ff" points="344.9,-123.94 352.01,-131.8 351.35,-121.22 344.9,-123.94"/>
</a>
</g>
</g>
<!-- Node9 -->
<g id="Node000009" class="node">
<title>Node9</title>
<g id="a_Node000009"><a xlink:href="framed__pipe__transport_8hpp.html" target="_top" xlink:title=" ">
<polygon fill="white" stroke="#666666" points="559,-96 407,-96 407,-66 559,-66 559,-96"/>
<text text-anchor="start" x="415" y="-84" font-family="Helvetica,sans-Serif" font-size="10.00">include/jsonrpc/transport</text>
<text text-anchor="middle" x="483" y="-73" font-family="Helvetica,sans-Serif" font-size="10.00">/framed_pipe_transport.hpp</text>
</a>
</g>
</g>
<!-- Node8&#45;&gt;Node9 -->
<g id="edge8_Node000008_Node000009" class="edge">
<title>Node8&#45;&gt;Node9</title>
<g id="a_edge8_Node000008_Node000009"><a xlink:title=" ">
<path fill="none" stroke="#63b8ff" d="M508.13,-123.24C502.63,-114.21 496.47,-104.11 491.63,-96.16"/>
<polygon fill="#63b8ff" stroke="#63b8ff" points="505.15,-125.08 513.34,-131.8 511.13,-121.44 505.15,-125.08"/>
</a>
</g>
</g>
<!-- Node11 -->
<g id="Node000011" class="node">
<title>Node11</title>
<g id="a_Node000011"><a xlink:href="pipe__transport_8cpp.html" target="_top" xlink:title=" ">
<polygon fill="white" stroke="#666666" points="679,-96 577,-96 577,-66 679,-66 679,-96"/>
<text text-anchor="start" x="585" y="-84" font-family="Helvetica,sans-Serif" font-size="10.00">src/transport/pipe</text>
<text text-anchor="middle" x="628" y="-73" font-family="Helvetica,sans-Serif" font-size="10.00">_transport.cpp</text>
</a>
</g>
</g>
<!-- Node8&#45;&gt;Node11 -->
<g id="edge10_Node000008_Node000011" class="edge">
<title>Node8&#45;&gt;Node11</title>
<g id="a_edge10_Node000008_Node000011"><a xlink:title=" ">
<path fill="none" stroke="#63b8ff" d="M553.97,-126.69C570.34,-116.82 589.89,-105.01 604.79,-96.01"/>
<polygon fill="#63b8ff" stroke="#63b8ff" points="552.01,-123.79 545.26,-131.95 555.63,-129.78 552.01,-123.79"/>
</a>
</g>
</g>
<!-- Node10 -->
<g id="Node000010" class="node">
<title>Node10</title>
<g id="a_Node000010"><a xlink:href="framed__pipe__transport_8cpp.html" target="_top" xlink:title=" ">
<polygon fill="white" stroke="#666666" points="541,-30 425,-30 425,0 541,0 541,-30"/>
<text text-anchor="start" x="433" y="-18" font-family="Helvetica,sans-Serif" font-size="10.00">src/transport/framed</text>
<text text-anchor="middle" x="483" y="-7" font-family="Helvetica,sans-Serif" font-size="10.00">_pipe_transport.cpp</text>
</a>
</g>
</g>
<!-- Node9&#45;&gt;Node10 -->
<g id="edge9_Node000009_Node000010" class="edge">
<title>Node9&#45;&gt;Node10</title>
<g id="a_edge9_Node000009_Node000010"><a xlink:title=" ">
<path fill="none" stroke="#63b8ff" d="M483,-55.54C483,-46.96 483,-37.61 483,-30.16"/>
<polygon fill="#63b8ff" stroke="#63b8ff" points="479.5,-55.8 483,-65.8 486.5,-55.8 479.5,-55.8"/>
</a>
</g>
</g>
<!-- Node13 -->
<g id="Node000013" class="node">
<title>Node13</title>
<g id="a_Node000013"><a xlink:href="framed__socket__transport_8hpp.html" target="_top" xlink:title=" ">
<polygon fill="white" stroke="#666666" points="859,-96 697,-96 697,-66 859,-66 859,-96"/>
<text text-anchor="start" x="705" y="-84" font-family="Helvetica,sans-Serif" font-size="10.00">include/jsonrpc/transport</text>
<text text-anchor="middle" x="778" y="-73" font-family="Helvetica,sans-Serif" font-size="10.00">/framed_socket_transport.hpp</text>
</a>
</g>
</g>
<!-- Node12&#45;&gt;Node13 -->
<g id="edge12_Node000012_Node000013" class="edge">
<title>Node12&#45;&gt;Node13</title>
<g id="a_edge12_Node000012_Node000013"><a xlink:title=" ">
<path fill="none" stroke="#63b8ff" d="M778,-121.54C778,-112.96 778,-103.61 778,-96.16"/>
<polygon fill="#63b8ff" stroke="#63b8ff" points="774.5,-121.8 778,-131.8 781.5,-121.8 774.5,-121.8"/>
</a>
</g>
</g>
<!-- Node15 -->
<g id="Node000015" class="node">
<title>Node15</title>
<g id="a_Node000015"><a xlink:href="socket__transport_8cpp.html" target="_top" xlink:title=" ">
<polygon fill="white" stroke="#666666" points="990.5,-96 877.5,-96 877.5,-66 990.5,-66 990.5,-96"/>
<text text-anchor="start" x="885.5" y="-84" font-family="Helvetica,sans-Serif" font-size="10.00">src/transport/socket</text>
<text text-anchor="middle" x="934" y="-73" font-family="Helvetica,sans-Serif" font-size="10.00">_transport.cpp</text>
</a>
</g>
</g>
<!-- Node12&#45;&gt;Node15 -->
<g id="edge14_Node000012_Node000015" class="edge">
<title>Node12&#45;&gt;Node15</title>
<g id="a_edge14_Node000012_Node000015"><a xlink:title=" ">
<path fill="none" stroke="#63b8ff" d="M821.74,-128.05C846.46,-117.91 876.9,-105.43 899.84,-96.01"/>
<polygon fill="#63b8ff" stroke="#63b8ff" points="820.16,-124.92 812.23,-131.95 822.82,-131.4 820.16,-124.92"/>
</a>
</g>
</g>
<!-- Node14 -->
<g id="Node000014" class="node">
<title>Node14</title>
<g id="a_Node000014"><a xlink:href="framed__socket__transport_8cpp.html" target="_top" xlink:title=" ">
<polygon fill="white" stroke="#666666" points="839.5,-30 716.5,-30 716.5,0 839.5,0 839.5,-30"/>
<text text-anchor="start" x="724.5" y="-18" font-family="Helvetica,sans-Serif" font-size="10.00">src/transport/framed</text>
<text text-anchor="middle" x="778" y="-7" font-family="Helvetica,sans-Serif" font-size="10.00">_socket_transport.cpp</text>
</a>
</g>
</g>
<!-- Node13&#45;&gt;Node14 -->
<g id="edge13_Node000013_Node000014" class="edge">
<title>Node13&#45;&gt;Node14</title>
<g id="a_edge13_Node000013_Node000014"><a xlink:title=" ">
<path fill="none" stroke="#63b8ff" d="M778,-55.54C778,-46.96 778,-37.61 778,-30.16"/>
<polygon fill="#63b8ff" stroke="#63b8ff" points="774.5,-55.8 778,-65.8 781.5,-55.8 774.5,-55.8"/>
</a>
</g>
</g>
<!-- Node17 -->
<g id="Node000017" class="node">
<title>Node17</title>
<g id="a_Node000017"><a xlink:href="stdio__transport_8cpp.html" target="_top" xlink:title=" ">
<polygon fill="white" stroke="#666666" points="1113.5,-96 1008.5,-96 1008.5,-66 1113.5,-66 1113.5,-96"/>
<text text-anchor="start" x="1016.5" y="-84" font-family="Helvetica,sans-Serif" font-size="10.00">src/transport/stdio</text>
<text text-anchor="middle" x="1061" y="-73" font-family="Helvetica,sans-Serif" font-size="10.00">_transport.cpp</text>
</a>
</g>
</g>
<!-- Node16&#45;&gt;Node17 -->
<g id="edge16_Node000016_Node000017" class="edge">
<title>Node16&#45;&gt;Node17</title>
<g id="a_edge16_Node000016_Node000017"><a xlink:title=" ">
<path fill="none" stroke="#63b8ff" d="M1018.35,-124.65C1027.73,-115.27 1038.47,-104.53 1046.84,-96.16"/>
<polygon fill="#63b8ff" stroke="#63b8ff" points="1015.8,-122.25 1011.2,-131.8 1020.75,-127.2 1015.8,-122.25"/>
</a>
</g>
</g>
</g>
</svg>
