<?xml version="1.0" encoding="UTF-8" standalone="no"?>
<!DOCTYPE svg PUBLIC "-//W3C//DTD SVG 1.1//EN"
 "http://www.w3.org/Graphics/SVG/1.1/DTD/svg11.dtd">
<!-- Generated by graphviz version 2.43.0 (0)
 -->
<!-- Title: include/jsonrpc/core/types.hpp Pages: 1 -->
<svg width="1385pt" height="368pt"
 viewBox="0.00 0.00 1384.50 368.00" xmlns="http://www.w3.org/2000/svg" xmlns:xlink="http://www.w3.org/1999/xlink">
<g id="graph0" class="graph" transform="scale(1 1) rotate(0) translate(4 364)">
<title>include/jsonrpc/core/types.hpp</title>
<!-- Node1 -->
<g id="Node000001" class="node">
<title>Node1</title>
<g id="a_Node000001"><a xlink:title=" ">
<polygon fill="#999999" stroke="#666666" points="865.5,-360 751.5,-360 751.5,-330 865.5,-330 865.5,-360"/>
<text text-anchor="start" x="759.5" y="-348" font-family="Helvetica,sans-Serif" font-size="10.00">include/jsonrpc/core</text>
<text text-anchor="middle" x="808.5" y="-337" font-family="Helvetica,sans-Serif" font-size="10.00">/types.hpp</text>
</a>
</g>
</g>
<!-- Node2 -->
<g id="Node000002" class="node">
<title>Node2</title>
<g id="a_Node000002"><a xlink:href="client_2request_8hpp.html" target="_top" xlink:title=" ">
<polygon fill="white" stroke="#666666" points="259.5,-162 139.5,-162 139.5,-132 259.5,-132 259.5,-162"/>
<text text-anchor="start" x="147.5" y="-150" font-family="Helvetica,sans-Serif" font-size="10.00">include/jsonrpc/client</text>
<text text-anchor="middle" x="199.5" y="-139" font-family="Helvetica,sans-Serif" font-size="10.00">/request.hpp</text>
</a>
</g>
</g>
<!-- Node1&#45;&gt;Node2 -->
<g id="edge1_Node000001_Node000002" class="edge">
<title>Node1&#45;&gt;Node2</title>
<g id="a_edge1_Node000001_Node000002"><a xlink:title=" ">
<path fill="none" stroke="#63b8ff" d="M741.18,-340.48C673.01,-335.39 565.26,-323.15 476.5,-294 374.49,-260.5 265.01,-191.79 220.3,-162.14"/>
<polygon fill="#63b8ff" stroke="#63b8ff" points="741.14,-343.99 751.36,-341.21 741.64,-337 741.14,-343.99"/>
</a>
</g>
</g>
<!-- Node4 -->
<g id="Node000004" class="node">
<title>Node4</title>
<g id="a_Node000004"><a xlink:href="jsonrpc_8hpp.html" target="_top" xlink:title=" ">
<polygon fill="white" stroke="#666666" points="826,-24.5 677,-24.5 677,-5.5 826,-5.5 826,-24.5"/>
<text text-anchor="middle" x="751.5" y="-12.5" font-family="Helvetica,sans-Serif" font-size="10.00">include/jsonrpc/jsonrpc.hpp</text>
</a>
</g>
</g>
<!-- Node1&#45;&gt;Node4 -->
<g id="edge40_Node000001_Node000004" class="edge">
<title>Node1&#45;&gt;Node4</title>
<g id="a_edge40_Node000001_Node000004"><a xlink:title=" ">
<path fill="none" stroke="#63b8ff" d="M741.33,-332.77C684.85,-319.13 608.9,-289.76 580.5,-228 574.93,-215.89 575.59,-210.4 580.5,-198 584.91,-186.86 709.14,-59.32 743.03,-24.65"/>
<polygon fill="#63b8ff" stroke="#63b8ff" points="740.75,-336.23 751.28,-335.06 742.32,-329.41 740.75,-336.23"/>
</a>
</g>
</g>
<!-- Node7 -->
<g id="Node000007" class="node">
<title>Node7</title>
<g id="a_Node000007"><a xlink:href="client__transport_8hpp.html" target="_top" xlink:title=" ">
<polygon fill="white" stroke="#666666" points="494,-162 377,-162 377,-132 494,-132 494,-162"/>
<text text-anchor="start" x="385" y="-150" font-family="Helvetica,sans-Serif" font-size="10.00">include/jsonrpc/core</text>
<text text-anchor="middle" x="435.5" y="-139" font-family="Helvetica,sans-Serif" font-size="10.00">/client_transport.hpp</text>
</a>
</g>
</g>
<!-- Node1&#45;&gt;Node7 -->
<g id="edge6_Node000001_Node000007" class="edge">
<title>Node1&#45;&gt;Node7</title>
<g id="a_edge6_Node000001_Node000007"><a xlink:title=" ">
<path fill="none" stroke="#63b8ff" d="M741.4,-339.85C664.53,-333.91 544.52,-320.61 508.5,-294 463.59,-260.83 444.57,-192.25 438.19,-162.41"/>
<polygon fill="#63b8ff" stroke="#63b8ff" points="741.25,-343.35 751.49,-340.61 741.78,-336.37 741.25,-343.35"/>
</a>
</g>
</g>
<!-- Node8 -->
<g id="Node000008" class="node">
<title>Node8</title>
<g id="a_Node000008"><a xlink:href="framed__stdio__client__transport_8hpp.html" target="_top" xlink:title=" ">
<polygon fill="white" stroke="#666666" points="629,-96 442,-96 442,-66 629,-66 629,-96"/>
<text text-anchor="start" x="450" y="-84" font-family="Helvetica,sans-Serif" font-size="10.00">include/jsonrpc/transports</text>
<text text-anchor="middle" x="535.5" y="-73" font-family="Helvetica,sans-Serif" font-size="10.00">/framed_stdio_client_transport.hpp</text>
</a>
</g>
</g>
<!-- Node1&#45;&gt;Node8 -->
<g id="edge42_Node000001_Node000008" class="edge">
<title>Node1&#45;&gt;Node8</title>
<g id="a_edge42_Node000001_Node000008"><a xlink:title=" ">
<path fill="none" stroke="#63b8ff" d="M741.07,-340.37C672.05,-335.1 571.46,-322.64 546.5,-294 496.37,-236.5 520.12,-133.38 531.04,-96.01"/>
<polygon fill="#63b8ff" stroke="#63b8ff" points="741.21,-343.88 751.44,-341.12 741.72,-336.9 741.21,-343.88"/>
</a>
</g>
</g>
<!-- Node12 -->
<g id="Node000012" class="node">
<title>Node12</title>
<g id="a_Node000012"><a xlink:href="dispatcher_8hpp.html" target="_top" xlink:title=" ">
<polygon fill="white" stroke="#666666" points="950.5,-228 836.5,-228 836.5,-198 950.5,-198 950.5,-228"/>
<text text-anchor="start" x="844.5" y="-216" font-family="Helvetica,sans-Serif" font-size="10.00">include/jsonrpc/core</text>
<text text-anchor="middle" x="893.5" y="-205" font-family="Helvetica,sans-Serif" font-size="10.00">/dispatcher.hpp</text>
</a>
</g>
</g>
<!-- Node1&#45;&gt;Node12 -->
<g id="edge15_Node000001_Node000012" class="edge">
<title>Node1&#45;&gt;Node12</title>
<g id="a_edge15_Node000001_Node000012"><a xlink:title=" ">
<path fill="none" stroke="#63b8ff" d="M823.24,-321.45C840.79,-294.61 869.57,-250.6 884.25,-228.14"/>
<polygon fill="#63b8ff" stroke="#63b8ff" points="820.3,-319.56 817.76,-329.84 826.16,-323.39 820.3,-319.56"/>
</a>
</g>
</g>
<!-- Node13 -->
<g id="Node000013" class="node">
<title>Node13</title>
<g id="a_Node000013"><a xlink:href="server__transport_8hpp.html" target="_top" xlink:title=" ">
<polygon fill="white" stroke="#666666" points="1142,-162 1021,-162 1021,-132 1142,-132 1142,-162"/>
<text text-anchor="start" x="1029" y="-150" font-family="Helvetica,sans-Serif" font-size="10.00">include/jsonrpc/core</text>
<text text-anchor="middle" x="1081.5" y="-139" font-family="Helvetica,sans-Serif" font-size="10.00">/server_transport.hpp</text>
</a>
</g>
</g>
<!-- Node1&#45;&gt;Node13 -->
<g id="edge39_Node000001_Node000013" class="edge">
<title>Node1&#45;&gt;Node13</title>
<g id="a_edge39_Node000001_Node000013"><a xlink:title=" ">
<path fill="none" stroke="#63b8ff" d="M875.93,-340.38C947.64,-332.34 1056.52,-307 1099.5,-228 1111,-206.87 1099.47,-178.77 1090.31,-162.12"/>
<polygon fill="#63b8ff" stroke="#63b8ff" points="875.22,-336.94 865.64,-341.45 875.94,-343.9 875.22,-336.94"/>
</a>
</g>
</g>
<!-- Node14 -->
<g id="Node000014" class="node">
<title>Node14</title>
<g id="a_Node000014"><a xlink:href="server_8hpp.html" target="_top" xlink:title=" ">
<polygon fill="white" stroke="#666666" points="1208.5,-96 1084.5,-96 1084.5,-66 1208.5,-66 1208.5,-96"/>
<text text-anchor="start" x="1092.5" y="-84" font-family="Helvetica,sans-Serif" font-size="10.00">include/jsonrpc/server</text>
<text text-anchor="middle" x="1146.5" y="-73" font-family="Helvetica,sans-Serif" font-size="10.00">/server.hpp</text>
</a>
</g>
</g>
<!-- Node1&#45;&gt;Node14 -->
<g id="edge41_Node000001_Node000014" class="edge">
<title>Node1&#45;&gt;Node14</title>
<g id="a_edge41_Node000001_Node000014"><a xlink:title=" ">
<path fill="none" stroke="#63b8ff" d="M875.98,-343.55C930.7,-340.34 1007.9,-329.14 1065.5,-294 1129.26,-255.1 1145.04,-232.57 1169.5,-162 1177.4,-139.2 1165.21,-112.1 1155.77,-96.02"/>
<polygon fill="#63b8ff" stroke="#63b8ff" points="875.51,-340.07 865.7,-344.07 875.86,-347.06 875.51,-340.07"/>
</a>
</g>
</g>
<!-- Node16 -->
<g id="Node000016" class="node">
<title>Node16</title>
<g id="a_Node000016"><a xlink:href="framed__stdio__server__transport_8hpp.html" target="_top" xlink:title=" ">
<polygon fill="white" stroke="#666666" points="1066,-96 875,-96 875,-66 1066,-66 1066,-96"/>
<text text-anchor="start" x="883" y="-84" font-family="Helvetica,sans-Serif" font-size="10.00">include/jsonrpc/transports</text>
<text text-anchor="middle" x="970.5" y="-73" font-family="Helvetica,sans-Serif" font-size="10.00">/framed_stdio_server_transport.hpp</text>
</a>
</g>
</g>
<!-- Node1&#45;&gt;Node16 -->
<g id="edge43_Node000001_Node000016" class="edge">
<title>Node1&#45;&gt;Node16</title>
<g id="a_edge43_Node000001_Node000016"><a xlink:title=" ">
<path fill="none" stroke="#63b8ff" d="M807.33,-319.7C806.62,-275.4 811.98,-181.5 865.5,-132 882.84,-115.96 906.26,-104.14 926.59,-96.03"/>
<polygon fill="#63b8ff" stroke="#63b8ff" points="803.83,-319.94 807.61,-329.84 810.83,-319.74 803.83,-319.94"/>
</a>
</g>
</g>
<!-- Node18 -->
<g id="Node000018" class="node">
<title>Node18</title>
<g id="a_Node000018"><a xlink:href="stdio__server__transport_8hpp.html" target="_top" xlink:title=" ">
<polygon fill="white" stroke="#666666" points="1376.5,-96 1226.5,-96 1226.5,-66 1376.5,-66 1376.5,-96"/>
<text text-anchor="start" x="1234.5" y="-84" font-family="Helvetica,sans-Serif" font-size="10.00">include/jsonrpc/transports</text>
<text text-anchor="middle" x="1301.5" y="-73" font-family="Helvetica,sans-Serif" font-size="10.00">/stdio_server_transport.hpp</text>
</a>
</g>
</g>
<!-- Node1&#45;&gt;Node18 -->
<g id="edge44_Node000001_Node000018" class="edge">
<title>Node1&#45;&gt;Node18</title>
<g id="a_edge44_Node000001_Node000018"><a xlink:title=" ">
<path fill="none" stroke="#63b8ff" d="M875.77,-344.25C937.36,-341.84 1029.34,-331.41 1099.5,-294 1193.03,-244.13 1268.2,-134.87 1292.88,-96.04"/>
<polygon fill="#63b8ff" stroke="#63b8ff" points="875.65,-340.76 865.77,-344.59 875.88,-347.75 875.65,-340.76"/>
</a>
</g>
</g>
<!-- Node21 -->
<g id="Node000021" class="node">
<title>Node21</title>
<g id="a_Node000021"><a xlink:href="core_2request_8hpp.html" target="_top" xlink:title=" ">
<polygon fill="white" stroke="#666666" points="780.5,-294 666.5,-294 666.5,-264 780.5,-264 780.5,-294"/>
<text text-anchor="start" x="674.5" y="-282" font-family="Helvetica,sans-Serif" font-size="10.00">include/jsonrpc/core</text>
<text text-anchor="middle" x="723.5" y="-271" font-family="Helvetica,sans-Serif" font-size="10.00">/request.hpp</text>
</a>
</g>
</g>
<!-- Node1&#45;&gt;Node21 -->
<g id="edge31_Node000001_Node000021" class="edge">
<title>Node1&#45;&gt;Node21</title>
<g id="a_edge31_Node000001_Node000021"><a xlink:title=" ">
<path fill="none" stroke="#63b8ff" d="M781.61,-323.75C768.83,-314.13 753.86,-302.86 742.31,-294.16"/>
<polygon fill="#63b8ff" stroke="#63b8ff" points="779.54,-326.58 789.64,-329.8 783.75,-320.99 779.54,-326.58"/>
</a>
</g>
</g>
<!-- Node23 -->
<g id="Node000023" class="node">
<title>Node23</title>
<g id="a_Node000023"><a xlink:href="response_8hpp.html" target="_top" xlink:title=" ">
<polygon fill="white" stroke="#666666" points="988.5,-294 874.5,-294 874.5,-264 988.5,-264 988.5,-294"/>
<text text-anchor="start" x="882.5" y="-282" font-family="Helvetica,sans-Serif" font-size="10.00">include/jsonrpc/core</text>
<text text-anchor="middle" x="931.5" y="-271" font-family="Helvetica,sans-Serif" font-size="10.00">/response.hpp</text>
</a>
</g>
</g>
<!-- Node1&#45;&gt;Node23 -->
<g id="edge35_Node000001_Node000023" class="edge">
<title>Node1&#45;&gt;Node23</title>
<g id="a_edge35_Node000001_Node000023"><a xlink:title=" ">
<path fill="none" stroke="#63b8ff" d="M844.55,-325.24C863.75,-315.25 886.96,-303.18 904.57,-294.01"/>
<polygon fill="#63b8ff" stroke="#63b8ff" points="842.75,-322.23 835.49,-329.95 845.98,-328.44 842.75,-322.23"/>
</a>
</g>
</g>
<!-- Node3 -->
<g id="Node000003" class="node">
<title>Node3</title>
<g id="a_Node000003"><a xlink:href="client_8hpp.html" target="_top" xlink:title=" ">
<polygon fill="white" stroke="#666666" points="259.5,-96 139.5,-96 139.5,-66 259.5,-66 259.5,-96"/>
<text text-anchor="start" x="147.5" y="-84" font-family="Helvetica,sans-Serif" font-size="10.00">include/jsonrpc/client</text>
<text text-anchor="middle" x="199.5" y="-73" font-family="Helvetica,sans-Serif" font-size="10.00">/client.hpp</text>
</a>
</g>
</g>
<!-- Node2&#45;&gt;Node3 -->
<g id="edge2_Node000002_Node000003" class="edge">
<title>Node2&#45;&gt;Node3</title>
<g id="a_edge2_Node000002_Node000003"><a xlink:title=" ">
<path fill="none" stroke="#63b8ff" d="M199.5,-121.54C199.5,-112.96 199.5,-103.61 199.5,-96.16"/>
<polygon fill="#63b8ff" stroke="#63b8ff" points="196,-121.8 199.5,-131.8 203,-121.8 196,-121.8"/>
</a>
</g>
</g>
<!-- Node6 -->
<g id="Node000006" class="node">
<title>Node6</title>
<g id="a_Node000006"><a xlink:href="client_2request_8cpp.html" target="_top" xlink:title=" ">
<polygon fill="white" stroke="#666666" points="121,-90.5 0,-90.5 0,-71.5 121,-71.5 121,-90.5"/>
<text text-anchor="middle" x="60.5" y="-78.5" font-family="Helvetica,sans-Serif" font-size="10.00">src/client/request.cpp</text>
</a>
</g>
</g>
<!-- Node2&#45;&gt;Node6 -->
<g id="edge5_Node000002_Node000006" class="edge">
<title>Node2&#45;&gt;Node6</title>
<g id="a_edge5_Node000002_Node000006"><a xlink:title=" ">
<path fill="none" stroke="#63b8ff" d="M159.58,-127.62C133.06,-115.41 99.46,-99.94 79,-90.52"/>
<polygon fill="#63b8ff" stroke="#63b8ff" points="158.45,-130.95 169,-131.95 161.38,-124.59 158.45,-130.95"/>
</a>
</g>
</g>
<!-- Node3&#45;&gt;Node4 -->
<g id="edge3_Node000003_Node000004" class="edge">
<title>Node3&#45;&gt;Node4</title>
<g id="a_edge3_Node000003_Node000004"><a xlink:title=" ">
<path fill="none" stroke="#63b8ff" d="M269.55,-65.93C424.77,-42.57 466.15,-45.85 618.5,-30 637.44,-28.03 657.89,-25.88 676.94,-23.88"/>
<polygon fill="#63b8ff" stroke="#63b8ff" points="269.01,-62.47 259.65,-67.44 270.06,-69.4 269.01,-62.47"/>
</a>
</g>
</g>
<!-- Node5 -->
<g id="Node000005" class="node">
<title>Node5</title>
<g id="a_Node000005"><a xlink:href="client_8cpp.html" target="_top" xlink:title=" ">
<polygon fill="white" stroke="#666666" points="255,-24.5 144,-24.5 144,-5.5 255,-5.5 255,-24.5"/>
<text text-anchor="middle" x="199.5" y="-12.5" font-family="Helvetica,sans-Serif" font-size="10.00">src/client/client.cpp</text>
</a>
</g>
</g>
<!-- Node3&#45;&gt;Node5 -->
<g id="edge4_Node000003_Node000005" class="edge">
<title>Node3&#45;&gt;Node5</title>
<g id="a_edge4_Node000003_Node000005"><a xlink:title=" ">
<path fill="none" stroke="#63b8ff" d="M199.5,-55.6C199.5,-44.8 199.5,-32.78 199.5,-24.84"/>
<polygon fill="#63b8ff" stroke="#63b8ff" points="196,-55.8 199.5,-65.8 203,-55.8 196,-55.8"/>
</a>
</g>
</g>
<!-- Node7&#45;&gt;Node3 -->
<g id="edge7_Node000007_Node000003" class="edge">
<title>Node7&#45;&gt;Node3</title>
<g id="a_edge7_Node000007_Node000003"><a xlink:title=" ">
<path fill="none" stroke="#63b8ff" d="M373.75,-129.25C335.62,-118.91 287.26,-105.8 251.17,-96.01"/>
<polygon fill="#63b8ff" stroke="#63b8ff" points="373.14,-132.72 383.71,-131.95 374.97,-125.96 373.14,-132.72"/>
</a>
</g>
</g>
<!-- Node7&#45;&gt;Node4 -->
<g id="edge8_Node000007_Node000004" class="edge">
<title>Node7&#45;&gt;Node4</title>
<g id="a_edge8_Node000007_Node000004"><a xlink:title=" ">
<path fill="none" stroke="#63b8ff" d="M504.34,-135.74C544.69,-128.11 595.94,-115.57 638.5,-96 659.34,-86.42 661.79,-79.27 680.5,-66 701.04,-51.43 724.99,-34.59 739.17,-24.65"/>
<polygon fill="#63b8ff" stroke="#63b8ff" points="503.53,-132.33 494.33,-137.58 504.8,-139.22 503.53,-132.33"/>
</a>
</g>
</g>
<!-- Node7&#45;&gt;Node8 -->
<g id="edge9_Node000007_Node000008" class="edge">
<title>Node7&#45;&gt;Node8</title>
<g id="a_edge9_Node000007_Node000008"><a xlink:title=" ">
<path fill="none" stroke="#63b8ff" d="M466.28,-126.3C481.5,-116.56 499.53,-105.02 513.37,-96.16"/>
<polygon fill="#63b8ff" stroke="#63b8ff" points="464.23,-123.46 457.69,-131.8 468,-129.35 464.23,-123.46"/>
</a>
</g>
</g>
<!-- Node10 -->
<g id="Node000010" class="node">
<title>Node10</title>
<g id="a_Node000010"><a xlink:href="stdio__client__transport_8hpp.html" target="_top" xlink:title=" ">
<polygon fill="white" stroke="#666666" points="423.5,-96 277.5,-96 277.5,-66 423.5,-66 423.5,-96"/>
<text text-anchor="start" x="285.5" y="-84" font-family="Helvetica,sans-Serif" font-size="10.00">include/jsonrpc/transports</text>
<text text-anchor="middle" x="350.5" y="-73" font-family="Helvetica,sans-Serif" font-size="10.00">/stdio_client_transport.hpp</text>
</a>
</g>
</g>
<!-- Node7&#45;&gt;Node10 -->
<g id="edge12_Node000007_Node000010" class="edge">
<title>Node7&#45;&gt;Node10</title>
<g id="a_edge12_Node000007_Node000010"><a xlink:title=" ">
<path fill="none" stroke="#63b8ff" d="M408.61,-125.75C395.83,-116.13 380.86,-104.86 369.31,-96.16"/>
<polygon fill="#63b8ff" stroke="#63b8ff" points="406.54,-128.58 416.64,-131.8 410.75,-122.99 406.54,-128.58"/>
</a>
</g>
</g>
<!-- Node8&#45;&gt;Node4 -->
<g id="edge10_Node000008_Node000004" class="edge">
<title>Node8&#45;&gt;Node4</title>
<g id="a_edge10_Node000008_Node000004"><a xlink:title=" ">
<path fill="none" stroke="#63b8ff" d="M592.7,-63.05C634.6,-50.64 689.7,-34.31 722.75,-24.52"/>
<polygon fill="#63b8ff" stroke="#63b8ff" points="591.5,-59.76 582.9,-65.95 593.48,-66.47 591.5,-59.76"/>
</a>
</g>
</g>
<!-- Node9 -->
<g id="Node000009" class="node">
<title>Node9</title>
<g id="a_Node000009"><a xlink:href="framed__stdio__client__transport_8cpp.html" target="_top" xlink:title=" ">
<polygon fill="white" stroke="#666666" points="609.5,-30 461.5,-30 461.5,0 609.5,0 609.5,-30"/>
<text text-anchor="start" x="469.5" y="-18" font-family="Helvetica,sans-Serif" font-size="10.00">src/transports/framed</text>
<text text-anchor="middle" x="535.5" y="-7" font-family="Helvetica,sans-Serif" font-size="10.00">_stdio_client_transport.cpp</text>
</a>
</g>
</g>
<!-- Node8&#45;&gt;Node9 -->
<g id="edge11_Node000008_Node000009" class="edge">
<title>Node8&#45;&gt;Node9</title>
<g id="a_edge11_Node000008_Node000009"><a xlink:title=" ">
<path fill="none" stroke="#63b8ff" d="M535.5,-55.54C535.5,-46.96 535.5,-37.61 535.5,-30.16"/>
<polygon fill="#63b8ff" stroke="#63b8ff" points="532,-55.8 535.5,-65.8 539,-55.8 532,-55.8"/>
</a>
</g>
</g>
<!-- Node10&#45;&gt;Node4 -->
<g id="edge13_Node000010_Node000004" class="edge">
<title>Node10&#45;&gt;Node4</title>
<g id="a_edge13_Node000010_Node000004"><a xlink:title=" ">
<path fill="none" stroke="#63b8ff" d="M433.96,-65.94C532.54,-49.91 634.66,-34.01 696.03,-24.53"/>
<polygon fill="#63b8ff" stroke="#63b8ff" points="433.12,-62.53 423.81,-67.59 434.25,-69.44 433.12,-62.53"/>
</a>
</g>
</g>
<!-- Node11 -->
<g id="Node000011" class="node">
<title>Node11</title>
<g id="a_Node000011"><a xlink:href="stdio__client__transport_8cpp.html" target="_top" xlink:title=" ">
<polygon fill="white" stroke="#666666" points="410,-30 291,-30 291,0 410,0 410,-30"/>
<text text-anchor="start" x="299" y="-18" font-family="Helvetica,sans-Serif" font-size="10.00">src/transports/stdio</text>
<text text-anchor="middle" x="350.5" y="-7" font-family="Helvetica,sans-Serif" font-size="10.00">_client_transport.cpp</text>
</a>
</g>
</g>
<!-- Node10&#45;&gt;Node11 -->
<g id="edge14_Node000010_Node000011" class="edge">
<title>Node10&#45;&gt;Node11</title>
<g id="a_edge14_Node000010_Node000011"><a xlink:title=" ">
<path fill="none" stroke="#63b8ff" d="M350.5,-55.54C350.5,-46.96 350.5,-37.61 350.5,-30.16"/>
<polygon fill="#63b8ff" stroke="#63b8ff" points="347,-55.8 350.5,-65.8 354,-55.8 347,-55.8"/>
</a>
</g>
</g>
<!-- Node12&#45;&gt;Node4 -->
<g id="edge27_Node000012_Node000004" class="edge">
<title>Node12&#45;&gt;Node4</title>
<g id="a_edge27_Node000012_Node000004"><a xlink:title=" ">
<path fill="none" stroke="#63b8ff" d="M877.38,-189.75C846.18,-146.68 778.74,-53.61 757.82,-24.73"/>
<polygon fill="#63b8ff" stroke="#63b8ff" points="874.59,-191.86 883.29,-197.9 880.26,-187.75 874.59,-191.86"/>
</a>
</g>
</g>
<!-- Node12&#45;&gt;Node13 -->
<g id="edge16_Node000012_Node000013" class="edge">
<title>Node12&#45;&gt;Node13</title>
<g id="a_edge16_Node000012_Node000013"><a xlink:title=" ">
<path fill="none" stroke="#63b8ff" d="M944.25,-194.72C974.37,-184.47 1012.08,-171.63 1040.34,-162.01"/>
<polygon fill="#63b8ff" stroke="#63b8ff" points="943.1,-191.42 934.76,-197.95 945.35,-198.05 943.1,-191.42"/>
</a>
</g>
</g>
<!-- Node12&#45;&gt;Node14 -->
<g id="edge28_Node000012_Node000014" class="edge">
<title>Node12&#45;&gt;Node14</title>
<g id="a_edge28_Node000012_Node000014"><a xlink:title=" ">
<path fill="none" stroke="#63b8ff" d="M960.78,-198.07C1016.46,-190.07 1125.46,-193.38 1151.5,-162 1166.79,-143.58 1159.27,-113.8 1152.7,-96.24"/>
<polygon fill="#63b8ff" stroke="#63b8ff" points="960,-194.66 950.72,-199.78 961.16,-201.56 960,-194.66"/>
</a>
</g>
</g>
<!-- Node12&#45;&gt;Node18 -->
<g id="edge29_Node000012_Node000018" class="edge">
<title>Node12&#45;&gt;Node18</title>
<g id="a_edge29_Node000012_Node000018"><a xlink:title=" ">
<path fill="none" stroke="#63b8ff" d="M960.61,-197.88C1054.45,-181.11 1083.73,-194.02 1169.5,-162 1213.43,-145.6 1258.98,-114.24 1283.41,-96.03"/>
<polygon fill="#63b8ff" stroke="#63b8ff" points="959.9,-194.46 950.71,-199.72 961.18,-201.34 959.9,-194.46"/>
</a>
</g>
</g>
<!-- Node20 -->
<g id="Node000020" class="node">
<title>Node20</title>
<g id="a_Node000020"><a xlink:href="dispatcher_8cpp.html" target="_top" xlink:title=" ">
<polygon fill="white" stroke="#666666" points="1002.5,-156.5 874.5,-156.5 874.5,-137.5 1002.5,-137.5 1002.5,-156.5"/>
<text text-anchor="middle" x="938.5" y="-144.5" font-family="Helvetica,sans-Serif" font-size="10.00">src/core/dispatcher.cpp</text>
</a>
</g>
</g>
<!-- Node12&#45;&gt;Node20 -->
<g id="edge30_Node000012_Node000020" class="edge">
<title>Node12&#45;&gt;Node20</title>
<g id="a_edge30_Node000012_Node000020"><a xlink:title=" ">
<path fill="none" stroke="#63b8ff" d="M909.24,-189.61C917.18,-178.32 926.35,-165.28 932.28,-156.84"/>
<polygon fill="#63b8ff" stroke="#63b8ff" points="906.38,-187.6 903.49,-197.8 912.1,-191.63 906.38,-187.6"/>
</a>
</g>
</g>
<!-- Node13&#45;&gt;Node4 -->
<g id="edge17_Node000013_Node000004" class="edge">
<title>Node13&#45;&gt;Node4</title>
<g id="a_edge17_Node000013_Node000004"><a xlink:title=" ">
<path fill="none" stroke="#63b8ff" d="M1010.96,-130.98C953.53,-118.53 879.85,-101.93 866.5,-96 863.68,-94.75 793.02,-45.18 763.88,-24.71"/>
<polygon fill="#63b8ff" stroke="#63b8ff" points="1010.23,-134.41 1020.75,-133.1 1011.71,-127.57 1010.23,-134.41"/>
</a>
</g>
</g>
<!-- Node13&#45;&gt;Node14 -->
<g id="edge18_Node000013_Node000014" class="edge">
<title>Node13&#45;&gt;Node14</title>
<g id="a_edge18_Node000013_Node000014"><a xlink:title=" ">
<path fill="none" stroke="#63b8ff" d="M1103.19,-124.65C1112.71,-115.27 1123.62,-104.53 1132.11,-96.16"/>
<polygon fill="#63b8ff" stroke="#63b8ff" points="1100.6,-122.29 1095.93,-131.8 1105.51,-127.27 1100.6,-122.29"/>
</a>
</g>
</g>
<!-- Node13&#45;&gt;Node16 -->
<g id="edge21_Node000013_Node000016" class="edge">
<title>Node13&#45;&gt;Node16</title>
<g id="a_edge21_Node000013_Node000016"><a xlink:title=" ">
<path fill="none" stroke="#63b8ff" d="M1048.02,-126.69C1030.88,-116.82 1010.41,-105.01 994.8,-96.01"/>
<polygon fill="#63b8ff" stroke="#63b8ff" points="1046.73,-129.99 1057.14,-131.95 1050.23,-123.93 1046.73,-129.99"/>
</a>
</g>
</g>
<!-- Node13&#45;&gt;Node18 -->
<g id="edge24_Node000013_Node000018" class="edge">
<title>Node13&#45;&gt;Node18</title>
<g id="a_edge24_Node000013_Node000018"><a xlink:title=" ">
<path fill="none" stroke="#63b8ff" d="M1139.52,-129.12C1174.99,-118.8 1219.83,-105.76 1253.33,-96.01"/>
<polygon fill="#63b8ff" stroke="#63b8ff" points="1138.4,-125.8 1129.78,-131.95 1140.36,-132.52 1138.4,-125.8"/>
</a>
</g>
</g>
<!-- Node14&#45;&gt;Node4 -->
<g id="edge19_Node000014_Node000004" class="edge">
<title>Node14&#45;&gt;Node4</title>
<g id="a_edge19_Node000014_Node000004"><a xlink:title=" ">
<path fill="none" stroke="#63b8ff" d="M1074.16,-65.81C976.65,-48.82 874.62,-33.61 811.64,-24.52"/>
<polygon fill="#63b8ff" stroke="#63b8ff" points="1073.74,-69.28 1084.19,-67.56 1074.94,-62.39 1073.74,-69.28"/>
</a>
</g>
</g>
<!-- Node15 -->
<g id="Node000015" class="node">
<title>Node15</title>
<g id="a_Node000015"><a xlink:href="server_8cpp.html" target="_top" xlink:title=" ">
<polygon fill="white" stroke="#666666" points="1205.5,-24.5 1087.5,-24.5 1087.5,-5.5 1205.5,-5.5 1205.5,-24.5"/>
<text text-anchor="middle" x="1146.5" y="-12.5" font-family="Helvetica,sans-Serif" font-size="10.00">src/server/server.cpp</text>
</a>
</g>
</g>
<!-- Node14&#45;&gt;Node15 -->
<g id="edge20_Node000014_Node000015" class="edge">
<title>Node14&#45;&gt;Node15</title>
<g id="a_edge20_Node000014_Node000015"><a xlink:title=" ">
<path fill="none" stroke="#63b8ff" d="M1146.5,-55.6C1146.5,-44.8 1146.5,-32.78 1146.5,-24.84"/>
<polygon fill="#63b8ff" stroke="#63b8ff" points="1143,-55.8 1146.5,-65.8 1150,-55.8 1143,-55.8"/>
</a>
</g>
</g>
<!-- Node16&#45;&gt;Node4 -->
<g id="edge22_Node000016_Node000004" class="edge">
<title>Node16&#45;&gt;Node4</title>
<g id="a_edge22_Node000016_Node000004"><a xlink:title=" ">
<path fill="none" stroke="#63b8ff" d="M912.77,-63.13C870.26,-50.71 814.23,-34.33 780.65,-24.52"/>
<polygon fill="#63b8ff" stroke="#63b8ff" points="911.86,-66.51 922.44,-65.95 913.82,-59.79 911.86,-66.51"/>
</a>
</g>
</g>
<!-- Node17 -->
<g id="Node000017" class="node">
<title>Node17</title>
<g id="a_Node000017"><a xlink:href="framed__stdio__server__transport_8cpp.html" target="_top" xlink:title=" ">
<polygon fill="white" stroke="#666666" points="1046.5,-30 894.5,-30 894.5,0 1046.5,0 1046.5,-30"/>
<text text-anchor="start" x="902.5" y="-18" font-family="Helvetica,sans-Serif" font-size="10.00">src/transports/framed</text>
<text text-anchor="middle" x="970.5" y="-7" font-family="Helvetica,sans-Serif" font-size="10.00">_stdio_server_transport.cpp</text>
</a>
</g>
</g>
<!-- Node16&#45;&gt;Node17 -->
<g id="edge23_Node000016_Node000017" class="edge">
<title>Node16&#45;&gt;Node17</title>
<g id="a_edge23_Node000016_Node000017"><a xlink:title=" ">
<path fill="none" stroke="#63b8ff" d="M970.5,-55.54C970.5,-46.96 970.5,-37.61 970.5,-30.16"/>
<polygon fill="#63b8ff" stroke="#63b8ff" points="967,-55.8 970.5,-65.8 974,-55.8 967,-55.8"/>
</a>
</g>
</g>
<!-- Node18&#45;&gt;Node4 -->
<g id="edge25_Node000018_Node000004" class="edge">
<title>Node18&#45;&gt;Node4</title>
<g id="a_edge25_Node000018_Node000004"><a xlink:title=" ">
<path fill="none" stroke="#63b8ff" d="M1216.39,-66.01C1161.71,-59.49 943.23,-36.29 826.13,-23.89"/>
<polygon fill="#63b8ff" stroke="#63b8ff" points="1216.07,-69.5 1226.43,-67.27 1216.94,-62.55 1216.07,-69.5"/>
</a>
</g>
</g>
<!-- Node19 -->
<g id="Node000019" class="node">
<title>Node19</title>
<g id="a_Node000019"><a xlink:href="stdio__server__transport_8cpp.html" target="_top" xlink:title=" ">
<polygon fill="white" stroke="#666666" points="1362.5,-30 1240.5,-30 1240.5,0 1362.5,0 1362.5,-30"/>
<text text-anchor="start" x="1248.5" y="-18" font-family="Helvetica,sans-Serif" font-size="10.00">src/transports/stdio</text>
<text text-anchor="middle" x="1301.5" y="-7" font-family="Helvetica,sans-Serif" font-size="10.00">_server_transport.cpp</text>
</a>
</g>
</g>
<!-- Node18&#45;&gt;Node19 -->
<g id="edge26_Node000018_Node000019" class="edge">
<title>Node18&#45;&gt;Node19</title>
<g id="a_edge26_Node000018_Node000019"><a xlink:title=" ">
<path fill="none" stroke="#63b8ff" d="M1301.5,-55.54C1301.5,-46.96 1301.5,-37.61 1301.5,-30.16"/>
<polygon fill="#63b8ff" stroke="#63b8ff" points="1298,-55.8 1301.5,-65.8 1305,-55.8 1298,-55.8"/>
</a>
</g>
</g>
<!-- Node21&#45;&gt;Node4 -->
<g id="edge33_Node000021_Node000004" class="edge">
<title>Node21&#45;&gt;Node4</title>
<g id="a_edge33_Node000021_Node000004"><a xlink:title=" ">
<path fill="none" stroke="#63b8ff" d="M726.08,-253.82C732.09,-197.66 746.74,-60.5 750.57,-24.68"/>
<polygon fill="#63b8ff" stroke="#63b8ff" points="722.59,-253.6 725.01,-263.91 729.55,-254.34 722.59,-253.6"/>
</a>
</g>
</g>
<!-- Node21&#45;&gt;Node12 -->
<g id="edge32_Node000021_Node000012" class="edge">
<title>Node21&#45;&gt;Node12</title>
<g id="a_edge32_Node000021_Node000012"><a xlink:title=" ">
<path fill="none" stroke="#63b8ff" d="M770.46,-260.32C797.51,-250.14 831.05,-237.51 856.28,-228.01"/>
<polygon fill="#63b8ff" stroke="#63b8ff" points="768.93,-257.16 760.81,-263.95 771.4,-263.71 768.93,-257.16"/>
</a>
</g>
</g>
<!-- Node22 -->
<g id="Node000022" class="node">
<title>Node22</title>
<g id="a_Node000022"><a xlink:href="core_2request_8cpp.html" target="_top" xlink:title=" ">
<polygon fill="white" stroke="#666666" points="704,-222.5 589,-222.5 589,-203.5 704,-203.5 704,-222.5"/>
<text text-anchor="middle" x="646.5" y="-210.5" font-family="Helvetica,sans-Serif" font-size="10.00">src/core/request.cpp</text>
</a>
</g>
</g>
<!-- Node21&#45;&gt;Node22 -->
<g id="edge34_Node000021_Node000022" class="edge">
<title>Node21&#45;&gt;Node22</title>
<g id="a_edge34_Node000021_Node000022"><a xlink:title=" ">
<path fill="none" stroke="#63b8ff" d="M698.55,-257.26C684.54,-245.61 667.78,-231.69 657.14,-222.84"/>
<polygon fill="#63b8ff" stroke="#63b8ff" points="696.48,-260.1 706.41,-263.8 700.96,-254.71 696.48,-260.1"/>
</a>
</g>
</g>
<!-- Node23&#45;&gt;Node4 -->
<g id="edge37_Node000023_Node000004" class="edge">
<title>Node23&#45;&gt;Node4</title>
<g id="a_edge37_Node000023_Node000004"><a xlink:title=" ">
<path fill="none" stroke="#63b8ff" d="M874.23,-260C857.35,-252.37 840.06,-241.94 827.5,-228 770.7,-164.97 755.59,-56.47 752.3,-24.87"/>
<polygon fill="#63b8ff" stroke="#63b8ff" points="872.96,-263.26 883.53,-263.95 875.69,-256.82 872.96,-263.26"/>
</a>
</g>
</g>
<!-- Node23&#45;&gt;Node12 -->
<g id="edge36_Node000023_Node000012" class="edge">
<title>Node23&#45;&gt;Node12</title>
<g id="a_edge36_Node000023_Node000012"><a xlink:title=" ">
<path fill="none" stroke="#63b8ff" d="M917.82,-254.96C912.5,-246 906.58,-236.03 901.91,-228.16"/>
<polygon fill="#63b8ff" stroke="#63b8ff" points="914.95,-256.98 923.07,-263.8 920.97,-253.41 914.95,-256.98"/>
</a>
</g>
</g>
<!-- Node24 -->
<g id="Node000024" class="node">
<title>Node24</title>
<g id="a_Node000024"><a xlink:href="response_8cpp.html" target="_top" xlink:title=" ">
<polygon fill="white" stroke="#666666" points="1090.5,-222.5 968.5,-222.5 968.5,-203.5 1090.5,-203.5 1090.5,-222.5"/>
<text text-anchor="middle" x="1029.5" y="-210.5" font-family="Helvetica,sans-Serif" font-size="10.00">src/core/response.cpp</text>
</a>
</g>
</g>
<!-- Node23&#45;&gt;Node24 -->
<g id="edge38_Node000023_Node000024" class="edge">
<title>Node23&#45;&gt;Node24</title>
<g id="a_edge38_Node000023_Node000024"><a xlink:title=" ">
<path fill="none" stroke="#63b8ff" d="M961.82,-258.2C980.06,-246.29 1002.35,-231.73 1016.24,-222.66"/>
<polygon fill="#63b8ff" stroke="#63b8ff" points="959.71,-255.4 953.25,-263.8 963.54,-261.26 959.71,-255.4"/>
</a>
</g>
</g>
</g>
</svg>
