<?xml version="1.0" encoding="UTF-8" standalone="no"?>
<!DOCTYPE svg PUBLIC "-//W3C//DTD SVG 1.1//EN"
 "http://www.w3.org/Graphics/SVG/1.1/DTD/svg11.dtd">
<!-- Generated by graphviz version 2.43.0 (0)
 -->
<!-- Title: include/jsonrpc/core/types.hpp Pages: 1 -->
<svg width="1653pt" height="368pt"
 viewBox="0.00 0.00 1653.00 368.00" xmlns="http://www.w3.org/2000/svg" xmlns:xlink="http://www.w3.org/1999/xlink">
<g id="graph0" class="graph" transform="scale(1 1) rotate(0) translate(4 364)">
<title>include/jsonrpc/core/types.hpp</title>
<!-- Node1 -->
<g id="Node000001" class="node">
<title>Node1</title>
<g id="a_Node000001"><a xlink:title=" ">
<polygon fill="#999999" stroke="#666666" points="971.5,-360 857.5,-360 857.5,-330 971.5,-330 971.5,-360"/>
<text text-anchor="start" x="865.5" y="-348" font-family="Helvetica,sans-Serif" font-size="10.00">include/jsonrpc/core</text>
<text text-anchor="middle" x="914.5" y="-337" font-family="Helvetica,sans-Serif" font-size="10.00">/types.hpp</text>
</a>
</g>
</g>
<!-- Node2 -->
<g id="Node000002" class="node">
<title>Node2</title>
<g id="a_Node000002"><a xlink:href="client_8hpp.html" target="_top" xlink:title=" ">
<polygon fill="white" stroke="#666666" points="886.5,-228 766.5,-228 766.5,-198 886.5,-198 886.5,-228"/>
<text text-anchor="start" x="774.5" y="-216" font-family="Helvetica,sans-Serif" font-size="10.00">include/jsonrpc/client</text>
<text text-anchor="middle" x="826.5" y="-205" font-family="Helvetica,sans-Serif" font-size="10.00">/client.hpp</text>
</a>
</g>
</g>
<!-- Node1&#45;&gt;Node2 -->
<g id="edge1_Node000001_Node000002" class="edge">
<title>Node1&#45;&gt;Node2</title>
<g id="a_edge1_Node000001_Node000002"><a xlink:title=" ">
<path fill="none" stroke="#63b8ff" d="M879.69,-324.09C868.3,-316.05 856.53,-305.85 848.5,-294 834.77,-273.73 829.57,-245.1 827.63,-228.16"/>
<polygon fill="#63b8ff" stroke="#63b8ff" points="878,-327.17 888.26,-329.81 881.88,-321.35 878,-327.17"/>
</a>
</g>
</g>
<!-- Node3 -->
<g id="Node000003" class="node">
<title>Node3</title>
<g id="a_Node000003"><a xlink:href="jsonrpc_8hpp.html" target="_top" xlink:title=" ">
<polygon fill="white" stroke="#666666" points="904,-24.5 755,-24.5 755,-5.5 904,-5.5 904,-24.5"/>
<text text-anchor="middle" x="829.5" y="-12.5" font-family="Helvetica,sans-Serif" font-size="10.00">include/jsonrpc/jsonrpc.hpp</text>
</a>
</g>
</g>
<!-- Node1&#45;&gt;Node3 -->
<g id="edge48_Node000001_Node000003" class="edge">
<title>Node1&#45;&gt;Node3</title>
<g id="a_edge48_Node000001_Node000003"><a xlink:title=" ">
<path fill="none" stroke="#63b8ff" d="M847.22,-341.93C714,-337.25 421.23,-323.82 325.5,-294 257.08,-272.69 185.5,-285.66 185.5,-214 185.5,-214 185.5,-214 185.5,-146 185.5,-104.76 197.6,-87.96 232.5,-66 275.75,-38.79 604.34,-23.89 754.75,-18.44"/>
<polygon fill="#63b8ff" stroke="#63b8ff" points="847.19,-345.43 857.3,-342.28 847.43,-338.44 847.19,-345.43"/>
</a>
</g>
</g>
<!-- Node5 -->
<g id="Node000005" class="node">
<title>Node5</title>
<g id="a_Node000005"><a xlink:href="client__transport_8hpp.html" target="_top" xlink:title=" ">
<polygon fill="white" stroke="#666666" points="487,-294 370,-294 370,-264 487,-264 487,-294"/>
<text text-anchor="start" x="378" y="-282" font-family="Helvetica,sans-Serif" font-size="10.00">include/jsonrpc/core</text>
<text text-anchor="middle" x="428.5" y="-271" font-family="Helvetica,sans-Serif" font-size="10.00">/client_transport.hpp</text>
</a>
</g>
</g>
<!-- Node1&#45;&gt;Node5 -->
<g id="edge4_Node000001_Node000005" class="edge">
<title>Node1&#45;&gt;Node5</title>
<g id="a_edge4_Node000001_Node000005"><a xlink:title=" ">
<path fill="none" stroke="#63b8ff" d="M847.19,-335.14C751.6,-322.55 578.08,-299.7 487.35,-287.75"/>
<polygon fill="#63b8ff" stroke="#63b8ff" points="846.95,-338.63 857.32,-336.47 847.86,-331.69 846.95,-338.63"/>
</a>
</g>
</g>
<!-- Node6 -->
<g id="Node000006" class="node">
<title>Node6</title>
<g id="a_Node000006"><a xlink:href="framed__stdio__client__transport_8hpp.html" target="_top" xlink:title=" ">
<polygon fill="white" stroke="#666666" points="577,-228 390,-228 390,-198 577,-198 577,-228"/>
<text text-anchor="start" x="398" y="-216" font-family="Helvetica,sans-Serif" font-size="10.00">include/jsonrpc/transports</text>
<text text-anchor="middle" x="483.5" y="-205" font-family="Helvetica,sans-Serif" font-size="10.00">/framed_stdio_client_transport.hpp</text>
</a>
</g>
</g>
<!-- Node1&#45;&gt;Node6 -->
<g id="edge50_Node000001_Node000006" class="edge">
<title>Node1&#45;&gt;Node6</title>
<g id="a_edge50_Node000001_Node000006"><a xlink:title=" ">
<path fill="none" stroke="#63b8ff" d="M847.12,-333.07C799.46,-324.53 734.36,-311.22 678.5,-294 618.18,-275.4 550.61,-245.55 512.95,-228.05"/>
<polygon fill="#63b8ff" stroke="#63b8ff" points="846.56,-336.52 857.02,-334.82 847.78,-329.63 846.56,-336.52"/>
</a>
</g>
</g>
<!-- Node8 -->
<g id="Node000008" class="node">
<title>Node8</title>
<g id="a_Node000008"><a xlink:href="http__client__transport_8hpp.html" target="_top" xlink:title=" ">
<polygon fill="white" stroke="#666666" points="157,-228 14,-228 14,-198 157,-198 157,-228"/>
<text text-anchor="start" x="22" y="-216" font-family="Helvetica,sans-Serif" font-size="10.00">include/jsonrpc/transports</text>
<text text-anchor="middle" x="85.5" y="-205" font-family="Helvetica,sans-Serif" font-size="10.00">/http_client_transport.hpp</text>
</a>
</g>
</g>
<!-- Node1&#45;&gt;Node8 -->
<g id="edge57_Node000001_Node000008" class="edge">
<title>Node1&#45;&gt;Node8</title>
<g id="a_edge57_Node000001_Node000008"><a xlink:title=" ">
<path fill="none" stroke="#63b8ff" d="M847.33,-342.04C676.13,-336.69 232.59,-320.42 171.5,-294 138.37,-279.67 109.94,-246.91 95.55,-228.06"/>
<polygon fill="#63b8ff" stroke="#63b8ff" points="847.37,-345.54 857.48,-342.36 847.59,-338.55 847.37,-345.54"/>
</a>
</g>
</g>
<!-- Node10 -->
<g id="Node000010" class="node">
<title>Node10</title>
<g id="a_Node000010"><a xlink:href="stdio__client__transport_8hpp.html" target="_top" xlink:title=" ">
<polygon fill="white" stroke="#666666" points="359.5,-162 213.5,-162 213.5,-132 359.5,-132 359.5,-162"/>
<text text-anchor="start" x="221.5" y="-150" font-family="Helvetica,sans-Serif" font-size="10.00">include/jsonrpc/transports</text>
<text text-anchor="middle" x="286.5" y="-139" font-family="Helvetica,sans-Serif" font-size="10.00">/stdio_client_transport.hpp</text>
</a>
</g>
</g>
<!-- Node1&#45;&gt;Node10 -->
<g id="edge59_Node000001_Node000010" class="edge">
<title>Node1&#45;&gt;Node10</title>
<g id="a_edge59_Node000001_Node000010"><a xlink:title=" ">
<path fill="none" stroke="#63b8ff" d="M847.08,-341.15C708.75,-334.85 402.37,-318.3 361.5,-294 312.76,-265.02 294.48,-192.87 288.75,-162.18"/>
<polygon fill="#63b8ff" stroke="#63b8ff" points="847,-344.65 857.14,-341.61 847.31,-337.66 847,-344.65"/>
</a>
</g>
</g>
<!-- Node12 -->
<g id="Node000012" class="node">
<title>Node12</title>
<g id="a_Node000012"><a xlink:href="dispatcher_8hpp.html" target="_top" xlink:title=" ">
<polygon fill="white" stroke="#666666" points="1056.5,-228 942.5,-228 942.5,-198 1056.5,-198 1056.5,-228"/>
<text text-anchor="start" x="950.5" y="-216" font-family="Helvetica,sans-Serif" font-size="10.00">include/jsonrpc/core</text>
<text text-anchor="middle" x="999.5" y="-205" font-family="Helvetica,sans-Serif" font-size="10.00">/dispatcher.hpp</text>
</a>
</g>
</g>
<!-- Node1&#45;&gt;Node12 -->
<g id="edge16_Node000001_Node000012" class="edge">
<title>Node1&#45;&gt;Node12</title>
<g id="a_edge16_Node000001_Node000012"><a xlink:title=" ">
<path fill="none" stroke="#63b8ff" d="M949.54,-324.25C960.95,-316.22 972.68,-305.99 980.5,-294 993.76,-273.67 997.78,-245.06 999,-228.14"/>
<polygon fill="#63b8ff" stroke="#63b8ff" points="947.35,-321.5 940.95,-329.95 951.22,-327.34 947.35,-321.5"/>
</a>
</g>
</g>
<!-- Node13 -->
<g id="Node000013" class="node">
<title>Node13</title>
<g id="a_Node000013"><a xlink:href="server__transport_8hpp.html" target="_top" xlink:title=" ">
<polygon fill="white" stroke="#666666" points="1283,-162 1162,-162 1162,-132 1283,-132 1283,-162"/>
<text text-anchor="start" x="1170" y="-150" font-family="Helvetica,sans-Serif" font-size="10.00">include/jsonrpc/core</text>
<text text-anchor="middle" x="1222.5" y="-139" font-family="Helvetica,sans-Serif" font-size="10.00">/server_transport.hpp</text>
</a>
</g>
</g>
<!-- Node1&#45;&gt;Node13 -->
<g id="edge47_Node000001_Node000013" class="edge">
<title>Node1&#45;&gt;Node13</title>
<g id="a_edge47_Node000001_Node000013"><a xlink:title=" ">
<path fill="none" stroke="#63b8ff" d="M981.71,-343.5C1066.75,-341.28 1206.1,-331.78 1238.5,-294 1271.03,-256.06 1244.37,-190.63 1230.09,-162.05"/>
<polygon fill="#63b8ff" stroke="#63b8ff" points="981.53,-340 971.61,-343.74 981.69,-347 981.53,-340"/>
</a>
</g>
</g>
<!-- Node14 -->
<g id="Node000014" class="node">
<title>Node14</title>
<g id="a_Node000014"><a xlink:href="server_8hpp.html" target="_top" xlink:title=" ">
<polygon fill="white" stroke="#666666" points="1233.5,-96 1109.5,-96 1109.5,-66 1233.5,-66 1233.5,-96"/>
<text text-anchor="start" x="1117.5" y="-84" font-family="Helvetica,sans-Serif" font-size="10.00">include/jsonrpc/server</text>
<text text-anchor="middle" x="1171.5" y="-73" font-family="Helvetica,sans-Serif" font-size="10.00">/server.hpp</text>
</a>
</g>
</g>
<!-- Node1&#45;&gt;Node14 -->
<g id="edge49_Node000001_Node000014" class="edge">
<title>Node1&#45;&gt;Node14</title>
<g id="a_edge49_Node000001_Node000014"><a xlink:title=" ">
<path fill="none" stroke="#63b8ff" d="M981.94,-342.82C1070.35,-339.87 1218.86,-329.58 1258.5,-294 1313.25,-244.86 1333.4,-193.15 1292.5,-132 1283.88,-119.1 1250.05,-105.75 1220.34,-96.08"/>
<polygon fill="#63b8ff" stroke="#63b8ff" points="981.62,-339.33 971.73,-343.14 981.83,-346.33 981.62,-339.33"/>
</a>
</g>
</g>
<!-- Node16 -->
<g id="Node000016" class="node">
<title>Node16</title>
<g id="a_Node000016"><a xlink:href="framed__stdio__server__transport_8hpp.html" target="_top" xlink:title=" ">
<polygon fill="white" stroke="#666666" points="1645,-96 1454,-96 1454,-66 1645,-66 1645,-96"/>
<text text-anchor="start" x="1462" y="-84" font-family="Helvetica,sans-Serif" font-size="10.00">include/jsonrpc/transports</text>
<text text-anchor="middle" x="1549.5" y="-73" font-family="Helvetica,sans-Serif" font-size="10.00">/framed_stdio_server_transport.hpp</text>
</a>
</g>
</g>
<!-- Node1&#45;&gt;Node16 -->
<g id="edge51_Node000001_Node000016" class="edge">
<title>Node1&#45;&gt;Node16</title>
<g id="a_edge51_Node000001_Node000016"><a xlink:title=" ">
<path fill="none" stroke="#63b8ff" d="M981.92,-342.43C1128.43,-338.43 1466.03,-325.84 1506.5,-294 1568.04,-245.58 1557.86,-135.41 1551.96,-96.19"/>
<polygon fill="#63b8ff" stroke="#63b8ff" points="981.61,-338.94 971.7,-342.7 981.79,-345.93 981.61,-338.94"/>
</a>
</g>
</g>
<!-- Node18 -->
<g id="Node000018" class="node">
<title>Node18</title>
<g id="a_Node000018"><a xlink:href="http__server__transport_8hpp.html" target="_top" xlink:title=" ">
<polygon fill="white" stroke="#666666" points="1397.5,-96 1251.5,-96 1251.5,-66 1397.5,-66 1397.5,-96"/>
<text text-anchor="start" x="1259.5" y="-84" font-family="Helvetica,sans-Serif" font-size="10.00">include/jsonrpc/transports</text>
<text text-anchor="middle" x="1324.5" y="-73" font-family="Helvetica,sans-Serif" font-size="10.00">/http_server_transport.hpp</text>
</a>
</g>
</g>
<!-- Node1&#45;&gt;Node18 -->
<g id="edge58_Node000001_Node000018" class="edge">
<title>Node1&#45;&gt;Node18</title>
<g id="a_edge58_Node000001_Node000018"><a xlink:title=" ">
<path fill="none" stroke="#63b8ff" d="M982.03,-342.4C1124.19,-338.42 1444.34,-325.97 1481.5,-294 1514.29,-265.79 1517.86,-236.16 1497.5,-198 1469.67,-145.83 1406.82,-112.99 1365.04,-96.06"/>
<polygon fill="#63b8ff" stroke="#63b8ff" points="981.6,-338.91 971.7,-342.68 981.79,-345.91 981.6,-338.91"/>
</a>
</g>
</g>
<!-- Node20 -->
<g id="Node000020" class="node">
<title>Node20</title>
<g id="a_Node000020"><a xlink:href="stdio__server__transport_8hpp.html" target="_top" xlink:title=" ">
<polygon fill="white" stroke="#666666" points="1053.5,-96 903.5,-96 903.5,-66 1053.5,-66 1053.5,-96"/>
<text text-anchor="start" x="911.5" y="-84" font-family="Helvetica,sans-Serif" font-size="10.00">include/jsonrpc/transports</text>
<text text-anchor="middle" x="978.5" y="-73" font-family="Helvetica,sans-Serif" font-size="10.00">/stdio_server_transport.hpp</text>
</a>
</g>
</g>
<!-- Node1&#45;&gt;Node20 -->
<g id="edge60_Node000001_Node000020" class="edge">
<title>Node1&#45;&gt;Node20</title>
<g id="a_edge60_Node000001_Node000020"><a xlink:title=" ">
<path fill="none" stroke="#63b8ff" d="M981.53,-338.33C1050.79,-328.49 1155.62,-301.59 1205.5,-228 1212.98,-216.96 1212.46,-209.37 1205.5,-198 1194.32,-179.74 1070.35,-122.81 1010.49,-96.1"/>
<polygon fill="#63b8ff" stroke="#63b8ff" points="981.03,-334.87 971.58,-339.66 981.95,-341.81 981.03,-334.87"/>
</a>
</g>
</g>
<!-- Node23 -->
<g id="Node000023" class="node">
<title>Node23</title>
<g id="a_Node000023"><a xlink:href="request_8hpp.html" target="_top" xlink:title=" ">
<polygon fill="white" stroke="#666666" points="801.5,-294 687.5,-294 687.5,-264 801.5,-264 801.5,-294"/>
<text text-anchor="start" x="695.5" y="-282" font-family="Helvetica,sans-Serif" font-size="10.00">include/jsonrpc/core</text>
<text text-anchor="middle" x="744.5" y="-271" font-family="Helvetica,sans-Serif" font-size="10.00">/request.hpp</text>
</a>
</g>
</g>
<!-- Node1&#45;&gt;Node23 -->
<g id="edge37_Node000001_Node000023" class="edge">
<title>Node1&#45;&gt;Node23</title>
<g id="a_edge37_Node000001_Node000023"><a xlink:title=" ">
<path fill="none" stroke="#63b8ff" d="M867.54,-326.32C840.49,-316.14 806.95,-303.51 781.72,-294.01"/>
<polygon fill="#63b8ff" stroke="#63b8ff" points="866.6,-329.71 877.19,-329.95 869.07,-323.16 866.6,-329.71"/>
</a>
</g>
</g>
<!-- Node25 -->
<g id="Node000025" class="node">
<title>Node25</title>
<g id="a_Node000025"><a xlink:href="response_8hpp.html" target="_top" xlink:title=" ">
<polygon fill="white" stroke="#666666" points="971.5,-294 857.5,-294 857.5,-264 971.5,-264 971.5,-294"/>
<text text-anchor="start" x="865.5" y="-282" font-family="Helvetica,sans-Serif" font-size="10.00">include/jsonrpc/core</text>
<text text-anchor="middle" x="914.5" y="-271" font-family="Helvetica,sans-Serif" font-size="10.00">/response.hpp</text>
</a>
</g>
</g>
<!-- Node1&#45;&gt;Node25 -->
<g id="edge42_Node000001_Node000025" class="edge">
<title>Node1&#45;&gt;Node25</title>
<g id="a_edge42_Node000001_Node000025"><a xlink:title=" ">
<path fill="none" stroke="#63b8ff" d="M914.5,-319.54C914.5,-310.96 914.5,-301.61 914.5,-294.16"/>
<polygon fill="#63b8ff" stroke="#63b8ff" points="911,-319.8 914.5,-329.8 918,-319.8 911,-319.8"/>
</a>
</g>
</g>
<!-- Node27 -->
<g id="Node000027" class="node">
<title>Node27</title>
<g id="a_Node000027"><a xlink:href="framed__transport_8hpp.html" target="_top" xlink:title=" ">
<polygon fill="white" stroke="#666666" points="1472,-294 1329,-294 1329,-264 1472,-264 1472,-294"/>
<text text-anchor="start" x="1337" y="-282" font-family="Helvetica,sans-Serif" font-size="10.00">include/jsonrpc/transports</text>
<text text-anchor="middle" x="1400.5" y="-271" font-family="Helvetica,sans-Serif" font-size="10.00">/framed_transport.hpp</text>
</a>
</g>
</g>
<!-- Node1&#45;&gt;Node27 -->
<g id="edge52_Node000001_Node000027" class="edge">
<title>Node1&#45;&gt;Node27</title>
<g id="a_edge52_Node000001_Node000027"><a xlink:title=" ">
<path fill="none" stroke="#63b8ff" d="M981.93,-336.34C1061.52,-327.13 1197.82,-310.78 1314.5,-294 1319.14,-293.33 1323.92,-292.62 1328.73,-291.89"/>
<polygon fill="#63b8ff" stroke="#63b8ff" points="981.09,-332.92 971.56,-337.54 981.89,-339.87 981.09,-332.92"/>
</a>
</g>
</g>
<!-- Node2&#45;&gt;Node3 -->
<g id="edge2_Node000002_Node000003" class="edge">
<title>Node2&#45;&gt;Node3</title>
<g id="a_edge2_Node000002_Node000003"><a xlink:title=" ">
<path fill="none" stroke="#63b8ff" d="M823.57,-187.61C822.72,-179.48 821.92,-170.36 821.5,-162 819.37,-119.39 818.12,-108.53 821.5,-66 822.66,-51.45 825.68,-34.75 827.66,-24.8"/>
<polygon fill="#63b8ff" stroke="#63b8ff" points="820.1,-188.03 824.67,-197.59 827.05,-187.26 820.1,-188.03"/>
</a>
</g>
</g>
<!-- Node4 -->
<g id="Node000004" class="node">
<title>Node4</title>
<g id="a_Node000004"><a xlink:href="client_8cpp.html" target="_top" xlink:title=" ">
<polygon fill="white" stroke="#666666" points="769,-156.5 658,-156.5 658,-137.5 769,-137.5 769,-156.5"/>
<text text-anchor="middle" x="713.5" y="-144.5" font-family="Helvetica,sans-Serif" font-size="10.00">src/client/client.cpp</text>
</a>
</g>
</g>
<!-- Node2&#45;&gt;Node4 -->
<g id="edge3_Node000002_Node000004" class="edge">
<title>Node2&#45;&gt;Node4</title>
<g id="a_edge3_Node000002_Node000004"><a xlink:title=" ">
<path fill="none" stroke="#63b8ff" d="M792.91,-192.97C771.53,-180.87 744.88,-165.78 728.54,-156.52"/>
<polygon fill="#63b8ff" stroke="#63b8ff" points="791.28,-196.07 801.7,-197.95 794.73,-189.98 791.28,-196.07"/>
</a>
</g>
</g>
<!-- Node5&#45;&gt;Node2 -->
<g id="edge5_Node000005_Node000002" class="edge">
<title>Node5&#45;&gt;Node2</title>
<g id="a_edge5_Node000005_Node000002"><a xlink:title=" ">
<path fill="none" stroke="#63b8ff" d="M497.15,-268.57C563.82,-259.18 667.81,-243.9 757.5,-228 760.39,-227.49 763.34,-226.95 766.32,-226.39"/>
<polygon fill="#63b8ff" stroke="#63b8ff" points="496.6,-265.12 487.18,-269.97 497.57,-272.05 496.6,-265.12"/>
</a>
</g>
</g>
<!-- Node5&#45;&gt;Node3 -->
<g id="edge6_Node000005_Node000003" class="edge">
<title>Node5&#45;&gt;Node3</title>
<g id="a_edge6_Node000005_Node000003"><a xlink:title=" ">
<path fill="none" stroke="#63b8ff" d="M401.8,-256.78C393.7,-248.73 385.8,-238.85 381.5,-228 365.26,-187.01 375.05,-162.9 406.5,-132 458.65,-80.77 670.51,-41.13 773.18,-24.52"/>
<polygon fill="#63b8ff" stroke="#63b8ff" points="399.5,-259.41 409.21,-263.63 404.25,-254.27 399.5,-259.41"/>
</a>
</g>
</g>
<!-- Node5&#45;&gt;Node6 -->
<g id="edge7_Node000005_Node000006" class="edge">
<title>Node5&#45;&gt;Node6</title>
<g id="a_edge7_Node000005_Node000006"><a xlink:title=" ">
<path fill="none" stroke="#63b8ff" d="M447.33,-256.09C455.27,-246.85 464.28,-236.36 471.33,-228.16"/>
<polygon fill="#63b8ff" stroke="#63b8ff" points="444.57,-253.93 440.71,-263.8 449.88,-258.49 444.57,-253.93"/>
</a>
</g>
</g>
<!-- Node5&#45;&gt;Node8 -->
<g id="edge10_Node000005_Node000008" class="edge">
<title>Node5&#45;&gt;Node8</title>
<g id="a_edge10_Node000005_Node000008"><a xlink:title=" ">
<path fill="none" stroke="#63b8ff" d="M360,-265.22C301.25,-254.26 216.88,-238.51 157.22,-227.38"/>
<polygon fill="#63b8ff" stroke="#63b8ff" points="359.45,-268.68 369.93,-267.07 360.74,-261.8 359.45,-268.68"/>
</a>
</g>
</g>
<!-- Node5&#45;&gt;Node10 -->
<g id="edge13_Node000005_Node000010" class="edge">
<title>Node5&#45;&gt;Node10</title>
<g id="a_edge13_Node000005_Node000010"><a xlink:title=" ">
<path fill="none" stroke="#63b8ff" d="M392.22,-259C377.81,-250.55 361.58,-239.82 348.5,-228 326.34,-207.97 306.27,-179.26 295.29,-162.24"/>
<polygon fill="#63b8ff" stroke="#63b8ff" points="390.5,-262.05 400.92,-263.96 393.96,-255.97 390.5,-262.05"/>
</a>
</g>
</g>
<!-- Node6&#45;&gt;Node3 -->
<g id="edge8_Node000006_Node000003" class="edge">
<title>Node6&#45;&gt;Node3</title>
<g id="a_edge8_Node000006_Node000003"><a xlink:title=" ">
<path fill="none" stroke="#63b8ff" d="M529.34,-193.36C544.56,-185.45 560.62,-175.01 572.5,-162 604.02,-127.48 579.43,-95.74 615.5,-66 654.35,-33.96 710.04,-21.67 754.86,-17.28"/>
<polygon fill="#63b8ff" stroke="#63b8ff" points="527.44,-190.39 520.02,-197.96 530.54,-196.67 527.44,-190.39"/>
</a>
</g>
</g>
<!-- Node7 -->
<g id="Node000007" class="node">
<title>Node7</title>
<g id="a_Node000007"><a xlink:href="framed__stdio__client__transport_8cpp.html" target="_top" xlink:title=" ">
<polygon fill="white" stroke="#666666" points="563.5,-162 415.5,-162 415.5,-132 563.5,-132 563.5,-162"/>
<text text-anchor="start" x="423.5" y="-150" font-family="Helvetica,sans-Serif" font-size="10.00">src/transports/framed</text>
<text text-anchor="middle" x="489.5" y="-139" font-family="Helvetica,sans-Serif" font-size="10.00">_stdio_client_transport.cpp</text>
</a>
</g>
</g>
<!-- Node6&#45;&gt;Node7 -->
<g id="edge9_Node000006_Node000007" class="edge">
<title>Node6&#45;&gt;Node7</title>
<g id="a_edge9_Node000006_Node000007"><a xlink:title=" ">
<path fill="none" stroke="#63b8ff" d="M485.77,-187.83C486.58,-179.17 487.47,-169.7 488.17,-162.16"/>
<polygon fill="#63b8ff" stroke="#63b8ff" points="482.28,-187.51 484.83,-197.8 489.25,-188.17 482.28,-187.51"/>
</a>
</g>
</g>
<!-- Node8&#45;&gt;Node3 -->
<g id="edge11_Node000008_Node000003" class="edge">
<title>Node8&#45;&gt;Node3</title>
<g id="a_edge11_Node000008_Node000003"><a xlink:title=" ">
<path fill="none" stroke="#63b8ff" d="M105.87,-190.36C113.23,-181.9 121.25,-171.87 127.5,-162 152.6,-122.34 132.99,-92.83 171.5,-66 218.44,-33.3 592.74,-21.19 754.96,-17.44"/>
<polygon fill="#63b8ff" stroke="#63b8ff" points="103.16,-188.14 99.1,-197.93 108.37,-192.81 103.16,-188.14"/>
</a>
</g>
</g>
<!-- Node9 -->
<g id="Node000009" class="node">
<title>Node9</title>
<g id="a_Node000009"><a xlink:href="http__client__transport_8cpp.html" target="_top" xlink:title=" ">
<polygon fill="white" stroke="#666666" points="119,-162 0,-162 0,-132 119,-132 119,-162"/>
<text text-anchor="start" x="8" y="-150" font-family="Helvetica,sans-Serif" font-size="10.00">src/transports/http</text>
<text text-anchor="middle" x="59.5" y="-139" font-family="Helvetica,sans-Serif" font-size="10.00">_client_transport.cpp</text>
</a>
</g>
</g>
<!-- Node8&#45;&gt;Node9 -->
<g id="edge12_Node000008_Node000009" class="edge">
<title>Node8&#45;&gt;Node9</title>
<g id="a_edge12_Node000008_Node000009"><a xlink:title=" ">
<path fill="none" stroke="#63b8ff" d="M75.91,-188.39C72.33,-179.59 68.38,-169.86 65.25,-162.16"/>
<polygon fill="#63b8ff" stroke="#63b8ff" points="72.72,-189.85 79.73,-197.8 79.21,-187.21 72.72,-189.85"/>
</a>
</g>
</g>
<!-- Node10&#45;&gt;Node3 -->
<g id="edge14_Node000010_Node000003" class="edge">
<title>Node10&#45;&gt;Node3</title>
<g id="a_edge14_Node000010_Node000003"><a xlink:title=" ">
<path fill="none" stroke="#63b8ff" d="M262.13,-125.04C244.93,-107.77 227.54,-83.38 243.5,-66 277.43,-29.05 604.53,-19.37 754.75,-16.86"/>
<polygon fill="#63b8ff" stroke="#63b8ff" points="259.74,-127.6 269.39,-131.97 264.57,-122.53 259.74,-127.6"/>
</a>
</g>
</g>
<!-- Node11 -->
<g id="Node000011" class="node">
<title>Node11</title>
<g id="a_Node000011"><a xlink:href="stdio__client__transport_8cpp.html" target="_top" xlink:title=" ">
<polygon fill="white" stroke="#666666" points="371,-96 252,-96 252,-66 371,-66 371,-96"/>
<text text-anchor="start" x="260" y="-84" font-family="Helvetica,sans-Serif" font-size="10.00">src/transports/stdio</text>
<text text-anchor="middle" x="311.5" y="-73" font-family="Helvetica,sans-Serif" font-size="10.00">_client_transport.cpp</text>
</a>
</g>
</g>
<!-- Node10&#45;&gt;Node11 -->
<g id="edge15_Node000010_Node000011" class="edge">
<title>Node10&#45;&gt;Node11</title>
<g id="a_edge15_Node000010_Node000011"><a xlink:title=" ">
<path fill="none" stroke="#63b8ff" d="M295.72,-122.39C299.16,-113.59 302.96,-103.86 305.97,-96.16"/>
<polygon fill="#63b8ff" stroke="#63b8ff" points="292.43,-121.21 292.05,-131.8 298.95,-123.76 292.43,-121.21"/>
</a>
</g>
</g>
<!-- Node12&#45;&gt;Node3 -->
<g id="edge31_Node000012_Node000003" class="edge">
<title>Node12&#45;&gt;Node3</title>
<g id="a_edge31_Node000012_Node000003"><a xlink:title=" ">
<path fill="none" stroke="#63b8ff" d="M941.59,-194.01C924.11,-186.36 906,-175.9 892.5,-162 887.28,-156.63 845.64,-55.46 833.08,-24.76"/>
<polygon fill="#63b8ff" stroke="#63b8ff" points="940.63,-197.4 951.2,-197.98 943.3,-190.93 940.63,-197.4"/>
</a>
</g>
</g>
<!-- Node12&#45;&gt;Node10 -->
<g id="edge34_Node000012_Node000010" class="edge">
<title>Node12&#45;&gt;Node10</title>
<g id="a_edge34_Node000012_Node000010"><a xlink:title=" ">
<path fill="none" stroke="#63b8ff" d="M932.23,-202.34C920.02,-200.76 907.39,-199.24 895.5,-198 678.75,-175.45 623.44,-182.63 406.5,-162 391.36,-160.56 375.17,-158.81 359.74,-157.05"/>
<polygon fill="#63b8ff" stroke="#63b8ff" points="931.99,-205.84 942.36,-203.68 932.9,-198.9 931.99,-205.84"/>
</a>
</g>
</g>
<!-- Node12&#45;&gt;Node13 -->
<g id="edge17_Node000012_Node000013" class="edge">
<title>Node12&#45;&gt;Node13</title>
<g id="a_edge17_Node000012_Node000013"><a xlink:title=" ">
<path fill="none" stroke="#63b8ff" d="M1058.31,-195.12C1094.27,-184.8 1139.72,-171.76 1173.68,-162.01"/>
<polygon fill="#63b8ff" stroke="#63b8ff" points="1057.08,-191.83 1048.44,-197.95 1059.02,-198.56 1057.08,-191.83"/>
</a>
</g>
</g>
<!-- Node12&#45;&gt;Node14 -->
<g id="edge32_Node000012_Node000014" class="edge">
<title>Node12&#45;&gt;Node14</title>
<g id="a_edge32_Node000012_Node000014"><a xlink:title=" ">
<path fill="none" stroke="#63b8ff" d="M1026.6,-191.52C1061.79,-164.92 1122.3,-119.18 1152.79,-96.14"/>
<polygon fill="#63b8ff" stroke="#63b8ff" points="1024.1,-189.02 1018.23,-197.84 1028.32,-194.6 1024.1,-189.02"/>
</a>
</g>
</g>
<!-- Node12&#45;&gt;Node18 -->
<g id="edge33_Node000012_Node000018" class="edge">
<title>Node12&#45;&gt;Node18</title>
<g id="a_edge33_Node000012_Node000018"><a xlink:title=" ">
<path fill="none" stroke="#63b8ff" d="M1066.76,-197.97C1168.89,-182.18 1215.17,-223.74 1292.5,-162 1312.96,-145.67 1320.4,-114.28 1323.06,-96.05"/>
<polygon fill="#63b8ff" stroke="#63b8ff" points="1065.97,-194.55 1056.7,-199.68 1067.15,-201.45 1065.97,-194.55"/>
</a>
</g>
</g>
<!-- Node12&#45;&gt;Node20 -->
<g id="edge35_Node000012_Node000020" class="edge">
<title>Node12&#45;&gt;Node20</title>
<g id="a_edge35_Node000012_Node000020"><a xlink:title=" ">
<path fill="none" stroke="#63b8ff" d="M1021.53,-190.14C1034.91,-174.11 1047.76,-151.78 1038.5,-132 1031.37,-116.77 1017.07,-104.57 1004.22,-96.03"/>
<polygon fill="#63b8ff" stroke="#63b8ff" points="1018.65,-188.11 1014.61,-197.9 1023.87,-192.77 1018.65,-188.11"/>
</a>
</g>
</g>
<!-- Node22 -->
<g id="Node000022" class="node">
<title>Node22</title>
<g id="a_Node000022"><a xlink:href="dispatcher_8cpp.html" target="_top" xlink:title=" ">
<polygon fill="white" stroke="#666666" points="1029.5,-156.5 901.5,-156.5 901.5,-137.5 1029.5,-137.5 1029.5,-156.5"/>
<text text-anchor="middle" x="965.5" y="-144.5" font-family="Helvetica,sans-Serif" font-size="10.00">src/core/dispatcher.cpp</text>
</a>
</g>
</g>
<!-- Node12&#45;&gt;Node22 -->
<g id="edge36_Node000012_Node000022" class="edge">
<title>Node12&#45;&gt;Node22</title>
<g id="a_edge36_Node000012_Node000022"><a xlink:title=" ">
<path fill="none" stroke="#63b8ff" d="M987.25,-188.95C981.34,-177.81 974.59,-165.11 970.2,-156.84"/>
<polygon fill="#63b8ff" stroke="#63b8ff" points="984.17,-190.61 991.95,-197.8 990.35,-187.32 984.17,-190.61"/>
</a>
</g>
</g>
<!-- Node13&#45;&gt;Node3 -->
<g id="edge18_Node000013_Node000003" class="edge">
<title>Node13&#45;&gt;Node3</title>
<g id="a_edge18_Node000013_Node000003"><a xlink:title=" ">
<path fill="none" stroke="#63b8ff" d="M1170.57,-128.4C1148.32,-119.93 1122.45,-108.82 1100.5,-96 1081.92,-85.15 1081.97,-75.16 1062.5,-66 1045.65,-58.07 937.31,-36.57 874.46,-24.51"/>
<polygon fill="#63b8ff" stroke="#63b8ff" points="1169.6,-131.77 1180.19,-131.98 1172.04,-125.21 1169.6,-131.77"/>
</a>
</g>
</g>
<!-- Node13&#45;&gt;Node14 -->
<g id="edge19_Node000013_Node000014" class="edge">
<title>Node13&#45;&gt;Node14</title>
<g id="a_edge19_Node000013_Node000014"><a xlink:title=" ">
<path fill="none" stroke="#63b8ff" d="M1204.82,-123.81C1197.51,-114.64 1189.25,-104.28 1182.79,-96.16"/>
<polygon fill="#63b8ff" stroke="#63b8ff" points="1202.21,-126.16 1211.18,-131.8 1207.69,-121.79 1202.21,-126.16"/>
</a>
</g>
</g>
<!-- Node13&#45;&gt;Node16 -->
<g id="edge22_Node000013_Node000016" class="edge">
<title>Node13&#45;&gt;Node16</title>
<g id="a_edge22_Node000013_Node000016"><a xlink:title=" ">
<path fill="none" stroke="#63b8ff" d="M1293.17,-132.17C1347.71,-121.49 1422.86,-106.79 1477.68,-96.06"/>
<polygon fill="#63b8ff" stroke="#63b8ff" points="1292.38,-128.76 1283.24,-134.11 1293.73,-135.63 1292.38,-128.76"/>
</a>
</g>
</g>
<!-- Node13&#45;&gt;Node18 -->
<g id="edge25_Node000013_Node000018" class="edge">
<title>Node13&#45;&gt;Node18</title>
<g id="a_edge25_Node000013_Node000018"><a xlink:title=" ">
<path fill="none" stroke="#63b8ff" d="M1253.71,-126.42C1269.36,-116.6 1287.96,-104.93 1302.17,-96.01"/>
<polygon fill="#63b8ff" stroke="#63b8ff" points="1251.49,-123.68 1244.88,-131.95 1255.22,-129.6 1251.49,-123.68"/>
</a>
</g>
</g>
<!-- Node13&#45;&gt;Node20 -->
<g id="edge28_Node000013_Node000020" class="edge">
<title>Node13&#45;&gt;Node20</title>
<g id="a_edge28_Node000013_Node000020"><a xlink:title=" ">
<path fill="none" stroke="#63b8ff" d="M1159.16,-129.39C1119.66,-119.03 1069.4,-105.84 1031.92,-96.01"/>
<polygon fill="#63b8ff" stroke="#63b8ff" points="1158.39,-132.8 1168.95,-131.95 1160.17,-126.03 1158.39,-132.8"/>
</a>
</g>
</g>
<!-- Node14&#45;&gt;Node3 -->
<g id="edge20_Node000014_Node000003" class="edge">
<title>Node14&#45;&gt;Node3</title>
<g id="a_edge20_Node000014_Node000003"><a xlink:title=" ">
<path fill="none" stroke="#63b8ff" d="M1099,-66.43C1031.27,-53.76 932.26,-35.23 875.01,-24.52"/>
<polygon fill="#63b8ff" stroke="#63b8ff" points="1098.7,-69.94 1109.17,-68.34 1099.98,-63.06 1098.7,-69.94"/>
</a>
</g>
</g>
<!-- Node15 -->
<g id="Node000015" class="node">
<title>Node15</title>
<g id="a_Node000015"><a xlink:href="server_8cpp.html" target="_top" xlink:title=" ">
<polygon fill="white" stroke="#666666" points="1230.5,-24.5 1112.5,-24.5 1112.5,-5.5 1230.5,-5.5 1230.5,-24.5"/>
<text text-anchor="middle" x="1171.5" y="-12.5" font-family="Helvetica,sans-Serif" font-size="10.00">src/server/server.cpp</text>
</a>
</g>
</g>
<!-- Node14&#45;&gt;Node15 -->
<g id="edge21_Node000014_Node000015" class="edge">
<title>Node14&#45;&gt;Node15</title>
<g id="a_edge21_Node000014_Node000015"><a xlink:title=" ">
<path fill="none" stroke="#63b8ff" d="M1171.5,-55.6C1171.5,-44.8 1171.5,-32.78 1171.5,-24.84"/>
<polygon fill="#63b8ff" stroke="#63b8ff" points="1168,-55.8 1171.5,-65.8 1175,-55.8 1168,-55.8"/>
</a>
</g>
</g>
<!-- Node16&#45;&gt;Node3 -->
<g id="edge23_Node000016_Node000003" class="edge">
<title>Node16&#45;&gt;Node3</title>
<g id="a_edge23_Node000016_Node000003"><a xlink:title=" ">
<path fill="none" stroke="#63b8ff" d="M1443.49,-66.4C1442.15,-66.26 1440.82,-66.13 1439.5,-66 1206.29,-43.2 1146.23,-57.29 913.5,-30 901.17,-28.55 887.88,-26.55 875.6,-24.51"/>
<polygon fill="#63b8ff" stroke="#63b8ff" points="1443.53,-69.92 1453.85,-67.49 1444.27,-62.96 1443.53,-69.92"/>
</a>
</g>
</g>
<!-- Node17 -->
<g id="Node000017" class="node">
<title>Node17</title>
<g id="a_Node000017"><a xlink:href="framed__stdio__server__transport_8cpp.html" target="_top" xlink:title=" ">
<polygon fill="white" stroke="#666666" points="1625.5,-30 1473.5,-30 1473.5,0 1625.5,0 1625.5,-30"/>
<text text-anchor="start" x="1481.5" y="-18" font-family="Helvetica,sans-Serif" font-size="10.00">src/transports/framed</text>
<text text-anchor="middle" x="1549.5" y="-7" font-family="Helvetica,sans-Serif" font-size="10.00">_stdio_server_transport.cpp</text>
</a>
</g>
</g>
<!-- Node16&#45;&gt;Node17 -->
<g id="edge24_Node000016_Node000017" class="edge">
<title>Node16&#45;&gt;Node17</title>
<g id="a_edge24_Node000016_Node000017"><a xlink:title=" ">
<path fill="none" stroke="#63b8ff" d="M1549.5,-55.54C1549.5,-46.96 1549.5,-37.61 1549.5,-30.16"/>
<polygon fill="#63b8ff" stroke="#63b8ff" points="1546,-55.8 1549.5,-65.8 1553,-55.8 1546,-55.8"/>
</a>
</g>
</g>
<!-- Node18&#45;&gt;Node3 -->
<g id="edge26_Node000018_Node000003" class="edge">
<title>Node18&#45;&gt;Node3</title>
<g id="a_edge26_Node000018_Node000003"><a xlink:title=" ">
<path fill="none" stroke="#63b8ff" d="M1240.99,-65.84C1095.08,-45.8 1055.94,-49.65 913.5,-30 901.93,-28.4 889.5,-26.46 877.85,-24.53"/>
<polygon fill="#63b8ff" stroke="#63b8ff" points="1240.83,-69.36 1251.22,-67.26 1241.79,-62.42 1240.83,-69.36"/>
</a>
</g>
</g>
<!-- Node19 -->
<g id="Node000019" class="node">
<title>Node19</title>
<g id="a_Node000019"><a xlink:href="http__server__transport_8cpp.html" target="_top" xlink:title=" ">
<polygon fill="white" stroke="#666666" points="1385.5,-30 1263.5,-30 1263.5,0 1385.5,0 1385.5,-30"/>
<text text-anchor="start" x="1271.5" y="-18" font-family="Helvetica,sans-Serif" font-size="10.00">src/transports/http</text>
<text text-anchor="middle" x="1324.5" y="-7" font-family="Helvetica,sans-Serif" font-size="10.00">_server_transport.cpp</text>
</a>
</g>
</g>
<!-- Node18&#45;&gt;Node19 -->
<g id="edge27_Node000018_Node000019" class="edge">
<title>Node18&#45;&gt;Node19</title>
<g id="a_edge27_Node000018_Node000019"><a xlink:title=" ">
<path fill="none" stroke="#63b8ff" d="M1324.5,-55.54C1324.5,-46.96 1324.5,-37.61 1324.5,-30.16"/>
<polygon fill="#63b8ff" stroke="#63b8ff" points="1321,-55.8 1324.5,-65.8 1328,-55.8 1321,-55.8"/>
</a>
</g>
</g>
<!-- Node20&#45;&gt;Node3 -->
<g id="edge29_Node000020_Node000003" class="edge">
<title>Node20&#45;&gt;Node3</title>
<g id="a_edge29_Node000020_Node000003"><a xlink:title=" ">
<path fill="none" stroke="#63b8ff" d="M936.46,-61.94C907.91,-49.68 871.46,-34.02 849.33,-24.52"/>
<polygon fill="#63b8ff" stroke="#63b8ff" points="935.23,-65.22 945.8,-65.95 937.99,-58.79 935.23,-65.22"/>
</a>
</g>
</g>
<!-- Node21 -->
<g id="Node000021" class="node">
<title>Node21</title>
<g id="a_Node000021"><a xlink:href="stdio__server__transport_8cpp.html" target="_top" xlink:title=" ">
<polygon fill="white" stroke="#666666" points="1044.5,-30 922.5,-30 922.5,0 1044.5,0 1044.5,-30"/>
<text text-anchor="start" x="930.5" y="-18" font-family="Helvetica,sans-Serif" font-size="10.00">src/transports/stdio</text>
<text text-anchor="middle" x="983.5" y="-7" font-family="Helvetica,sans-Serif" font-size="10.00">_server_transport.cpp</text>
</a>
</g>
</g>
<!-- Node20&#45;&gt;Node21 -->
<g id="edge30_Node000020_Node000021" class="edge">
<title>Node20&#45;&gt;Node21</title>
<g id="a_edge30_Node000020_Node000021"><a xlink:title=" ">
<path fill="none" stroke="#63b8ff" d="M980.39,-55.83C981.06,-47.17 981.8,-37.7 982.39,-30.16"/>
<polygon fill="#63b8ff" stroke="#63b8ff" points="976.9,-55.55 979.61,-65.8 983.88,-56.1 976.9,-55.55"/>
</a>
</g>
</g>
<!-- Node23&#45;&gt;Node2 -->
<g id="edge38_Node000023_Node000002" class="edge">
<title>Node23&#45;&gt;Node2</title>
<g id="a_edge38_Node000023_Node000002"><a xlink:title=" ">
<path fill="none" stroke="#63b8ff" d="M770.79,-257.48C783.05,-247.91 797.32,-236.77 808.35,-228.16"/>
<polygon fill="#63b8ff" stroke="#63b8ff" points="768.43,-254.88 762.7,-263.8 772.74,-260.4 768.43,-254.88"/>
</a>
</g>
</g>
<!-- Node23&#45;&gt;Node3 -->
<g id="edge40_Node000023_Node000003" class="edge">
<title>Node23&#45;&gt;Node3</title>
<g id="a_edge40_Node000023_Node000003"><a xlink:title=" ">
<path fill="none" stroke="#63b8ff" d="M677.53,-265.3C657.04,-257.94 636.71,-246.32 624.5,-228 617.1,-216.91 622.1,-211.12 624.5,-198 630.15,-167.15 629.77,-156.39 649.5,-132 693.58,-77.52 770.34,-40.38 807.75,-24.58"/>
<polygon fill="#63b8ff" stroke="#63b8ff" points="676.65,-268.7 687.24,-268.49 678.83,-262.05 676.65,-268.7"/>
</a>
</g>
</g>
<!-- Node23&#45;&gt;Node12 -->
<g id="edge39_Node000023_Node000012" class="edge">
<title>Node23&#45;&gt;Node12</title>
<g id="a_edge39_Node000023_Node000012"><a xlink:title=" ">
<path fill="none" stroke="#63b8ff" d="M810.17,-261.52C851.53,-251.14 904.34,-237.88 943.67,-228.01"/>
<polygon fill="#63b8ff" stroke="#63b8ff" points="809.31,-258.13 800.46,-263.95 811.01,-264.92 809.31,-258.13"/>
</a>
</g>
</g>
<!-- Node24 -->
<g id="Node000024" class="node">
<title>Node24</title>
<g id="a_Node000024"><a xlink:href="request_8cpp.html" target="_top" xlink:title=" ">
<polygon fill="white" stroke="#666666" points="748,-222.5 633,-222.5 633,-203.5 748,-203.5 748,-222.5"/>
<text text-anchor="middle" x="690.5" y="-210.5" font-family="Helvetica,sans-Serif" font-size="10.00">src/core/request.cpp</text>
</a>
</g>
</g>
<!-- Node23&#45;&gt;Node24 -->
<g id="edge41_Node000023_Node000024" class="edge">
<title>Node23&#45;&gt;Node24</title>
<g id="a_edge41_Node000023_Node000024"><a xlink:title=" ">
<path fill="none" stroke="#63b8ff" d="M725.89,-255.94C716.3,-244.58 705.15,-231.36 697.96,-222.84"/>
<polygon fill="#63b8ff" stroke="#63b8ff" points="723.39,-258.41 732.52,-263.8 728.74,-253.9 723.39,-258.41"/>
</a>
</g>
</g>
<!-- Node25&#45;&gt;Node2 -->
<g id="edge43_Node000025_Node000002" class="edge">
<title>Node25&#45;&gt;Node2</title>
<g id="a_edge43_Node000025_Node000002"><a xlink:title=" ">
<path fill="none" stroke="#63b8ff" d="M886.66,-257.75C873.43,-248.13 857.93,-236.86 845.98,-228.16"/>
<polygon fill="#63b8ff" stroke="#63b8ff" points="884.82,-260.75 894.97,-263.8 888.94,-255.08 884.82,-260.75"/>
</a>
</g>
</g>
<!-- Node25&#45;&gt;Node3 -->
<g id="edge45_Node000025_Node000003" class="edge">
<title>Node25&#45;&gt;Node3</title>
<g id="a_edge45_Node000025_Node000003"><a xlink:title=" ">
<path fill="none" stroke="#63b8ff" d="M910.74,-253.47C907.77,-237.31 902.88,-215.91 895.5,-198 888.36,-180.66 881.63,-178.9 873.5,-162 859.96,-133.88 858.63,-125.85 849.5,-96 841.71,-70.54 834.68,-39.84 831.42,-24.96"/>
<polygon fill="#63b8ff" stroke="#63b8ff" points="907.36,-254.44 912.5,-263.71 914.26,-253.26 907.36,-254.44"/>
</a>
</g>
</g>
<!-- Node25&#45;&gt;Node12 -->
<g id="edge44_Node000025_Node000012" class="edge">
<title>Node25&#45;&gt;Node12</title>
<g id="a_edge44_Node000025_Node000012"><a xlink:title=" ">
<path fill="none" stroke="#63b8ff" d="M941.39,-257.75C954.17,-248.13 969.14,-236.86 980.69,-228.16"/>
<polygon fill="#63b8ff" stroke="#63b8ff" points="939.25,-254.99 933.36,-263.8 943.46,-260.58 939.25,-254.99"/>
</a>
</g>
</g>
<!-- Node26 -->
<g id="Node000026" class="node">
<title>Node26</title>
<g id="a_Node000026"><a xlink:href="response_8cpp.html" target="_top" xlink:title=" ">
<polygon fill="white" stroke="#666666" points="1196.5,-222.5 1074.5,-222.5 1074.5,-203.5 1196.5,-203.5 1196.5,-222.5"/>
<text text-anchor="middle" x="1135.5" y="-210.5" font-family="Helvetica,sans-Serif" font-size="10.00">src/core/response.cpp</text>
</a>
</g>
</g>
<!-- Node25&#45;&gt;Node26 -->
<g id="edge46_Node000025_Node000026" class="edge">
<title>Node25&#45;&gt;Node26</title>
<g id="a_edge46_Node000025_Node000026"><a xlink:title=" ">
<path fill="none" stroke="#63b8ff" d="M972.76,-261.13C1015.65,-248.71 1072.19,-232.33 1106.09,-222.52"/>
<polygon fill="#63b8ff" stroke="#63b8ff" points="971.63,-257.81 963,-263.95 973.58,-264.54 971.63,-257.81"/>
</a>
</g>
</g>
<!-- Node27&#45;&gt;Node3 -->
<g id="edge53_Node000027_Node000003" class="edge">
<title>Node27&#45;&gt;Node3</title>
<g id="a_edge53_Node000027_Node000003"><a xlink:title=" ">
<path fill="none" stroke="#63b8ff" d="M1375.92,-256.27C1368.54,-248.21 1361.38,-238.47 1357.5,-228 1352.86,-215.5 1354.54,-211 1357.5,-198 1371.4,-136.98 1449.11,-111.83 1406.5,-66 1369.1,-25.77 968.04,-36.52 913.5,-30 901.32,-28.54 888.2,-26.56 876.04,-24.54"/>
<polygon fill="#63b8ff" stroke="#63b8ff" points="1373.76,-259.06 1383.27,-263.73 1378.74,-254.15 1373.76,-259.06"/>
</a>
</g>
</g>
<!-- Node27&#45;&gt;Node6 -->
<g id="edge54_Node000027_Node000006" class="edge">
<title>Node27&#45;&gt;Node6</title>
<g id="a_edge54_Node000027_Node000006"><a xlink:title=" ">
<path fill="none" stroke="#63b8ff" d="M1318.42,-273.65C1176.75,-265.93 877.19,-248.68 624.5,-228 609.18,-226.75 592.93,-225.27 577.13,-223.75"/>
<polygon fill="#63b8ff" stroke="#63b8ff" points="1318.58,-277.16 1328.76,-274.21 1318.96,-270.17 1318.58,-277.16"/>
</a>
</g>
</g>
<!-- Node27&#45;&gt;Node16 -->
<g id="edge55_Node000027_Node000016" class="edge">
<title>Node27&#45;&gt;Node16</title>
<g id="a_edge55_Node000027_Node000016"><a xlink:title=" ">
<path fill="none" stroke="#63b8ff" d="M1453.13,-259.7C1469.14,-251.99 1485.62,-241.59 1497.5,-228 1532.04,-188.5 1544.13,-124.47 1547.93,-96.19"/>
<polygon fill="#63b8ff" stroke="#63b8ff" points="1451.47,-256.61 1443.8,-263.92 1454.36,-262.98 1451.47,-256.61"/>
</a>
</g>
</g>
<!-- Node28 -->
<g id="Node000028" class="node">
<title>Node28</title>
<g id="a_Node000028"><a xlink:href="framed__transport_8cpp.html" target="_top" xlink:title=" ">
<polygon fill="white" stroke="#666666" points="1488.5,-228 1366.5,-228 1366.5,-198 1488.5,-198 1488.5,-228"/>
<text text-anchor="start" x="1374.5" y="-216" font-family="Helvetica,sans-Serif" font-size="10.00">src/transports/framed</text>
<text text-anchor="middle" x="1427.5" y="-205" font-family="Helvetica,sans-Serif" font-size="10.00">_transport.cpp</text>
</a>
</g>
</g>
<!-- Node27&#45;&gt;Node28 -->
<g id="edge56_Node000027_Node000028" class="edge">
<title>Node27&#45;&gt;Node28</title>
<g id="a_edge56_Node000027_Node000028"><a xlink:title=" ">
<path fill="none" stroke="#63b8ff" d="M1410.46,-254.39C1414.17,-245.59 1418.28,-235.86 1421.52,-228.16"/>
<polygon fill="#63b8ff" stroke="#63b8ff" points="1407.15,-253.22 1406.49,-263.8 1413.6,-255.94 1407.15,-253.22"/>
</a>
</g>
</g>
</g>
</svg>
