<?xml version="1.0" encoding="UTF-8" standalone="no"?>
<!DOCTYPE svg PUBLIC "-//W3C//DTD SVG 1.1//EN"
 "http://www.w3.org/Graphics/SVG/1.1/DTD/svg11.dtd">
<!-- Generated by graphviz version 2.43.0 (0)
 -->
<!-- Title: include/json_rpc/core/types.hpp Pages: 1 -->
<svg width="1661pt" height="368pt"
 viewBox="0.00 0.00 1661.00 368.00" xmlns="http://www.w3.org/2000/svg" xmlns:xlink="http://www.w3.org/1999/xlink">
<g id="graph0" class="graph" transform="scale(1 1) rotate(0) translate(4 364)">
<title>include/json_rpc/core/types.hpp</title>
<!-- Node1 -->
<g id="Node000001" class="node">
<title>Node1</title>
<g id="a_Node000001"><a xlink:title=" ">
<polygon fill="#999999" stroke="#666666" points="980,-360 861,-360 861,-330 980,-330 980,-360"/>
<text text-anchor="start" x="869" y="-348" font-family="Helvetica,sans-Serif" font-size="10.00">include/json_rpc/core</text>
<text text-anchor="middle" x="920.5" y="-337" font-family="Helvetica,sans-Serif" font-size="10.00">/types.hpp</text>
</a>
</g>
</g>
<!-- Node2 -->
<g id="Node000002" class="node">
<title>Node2</title>
<g id="a_Node000002"><a xlink:href="client_8hpp.html" target="_top" xlink:title=" ">
<polygon fill="white" stroke="#666666" points="892,-228 767,-228 767,-198 892,-198 892,-228"/>
<text text-anchor="start" x="775" y="-216" font-family="Helvetica,sans-Serif" font-size="10.00">include/json_rpc/client</text>
<text text-anchor="middle" x="829.5" y="-205" font-family="Helvetica,sans-Serif" font-size="10.00">/client.hpp</text>
</a>
</g>
</g>
<!-- Node1&#45;&gt;Node2 -->
<g id="edge1_Node000001_Node000002" class="edge">
<title>Node1&#45;&gt;Node2</title>
<g id="a_edge1_Node000001_Node000002"><a xlink:title=" ">
<path fill="none" stroke="#63b8ff" d="M885.06,-324.46C873.23,-316.4 860.92,-306.09 852.5,-294 838.46,-273.84 832.92,-245.18 830.79,-228.19"/>
<polygon fill="#63b8ff" stroke="#63b8ff" points="883.23,-327.45 893.53,-329.93 887.02,-321.57 883.23,-327.45"/>
</a>
</g>
</g>
<!-- Node3 -->
<g id="Node000003" class="node">
<title>Node3</title>
<g id="a_Node000003"><a xlink:href="json__rpc_8hpp.html" target="_top" xlink:title=" ">
<polygon fill="white" stroke="#666666" points="897,-30 778,-30 778,0 897,0 897,-30"/>
<text text-anchor="start" x="786" y="-18" font-family="Helvetica,sans-Serif" font-size="10.00">include/json_rpc/json</text>
<text text-anchor="middle" x="837.5" y="-7" font-family="Helvetica,sans-Serif" font-size="10.00">_rpc.hpp</text>
</a>
</g>
</g>
<!-- Node1&#45;&gt;Node3 -->
<g id="edge48_Node000001_Node000003" class="edge">
<title>Node1&#45;&gt;Node3</title>
<g id="a_edge48_Node000001_Node000003"><a xlink:title=" ">
<path fill="none" stroke="#63b8ff" d="M850.51,-341.91C715.01,-337.24 421.73,-323.93 325.5,-294 257.07,-272.72 185.5,-285.66 185.5,-214 185.5,-214 185.5,-214 185.5,-146 185.5,-104.76 197.58,-87.94 232.5,-66 277.95,-37.44 634.29,-22.67 777.86,-17.83"/>
<polygon fill="#63b8ff" stroke="#63b8ff" points="850.66,-345.41 860.77,-342.26 850.9,-338.42 850.66,-345.41"/>
</a>
</g>
</g>
<!-- Node5 -->
<g id="Node000005" class="node">
<title>Node5</title>
<g id="a_Node000005"><a xlink:href="client__transport_8hpp.html" target="_top" xlink:title=" ">
<polygon fill="white" stroke="#666666" points="489,-294 370,-294 370,-264 489,-264 489,-294"/>
<text text-anchor="start" x="378" y="-282" font-family="Helvetica,sans-Serif" font-size="10.00">include/json_rpc/core</text>
<text text-anchor="middle" x="429.5" y="-271" font-family="Helvetica,sans-Serif" font-size="10.00">/client_transport.hpp</text>
</a>
</g>
</g>
<!-- Node1&#45;&gt;Node5 -->
<g id="edge4_Node000001_Node000005" class="edge">
<title>Node1&#45;&gt;Node5</title>
<g id="a_edge4_Node000001_Node000005"><a xlink:title=" ">
<path fill="none" stroke="#63b8ff" d="M850.8,-334.91C753.96,-322.29 580.37,-299.67 489.18,-287.78"/>
<polygon fill="#63b8ff" stroke="#63b8ff" points="850.42,-338.39 860.78,-336.22 851.32,-331.45 850.42,-338.39"/>
</a>
</g>
</g>
<!-- Node6 -->
<g id="Node000006" class="node">
<title>Node6</title>
<g id="a_Node000006"><a xlink:href="framed__stdio__client__transport_8hpp.html" target="_top" xlink:title=" ">
<polygon fill="white" stroke="#666666" points="578,-228 391,-228 391,-198 578,-198 578,-228"/>
<text text-anchor="start" x="399" y="-216" font-family="Helvetica,sans-Serif" font-size="10.00">include/json_rpc/transports</text>
<text text-anchor="middle" x="484.5" y="-205" font-family="Helvetica,sans-Serif" font-size="10.00">/framed_stdio_client_transport.hpp</text>
</a>
</g>
</g>
<!-- Node1&#45;&gt;Node6 -->
<g id="edge50_Node000001_Node000006" class="edge">
<title>Node1&#45;&gt;Node6</title>
<g id="a_edge50_Node000001_Node000006"><a xlink:title=" ">
<path fill="none" stroke="#63b8ff" d="M850.86,-333.4C801.55,-325.02 734.21,-311.75 676.5,-294 616.96,-275.68 550.48,-245.73 513.45,-228.14"/>
<polygon fill="#63b8ff" stroke="#63b8ff" points="850.34,-336.87 860.78,-335.07 851.5,-329.96 850.34,-336.87"/>
</a>
</g>
</g>
<!-- Node8 -->
<g id="Node000008" class="node">
<title>Node8</title>
<g id="a_Node000008"><a xlink:href="http__client__transport_8hpp.html" target="_top" xlink:title=" ">
<polygon fill="white" stroke="#666666" points="157.5,-228 9.5,-228 9.5,-198 157.5,-198 157.5,-228"/>
<text text-anchor="start" x="17.5" y="-216" font-family="Helvetica,sans-Serif" font-size="10.00">include/json_rpc/transports</text>
<text text-anchor="middle" x="83.5" y="-205" font-family="Helvetica,sans-Serif" font-size="10.00">/http_client_transport.hpp</text>
</a>
</g>
</g>
<!-- Node1&#45;&gt;Node8 -->
<g id="edge57_Node000001_Node000008" class="edge">
<title>Node1&#45;&gt;Node8</title>
<g id="a_edge57_Node000001_Node000008"><a xlink:title=" ">
<path fill="none" stroke="#63b8ff" d="M850.9,-341.96C676.99,-336.51 233.01,-320.17 171.5,-294 137.87,-279.69 108.68,-246.93 93.86,-228.07"/>
<polygon fill="#63b8ff" stroke="#63b8ff" points="850.86,-345.46 860.96,-342.28 851.08,-338.47 850.86,-345.46"/>
</a>
</g>
</g>
<!-- Node10 -->
<g id="Node000010" class="node">
<title>Node10</title>
<g id="a_Node000010"><a xlink:href="stdio__client__transport_8hpp.html" target="_top" xlink:title=" ">
<polygon fill="white" stroke="#666666" points="361.5,-162 213.5,-162 213.5,-132 361.5,-132 361.5,-162"/>
<text text-anchor="start" x="221.5" y="-150" font-family="Helvetica,sans-Serif" font-size="10.00">include/json_rpc/transports</text>
<text text-anchor="middle" x="287.5" y="-139" font-family="Helvetica,sans-Serif" font-size="10.00">/stdio_client_transport.hpp</text>
</a>
</g>
</g>
<!-- Node1&#45;&gt;Node10 -->
<g id="edge59_Node000001_Node000010" class="edge">
<title>Node1&#45;&gt;Node10</title>
<g id="a_edge59_Node000001_Node000010"><a xlink:title=" ">
<path fill="none" stroke="#63b8ff" d="M850.5,-341.15C709.79,-334.92 402.51,-318.66 361.5,-294 313.03,-264.86 295.2,-192.8 289.66,-162.16"/>
<polygon fill="#63b8ff" stroke="#63b8ff" points="850.61,-344.65 860.75,-341.59 850.91,-337.66 850.61,-344.65"/>
</a>
</g>
</g>
<!-- Node12 -->
<g id="Node000012" class="node">
<title>Node12</title>
<g id="a_Node000012"><a xlink:href="dispatcher_8hpp.html" target="_top" xlink:title=" ">
<polygon fill="white" stroke="#666666" points="1068,-228 949,-228 949,-198 1068,-198 1068,-228"/>
<text text-anchor="start" x="957" y="-216" font-family="Helvetica,sans-Serif" font-size="10.00">include/json_rpc/core</text>
<text text-anchor="middle" x="1008.5" y="-205" font-family="Helvetica,sans-Serif" font-size="10.00">/dispatcher.hpp</text>
</a>
</g>
</g>
<!-- Node1&#45;&gt;Node12 -->
<g id="edge16_Node000001_Node000012" class="edge">
<title>Node1&#45;&gt;Node12</title>
<g id="a_edge16_Node000001_Node000012"><a xlink:title=" ">
<path fill="none" stroke="#63b8ff" d="M957.07,-324.58C969.02,-316.58 981.31,-306.28 989.5,-294 1002.97,-273.81 1006.93,-245.16 1008.07,-228.18"/>
<polygon fill="#63b8ff" stroke="#63b8ff" points="955.08,-321.7 948.5,-330 958.82,-327.62 955.08,-321.7"/>
</a>
</g>
</g>
<!-- Node13 -->
<g id="Node000013" class="node">
<title>Node13</title>
<g id="a_Node000013"><a xlink:href="server__transport_8hpp.html" target="_top" xlink:title=" ">
<polygon fill="white" stroke="#666666" points="1285,-162 1164,-162 1164,-132 1285,-132 1285,-162"/>
<text text-anchor="start" x="1172" y="-150" font-family="Helvetica,sans-Serif" font-size="10.00">include/json_rpc/core</text>
<text text-anchor="middle" x="1224.5" y="-139" font-family="Helvetica,sans-Serif" font-size="10.00">/server_transport.hpp</text>
</a>
</g>
</g>
<!-- Node1&#45;&gt;Node13 -->
<g id="edge47_Node000001_Node000013" class="edge">
<title>Node1&#45;&gt;Node13</title>
<g id="a_edge47_Node000001_Node000013"><a xlink:title=" ">
<path fill="none" stroke="#63b8ff" d="M990.11,-343.67C1076.82,-341.6 1217.61,-332.25 1250.5,-294 1283.23,-255.93 1251.01,-191.15 1233.8,-162.43"/>
<polygon fill="#63b8ff" stroke="#63b8ff" points="990,-340.17 980.07,-343.88 990.14,-347.17 990,-340.17"/>
</a>
</g>
</g>
<!-- Node14 -->
<g id="Node000014" class="node">
<title>Node14</title>
<g id="a_Node000014"><a xlink:href="server_8hpp.html" target="_top" xlink:title=" ">
<polygon fill="white" stroke="#666666" points="1239,-96 1110,-96 1110,-66 1239,-66 1239,-96"/>
<text text-anchor="start" x="1118" y="-84" font-family="Helvetica,sans-Serif" font-size="10.00">include/json_rpc/server</text>
<text text-anchor="middle" x="1174.5" y="-73" font-family="Helvetica,sans-Serif" font-size="10.00">/server.hpp</text>
</a>
</g>
</g>
<!-- Node1&#45;&gt;Node14 -->
<g id="edge49_Node000001_Node000014" class="edge">
<title>Node1&#45;&gt;Node14</title>
<g id="a_edge49_Node000001_Node000014"><a xlink:title=" ">
<path fill="none" stroke="#63b8ff" d="M990.33,-343.38C1080.8,-341.04 1231.59,-331.46 1270.5,-294 1322.93,-243.52 1334.87,-192.56 1294.5,-132 1281.86,-113.03 1260.51,-101.25 1239.3,-93.93"/>
<polygon fill="#63b8ff" stroke="#63b8ff" points="990.06,-339.88 980.14,-343.62 990.22,-346.88 990.06,-339.88"/>
</a>
</g>
</g>
<!-- Node16 -->
<g id="Node000016" class="node">
<title>Node16</title>
<g id="a_Node000016"><a xlink:href="framed__stdio__server__transport_8hpp.html" target="_top" xlink:title=" ">
<polygon fill="white" stroke="#666666" points="1653,-96 1462,-96 1462,-66 1653,-66 1653,-96"/>
<text text-anchor="start" x="1470" y="-84" font-family="Helvetica,sans-Serif" font-size="10.00">include/json_rpc/transports</text>
<text text-anchor="middle" x="1557.5" y="-73" font-family="Helvetica,sans-Serif" font-size="10.00">/framed_stdio_server_transport.hpp</text>
</a>
</g>
</g>
<!-- Node1&#45;&gt;Node16 -->
<g id="edge51_Node000001_Node000016" class="edge">
<title>Node1&#45;&gt;Node16</title>
<g id="a_edge51_Node000001_Node000016"><a xlink:title=" ">
<path fill="none" stroke="#63b8ff" d="M990.22,-342.57C1139.75,-338.88 1481.07,-326.91 1521.5,-294 1581.86,-244.86 1567.78,-135.14 1560.48,-96.11"/>
<polygon fill="#63b8ff" stroke="#63b8ff" points="990.13,-339.07 980.22,-342.81 990.3,-346.07 990.13,-339.07"/>
</a>
</g>
</g>
<!-- Node18 -->
<g id="Node000018" class="node">
<title>Node18</title>
<g id="a_Node000018"><a xlink:href="http__server__transport_8hpp.html" target="_top" xlink:title=" ">
<polygon fill="white" stroke="#666666" points="1405.5,-96 1257.5,-96 1257.5,-66 1405.5,-66 1405.5,-96"/>
<text text-anchor="start" x="1265.5" y="-84" font-family="Helvetica,sans-Serif" font-size="10.00">include/json_rpc/transports</text>
<text text-anchor="middle" x="1331.5" y="-73" font-family="Helvetica,sans-Serif" font-size="10.00">/http_server_transport.hpp</text>
</a>
</g>
</g>
<!-- Node1&#45;&gt;Node18 -->
<g id="edge58_Node000001_Node000018" class="edge">
<title>Node1&#45;&gt;Node18</title>
<g id="a_edge58_Node000001_Node000018"><a xlink:title=" ">
<path fill="none" stroke="#63b8ff" d="M990.27,-342.62C1135.67,-339.1 1460.7,-327.51 1497.5,-294 1529.29,-265.05 1529.99,-235.8 1509.5,-198 1480.94,-145.3 1416.92,-112.77 1373.96,-96.03"/>
<polygon fill="#63b8ff" stroke="#63b8ff" points="990.03,-339.13 980.12,-342.86 990.2,-346.13 990.03,-339.13"/>
</a>
</g>
</g>
<!-- Node20 -->
<g id="Node000020" class="node">
<title>Node20</title>
<g id="a_Node000020"><a xlink:href="stdio__server__transport_8hpp.html" target="_top" xlink:title=" ">
<polygon fill="white" stroke="#666666" points="1053.5,-96 903.5,-96 903.5,-66 1053.5,-66 1053.5,-96"/>
<text text-anchor="start" x="911.5" y="-84" font-family="Helvetica,sans-Serif" font-size="10.00">include/json_rpc/transports</text>
<text text-anchor="middle" x="978.5" y="-73" font-family="Helvetica,sans-Serif" font-size="10.00">/stdio_server_transport.hpp</text>
</a>
</g>
</g>
<!-- Node1&#45;&gt;Node20 -->
<g id="edge60_Node000001_Node000020" class="edge">
<title>Node1&#45;&gt;Node20</title>
<g id="a_edge60_Node000001_Node000020"><a xlink:title=" ">
<path fill="none" stroke="#63b8ff" d="M990.41,-338.57C1061.07,-328.92 1166.84,-302.18 1217.5,-228 1225.02,-216.99 1224.58,-209.3 1217.5,-198 1211.47,-188.37 1073.19,-124.87 1009.77,-96.11"/>
<polygon fill="#63b8ff" stroke="#63b8ff" points="989.73,-335.13 980.25,-339.87 990.62,-342.07 989.73,-335.13"/>
</a>
</g>
</g>
<!-- Node23 -->
<g id="Node000023" class="node">
<title>Node23</title>
<g id="a_Node000023"><a xlink:href="request_8hpp.html" target="_top" xlink:title=" ">
<polygon fill="white" stroke="#666666" points="804,-294 685,-294 685,-264 804,-264 804,-294"/>
<text text-anchor="start" x="693" y="-282" font-family="Helvetica,sans-Serif" font-size="10.00">include/json_rpc/core</text>
<text text-anchor="middle" x="744.5" y="-271" font-family="Helvetica,sans-Serif" font-size="10.00">/request.hpp</text>
</a>
</g>
</g>
<!-- Node1&#45;&gt;Node23 -->
<g id="edge37_Node000001_Node000023" class="edge">
<title>Node1&#45;&gt;Node23</title>
<g id="a_edge37_Node000001_Node000023"><a xlink:title=" ">
<path fill="none" stroke="#63b8ff" d="M872.26,-326.46C844.18,-316.25 809.26,-303.55 783.03,-294.01"/>
<polygon fill="#63b8ff" stroke="#63b8ff" points="871.28,-329.83 881.88,-329.95 873.67,-323.25 871.28,-329.83"/>
</a>
</g>
</g>
<!-- Node25 -->
<g id="Node000025" class="node">
<title>Node25</title>
<g id="a_Node000025"><a xlink:href="response_8hpp.html" target="_top" xlink:title=" ">
<polygon fill="white" stroke="#666666" points="980,-294 861,-294 861,-264 980,-264 980,-294"/>
<text text-anchor="start" x="869" y="-282" font-family="Helvetica,sans-Serif" font-size="10.00">include/json_rpc/core</text>
<text text-anchor="middle" x="920.5" y="-271" font-family="Helvetica,sans-Serif" font-size="10.00">/response.hpp</text>
</a>
</g>
</g>
<!-- Node1&#45;&gt;Node25 -->
<g id="edge42_Node000001_Node000025" class="edge">
<title>Node1&#45;&gt;Node25</title>
<g id="a_edge42_Node000001_Node000025"><a xlink:title=" ">
<path fill="none" stroke="#63b8ff" d="M920.5,-319.54C920.5,-310.96 920.5,-301.61 920.5,-294.16"/>
<polygon fill="#63b8ff" stroke="#63b8ff" points="917,-319.8 920.5,-329.8 924,-319.8 917,-319.8"/>
</a>
</g>
</g>
<!-- Node27 -->
<g id="Node000027" class="node">
<title>Node27</title>
<g id="a_Node000027"><a xlink:href="framed__transport_8hpp.html" target="_top" xlink:title=" ">
<polygon fill="white" stroke="#666666" points="1488.5,-294 1340.5,-294 1340.5,-264 1488.5,-264 1488.5,-294"/>
<text text-anchor="start" x="1348.5" y="-282" font-family="Helvetica,sans-Serif" font-size="10.00">include/json_rpc/transports</text>
<text text-anchor="middle" x="1414.5" y="-271" font-family="Helvetica,sans-Serif" font-size="10.00">/framed_transport.hpp</text>
</a>
</g>
</g>
<!-- Node1&#45;&gt;Node27 -->
<g id="edge52_Node000001_Node000027" class="edge">
<title>Node1&#45;&gt;Node27</title>
<g id="a_edge52_Node000001_Node000027"><a xlink:title=" ">
<path fill="none" stroke="#63b8ff" d="M990.17,-336.18C1071.11,-326.91 1208.65,-310.63 1326.5,-294 1330.94,-293.37 1335.51,-292.71 1340.11,-292.02"/>
<polygon fill="#63b8ff" stroke="#63b8ff" points="989.63,-332.71 980.1,-337.33 990.43,-339.67 989.63,-332.71"/>
</a>
</g>
</g>
<!-- Node2&#45;&gt;Node3 -->
<g id="edge2_Node000002_Node000003" class="edge">
<title>Node2&#45;&gt;Node3</title>
<g id="a_edge2_Node000002_Node000003"><a xlink:title=" ">
<path fill="none" stroke="#63b8ff" d="M825.89,-187.78C822.17,-158.71 817.65,-108.57 823.5,-66 825.19,-53.68 829.13,-40.11 832.4,-30.22"/>
<polygon fill="#63b8ff" stroke="#63b8ff" points="822.45,-188.39 827.26,-197.83 829.38,-187.45 822.45,-188.39"/>
</a>
</g>
</g>
<!-- Node4 -->
<g id="Node000004" class="node">
<title>Node4</title>
<g id="a_Node000004"><a xlink:href="client_8cpp.html" target="_top" xlink:title=" ">
<polygon fill="white" stroke="#666666" points="771,-156.5 660,-156.5 660,-137.5 771,-137.5 771,-156.5"/>
<text text-anchor="middle" x="715.5" y="-144.5" font-family="Helvetica,sans-Serif" font-size="10.00">src/client/client.cpp</text>
</a>
</g>
</g>
<!-- Node2&#45;&gt;Node4 -->
<g id="edge3_Node000002_Node000004" class="edge">
<title>Node2&#45;&gt;Node4</title>
<g id="a_edge3_Node000002_Node000004"><a xlink:title=" ">
<path fill="none" stroke="#63b8ff" d="M795.61,-192.97C774.04,-180.87 747.16,-165.78 730.67,-156.52"/>
<polygon fill="#63b8ff" stroke="#63b8ff" points="794.05,-196.11 804.48,-197.95 797.48,-190.01 794.05,-196.11"/>
</a>
</g>
</g>
<!-- Node5&#45;&gt;Node2 -->
<g id="edge5_Node000005_Node000002" class="edge">
<title>Node5&#45;&gt;Node2</title>
<g id="a_edge5_Node000005_Node000002"><a xlink:title=" ">
<path fill="none" stroke="#63b8ff" d="M499.03,-268.34C565.72,-258.85 669.18,-243.59 758.5,-228 761.22,-227.52 764,-227.03 766.81,-226.52"/>
<polygon fill="#63b8ff" stroke="#63b8ff" points="498.47,-264.88 489.06,-269.75 499.45,-271.81 498.47,-264.88"/>
</a>
</g>
</g>
<!-- Node5&#45;&gt;Node3 -->
<g id="edge6_Node000005_Node000003" class="edge">
<title>Node5&#45;&gt;Node3</title>
<g id="a_edge6_Node000005_Node000003"><a xlink:title=" ">
<path fill="none" stroke="#63b8ff" d="M402.8,-256.78C394.7,-248.73 386.8,-238.85 382.5,-228 366.22,-186.9 376.76,-162.77 408.5,-132 461.26,-80.84 673.06,-41.59 777.98,-24.85"/>
<polygon fill="#63b8ff" stroke="#63b8ff" points="400.5,-259.41 410.21,-263.63 405.25,-254.27 400.5,-259.41"/>
</a>
</g>
</g>
<!-- Node5&#45;&gt;Node6 -->
<g id="edge7_Node000005_Node000006" class="edge">
<title>Node5&#45;&gt;Node6</title>
<g id="a_edge7_Node000005_Node000006"><a xlink:title=" ">
<path fill="none" stroke="#63b8ff" d="M448.33,-256.09C456.27,-246.85 465.28,-236.36 472.33,-228.16"/>
<polygon fill="#63b8ff" stroke="#63b8ff" points="445.57,-253.93 441.71,-263.8 450.88,-258.49 445.57,-253.93"/>
</a>
</g>
</g>
<!-- Node5&#45;&gt;Node8 -->
<g id="edge10_Node000005_Node000008" class="edge">
<title>Node5&#45;&gt;Node8</title>
<g id="a_edge10_Node000005_Node000008"><a xlink:title=" ">
<path fill="none" stroke="#63b8ff" d="M359.71,-265.09C301.08,-254.25 217.52,-238.79 157.69,-227.72"/>
<polygon fill="#63b8ff" stroke="#63b8ff" points="359.16,-268.55 369.63,-266.93 360.43,-261.66 359.16,-268.55"/>
</a>
</g>
</g>
<!-- Node5&#45;&gt;Node10 -->
<g id="edge13_Node000005_Node000010" class="edge">
<title>Node5&#45;&gt;Node10</title>
<g id="a_edge13_Node000005_Node000010"><a xlink:title=" ">
<path fill="none" stroke="#63b8ff" d="M393.22,-259C378.81,-250.55 362.58,-239.82 349.5,-228 327.34,-207.97 307.27,-179.26 296.29,-162.24"/>
<polygon fill="#63b8ff" stroke="#63b8ff" points="391.5,-262.05 401.92,-263.96 394.96,-255.97 391.5,-262.05"/>
</a>
</g>
</g>
<!-- Node6&#45;&gt;Node3 -->
<g id="edge8_Node000006_Node000003" class="edge">
<title>Node6&#45;&gt;Node3</title>
<g id="a_edge8_Node000006_Node000003"><a xlink:title=" ">
<path fill="none" stroke="#63b8ff" d="M531.24,-193.25C546.51,-185.38 562.59,-174.98 574.5,-162 606.11,-127.55 581.34,-95.64 617.5,-66 641.7,-46.17 721.36,-31.62 777.85,-23.48"/>
<polygon fill="#63b8ff" stroke="#63b8ff" points="529.33,-190.29 521.88,-197.83 532.4,-196.58 529.33,-190.29"/>
</a>
</g>
</g>
<!-- Node7 -->
<g id="Node000007" class="node">
<title>Node7</title>
<g id="a_Node000007"><a xlink:href="framed__stdio__client__transport_8cpp.html" target="_top" xlink:title=" ">
<polygon fill="white" stroke="#666666" points="565.5,-162 417.5,-162 417.5,-132 565.5,-132 565.5,-162"/>
<text text-anchor="start" x="425.5" y="-150" font-family="Helvetica,sans-Serif" font-size="10.00">src/transports/framed</text>
<text text-anchor="middle" x="491.5" y="-139" font-family="Helvetica,sans-Serif" font-size="10.00">_stdio_client_transport.cpp</text>
</a>
</g>
</g>
<!-- Node6&#45;&gt;Node7 -->
<g id="edge9_Node000006_Node000007" class="edge">
<title>Node6&#45;&gt;Node7</title>
<g id="a_edge9_Node000006_Node000007"><a xlink:title=" ">
<path fill="none" stroke="#63b8ff" d="M487.14,-187.83C488.09,-179.17 489.13,-169.7 489.95,-162.16"/>
<polygon fill="#63b8ff" stroke="#63b8ff" points="483.66,-187.48 486.05,-197.8 490.62,-188.24 483.66,-187.48"/>
</a>
</g>
</g>
<!-- Node8&#45;&gt;Node3 -->
<g id="edge11_Node000008_Node000003" class="edge">
<title>Node8&#45;&gt;Node3</title>
<g id="a_edge11_Node000008_Node000003"><a xlink:title=" ">
<path fill="none" stroke="#63b8ff" d="M105.57,-190.47C113.44,-182.07 121.96,-172.04 128.5,-162 154,-122.82 133.24,-92.87 171.5,-66 220.48,-31.6 623.79,-20.16 777.92,-17.03"/>
<polygon fill="#63b8ff" stroke="#63b8ff" points="103.03,-188.07 98.6,-197.69 108.07,-192.93 103.03,-188.07"/>
</a>
</g>
</g>
<!-- Node9 -->
<g id="Node000009" class="node">
<title>Node9</title>
<g id="a_Node000009"><a xlink:href="http__client__transport_8cpp.html" target="_top" xlink:title=" ">
<polygon fill="white" stroke="#666666" points="119,-162 0,-162 0,-132 119,-132 119,-162"/>
<text text-anchor="start" x="8" y="-150" font-family="Helvetica,sans-Serif" font-size="10.00">src/transports/http</text>
<text text-anchor="middle" x="59.5" y="-139" font-family="Helvetica,sans-Serif" font-size="10.00">_client_transport.cpp</text>
</a>
</g>
</g>
<!-- Node8&#45;&gt;Node9 -->
<g id="edge12_Node000008_Node000009" class="edge">
<title>Node8&#45;&gt;Node9</title>
<g id="a_edge12_Node000008_Node000009"><a xlink:title=" ">
<path fill="none" stroke="#63b8ff" d="M74.65,-188.39C71.34,-179.59 67.7,-169.86 64.81,-162.16"/>
<polygon fill="#63b8ff" stroke="#63b8ff" points="71.39,-189.66 78.17,-197.8 77.94,-187.2 71.39,-189.66"/>
</a>
</g>
</g>
<!-- Node10&#45;&gt;Node3 -->
<g id="edge14_Node000010_Node000003" class="edge">
<title>Node10&#45;&gt;Node3</title>
<g id="a_edge14_Node000010_Node000003"><a xlink:title=" ">
<path fill="none" stroke="#63b8ff" d="M262.71,-125.08C245.19,-107.84 227.45,-83.46 243.5,-66 279.18,-27.19 634.34,-18.49 777.83,-16.55"/>
<polygon fill="#63b8ff" stroke="#63b8ff" points="260.41,-127.72 270.1,-132 265.19,-122.61 260.41,-127.72"/>
</a>
</g>
</g>
<!-- Node11 -->
<g id="Node000011" class="node">
<title>Node11</title>
<g id="a_Node000011"><a xlink:href="stdio__client__transport_8cpp.html" target="_top" xlink:title=" ">
<polygon fill="white" stroke="#666666" points="371,-96 252,-96 252,-66 371,-66 371,-96"/>
<text text-anchor="start" x="260" y="-84" font-family="Helvetica,sans-Serif" font-size="10.00">src/transports/stdio</text>
<text text-anchor="middle" x="311.5" y="-73" font-family="Helvetica,sans-Serif" font-size="10.00">_client_transport.cpp</text>
</a>
</g>
</g>
<!-- Node10&#45;&gt;Node11 -->
<g id="edge15_Node000010_Node000011" class="edge">
<title>Node10&#45;&gt;Node11</title>
<g id="a_edge15_Node000010_Node000011"><a xlink:title=" ">
<path fill="none" stroke="#63b8ff" d="M296.35,-122.39C299.66,-113.59 303.3,-103.86 306.19,-96.16"/>
<polygon fill="#63b8ff" stroke="#63b8ff" points="293.06,-121.2 292.83,-131.8 299.61,-123.66 293.06,-121.2"/>
</a>
</g>
</g>
<!-- Node12&#45;&gt;Node3 -->
<g id="edge31_Node000012_Node000003" class="edge">
<title>Node12&#45;&gt;Node3</title>
<g id="a_edge31_Node000012_Node000003"><a xlink:title=" ">
<path fill="none" stroke="#63b8ff" d="M944.77,-194.28C926.68,-186.73 908.2,-176.27 894.5,-162 875.47,-142.17 850.98,-62.73 841.5,-30.1"/>
<polygon fill="#63b8ff" stroke="#63b8ff" points="943.58,-197.57 954.16,-197.97 946.13,-191.06 943.58,-197.57"/>
</a>
</g>
</g>
<!-- Node12&#45;&gt;Node10 -->
<g id="edge34_Node000012_Node000010" class="edge">
<title>Node12&#45;&gt;Node10</title>
<g id="a_edge34_Node000012_Node000010"><a xlink:title=" ">
<path fill="none" stroke="#63b8ff" d="M938.61,-202.27C926.26,-200.72 913.51,-199.22 901.5,-198 682.94,-175.74 627.22,-182.63 408.5,-162 393.34,-160.57 377.14,-158.84 361.68,-157.08"/>
<polygon fill="#63b8ff" stroke="#63b8ff" points="938.5,-205.78 948.86,-203.58 939.39,-198.84 938.5,-205.78"/>
</a>
</g>
</g>
<!-- Node12&#45;&gt;Node13 -->
<g id="edge17_Node000012_Node000013" class="edge">
<title>Node12&#45;&gt;Node13</title>
<g id="a_edge17_Node000012_Node000013"><a xlink:title=" ">
<path fill="none" stroke="#63b8ff" d="M1065.91,-194.99C1100.67,-184.69 1144.45,-171.72 1177.21,-162.01"/>
<polygon fill="#63b8ff" stroke="#63b8ff" points="1064.5,-191.76 1055.9,-197.95 1066.48,-198.47 1064.5,-191.76"/>
</a>
</g>
</g>
<!-- Node12&#45;&gt;Node14 -->
<g id="edge32_Node000012_Node000014" class="edge">
<title>Node12&#45;&gt;Node14</title>
<g id="a_edge32_Node000012_Node000014"><a xlink:title=" ">
<path fill="none" stroke="#63b8ff" d="M1034.66,-191.52C1068.62,-164.92 1127.02,-119.18 1156.44,-96.14"/>
<polygon fill="#63b8ff" stroke="#63b8ff" points="1032.3,-188.92 1026.58,-197.84 1036.61,-194.43 1032.3,-188.92"/>
</a>
</g>
</g>
<!-- Node12&#45;&gt;Node18 -->
<g id="edge33_Node000012_Node000018" class="edge">
<title>Node12&#45;&gt;Node18</title>
<g id="a_edge33_Node000012_Node000018"><a xlink:title=" ">
<path fill="none" stroke="#63b8ff" d="M1078.31,-198.03C1176.46,-182.81 1219.24,-219.33 1294.5,-162 1315.8,-145.77 1325.27,-114.35 1329.13,-96.09"/>
<polygon fill="#63b8ff" stroke="#63b8ff" points="1077.59,-194.6 1068.31,-199.73 1078.76,-201.5 1077.59,-194.6"/>
</a>
</g>
</g>
<!-- Node12&#45;&gt;Node20 -->
<g id="edge35_Node000012_Node000020" class="edge">
<title>Node12&#45;&gt;Node20</title>
<g id="a_edge35_Node000012_Node000020"><a xlink:title=" ">
<path fill="none" stroke="#63b8ff" d="M1027.6,-189.56C1038.98,-173.33 1049.59,-151.02 1040.5,-132 1033.16,-116.66 1018.56,-104.51 1005.37,-96.04"/>
<polygon fill="#63b8ff" stroke="#63b8ff" points="1024.55,-187.8 1021.32,-197.89 1030.14,-192.01 1024.55,-187.8"/>
</a>
</g>
</g>
<!-- Node22 -->
<g id="Node000022" class="node">
<title>Node22</title>
<g id="a_Node000022"><a xlink:href="dispatcher_8cpp.html" target="_top" xlink:title=" ">
<polygon fill="white" stroke="#666666" points="1031.5,-156.5 903.5,-156.5 903.5,-137.5 1031.5,-137.5 1031.5,-156.5"/>
<text text-anchor="middle" x="967.5" y="-144.5" font-family="Helvetica,sans-Serif" font-size="10.00">src/core/dispatcher.cpp</text>
</a>
</g>
</g>
<!-- Node12&#45;&gt;Node22 -->
<g id="edge36_Node000012_Node000022" class="edge">
<title>Node12&#45;&gt;Node22</title>
<g id="a_edge36_Node000012_Node000022"><a xlink:title=" ">
<path fill="none" stroke="#63b8ff" d="M993.94,-189.28C986.76,-178.07 978.51,-165.19 973.17,-156.84"/>
<polygon fill="#63b8ff" stroke="#63b8ff" points="991.06,-191.26 999.4,-197.8 996.95,-187.49 991.06,-191.26"/>
</a>
</g>
</g>
<!-- Node13&#45;&gt;Node3 -->
<g id="edge18_Node000013_Node000003" class="edge">
<title>Node13&#45;&gt;Node3</title>
<g id="a_edge18_Node000013_Node000003"><a xlink:title=" ">
<path fill="none" stroke="#63b8ff" d="M1172.52,-128.43C1150.03,-119.94 1123.81,-108.8 1101.5,-96 1082.53,-85.12 1082.31,-75.26 1062.5,-66 1047.57,-59.02 958.67,-40.32 897.19,-27.87"/>
<polygon fill="#63b8ff" stroke="#63b8ff" points="1171.32,-131.72 1181.91,-131.91 1173.75,-125.15 1171.32,-131.72"/>
</a>
</g>
</g>
<!-- Node13&#45;&gt;Node14 -->
<g id="edge19_Node000013_Node000014" class="edge">
<title>Node13&#45;&gt;Node14</title>
<g id="a_edge19_Node000013_Node000014"><a xlink:title=" ">
<path fill="none" stroke="#63b8ff" d="M1207.16,-123.81C1200,-114.64 1191.9,-104.28 1185.57,-96.16"/>
<polygon fill="#63b8ff" stroke="#63b8ff" points="1204.49,-126.07 1213.4,-131.8 1210,-121.76 1204.49,-126.07"/>
</a>
</g>
</g>
<!-- Node13&#45;&gt;Node16 -->
<g id="edge22_Node000013_Node000016" class="edge">
<title>Node13&#45;&gt;Node16</title>
<g id="a_edge22_Node000013_Node000016"><a xlink:title=" ">
<path fill="none" stroke="#63b8ff" d="M1295.32,-132.39C1350.98,-121.69 1428.23,-106.85 1484.45,-96.04"/>
<polygon fill="#63b8ff" stroke="#63b8ff" points="1294.35,-129.01 1285.19,-134.34 1295.67,-135.89 1294.35,-129.01"/>
</a>
</g>
</g>
<!-- Node13&#45;&gt;Node18 -->
<g id="edge25_Node000013_Node000018" class="edge">
<title>Node13&#45;&gt;Node18</title>
<g id="a_edge25_Node000013_Node000018"><a xlink:title=" ">
<path fill="none" stroke="#63b8ff" d="M1256.78,-126.69C1273.29,-116.82 1293.03,-105.01 1308.07,-96.01"/>
<polygon fill="#63b8ff" stroke="#63b8ff" points="1254.77,-123.82 1247.98,-131.95 1258.36,-129.83 1254.77,-123.82"/>
</a>
</g>
</g>
<!-- Node13&#45;&gt;Node20 -->
<g id="edge28_Node000013_Node000020" class="edge">
<title>Node13&#45;&gt;Node20</title>
<g id="a_edge28_Node000013_Node000020"><a xlink:title=" ">
<path fill="none" stroke="#63b8ff" d="M1160.64,-129.39C1120.82,-119.03 1070.14,-105.84 1032.36,-96.01"/>
<polygon fill="#63b8ff" stroke="#63b8ff" points="1159.96,-132.82 1170.51,-131.95 1161.72,-126.05 1159.96,-132.82"/>
</a>
</g>
</g>
<!-- Node14&#45;&gt;Node3 -->
<g id="edge20_Node000014_Node000003" class="edge">
<title>Node14&#45;&gt;Node3</title>
<g id="a_edge20_Node000014_Node000003"><a xlink:title=" ">
<path fill="none" stroke="#63b8ff" d="M1099.91,-66.16C1046.57,-56.22 973.09,-42.44 908.5,-30 904.8,-29.29 900.99,-28.55 897.15,-27.8"/>
<polygon fill="#63b8ff" stroke="#63b8ff" points="1099.5,-69.65 1109.97,-68.04 1100.78,-62.76 1099.5,-69.65"/>
</a>
</g>
</g>
<!-- Node15 -->
<g id="Node000015" class="node">
<title>Node15</title>
<g id="a_Node000015"><a xlink:href="server_8cpp.html" target="_top" xlink:title=" ">
<polygon fill="white" stroke="#666666" points="1233.5,-24.5 1115.5,-24.5 1115.5,-5.5 1233.5,-5.5 1233.5,-24.5"/>
<text text-anchor="middle" x="1174.5" y="-12.5" font-family="Helvetica,sans-Serif" font-size="10.00">src/server/server.cpp</text>
</a>
</g>
</g>
<!-- Node14&#45;&gt;Node15 -->
<g id="edge21_Node000014_Node000015" class="edge">
<title>Node14&#45;&gt;Node15</title>
<g id="a_edge21_Node000014_Node000015"><a xlink:title=" ">
<path fill="none" stroke="#63b8ff" d="M1174.5,-55.6C1174.5,-44.8 1174.5,-32.78 1174.5,-24.84"/>
<polygon fill="#63b8ff" stroke="#63b8ff" points="1171,-55.8 1174.5,-65.8 1178,-55.8 1171,-55.8"/>
</a>
</g>
</g>
<!-- Node16&#45;&gt;Node3 -->
<g id="edge23_Node000016_Node000003" class="edge">
<title>Node16&#45;&gt;Node3</title>
<g id="a_edge23_Node000016_Node000003"><a xlink:title=" ">
<path fill="none" stroke="#63b8ff" d="M1451.49,-66.39C1450.15,-66.26 1448.82,-66.13 1447.5,-66 1208.53,-42.83 1146.54,-61.29 908.5,-30 904.76,-29.51 900.93,-28.94 897.07,-28.32"/>
<polygon fill="#63b8ff" stroke="#63b8ff" points="1451.54,-69.92 1461.85,-67.48 1452.26,-62.96 1451.54,-69.92"/>
</a>
</g>
</g>
<!-- Node17 -->
<g id="Node000017" class="node">
<title>Node17</title>
<g id="a_Node000017"><a xlink:href="framed__stdio__server__transport_8cpp.html" target="_top" xlink:title=" ">
<polygon fill="white" stroke="#666666" points="1633.5,-30 1481.5,-30 1481.5,0 1633.5,0 1633.5,-30"/>
<text text-anchor="start" x="1489.5" y="-18" font-family="Helvetica,sans-Serif" font-size="10.00">src/transports/framed</text>
<text text-anchor="middle" x="1557.5" y="-7" font-family="Helvetica,sans-Serif" font-size="10.00">_stdio_server_transport.cpp</text>
</a>
</g>
</g>
<!-- Node16&#45;&gt;Node17 -->
<g id="edge24_Node000016_Node000017" class="edge">
<title>Node16&#45;&gt;Node17</title>
<g id="a_edge24_Node000016_Node000017"><a xlink:title=" ">
<path fill="none" stroke="#63b8ff" d="M1557.5,-55.54C1557.5,-46.96 1557.5,-37.61 1557.5,-30.16"/>
<polygon fill="#63b8ff" stroke="#63b8ff" points="1554,-55.8 1557.5,-65.8 1561,-55.8 1554,-55.8"/>
</a>
</g>
</g>
<!-- Node18&#45;&gt;Node3 -->
<g id="edge26_Node000018_Node000003" class="edge">
<title>Node18&#45;&gt;Node3</title>
<g id="a_edge26_Node000018_Node000003"><a xlink:title=" ">
<path fill="none" stroke="#63b8ff" d="M1247.22,-65.88C1096.22,-45.66 1055.52,-52.23 908.5,-30 904.77,-29.44 900.94,-28.81 897.09,-28.15"/>
<polygon fill="#63b8ff" stroke="#63b8ff" points="1246.94,-69.38 1257.32,-67.26 1247.88,-62.44 1246.94,-69.38"/>
</a>
</g>
</g>
<!-- Node19 -->
<g id="Node000019" class="node">
<title>Node19</title>
<g id="a_Node000019"><a xlink:href="http__server__transport_8cpp.html" target="_top" xlink:title=" ">
<polygon fill="white" stroke="#666666" points="1392.5,-30 1270.5,-30 1270.5,0 1392.5,0 1392.5,-30"/>
<text text-anchor="start" x="1278.5" y="-18" font-family="Helvetica,sans-Serif" font-size="10.00">src/transports/http</text>
<text text-anchor="middle" x="1331.5" y="-7" font-family="Helvetica,sans-Serif" font-size="10.00">_server_transport.cpp</text>
</a>
</g>
</g>
<!-- Node18&#45;&gt;Node19 -->
<g id="edge27_Node000018_Node000019" class="edge">
<title>Node18&#45;&gt;Node19</title>
<g id="a_edge27_Node000018_Node000019"><a xlink:title=" ">
<path fill="none" stroke="#63b8ff" d="M1331.5,-55.54C1331.5,-46.96 1331.5,-37.61 1331.5,-30.16"/>
<polygon fill="#63b8ff" stroke="#63b8ff" points="1328,-55.8 1331.5,-65.8 1335,-55.8 1328,-55.8"/>
</a>
</g>
</g>
<!-- Node20&#45;&gt;Node3 -->
<g id="edge29_Node000020_Node000003" class="edge">
<title>Node20&#45;&gt;Node3</title>
<g id="a_edge29_Node000020_Node000003"><a xlink:title=" ">
<path fill="none" stroke="#63b8ff" d="M938.37,-61.78C916.14,-51.69 888.93,-39.34 868.37,-30.01"/>
<polygon fill="#63b8ff" stroke="#63b8ff" points="937,-65.01 947.56,-65.95 939.9,-58.63 937,-65.01"/>
</a>
</g>
</g>
<!-- Node21 -->
<g id="Node000021" class="node">
<title>Node21</title>
<g id="a_Node000021"><a xlink:href="stdio__server__transport_8cpp.html" target="_top" xlink:title=" ">
<polygon fill="white" stroke="#666666" points="1039.5,-30 917.5,-30 917.5,0 1039.5,0 1039.5,-30"/>
<text text-anchor="start" x="925.5" y="-18" font-family="Helvetica,sans-Serif" font-size="10.00">src/transports/stdio</text>
<text text-anchor="middle" x="978.5" y="-7" font-family="Helvetica,sans-Serif" font-size="10.00">_server_transport.cpp</text>
</a>
</g>
</g>
<!-- Node20&#45;&gt;Node21 -->
<g id="edge30_Node000020_Node000021" class="edge">
<title>Node20&#45;&gt;Node21</title>
<g id="a_edge30_Node000020_Node000021"><a xlink:title=" ">
<path fill="none" stroke="#63b8ff" d="M978.5,-55.54C978.5,-46.96 978.5,-37.61 978.5,-30.16"/>
<polygon fill="#63b8ff" stroke="#63b8ff" points="975,-55.8 978.5,-65.8 982,-55.8 975,-55.8"/>
</a>
</g>
</g>
<!-- Node23&#45;&gt;Node2 -->
<g id="edge38_Node000023_Node000002" class="edge">
<title>Node23&#45;&gt;Node2</title>
<g id="a_edge38_Node000023_Node000002"><a xlink:title=" ">
<path fill="none" stroke="#63b8ff" d="M771.39,-257.75C784.17,-248.13 799.14,-236.86 810.69,-228.16"/>
<polygon fill="#63b8ff" stroke="#63b8ff" points="769.25,-254.99 763.36,-263.8 773.46,-260.58 769.25,-254.99"/>
</a>
</g>
</g>
<!-- Node23&#45;&gt;Node3 -->
<g id="edge40_Node000023_Node000003" class="edge">
<title>Node23&#45;&gt;Node3</title>
<g id="a_edge40_Node000023_Node000003"><a xlink:title=" ">
<path fill="none" stroke="#63b8ff" d="M675.38,-264.17C655.99,-256.76 637.06,-245.4 625.5,-228 618.12,-216.89 623.01,-211.1 625.5,-198 631.38,-167.03 631.33,-156.23 651.5,-132 692.53,-82.72 760.13,-48.05 801.54,-30.12"/>
<polygon fill="#63b8ff" stroke="#63b8ff" points="674.32,-267.5 684.91,-267.5 676.62,-260.9 674.32,-267.5"/>
</a>
</g>
</g>
<!-- Node23&#45;&gt;Node12 -->
<g id="edge39_Node000023_Node000012" class="edge">
<title>Node23&#45;&gt;Node12</title>
<g id="a_edge39_Node000023_Node000012"><a xlink:title=" ">
<path fill="none" stroke="#63b8ff" d="M812.22,-261.58C855.08,-251.19 909.89,-237.9 950.7,-228.01"/>
<polygon fill="#63b8ff" stroke="#63b8ff" points="811.33,-258.2 802.44,-263.95 812.98,-265 811.33,-258.2"/>
</a>
</g>
</g>
<!-- Node24 -->
<g id="Node000024" class="node">
<title>Node24</title>
<g id="a_Node000024"><a xlink:href="request_8cpp.html" target="_top" xlink:title=" ">
<polygon fill="white" stroke="#666666" points="749,-222.5 634,-222.5 634,-203.5 749,-203.5 749,-222.5"/>
<text text-anchor="middle" x="691.5" y="-210.5" font-family="Helvetica,sans-Serif" font-size="10.00">src/core/request.cpp</text>
</a>
</g>
</g>
<!-- Node23&#45;&gt;Node24 -->
<g id="edge41_Node000023_Node000024" class="edge">
<title>Node23&#45;&gt;Node24</title>
<g id="a_edge41_Node000023_Node000024"><a xlink:title=" ">
<path fill="none" stroke="#63b8ff" d="M726.23,-255.94C716.82,-244.58 705.87,-231.36 698.82,-222.84"/>
<polygon fill="#63b8ff" stroke="#63b8ff" points="723.66,-258.33 732.74,-263.8 729.06,-253.86 723.66,-258.33"/>
</a>
</g>
</g>
<!-- Node25&#45;&gt;Node2 -->
<g id="edge43_Node000025_Node000002" class="edge">
<title>Node25&#45;&gt;Node2</title>
<g id="a_edge43_Node000025_Node000002"><a xlink:title=" ">
<path fill="none" stroke="#63b8ff" d="M892.1,-258.03C878.33,-248.34 862.12,-236.94 849.64,-228.16"/>
<polygon fill="#63b8ff" stroke="#63b8ff" points="890.11,-260.91 900.3,-263.8 894.14,-255.18 890.11,-260.91"/>
</a>
</g>
</g>
<!-- Node25&#45;&gt;Node3 -->
<g id="edge45_Node000025_Node000003" class="edge">
<title>Node25&#45;&gt;Node3</title>
<g id="a_edge45_Node000025_Node000003"><a xlink:title=" ">
<path fill="none" stroke="#63b8ff" d="M917.55,-253.42C914.91,-237.08 910.07,-215.5 901.5,-198 892.46,-179.55 882.23,-180.1 872.5,-162 857.93,-134.88 858.84,-125.9 851.5,-96 845.92,-73.27 841.69,-46.38 839.41,-30.28"/>
<polygon fill="#63b8ff" stroke="#63b8ff" points="914.15,-254.38 919.05,-263.77 921.08,-253.38 914.15,-254.38"/>
</a>
</g>
</g>
<!-- Node25&#45;&gt;Node12 -->
<g id="edge44_Node000025_Node000012" class="edge">
<title>Node25&#45;&gt;Node12</title>
<g id="a_edge44_Node000025_Node000012"><a xlink:title=" ">
<path fill="none" stroke="#63b8ff" d="M948.34,-257.75C961.57,-248.13 977.07,-236.86 989.02,-228.16"/>
<polygon fill="#63b8ff" stroke="#63b8ff" points="946.06,-255.08 940.03,-263.8 950.18,-260.75 946.06,-255.08"/>
</a>
</g>
</g>
<!-- Node26 -->
<g id="Node000026" class="node">
<title>Node26</title>
<g id="a_Node000026"><a xlink:href="response_8cpp.html" target="_top" xlink:title=" ">
<polygon fill="white" stroke="#666666" points="1208.5,-222.5 1086.5,-222.5 1086.5,-203.5 1208.5,-203.5 1208.5,-222.5"/>
<text text-anchor="middle" x="1147.5" y="-210.5" font-family="Helvetica,sans-Serif" font-size="10.00">src/core/response.cpp</text>
</a>
</g>
</g>
<!-- Node25&#45;&gt;Node26 -->
<g id="edge46_Node000025_Node000026" class="edge">
<title>Node25&#45;&gt;Node26</title>
<g id="a_edge46_Node000025_Node000026"><a xlink:title=" ">
<path fill="none" stroke="#63b8ff" d="M980.06,-261.21C1024.16,-248.78 1082.4,-232.35 1117.29,-222.52"/>
<polygon fill="#63b8ff" stroke="#63b8ff" points="978.99,-257.87 970.32,-263.95 980.89,-264.61 978.99,-257.87"/>
</a>
</g>
</g>
<!-- Node27&#45;&gt;Node3 -->
<g id="edge53_Node000027_Node000003" class="edge">
<title>Node27&#45;&gt;Node3</title>
<g id="a_edge53_Node000027_Node000003"><a xlink:title=" ">
<path fill="none" stroke="#63b8ff" d="M1388.8,-256.46C1381.08,-248.42 1373.58,-238.63 1369.5,-228 1364.72,-215.55 1366.75,-211.05 1369.5,-198 1382.28,-137.35 1456.74,-111.36 1414.5,-66 1376.08,-24.75 964.37,-37.47 908.5,-30 904.76,-29.5 900.93,-28.93 897.07,-28.3"/>
<polygon fill="#63b8ff" stroke="#63b8ff" points="1386.86,-259.45 1396.48,-263.89 1391.73,-254.42 1386.86,-259.45"/>
</a>
</g>
</g>
<!-- Node27&#45;&gt;Node6 -->
<g id="edge54_Node000027_Node000006" class="edge">
<title>Node27&#45;&gt;Node6</title>
<g id="a_edge54_Node000027_Node000006"><a xlink:title=" ">
<path fill="none" stroke="#63b8ff" d="M1330.35,-273.66C1186.02,-265.98 882,-248.86 625.5,-228 610.18,-226.75 593.93,-225.28 578.13,-223.77"/>
<polygon fill="#63b8ff" stroke="#63b8ff" points="1330.3,-277.16 1340.47,-274.19 1330.67,-270.17 1330.3,-277.16"/>
</a>
</g>
</g>
<!-- Node27&#45;&gt;Node16 -->
<g id="edge55_Node000027_Node000016" class="edge">
<title>Node27&#45;&gt;Node16</title>
<g id="a_edge55_Node000027_Node000016"><a xlink:title=" ">
<path fill="none" stroke="#63b8ff" d="M1466.25,-259.66C1481.94,-251.96 1498.03,-241.56 1509.5,-228 1543.1,-188.27 1553.36,-124.36 1556.35,-96.15"/>
<polygon fill="#63b8ff" stroke="#63b8ff" points="1464.71,-256.52 1457.1,-263.89 1467.64,-262.87 1464.71,-256.52"/>
</a>
</g>
</g>
<!-- Node28 -->
<g id="Node000028" class="node">
<title>Node28</title>
<g id="a_Node000028"><a xlink:href="framed__transport_8cpp.html" target="_top" xlink:title=" ">
<polygon fill="white" stroke="#666666" points="1500.5,-228 1378.5,-228 1378.5,-198 1500.5,-198 1500.5,-228"/>
<text text-anchor="start" x="1386.5" y="-216" font-family="Helvetica,sans-Serif" font-size="10.00">src/transports/framed</text>
<text text-anchor="middle" x="1439.5" y="-205" font-family="Helvetica,sans-Serif" font-size="10.00">_transport.cpp</text>
</a>
</g>
</g>
<!-- Node27&#45;&gt;Node28 -->
<g id="edge56_Node000027_Node000028" class="edge">
<title>Node27&#45;&gt;Node28</title>
<g id="a_edge56_Node000027_Node000028"><a xlink:title=" ">
<path fill="none" stroke="#63b8ff" d="M1423.72,-254.39C1427.16,-245.59 1430.96,-235.86 1433.97,-228.16"/>
<polygon fill="#63b8ff" stroke="#63b8ff" points="1420.43,-253.21 1420.05,-263.8 1426.95,-255.76 1420.43,-253.21"/>
</a>
</g>
</g>
</g>
</svg>
