<?xml version="1.0" encoding="UTF-8" standalone="no"?>
<!DOCTYPE svg PUBLIC "-//W3C//DTD SVG 1.1//EN"
 "http://www.w3.org/Graphics/SVG/1.1/DTD/svg11.dtd">
<!-- Generated by graphviz version 2.43.0 (0)
 -->
<!-- Title: include/jsonrpc/server/types.hpp Pages: 1 -->
<svg width="531pt" height="324pt"
 viewBox="0.00 0.00 530.50 324.00" xmlns="http://www.w3.org/2000/svg" xmlns:xlink="http://www.w3.org/1999/xlink">
<g id="graph0" class="graph" transform="scale(1 1) rotate(0) translate(4 320)">
<title>include/jsonrpc/server/types.hpp</title>
<!-- Node1 -->
<g id="Node000001" class="node">
<title>Node1</title>
<g id="a_Node000001"><a xlink:title=" ">
<polygon fill="#999999" stroke="#666666" points="492.5,-316 368.5,-316 368.5,-286 492.5,-286 492.5,-316"/>
<text text-anchor="start" x="376.5" y="-304" font-family="Helvetica,sans-Serif" font-size="10.00">include/jsonrpc/server</text>
<text text-anchor="middle" x="430.5" y="-293" font-family="Helvetica,sans-Serif" font-size="10.00">/types.hpp</text>
</a>
</g>
</g>
<!-- Node2 -->
<g id="Node000002" class="node">
<title>Node2</title>
<g id="a_Node000002"><a xlink:href="dispatcher_8hpp.html" target="_top" xlink:title=" ">
<polygon fill="white" stroke="#666666" points="425.5,-250 301.5,-250 301.5,-220 425.5,-220 425.5,-250"/>
<text text-anchor="start" x="309.5" y="-238" font-family="Helvetica,sans-Serif" font-size="10.00">include/jsonrpc/server</text>
<text text-anchor="middle" x="363.5" y="-227" font-family="Helvetica,sans-Serif" font-size="10.00">/dispatcher.hpp</text>
</a>
</g>
</g>
<!-- Node1&#45;&gt;Node2 -->
<g id="edge1_Node000001_Node000002" class="edge">
<title>Node1&#45;&gt;Node2</title>
<g id="a_edge1_Node000001_Node000002"><a xlink:title=" ">
<path fill="none" stroke="#63b8ff" d="M408.15,-278.65C398.33,-269.27 387.08,-258.53 378.33,-250.16"/>
<polygon fill="#63b8ff" stroke="#63b8ff" points="405.98,-281.42 415.63,-285.8 410.82,-276.36 405.98,-281.42"/>
</a>
</g>
</g>
<!-- Node3 -->
<g id="Node000003" class="node">
<title>Node3</title>
<g id="a_Node000003"><a xlink:href="server_8hpp.html" target="_top" xlink:title=" ">
<polygon fill="white" stroke="#666666" points="522.5,-112.5 398.5,-112.5 398.5,-82.5 522.5,-82.5 522.5,-112.5"/>
<text text-anchor="start" x="406.5" y="-100.5" font-family="Helvetica,sans-Serif" font-size="10.00">include/jsonrpc/server</text>
<text text-anchor="middle" x="460.5" y="-89.5" font-family="Helvetica,sans-Serif" font-size="10.00">/server.hpp</text>
</a>
</g>
</g>
<!-- Node1&#45;&gt;Node3 -->
<g id="edge12_Node000001_Node000003" class="edge">
<title>Node1&#45;&gt;Node3</title>
<g id="a_edge12_Node000001_Node000003"><a xlink:title=" ">
<path fill="none" stroke="#63b8ff" d="M438.79,-276.3C446.43,-253.11 457.22,-216.62 461.5,-184 463.24,-170.78 461.62,-167.33 461.5,-154 461.37,-139.93 461.07,-123.86 460.83,-112.64"/>
<polygon fill="#63b8ff" stroke="#63b8ff" points="435.41,-275.36 435.54,-285.95 442.05,-277.6 435.41,-275.36"/>
</a>
</g>
</g>
<!-- Node2&#45;&gt;Node3 -->
<g id="edge2_Node000002_Node000003" class="edge">
<title>Node2&#45;&gt;Node3</title>
<g id="a_edge2_Node000002_Node000003"><a xlink:title=" ">
<path fill="none" stroke="#63b8ff" d="M406.18,-214.82C419.29,-207 432.59,-196.75 441.5,-184 456.65,-162.31 459.98,-130.61 460.56,-112.52"/>
<polygon fill="#63b8ff" stroke="#63b8ff" points="404.21,-211.91 397.19,-219.85 407.63,-218.02 404.21,-211.91"/>
</a>
</g>
</g>
<!-- Node5 -->
<g id="Node000005" class="node">
<title>Node5</title>
<g id="a_Node000005"><a xlink:href="server__transport_8hpp.html" target="_top" xlink:title=" ">
<polygon fill="white" stroke="#666666" points="276,-184 103,-184 103,-154 276,-154 276,-184"/>
<text text-anchor="start" x="111" y="-172" font-family="Helvetica,sans-Serif" font-size="10.00">include/jsonrpc/server</text>
<text text-anchor="middle" x="189.5" y="-161" font-family="Helvetica,sans-Serif" font-size="10.00">/transports/server_transport.hpp</text>
</a>
</g>
</g>
<!-- Node2&#45;&gt;Node5 -->
<g id="edge4_Node000002_Node000005" class="edge">
<title>Node2&#45;&gt;Node5</title>
<g id="a_edge4_Node000002_Node000005"><a xlink:title=" ">
<path fill="none" stroke="#63b8ff" d="M315.8,-216.46C288.04,-206.25 253.53,-193.55 227.6,-184.01"/>
<polygon fill="#63b8ff" stroke="#63b8ff" points="314.72,-219.79 325.31,-219.95 317.14,-213.22 314.72,-219.79"/>
</a>
</g>
</g>
<!-- Node8 -->
<g id="Node000008" class="node">
<title>Node8</title>
<g id="a_Node000008"><a xlink:href="stdio__server__transport_8hpp.html" target="_top" xlink:title=" ">
<polygon fill="white" stroke="#666666" points="140.5,-118 8.5,-118 8.5,-77 140.5,-77 140.5,-118"/>
<text text-anchor="start" x="16.5" y="-106" font-family="Helvetica,sans-Serif" font-size="10.00">include/jsonrpc/server</text>
<text text-anchor="start" x="16.5" y="-95" font-family="Helvetica,sans-Serif" font-size="10.00">/transports/stdio_server</text>
<text text-anchor="middle" x="74.5" y="-84" font-family="Helvetica,sans-Serif" font-size="10.00">_transport.hpp</text>
</a>
</g>
</g>
<!-- Node2&#45;&gt;Node8 -->
<g id="edge10_Node000002_Node000008" class="edge">
<title>Node2&#45;&gt;Node8</title>
<g id="a_edge10_Node000002_Node000008"><a xlink:title=" ">
<path fill="none" stroke="#63b8ff" d="M291.37,-229.5C221.18,-223.61 121.17,-210.7 93.5,-184 75.88,-167 72.91,-137.57 73.13,-118.06"/>
<polygon fill="#63b8ff" stroke="#63b8ff" points="291.25,-233 301.5,-230.32 291.81,-226.02 291.25,-233"/>
</a>
</g>
</g>
<!-- Node10 -->
<g id="Node000010" class="node">
<title>Node10</title>
<g id="a_Node000010"><a xlink:href="dispatcher_8cpp.html" target="_top" xlink:title=" ">
<polygon fill="white" stroke="#666666" points="432.5,-178.5 294.5,-178.5 294.5,-159.5 432.5,-159.5 432.5,-178.5"/>
<text text-anchor="middle" x="363.5" y="-166.5" font-family="Helvetica,sans-Serif" font-size="10.00">src/server/dispatcher.cpp</text>
</a>
</g>
</g>
<!-- Node2&#45;&gt;Node10 -->
<g id="edge11_Node000002_Node000010" class="edge">
<title>Node2&#45;&gt;Node10</title>
<g id="a_edge11_Node000002_Node000010"><a xlink:title=" ">
<path fill="none" stroke="#63b8ff" d="M363.5,-209.6C363.5,-198.8 363.5,-186.78 363.5,-178.84"/>
<polygon fill="#63b8ff" stroke="#63b8ff" points="360,-209.8 363.5,-219.8 367,-209.8 360,-209.8"/>
</a>
</g>
</g>
<!-- Node4 -->
<g id="Node000004" class="node">
<title>Node4</title>
<g id="a_Node000004"><a xlink:href="server_8cpp.html" target="_top" xlink:title=" ">
<polygon fill="white" stroke="#666666" points="519.5,-30 401.5,-30 401.5,-11 519.5,-11 519.5,-30"/>
<text text-anchor="middle" x="460.5" y="-18" font-family="Helvetica,sans-Serif" font-size="10.00">src/server/server.cpp</text>
</a>
</g>
</g>
<!-- Node3&#45;&gt;Node4 -->
<g id="edge3_Node000003_Node000004" class="edge">
<title>Node3&#45;&gt;Node4</title>
<g id="a_edge3_Node000003_Node000004"><a xlink:title=" ">
<path fill="none" stroke="#63b8ff" d="M460.5,-72.18C460.5,-57.86 460.5,-40.61 460.5,-30.37"/>
<polygon fill="#63b8ff" stroke="#63b8ff" points="457,-72.39 460.5,-82.39 464,-72.39 457,-72.39"/>
</a>
</g>
</g>
<!-- Node5&#45;&gt;Node3 -->
<g id="edge5_Node000005_Node000003" class="edge">
<title>Node5&#45;&gt;Node3</title>
<g id="a_edge5_Node000005_Node000003"><a xlink:title=" ">
<path fill="none" stroke="#63b8ff" d="M254.26,-151.39C300.48,-139.54 361.96,-123.77 405.74,-112.54"/>
<polygon fill="#63b8ff" stroke="#63b8ff" points="253.16,-148.06 244.34,-153.94 254.9,-154.84 253.16,-148.06"/>
</a>
</g>
</g>
<!-- Node6 -->
<g id="Node000006" class="node">
<title>Node6</title>
<g id="a_Node000006"><a xlink:href="framed__stdio__server__transport_8hpp.html" target="_top" xlink:title=" ">
<polygon fill="white" stroke="#666666" points="296,-118 159,-118 159,-77 296,-77 296,-118"/>
<text text-anchor="start" x="167" y="-106" font-family="Helvetica,sans-Serif" font-size="10.00">include/jsonrpc/server</text>
<text text-anchor="start" x="167" y="-95" font-family="Helvetica,sans-Serif" font-size="10.00">/transports/framed_stdio</text>
<text text-anchor="middle" x="227.5" y="-84" font-family="Helvetica,sans-Serif" font-size="10.00">_server_transport.hpp</text>
</a>
</g>
</g>
<!-- Node5&#45;&gt;Node6 -->
<g id="edge6_Node000005_Node000006" class="edge">
<title>Node5&#45;&gt;Node6</title>
<g id="a_edge6_Node000005_Node000006"><a xlink:title=" ">
<path fill="none" stroke="#63b8ff" d="M202.06,-145.03C206.83,-136.31 212.21,-126.46 216.8,-118.07"/>
<polygon fill="#63b8ff" stroke="#63b8ff" points="198.92,-143.48 197.19,-153.94 205.06,-146.84 198.92,-143.48"/>
</a>
</g>
</g>
<!-- Node5&#45;&gt;Node8 -->
<g id="edge8_Node000005_Node000008" class="edge">
<title>Node5&#45;&gt;Node8</title>
<g id="a_edge8_Node000005_Node000008"><a xlink:title=" ">
<path fill="none" stroke="#63b8ff" d="M157.37,-148.58C141.61,-139.06 122.68,-127.62 106.89,-118.07"/>
<polygon fill="#63b8ff" stroke="#63b8ff" points="155.86,-151.76 166.23,-153.94 159.48,-145.77 155.86,-151.76"/>
</a>
</g>
</g>
<!-- Node7 -->
<g id="Node000007" class="node">
<title>Node7</title>
<g id="a_Node000007"><a xlink:href="framed__stdio__server__transport_8cpp.html" target="_top" xlink:title=" ">
<polygon fill="white" stroke="#666666" points="287.5,-41 167.5,-41 167.5,0 287.5,0 287.5,-41"/>
<text text-anchor="start" x="175.5" y="-29" font-family="Helvetica,sans-Serif" font-size="10.00">src/server/transports</text>
<text text-anchor="start" x="175.5" y="-18" font-family="Helvetica,sans-Serif" font-size="10.00">/framed_stdio_server</text>
<text text-anchor="middle" x="227.5" y="-7" font-family="Helvetica,sans-Serif" font-size="10.00">_transport.cpp</text>
</a>
</g>
</g>
<!-- Node6&#45;&gt;Node7 -->
<g id="edge7_Node000006_Node000007" class="edge">
<title>Node6&#45;&gt;Node7</title>
<g id="a_edge7_Node000006_Node000007"><a xlink:title=" ">
<path fill="none" stroke="#63b8ff" d="M227.5,-66.69C227.5,-58.08 227.5,-48.9 227.5,-41.07"/>
<polygon fill="#63b8ff" stroke="#63b8ff" points="224,-66.79 227.5,-76.79 231,-66.79 224,-66.79"/>
</a>
</g>
</g>
<!-- Node9 -->
<g id="Node000009" class="node">
<title>Node9</title>
<g id="a_Node000009"><a xlink:href="stdio__server__transport_8cpp.html" target="_top" xlink:title=" ">
<polygon fill="white" stroke="#666666" points="149,-35.5 0,-35.5 0,-5.5 149,-5.5 149,-35.5"/>
<text text-anchor="start" x="8" y="-23.5" font-family="Helvetica,sans-Serif" font-size="10.00">src/server/transports</text>
<text text-anchor="middle" x="74.5" y="-12.5" font-family="Helvetica,sans-Serif" font-size="10.00">/stdio_server_transport.cpp</text>
</a>
</g>
</g>
<!-- Node8&#45;&gt;Node9 -->
<g id="edge9_Node000008_Node000009" class="edge">
<title>Node8&#45;&gt;Node9</title>
<g id="a_edge9_Node000008_Node000009"><a xlink:title=" ">
<path fill="none" stroke="#63b8ff" d="M74.5,-66.61C74.5,-56.01 74.5,-44.57 74.5,-35.86"/>
<polygon fill="#63b8ff" stroke="#63b8ff" points="71,-66.79 74.5,-76.79 78,-66.79 71,-66.79"/>
</a>
</g>
</g>
</g>
</svg>
